%TF.GenerationSoftware,KiCad,Pcbnew,(5.1.6)-1*%
%TF.CreationDate,2025-03-01T15:12:17-05:00*%
%TF.ProjectId,usba_connector,75736261-5f63-46f6-9e6e-6563746f722e,rev?*%
%TF.SameCoordinates,PX477f390PY57bcf00*%
%TF.FileFunction,Copper,L1,Top*%
%TF.FilePolarity,Positive*%
%FSLAX46Y46*%
G04 Gerber Fmt 4.6, Leading zero omitted, Abs format (unit mm)*
G04 Created by KiCad (PCBNEW (5.1.6)-1) date 2025-03-01 15:12:17*
%MOMM*%
%LPD*%
G01*
G04 APERTURE LIST*
%TA.AperFunction,ComponentPad*%
%ADD10C,1.500000*%
%TD*%
%TA.AperFunction,ConnectorPad*%
%ADD11R,2.000000X13.600000*%
%TD*%
%TA.AperFunction,ConnectorPad*%
%ADD12R,2.000000X14.600000*%
%TD*%
%TA.AperFunction,ConnectorPad*%
%ADD13R,1.900000X16.100000*%
%TD*%
%TA.AperFunction,ConnectorPad*%
%ADD14R,1.900000X13.100000*%
%TD*%
%TA.AperFunction,Conductor*%
%ADD15C,0.290000*%
%TD*%
G04 APERTURE END LIST*
D10*
%TO.P,J1,1*%
%TO.N,Net-(J1-Pad1)*%
X9800000Y13200000D03*
%TO.P,J1,2*%
%TO.N,Net-(J1-Pad2)*%
X7300000Y14200000D03*
%TO.P,J1,3*%
%TO.N,Net-(J1-Pad3)*%
X4700000Y15200000D03*
%TO.P,J1,4*%
%TO.N,GND*%
X2200000Y16200000D03*
D11*
%TO.P,J1,2*%
%TO.N,Net-(J1-Pad2)*%
X7300000Y8200000D03*
D12*
%TO.P,J1,3*%
%TO.N,Net-(J1-Pad3)*%
X4700000Y8700000D03*
D13*
%TO.P,J1,4*%
%TO.N,GND*%
X2190000Y8950000D03*
D14*
%TO.P,J1,1*%
%TO.N,Net-(J1-Pad1)*%
X9810000Y7450000D03*
%TD*%
D15*
%TO.N,GND*%
G36*
X13530000Y13970000D02*
G01*
X12023087Y13970000D01*
X12000000Y13972274D01*
X11976913Y13970000D01*
X11907864Y13963199D01*
X11819269Y13936324D01*
X11737619Y13892681D01*
X11666052Y13833948D01*
X11607319Y13762381D01*
X11563676Y13680731D01*
X11552837Y13645000D01*
X11207153Y13645000D01*
X11207153Y14000000D01*
X11198561Y14087235D01*
X11173116Y14171118D01*
X11131794Y14248425D01*
X11076185Y14316185D01*
X11008425Y14371794D01*
X10931118Y14413116D01*
X10847235Y14438561D01*
X10760000Y14447153D01*
X8860000Y14447153D01*
X8772765Y14438561D01*
X8747153Y14430792D01*
X8747153Y15000000D01*
X8738561Y15087235D01*
X8713116Y15171118D01*
X8671794Y15248425D01*
X8616185Y15316185D01*
X8548425Y15371794D01*
X8471118Y15413116D01*
X8387235Y15438561D01*
X8300000Y15447153D01*
X6300000Y15447153D01*
X6212765Y15438561D01*
X6147153Y15418658D01*
X6147153Y16000000D01*
X6138561Y16087235D01*
X6113116Y16171118D01*
X6071794Y16248425D01*
X6016185Y16316185D01*
X5948425Y16371794D01*
X5871118Y16413116D01*
X5787235Y16438561D01*
X5700000Y16447153D01*
X3700000Y16447153D01*
X3612765Y16438561D01*
X3528882Y16413116D01*
X3451575Y16371794D01*
X3383815Y16316185D01*
X3328206Y16248425D01*
X3286884Y16171118D01*
X3261439Y16087235D01*
X3252847Y16000000D01*
X3252847Y13645000D01*
X447163Y13645000D01*
X436324Y13680731D01*
X392681Y13762381D01*
X333948Y13833948D01*
X262381Y13892681D01*
X180731Y13936324D01*
X92136Y13963199D01*
X23087Y13970000D01*
X0Y13972274D01*
X-23087Y13970000D01*
X-1530000Y13970000D01*
X-1530000Y17030000D01*
X13530001Y17030000D01*
X13530000Y13970000D01*
G37*
X13530000Y13970000D02*
X12023087Y13970000D01*
X12000000Y13972274D01*
X11976913Y13970000D01*
X11907864Y13963199D01*
X11819269Y13936324D01*
X11737619Y13892681D01*
X11666052Y13833948D01*
X11607319Y13762381D01*
X11563676Y13680731D01*
X11552837Y13645000D01*
X11207153Y13645000D01*
X11207153Y14000000D01*
X11198561Y14087235D01*
X11173116Y14171118D01*
X11131794Y14248425D01*
X11076185Y14316185D01*
X11008425Y14371794D01*
X10931118Y14413116D01*
X10847235Y14438561D01*
X10760000Y14447153D01*
X8860000Y14447153D01*
X8772765Y14438561D01*
X8747153Y14430792D01*
X8747153Y15000000D01*
X8738561Y15087235D01*
X8713116Y15171118D01*
X8671794Y15248425D01*
X8616185Y15316185D01*
X8548425Y15371794D01*
X8471118Y15413116D01*
X8387235Y15438561D01*
X8300000Y15447153D01*
X6300000Y15447153D01*
X6212765Y15438561D01*
X6147153Y15418658D01*
X6147153Y16000000D01*
X6138561Y16087235D01*
X6113116Y16171118D01*
X6071794Y16248425D01*
X6016185Y16316185D01*
X5948425Y16371794D01*
X5871118Y16413116D01*
X5787235Y16438561D01*
X5700000Y16447153D01*
X3700000Y16447153D01*
X3612765Y16438561D01*
X3528882Y16413116D01*
X3451575Y16371794D01*
X3383815Y16316185D01*
X3328206Y16248425D01*
X3286884Y16171118D01*
X3261439Y16087235D01*
X3252847Y16000000D01*
X3252847Y13645000D01*
X447163Y13645000D01*
X436324Y13680731D01*
X392681Y13762381D01*
X333948Y13833948D01*
X262381Y13892681D01*
X180731Y13936324D01*
X92136Y13963199D01*
X23087Y13970000D01*
X0Y13972274D01*
X-23087Y13970000D01*
X-1530000Y13970000D01*
X-1530000Y17030000D01*
X13530001Y17030000D01*
X13530000Y13970000D01*
%TD*%
M02*
