%TF.GenerationSoftware,KiCad,Pcbnew,(5.1.6)-1*%
%TF.CreationDate,2025-03-18T13:40:46-05:00*%
%TF.ProjectId,row_board_pcbway,726f775f-626f-4617-9264-5f7063627761,rev?*%
%TF.SameCoordinates,PX311d3e0PY5f5e100*%
%TF.FileFunction,Copper,L2,Bot*%
%TF.FilePolarity,Positive*%
%FSLAX46Y46*%
G04 Gerber Fmt 4.6, Leading zero omitted, Abs format (unit mm)*
G04 Created by KiCad (PCBNEW (5.1.6)-1) date 2025-03-18 13:40:46*
%MOMM*%
%LPD*%
G01*
G04 APERTURE LIST*
%TA.AperFunction,ComponentPad*%
%ADD10C,2.200000*%
%TD*%
%TA.AperFunction,WasherPad*%
%ADD11C,2.000000*%
%TD*%
%TA.AperFunction,ComponentPad*%
%ADD12O,3.470000X2.200000*%
%TD*%
%TA.AperFunction,ViaPad*%
%ADD13C,2.000000*%
%TD*%
%TA.AperFunction,ViaPad*%
%ADD14C,0.800000*%
%TD*%
%TA.AperFunction,Conductor*%
%ADD15C,1.000000*%
%TD*%
%TA.AperFunction,Conductor*%
%ADD16C,0.800000*%
%TD*%
%TA.AperFunction,Conductor*%
%ADD17C,0.200000*%
%TD*%
G04 APERTURE END LIST*
D10*
%TO.P,J1,6*%
%TO.N,+5V*%
X35200000Y22000000D03*
%TO.P,J1,5*%
%TO.N,BTN_CLK*%
X32660000Y22000000D03*
%TO.P,J1,4*%
%TO.N,GND*%
X30120000Y22000000D03*
%TO.P,J1,3*%
%TO.N,BTN_DIN*%
X27580000Y22000000D03*
%TO.P,J1,2*%
%TO.N,LED_DIN*%
X25040000Y22000000D03*
%TO.P,J1,1*%
%TO.N,BTN_SENSE*%
X22500000Y22000000D03*
%TD*%
D11*
%TO.P,REF\u002A\u002A,*%
%TO.N,*%
X3000000Y14000000D03*
%TD*%
D12*
%TO.P,SW1,2*%
%TO.N,BTN_SENSE*%
X12960000Y3660000D03*
%TO.P,SW1,1*%
%TO.N,Net-(SW1-Pad1)*%
X12960000Y8740000D03*
%TO.P,SW1,2*%
%TO.N,BTN_SENSE*%
X4040000Y3660000D03*
%TO.P,SW1,1*%
%TO.N,Net-(SW1-Pad1)*%
X4040000Y8740000D03*
%TD*%
%TO.P,SW2,1*%
%TO.N,Net-(SW2-Pad1)*%
X49040000Y8740000D03*
%TO.P,SW2,2*%
%TO.N,BTN_SENSE*%
X49040000Y3660000D03*
%TO.P,SW2,1*%
%TO.N,Net-(SW2-Pad1)*%
X57960000Y8740000D03*
%TO.P,SW2,2*%
%TO.N,BTN_SENSE*%
X57960000Y3660000D03*
%TD*%
%TO.P,SW3,2*%
%TO.N,BTN_SENSE*%
X102960000Y3660000D03*
%TO.P,SW3,1*%
%TO.N,Net-(SW3-Pad1)*%
X102960000Y8740000D03*
%TO.P,SW3,2*%
%TO.N,BTN_SENSE*%
X94040000Y3660000D03*
%TO.P,SW3,1*%
%TO.N,Net-(SW3-Pad1)*%
X94040000Y8740000D03*
%TD*%
%TO.P,SW4,1*%
%TO.N,Net-(SW4-Pad1)*%
X139040000Y8740000D03*
%TO.P,SW4,2*%
%TO.N,BTN_SENSE*%
X139040000Y3660000D03*
%TO.P,SW4,1*%
%TO.N,Net-(SW4-Pad1)*%
X147960000Y8740000D03*
%TO.P,SW4,2*%
%TO.N,BTN_SENSE*%
X147960000Y3660000D03*
%TD*%
%TO.P,SW5,1*%
%TO.N,Net-(SW5-Pad1)*%
X184040000Y8740000D03*
%TO.P,SW5,2*%
%TO.N,BTN_SENSE*%
X184040000Y3660000D03*
%TO.P,SW5,1*%
%TO.N,Net-(SW5-Pad1)*%
X192960000Y8740000D03*
%TO.P,SW5,2*%
%TO.N,BTN_SENSE*%
X192960000Y3660000D03*
%TD*%
D10*
%TO.P,J2,1*%
%TO.N,+5V*%
X34850000Y2900000D03*
%TO.P,J2,2*%
%TO.N,BTN_CLK*%
X32310000Y2900000D03*
%TO.P,J2,3*%
%TO.N,GND*%
X29770000Y2900000D03*
%TO.P,J2,4*%
%TO.N,BTN_DOUT*%
X27230000Y2900000D03*
%TO.P,J2,5*%
%TO.N,LED_DOUT*%
X24690000Y2900000D03*
%TO.P,J2,6*%
%TO.N,BTN_SENSE*%
X22150000Y2900000D03*
%TD*%
D13*
%TO.N,+5V*%
X45280000Y5900000D03*
X45300000Y18175010D03*
D14*
%TO.N,GND*%
X15500000Y15000000D03*
X15500000Y14000000D03*
X15500000Y13000000D03*
X14500000Y13000000D03*
X14500000Y14000000D03*
X14500000Y15000000D03*
X5500000Y24000000D03*
X5500000Y23000000D03*
X4500000Y23000000D03*
X3500000Y23000000D03*
X3500000Y24000000D03*
X4500000Y24000000D03*
X13000000Y24000000D03*
X13000000Y23000000D03*
X14000000Y23000000D03*
X15000000Y23000000D03*
X15000000Y24000000D03*
X14000000Y24000000D03*
X16500000Y3500000D03*
X17500000Y3500000D03*
X18500000Y3500000D03*
X18500000Y2500000D03*
X17500000Y2500000D03*
X16500000Y2500000D03*
X44000000Y24000000D03*
X45000000Y24000000D03*
X46000000Y24000000D03*
X46000000Y23000000D03*
X45000000Y23000000D03*
X44000000Y23000000D03*
X19000000Y9500000D03*
X20000000Y9500000D03*
X21000000Y9500000D03*
X21000000Y8500000D03*
X20000000Y8500000D03*
X19000000Y8500000D03*
X6000000Y12500000D03*
X6000000Y11500000D03*
X7000000Y12500000D03*
X8000000Y12500000D03*
X8000000Y11500000D03*
X7000000Y11500000D03*
X41000000Y1500000D03*
X42000000Y1500000D03*
X43000000Y1500000D03*
X44000000Y1500000D03*
X83000000Y18500000D03*
X84500000Y18500000D03*
X86000000Y18500000D03*
X87500000Y18500000D03*
X83000000Y17000000D03*
X84500000Y17000000D03*
X86000000Y17000000D03*
X87500000Y17000000D03*
X64000000Y5000000D03*
X65500000Y5000000D03*
X67000000Y5000000D03*
X64000000Y3500000D03*
X65500000Y3500000D03*
X67000000Y3500000D03*
X84000000Y5000000D03*
X85500000Y5000000D03*
X87000000Y5000000D03*
X84000000Y3500000D03*
X85500000Y3500000D03*
X87000000Y3500000D03*
X128000000Y18500000D03*
X129500000Y18500000D03*
X131000000Y18500000D03*
X132500000Y18500000D03*
X128000000Y17000000D03*
X129500000Y17000000D03*
X131000000Y17000000D03*
X132500000Y17000000D03*
X110500000Y5500000D03*
X112000000Y5500000D03*
X113500000Y5500000D03*
X110500000Y4000000D03*
X112000000Y4000000D03*
X113500000Y4000000D03*
X129000000Y5500000D03*
X130500000Y5500000D03*
X129000000Y4000000D03*
X130500000Y4000000D03*
X132000000Y4000000D03*
X132000000Y5500000D03*
X174500000Y19000000D03*
X173000000Y19000000D03*
X176500000Y19000000D03*
X178000000Y19000000D03*
X178000000Y17500000D03*
X176500000Y17500000D03*
X174500000Y17500000D03*
X173000000Y17500000D03*
X156000000Y6000000D03*
X157500000Y6000000D03*
X159000000Y6000000D03*
X159000000Y4500000D03*
X157500000Y4500000D03*
X156000000Y4500000D03*
X172500000Y6500000D03*
X174000000Y6500000D03*
X175500000Y6500000D03*
X172500000Y5000000D03*
X174000000Y5000000D03*
X175500000Y5000000D03*
X148000000Y15500000D03*
X149000000Y15500000D03*
X150000000Y15500000D03*
X182000000Y14500000D03*
X183000000Y14500000D03*
X184000000Y14500000D03*
X103500000Y15500000D03*
X104500000Y15500000D03*
X105500000Y15500000D03*
D13*
%TO.N,Net-(D1-Pad2)*%
X18800000Y19800000D03*
X47300000Y19800000D03*
%TO.N,LED_DOUT*%
X37700000Y8100000D03*
X24700000Y8100000D03*
%TO.N,BTN_CLK*%
X43000000Y8100000D03*
X43000000Y18200000D03*
%TO.N,BTN_SENSE*%
X16900000Y6200000D03*
X45300000Y3500000D03*
X22100000Y6100000D03*
X17030000Y22090000D03*
%TO.N,BTN_DOUT*%
X40700000Y8100000D03*
X40700000Y18200000D03*
%TD*%
D15*
%TO.N,+5V*%
X45300000Y6240000D02*
X45280000Y6220000D01*
X45300000Y5920000D02*
X45280000Y5900000D01*
X45300000Y18175010D02*
X45300000Y5920000D01*
D16*
%TO.N,Net-(D1-Pad2)*%
X18800000Y19800000D02*
X46300000Y19800000D01*
D15*
%TO.N,LED_DOUT*%
X24700000Y8100000D02*
X37700000Y8100000D01*
%TO.N,BTN_CLK*%
X43000000Y18200000D02*
X43000000Y8100000D01*
D16*
%TO.N,BTN_SENSE*%
X17000000Y6750000D02*
X16900000Y6650000D01*
X17000000Y21400000D02*
X17000000Y6750000D01*
D15*
X22100000Y6100000D02*
X38300000Y6100000D01*
X40900000Y3500000D02*
X45300000Y3500000D01*
X38300000Y6100000D02*
X40900000Y3500000D01*
%TO.N,BTN_DOUT*%
X40700000Y18200000D02*
X40700000Y8100000D01*
%TD*%
D17*
%TO.N,GND*%
G36*
X196575000Y425000D02*
G01*
X425000Y425000D01*
X425000Y3660000D01*
X1897743Y3660000D01*
X1926705Y3365949D01*
X2012476Y3083198D01*
X2151762Y2822613D01*
X2339208Y2594208D01*
X2567613Y2406762D01*
X2828198Y2267476D01*
X3110949Y2181705D01*
X3331320Y2160000D01*
X4748680Y2160000D01*
X4969051Y2181705D01*
X5251802Y2267476D01*
X5512387Y2406762D01*
X5740792Y2594208D01*
X5928238Y2822613D01*
X6067524Y3083198D01*
X6153295Y3365949D01*
X6182257Y3660000D01*
X10817743Y3660000D01*
X10846705Y3365949D01*
X10932476Y3083198D01*
X11071762Y2822613D01*
X11259208Y2594208D01*
X11487613Y2406762D01*
X11748198Y2267476D01*
X12030949Y2181705D01*
X12251320Y2160000D01*
X13668680Y2160000D01*
X13889051Y2181705D01*
X14171802Y2267476D01*
X14432387Y2406762D01*
X14660792Y2594208D01*
X14848238Y2822613D01*
X14968569Y3047737D01*
X20650000Y3047737D01*
X20650000Y2752263D01*
X20707644Y2462466D01*
X20820717Y2189483D01*
X20984874Y1943806D01*
X21193806Y1734874D01*
X21439483Y1570717D01*
X21712466Y1457644D01*
X22002263Y1400000D01*
X22297737Y1400000D01*
X22587534Y1457644D01*
X22860517Y1570717D01*
X23106194Y1734874D01*
X23315126Y1943806D01*
X23420000Y2100760D01*
X23524874Y1943806D01*
X23733806Y1734874D01*
X23979483Y1570717D01*
X24252466Y1457644D01*
X24542263Y1400000D01*
X24837737Y1400000D01*
X25127534Y1457644D01*
X25400517Y1570717D01*
X25646194Y1734874D01*
X25855126Y1943806D01*
X25960000Y2100760D01*
X26064874Y1943806D01*
X26273806Y1734874D01*
X26519483Y1570717D01*
X26792466Y1457644D01*
X27082263Y1400000D01*
X27377737Y1400000D01*
X27667534Y1457644D01*
X27940517Y1570717D01*
X28186194Y1734874D01*
X28395126Y1943806D01*
X28559283Y2189483D01*
X28672356Y2462466D01*
X28730000Y2752263D01*
X28730000Y3047737D01*
X30810000Y3047737D01*
X30810000Y2752263D01*
X30867644Y2462466D01*
X30980717Y2189483D01*
X31144874Y1943806D01*
X31353806Y1734874D01*
X31599483Y1570717D01*
X31872466Y1457644D01*
X32162263Y1400000D01*
X32457737Y1400000D01*
X32747534Y1457644D01*
X33020517Y1570717D01*
X33266194Y1734874D01*
X33475126Y1943806D01*
X33580000Y2100760D01*
X33684874Y1943806D01*
X33893806Y1734874D01*
X34139483Y1570717D01*
X34412466Y1457644D01*
X34702263Y1400000D01*
X34997737Y1400000D01*
X35287534Y1457644D01*
X35560517Y1570717D01*
X35806194Y1734874D01*
X36015126Y1943806D01*
X36179283Y2189483D01*
X36292356Y2462466D01*
X36350000Y2752263D01*
X36350000Y3047737D01*
X36292356Y3337534D01*
X36179283Y3610517D01*
X36015126Y3856194D01*
X35806194Y4065126D01*
X35560517Y4229283D01*
X35287534Y4342356D01*
X34997737Y4400000D01*
X34702263Y4400000D01*
X34412466Y4342356D01*
X34139483Y4229283D01*
X33893806Y4065126D01*
X33684874Y3856194D01*
X33580000Y3699240D01*
X33475126Y3856194D01*
X33266194Y4065126D01*
X33020517Y4229283D01*
X32747534Y4342356D01*
X32457737Y4400000D01*
X32162263Y4400000D01*
X31872466Y4342356D01*
X31599483Y4229283D01*
X31353806Y4065126D01*
X31144874Y3856194D01*
X30980717Y3610517D01*
X30867644Y3337534D01*
X30810000Y3047737D01*
X28730000Y3047737D01*
X28672356Y3337534D01*
X28559283Y3610517D01*
X28395126Y3856194D01*
X28186194Y4065126D01*
X27940517Y4229283D01*
X27667534Y4342356D01*
X27377737Y4400000D01*
X27082263Y4400000D01*
X26792466Y4342356D01*
X26519483Y4229283D01*
X26273806Y4065126D01*
X26064874Y3856194D01*
X25960000Y3699240D01*
X25855126Y3856194D01*
X25646194Y4065126D01*
X25400517Y4229283D01*
X25127534Y4342356D01*
X24837737Y4400000D01*
X24542263Y4400000D01*
X24252466Y4342356D01*
X23979483Y4229283D01*
X23733806Y4065126D01*
X23524874Y3856194D01*
X23420000Y3699240D01*
X23315126Y3856194D01*
X23106194Y4065126D01*
X22860517Y4229283D01*
X22587534Y4342356D01*
X22297737Y4400000D01*
X22002263Y4400000D01*
X21712466Y4342356D01*
X21439483Y4229283D01*
X21193806Y4065126D01*
X20984874Y3856194D01*
X20820717Y3610517D01*
X20707644Y3337534D01*
X20650000Y3047737D01*
X14968569Y3047737D01*
X14987524Y3083198D01*
X15073295Y3365949D01*
X15102257Y3660000D01*
X15073295Y3954051D01*
X14987524Y4236802D01*
X14848238Y4497387D01*
X14660792Y4725792D01*
X14432387Y4913238D01*
X14171802Y5052524D01*
X13889051Y5138295D01*
X13668680Y5160000D01*
X12251320Y5160000D01*
X12030949Y5138295D01*
X11748198Y5052524D01*
X11487613Y4913238D01*
X11259208Y4725792D01*
X11071762Y4497387D01*
X10932476Y4236802D01*
X10846705Y3954051D01*
X10817743Y3660000D01*
X6182257Y3660000D01*
X6153295Y3954051D01*
X6067524Y4236802D01*
X5928238Y4497387D01*
X5740792Y4725792D01*
X5512387Y4913238D01*
X5251802Y5052524D01*
X4969051Y5138295D01*
X4748680Y5160000D01*
X3331320Y5160000D01*
X3110949Y5138295D01*
X2828198Y5052524D01*
X2567613Y4913238D01*
X2339208Y4725792D01*
X2151762Y4497387D01*
X2012476Y4236802D01*
X1926705Y3954051D01*
X1897743Y3660000D01*
X425000Y3660000D01*
X425000Y6337888D01*
X15500000Y6337888D01*
X15500000Y6062112D01*
X15553801Y5791635D01*
X15659336Y5536851D01*
X15812549Y5307552D01*
X16007552Y5112549D01*
X16236851Y4959336D01*
X16491635Y4853801D01*
X16762112Y4800000D01*
X17037888Y4800000D01*
X17308365Y4853801D01*
X17563149Y4959336D01*
X17792448Y5112549D01*
X17987451Y5307552D01*
X18140664Y5536851D01*
X18246199Y5791635D01*
X18300000Y6062112D01*
X18300000Y6337888D01*
X18246199Y6608365D01*
X18140664Y6863149D01*
X17987451Y7092448D01*
X17800000Y7279899D01*
X17800000Y18820101D01*
X17907552Y18712549D01*
X18136851Y18559336D01*
X18391635Y18453801D01*
X18662112Y18400000D01*
X18937888Y18400000D01*
X19208365Y18453801D01*
X19463149Y18559336D01*
X19692448Y18712549D01*
X19887451Y18907552D01*
X19949223Y19000000D01*
X39550777Y19000000D01*
X39459336Y18863149D01*
X39353801Y18608365D01*
X39300000Y18337888D01*
X39300000Y18062112D01*
X39353801Y17791635D01*
X39459336Y17536851D01*
X39612549Y17307552D01*
X39800000Y17120101D01*
X39800001Y9179900D01*
X39612549Y8992448D01*
X39459336Y8763149D01*
X39353801Y8508365D01*
X39300000Y8237888D01*
X39300000Y7962112D01*
X39353801Y7691635D01*
X39459336Y7436851D01*
X39612549Y7207552D01*
X39807552Y7012549D01*
X40036851Y6859336D01*
X40291635Y6753801D01*
X40562112Y6700000D01*
X40837888Y6700000D01*
X41108365Y6753801D01*
X41363149Y6859336D01*
X41592448Y7012549D01*
X41787451Y7207552D01*
X41850000Y7301163D01*
X41912549Y7207552D01*
X42107552Y7012549D01*
X42336851Y6859336D01*
X42591635Y6753801D01*
X42862112Y6700000D01*
X43137888Y6700000D01*
X43408365Y6753801D01*
X43663149Y6859336D01*
X43892448Y7012549D01*
X44087451Y7207552D01*
X44240664Y7436851D01*
X44346199Y7691635D01*
X44400000Y7962112D01*
X44400000Y8237888D01*
X44346199Y8508365D01*
X44240664Y8763149D01*
X44087451Y8992448D01*
X43900000Y9179899D01*
X43900000Y17120101D01*
X44087451Y17307552D01*
X44141651Y17388668D01*
X44212549Y17282562D01*
X44400000Y17095111D01*
X44400001Y6995769D01*
X44387552Y6987451D01*
X44192549Y6792448D01*
X44039336Y6563149D01*
X43933801Y6308365D01*
X43880000Y6037888D01*
X43880000Y5762112D01*
X43933801Y5491635D01*
X44039336Y5236851D01*
X44192549Y5007552D01*
X44387552Y4812549D01*
X44565993Y4693318D01*
X44407552Y4587451D01*
X44220101Y4400000D01*
X41272792Y4400000D01*
X38967657Y6705135D01*
X38939475Y6739475D01*
X38802432Y6851943D01*
X38646081Y6935514D01*
X38529902Y6970757D01*
X38592448Y7012549D01*
X38787451Y7207552D01*
X38940664Y7436851D01*
X39046199Y7691635D01*
X39100000Y7962112D01*
X39100000Y8237888D01*
X39046199Y8508365D01*
X38940664Y8763149D01*
X38787451Y8992448D01*
X38592448Y9187451D01*
X38363149Y9340664D01*
X38108365Y9446199D01*
X37837888Y9500000D01*
X37562112Y9500000D01*
X37291635Y9446199D01*
X37036851Y9340664D01*
X36807552Y9187451D01*
X36620101Y9000000D01*
X25779899Y9000000D01*
X25592448Y9187451D01*
X25363149Y9340664D01*
X25108365Y9446199D01*
X24837888Y9500000D01*
X24562112Y9500000D01*
X24291635Y9446199D01*
X24036851Y9340664D01*
X23807552Y9187451D01*
X23612549Y8992448D01*
X23459336Y8763149D01*
X23353801Y8508365D01*
X23300000Y8237888D01*
X23300000Y7962112D01*
X23353801Y7691635D01*
X23459336Y7436851D01*
X23612549Y7207552D01*
X23807552Y7012549D01*
X23826333Y7000000D01*
X23179899Y7000000D01*
X22992448Y7187451D01*
X22763149Y7340664D01*
X22508365Y7446199D01*
X22237888Y7500000D01*
X21962112Y7500000D01*
X21691635Y7446199D01*
X21436851Y7340664D01*
X21207552Y7187451D01*
X21012549Y6992448D01*
X20859336Y6763149D01*
X20753801Y6508365D01*
X20700000Y6237888D01*
X20700000Y5962112D01*
X20753801Y5691635D01*
X20859336Y5436851D01*
X21012549Y5207552D01*
X21207552Y5012549D01*
X21436851Y4859336D01*
X21691635Y4753801D01*
X21962112Y4700000D01*
X22237888Y4700000D01*
X22508365Y4753801D01*
X22763149Y4859336D01*
X22992448Y5012549D01*
X23179899Y5200000D01*
X37927208Y5200000D01*
X40232343Y2894865D01*
X40260525Y2860525D01*
X40397568Y2748057D01*
X40553919Y2664486D01*
X40723569Y2613023D01*
X40855793Y2600000D01*
X40855795Y2600000D01*
X40899999Y2595646D01*
X40944203Y2600000D01*
X44220101Y2600000D01*
X44407552Y2412549D01*
X44636851Y2259336D01*
X44891635Y2153801D01*
X45162112Y2100000D01*
X45437888Y2100000D01*
X45708365Y2153801D01*
X45963149Y2259336D01*
X46192448Y2412549D01*
X46387451Y2607552D01*
X46540664Y2836851D01*
X46646199Y3091635D01*
X46700000Y3362112D01*
X46700000Y3637888D01*
X46695602Y3660000D01*
X46897743Y3660000D01*
X46926705Y3365949D01*
X47012476Y3083198D01*
X47151762Y2822613D01*
X47339208Y2594208D01*
X47567613Y2406762D01*
X47828198Y2267476D01*
X48110949Y2181705D01*
X48331320Y2160000D01*
X49748680Y2160000D01*
X49969051Y2181705D01*
X50251802Y2267476D01*
X50512387Y2406762D01*
X50740792Y2594208D01*
X50928238Y2822613D01*
X51067524Y3083198D01*
X51153295Y3365949D01*
X51182257Y3660000D01*
X55817743Y3660000D01*
X55846705Y3365949D01*
X55932476Y3083198D01*
X56071762Y2822613D01*
X56259208Y2594208D01*
X56487613Y2406762D01*
X56748198Y2267476D01*
X57030949Y2181705D01*
X57251320Y2160000D01*
X58668680Y2160000D01*
X58889051Y2181705D01*
X59171802Y2267476D01*
X59432387Y2406762D01*
X59660792Y2594208D01*
X59848238Y2822613D01*
X59987524Y3083198D01*
X60073295Y3365949D01*
X60102257Y3660000D01*
X91897743Y3660000D01*
X91926705Y3365949D01*
X92012476Y3083198D01*
X92151762Y2822613D01*
X92339208Y2594208D01*
X92567613Y2406762D01*
X92828198Y2267476D01*
X93110949Y2181705D01*
X93331320Y2160000D01*
X94748680Y2160000D01*
X94969051Y2181705D01*
X95251802Y2267476D01*
X95512387Y2406762D01*
X95740792Y2594208D01*
X95928238Y2822613D01*
X96067524Y3083198D01*
X96153295Y3365949D01*
X96182257Y3660000D01*
X100817743Y3660000D01*
X100846705Y3365949D01*
X100932476Y3083198D01*
X101071762Y2822613D01*
X101259208Y2594208D01*
X101487613Y2406762D01*
X101748198Y2267476D01*
X102030949Y2181705D01*
X102251320Y2160000D01*
X103668680Y2160000D01*
X103889051Y2181705D01*
X104171802Y2267476D01*
X104432387Y2406762D01*
X104660792Y2594208D01*
X104848238Y2822613D01*
X104987524Y3083198D01*
X105073295Y3365949D01*
X105102257Y3660000D01*
X136897743Y3660000D01*
X136926705Y3365949D01*
X137012476Y3083198D01*
X137151762Y2822613D01*
X137339208Y2594208D01*
X137567613Y2406762D01*
X137828198Y2267476D01*
X138110949Y2181705D01*
X138331320Y2160000D01*
X139748680Y2160000D01*
X139969051Y2181705D01*
X140251802Y2267476D01*
X140512387Y2406762D01*
X140740792Y2594208D01*
X140928238Y2822613D01*
X141067524Y3083198D01*
X141153295Y3365949D01*
X141182257Y3660000D01*
X145817743Y3660000D01*
X145846705Y3365949D01*
X145932476Y3083198D01*
X146071762Y2822613D01*
X146259208Y2594208D01*
X146487613Y2406762D01*
X146748198Y2267476D01*
X147030949Y2181705D01*
X147251320Y2160000D01*
X148668680Y2160000D01*
X148889051Y2181705D01*
X149171802Y2267476D01*
X149432387Y2406762D01*
X149660792Y2594208D01*
X149848238Y2822613D01*
X149987524Y3083198D01*
X150073295Y3365949D01*
X150102257Y3660000D01*
X181897743Y3660000D01*
X181926705Y3365949D01*
X182012476Y3083198D01*
X182151762Y2822613D01*
X182339208Y2594208D01*
X182567613Y2406762D01*
X182828198Y2267476D01*
X183110949Y2181705D01*
X183331320Y2160000D01*
X184748680Y2160000D01*
X184969051Y2181705D01*
X185251802Y2267476D01*
X185512387Y2406762D01*
X185740792Y2594208D01*
X185928238Y2822613D01*
X186067524Y3083198D01*
X186153295Y3365949D01*
X186182257Y3660000D01*
X190817743Y3660000D01*
X190846705Y3365949D01*
X190932476Y3083198D01*
X191071762Y2822613D01*
X191259208Y2594208D01*
X191487613Y2406762D01*
X191748198Y2267476D01*
X192030949Y2181705D01*
X192251320Y2160000D01*
X193668680Y2160000D01*
X193889051Y2181705D01*
X194171802Y2267476D01*
X194432387Y2406762D01*
X194660792Y2594208D01*
X194848238Y2822613D01*
X194987524Y3083198D01*
X195073295Y3365949D01*
X195102257Y3660000D01*
X195073295Y3954051D01*
X194987524Y4236802D01*
X194848238Y4497387D01*
X194660792Y4725792D01*
X194432387Y4913238D01*
X194171802Y5052524D01*
X193889051Y5138295D01*
X193668680Y5160000D01*
X192251320Y5160000D01*
X192030949Y5138295D01*
X191748198Y5052524D01*
X191487613Y4913238D01*
X191259208Y4725792D01*
X191071762Y4497387D01*
X190932476Y4236802D01*
X190846705Y3954051D01*
X190817743Y3660000D01*
X186182257Y3660000D01*
X186153295Y3954051D01*
X186067524Y4236802D01*
X185928238Y4497387D01*
X185740792Y4725792D01*
X185512387Y4913238D01*
X185251802Y5052524D01*
X184969051Y5138295D01*
X184748680Y5160000D01*
X183331320Y5160000D01*
X183110949Y5138295D01*
X182828198Y5052524D01*
X182567613Y4913238D01*
X182339208Y4725792D01*
X182151762Y4497387D01*
X182012476Y4236802D01*
X181926705Y3954051D01*
X181897743Y3660000D01*
X150102257Y3660000D01*
X150073295Y3954051D01*
X149987524Y4236802D01*
X149848238Y4497387D01*
X149660792Y4725792D01*
X149432387Y4913238D01*
X149171802Y5052524D01*
X148889051Y5138295D01*
X148668680Y5160000D01*
X147251320Y5160000D01*
X147030949Y5138295D01*
X146748198Y5052524D01*
X146487613Y4913238D01*
X146259208Y4725792D01*
X146071762Y4497387D01*
X145932476Y4236802D01*
X145846705Y3954051D01*
X145817743Y3660000D01*
X141182257Y3660000D01*
X141153295Y3954051D01*
X141067524Y4236802D01*
X140928238Y4497387D01*
X140740792Y4725792D01*
X140512387Y4913238D01*
X140251802Y5052524D01*
X139969051Y5138295D01*
X139748680Y5160000D01*
X138331320Y5160000D01*
X138110949Y5138295D01*
X137828198Y5052524D01*
X137567613Y4913238D01*
X137339208Y4725792D01*
X137151762Y4497387D01*
X137012476Y4236802D01*
X136926705Y3954051D01*
X136897743Y3660000D01*
X105102257Y3660000D01*
X105073295Y3954051D01*
X104987524Y4236802D01*
X104848238Y4497387D01*
X104660792Y4725792D01*
X104432387Y4913238D01*
X104171802Y5052524D01*
X103889051Y5138295D01*
X103668680Y5160000D01*
X102251320Y5160000D01*
X102030949Y5138295D01*
X101748198Y5052524D01*
X101487613Y4913238D01*
X101259208Y4725792D01*
X101071762Y4497387D01*
X100932476Y4236802D01*
X100846705Y3954051D01*
X100817743Y3660000D01*
X96182257Y3660000D01*
X96153295Y3954051D01*
X96067524Y4236802D01*
X95928238Y4497387D01*
X95740792Y4725792D01*
X95512387Y4913238D01*
X95251802Y5052524D01*
X94969051Y5138295D01*
X94748680Y5160000D01*
X93331320Y5160000D01*
X93110949Y5138295D01*
X92828198Y5052524D01*
X92567613Y4913238D01*
X92339208Y4725792D01*
X92151762Y4497387D01*
X92012476Y4236802D01*
X91926705Y3954051D01*
X91897743Y3660000D01*
X60102257Y3660000D01*
X60073295Y3954051D01*
X59987524Y4236802D01*
X59848238Y4497387D01*
X59660792Y4725792D01*
X59432387Y4913238D01*
X59171802Y5052524D01*
X58889051Y5138295D01*
X58668680Y5160000D01*
X57251320Y5160000D01*
X57030949Y5138295D01*
X56748198Y5052524D01*
X56487613Y4913238D01*
X56259208Y4725792D01*
X56071762Y4497387D01*
X55932476Y4236802D01*
X55846705Y3954051D01*
X55817743Y3660000D01*
X51182257Y3660000D01*
X51153295Y3954051D01*
X51067524Y4236802D01*
X50928238Y4497387D01*
X50740792Y4725792D01*
X50512387Y4913238D01*
X50251802Y5052524D01*
X49969051Y5138295D01*
X49748680Y5160000D01*
X48331320Y5160000D01*
X48110949Y5138295D01*
X47828198Y5052524D01*
X47567613Y4913238D01*
X47339208Y4725792D01*
X47151762Y4497387D01*
X47012476Y4236802D01*
X46926705Y3954051D01*
X46897743Y3660000D01*
X46695602Y3660000D01*
X46646199Y3908365D01*
X46540664Y4163149D01*
X46387451Y4392448D01*
X46192448Y4587451D01*
X46014007Y4706682D01*
X46172448Y4812549D01*
X46367451Y5007552D01*
X46520664Y5236851D01*
X46626199Y5491635D01*
X46680000Y5762112D01*
X46680000Y6037888D01*
X46626199Y6308365D01*
X46520664Y6563149D01*
X46367451Y6792448D01*
X46200000Y6959899D01*
X46200000Y8740000D01*
X46897743Y8740000D01*
X46926705Y8445949D01*
X47012476Y8163198D01*
X47151762Y7902613D01*
X47339208Y7674208D01*
X47567613Y7486762D01*
X47828198Y7347476D01*
X48110949Y7261705D01*
X48331320Y7240000D01*
X49748680Y7240000D01*
X49969051Y7261705D01*
X50251802Y7347476D01*
X50512387Y7486762D01*
X50740792Y7674208D01*
X50928238Y7902613D01*
X51067524Y8163198D01*
X51153295Y8445949D01*
X51182257Y8740000D01*
X55817743Y8740000D01*
X55846705Y8445949D01*
X55932476Y8163198D01*
X56071762Y7902613D01*
X56259208Y7674208D01*
X56487613Y7486762D01*
X56748198Y7347476D01*
X57030949Y7261705D01*
X57251320Y7240000D01*
X58668680Y7240000D01*
X58889051Y7261705D01*
X59171802Y7347476D01*
X59432387Y7486762D01*
X59660792Y7674208D01*
X59848238Y7902613D01*
X59987524Y8163198D01*
X60073295Y8445949D01*
X60102257Y8740000D01*
X91897743Y8740000D01*
X91926705Y8445949D01*
X92012476Y8163198D01*
X92151762Y7902613D01*
X92339208Y7674208D01*
X92567613Y7486762D01*
X92828198Y7347476D01*
X93110949Y7261705D01*
X93331320Y7240000D01*
X94748680Y7240000D01*
X94969051Y7261705D01*
X95251802Y7347476D01*
X95512387Y7486762D01*
X95740792Y7674208D01*
X95928238Y7902613D01*
X96067524Y8163198D01*
X96153295Y8445949D01*
X96182257Y8740000D01*
X100817743Y8740000D01*
X100846705Y8445949D01*
X100932476Y8163198D01*
X101071762Y7902613D01*
X101259208Y7674208D01*
X101487613Y7486762D01*
X101748198Y7347476D01*
X102030949Y7261705D01*
X102251320Y7240000D01*
X103668680Y7240000D01*
X103889051Y7261705D01*
X104171802Y7347476D01*
X104432387Y7486762D01*
X104660792Y7674208D01*
X104848238Y7902613D01*
X104987524Y8163198D01*
X105073295Y8445949D01*
X105102257Y8740000D01*
X136897743Y8740000D01*
X136926705Y8445949D01*
X137012476Y8163198D01*
X137151762Y7902613D01*
X137339208Y7674208D01*
X137567613Y7486762D01*
X137828198Y7347476D01*
X138110949Y7261705D01*
X138331320Y7240000D01*
X139748680Y7240000D01*
X139969051Y7261705D01*
X140251802Y7347476D01*
X140512387Y7486762D01*
X140740792Y7674208D01*
X140928238Y7902613D01*
X141067524Y8163198D01*
X141153295Y8445949D01*
X141182257Y8740000D01*
X145817743Y8740000D01*
X145846705Y8445949D01*
X145932476Y8163198D01*
X146071762Y7902613D01*
X146259208Y7674208D01*
X146487613Y7486762D01*
X146748198Y7347476D01*
X147030949Y7261705D01*
X147251320Y7240000D01*
X148668680Y7240000D01*
X148889051Y7261705D01*
X149171802Y7347476D01*
X149432387Y7486762D01*
X149660792Y7674208D01*
X149848238Y7902613D01*
X149987524Y8163198D01*
X150073295Y8445949D01*
X150102257Y8740000D01*
X181897743Y8740000D01*
X181926705Y8445949D01*
X182012476Y8163198D01*
X182151762Y7902613D01*
X182339208Y7674208D01*
X182567613Y7486762D01*
X182828198Y7347476D01*
X183110949Y7261705D01*
X183331320Y7240000D01*
X184748680Y7240000D01*
X184969051Y7261705D01*
X185251802Y7347476D01*
X185512387Y7486762D01*
X185740792Y7674208D01*
X185928238Y7902613D01*
X186067524Y8163198D01*
X186153295Y8445949D01*
X186182257Y8740000D01*
X190817743Y8740000D01*
X190846705Y8445949D01*
X190932476Y8163198D01*
X191071762Y7902613D01*
X191259208Y7674208D01*
X191487613Y7486762D01*
X191748198Y7347476D01*
X192030949Y7261705D01*
X192251320Y7240000D01*
X193668680Y7240000D01*
X193889051Y7261705D01*
X194171802Y7347476D01*
X194432387Y7486762D01*
X194660792Y7674208D01*
X194848238Y7902613D01*
X194987524Y8163198D01*
X195073295Y8445949D01*
X195102257Y8740000D01*
X195073295Y9034051D01*
X194987524Y9316802D01*
X194848238Y9577387D01*
X194660792Y9805792D01*
X194432387Y9993238D01*
X194171802Y10132524D01*
X193889051Y10218295D01*
X193668680Y10240000D01*
X192251320Y10240000D01*
X192030949Y10218295D01*
X191748198Y10132524D01*
X191487613Y9993238D01*
X191259208Y9805792D01*
X191071762Y9577387D01*
X190932476Y9316802D01*
X190846705Y9034051D01*
X190817743Y8740000D01*
X186182257Y8740000D01*
X186153295Y9034051D01*
X186067524Y9316802D01*
X185928238Y9577387D01*
X185740792Y9805792D01*
X185512387Y9993238D01*
X185251802Y10132524D01*
X184969051Y10218295D01*
X184748680Y10240000D01*
X183331320Y10240000D01*
X183110949Y10218295D01*
X182828198Y10132524D01*
X182567613Y9993238D01*
X182339208Y9805792D01*
X182151762Y9577387D01*
X182012476Y9316802D01*
X181926705Y9034051D01*
X181897743Y8740000D01*
X150102257Y8740000D01*
X150073295Y9034051D01*
X149987524Y9316802D01*
X149848238Y9577387D01*
X149660792Y9805792D01*
X149432387Y9993238D01*
X149171802Y10132524D01*
X148889051Y10218295D01*
X148668680Y10240000D01*
X147251320Y10240000D01*
X147030949Y10218295D01*
X146748198Y10132524D01*
X146487613Y9993238D01*
X146259208Y9805792D01*
X146071762Y9577387D01*
X145932476Y9316802D01*
X145846705Y9034051D01*
X145817743Y8740000D01*
X141182257Y8740000D01*
X141153295Y9034051D01*
X141067524Y9316802D01*
X140928238Y9577387D01*
X140740792Y9805792D01*
X140512387Y9993238D01*
X140251802Y10132524D01*
X139969051Y10218295D01*
X139748680Y10240000D01*
X138331320Y10240000D01*
X138110949Y10218295D01*
X137828198Y10132524D01*
X137567613Y9993238D01*
X137339208Y9805792D01*
X137151762Y9577387D01*
X137012476Y9316802D01*
X136926705Y9034051D01*
X136897743Y8740000D01*
X105102257Y8740000D01*
X105073295Y9034051D01*
X104987524Y9316802D01*
X104848238Y9577387D01*
X104660792Y9805792D01*
X104432387Y9993238D01*
X104171802Y10132524D01*
X103889051Y10218295D01*
X103668680Y10240000D01*
X102251320Y10240000D01*
X102030949Y10218295D01*
X101748198Y10132524D01*
X101487613Y9993238D01*
X101259208Y9805792D01*
X101071762Y9577387D01*
X100932476Y9316802D01*
X100846705Y9034051D01*
X100817743Y8740000D01*
X96182257Y8740000D01*
X96153295Y9034051D01*
X96067524Y9316802D01*
X95928238Y9577387D01*
X95740792Y9805792D01*
X95512387Y9993238D01*
X95251802Y10132524D01*
X94969051Y10218295D01*
X94748680Y10240000D01*
X93331320Y10240000D01*
X93110949Y10218295D01*
X92828198Y10132524D01*
X92567613Y9993238D01*
X92339208Y9805792D01*
X92151762Y9577387D01*
X92012476Y9316802D01*
X91926705Y9034051D01*
X91897743Y8740000D01*
X60102257Y8740000D01*
X60073295Y9034051D01*
X59987524Y9316802D01*
X59848238Y9577387D01*
X59660792Y9805792D01*
X59432387Y9993238D01*
X59171802Y10132524D01*
X58889051Y10218295D01*
X58668680Y10240000D01*
X57251320Y10240000D01*
X57030949Y10218295D01*
X56748198Y10132524D01*
X56487613Y9993238D01*
X56259208Y9805792D01*
X56071762Y9577387D01*
X55932476Y9316802D01*
X55846705Y9034051D01*
X55817743Y8740000D01*
X51182257Y8740000D01*
X51153295Y9034051D01*
X51067524Y9316802D01*
X50928238Y9577387D01*
X50740792Y9805792D01*
X50512387Y9993238D01*
X50251802Y10132524D01*
X49969051Y10218295D01*
X49748680Y10240000D01*
X48331320Y10240000D01*
X48110949Y10218295D01*
X47828198Y10132524D01*
X47567613Y9993238D01*
X47339208Y9805792D01*
X47151762Y9577387D01*
X47012476Y9316802D01*
X46926705Y9034051D01*
X46897743Y8740000D01*
X46200000Y8740000D01*
X46200000Y12196983D01*
X74000000Y12196983D01*
X74000000Y11803017D01*
X74076859Y11416622D01*
X74227623Y11052645D01*
X74446499Y10725074D01*
X74725074Y10446499D01*
X75052645Y10227623D01*
X75416622Y10076859D01*
X75803017Y10000000D01*
X76196983Y10000000D01*
X76583378Y10076859D01*
X76947355Y10227623D01*
X77274926Y10446499D01*
X77553501Y10725074D01*
X77772377Y11052645D01*
X77923141Y11416622D01*
X78000000Y11803017D01*
X78000000Y12196983D01*
X119000000Y12196983D01*
X119000000Y11803017D01*
X119076859Y11416622D01*
X119227623Y11052645D01*
X119446499Y10725074D01*
X119725074Y10446499D01*
X120052645Y10227623D01*
X120416622Y10076859D01*
X120803017Y10000000D01*
X121196983Y10000000D01*
X121583378Y10076859D01*
X121947355Y10227623D01*
X122274926Y10446499D01*
X122553501Y10725074D01*
X122772377Y11052645D01*
X122923141Y11416622D01*
X123000000Y11803017D01*
X123000000Y12196983D01*
X164000000Y12196983D01*
X164000000Y11803017D01*
X164076859Y11416622D01*
X164227623Y11052645D01*
X164446499Y10725074D01*
X164725074Y10446499D01*
X165052645Y10227623D01*
X165416622Y10076859D01*
X165803017Y10000000D01*
X166196983Y10000000D01*
X166583378Y10076859D01*
X166947355Y10227623D01*
X167274926Y10446499D01*
X167553501Y10725074D01*
X167772377Y11052645D01*
X167923141Y11416622D01*
X168000000Y11803017D01*
X168000000Y12196983D01*
X167923141Y12583378D01*
X167772377Y12947355D01*
X167553501Y13274926D01*
X167274926Y13553501D01*
X166947355Y13772377D01*
X166583378Y13923141D01*
X166196983Y14000000D01*
X165803017Y14000000D01*
X165416622Y13923141D01*
X165052645Y13772377D01*
X164725074Y13553501D01*
X164446499Y13274926D01*
X164227623Y12947355D01*
X164076859Y12583378D01*
X164000000Y12196983D01*
X123000000Y12196983D01*
X122923141Y12583378D01*
X122772377Y12947355D01*
X122553501Y13274926D01*
X122274926Y13553501D01*
X121947355Y13772377D01*
X121583378Y13923141D01*
X121196983Y14000000D01*
X120803017Y14000000D01*
X120416622Y13923141D01*
X120052645Y13772377D01*
X119725074Y13553501D01*
X119446499Y13274926D01*
X119227623Y12947355D01*
X119076859Y12583378D01*
X119000000Y12196983D01*
X78000000Y12196983D01*
X77923141Y12583378D01*
X77772377Y12947355D01*
X77553501Y13274926D01*
X77274926Y13553501D01*
X76947355Y13772377D01*
X76583378Y13923141D01*
X76196983Y14000000D01*
X75803017Y14000000D01*
X75416622Y13923141D01*
X75052645Y13772377D01*
X74725074Y13553501D01*
X74446499Y13274926D01*
X74227623Y12947355D01*
X74076859Y12583378D01*
X74000000Y12196983D01*
X46200000Y12196983D01*
X46200000Y17095111D01*
X46387451Y17282562D01*
X46540664Y17511861D01*
X46646199Y17766645D01*
X46700000Y18037122D01*
X46700000Y18312898D01*
X46652249Y18552958D01*
X46891635Y18453801D01*
X47162112Y18400000D01*
X47437888Y18400000D01*
X47708365Y18453801D01*
X47963149Y18559336D01*
X48192448Y18712549D01*
X48387451Y18907552D01*
X48540664Y19136851D01*
X48646199Y19391635D01*
X48700000Y19662112D01*
X48700000Y19937888D01*
X48646199Y20208365D01*
X48540664Y20463149D01*
X48387451Y20692448D01*
X48192448Y20887451D01*
X47963149Y21040664D01*
X47708365Y21146199D01*
X47437888Y21200000D01*
X47162112Y21200000D01*
X46891635Y21146199D01*
X46636851Y21040664D01*
X46407552Y20887451D01*
X46212549Y20692448D01*
X46150777Y20600000D01*
X35739791Y20600000D01*
X35910517Y20670717D01*
X36156194Y20834874D01*
X36365126Y21043806D01*
X36529283Y21289483D01*
X36642356Y21562466D01*
X36700000Y21852263D01*
X36700000Y22147737D01*
X36642356Y22437534D01*
X36529283Y22710517D01*
X36365126Y22956194D01*
X36156194Y23165126D01*
X35910517Y23329283D01*
X35637534Y23442356D01*
X35347737Y23500000D01*
X35052263Y23500000D01*
X34762466Y23442356D01*
X34489483Y23329283D01*
X34243806Y23165126D01*
X34034874Y22956194D01*
X33930000Y22799240D01*
X33825126Y22956194D01*
X33616194Y23165126D01*
X33370517Y23329283D01*
X33097534Y23442356D01*
X32807737Y23500000D01*
X32512263Y23500000D01*
X32222466Y23442356D01*
X31949483Y23329283D01*
X31703806Y23165126D01*
X31494874Y22956194D01*
X31330717Y22710517D01*
X31217644Y22437534D01*
X31160000Y22147737D01*
X31160000Y21852263D01*
X31217644Y21562466D01*
X31330717Y21289483D01*
X31494874Y21043806D01*
X31703806Y20834874D01*
X31949483Y20670717D01*
X32120209Y20600000D01*
X28119791Y20600000D01*
X28290517Y20670717D01*
X28536194Y20834874D01*
X28745126Y21043806D01*
X28909283Y21289483D01*
X29022356Y21562466D01*
X29080000Y21852263D01*
X29080000Y22147737D01*
X29022356Y22437534D01*
X28909283Y22710517D01*
X28745126Y22956194D01*
X28536194Y23165126D01*
X28290517Y23329283D01*
X28017534Y23442356D01*
X27727737Y23500000D01*
X27432263Y23500000D01*
X27142466Y23442356D01*
X26869483Y23329283D01*
X26623806Y23165126D01*
X26414874Y22956194D01*
X26310000Y22799240D01*
X26205126Y22956194D01*
X25996194Y23165126D01*
X25750517Y23329283D01*
X25477534Y23442356D01*
X25187737Y23500000D01*
X24892263Y23500000D01*
X24602466Y23442356D01*
X24329483Y23329283D01*
X24083806Y23165126D01*
X23874874Y22956194D01*
X23770000Y22799240D01*
X23665126Y22956194D01*
X23456194Y23165126D01*
X23210517Y23329283D01*
X22937534Y23442356D01*
X22647737Y23500000D01*
X22352263Y23500000D01*
X22062466Y23442356D01*
X21789483Y23329283D01*
X21543806Y23165126D01*
X21334874Y22956194D01*
X21170717Y22710517D01*
X21057644Y22437534D01*
X21000000Y22147737D01*
X21000000Y21852263D01*
X21057644Y21562466D01*
X21170717Y21289483D01*
X21334874Y21043806D01*
X21543806Y20834874D01*
X21789483Y20670717D01*
X21960209Y20600000D01*
X19949223Y20600000D01*
X19887451Y20692448D01*
X19692448Y20887451D01*
X19463149Y21040664D01*
X19208365Y21146199D01*
X18937888Y21200000D01*
X18662112Y21200000D01*
X18391635Y21146199D01*
X18136851Y21040664D01*
X17907552Y20887451D01*
X17800000Y20779899D01*
X17800000Y20920732D01*
X17922448Y21002549D01*
X18117451Y21197552D01*
X18270664Y21426851D01*
X18376199Y21681635D01*
X18430000Y21952112D01*
X18430000Y22227888D01*
X18376199Y22498365D01*
X18270664Y22753149D01*
X18117451Y22982448D01*
X17922448Y23177451D01*
X17693149Y23330664D01*
X17438365Y23436199D01*
X17167888Y23490000D01*
X16892112Y23490000D01*
X16621635Y23436199D01*
X16366851Y23330664D01*
X16137552Y23177451D01*
X15942549Y22982448D01*
X15789336Y22753149D01*
X15683801Y22498365D01*
X15630000Y22227888D01*
X15630000Y21952112D01*
X15683801Y21681635D01*
X15789336Y21426851D01*
X15942549Y21197552D01*
X16137552Y21002549D01*
X16200000Y20960822D01*
X16200001Y7416042D01*
X16007552Y7287451D01*
X15812549Y7092448D01*
X15659336Y6863149D01*
X15553801Y6608365D01*
X15500000Y6337888D01*
X425000Y6337888D01*
X425000Y8740000D01*
X1897743Y8740000D01*
X1926705Y8445949D01*
X2012476Y8163198D01*
X2151762Y7902613D01*
X2339208Y7674208D01*
X2567613Y7486762D01*
X2828198Y7347476D01*
X3110949Y7261705D01*
X3331320Y7240000D01*
X4748680Y7240000D01*
X4969051Y7261705D01*
X5251802Y7347476D01*
X5512387Y7486762D01*
X5740792Y7674208D01*
X5928238Y7902613D01*
X6067524Y8163198D01*
X6153295Y8445949D01*
X6182257Y8740000D01*
X10817743Y8740000D01*
X10846705Y8445949D01*
X10932476Y8163198D01*
X11071762Y7902613D01*
X11259208Y7674208D01*
X11487613Y7486762D01*
X11748198Y7347476D01*
X12030949Y7261705D01*
X12251320Y7240000D01*
X13668680Y7240000D01*
X13889051Y7261705D01*
X14171802Y7347476D01*
X14432387Y7486762D01*
X14660792Y7674208D01*
X14848238Y7902613D01*
X14987524Y8163198D01*
X15073295Y8445949D01*
X15102257Y8740000D01*
X15073295Y9034051D01*
X14987524Y9316802D01*
X14848238Y9577387D01*
X14660792Y9805792D01*
X14432387Y9993238D01*
X14171802Y10132524D01*
X13889051Y10218295D01*
X13668680Y10240000D01*
X12251320Y10240000D01*
X12030949Y10218295D01*
X11748198Y10132524D01*
X11487613Y9993238D01*
X11259208Y9805792D01*
X11071762Y9577387D01*
X10932476Y9316802D01*
X10846705Y9034051D01*
X10817743Y8740000D01*
X6182257Y8740000D01*
X6153295Y9034051D01*
X6067524Y9316802D01*
X5928238Y9577387D01*
X5740792Y9805792D01*
X5512387Y9993238D01*
X5251802Y10132524D01*
X4969051Y10218295D01*
X4748680Y10240000D01*
X3331320Y10240000D01*
X3110949Y10218295D01*
X2828198Y10132524D01*
X2567613Y9993238D01*
X2339208Y9805792D01*
X2151762Y9577387D01*
X2012476Y9316802D01*
X1926705Y9034051D01*
X1897743Y8740000D01*
X425000Y8740000D01*
X425000Y14137888D01*
X1600000Y14137888D01*
X1600000Y13862112D01*
X1653801Y13591635D01*
X1759336Y13336851D01*
X1912549Y13107552D01*
X2107552Y12912549D01*
X2336851Y12759336D01*
X2591635Y12653801D01*
X2862112Y12600000D01*
X3137888Y12600000D01*
X3408365Y12653801D01*
X3663149Y12759336D01*
X3892448Y12912549D01*
X4087451Y13107552D01*
X4240664Y13336851D01*
X4346199Y13591635D01*
X4400000Y13862112D01*
X4400000Y14137888D01*
X4346199Y14408365D01*
X4240664Y14663149D01*
X4087451Y14892448D01*
X3892448Y15087451D01*
X3663149Y15240664D01*
X3408365Y15346199D01*
X3137888Y15400000D01*
X2862112Y15400000D01*
X2591635Y15346199D01*
X2336851Y15240664D01*
X2107552Y15087451D01*
X1912549Y14892448D01*
X1759336Y14663149D01*
X1653801Y14408365D01*
X1600000Y14137888D01*
X425000Y14137888D01*
X425000Y24575000D01*
X196575001Y24575000D01*
X196575000Y425000D01*
G37*
X196575000Y425000D02*
X425000Y425000D01*
X425000Y3660000D01*
X1897743Y3660000D01*
X1926705Y3365949D01*
X2012476Y3083198D01*
X2151762Y2822613D01*
X2339208Y2594208D01*
X2567613Y2406762D01*
X2828198Y2267476D01*
X3110949Y2181705D01*
X3331320Y2160000D01*
X4748680Y2160000D01*
X4969051Y2181705D01*
X5251802Y2267476D01*
X5512387Y2406762D01*
X5740792Y2594208D01*
X5928238Y2822613D01*
X6067524Y3083198D01*
X6153295Y3365949D01*
X6182257Y3660000D01*
X10817743Y3660000D01*
X10846705Y3365949D01*
X10932476Y3083198D01*
X11071762Y2822613D01*
X11259208Y2594208D01*
X11487613Y2406762D01*
X11748198Y2267476D01*
X12030949Y2181705D01*
X12251320Y2160000D01*
X13668680Y2160000D01*
X13889051Y2181705D01*
X14171802Y2267476D01*
X14432387Y2406762D01*
X14660792Y2594208D01*
X14848238Y2822613D01*
X14968569Y3047737D01*
X20650000Y3047737D01*
X20650000Y2752263D01*
X20707644Y2462466D01*
X20820717Y2189483D01*
X20984874Y1943806D01*
X21193806Y1734874D01*
X21439483Y1570717D01*
X21712466Y1457644D01*
X22002263Y1400000D01*
X22297737Y1400000D01*
X22587534Y1457644D01*
X22860517Y1570717D01*
X23106194Y1734874D01*
X23315126Y1943806D01*
X23420000Y2100760D01*
X23524874Y1943806D01*
X23733806Y1734874D01*
X23979483Y1570717D01*
X24252466Y1457644D01*
X24542263Y1400000D01*
X24837737Y1400000D01*
X25127534Y1457644D01*
X25400517Y1570717D01*
X25646194Y1734874D01*
X25855126Y1943806D01*
X25960000Y2100760D01*
X26064874Y1943806D01*
X26273806Y1734874D01*
X26519483Y1570717D01*
X26792466Y1457644D01*
X27082263Y1400000D01*
X27377737Y1400000D01*
X27667534Y1457644D01*
X27940517Y1570717D01*
X28186194Y1734874D01*
X28395126Y1943806D01*
X28559283Y2189483D01*
X28672356Y2462466D01*
X28730000Y2752263D01*
X28730000Y3047737D01*
X30810000Y3047737D01*
X30810000Y2752263D01*
X30867644Y2462466D01*
X30980717Y2189483D01*
X31144874Y1943806D01*
X31353806Y1734874D01*
X31599483Y1570717D01*
X31872466Y1457644D01*
X32162263Y1400000D01*
X32457737Y1400000D01*
X32747534Y1457644D01*
X33020517Y1570717D01*
X33266194Y1734874D01*
X33475126Y1943806D01*
X33580000Y2100760D01*
X33684874Y1943806D01*
X33893806Y1734874D01*
X34139483Y1570717D01*
X34412466Y1457644D01*
X34702263Y1400000D01*
X34997737Y1400000D01*
X35287534Y1457644D01*
X35560517Y1570717D01*
X35806194Y1734874D01*
X36015126Y1943806D01*
X36179283Y2189483D01*
X36292356Y2462466D01*
X36350000Y2752263D01*
X36350000Y3047737D01*
X36292356Y3337534D01*
X36179283Y3610517D01*
X36015126Y3856194D01*
X35806194Y4065126D01*
X35560517Y4229283D01*
X35287534Y4342356D01*
X34997737Y4400000D01*
X34702263Y4400000D01*
X34412466Y4342356D01*
X34139483Y4229283D01*
X33893806Y4065126D01*
X33684874Y3856194D01*
X33580000Y3699240D01*
X33475126Y3856194D01*
X33266194Y4065126D01*
X33020517Y4229283D01*
X32747534Y4342356D01*
X32457737Y4400000D01*
X32162263Y4400000D01*
X31872466Y4342356D01*
X31599483Y4229283D01*
X31353806Y4065126D01*
X31144874Y3856194D01*
X30980717Y3610517D01*
X30867644Y3337534D01*
X30810000Y3047737D01*
X28730000Y3047737D01*
X28672356Y3337534D01*
X28559283Y3610517D01*
X28395126Y3856194D01*
X28186194Y4065126D01*
X27940517Y4229283D01*
X27667534Y4342356D01*
X27377737Y4400000D01*
X27082263Y4400000D01*
X26792466Y4342356D01*
X26519483Y4229283D01*
X26273806Y4065126D01*
X26064874Y3856194D01*
X25960000Y3699240D01*
X25855126Y3856194D01*
X25646194Y4065126D01*
X25400517Y4229283D01*
X25127534Y4342356D01*
X24837737Y4400000D01*
X24542263Y4400000D01*
X24252466Y4342356D01*
X23979483Y4229283D01*
X23733806Y4065126D01*
X23524874Y3856194D01*
X23420000Y3699240D01*
X23315126Y3856194D01*
X23106194Y4065126D01*
X22860517Y4229283D01*
X22587534Y4342356D01*
X22297737Y4400000D01*
X22002263Y4400000D01*
X21712466Y4342356D01*
X21439483Y4229283D01*
X21193806Y4065126D01*
X20984874Y3856194D01*
X20820717Y3610517D01*
X20707644Y3337534D01*
X20650000Y3047737D01*
X14968569Y3047737D01*
X14987524Y3083198D01*
X15073295Y3365949D01*
X15102257Y3660000D01*
X15073295Y3954051D01*
X14987524Y4236802D01*
X14848238Y4497387D01*
X14660792Y4725792D01*
X14432387Y4913238D01*
X14171802Y5052524D01*
X13889051Y5138295D01*
X13668680Y5160000D01*
X12251320Y5160000D01*
X12030949Y5138295D01*
X11748198Y5052524D01*
X11487613Y4913238D01*
X11259208Y4725792D01*
X11071762Y4497387D01*
X10932476Y4236802D01*
X10846705Y3954051D01*
X10817743Y3660000D01*
X6182257Y3660000D01*
X6153295Y3954051D01*
X6067524Y4236802D01*
X5928238Y4497387D01*
X5740792Y4725792D01*
X5512387Y4913238D01*
X5251802Y5052524D01*
X4969051Y5138295D01*
X4748680Y5160000D01*
X3331320Y5160000D01*
X3110949Y5138295D01*
X2828198Y5052524D01*
X2567613Y4913238D01*
X2339208Y4725792D01*
X2151762Y4497387D01*
X2012476Y4236802D01*
X1926705Y3954051D01*
X1897743Y3660000D01*
X425000Y3660000D01*
X425000Y6337888D01*
X15500000Y6337888D01*
X15500000Y6062112D01*
X15553801Y5791635D01*
X15659336Y5536851D01*
X15812549Y5307552D01*
X16007552Y5112549D01*
X16236851Y4959336D01*
X16491635Y4853801D01*
X16762112Y4800000D01*
X17037888Y4800000D01*
X17308365Y4853801D01*
X17563149Y4959336D01*
X17792448Y5112549D01*
X17987451Y5307552D01*
X18140664Y5536851D01*
X18246199Y5791635D01*
X18300000Y6062112D01*
X18300000Y6337888D01*
X18246199Y6608365D01*
X18140664Y6863149D01*
X17987451Y7092448D01*
X17800000Y7279899D01*
X17800000Y18820101D01*
X17907552Y18712549D01*
X18136851Y18559336D01*
X18391635Y18453801D01*
X18662112Y18400000D01*
X18937888Y18400000D01*
X19208365Y18453801D01*
X19463149Y18559336D01*
X19692448Y18712549D01*
X19887451Y18907552D01*
X19949223Y19000000D01*
X39550777Y19000000D01*
X39459336Y18863149D01*
X39353801Y18608365D01*
X39300000Y18337888D01*
X39300000Y18062112D01*
X39353801Y17791635D01*
X39459336Y17536851D01*
X39612549Y17307552D01*
X39800000Y17120101D01*
X39800001Y9179900D01*
X39612549Y8992448D01*
X39459336Y8763149D01*
X39353801Y8508365D01*
X39300000Y8237888D01*
X39300000Y7962112D01*
X39353801Y7691635D01*
X39459336Y7436851D01*
X39612549Y7207552D01*
X39807552Y7012549D01*
X40036851Y6859336D01*
X40291635Y6753801D01*
X40562112Y6700000D01*
X40837888Y6700000D01*
X41108365Y6753801D01*
X41363149Y6859336D01*
X41592448Y7012549D01*
X41787451Y7207552D01*
X41850000Y7301163D01*
X41912549Y7207552D01*
X42107552Y7012549D01*
X42336851Y6859336D01*
X42591635Y6753801D01*
X42862112Y6700000D01*
X43137888Y6700000D01*
X43408365Y6753801D01*
X43663149Y6859336D01*
X43892448Y7012549D01*
X44087451Y7207552D01*
X44240664Y7436851D01*
X44346199Y7691635D01*
X44400000Y7962112D01*
X44400000Y8237888D01*
X44346199Y8508365D01*
X44240664Y8763149D01*
X44087451Y8992448D01*
X43900000Y9179899D01*
X43900000Y17120101D01*
X44087451Y17307552D01*
X44141651Y17388668D01*
X44212549Y17282562D01*
X44400000Y17095111D01*
X44400001Y6995769D01*
X44387552Y6987451D01*
X44192549Y6792448D01*
X44039336Y6563149D01*
X43933801Y6308365D01*
X43880000Y6037888D01*
X43880000Y5762112D01*
X43933801Y5491635D01*
X44039336Y5236851D01*
X44192549Y5007552D01*
X44387552Y4812549D01*
X44565993Y4693318D01*
X44407552Y4587451D01*
X44220101Y4400000D01*
X41272792Y4400000D01*
X38967657Y6705135D01*
X38939475Y6739475D01*
X38802432Y6851943D01*
X38646081Y6935514D01*
X38529902Y6970757D01*
X38592448Y7012549D01*
X38787451Y7207552D01*
X38940664Y7436851D01*
X39046199Y7691635D01*
X39100000Y7962112D01*
X39100000Y8237888D01*
X39046199Y8508365D01*
X38940664Y8763149D01*
X38787451Y8992448D01*
X38592448Y9187451D01*
X38363149Y9340664D01*
X38108365Y9446199D01*
X37837888Y9500000D01*
X37562112Y9500000D01*
X37291635Y9446199D01*
X37036851Y9340664D01*
X36807552Y9187451D01*
X36620101Y9000000D01*
X25779899Y9000000D01*
X25592448Y9187451D01*
X25363149Y9340664D01*
X25108365Y9446199D01*
X24837888Y9500000D01*
X24562112Y9500000D01*
X24291635Y9446199D01*
X24036851Y9340664D01*
X23807552Y9187451D01*
X23612549Y8992448D01*
X23459336Y8763149D01*
X23353801Y8508365D01*
X23300000Y8237888D01*
X23300000Y7962112D01*
X23353801Y7691635D01*
X23459336Y7436851D01*
X23612549Y7207552D01*
X23807552Y7012549D01*
X23826333Y7000000D01*
X23179899Y7000000D01*
X22992448Y7187451D01*
X22763149Y7340664D01*
X22508365Y7446199D01*
X22237888Y7500000D01*
X21962112Y7500000D01*
X21691635Y7446199D01*
X21436851Y7340664D01*
X21207552Y7187451D01*
X21012549Y6992448D01*
X20859336Y6763149D01*
X20753801Y6508365D01*
X20700000Y6237888D01*
X20700000Y5962112D01*
X20753801Y5691635D01*
X20859336Y5436851D01*
X21012549Y5207552D01*
X21207552Y5012549D01*
X21436851Y4859336D01*
X21691635Y4753801D01*
X21962112Y4700000D01*
X22237888Y4700000D01*
X22508365Y4753801D01*
X22763149Y4859336D01*
X22992448Y5012549D01*
X23179899Y5200000D01*
X37927208Y5200000D01*
X40232343Y2894865D01*
X40260525Y2860525D01*
X40397568Y2748057D01*
X40553919Y2664486D01*
X40723569Y2613023D01*
X40855793Y2600000D01*
X40855795Y2600000D01*
X40899999Y2595646D01*
X40944203Y2600000D01*
X44220101Y2600000D01*
X44407552Y2412549D01*
X44636851Y2259336D01*
X44891635Y2153801D01*
X45162112Y2100000D01*
X45437888Y2100000D01*
X45708365Y2153801D01*
X45963149Y2259336D01*
X46192448Y2412549D01*
X46387451Y2607552D01*
X46540664Y2836851D01*
X46646199Y3091635D01*
X46700000Y3362112D01*
X46700000Y3637888D01*
X46695602Y3660000D01*
X46897743Y3660000D01*
X46926705Y3365949D01*
X47012476Y3083198D01*
X47151762Y2822613D01*
X47339208Y2594208D01*
X47567613Y2406762D01*
X47828198Y2267476D01*
X48110949Y2181705D01*
X48331320Y2160000D01*
X49748680Y2160000D01*
X49969051Y2181705D01*
X50251802Y2267476D01*
X50512387Y2406762D01*
X50740792Y2594208D01*
X50928238Y2822613D01*
X51067524Y3083198D01*
X51153295Y3365949D01*
X51182257Y3660000D01*
X55817743Y3660000D01*
X55846705Y3365949D01*
X55932476Y3083198D01*
X56071762Y2822613D01*
X56259208Y2594208D01*
X56487613Y2406762D01*
X56748198Y2267476D01*
X57030949Y2181705D01*
X57251320Y2160000D01*
X58668680Y2160000D01*
X58889051Y2181705D01*
X59171802Y2267476D01*
X59432387Y2406762D01*
X59660792Y2594208D01*
X59848238Y2822613D01*
X59987524Y3083198D01*
X60073295Y3365949D01*
X60102257Y3660000D01*
X91897743Y3660000D01*
X91926705Y3365949D01*
X92012476Y3083198D01*
X92151762Y2822613D01*
X92339208Y2594208D01*
X92567613Y2406762D01*
X92828198Y2267476D01*
X93110949Y2181705D01*
X93331320Y2160000D01*
X94748680Y2160000D01*
X94969051Y2181705D01*
X95251802Y2267476D01*
X95512387Y2406762D01*
X95740792Y2594208D01*
X95928238Y2822613D01*
X96067524Y3083198D01*
X96153295Y3365949D01*
X96182257Y3660000D01*
X100817743Y3660000D01*
X100846705Y3365949D01*
X100932476Y3083198D01*
X101071762Y2822613D01*
X101259208Y2594208D01*
X101487613Y2406762D01*
X101748198Y2267476D01*
X102030949Y2181705D01*
X102251320Y2160000D01*
X103668680Y2160000D01*
X103889051Y2181705D01*
X104171802Y2267476D01*
X104432387Y2406762D01*
X104660792Y2594208D01*
X104848238Y2822613D01*
X104987524Y3083198D01*
X105073295Y3365949D01*
X105102257Y3660000D01*
X136897743Y3660000D01*
X136926705Y3365949D01*
X137012476Y3083198D01*
X137151762Y2822613D01*
X137339208Y2594208D01*
X137567613Y2406762D01*
X137828198Y2267476D01*
X138110949Y2181705D01*
X138331320Y2160000D01*
X139748680Y2160000D01*
X139969051Y2181705D01*
X140251802Y2267476D01*
X140512387Y2406762D01*
X140740792Y2594208D01*
X140928238Y2822613D01*
X141067524Y3083198D01*
X141153295Y3365949D01*
X141182257Y3660000D01*
X145817743Y3660000D01*
X145846705Y3365949D01*
X145932476Y3083198D01*
X146071762Y2822613D01*
X146259208Y2594208D01*
X146487613Y2406762D01*
X146748198Y2267476D01*
X147030949Y2181705D01*
X147251320Y2160000D01*
X148668680Y2160000D01*
X148889051Y2181705D01*
X149171802Y2267476D01*
X149432387Y2406762D01*
X149660792Y2594208D01*
X149848238Y2822613D01*
X149987524Y3083198D01*
X150073295Y3365949D01*
X150102257Y3660000D01*
X181897743Y3660000D01*
X181926705Y3365949D01*
X182012476Y3083198D01*
X182151762Y2822613D01*
X182339208Y2594208D01*
X182567613Y2406762D01*
X182828198Y2267476D01*
X183110949Y2181705D01*
X183331320Y2160000D01*
X184748680Y2160000D01*
X184969051Y2181705D01*
X185251802Y2267476D01*
X185512387Y2406762D01*
X185740792Y2594208D01*
X185928238Y2822613D01*
X186067524Y3083198D01*
X186153295Y3365949D01*
X186182257Y3660000D01*
X190817743Y3660000D01*
X190846705Y3365949D01*
X190932476Y3083198D01*
X191071762Y2822613D01*
X191259208Y2594208D01*
X191487613Y2406762D01*
X191748198Y2267476D01*
X192030949Y2181705D01*
X192251320Y2160000D01*
X193668680Y2160000D01*
X193889051Y2181705D01*
X194171802Y2267476D01*
X194432387Y2406762D01*
X194660792Y2594208D01*
X194848238Y2822613D01*
X194987524Y3083198D01*
X195073295Y3365949D01*
X195102257Y3660000D01*
X195073295Y3954051D01*
X194987524Y4236802D01*
X194848238Y4497387D01*
X194660792Y4725792D01*
X194432387Y4913238D01*
X194171802Y5052524D01*
X193889051Y5138295D01*
X193668680Y5160000D01*
X192251320Y5160000D01*
X192030949Y5138295D01*
X191748198Y5052524D01*
X191487613Y4913238D01*
X191259208Y4725792D01*
X191071762Y4497387D01*
X190932476Y4236802D01*
X190846705Y3954051D01*
X190817743Y3660000D01*
X186182257Y3660000D01*
X186153295Y3954051D01*
X186067524Y4236802D01*
X185928238Y4497387D01*
X185740792Y4725792D01*
X185512387Y4913238D01*
X185251802Y5052524D01*
X184969051Y5138295D01*
X184748680Y5160000D01*
X183331320Y5160000D01*
X183110949Y5138295D01*
X182828198Y5052524D01*
X182567613Y4913238D01*
X182339208Y4725792D01*
X182151762Y4497387D01*
X182012476Y4236802D01*
X181926705Y3954051D01*
X181897743Y3660000D01*
X150102257Y3660000D01*
X150073295Y3954051D01*
X149987524Y4236802D01*
X149848238Y4497387D01*
X149660792Y4725792D01*
X149432387Y4913238D01*
X149171802Y5052524D01*
X148889051Y5138295D01*
X148668680Y5160000D01*
X147251320Y5160000D01*
X147030949Y5138295D01*
X146748198Y5052524D01*
X146487613Y4913238D01*
X146259208Y4725792D01*
X146071762Y4497387D01*
X145932476Y4236802D01*
X145846705Y3954051D01*
X145817743Y3660000D01*
X141182257Y3660000D01*
X141153295Y3954051D01*
X141067524Y4236802D01*
X140928238Y4497387D01*
X140740792Y4725792D01*
X140512387Y4913238D01*
X140251802Y5052524D01*
X139969051Y5138295D01*
X139748680Y5160000D01*
X138331320Y5160000D01*
X138110949Y5138295D01*
X137828198Y5052524D01*
X137567613Y4913238D01*
X137339208Y4725792D01*
X137151762Y4497387D01*
X137012476Y4236802D01*
X136926705Y3954051D01*
X136897743Y3660000D01*
X105102257Y3660000D01*
X105073295Y3954051D01*
X104987524Y4236802D01*
X104848238Y4497387D01*
X104660792Y4725792D01*
X104432387Y4913238D01*
X104171802Y5052524D01*
X103889051Y5138295D01*
X103668680Y5160000D01*
X102251320Y5160000D01*
X102030949Y5138295D01*
X101748198Y5052524D01*
X101487613Y4913238D01*
X101259208Y4725792D01*
X101071762Y4497387D01*
X100932476Y4236802D01*
X100846705Y3954051D01*
X100817743Y3660000D01*
X96182257Y3660000D01*
X96153295Y3954051D01*
X96067524Y4236802D01*
X95928238Y4497387D01*
X95740792Y4725792D01*
X95512387Y4913238D01*
X95251802Y5052524D01*
X94969051Y5138295D01*
X94748680Y5160000D01*
X93331320Y5160000D01*
X93110949Y5138295D01*
X92828198Y5052524D01*
X92567613Y4913238D01*
X92339208Y4725792D01*
X92151762Y4497387D01*
X92012476Y4236802D01*
X91926705Y3954051D01*
X91897743Y3660000D01*
X60102257Y3660000D01*
X60073295Y3954051D01*
X59987524Y4236802D01*
X59848238Y4497387D01*
X59660792Y4725792D01*
X59432387Y4913238D01*
X59171802Y5052524D01*
X58889051Y5138295D01*
X58668680Y5160000D01*
X57251320Y5160000D01*
X57030949Y5138295D01*
X56748198Y5052524D01*
X56487613Y4913238D01*
X56259208Y4725792D01*
X56071762Y4497387D01*
X55932476Y4236802D01*
X55846705Y3954051D01*
X55817743Y3660000D01*
X51182257Y3660000D01*
X51153295Y3954051D01*
X51067524Y4236802D01*
X50928238Y4497387D01*
X50740792Y4725792D01*
X50512387Y4913238D01*
X50251802Y5052524D01*
X49969051Y5138295D01*
X49748680Y5160000D01*
X48331320Y5160000D01*
X48110949Y5138295D01*
X47828198Y5052524D01*
X47567613Y4913238D01*
X47339208Y4725792D01*
X47151762Y4497387D01*
X47012476Y4236802D01*
X46926705Y3954051D01*
X46897743Y3660000D01*
X46695602Y3660000D01*
X46646199Y3908365D01*
X46540664Y4163149D01*
X46387451Y4392448D01*
X46192448Y4587451D01*
X46014007Y4706682D01*
X46172448Y4812549D01*
X46367451Y5007552D01*
X46520664Y5236851D01*
X46626199Y5491635D01*
X46680000Y5762112D01*
X46680000Y6037888D01*
X46626199Y6308365D01*
X46520664Y6563149D01*
X46367451Y6792448D01*
X46200000Y6959899D01*
X46200000Y8740000D01*
X46897743Y8740000D01*
X46926705Y8445949D01*
X47012476Y8163198D01*
X47151762Y7902613D01*
X47339208Y7674208D01*
X47567613Y7486762D01*
X47828198Y7347476D01*
X48110949Y7261705D01*
X48331320Y7240000D01*
X49748680Y7240000D01*
X49969051Y7261705D01*
X50251802Y7347476D01*
X50512387Y7486762D01*
X50740792Y7674208D01*
X50928238Y7902613D01*
X51067524Y8163198D01*
X51153295Y8445949D01*
X51182257Y8740000D01*
X55817743Y8740000D01*
X55846705Y8445949D01*
X55932476Y8163198D01*
X56071762Y7902613D01*
X56259208Y7674208D01*
X56487613Y7486762D01*
X56748198Y7347476D01*
X57030949Y7261705D01*
X57251320Y7240000D01*
X58668680Y7240000D01*
X58889051Y7261705D01*
X59171802Y7347476D01*
X59432387Y7486762D01*
X59660792Y7674208D01*
X59848238Y7902613D01*
X59987524Y8163198D01*
X60073295Y8445949D01*
X60102257Y8740000D01*
X91897743Y8740000D01*
X91926705Y8445949D01*
X92012476Y8163198D01*
X92151762Y7902613D01*
X92339208Y7674208D01*
X92567613Y7486762D01*
X92828198Y7347476D01*
X93110949Y7261705D01*
X93331320Y7240000D01*
X94748680Y7240000D01*
X94969051Y7261705D01*
X95251802Y7347476D01*
X95512387Y7486762D01*
X95740792Y7674208D01*
X95928238Y7902613D01*
X96067524Y8163198D01*
X96153295Y8445949D01*
X96182257Y8740000D01*
X100817743Y8740000D01*
X100846705Y8445949D01*
X100932476Y8163198D01*
X101071762Y7902613D01*
X101259208Y7674208D01*
X101487613Y7486762D01*
X101748198Y7347476D01*
X102030949Y7261705D01*
X102251320Y7240000D01*
X103668680Y7240000D01*
X103889051Y7261705D01*
X104171802Y7347476D01*
X104432387Y7486762D01*
X104660792Y7674208D01*
X104848238Y7902613D01*
X104987524Y8163198D01*
X105073295Y8445949D01*
X105102257Y8740000D01*
X136897743Y8740000D01*
X136926705Y8445949D01*
X137012476Y8163198D01*
X137151762Y7902613D01*
X137339208Y7674208D01*
X137567613Y7486762D01*
X137828198Y7347476D01*
X138110949Y7261705D01*
X138331320Y7240000D01*
X139748680Y7240000D01*
X139969051Y7261705D01*
X140251802Y7347476D01*
X140512387Y7486762D01*
X140740792Y7674208D01*
X140928238Y7902613D01*
X141067524Y8163198D01*
X141153295Y8445949D01*
X141182257Y8740000D01*
X145817743Y8740000D01*
X145846705Y8445949D01*
X145932476Y8163198D01*
X146071762Y7902613D01*
X146259208Y7674208D01*
X146487613Y7486762D01*
X146748198Y7347476D01*
X147030949Y7261705D01*
X147251320Y7240000D01*
X148668680Y7240000D01*
X148889051Y7261705D01*
X149171802Y7347476D01*
X149432387Y7486762D01*
X149660792Y7674208D01*
X149848238Y7902613D01*
X149987524Y8163198D01*
X150073295Y8445949D01*
X150102257Y8740000D01*
X181897743Y8740000D01*
X181926705Y8445949D01*
X182012476Y8163198D01*
X182151762Y7902613D01*
X182339208Y7674208D01*
X182567613Y7486762D01*
X182828198Y7347476D01*
X183110949Y7261705D01*
X183331320Y7240000D01*
X184748680Y7240000D01*
X184969051Y7261705D01*
X185251802Y7347476D01*
X185512387Y7486762D01*
X185740792Y7674208D01*
X185928238Y7902613D01*
X186067524Y8163198D01*
X186153295Y8445949D01*
X186182257Y8740000D01*
X190817743Y8740000D01*
X190846705Y8445949D01*
X190932476Y8163198D01*
X191071762Y7902613D01*
X191259208Y7674208D01*
X191487613Y7486762D01*
X191748198Y7347476D01*
X192030949Y7261705D01*
X192251320Y7240000D01*
X193668680Y7240000D01*
X193889051Y7261705D01*
X194171802Y7347476D01*
X194432387Y7486762D01*
X194660792Y7674208D01*
X194848238Y7902613D01*
X194987524Y8163198D01*
X195073295Y8445949D01*
X195102257Y8740000D01*
X195073295Y9034051D01*
X194987524Y9316802D01*
X194848238Y9577387D01*
X194660792Y9805792D01*
X194432387Y9993238D01*
X194171802Y10132524D01*
X193889051Y10218295D01*
X193668680Y10240000D01*
X192251320Y10240000D01*
X192030949Y10218295D01*
X191748198Y10132524D01*
X191487613Y9993238D01*
X191259208Y9805792D01*
X191071762Y9577387D01*
X190932476Y9316802D01*
X190846705Y9034051D01*
X190817743Y8740000D01*
X186182257Y8740000D01*
X186153295Y9034051D01*
X186067524Y9316802D01*
X185928238Y9577387D01*
X185740792Y9805792D01*
X185512387Y9993238D01*
X185251802Y10132524D01*
X184969051Y10218295D01*
X184748680Y10240000D01*
X183331320Y10240000D01*
X183110949Y10218295D01*
X182828198Y10132524D01*
X182567613Y9993238D01*
X182339208Y9805792D01*
X182151762Y9577387D01*
X182012476Y9316802D01*
X181926705Y9034051D01*
X181897743Y8740000D01*
X150102257Y8740000D01*
X150073295Y9034051D01*
X149987524Y9316802D01*
X149848238Y9577387D01*
X149660792Y9805792D01*
X149432387Y9993238D01*
X149171802Y10132524D01*
X148889051Y10218295D01*
X148668680Y10240000D01*
X147251320Y10240000D01*
X147030949Y10218295D01*
X146748198Y10132524D01*
X146487613Y9993238D01*
X146259208Y9805792D01*
X146071762Y9577387D01*
X145932476Y9316802D01*
X145846705Y9034051D01*
X145817743Y8740000D01*
X141182257Y8740000D01*
X141153295Y9034051D01*
X141067524Y9316802D01*
X140928238Y9577387D01*
X140740792Y9805792D01*
X140512387Y9993238D01*
X140251802Y10132524D01*
X139969051Y10218295D01*
X139748680Y10240000D01*
X138331320Y10240000D01*
X138110949Y10218295D01*
X137828198Y10132524D01*
X137567613Y9993238D01*
X137339208Y9805792D01*
X137151762Y9577387D01*
X137012476Y9316802D01*
X136926705Y9034051D01*
X136897743Y8740000D01*
X105102257Y8740000D01*
X105073295Y9034051D01*
X104987524Y9316802D01*
X104848238Y9577387D01*
X104660792Y9805792D01*
X104432387Y9993238D01*
X104171802Y10132524D01*
X103889051Y10218295D01*
X103668680Y10240000D01*
X102251320Y10240000D01*
X102030949Y10218295D01*
X101748198Y10132524D01*
X101487613Y9993238D01*
X101259208Y9805792D01*
X101071762Y9577387D01*
X100932476Y9316802D01*
X100846705Y9034051D01*
X100817743Y8740000D01*
X96182257Y8740000D01*
X96153295Y9034051D01*
X96067524Y9316802D01*
X95928238Y9577387D01*
X95740792Y9805792D01*
X95512387Y9993238D01*
X95251802Y10132524D01*
X94969051Y10218295D01*
X94748680Y10240000D01*
X93331320Y10240000D01*
X93110949Y10218295D01*
X92828198Y10132524D01*
X92567613Y9993238D01*
X92339208Y9805792D01*
X92151762Y9577387D01*
X92012476Y9316802D01*
X91926705Y9034051D01*
X91897743Y8740000D01*
X60102257Y8740000D01*
X60073295Y9034051D01*
X59987524Y9316802D01*
X59848238Y9577387D01*
X59660792Y9805792D01*
X59432387Y9993238D01*
X59171802Y10132524D01*
X58889051Y10218295D01*
X58668680Y10240000D01*
X57251320Y10240000D01*
X57030949Y10218295D01*
X56748198Y10132524D01*
X56487613Y9993238D01*
X56259208Y9805792D01*
X56071762Y9577387D01*
X55932476Y9316802D01*
X55846705Y9034051D01*
X55817743Y8740000D01*
X51182257Y8740000D01*
X51153295Y9034051D01*
X51067524Y9316802D01*
X50928238Y9577387D01*
X50740792Y9805792D01*
X50512387Y9993238D01*
X50251802Y10132524D01*
X49969051Y10218295D01*
X49748680Y10240000D01*
X48331320Y10240000D01*
X48110949Y10218295D01*
X47828198Y10132524D01*
X47567613Y9993238D01*
X47339208Y9805792D01*
X47151762Y9577387D01*
X47012476Y9316802D01*
X46926705Y9034051D01*
X46897743Y8740000D01*
X46200000Y8740000D01*
X46200000Y12196983D01*
X74000000Y12196983D01*
X74000000Y11803017D01*
X74076859Y11416622D01*
X74227623Y11052645D01*
X74446499Y10725074D01*
X74725074Y10446499D01*
X75052645Y10227623D01*
X75416622Y10076859D01*
X75803017Y10000000D01*
X76196983Y10000000D01*
X76583378Y10076859D01*
X76947355Y10227623D01*
X77274926Y10446499D01*
X77553501Y10725074D01*
X77772377Y11052645D01*
X77923141Y11416622D01*
X78000000Y11803017D01*
X78000000Y12196983D01*
X119000000Y12196983D01*
X119000000Y11803017D01*
X119076859Y11416622D01*
X119227623Y11052645D01*
X119446499Y10725074D01*
X119725074Y10446499D01*
X120052645Y10227623D01*
X120416622Y10076859D01*
X120803017Y10000000D01*
X121196983Y10000000D01*
X121583378Y10076859D01*
X121947355Y10227623D01*
X122274926Y10446499D01*
X122553501Y10725074D01*
X122772377Y11052645D01*
X122923141Y11416622D01*
X123000000Y11803017D01*
X123000000Y12196983D01*
X164000000Y12196983D01*
X164000000Y11803017D01*
X164076859Y11416622D01*
X164227623Y11052645D01*
X164446499Y10725074D01*
X164725074Y10446499D01*
X165052645Y10227623D01*
X165416622Y10076859D01*
X165803017Y10000000D01*
X166196983Y10000000D01*
X166583378Y10076859D01*
X166947355Y10227623D01*
X167274926Y10446499D01*
X167553501Y10725074D01*
X167772377Y11052645D01*
X167923141Y11416622D01*
X168000000Y11803017D01*
X168000000Y12196983D01*
X167923141Y12583378D01*
X167772377Y12947355D01*
X167553501Y13274926D01*
X167274926Y13553501D01*
X166947355Y13772377D01*
X166583378Y13923141D01*
X166196983Y14000000D01*
X165803017Y14000000D01*
X165416622Y13923141D01*
X165052645Y13772377D01*
X164725074Y13553501D01*
X164446499Y13274926D01*
X164227623Y12947355D01*
X164076859Y12583378D01*
X164000000Y12196983D01*
X123000000Y12196983D01*
X122923141Y12583378D01*
X122772377Y12947355D01*
X122553501Y13274926D01*
X122274926Y13553501D01*
X121947355Y13772377D01*
X121583378Y13923141D01*
X121196983Y14000000D01*
X120803017Y14000000D01*
X120416622Y13923141D01*
X120052645Y13772377D01*
X119725074Y13553501D01*
X119446499Y13274926D01*
X119227623Y12947355D01*
X119076859Y12583378D01*
X119000000Y12196983D01*
X78000000Y12196983D01*
X77923141Y12583378D01*
X77772377Y12947355D01*
X77553501Y13274926D01*
X77274926Y13553501D01*
X76947355Y13772377D01*
X76583378Y13923141D01*
X76196983Y14000000D01*
X75803017Y14000000D01*
X75416622Y13923141D01*
X75052645Y13772377D01*
X74725074Y13553501D01*
X74446499Y13274926D01*
X74227623Y12947355D01*
X74076859Y12583378D01*
X74000000Y12196983D01*
X46200000Y12196983D01*
X46200000Y17095111D01*
X46387451Y17282562D01*
X46540664Y17511861D01*
X46646199Y17766645D01*
X46700000Y18037122D01*
X46700000Y18312898D01*
X46652249Y18552958D01*
X46891635Y18453801D01*
X47162112Y18400000D01*
X47437888Y18400000D01*
X47708365Y18453801D01*
X47963149Y18559336D01*
X48192448Y18712549D01*
X48387451Y18907552D01*
X48540664Y19136851D01*
X48646199Y19391635D01*
X48700000Y19662112D01*
X48700000Y19937888D01*
X48646199Y20208365D01*
X48540664Y20463149D01*
X48387451Y20692448D01*
X48192448Y20887451D01*
X47963149Y21040664D01*
X47708365Y21146199D01*
X47437888Y21200000D01*
X47162112Y21200000D01*
X46891635Y21146199D01*
X46636851Y21040664D01*
X46407552Y20887451D01*
X46212549Y20692448D01*
X46150777Y20600000D01*
X35739791Y20600000D01*
X35910517Y20670717D01*
X36156194Y20834874D01*
X36365126Y21043806D01*
X36529283Y21289483D01*
X36642356Y21562466D01*
X36700000Y21852263D01*
X36700000Y22147737D01*
X36642356Y22437534D01*
X36529283Y22710517D01*
X36365126Y22956194D01*
X36156194Y23165126D01*
X35910517Y23329283D01*
X35637534Y23442356D01*
X35347737Y23500000D01*
X35052263Y23500000D01*
X34762466Y23442356D01*
X34489483Y23329283D01*
X34243806Y23165126D01*
X34034874Y22956194D01*
X33930000Y22799240D01*
X33825126Y22956194D01*
X33616194Y23165126D01*
X33370517Y23329283D01*
X33097534Y23442356D01*
X32807737Y23500000D01*
X32512263Y23500000D01*
X32222466Y23442356D01*
X31949483Y23329283D01*
X31703806Y23165126D01*
X31494874Y22956194D01*
X31330717Y22710517D01*
X31217644Y22437534D01*
X31160000Y22147737D01*
X31160000Y21852263D01*
X31217644Y21562466D01*
X31330717Y21289483D01*
X31494874Y21043806D01*
X31703806Y20834874D01*
X31949483Y20670717D01*
X32120209Y20600000D01*
X28119791Y20600000D01*
X28290517Y20670717D01*
X28536194Y20834874D01*
X28745126Y21043806D01*
X28909283Y21289483D01*
X29022356Y21562466D01*
X29080000Y21852263D01*
X29080000Y22147737D01*
X29022356Y22437534D01*
X28909283Y22710517D01*
X28745126Y22956194D01*
X28536194Y23165126D01*
X28290517Y23329283D01*
X28017534Y23442356D01*
X27727737Y23500000D01*
X27432263Y23500000D01*
X27142466Y23442356D01*
X26869483Y23329283D01*
X26623806Y23165126D01*
X26414874Y22956194D01*
X26310000Y22799240D01*
X26205126Y22956194D01*
X25996194Y23165126D01*
X25750517Y23329283D01*
X25477534Y23442356D01*
X25187737Y23500000D01*
X24892263Y23500000D01*
X24602466Y23442356D01*
X24329483Y23329283D01*
X24083806Y23165126D01*
X23874874Y22956194D01*
X23770000Y22799240D01*
X23665126Y22956194D01*
X23456194Y23165126D01*
X23210517Y23329283D01*
X22937534Y23442356D01*
X22647737Y23500000D01*
X22352263Y23500000D01*
X22062466Y23442356D01*
X21789483Y23329283D01*
X21543806Y23165126D01*
X21334874Y22956194D01*
X21170717Y22710517D01*
X21057644Y22437534D01*
X21000000Y22147737D01*
X21000000Y21852263D01*
X21057644Y21562466D01*
X21170717Y21289483D01*
X21334874Y21043806D01*
X21543806Y20834874D01*
X21789483Y20670717D01*
X21960209Y20600000D01*
X19949223Y20600000D01*
X19887451Y20692448D01*
X19692448Y20887451D01*
X19463149Y21040664D01*
X19208365Y21146199D01*
X18937888Y21200000D01*
X18662112Y21200000D01*
X18391635Y21146199D01*
X18136851Y21040664D01*
X17907552Y20887451D01*
X17800000Y20779899D01*
X17800000Y20920732D01*
X17922448Y21002549D01*
X18117451Y21197552D01*
X18270664Y21426851D01*
X18376199Y21681635D01*
X18430000Y21952112D01*
X18430000Y22227888D01*
X18376199Y22498365D01*
X18270664Y22753149D01*
X18117451Y22982448D01*
X17922448Y23177451D01*
X17693149Y23330664D01*
X17438365Y23436199D01*
X17167888Y23490000D01*
X16892112Y23490000D01*
X16621635Y23436199D01*
X16366851Y23330664D01*
X16137552Y23177451D01*
X15942549Y22982448D01*
X15789336Y22753149D01*
X15683801Y22498365D01*
X15630000Y22227888D01*
X15630000Y21952112D01*
X15683801Y21681635D01*
X15789336Y21426851D01*
X15942549Y21197552D01*
X16137552Y21002549D01*
X16200000Y20960822D01*
X16200001Y7416042D01*
X16007552Y7287451D01*
X15812549Y7092448D01*
X15659336Y6863149D01*
X15553801Y6608365D01*
X15500000Y6337888D01*
X425000Y6337888D01*
X425000Y8740000D01*
X1897743Y8740000D01*
X1926705Y8445949D01*
X2012476Y8163198D01*
X2151762Y7902613D01*
X2339208Y7674208D01*
X2567613Y7486762D01*
X2828198Y7347476D01*
X3110949Y7261705D01*
X3331320Y7240000D01*
X4748680Y7240000D01*
X4969051Y7261705D01*
X5251802Y7347476D01*
X5512387Y7486762D01*
X5740792Y7674208D01*
X5928238Y7902613D01*
X6067524Y8163198D01*
X6153295Y8445949D01*
X6182257Y8740000D01*
X10817743Y8740000D01*
X10846705Y8445949D01*
X10932476Y8163198D01*
X11071762Y7902613D01*
X11259208Y7674208D01*
X11487613Y7486762D01*
X11748198Y7347476D01*
X12030949Y7261705D01*
X12251320Y7240000D01*
X13668680Y7240000D01*
X13889051Y7261705D01*
X14171802Y7347476D01*
X14432387Y7486762D01*
X14660792Y7674208D01*
X14848238Y7902613D01*
X14987524Y8163198D01*
X15073295Y8445949D01*
X15102257Y8740000D01*
X15073295Y9034051D01*
X14987524Y9316802D01*
X14848238Y9577387D01*
X14660792Y9805792D01*
X14432387Y9993238D01*
X14171802Y10132524D01*
X13889051Y10218295D01*
X13668680Y10240000D01*
X12251320Y10240000D01*
X12030949Y10218295D01*
X11748198Y10132524D01*
X11487613Y9993238D01*
X11259208Y9805792D01*
X11071762Y9577387D01*
X10932476Y9316802D01*
X10846705Y9034051D01*
X10817743Y8740000D01*
X6182257Y8740000D01*
X6153295Y9034051D01*
X6067524Y9316802D01*
X5928238Y9577387D01*
X5740792Y9805792D01*
X5512387Y9993238D01*
X5251802Y10132524D01*
X4969051Y10218295D01*
X4748680Y10240000D01*
X3331320Y10240000D01*
X3110949Y10218295D01*
X2828198Y10132524D01*
X2567613Y9993238D01*
X2339208Y9805792D01*
X2151762Y9577387D01*
X2012476Y9316802D01*
X1926705Y9034051D01*
X1897743Y8740000D01*
X425000Y8740000D01*
X425000Y14137888D01*
X1600000Y14137888D01*
X1600000Y13862112D01*
X1653801Y13591635D01*
X1759336Y13336851D01*
X1912549Y13107552D01*
X2107552Y12912549D01*
X2336851Y12759336D01*
X2591635Y12653801D01*
X2862112Y12600000D01*
X3137888Y12600000D01*
X3408365Y12653801D01*
X3663149Y12759336D01*
X3892448Y12912549D01*
X4087451Y13107552D01*
X4240664Y13336851D01*
X4346199Y13591635D01*
X4400000Y13862112D01*
X4400000Y14137888D01*
X4346199Y14408365D01*
X4240664Y14663149D01*
X4087451Y14892448D01*
X3892448Y15087451D01*
X3663149Y15240664D01*
X3408365Y15346199D01*
X3137888Y15400000D01*
X2862112Y15400000D01*
X2591635Y15346199D01*
X2336851Y15240664D01*
X2107552Y15087451D01*
X1912549Y14892448D01*
X1759336Y14663149D01*
X1653801Y14408365D01*
X1600000Y14137888D01*
X425000Y14137888D01*
X425000Y24575000D01*
X196575001Y24575000D01*
X196575000Y425000D01*
%TD*%
M02*
