%TF.GenerationSoftware,KiCad,Pcbnew,(5.1.6)-1*%
%TF.CreationDate,2025-03-18T13:40:46-05:00*%
%TF.ProjectId,row_board_pcbway,726f775f-626f-4617-9264-5f7063627761,rev?*%
%TF.SameCoordinates,PX311d3e0PY5f5e100*%
%TF.FileFunction,Paste,Top*%
%TF.FilePolarity,Positive*%
%FSLAX46Y46*%
G04 Gerber Fmt 4.6, Leading zero omitted, Abs format (unit mm)*
G04 Created by KiCad (PCBNEW (5.1.6)-1) date 2025-03-18 13:40:46*
%MOMM*%
%LPD*%
G01*
G04 APERTURE LIST*
%ADD10R,3.000000X1.500000*%
G04 APERTURE END LIST*
%TO.C,C6*%
G36*
G01*
X20975000Y15025000D02*
X22225000Y15025000D01*
G75*
G02*
X22475000Y14775000I0J-250000D01*
G01*
X22475000Y13850000D01*
G75*
G02*
X22225000Y13600000I-250000J0D01*
G01*
X20975000Y13600000D01*
G75*
G02*
X20725000Y13850000I0J250000D01*
G01*
X20725000Y14775000D01*
G75*
G02*
X20975000Y15025000I250000J0D01*
G01*
G37*
G36*
G01*
X20975000Y18000000D02*
X22225000Y18000000D01*
G75*
G02*
X22475000Y17750000I0J-250000D01*
G01*
X22475000Y16825000D01*
G75*
G02*
X22225000Y16575000I-250000J0D01*
G01*
X20975000Y16575000D01*
G75*
G02*
X20725000Y16825000I0J250000D01*
G01*
X20725000Y17750000D01*
G75*
G02*
X20975000Y18000000I250000J0D01*
G01*
G37*
%TD*%
D10*
%TO.C,D1*%
X5550000Y21100000D03*
X5550000Y17900000D03*
X11450000Y21100000D03*
X11450000Y17900000D03*
%TD*%
%TO.C,D2*%
X56450000Y17900000D03*
X56450000Y21100000D03*
X50550000Y17900000D03*
X50550000Y21100000D03*
%TD*%
%TO.C,D3*%
X95550000Y21100000D03*
X95550000Y17900000D03*
X101450000Y21100000D03*
X101450000Y17900000D03*
%TD*%
%TO.C,D4*%
X146450000Y17900000D03*
X146450000Y21100000D03*
X140550000Y17900000D03*
X140550000Y21100000D03*
%TD*%
%TO.C,D5*%
X185550000Y21100000D03*
X185550000Y17900000D03*
X191450000Y21100000D03*
X191450000Y17900000D03*
%TD*%
%TO.C,C1*%
G36*
G01*
X10700000Y15625000D02*
X10700000Y14375000D01*
G75*
G02*
X10450000Y14125000I-250000J0D01*
G01*
X9525000Y14125000D01*
G75*
G02*
X9275000Y14375000I0J250000D01*
G01*
X9275000Y15625000D01*
G75*
G02*
X9525000Y15875000I250000J0D01*
G01*
X10450000Y15875000D01*
G75*
G02*
X10700000Y15625000I0J-250000D01*
G01*
G37*
G36*
G01*
X7725000Y15625000D02*
X7725000Y14375000D01*
G75*
G02*
X7475000Y14125000I-250000J0D01*
G01*
X6550000Y14125000D01*
G75*
G02*
X6300000Y14375000I0J250000D01*
G01*
X6300000Y15625000D01*
G75*
G02*
X6550000Y15875000I250000J0D01*
G01*
X7475000Y15875000D01*
G75*
G02*
X7725000Y15625000I0J-250000D01*
G01*
G37*
%TD*%
%TO.C,C2*%
G36*
G01*
X62012500Y17405000D02*
X62012500Y18655000D01*
G75*
G02*
X62262500Y18905000I250000J0D01*
G01*
X63187500Y18905000D01*
G75*
G02*
X63437500Y18655000I0J-250000D01*
G01*
X63437500Y17405000D01*
G75*
G02*
X63187500Y17155000I-250000J0D01*
G01*
X62262500Y17155000D01*
G75*
G02*
X62012500Y17405000I0J250000D01*
G01*
G37*
G36*
G01*
X59037500Y17405000D02*
X59037500Y18655000D01*
G75*
G02*
X59287500Y18905000I250000J0D01*
G01*
X60212500Y18905000D01*
G75*
G02*
X60462500Y18655000I0J-250000D01*
G01*
X60462500Y17405000D01*
G75*
G02*
X60212500Y17155000I-250000J0D01*
G01*
X59287500Y17155000D01*
G75*
G02*
X59037500Y17405000I0J250000D01*
G01*
G37*
%TD*%
%TO.C,C3*%
G36*
G01*
X97725000Y15625000D02*
X97725000Y14375000D01*
G75*
G02*
X97475000Y14125000I-250000J0D01*
G01*
X96550000Y14125000D01*
G75*
G02*
X96300000Y14375000I0J250000D01*
G01*
X96300000Y15625000D01*
G75*
G02*
X96550000Y15875000I250000J0D01*
G01*
X97475000Y15875000D01*
G75*
G02*
X97725000Y15625000I0J-250000D01*
G01*
G37*
G36*
G01*
X100700000Y15625000D02*
X100700000Y14375000D01*
G75*
G02*
X100450000Y14125000I-250000J0D01*
G01*
X99525000Y14125000D01*
G75*
G02*
X99275000Y14375000I0J250000D01*
G01*
X99275000Y15625000D01*
G75*
G02*
X99525000Y15875000I250000J0D01*
G01*
X100450000Y15875000D01*
G75*
G02*
X100700000Y15625000I0J-250000D01*
G01*
G37*
%TD*%
%TO.C,C4*%
G36*
G01*
X142725000Y15625000D02*
X142725000Y14375000D01*
G75*
G02*
X142475000Y14125000I-250000J0D01*
G01*
X141550000Y14125000D01*
G75*
G02*
X141300000Y14375000I0J250000D01*
G01*
X141300000Y15625000D01*
G75*
G02*
X141550000Y15875000I250000J0D01*
G01*
X142475000Y15875000D01*
G75*
G02*
X142725000Y15625000I0J-250000D01*
G01*
G37*
G36*
G01*
X145700000Y15625000D02*
X145700000Y14375000D01*
G75*
G02*
X145450000Y14125000I-250000J0D01*
G01*
X144525000Y14125000D01*
G75*
G02*
X144275000Y14375000I0J250000D01*
G01*
X144275000Y15625000D01*
G75*
G02*
X144525000Y15875000I250000J0D01*
G01*
X145450000Y15875000D01*
G75*
G02*
X145700000Y15625000I0J-250000D01*
G01*
G37*
%TD*%
%TO.C,C5*%
G36*
G01*
X190700000Y15625000D02*
X190700000Y14375000D01*
G75*
G02*
X190450000Y14125000I-250000J0D01*
G01*
X189525000Y14125000D01*
G75*
G02*
X189275000Y14375000I0J250000D01*
G01*
X189275000Y15625000D01*
G75*
G02*
X189525000Y15875000I250000J0D01*
G01*
X190450000Y15875000D01*
G75*
G02*
X190700000Y15625000I0J-250000D01*
G01*
G37*
G36*
G01*
X187725000Y15625000D02*
X187725000Y14375000D01*
G75*
G02*
X187475000Y14125000I-250000J0D01*
G01*
X186550000Y14125000D01*
G75*
G02*
X186300000Y14375000I0J250000D01*
G01*
X186300000Y15625000D01*
G75*
G02*
X186550000Y15875000I250000J0D01*
G01*
X187475000Y15875000D01*
G75*
G02*
X187725000Y15625000I0J-250000D01*
G01*
G37*
%TD*%
%TO.C,U1*%
G36*
G01*
X23692500Y11250000D02*
X23417500Y11250000D01*
G75*
G02*
X23280000Y11387500I0J137500D01*
G01*
X23280000Y12712500D01*
G75*
G02*
X23417500Y12850000I137500J0D01*
G01*
X23692500Y12850000D01*
G75*
G02*
X23830000Y12712500I0J-137500D01*
G01*
X23830000Y11387500D01*
G75*
G02*
X23692500Y11250000I-137500J0D01*
G01*
G37*
G36*
G01*
X24962500Y11250000D02*
X24687500Y11250000D01*
G75*
G02*
X24550000Y11387500I0J137500D01*
G01*
X24550000Y12712500D01*
G75*
G02*
X24687500Y12850000I137500J0D01*
G01*
X24962500Y12850000D01*
G75*
G02*
X25100000Y12712500I0J-137500D01*
G01*
X25100000Y11387500D01*
G75*
G02*
X24962500Y11250000I-137500J0D01*
G01*
G37*
G36*
G01*
X26232500Y11250000D02*
X25957500Y11250000D01*
G75*
G02*
X25820000Y11387500I0J137500D01*
G01*
X25820000Y12712500D01*
G75*
G02*
X25957500Y12850000I137500J0D01*
G01*
X26232500Y12850000D01*
G75*
G02*
X26370000Y12712500I0J-137500D01*
G01*
X26370000Y11387500D01*
G75*
G02*
X26232500Y11250000I-137500J0D01*
G01*
G37*
G36*
G01*
X27502500Y11250000D02*
X27227500Y11250000D01*
G75*
G02*
X27090000Y11387500I0J137500D01*
G01*
X27090000Y12712500D01*
G75*
G02*
X27227500Y12850000I137500J0D01*
G01*
X27502500Y12850000D01*
G75*
G02*
X27640000Y12712500I0J-137500D01*
G01*
X27640000Y11387500D01*
G75*
G02*
X27502500Y11250000I-137500J0D01*
G01*
G37*
G36*
G01*
X28772500Y11250000D02*
X28497500Y11250000D01*
G75*
G02*
X28360000Y11387500I0J137500D01*
G01*
X28360000Y12712500D01*
G75*
G02*
X28497500Y12850000I137500J0D01*
G01*
X28772500Y12850000D01*
G75*
G02*
X28910000Y12712500I0J-137500D01*
G01*
X28910000Y11387500D01*
G75*
G02*
X28772500Y11250000I-137500J0D01*
G01*
G37*
G36*
G01*
X30042500Y11250000D02*
X29767500Y11250000D01*
G75*
G02*
X29630000Y11387500I0J137500D01*
G01*
X29630000Y12712500D01*
G75*
G02*
X29767500Y12850000I137500J0D01*
G01*
X30042500Y12850000D01*
G75*
G02*
X30180000Y12712500I0J-137500D01*
G01*
X30180000Y11387500D01*
G75*
G02*
X30042500Y11250000I-137500J0D01*
G01*
G37*
G36*
G01*
X31312500Y11250000D02*
X31037500Y11250000D01*
G75*
G02*
X30900000Y11387500I0J137500D01*
G01*
X30900000Y12712500D01*
G75*
G02*
X31037500Y12850000I137500J0D01*
G01*
X31312500Y12850000D01*
G75*
G02*
X31450000Y12712500I0J-137500D01*
G01*
X31450000Y11387500D01*
G75*
G02*
X31312500Y11250000I-137500J0D01*
G01*
G37*
G36*
G01*
X32582500Y11250000D02*
X32307500Y11250000D01*
G75*
G02*
X32170000Y11387500I0J137500D01*
G01*
X32170000Y12712500D01*
G75*
G02*
X32307500Y12850000I137500J0D01*
G01*
X32582500Y12850000D01*
G75*
G02*
X32720000Y12712500I0J-137500D01*
G01*
X32720000Y11387500D01*
G75*
G02*
X32582500Y11250000I-137500J0D01*
G01*
G37*
G36*
G01*
X32582500Y17750000D02*
X32307500Y17750000D01*
G75*
G02*
X32170000Y17887500I0J137500D01*
G01*
X32170000Y19212500D01*
G75*
G02*
X32307500Y19350000I137500J0D01*
G01*
X32582500Y19350000D01*
G75*
G02*
X32720000Y19212500I0J-137500D01*
G01*
X32720000Y17887500D01*
G75*
G02*
X32582500Y17750000I-137500J0D01*
G01*
G37*
G36*
G01*
X31312500Y17750000D02*
X31037500Y17750000D01*
G75*
G02*
X30900000Y17887500I0J137500D01*
G01*
X30900000Y19212500D01*
G75*
G02*
X31037500Y19350000I137500J0D01*
G01*
X31312500Y19350000D01*
G75*
G02*
X31450000Y19212500I0J-137500D01*
G01*
X31450000Y17887500D01*
G75*
G02*
X31312500Y17750000I-137500J0D01*
G01*
G37*
G36*
G01*
X30042500Y17750000D02*
X29767500Y17750000D01*
G75*
G02*
X29630000Y17887500I0J137500D01*
G01*
X29630000Y19212500D01*
G75*
G02*
X29767500Y19350000I137500J0D01*
G01*
X30042500Y19350000D01*
G75*
G02*
X30180000Y19212500I0J-137500D01*
G01*
X30180000Y17887500D01*
G75*
G02*
X30042500Y17750000I-137500J0D01*
G01*
G37*
G36*
G01*
X28772500Y17750000D02*
X28497500Y17750000D01*
G75*
G02*
X28360000Y17887500I0J137500D01*
G01*
X28360000Y19212500D01*
G75*
G02*
X28497500Y19350000I137500J0D01*
G01*
X28772500Y19350000D01*
G75*
G02*
X28910000Y19212500I0J-137500D01*
G01*
X28910000Y17887500D01*
G75*
G02*
X28772500Y17750000I-137500J0D01*
G01*
G37*
G36*
G01*
X27502500Y17750000D02*
X27227500Y17750000D01*
G75*
G02*
X27090000Y17887500I0J137500D01*
G01*
X27090000Y19212500D01*
G75*
G02*
X27227500Y19350000I137500J0D01*
G01*
X27502500Y19350000D01*
G75*
G02*
X27640000Y19212500I0J-137500D01*
G01*
X27640000Y17887500D01*
G75*
G02*
X27502500Y17750000I-137500J0D01*
G01*
G37*
G36*
G01*
X26232500Y17750000D02*
X25957500Y17750000D01*
G75*
G02*
X25820000Y17887500I0J137500D01*
G01*
X25820000Y19212500D01*
G75*
G02*
X25957500Y19350000I137500J0D01*
G01*
X26232500Y19350000D01*
G75*
G02*
X26370000Y19212500I0J-137500D01*
G01*
X26370000Y17887500D01*
G75*
G02*
X26232500Y17750000I-137500J0D01*
G01*
G37*
G36*
G01*
X24962500Y17750000D02*
X24687500Y17750000D01*
G75*
G02*
X24550000Y17887500I0J137500D01*
G01*
X24550000Y19212500D01*
G75*
G02*
X24687500Y19350000I137500J0D01*
G01*
X24962500Y19350000D01*
G75*
G02*
X25100000Y19212500I0J-137500D01*
G01*
X25100000Y17887500D01*
G75*
G02*
X24962500Y17750000I-137500J0D01*
G01*
G37*
G36*
G01*
X23692500Y17750000D02*
X23417500Y17750000D01*
G75*
G02*
X23280000Y17887500I0J137500D01*
G01*
X23280000Y19212500D01*
G75*
G02*
X23417500Y19350000I137500J0D01*
G01*
X23692500Y19350000D01*
G75*
G02*
X23830000Y19212500I0J-137500D01*
G01*
X23830000Y17887500D01*
G75*
G02*
X23692500Y17750000I-137500J0D01*
G01*
G37*
%TD*%
M02*
