%TF.GenerationSoftware,KiCad,Pcbnew,(5.1.6)-1*%
%TF.CreationDate,2025-03-19T07:01:31-05:00*%
%TF.ProjectId,row_board_pcbway,726f775f-626f-4617-9264-5f7063627761,rev?*%
%TF.SameCoordinates,PX311d3e0PY5f5e100*%
%TF.FileFunction,Legend,Top*%
%TF.FilePolarity,Positive*%
%FSLAX46Y46*%
G04 Gerber Fmt 4.6, Leading zero omitted, Abs format (unit mm)*
G04 Created by KiCad (PCBNEW (5.1.6)-1) date 2025-03-19 07:01:31*
%MOMM*%
%LPD*%
G01*
G04 APERTURE LIST*
%ADD10C,0.200000*%
%ADD11C,0.150000*%
%ADD12C,0.120000*%
G04 APERTURE END LIST*
D10*
X110928571Y21821429D02*
X110928571Y20607143D01*
X110857142Y20464286D01*
X110785714Y20392858D01*
X110642857Y20321429D01*
X110428571Y20321429D01*
X110285714Y20392858D01*
X110928571Y20892858D02*
X110785714Y20821429D01*
X110500000Y20821429D01*
X110357142Y20892858D01*
X110285714Y20964286D01*
X110214285Y21107143D01*
X110214285Y21535715D01*
X110285714Y21678572D01*
X110357142Y21750000D01*
X110500000Y21821429D01*
X110785714Y21821429D01*
X110928571Y21750000D01*
X111642857Y20821429D02*
X111642857Y21821429D01*
X111642857Y22321429D02*
X111571428Y22250000D01*
X111642857Y22178572D01*
X111714285Y22250000D01*
X111642857Y22321429D01*
X111642857Y22178572D01*
X112142857Y21821429D02*
X112714285Y21821429D01*
X112357142Y22321429D02*
X112357142Y21035715D01*
X112428571Y20892858D01*
X112571428Y20821429D01*
X112714285Y20821429D01*
X113214285Y20821429D02*
X113214285Y22321429D01*
X113214285Y21607143D02*
X114071428Y21607143D01*
X114071428Y20821429D02*
X114071428Y22321429D01*
X115428571Y21821429D02*
X115428571Y20821429D01*
X114785714Y21821429D02*
X114785714Y21035715D01*
X114857142Y20892858D01*
X115000000Y20821429D01*
X115214285Y20821429D01*
X115357142Y20892858D01*
X115428571Y20964286D01*
X116142857Y20821429D02*
X116142857Y22321429D01*
X116142857Y21750000D02*
X116285714Y21821429D01*
X116571428Y21821429D01*
X116714285Y21750000D01*
X116785714Y21678572D01*
X116857142Y21535715D01*
X116857142Y21107143D01*
X116785714Y20964286D01*
X116714285Y20892858D01*
X116571428Y20821429D01*
X116285714Y20821429D01*
X116142857Y20892858D01*
X117500000Y20964286D02*
X117571428Y20892858D01*
X117500000Y20821429D01*
X117428571Y20892858D01*
X117500000Y20964286D01*
X117500000Y20821429D01*
X118857142Y20892858D02*
X118714285Y20821429D01*
X118428571Y20821429D01*
X118285714Y20892858D01*
X118214285Y20964286D01*
X118142857Y21107143D01*
X118142857Y21535715D01*
X118214285Y21678572D01*
X118285714Y21750000D01*
X118428571Y21821429D01*
X118714285Y21821429D01*
X118857142Y21750000D01*
X119714285Y20821429D02*
X119571428Y20892858D01*
X119500000Y20964286D01*
X119428571Y21107143D01*
X119428571Y21535715D01*
X119500000Y21678572D01*
X119571428Y21750000D01*
X119714285Y21821429D01*
X119928571Y21821429D01*
X120071428Y21750000D01*
X120142857Y21678572D01*
X120214285Y21535715D01*
X120214285Y21107143D01*
X120142857Y20964286D01*
X120071428Y20892858D01*
X119928571Y20821429D01*
X119714285Y20821429D01*
X120857142Y20821429D02*
X120857142Y21821429D01*
X120857142Y21678572D02*
X120928571Y21750000D01*
X121071428Y21821429D01*
X121285714Y21821429D01*
X121428571Y21750000D01*
X121500000Y21607143D01*
X121500000Y20821429D01*
X121500000Y21607143D02*
X121571428Y21750000D01*
X121714285Y21821429D01*
X121928571Y21821429D01*
X122071428Y21750000D01*
X122142857Y21607143D01*
X122142857Y20821429D01*
X123928571Y22392858D02*
X122642857Y20464286D01*
X124428571Y21821429D02*
X124428571Y20321429D01*
X124428571Y21750000D02*
X124571428Y21821429D01*
X124857142Y21821429D01*
X125000000Y21750000D01*
X125071428Y21678572D01*
X125142857Y21535715D01*
X125142857Y21107143D01*
X125071428Y20964286D01*
X125000000Y20892858D01*
X124857142Y20821429D01*
X124571428Y20821429D01*
X124428571Y20892858D01*
X125785714Y20821429D02*
X125785714Y22321429D01*
X126428571Y20821429D02*
X126428571Y21607143D01*
X126357142Y21750000D01*
X126214285Y21821429D01*
X126000000Y21821429D01*
X125857142Y21750000D01*
X125785714Y21678572D01*
X127357142Y20821429D02*
X127214285Y20892858D01*
X127142857Y20964286D01*
X127071428Y21107143D01*
X127071428Y21535715D01*
X127142857Y21678572D01*
X127214285Y21750000D01*
X127357142Y21821429D01*
X127571428Y21821429D01*
X127714285Y21750000D01*
X127785714Y21678572D01*
X127857142Y21535715D01*
X127857142Y21107143D01*
X127785714Y20964286D01*
X127714285Y20892858D01*
X127571428Y20821429D01*
X127357142Y20821429D01*
X128500000Y20821429D02*
X128500000Y21821429D01*
X128500000Y21535715D02*
X128571428Y21678572D01*
X128642857Y21750000D01*
X128785714Y21821429D01*
X128928571Y21821429D01*
X129214285Y21821429D02*
X129785714Y21821429D01*
X129428571Y22321429D02*
X129428571Y21035715D01*
X129500000Y20892858D01*
X129642857Y20821429D01*
X129785714Y20821429D01*
X130500000Y20821429D02*
X130357142Y20892858D01*
X130285714Y20964286D01*
X130214285Y21107143D01*
X130214285Y21535715D01*
X130285714Y21678572D01*
X130357142Y21750000D01*
X130500000Y21821429D01*
X130714285Y21821429D01*
X130857142Y21750000D01*
X130928571Y21678572D01*
X131000000Y21535715D01*
X131000000Y21107143D01*
X130928571Y20964286D01*
X130857142Y20892858D01*
X130714285Y20821429D01*
X130500000Y20821429D01*
X131642857Y21821429D02*
X131642857Y20821429D01*
X131642857Y21678572D02*
X131714285Y21750000D01*
X131857142Y21821429D01*
X132071428Y21821429D01*
X132214285Y21750000D01*
X132285714Y21607143D01*
X132285714Y20821429D01*
X133785714Y20821429D02*
X132928571Y20821429D01*
X133357142Y20821429D02*
X133357142Y22321429D01*
X133214285Y22107143D01*
X133071428Y21964286D01*
X132928571Y21892858D01*
D11*
X68761904Y20714286D02*
X69000000Y20047620D01*
X69238095Y20714286D01*
X70142857Y20047620D02*
X69571428Y20047620D01*
X69857142Y20047620D02*
X69857142Y21047620D01*
X69761904Y20904762D01*
X69666666Y20809524D01*
X69571428Y20761905D01*
X70571428Y20142858D02*
X70619047Y20095239D01*
X70571428Y20047620D01*
X70523809Y20095239D01*
X70571428Y20142858D01*
X70571428Y20047620D01*
X71238095Y21047620D02*
X71333333Y21047620D01*
X71428571Y21000000D01*
X71476190Y20952381D01*
X71523809Y20857143D01*
X71571428Y20666667D01*
X71571428Y20428572D01*
X71523809Y20238096D01*
X71476190Y20142858D01*
X71428571Y20095239D01*
X71333333Y20047620D01*
X71238095Y20047620D01*
X71142857Y20095239D01*
X71095238Y20142858D01*
X71047619Y20238096D01*
X71000000Y20428572D01*
X71000000Y20666667D01*
X71047619Y20857143D01*
X71095238Y20952381D01*
X71142857Y21000000D01*
X71238095Y21047620D01*
X73476190Y20952381D02*
X73523809Y21000000D01*
X73619047Y21047620D01*
X73857142Y21047620D01*
X73952380Y21000000D01*
X74000000Y20952381D01*
X74047619Y20857143D01*
X74047619Y20761905D01*
X74000000Y20619048D01*
X73428571Y20047620D01*
X74047619Y20047620D01*
X74666666Y21047620D02*
X74761904Y21047620D01*
X74857142Y21000000D01*
X74904761Y20952381D01*
X74952380Y20857143D01*
X75000000Y20666667D01*
X75000000Y20428572D01*
X74952380Y20238096D01*
X74904761Y20142858D01*
X74857142Y20095239D01*
X74761904Y20047620D01*
X74666666Y20047620D01*
X74571428Y20095239D01*
X74523809Y20142858D01*
X74476190Y20238096D01*
X74428571Y20428572D01*
X74428571Y20666667D01*
X74476190Y20857143D01*
X74523809Y20952381D01*
X74571428Y21000000D01*
X74666666Y21047620D01*
X75380952Y20952381D02*
X75428571Y21000000D01*
X75523809Y21047620D01*
X75761904Y21047620D01*
X75857142Y21000000D01*
X75904761Y20952381D01*
X75952380Y20857143D01*
X75952380Y20761905D01*
X75904761Y20619048D01*
X75333333Y20047620D01*
X75952380Y20047620D01*
X76857142Y21047620D02*
X76380952Y21047620D01*
X76333333Y20571429D01*
X76380952Y20619048D01*
X76476190Y20666667D01*
X76714285Y20666667D01*
X76809523Y20619048D01*
X76857142Y20571429D01*
X76904761Y20476191D01*
X76904761Y20238096D01*
X76857142Y20142858D01*
X76809523Y20095239D01*
X76714285Y20047620D01*
X76476190Y20047620D01*
X76380952Y20095239D01*
X76333333Y20142858D01*
X77333333Y20428572D02*
X78095238Y20428572D01*
X78761904Y21047620D02*
X78857142Y21047620D01*
X78952380Y21000000D01*
X79000000Y20952381D01*
X79047619Y20857143D01*
X79095238Y20666667D01*
X79095238Y20428572D01*
X79047619Y20238096D01*
X79000000Y20142858D01*
X78952380Y20095239D01*
X78857142Y20047620D01*
X78761904Y20047620D01*
X78666666Y20095239D01*
X78619047Y20142858D01*
X78571428Y20238096D01*
X78523809Y20428572D01*
X78523809Y20666667D01*
X78571428Y20857143D01*
X78619047Y20952381D01*
X78666666Y21000000D01*
X78761904Y21047620D01*
X79428571Y21047620D02*
X80047619Y21047620D01*
X79714285Y20666667D01*
X79857142Y20666667D01*
X79952380Y20619048D01*
X80000000Y20571429D01*
X80047619Y20476191D01*
X80047619Y20238096D01*
X80000000Y20142858D01*
X79952380Y20095239D01*
X79857142Y20047620D01*
X79571428Y20047620D01*
X79476190Y20095239D01*
X79428571Y20142858D01*
X80476190Y20428572D02*
X81238095Y20428572D01*
X82238095Y20047620D02*
X81666666Y20047620D01*
X81952380Y20047620D02*
X81952380Y21047620D01*
X81857142Y20904762D01*
X81761904Y20809524D01*
X81666666Y20761905D01*
X82809523Y20619048D02*
X82714285Y20666667D01*
X82666666Y20714286D01*
X82619047Y20809524D01*
X82619047Y20857143D01*
X82666666Y20952381D01*
X82714285Y21000000D01*
X82809523Y21047620D01*
X83000000Y21047620D01*
X83095238Y21000000D01*
X83142857Y20952381D01*
X83190476Y20857143D01*
X83190476Y20809524D01*
X83142857Y20714286D01*
X83095238Y20666667D01*
X83000000Y20619048D01*
X82809523Y20619048D01*
X82714285Y20571429D01*
X82666666Y20523810D01*
X82619047Y20428572D01*
X82619047Y20238096D01*
X82666666Y20142858D01*
X82714285Y20095239D01*
X82809523Y20047620D01*
X83000000Y20047620D01*
X83095238Y20095239D01*
X83142857Y20142858D01*
X83190476Y20238096D01*
X83190476Y20428572D01*
X83142857Y20523810D01*
X83095238Y20571429D01*
X83000000Y20619048D01*
X153640595Y21872620D02*
X153640595Y22539286D01*
X153640595Y22444048D02*
X153688214Y22491667D01*
X153783452Y22539286D01*
X153926309Y22539286D01*
X154021547Y22491667D01*
X154069166Y22396429D01*
X154069166Y21872620D01*
X154069166Y22396429D02*
X154116785Y22491667D01*
X154212023Y22539286D01*
X154354880Y22539286D01*
X154450119Y22491667D01*
X154497738Y22396429D01*
X154497738Y21872620D01*
X155402500Y21872620D02*
X155402500Y22396429D01*
X155354880Y22491667D01*
X155259642Y22539286D01*
X155069166Y22539286D01*
X154973928Y22491667D01*
X155402500Y21920239D02*
X155307261Y21872620D01*
X155069166Y21872620D01*
X154973928Y21920239D01*
X154926309Y22015477D01*
X154926309Y22110715D01*
X154973928Y22205953D01*
X155069166Y22253572D01*
X155307261Y22253572D01*
X155402500Y22301191D01*
X156307261Y21872620D02*
X156307261Y22872620D01*
X156307261Y21920239D02*
X156212023Y21872620D01*
X156021547Y21872620D01*
X155926309Y21920239D01*
X155878690Y21967858D01*
X155831071Y22063096D01*
X155831071Y22348810D01*
X155878690Y22444048D01*
X155926309Y22491667D01*
X156021547Y22539286D01*
X156212023Y22539286D01*
X156307261Y22491667D01*
X157164404Y21920239D02*
X157069166Y21872620D01*
X156878690Y21872620D01*
X156783452Y21920239D01*
X156735833Y22015477D01*
X156735833Y22396429D01*
X156783452Y22491667D01*
X156878690Y22539286D01*
X157069166Y22539286D01*
X157164404Y22491667D01*
X157212023Y22396429D01*
X157212023Y22301191D01*
X156735833Y22205953D01*
X155973928Y20222620D02*
X155973928Y21222620D01*
X155973928Y20841667D02*
X156069166Y20889286D01*
X156259642Y20889286D01*
X156354880Y20841667D01*
X156402500Y20794048D01*
X156450119Y20698810D01*
X156450119Y20413096D01*
X156402500Y20317858D01*
X156354880Y20270239D01*
X156259642Y20222620D01*
X156069166Y20222620D01*
X155973928Y20270239D01*
X156783452Y20889286D02*
X157021547Y20222620D01*
X157259642Y20889286D02*
X157021547Y20222620D01*
X156926309Y19984524D01*
X156878690Y19936905D01*
X156783452Y19889286D01*
D10*
X159321428Y20821429D02*
X159321428Y22321429D01*
X159892857Y22321429D01*
X160035714Y22250000D01*
X160107142Y22178572D01*
X160178571Y22035715D01*
X160178571Y21821429D01*
X160107142Y21678572D01*
X160035714Y21607143D01*
X159892857Y21535715D01*
X159321428Y21535715D01*
X161678571Y20964286D02*
X161607142Y20892858D01*
X161392857Y20821429D01*
X161250000Y20821429D01*
X161035714Y20892858D01*
X160892857Y21035715D01*
X160821428Y21178572D01*
X160750000Y21464286D01*
X160750000Y21678572D01*
X160821428Y21964286D01*
X160892857Y22107143D01*
X161035714Y22250000D01*
X161250000Y22321429D01*
X161392857Y22321429D01*
X161607142Y22250000D01*
X161678571Y22178572D01*
X162821428Y21607143D02*
X163035714Y21535715D01*
X163107142Y21464286D01*
X163178571Y21321429D01*
X163178571Y21107143D01*
X163107142Y20964286D01*
X163035714Y20892858D01*
X162892857Y20821429D01*
X162321428Y20821429D01*
X162321428Y22321429D01*
X162821428Y22321429D01*
X162964285Y22250000D01*
X163035714Y22178572D01*
X163107142Y22035715D01*
X163107142Y21892858D01*
X163035714Y21750000D01*
X162964285Y21678572D01*
X162821428Y21607143D01*
X162321428Y21607143D01*
X163678571Y22321429D02*
X164035714Y20821429D01*
X164321428Y21892858D01*
X164607142Y20821429D01*
X164964285Y22321429D01*
X166178571Y20821429D02*
X166178571Y21607143D01*
X166107142Y21750000D01*
X165964285Y21821429D01*
X165678571Y21821429D01*
X165535714Y21750000D01*
X166178571Y20892858D02*
X166035714Y20821429D01*
X165678571Y20821429D01*
X165535714Y20892858D01*
X165464285Y21035715D01*
X165464285Y21178572D01*
X165535714Y21321429D01*
X165678571Y21392858D01*
X166035714Y21392858D01*
X166178571Y21464286D01*
X166750000Y21821429D02*
X167107142Y20821429D01*
X167464285Y21821429D02*
X167107142Y20821429D01*
X166964285Y20464286D01*
X166892857Y20392858D01*
X166750000Y20321429D01*
X168035714Y20964286D02*
X168107142Y20892858D01*
X168035714Y20821429D01*
X167964285Y20892858D01*
X168035714Y20964286D01*
X168035714Y20821429D01*
X169392857Y20892858D02*
X169250000Y20821429D01*
X168964285Y20821429D01*
X168821428Y20892858D01*
X168750000Y20964286D01*
X168678571Y21107143D01*
X168678571Y21535715D01*
X168750000Y21678572D01*
X168821428Y21750000D01*
X168964285Y21821429D01*
X169250000Y21821429D01*
X169392857Y21750000D01*
X170250000Y20821429D02*
X170107142Y20892858D01*
X170035714Y20964286D01*
X169964285Y21107143D01*
X169964285Y21535715D01*
X170035714Y21678572D01*
X170107142Y21750000D01*
X170250000Y21821429D01*
X170464285Y21821429D01*
X170607142Y21750000D01*
X170678571Y21678572D01*
X170750000Y21535715D01*
X170750000Y21107143D01*
X170678571Y20964286D01*
X170607142Y20892858D01*
X170464285Y20821429D01*
X170250000Y20821429D01*
X171392857Y20821429D02*
X171392857Y21821429D01*
X171392857Y21678572D02*
X171464285Y21750000D01*
X171607142Y21821429D01*
X171821428Y21821429D01*
X171964285Y21750000D01*
X172035714Y21607143D01*
X172035714Y20821429D01*
X172035714Y21607143D02*
X172107142Y21750000D01*
X172250000Y21821429D01*
X172464285Y21821429D01*
X172607142Y21750000D01*
X172678571Y21607143D01*
X172678571Y20821429D01*
X65320059Y23595239D02*
X66462916Y23595239D01*
X65641488Y21595239D02*
X65891488Y23595239D01*
X67010535Y22642858D02*
X67677202Y22642858D01*
X67831964Y21595239D02*
X66879583Y21595239D01*
X67129583Y23595239D01*
X68081964Y23595239D01*
X68748630Y23595239D02*
X69986726Y23595239D01*
X69224821Y22833334D01*
X69510535Y22833334D01*
X69689107Y22738096D01*
X69772440Y22642858D01*
X69843869Y22452381D01*
X69784345Y21976191D01*
X69665297Y21785715D01*
X69558154Y21690477D01*
X69355773Y21595239D01*
X68784345Y21595239D01*
X68605773Y21690477D01*
X68522440Y21785715D01*
X73260535Y21595239D02*
X72712916Y22547620D01*
X72117678Y21595239D02*
X72367678Y23595239D01*
X73129583Y23595239D01*
X73308154Y23500000D01*
X73391488Y23404762D01*
X73462916Y23214286D01*
X73427202Y22928572D01*
X73308154Y22738096D01*
X73201011Y22642858D01*
X72998630Y22547620D01*
X72236726Y22547620D01*
X74403392Y21595239D02*
X74224821Y21690477D01*
X74141488Y21785715D01*
X74070059Y21976191D01*
X74141488Y22547620D01*
X74260535Y22738096D01*
X74367678Y22833334D01*
X74570059Y22928572D01*
X74855773Y22928572D01*
X75034345Y22833334D01*
X75117678Y22738096D01*
X75189107Y22547620D01*
X75117678Y21976191D01*
X74998630Y21785715D01*
X74891488Y21690477D01*
X74689107Y21595239D01*
X74403392Y21595239D01*
X75903392Y22928572D02*
X76117678Y21595239D01*
X76617678Y22547620D01*
X76879583Y21595239D01*
X77427202Y22928572D01*
X80343869Y22642858D02*
X80617678Y22547620D01*
X80701011Y22452381D01*
X80772440Y22261905D01*
X80736726Y21976191D01*
X80617678Y21785715D01*
X80510535Y21690477D01*
X80308154Y21595239D01*
X79546250Y21595239D01*
X79796250Y23595239D01*
X80462916Y23595239D01*
X80641488Y23500000D01*
X80724821Y23404762D01*
X80796250Y23214286D01*
X80772440Y23023810D01*
X80653392Y22833334D01*
X80546250Y22738096D01*
X80343869Y22642858D01*
X79677202Y22642858D01*
X81831964Y21595239D02*
X81653392Y21690477D01*
X81570059Y21785715D01*
X81498630Y21976191D01*
X81570059Y22547620D01*
X81689107Y22738096D01*
X81796250Y22833334D01*
X81998630Y22928572D01*
X82284345Y22928572D01*
X82462916Y22833334D01*
X82546250Y22738096D01*
X82617678Y22547620D01*
X82546250Y21976191D01*
X82427202Y21785715D01*
X82320059Y21690477D01*
X82117678Y21595239D01*
X81831964Y21595239D01*
X84212916Y21595239D02*
X84343869Y22642858D01*
X84272440Y22833334D01*
X84093869Y22928572D01*
X83712916Y22928572D01*
X83510535Y22833334D01*
X84224821Y21690477D02*
X84022440Y21595239D01*
X83546250Y21595239D01*
X83367678Y21690477D01*
X83296250Y21880953D01*
X83320059Y22071429D01*
X83439107Y22261905D01*
X83641488Y22357143D01*
X84117678Y22357143D01*
X84320059Y22452381D01*
X85165297Y21595239D02*
X85331964Y22928572D01*
X85284345Y22547620D02*
X85403392Y22738096D01*
X85510535Y22833334D01*
X85712916Y22928572D01*
X85903392Y22928572D01*
X87260535Y21595239D02*
X87510535Y23595239D01*
X87272440Y21690477D02*
X87070059Y21595239D01*
X86689107Y21595239D01*
X86510535Y21690477D01*
X86427202Y21785715D01*
X86355773Y21976191D01*
X86427202Y22547620D01*
X86546250Y22738096D01*
X86653392Y22833334D01*
X86855773Y22928572D01*
X87236726Y22928572D01*
X87415297Y22833334D01*
D12*
X24283095Y14100000D02*
G75*
G03*
X24283095Y14100000I-583095J0D01*
G01*
%TO.C,J1*%
X36470000Y20730000D02*
X36470000Y22000000D01*
X21230000Y20730000D02*
X36470000Y20730000D01*
X21230000Y22000000D02*
X21230000Y20730000D01*
X20000000Y22000000D02*
X37500000Y22000000D01*
X35500000Y24500000D02*
X35500000Y29500000D01*
X34500000Y24500000D02*
X35500000Y24500000D01*
X34500000Y29500000D02*
X34500000Y24500000D01*
X23000000Y24500000D02*
X23000000Y29500000D01*
X22000000Y24500000D02*
X23000000Y24500000D01*
X22000000Y29500000D02*
X22000000Y24500000D01*
X37500000Y29500000D02*
X37500000Y22000000D01*
X20000000Y29500000D02*
X37500000Y29500000D01*
X20000000Y22000000D02*
X20000000Y29500000D01*
D11*
%TO.C,REF\u002A\u002A*%
X4500000Y14000000D02*
G75*
G03*
X4500000Y14000000I-1500000J0D01*
G01*
X169200000Y12000000D02*
G75*
G03*
X169200000Y12000000I-3200000J0D01*
G01*
X124200000Y12000000D02*
G75*
G03*
X124200000Y12000000I-3200000J0D01*
G01*
X79200000Y12000000D02*
G75*
G03*
X79200000Y12000000I-3200000J0D01*
G01*
D12*
%TO.C,C6*%
X20440000Y16342064D02*
X20440000Y15137936D01*
X22260000Y16342064D02*
X22260000Y15137936D01*
%TO.C,D1*%
X4850000Y22250000D02*
X4850000Y21100000D01*
X12150000Y22250000D02*
X4850000Y22250000D01*
X12150000Y16750000D02*
X4850000Y16750000D01*
%TO.C,D2*%
X57150000Y16750000D02*
X49850000Y16750000D01*
X57150000Y22250000D02*
X49850000Y22250000D01*
X49850000Y22250000D02*
X49850000Y21100000D01*
%TO.C,D3*%
X94850000Y22250000D02*
X94850000Y21100000D01*
X102150000Y22250000D02*
X94850000Y22250000D01*
X102150000Y16750000D02*
X94850000Y16750000D01*
%TO.C,D4*%
X147150000Y16750000D02*
X139850000Y16750000D01*
X147150000Y22250000D02*
X139850000Y22250000D01*
X139850000Y22250000D02*
X139850000Y21100000D01*
%TO.C,D5*%
X184850000Y22250000D02*
X184850000Y21100000D01*
X192150000Y22250000D02*
X184850000Y22250000D01*
X192150000Y16750000D02*
X184850000Y16750000D01*
%TO.C,C1*%
X9102064Y14090000D02*
X7897936Y14090000D01*
X9102064Y15910000D02*
X7897936Y15910000D01*
%TO.C,C2*%
X60635436Y17120000D02*
X61839564Y17120000D01*
X60635436Y18940000D02*
X61839564Y18940000D01*
%TO.C,C3*%
X99102064Y15910000D02*
X97897936Y15910000D01*
X99102064Y14090000D02*
X97897936Y14090000D01*
%TO.C,C4*%
X144102064Y15910000D02*
X142897936Y15910000D01*
X144102064Y14090000D02*
X142897936Y14090000D01*
%TO.C,C5*%
X189102064Y14090000D02*
X187897936Y14090000D01*
X189102064Y15910000D02*
X187897936Y15910000D01*
%TO.C,SW1*%
X11040000Y6200000D02*
G75*
G03*
X11040000Y6200000I-2540000J0D01*
G01*
X12310000Y2390000D02*
X12310000Y10010000D01*
X4690000Y2390000D02*
X12310000Y2390000D01*
X4690000Y10010000D02*
X4690000Y2390000D01*
X12310000Y10010000D02*
X4690000Y10010000D01*
%TO.C,SW2*%
X57310000Y10010000D02*
X49690000Y10010000D01*
X49690000Y10010000D02*
X49690000Y2390000D01*
X49690000Y2390000D02*
X57310000Y2390000D01*
X57310000Y2390000D02*
X57310000Y10010000D01*
X56040000Y6200000D02*
G75*
G03*
X56040000Y6200000I-2540000J0D01*
G01*
%TO.C,SW3*%
X101040000Y6200000D02*
G75*
G03*
X101040000Y6200000I-2540000J0D01*
G01*
X102310000Y2390000D02*
X102310000Y10010000D01*
X94690000Y2390000D02*
X102310000Y2390000D01*
X94690000Y10010000D02*
X94690000Y2390000D01*
X102310000Y10010000D02*
X94690000Y10010000D01*
%TO.C,SW4*%
X147310000Y10010000D02*
X139690000Y10010000D01*
X139690000Y10010000D02*
X139690000Y2390000D01*
X139690000Y2390000D02*
X147310000Y2390000D01*
X147310000Y2390000D02*
X147310000Y10010000D01*
X146040000Y6200000D02*
G75*
G03*
X146040000Y6200000I-2540000J0D01*
G01*
%TO.C,U1*%
X33260000Y15300000D02*
X33260000Y17685000D01*
X33260000Y17685000D02*
X32980000Y17685000D01*
X33260000Y15300000D02*
X33260000Y12915000D01*
X33260000Y12915000D02*
X32980000Y12915000D01*
X22740000Y15300000D02*
X22740000Y17685000D01*
X22740000Y17685000D02*
X23020000Y17685000D01*
X22740000Y15300000D02*
X22740000Y12915000D01*
X22740000Y12915000D02*
X23020000Y12915000D01*
X23020000Y12915000D02*
X23020000Y11250000D01*
%TO.C,SW5*%
X192310000Y10010000D02*
X184690000Y10010000D01*
X184690000Y10010000D02*
X184690000Y2390000D01*
X184690000Y2390000D02*
X192310000Y2390000D01*
X192310000Y2390000D02*
X192310000Y10010000D01*
X191040000Y6200000D02*
G75*
G03*
X191040000Y6200000I-2540000J0D01*
G01*
%TO.C,J2*%
X36120000Y1630000D02*
X36120000Y4170000D01*
X36120000Y4170000D02*
X20880000Y4170000D01*
X20880000Y4170000D02*
X20880000Y1630000D01*
X20880000Y1630000D02*
X36120000Y1630000D01*
X36120000Y1630000D02*
X33580000Y1630000D01*
X33580000Y1630000D02*
X33580000Y4170000D01*
%TO.C,J1*%
D11*
X28416666Y26097620D02*
X28416666Y25383334D01*
X28369047Y25240477D01*
X28273809Y25145239D01*
X28130952Y25097620D01*
X28035714Y25097620D01*
X29416666Y25097620D02*
X28845238Y25097620D01*
X29130952Y25097620D02*
X29130952Y26097620D01*
X29035714Y25954762D01*
X28940476Y25859524D01*
X28845238Y25811905D01*
%TO.C,C6*%
X19607142Y13660834D02*
X19654761Y13613215D01*
X19702380Y13470358D01*
X19702380Y13375120D01*
X19654761Y13232262D01*
X19559523Y13137024D01*
X19464285Y13089405D01*
X19273809Y13041786D01*
X19130952Y13041786D01*
X18940476Y13089405D01*
X18845238Y13137024D01*
X18750000Y13232262D01*
X18702380Y13375120D01*
X18702380Y13470358D01*
X18750000Y13613215D01*
X18797619Y13660834D01*
X18702380Y14517977D02*
X18702380Y14327500D01*
X18750000Y14232262D01*
X18797619Y14184643D01*
X18940476Y14089405D01*
X19130952Y14041786D01*
X19511904Y14041786D01*
X19607142Y14089405D01*
X19654761Y14137024D01*
X19702380Y14232262D01*
X19702380Y14422739D01*
X19654761Y14517977D01*
X19607142Y14565596D01*
X19511904Y14613215D01*
X19273809Y14613215D01*
X19178571Y14565596D01*
X19130952Y14517977D01*
X19083333Y14422739D01*
X19083333Y14232262D01*
X19130952Y14137024D01*
X19178571Y14089405D01*
X19273809Y14041786D01*
%TO.C,D1*%
X7761904Y19047620D02*
X7761904Y20047620D01*
X8000000Y20047620D01*
X8142857Y20000000D01*
X8238095Y19904762D01*
X8285714Y19809524D01*
X8333333Y19619048D01*
X8333333Y19476191D01*
X8285714Y19285715D01*
X8238095Y19190477D01*
X8142857Y19095239D01*
X8000000Y19047620D01*
X7761904Y19047620D01*
X9285714Y19047620D02*
X8714285Y19047620D01*
X9000000Y19047620D02*
X9000000Y20047620D01*
X8904761Y19904762D01*
X8809523Y19809524D01*
X8714285Y19761905D01*
X14024523Y18447620D02*
X13548333Y18447620D01*
X13500714Y17971429D01*
X13548333Y18019048D01*
X13643571Y18066667D01*
X13881666Y18066667D01*
X13976904Y18019048D01*
X14024523Y17971429D01*
X14072142Y17876191D01*
X14072142Y17638096D01*
X14024523Y17542858D01*
X13976904Y17495239D01*
X13881666Y17447620D01*
X13643571Y17447620D01*
X13548333Y17495239D01*
X13500714Y17542858D01*
X14357857Y18447620D02*
X14691190Y17447620D01*
X15024523Y18447620D01*
X1769095Y21651000D02*
X1673857Y21698620D01*
X1531000Y21698620D01*
X1388142Y21651000D01*
X1292904Y21555762D01*
X1245285Y21460524D01*
X1197666Y21270048D01*
X1197666Y21127191D01*
X1245285Y20936715D01*
X1292904Y20841477D01*
X1388142Y20746239D01*
X1531000Y20698620D01*
X1626238Y20698620D01*
X1769095Y20746239D01*
X1816714Y20793858D01*
X1816714Y21127191D01*
X1626238Y21127191D01*
X2245285Y20698620D02*
X2245285Y21698620D01*
X2816714Y20698620D01*
X2816714Y21698620D01*
X3292904Y20698620D02*
X3292904Y21698620D01*
X3531000Y21698620D01*
X3673857Y21651000D01*
X3769095Y21555762D01*
X3816714Y21460524D01*
X3864333Y21270048D01*
X3864333Y21127191D01*
X3816714Y20936715D01*
X3769095Y20841477D01*
X3673857Y20746239D01*
X3531000Y20698620D01*
X3292904Y20698620D01*
X1634190Y17396620D02*
X1634190Y18396620D01*
X1872285Y18396620D01*
X2015142Y18349000D01*
X2110380Y18253762D01*
X2158000Y18158524D01*
X2205619Y17968048D01*
X2205619Y17825191D01*
X2158000Y17634715D01*
X2110380Y17539477D01*
X2015142Y17444239D01*
X1872285Y17396620D01*
X1634190Y17396620D01*
X2634190Y17396620D02*
X2634190Y18396620D01*
X3110380Y17396620D02*
X3110380Y18396620D01*
X3681809Y17396620D01*
X3681809Y18396620D01*
X13286523Y20698620D02*
X13286523Y21698620D01*
X13524619Y21698620D01*
X13667476Y21651000D01*
X13762714Y21555762D01*
X13810333Y21460524D01*
X13857952Y21270048D01*
X13857952Y21127191D01*
X13810333Y20936715D01*
X13762714Y20841477D01*
X13667476Y20746239D01*
X13524619Y20698620D01*
X13286523Y20698620D01*
X14477000Y21698620D02*
X14667476Y21698620D01*
X14762714Y21651000D01*
X14857952Y21555762D01*
X14905571Y21365286D01*
X14905571Y21031953D01*
X14857952Y20841477D01*
X14762714Y20746239D01*
X14667476Y20698620D01*
X14477000Y20698620D01*
X14381761Y20746239D01*
X14286523Y20841477D01*
X14238904Y21031953D01*
X14238904Y21365286D01*
X14286523Y21555762D01*
X14381761Y21651000D01*
X14477000Y21698620D01*
X15334142Y21698620D02*
X15334142Y20889096D01*
X15381761Y20793858D01*
X15429380Y20746239D01*
X15524619Y20698620D01*
X15715095Y20698620D01*
X15810333Y20746239D01*
X15857952Y20793858D01*
X15905571Y20889096D01*
X15905571Y21698620D01*
X16238904Y21698620D02*
X16810333Y21698620D01*
X16524619Y20698620D02*
X16524619Y21698620D01*
%TO.C,D2*%
X52761904Y19047620D02*
X52761904Y20047620D01*
X53000000Y20047620D01*
X53142857Y20000000D01*
X53238095Y19904762D01*
X53285714Y19809524D01*
X53333333Y19619048D01*
X53333333Y19476191D01*
X53285714Y19285715D01*
X53238095Y19190477D01*
X53142857Y19095239D01*
X53000000Y19047620D01*
X52761904Y19047620D01*
X53714285Y19952381D02*
X53761904Y20000000D01*
X53857142Y20047620D01*
X54095238Y20047620D01*
X54190476Y20000000D01*
X54238095Y19952381D01*
X54285714Y19857143D01*
X54285714Y19761905D01*
X54238095Y19619048D01*
X53666666Y19047620D01*
X54285714Y19047620D01*
X58286523Y20698620D02*
X58286523Y21698620D01*
X58524619Y21698620D01*
X58667476Y21651000D01*
X58762714Y21555762D01*
X58810333Y21460524D01*
X58857952Y21270048D01*
X58857952Y21127191D01*
X58810333Y20936715D01*
X58762714Y20841477D01*
X58667476Y20746239D01*
X58524619Y20698620D01*
X58286523Y20698620D01*
X59477000Y21698620D02*
X59667476Y21698620D01*
X59762714Y21651000D01*
X59857952Y21555762D01*
X59905571Y21365286D01*
X59905571Y21031953D01*
X59857952Y20841477D01*
X59762714Y20746239D01*
X59667476Y20698620D01*
X59477000Y20698620D01*
X59381761Y20746239D01*
X59286523Y20841477D01*
X59238904Y21031953D01*
X59238904Y21365286D01*
X59286523Y21555762D01*
X59381761Y21651000D01*
X59477000Y21698620D01*
X60334142Y21698620D02*
X60334142Y20889096D01*
X60381761Y20793858D01*
X60429380Y20746239D01*
X60524619Y20698620D01*
X60715095Y20698620D01*
X60810333Y20746239D01*
X60857952Y20793858D01*
X60905571Y20889096D01*
X60905571Y21698620D01*
X61238904Y21698620D02*
X61810333Y21698620D01*
X61524619Y20698620D02*
X61524619Y21698620D01*
X46634190Y17396620D02*
X46634190Y18396620D01*
X46872285Y18396620D01*
X47015142Y18349000D01*
X47110380Y18253762D01*
X47158000Y18158524D01*
X47205619Y17968048D01*
X47205619Y17825191D01*
X47158000Y17634715D01*
X47110380Y17539477D01*
X47015142Y17444239D01*
X46872285Y17396620D01*
X46634190Y17396620D01*
X47634190Y17396620D02*
X47634190Y18396620D01*
X48110380Y17396620D02*
X48110380Y18396620D01*
X48681809Y17396620D01*
X48681809Y18396620D01*
X46769095Y21651000D02*
X46673857Y21698620D01*
X46531000Y21698620D01*
X46388142Y21651000D01*
X46292904Y21555762D01*
X46245285Y21460524D01*
X46197666Y21270048D01*
X46197666Y21127191D01*
X46245285Y20936715D01*
X46292904Y20841477D01*
X46388142Y20746239D01*
X46531000Y20698620D01*
X46626238Y20698620D01*
X46769095Y20746239D01*
X46816714Y20793858D01*
X46816714Y21127191D01*
X46626238Y21127191D01*
X47245285Y20698620D02*
X47245285Y21698620D01*
X47816714Y20698620D01*
X47816714Y21698620D01*
X48292904Y20698620D02*
X48292904Y21698620D01*
X48531000Y21698620D01*
X48673857Y21651000D01*
X48769095Y21555762D01*
X48816714Y21460524D01*
X48864333Y21270048D01*
X48864333Y21127191D01*
X48816714Y20936715D01*
X48769095Y20841477D01*
X48673857Y20746239D01*
X48531000Y20698620D01*
X48292904Y20698620D01*
X59024523Y18447620D02*
X58548333Y18447620D01*
X58500714Y17971429D01*
X58548333Y18019048D01*
X58643571Y18066667D01*
X58881666Y18066667D01*
X58976904Y18019048D01*
X59024523Y17971429D01*
X59072142Y17876191D01*
X59072142Y17638096D01*
X59024523Y17542858D01*
X58976904Y17495239D01*
X58881666Y17447620D01*
X58643571Y17447620D01*
X58548333Y17495239D01*
X58500714Y17542858D01*
X59357857Y18447620D02*
X59691190Y17447620D01*
X60024523Y18447620D01*
%TO.C,D3*%
X97761904Y19047620D02*
X97761904Y20047620D01*
X98000000Y20047620D01*
X98142857Y20000000D01*
X98238095Y19904762D01*
X98285714Y19809524D01*
X98333333Y19619048D01*
X98333333Y19476191D01*
X98285714Y19285715D01*
X98238095Y19190477D01*
X98142857Y19095239D01*
X98000000Y19047620D01*
X97761904Y19047620D01*
X98666666Y20047620D02*
X99285714Y20047620D01*
X98952380Y19666667D01*
X99095238Y19666667D01*
X99190476Y19619048D01*
X99238095Y19571429D01*
X99285714Y19476191D01*
X99285714Y19238096D01*
X99238095Y19142858D01*
X99190476Y19095239D01*
X99095238Y19047620D01*
X98809523Y19047620D01*
X98714285Y19095239D01*
X98666666Y19142858D01*
X91769095Y21651000D02*
X91673857Y21698620D01*
X91531000Y21698620D01*
X91388142Y21651000D01*
X91292904Y21555762D01*
X91245285Y21460524D01*
X91197666Y21270048D01*
X91197666Y21127191D01*
X91245285Y20936715D01*
X91292904Y20841477D01*
X91388142Y20746239D01*
X91531000Y20698620D01*
X91626238Y20698620D01*
X91769095Y20746239D01*
X91816714Y20793858D01*
X91816714Y21127191D01*
X91626238Y21127191D01*
X92245285Y20698620D02*
X92245285Y21698620D01*
X92816714Y20698620D01*
X92816714Y21698620D01*
X93292904Y20698620D02*
X93292904Y21698620D01*
X93531000Y21698620D01*
X93673857Y21651000D01*
X93769095Y21555762D01*
X93816714Y21460524D01*
X93864333Y21270048D01*
X93864333Y21127191D01*
X93816714Y20936715D01*
X93769095Y20841477D01*
X93673857Y20746239D01*
X93531000Y20698620D01*
X93292904Y20698620D01*
X91634190Y17396620D02*
X91634190Y18396620D01*
X91872285Y18396620D01*
X92015142Y18349000D01*
X92110380Y18253762D01*
X92158000Y18158524D01*
X92205619Y17968048D01*
X92205619Y17825191D01*
X92158000Y17634715D01*
X92110380Y17539477D01*
X92015142Y17444239D01*
X91872285Y17396620D01*
X91634190Y17396620D01*
X92634190Y17396620D02*
X92634190Y18396620D01*
X93110380Y17396620D02*
X93110380Y18396620D01*
X93681809Y17396620D01*
X93681809Y18396620D01*
X103286523Y20698620D02*
X103286523Y21698620D01*
X103524619Y21698620D01*
X103667476Y21651000D01*
X103762714Y21555762D01*
X103810333Y21460524D01*
X103857952Y21270048D01*
X103857952Y21127191D01*
X103810333Y20936715D01*
X103762714Y20841477D01*
X103667476Y20746239D01*
X103524619Y20698620D01*
X103286523Y20698620D01*
X104477000Y21698620D02*
X104667476Y21698620D01*
X104762714Y21651000D01*
X104857952Y21555762D01*
X104905571Y21365286D01*
X104905571Y21031953D01*
X104857952Y20841477D01*
X104762714Y20746239D01*
X104667476Y20698620D01*
X104477000Y20698620D01*
X104381761Y20746239D01*
X104286523Y20841477D01*
X104238904Y21031953D01*
X104238904Y21365286D01*
X104286523Y21555762D01*
X104381761Y21651000D01*
X104477000Y21698620D01*
X105334142Y21698620D02*
X105334142Y20889096D01*
X105381761Y20793858D01*
X105429380Y20746239D01*
X105524619Y20698620D01*
X105715095Y20698620D01*
X105810333Y20746239D01*
X105857952Y20793858D01*
X105905571Y20889096D01*
X105905571Y21698620D01*
X106238904Y21698620D02*
X106810333Y21698620D01*
X106524619Y20698620D02*
X106524619Y21698620D01*
%TO.C,D4*%
X142761904Y19047620D02*
X142761904Y20047620D01*
X143000000Y20047620D01*
X143142857Y20000000D01*
X143238095Y19904762D01*
X143285714Y19809524D01*
X143333333Y19619048D01*
X143333333Y19476191D01*
X143285714Y19285715D01*
X143238095Y19190477D01*
X143142857Y19095239D01*
X143000000Y19047620D01*
X142761904Y19047620D01*
X144190476Y19714286D02*
X144190476Y19047620D01*
X143952380Y20095239D02*
X143714285Y19380953D01*
X144333333Y19380953D01*
X148286523Y20698620D02*
X148286523Y21698620D01*
X148524619Y21698620D01*
X148667476Y21651000D01*
X148762714Y21555762D01*
X148810333Y21460524D01*
X148857952Y21270048D01*
X148857952Y21127191D01*
X148810333Y20936715D01*
X148762714Y20841477D01*
X148667476Y20746239D01*
X148524619Y20698620D01*
X148286523Y20698620D01*
X149477000Y21698620D02*
X149667476Y21698620D01*
X149762714Y21651000D01*
X149857952Y21555762D01*
X149905571Y21365286D01*
X149905571Y21031953D01*
X149857952Y20841477D01*
X149762714Y20746239D01*
X149667476Y20698620D01*
X149477000Y20698620D01*
X149381761Y20746239D01*
X149286523Y20841477D01*
X149238904Y21031953D01*
X149238904Y21365286D01*
X149286523Y21555762D01*
X149381761Y21651000D01*
X149477000Y21698620D01*
X150334142Y21698620D02*
X150334142Y20889096D01*
X150381761Y20793858D01*
X150429380Y20746239D01*
X150524619Y20698620D01*
X150715095Y20698620D01*
X150810333Y20746239D01*
X150857952Y20793858D01*
X150905571Y20889096D01*
X150905571Y21698620D01*
X151238904Y21698620D02*
X151810333Y21698620D01*
X151524619Y20698620D02*
X151524619Y21698620D01*
X136634190Y17396620D02*
X136634190Y18396620D01*
X136872285Y18396620D01*
X137015142Y18349000D01*
X137110380Y18253762D01*
X137158000Y18158524D01*
X137205619Y17968048D01*
X137205619Y17825191D01*
X137158000Y17634715D01*
X137110380Y17539477D01*
X137015142Y17444239D01*
X136872285Y17396620D01*
X136634190Y17396620D01*
X137634190Y17396620D02*
X137634190Y18396620D01*
X138110380Y17396620D02*
X138110380Y18396620D01*
X138681809Y17396620D01*
X138681809Y18396620D01*
X136769095Y21651000D02*
X136673857Y21698620D01*
X136531000Y21698620D01*
X136388142Y21651000D01*
X136292904Y21555762D01*
X136245285Y21460524D01*
X136197666Y21270048D01*
X136197666Y21127191D01*
X136245285Y20936715D01*
X136292904Y20841477D01*
X136388142Y20746239D01*
X136531000Y20698620D01*
X136626238Y20698620D01*
X136769095Y20746239D01*
X136816714Y20793858D01*
X136816714Y21127191D01*
X136626238Y21127191D01*
X137245285Y20698620D02*
X137245285Y21698620D01*
X137816714Y20698620D01*
X137816714Y21698620D01*
X138292904Y20698620D02*
X138292904Y21698620D01*
X138531000Y21698620D01*
X138673857Y21651000D01*
X138769095Y21555762D01*
X138816714Y21460524D01*
X138864333Y21270048D01*
X138864333Y21127191D01*
X138816714Y20936715D01*
X138769095Y20841477D01*
X138673857Y20746239D01*
X138531000Y20698620D01*
X138292904Y20698620D01*
X149024523Y18447620D02*
X148548333Y18447620D01*
X148500714Y17971429D01*
X148548333Y18019048D01*
X148643571Y18066667D01*
X148881666Y18066667D01*
X148976904Y18019048D01*
X149024523Y17971429D01*
X149072142Y17876191D01*
X149072142Y17638096D01*
X149024523Y17542858D01*
X148976904Y17495239D01*
X148881666Y17447620D01*
X148643571Y17447620D01*
X148548333Y17495239D01*
X148500714Y17542858D01*
X149357857Y18447620D02*
X149691190Y17447620D01*
X150024523Y18447620D01*
%TO.C,D5*%
X187761904Y19047620D02*
X187761904Y20047620D01*
X188000000Y20047620D01*
X188142857Y20000000D01*
X188238095Y19904762D01*
X188285714Y19809524D01*
X188333333Y19619048D01*
X188333333Y19476191D01*
X188285714Y19285715D01*
X188238095Y19190477D01*
X188142857Y19095239D01*
X188000000Y19047620D01*
X187761904Y19047620D01*
X189238095Y20047620D02*
X188761904Y20047620D01*
X188714285Y19571429D01*
X188761904Y19619048D01*
X188857142Y19666667D01*
X189095238Y19666667D01*
X189190476Y19619048D01*
X189238095Y19571429D01*
X189285714Y19476191D01*
X189285714Y19238096D01*
X189238095Y19142858D01*
X189190476Y19095239D01*
X189095238Y19047620D01*
X188857142Y19047620D01*
X188761904Y19095239D01*
X188714285Y19142858D01*
X194024523Y18447620D02*
X193548333Y18447620D01*
X193500714Y17971429D01*
X193548333Y18019048D01*
X193643571Y18066667D01*
X193881666Y18066667D01*
X193976904Y18019048D01*
X194024523Y17971429D01*
X194072142Y17876191D01*
X194072142Y17638096D01*
X194024523Y17542858D01*
X193976904Y17495239D01*
X193881666Y17447620D01*
X193643571Y17447620D01*
X193548333Y17495239D01*
X193500714Y17542858D01*
X194357857Y18447620D02*
X194691190Y17447620D01*
X195024523Y18447620D01*
X181769095Y21651000D02*
X181673857Y21698620D01*
X181531000Y21698620D01*
X181388142Y21651000D01*
X181292904Y21555762D01*
X181245285Y21460524D01*
X181197666Y21270048D01*
X181197666Y21127191D01*
X181245285Y20936715D01*
X181292904Y20841477D01*
X181388142Y20746239D01*
X181531000Y20698620D01*
X181626238Y20698620D01*
X181769095Y20746239D01*
X181816714Y20793858D01*
X181816714Y21127191D01*
X181626238Y21127191D01*
X182245285Y20698620D02*
X182245285Y21698620D01*
X182816714Y20698620D01*
X182816714Y21698620D01*
X183292904Y20698620D02*
X183292904Y21698620D01*
X183531000Y21698620D01*
X183673857Y21651000D01*
X183769095Y21555762D01*
X183816714Y21460524D01*
X183864333Y21270048D01*
X183864333Y21127191D01*
X183816714Y20936715D01*
X183769095Y20841477D01*
X183673857Y20746239D01*
X183531000Y20698620D01*
X183292904Y20698620D01*
X181634190Y17396620D02*
X181634190Y18396620D01*
X181872285Y18396620D01*
X182015142Y18349000D01*
X182110380Y18253762D01*
X182158000Y18158524D01*
X182205619Y17968048D01*
X182205619Y17825191D01*
X182158000Y17634715D01*
X182110380Y17539477D01*
X182015142Y17444239D01*
X181872285Y17396620D01*
X181634190Y17396620D01*
X182634190Y17396620D02*
X182634190Y18396620D01*
X183110380Y17396620D02*
X183110380Y18396620D01*
X183681809Y17396620D01*
X183681809Y18396620D01*
X193286523Y20698620D02*
X193286523Y21698620D01*
X193524619Y21698620D01*
X193667476Y21651000D01*
X193762714Y21555762D01*
X193810333Y21460524D01*
X193857952Y21270048D01*
X193857952Y21127191D01*
X193810333Y20936715D01*
X193762714Y20841477D01*
X193667476Y20746239D01*
X193524619Y20698620D01*
X193286523Y20698620D01*
X194477000Y21698620D02*
X194667476Y21698620D01*
X194762714Y21651000D01*
X194857952Y21555762D01*
X194905571Y21365286D01*
X194905571Y21031953D01*
X194857952Y20841477D01*
X194762714Y20746239D01*
X194667476Y20698620D01*
X194477000Y20698620D01*
X194381761Y20746239D01*
X194286523Y20841477D01*
X194238904Y21031953D01*
X194238904Y21365286D01*
X194286523Y21555762D01*
X194381761Y21651000D01*
X194477000Y21698620D01*
X195334142Y21698620D02*
X195334142Y20889096D01*
X195381761Y20793858D01*
X195429380Y20746239D01*
X195524619Y20698620D01*
X195715095Y20698620D01*
X195810333Y20746239D01*
X195857952Y20793858D01*
X195905571Y20889096D01*
X195905571Y21698620D01*
X196238904Y21698620D02*
X196810333Y21698620D01*
X196524619Y20698620D02*
X196524619Y21698620D01*
%TO.C,C1*%
X10333333Y12642858D02*
X10285714Y12595239D01*
X10142857Y12547620D01*
X10047619Y12547620D01*
X9904761Y12595239D01*
X9809523Y12690477D01*
X9761904Y12785715D01*
X9714285Y12976191D01*
X9714285Y13119048D01*
X9761904Y13309524D01*
X9809523Y13404762D01*
X9904761Y13500000D01*
X10047619Y13547620D01*
X10142857Y13547620D01*
X10285714Y13500000D01*
X10333333Y13452381D01*
X11285714Y12547620D02*
X10714285Y12547620D01*
X11000000Y12547620D02*
X11000000Y13547620D01*
X10904761Y13404762D01*
X10809523Y13309524D01*
X10714285Y13261905D01*
%TO.C,C2*%
X61070833Y19672858D02*
X61023214Y19625239D01*
X60880357Y19577620D01*
X60785119Y19577620D01*
X60642261Y19625239D01*
X60547023Y19720477D01*
X60499404Y19815715D01*
X60451785Y20006191D01*
X60451785Y20149048D01*
X60499404Y20339524D01*
X60547023Y20434762D01*
X60642261Y20530000D01*
X60785119Y20577620D01*
X60880357Y20577620D01*
X61023214Y20530000D01*
X61070833Y20482381D01*
X61451785Y20482381D02*
X61499404Y20530000D01*
X61594642Y20577620D01*
X61832738Y20577620D01*
X61927976Y20530000D01*
X61975595Y20482381D01*
X62023214Y20387143D01*
X62023214Y20291905D01*
X61975595Y20149048D01*
X61404166Y19577620D01*
X62023214Y19577620D01*
%TO.C,C3*%
X98333333Y12822858D02*
X98285714Y12775239D01*
X98142857Y12727620D01*
X98047619Y12727620D01*
X97904761Y12775239D01*
X97809523Y12870477D01*
X97761904Y12965715D01*
X97714285Y13156191D01*
X97714285Y13299048D01*
X97761904Y13489524D01*
X97809523Y13584762D01*
X97904761Y13680000D01*
X98047619Y13727620D01*
X98142857Y13727620D01*
X98285714Y13680000D01*
X98333333Y13632381D01*
X98666666Y13727620D02*
X99285714Y13727620D01*
X98952380Y13346667D01*
X99095238Y13346667D01*
X99190476Y13299048D01*
X99238095Y13251429D01*
X99285714Y13156191D01*
X99285714Y12918096D01*
X99238095Y12822858D01*
X99190476Y12775239D01*
X99095238Y12727620D01*
X98809523Y12727620D01*
X98714285Y12775239D01*
X98666666Y12822858D01*
%TO.C,C4*%
X143333333Y12822858D02*
X143285714Y12775239D01*
X143142857Y12727620D01*
X143047619Y12727620D01*
X142904761Y12775239D01*
X142809523Y12870477D01*
X142761904Y12965715D01*
X142714285Y13156191D01*
X142714285Y13299048D01*
X142761904Y13489524D01*
X142809523Y13584762D01*
X142904761Y13680000D01*
X143047619Y13727620D01*
X143142857Y13727620D01*
X143285714Y13680000D01*
X143333333Y13632381D01*
X144190476Y13394286D02*
X144190476Y12727620D01*
X143952380Y13775239D02*
X143714285Y13060953D01*
X144333333Y13060953D01*
%TO.C,C5*%
X188333333Y12822858D02*
X188285714Y12775239D01*
X188142857Y12727620D01*
X188047619Y12727620D01*
X187904761Y12775239D01*
X187809523Y12870477D01*
X187761904Y12965715D01*
X187714285Y13156191D01*
X187714285Y13299048D01*
X187761904Y13489524D01*
X187809523Y13584762D01*
X187904761Y13680000D01*
X188047619Y13727620D01*
X188142857Y13727620D01*
X188285714Y13680000D01*
X188333333Y13632381D01*
X189238095Y13727620D02*
X188761904Y13727620D01*
X188714285Y13251429D01*
X188761904Y13299048D01*
X188857142Y13346667D01*
X189095238Y13346667D01*
X189190476Y13299048D01*
X189238095Y13251429D01*
X189285714Y13156191D01*
X189285714Y12918096D01*
X189238095Y12822858D01*
X189190476Y12775239D01*
X189095238Y12727620D01*
X188857142Y12727620D01*
X188761904Y12775239D01*
X188714285Y12822858D01*
%TO.C,SW1*%
X8904761Y4866667D02*
X8952380Y5009524D01*
X8952380Y5247620D01*
X8904761Y5342858D01*
X8857142Y5390477D01*
X8761904Y5438096D01*
X8666666Y5438096D01*
X8571428Y5390477D01*
X8523809Y5342858D01*
X8476190Y5247620D01*
X8428571Y5057143D01*
X8380952Y4961905D01*
X8333333Y4914286D01*
X8238095Y4866667D01*
X8142857Y4866667D01*
X8047619Y4914286D01*
X8000000Y4961905D01*
X7952380Y5057143D01*
X7952380Y5295239D01*
X8000000Y5438096D01*
X7952380Y5771429D02*
X8952380Y6009524D01*
X8238095Y6200000D01*
X8952380Y6390477D01*
X7952380Y6628572D01*
X8952380Y7533334D02*
X8952380Y6961905D01*
X8952380Y7247620D02*
X7952380Y7247620D01*
X8095238Y7152381D01*
X8190476Y7057143D01*
X8238095Y6961905D01*
%TO.C,SW2*%
X53904761Y4866667D02*
X53952380Y5009524D01*
X53952380Y5247620D01*
X53904761Y5342858D01*
X53857142Y5390477D01*
X53761904Y5438096D01*
X53666666Y5438096D01*
X53571428Y5390477D01*
X53523809Y5342858D01*
X53476190Y5247620D01*
X53428571Y5057143D01*
X53380952Y4961905D01*
X53333333Y4914286D01*
X53238095Y4866667D01*
X53142857Y4866667D01*
X53047619Y4914286D01*
X53000000Y4961905D01*
X52952380Y5057143D01*
X52952380Y5295239D01*
X53000000Y5438096D01*
X52952380Y5771429D02*
X53952380Y6009524D01*
X53238095Y6200000D01*
X53952380Y6390477D01*
X52952380Y6628572D01*
X53047619Y6961905D02*
X53000000Y7009524D01*
X52952380Y7104762D01*
X52952380Y7342858D01*
X53000000Y7438096D01*
X53047619Y7485715D01*
X53142857Y7533334D01*
X53238095Y7533334D01*
X53380952Y7485715D01*
X53952380Y6914286D01*
X53952380Y7533334D01*
%TO.C,SW3*%
X98904761Y4866667D02*
X98952380Y5009524D01*
X98952380Y5247620D01*
X98904761Y5342858D01*
X98857142Y5390477D01*
X98761904Y5438096D01*
X98666666Y5438096D01*
X98571428Y5390477D01*
X98523809Y5342858D01*
X98476190Y5247620D01*
X98428571Y5057143D01*
X98380952Y4961905D01*
X98333333Y4914286D01*
X98238095Y4866667D01*
X98142857Y4866667D01*
X98047619Y4914286D01*
X98000000Y4961905D01*
X97952380Y5057143D01*
X97952380Y5295239D01*
X98000000Y5438096D01*
X97952380Y5771429D02*
X98952380Y6009524D01*
X98238095Y6200000D01*
X98952380Y6390477D01*
X97952380Y6628572D01*
X97952380Y6914286D02*
X97952380Y7533334D01*
X98333333Y7200000D01*
X98333333Y7342858D01*
X98380952Y7438096D01*
X98428571Y7485715D01*
X98523809Y7533334D01*
X98761904Y7533334D01*
X98857142Y7485715D01*
X98904761Y7438096D01*
X98952380Y7342858D01*
X98952380Y7057143D01*
X98904761Y6961905D01*
X98857142Y6914286D01*
%TO.C,SW4*%
X143904761Y4866667D02*
X143952380Y5009524D01*
X143952380Y5247620D01*
X143904761Y5342858D01*
X143857142Y5390477D01*
X143761904Y5438096D01*
X143666666Y5438096D01*
X143571428Y5390477D01*
X143523809Y5342858D01*
X143476190Y5247620D01*
X143428571Y5057143D01*
X143380952Y4961905D01*
X143333333Y4914286D01*
X143238095Y4866667D01*
X143142857Y4866667D01*
X143047619Y4914286D01*
X143000000Y4961905D01*
X142952380Y5057143D01*
X142952380Y5295239D01*
X143000000Y5438096D01*
X142952380Y5771429D02*
X143952380Y6009524D01*
X143238095Y6200000D01*
X143952380Y6390477D01*
X142952380Y6628572D01*
X143285714Y7438096D02*
X143952380Y7438096D01*
X142904761Y7200000D02*
X143619047Y6961905D01*
X143619047Y7580953D01*
%TO.C,U1*%
X21352380Y14538096D02*
X22161904Y14538096D01*
X22257142Y14585715D01*
X22304761Y14633334D01*
X22352380Y14728572D01*
X22352380Y14919048D01*
X22304761Y15014286D01*
X22257142Y15061905D01*
X22161904Y15109524D01*
X21352380Y15109524D01*
X22352380Y16109524D02*
X22352380Y15538096D01*
X22352380Y15823810D02*
X21352380Y15823810D01*
X21495238Y15728572D01*
X21590476Y15633334D01*
X21638095Y15538096D01*
%TO.C,SW5*%
X188904761Y4866667D02*
X188952380Y5009524D01*
X188952380Y5247620D01*
X188904761Y5342858D01*
X188857142Y5390477D01*
X188761904Y5438096D01*
X188666666Y5438096D01*
X188571428Y5390477D01*
X188523809Y5342858D01*
X188476190Y5247620D01*
X188428571Y5057143D01*
X188380952Y4961905D01*
X188333333Y4914286D01*
X188238095Y4866667D01*
X188142857Y4866667D01*
X188047619Y4914286D01*
X188000000Y4961905D01*
X187952380Y5057143D01*
X187952380Y5295239D01*
X188000000Y5438096D01*
X187952380Y5771429D02*
X188952380Y6009524D01*
X188238095Y6200000D01*
X188952380Y6390477D01*
X187952380Y6628572D01*
X187952380Y7485715D02*
X187952380Y7009524D01*
X188428571Y6961905D01*
X188380952Y7009524D01*
X188333333Y7104762D01*
X188333333Y7342858D01*
X188380952Y7438096D01*
X188428571Y7485715D01*
X188523809Y7533334D01*
X188761904Y7533334D01*
X188857142Y7485715D01*
X188904761Y7438096D01*
X188952380Y7342858D01*
X188952380Y7104762D01*
X188904761Y7009524D01*
X188857142Y6961905D01*
%TO.C,J2*%
X28166666Y5987620D02*
X28166666Y5273334D01*
X28119047Y5130477D01*
X28023809Y5035239D01*
X27880952Y4987620D01*
X27785714Y4987620D01*
X28595238Y5892381D02*
X28642857Y5940000D01*
X28738095Y5987620D01*
X28976190Y5987620D01*
X29071428Y5940000D01*
X29119047Y5892381D01*
X29166666Y5797143D01*
X29166666Y5701905D01*
X29119047Y5559048D01*
X28547619Y4987620D01*
X29166666Y4987620D01*
%TD*%
M02*
