%TF.GenerationSoftware,KiCad,Pcbnew,(5.1.6)-1*%
%TF.CreationDate,2025-03-18T13:40:46-05:00*%
%TF.ProjectId,row_board_pcbway,726f775f-626f-4617-9264-5f7063627761,rev?*%
%TF.SameCoordinates,PX311d3e0PY5f5e100*%
%TF.FileFunction,Copper,L1,Top*%
%TF.FilePolarity,Positive*%
%FSLAX46Y46*%
G04 Gerber Fmt 4.6, Leading zero omitted, Abs format (unit mm)*
G04 Created by KiCad (PCBNEW (5.1.6)-1) date 2025-03-18 13:40:46*
%MOMM*%
%LPD*%
G01*
G04 APERTURE LIST*
%TA.AperFunction,ComponentPad*%
%ADD10C,2.200000*%
%TD*%
%TA.AperFunction,WasherPad*%
%ADD11C,2.000000*%
%TD*%
%TA.AperFunction,SMDPad,CuDef*%
%ADD12R,3.000000X1.500000*%
%TD*%
%TA.AperFunction,ComponentPad*%
%ADD13O,3.470000X2.200000*%
%TD*%
%TA.AperFunction,ViaPad*%
%ADD14C,2.000000*%
%TD*%
%TA.AperFunction,ViaPad*%
%ADD15C,0.800000*%
%TD*%
%TA.AperFunction,Conductor*%
%ADD16C,0.800000*%
%TD*%
%TA.AperFunction,Conductor*%
%ADD17C,1.500000*%
%TD*%
%TA.AperFunction,Conductor*%
%ADD18C,1.000000*%
%TD*%
%TA.AperFunction,Conductor*%
%ADD19C,0.900000*%
%TD*%
%TA.AperFunction,Conductor*%
%ADD20C,1.200000*%
%TD*%
%TA.AperFunction,Conductor*%
%ADD21C,0.200000*%
%TD*%
G04 APERTURE END LIST*
D10*
%TO.P,J1,6*%
%TO.N,+5V*%
X35200000Y22000000D03*
%TO.P,J1,5*%
%TO.N,BTN_CLK*%
X32660000Y22000000D03*
%TO.P,J1,4*%
%TO.N,GND*%
X30120000Y22000000D03*
%TO.P,J1,3*%
%TO.N,BTN_DIN*%
X27580000Y22000000D03*
%TO.P,J1,2*%
%TO.N,LED_DIN*%
X25040000Y22000000D03*
%TO.P,J1,1*%
%TO.N,BTN_SENSE*%
X22500000Y22000000D03*
%TD*%
D11*
%TO.P,REF\u002A\u002A,*%
%TO.N,*%
X3000000Y14000000D03*
%TD*%
%TO.P,C6,2*%
%TO.N,GND*%
%TA.AperFunction,SMDPad,CuDef*%
G36*
G01*
X20975000Y15025000D02*
X22225000Y15025000D01*
G75*
G02*
X22475000Y14775000I0J-250000D01*
G01*
X22475000Y13850000D01*
G75*
G02*
X22225000Y13600000I-250000J0D01*
G01*
X20975000Y13600000D01*
G75*
G02*
X20725000Y13850000I0J250000D01*
G01*
X20725000Y14775000D01*
G75*
G02*
X20975000Y15025000I250000J0D01*
G01*
G37*
%TD.AperFunction*%
%TO.P,C6,1*%
%TO.N,+5V*%
%TA.AperFunction,SMDPad,CuDef*%
G36*
G01*
X20975000Y18000000D02*
X22225000Y18000000D01*
G75*
G02*
X22475000Y17750000I0J-250000D01*
G01*
X22475000Y16825000D01*
G75*
G02*
X22225000Y16575000I-250000J0D01*
G01*
X20975000Y16575000D01*
G75*
G02*
X20725000Y16825000I0J250000D01*
G01*
X20725000Y17750000D01*
G75*
G02*
X20975000Y18000000I250000J0D01*
G01*
G37*
%TD.AperFunction*%
%TD*%
D12*
%TO.P,D1,3*%
%TO.N,GND*%
X5550000Y21100000D03*
%TO.P,D1,4*%
%TO.N,LED_DIN*%
X5550000Y17900000D03*
%TO.P,D1,2*%
%TO.N,Net-(D1-Pad2)*%
X11450000Y21100000D03*
%TO.P,D1,1*%
%TO.N,+5V*%
X11450000Y17900000D03*
%TD*%
%TO.P,D2,1*%
%TO.N,+5V*%
X56450000Y17900000D03*
%TO.P,D2,2*%
%TO.N,Net-(D2-Pad2)*%
X56450000Y21100000D03*
%TO.P,D2,4*%
%TO.N,Net-(D1-Pad2)*%
X50550000Y17900000D03*
%TO.P,D2,3*%
%TO.N,GND*%
X50550000Y21100000D03*
%TD*%
%TO.P,D3,3*%
%TO.N,GND*%
X95550000Y21100000D03*
%TO.P,D3,4*%
%TO.N,Net-(D2-Pad2)*%
X95550000Y17900000D03*
%TO.P,D3,2*%
%TO.N,Net-(D3-Pad2)*%
X101450000Y21100000D03*
%TO.P,D3,1*%
%TO.N,+5V*%
X101450000Y17900000D03*
%TD*%
%TO.P,D4,1*%
%TO.N,+5V*%
X146450000Y17900000D03*
%TO.P,D4,2*%
%TO.N,Net-(D4-Pad2)*%
X146450000Y21100000D03*
%TO.P,D4,4*%
%TO.N,Net-(D3-Pad2)*%
X140550000Y17900000D03*
%TO.P,D4,3*%
%TO.N,GND*%
X140550000Y21100000D03*
%TD*%
%TO.P,D5,3*%
%TO.N,GND*%
X185550000Y21100000D03*
%TO.P,D5,4*%
%TO.N,Net-(D4-Pad2)*%
X185550000Y17900000D03*
%TO.P,D5,2*%
%TO.N,LED_DOUT*%
X191450000Y21100000D03*
%TO.P,D5,1*%
%TO.N,+5V*%
X191450000Y17900000D03*
%TD*%
%TO.P,C1,1*%
%TO.N,+5V*%
%TA.AperFunction,SMDPad,CuDef*%
G36*
G01*
X10700000Y15625000D02*
X10700000Y14375000D01*
G75*
G02*
X10450000Y14125000I-250000J0D01*
G01*
X9525000Y14125000D01*
G75*
G02*
X9275000Y14375000I0J250000D01*
G01*
X9275000Y15625000D01*
G75*
G02*
X9525000Y15875000I250000J0D01*
G01*
X10450000Y15875000D01*
G75*
G02*
X10700000Y15625000I0J-250000D01*
G01*
G37*
%TD.AperFunction*%
%TO.P,C1,2*%
%TO.N,GND*%
%TA.AperFunction,SMDPad,CuDef*%
G36*
G01*
X7725000Y15625000D02*
X7725000Y14375000D01*
G75*
G02*
X7475000Y14125000I-250000J0D01*
G01*
X6550000Y14125000D01*
G75*
G02*
X6300000Y14375000I0J250000D01*
G01*
X6300000Y15625000D01*
G75*
G02*
X6550000Y15875000I250000J0D01*
G01*
X7475000Y15875000D01*
G75*
G02*
X7725000Y15625000I0J-250000D01*
G01*
G37*
%TD.AperFunction*%
%TD*%
%TO.P,C2,2*%
%TO.N,GND*%
%TA.AperFunction,SMDPad,CuDef*%
G36*
G01*
X62012500Y17405000D02*
X62012500Y18655000D01*
G75*
G02*
X62262500Y18905000I250000J0D01*
G01*
X63187500Y18905000D01*
G75*
G02*
X63437500Y18655000I0J-250000D01*
G01*
X63437500Y17405000D01*
G75*
G02*
X63187500Y17155000I-250000J0D01*
G01*
X62262500Y17155000D01*
G75*
G02*
X62012500Y17405000I0J250000D01*
G01*
G37*
%TD.AperFunction*%
%TO.P,C2,1*%
%TO.N,+5V*%
%TA.AperFunction,SMDPad,CuDef*%
G36*
G01*
X59037500Y17405000D02*
X59037500Y18655000D01*
G75*
G02*
X59287500Y18905000I250000J0D01*
G01*
X60212500Y18905000D01*
G75*
G02*
X60462500Y18655000I0J-250000D01*
G01*
X60462500Y17405000D01*
G75*
G02*
X60212500Y17155000I-250000J0D01*
G01*
X59287500Y17155000D01*
G75*
G02*
X59037500Y17405000I0J250000D01*
G01*
G37*
%TD.AperFunction*%
%TD*%
%TO.P,C3,2*%
%TO.N,GND*%
%TA.AperFunction,SMDPad,CuDef*%
G36*
G01*
X97725000Y15625000D02*
X97725000Y14375000D01*
G75*
G02*
X97475000Y14125000I-250000J0D01*
G01*
X96550000Y14125000D01*
G75*
G02*
X96300000Y14375000I0J250000D01*
G01*
X96300000Y15625000D01*
G75*
G02*
X96550000Y15875000I250000J0D01*
G01*
X97475000Y15875000D01*
G75*
G02*
X97725000Y15625000I0J-250000D01*
G01*
G37*
%TD.AperFunction*%
%TO.P,C3,1*%
%TO.N,+5V*%
%TA.AperFunction,SMDPad,CuDef*%
G36*
G01*
X100700000Y15625000D02*
X100700000Y14375000D01*
G75*
G02*
X100450000Y14125000I-250000J0D01*
G01*
X99525000Y14125000D01*
G75*
G02*
X99275000Y14375000I0J250000D01*
G01*
X99275000Y15625000D01*
G75*
G02*
X99525000Y15875000I250000J0D01*
G01*
X100450000Y15875000D01*
G75*
G02*
X100700000Y15625000I0J-250000D01*
G01*
G37*
%TD.AperFunction*%
%TD*%
%TO.P,C4,2*%
%TO.N,GND*%
%TA.AperFunction,SMDPad,CuDef*%
G36*
G01*
X142725000Y15625000D02*
X142725000Y14375000D01*
G75*
G02*
X142475000Y14125000I-250000J0D01*
G01*
X141550000Y14125000D01*
G75*
G02*
X141300000Y14375000I0J250000D01*
G01*
X141300000Y15625000D01*
G75*
G02*
X141550000Y15875000I250000J0D01*
G01*
X142475000Y15875000D01*
G75*
G02*
X142725000Y15625000I0J-250000D01*
G01*
G37*
%TD.AperFunction*%
%TO.P,C4,1*%
%TO.N,+5V*%
%TA.AperFunction,SMDPad,CuDef*%
G36*
G01*
X145700000Y15625000D02*
X145700000Y14375000D01*
G75*
G02*
X145450000Y14125000I-250000J0D01*
G01*
X144525000Y14125000D01*
G75*
G02*
X144275000Y14375000I0J250000D01*
G01*
X144275000Y15625000D01*
G75*
G02*
X144525000Y15875000I250000J0D01*
G01*
X145450000Y15875000D01*
G75*
G02*
X145700000Y15625000I0J-250000D01*
G01*
G37*
%TD.AperFunction*%
%TD*%
%TO.P,C5,1*%
%TO.N,+5V*%
%TA.AperFunction,SMDPad,CuDef*%
G36*
G01*
X190700000Y15625000D02*
X190700000Y14375000D01*
G75*
G02*
X190450000Y14125000I-250000J0D01*
G01*
X189525000Y14125000D01*
G75*
G02*
X189275000Y14375000I0J250000D01*
G01*
X189275000Y15625000D01*
G75*
G02*
X189525000Y15875000I250000J0D01*
G01*
X190450000Y15875000D01*
G75*
G02*
X190700000Y15625000I0J-250000D01*
G01*
G37*
%TD.AperFunction*%
%TO.P,C5,2*%
%TO.N,GND*%
%TA.AperFunction,SMDPad,CuDef*%
G36*
G01*
X187725000Y15625000D02*
X187725000Y14375000D01*
G75*
G02*
X187475000Y14125000I-250000J0D01*
G01*
X186550000Y14125000D01*
G75*
G02*
X186300000Y14375000I0J250000D01*
G01*
X186300000Y15625000D01*
G75*
G02*
X186550000Y15875000I250000J0D01*
G01*
X187475000Y15875000D01*
G75*
G02*
X187725000Y15625000I0J-250000D01*
G01*
G37*
%TD.AperFunction*%
%TD*%
D13*
%TO.P,SW1,2*%
%TO.N,BTN_SENSE*%
X12960000Y3660000D03*
%TO.P,SW1,1*%
%TO.N,Net-(SW1-Pad1)*%
X12960000Y8740000D03*
%TO.P,SW1,2*%
%TO.N,BTN_SENSE*%
X4040000Y3660000D03*
%TO.P,SW1,1*%
%TO.N,Net-(SW1-Pad1)*%
X4040000Y8740000D03*
%TD*%
%TO.P,SW2,1*%
%TO.N,Net-(SW2-Pad1)*%
X49040000Y8740000D03*
%TO.P,SW2,2*%
%TO.N,BTN_SENSE*%
X49040000Y3660000D03*
%TO.P,SW2,1*%
%TO.N,Net-(SW2-Pad1)*%
X57960000Y8740000D03*
%TO.P,SW2,2*%
%TO.N,BTN_SENSE*%
X57960000Y3660000D03*
%TD*%
%TO.P,SW3,2*%
%TO.N,BTN_SENSE*%
X102960000Y3660000D03*
%TO.P,SW3,1*%
%TO.N,Net-(SW3-Pad1)*%
X102960000Y8740000D03*
%TO.P,SW3,2*%
%TO.N,BTN_SENSE*%
X94040000Y3660000D03*
%TO.P,SW3,1*%
%TO.N,Net-(SW3-Pad1)*%
X94040000Y8740000D03*
%TD*%
%TO.P,SW4,1*%
%TO.N,Net-(SW4-Pad1)*%
X139040000Y8740000D03*
%TO.P,SW4,2*%
%TO.N,BTN_SENSE*%
X139040000Y3660000D03*
%TO.P,SW4,1*%
%TO.N,Net-(SW4-Pad1)*%
X147960000Y8740000D03*
%TO.P,SW4,2*%
%TO.N,BTN_SENSE*%
X147960000Y3660000D03*
%TD*%
%TO.P,U1,1*%
%TO.N,Net-(SW1-Pad1)*%
%TA.AperFunction,SMDPad,CuDef*%
G36*
G01*
X23692500Y11250000D02*
X23417500Y11250000D01*
G75*
G02*
X23280000Y11387500I0J137500D01*
G01*
X23280000Y12712500D01*
G75*
G02*
X23417500Y12850000I137500J0D01*
G01*
X23692500Y12850000D01*
G75*
G02*
X23830000Y12712500I0J-137500D01*
G01*
X23830000Y11387500D01*
G75*
G02*
X23692500Y11250000I-137500J0D01*
G01*
G37*
%TD.AperFunction*%
%TO.P,U1,2*%
%TO.N,Net-(SW2-Pad1)*%
%TA.AperFunction,SMDPad,CuDef*%
G36*
G01*
X24962500Y11250000D02*
X24687500Y11250000D01*
G75*
G02*
X24550000Y11387500I0J137500D01*
G01*
X24550000Y12712500D01*
G75*
G02*
X24687500Y12850000I137500J0D01*
G01*
X24962500Y12850000D01*
G75*
G02*
X25100000Y12712500I0J-137500D01*
G01*
X25100000Y11387500D01*
G75*
G02*
X24962500Y11250000I-137500J0D01*
G01*
G37*
%TD.AperFunction*%
%TO.P,U1,3*%
%TO.N,Net-(SW3-Pad1)*%
%TA.AperFunction,SMDPad,CuDef*%
G36*
G01*
X26232500Y11250000D02*
X25957500Y11250000D01*
G75*
G02*
X25820000Y11387500I0J137500D01*
G01*
X25820000Y12712500D01*
G75*
G02*
X25957500Y12850000I137500J0D01*
G01*
X26232500Y12850000D01*
G75*
G02*
X26370000Y12712500I0J-137500D01*
G01*
X26370000Y11387500D01*
G75*
G02*
X26232500Y11250000I-137500J0D01*
G01*
G37*
%TD.AperFunction*%
%TO.P,U1,4*%
%TO.N,Net-(SW4-Pad1)*%
%TA.AperFunction,SMDPad,CuDef*%
G36*
G01*
X27502500Y11250000D02*
X27227500Y11250000D01*
G75*
G02*
X27090000Y11387500I0J137500D01*
G01*
X27090000Y12712500D01*
G75*
G02*
X27227500Y12850000I137500J0D01*
G01*
X27502500Y12850000D01*
G75*
G02*
X27640000Y12712500I0J-137500D01*
G01*
X27640000Y11387500D01*
G75*
G02*
X27502500Y11250000I-137500J0D01*
G01*
G37*
%TD.AperFunction*%
%TO.P,U1,5*%
%TO.N,Net-(SW5-Pad1)*%
%TA.AperFunction,SMDPad,CuDef*%
G36*
G01*
X28772500Y11250000D02*
X28497500Y11250000D01*
G75*
G02*
X28360000Y11387500I0J137500D01*
G01*
X28360000Y12712500D01*
G75*
G02*
X28497500Y12850000I137500J0D01*
G01*
X28772500Y12850000D01*
G75*
G02*
X28910000Y12712500I0J-137500D01*
G01*
X28910000Y11387500D01*
G75*
G02*
X28772500Y11250000I-137500J0D01*
G01*
G37*
%TD.AperFunction*%
%TO.P,U1,6*%
%TO.N,Net-(U1-Pad6)*%
%TA.AperFunction,SMDPad,CuDef*%
G36*
G01*
X30042500Y11250000D02*
X29767500Y11250000D01*
G75*
G02*
X29630000Y11387500I0J137500D01*
G01*
X29630000Y12712500D01*
G75*
G02*
X29767500Y12850000I137500J0D01*
G01*
X30042500Y12850000D01*
G75*
G02*
X30180000Y12712500I0J-137500D01*
G01*
X30180000Y11387500D01*
G75*
G02*
X30042500Y11250000I-137500J0D01*
G01*
G37*
%TD.AperFunction*%
%TO.P,U1,7*%
%TO.N,Net-(U1-Pad7)*%
%TA.AperFunction,SMDPad,CuDef*%
G36*
G01*
X31312500Y11250000D02*
X31037500Y11250000D01*
G75*
G02*
X30900000Y11387500I0J137500D01*
G01*
X30900000Y12712500D01*
G75*
G02*
X31037500Y12850000I137500J0D01*
G01*
X31312500Y12850000D01*
G75*
G02*
X31450000Y12712500I0J-137500D01*
G01*
X31450000Y11387500D01*
G75*
G02*
X31312500Y11250000I-137500J0D01*
G01*
G37*
%TD.AperFunction*%
%TO.P,U1,8*%
%TO.N,GND*%
%TA.AperFunction,SMDPad,CuDef*%
G36*
G01*
X32582500Y11250000D02*
X32307500Y11250000D01*
G75*
G02*
X32170000Y11387500I0J137500D01*
G01*
X32170000Y12712500D01*
G75*
G02*
X32307500Y12850000I137500J0D01*
G01*
X32582500Y12850000D01*
G75*
G02*
X32720000Y12712500I0J-137500D01*
G01*
X32720000Y11387500D01*
G75*
G02*
X32582500Y11250000I-137500J0D01*
G01*
G37*
%TD.AperFunction*%
%TO.P,U1,9*%
%TO.N,BTN_DOUT*%
%TA.AperFunction,SMDPad,CuDef*%
G36*
G01*
X32582500Y17750000D02*
X32307500Y17750000D01*
G75*
G02*
X32170000Y17887500I0J137500D01*
G01*
X32170000Y19212500D01*
G75*
G02*
X32307500Y19350000I137500J0D01*
G01*
X32582500Y19350000D01*
G75*
G02*
X32720000Y19212500I0J-137500D01*
G01*
X32720000Y17887500D01*
G75*
G02*
X32582500Y17750000I-137500J0D01*
G01*
G37*
%TD.AperFunction*%
%TO.P,U1,10*%
%TO.N,+5V*%
%TA.AperFunction,SMDPad,CuDef*%
G36*
G01*
X31312500Y17750000D02*
X31037500Y17750000D01*
G75*
G02*
X30900000Y17887500I0J137500D01*
G01*
X30900000Y19212500D01*
G75*
G02*
X31037500Y19350000I137500J0D01*
G01*
X31312500Y19350000D01*
G75*
G02*
X31450000Y19212500I0J-137500D01*
G01*
X31450000Y17887500D01*
G75*
G02*
X31312500Y17750000I-137500J0D01*
G01*
G37*
%TD.AperFunction*%
%TO.P,U1,11*%
%TO.N,BTN_CLK*%
%TA.AperFunction,SMDPad,CuDef*%
G36*
G01*
X30042500Y17750000D02*
X29767500Y17750000D01*
G75*
G02*
X29630000Y17887500I0J137500D01*
G01*
X29630000Y19212500D01*
G75*
G02*
X29767500Y19350000I137500J0D01*
G01*
X30042500Y19350000D01*
G75*
G02*
X30180000Y19212500I0J-137500D01*
G01*
X30180000Y17887500D01*
G75*
G02*
X30042500Y17750000I-137500J0D01*
G01*
G37*
%TD.AperFunction*%
%TO.P,U1,12*%
%TA.AperFunction,SMDPad,CuDef*%
G36*
G01*
X28772500Y17750000D02*
X28497500Y17750000D01*
G75*
G02*
X28360000Y17887500I0J137500D01*
G01*
X28360000Y19212500D01*
G75*
G02*
X28497500Y19350000I137500J0D01*
G01*
X28772500Y19350000D01*
G75*
G02*
X28910000Y19212500I0J-137500D01*
G01*
X28910000Y17887500D01*
G75*
G02*
X28772500Y17750000I-137500J0D01*
G01*
G37*
%TD.AperFunction*%
%TO.P,U1,13*%
%TO.N,GND*%
%TA.AperFunction,SMDPad,CuDef*%
G36*
G01*
X27502500Y17750000D02*
X27227500Y17750000D01*
G75*
G02*
X27090000Y17887500I0J137500D01*
G01*
X27090000Y19212500D01*
G75*
G02*
X27227500Y19350000I137500J0D01*
G01*
X27502500Y19350000D01*
G75*
G02*
X27640000Y19212500I0J-137500D01*
G01*
X27640000Y17887500D01*
G75*
G02*
X27502500Y17750000I-137500J0D01*
G01*
G37*
%TD.AperFunction*%
%TO.P,U1,14*%
%TO.N,BTN_DIN*%
%TA.AperFunction,SMDPad,CuDef*%
G36*
G01*
X26232500Y17750000D02*
X25957500Y17750000D01*
G75*
G02*
X25820000Y17887500I0J137500D01*
G01*
X25820000Y19212500D01*
G75*
G02*
X25957500Y19350000I137500J0D01*
G01*
X26232500Y19350000D01*
G75*
G02*
X26370000Y19212500I0J-137500D01*
G01*
X26370000Y17887500D01*
G75*
G02*
X26232500Y17750000I-137500J0D01*
G01*
G37*
%TD.AperFunction*%
%TO.P,U1,15*%
%TO.N,Net-(U1-Pad15)*%
%TA.AperFunction,SMDPad,CuDef*%
G36*
G01*
X24962500Y17750000D02*
X24687500Y17750000D01*
G75*
G02*
X24550000Y17887500I0J137500D01*
G01*
X24550000Y19212500D01*
G75*
G02*
X24687500Y19350000I137500J0D01*
G01*
X24962500Y19350000D01*
G75*
G02*
X25100000Y19212500I0J-137500D01*
G01*
X25100000Y17887500D01*
G75*
G02*
X24962500Y17750000I-137500J0D01*
G01*
G37*
%TD.AperFunction*%
%TO.P,U1,16*%
%TO.N,+5V*%
%TA.AperFunction,SMDPad,CuDef*%
G36*
G01*
X23692500Y17750000D02*
X23417500Y17750000D01*
G75*
G02*
X23280000Y17887500I0J137500D01*
G01*
X23280000Y19212500D01*
G75*
G02*
X23417500Y19350000I137500J0D01*
G01*
X23692500Y19350000D01*
G75*
G02*
X23830000Y19212500I0J-137500D01*
G01*
X23830000Y17887500D01*
G75*
G02*
X23692500Y17750000I-137500J0D01*
G01*
G37*
%TD.AperFunction*%
%TD*%
%TO.P,SW5,1*%
%TO.N,Net-(SW5-Pad1)*%
X184040000Y8740000D03*
%TO.P,SW5,2*%
%TO.N,BTN_SENSE*%
X184040000Y3660000D03*
%TO.P,SW5,1*%
%TO.N,Net-(SW5-Pad1)*%
X192960000Y8740000D03*
%TO.P,SW5,2*%
%TO.N,BTN_SENSE*%
X192960000Y3660000D03*
%TD*%
D10*
%TO.P,J2,1*%
%TO.N,+5V*%
X34850000Y2900000D03*
%TO.P,J2,2*%
%TO.N,BTN_CLK*%
X32310000Y2900000D03*
%TO.P,J2,3*%
%TO.N,GND*%
X29770000Y2900000D03*
%TO.P,J2,4*%
%TO.N,BTN_DOUT*%
X27230000Y2900000D03*
%TO.P,J2,5*%
%TO.N,LED_DOUT*%
X24690000Y2900000D03*
%TO.P,J2,6*%
%TO.N,BTN_SENSE*%
X22150000Y2900000D03*
%TD*%
D14*
%TO.N,+5V*%
X45280000Y5900000D03*
X45300000Y18175010D03*
D15*
%TO.N,GND*%
X15500000Y15000000D03*
X15500000Y14000000D03*
X15500000Y13000000D03*
X14500000Y13000000D03*
X14500000Y14000000D03*
X14500000Y15000000D03*
X5500000Y24000000D03*
X5500000Y23000000D03*
X4500000Y23000000D03*
X3500000Y23000000D03*
X3500000Y24000000D03*
X4500000Y24000000D03*
X13000000Y24000000D03*
X13000000Y23000000D03*
X14000000Y23000000D03*
X15000000Y23000000D03*
X15000000Y24000000D03*
X14000000Y24000000D03*
X16500000Y3500000D03*
X17500000Y3500000D03*
X18500000Y3500000D03*
X18500000Y2500000D03*
X17500000Y2500000D03*
X16500000Y2500000D03*
X44000000Y24000000D03*
X45000000Y24000000D03*
X46000000Y24000000D03*
X46000000Y23000000D03*
X45000000Y23000000D03*
X44000000Y23000000D03*
X19000000Y9500000D03*
X20000000Y9500000D03*
X21000000Y9500000D03*
X21000000Y8500000D03*
X20000000Y8500000D03*
X19000000Y8500000D03*
X6000000Y12500000D03*
X6000000Y11500000D03*
X7000000Y12500000D03*
X8000000Y12500000D03*
X8000000Y11500000D03*
X7000000Y11500000D03*
X41000000Y1500000D03*
X42000000Y1500000D03*
X43000000Y1500000D03*
X44000000Y1500000D03*
X83000000Y18500000D03*
X84500000Y18500000D03*
X86000000Y18500000D03*
X87500000Y18500000D03*
X83000000Y17000000D03*
X84500000Y17000000D03*
X86000000Y17000000D03*
X87500000Y17000000D03*
X64000000Y5000000D03*
X65500000Y5000000D03*
X67000000Y5000000D03*
X64000000Y3500000D03*
X65500000Y3500000D03*
X67000000Y3500000D03*
X84000000Y5000000D03*
X85500000Y5000000D03*
X87000000Y5000000D03*
X84000000Y3500000D03*
X85500000Y3500000D03*
X87000000Y3500000D03*
X128000000Y18500000D03*
X129500000Y18500000D03*
X131000000Y18500000D03*
X132500000Y18500000D03*
X128000000Y17000000D03*
X129500000Y17000000D03*
X131000000Y17000000D03*
X132500000Y17000000D03*
X110500000Y5500000D03*
X112000000Y5500000D03*
X113500000Y5500000D03*
X110500000Y4000000D03*
X112000000Y4000000D03*
X113500000Y4000000D03*
X129000000Y5500000D03*
X130500000Y5500000D03*
X129000000Y4000000D03*
X130500000Y4000000D03*
X132000000Y4000000D03*
X132000000Y5500000D03*
X174500000Y19000000D03*
X173000000Y19000000D03*
X176500000Y19000000D03*
X178000000Y19000000D03*
X178000000Y17500000D03*
X176500000Y17500000D03*
X174500000Y17500000D03*
X173000000Y17500000D03*
X156000000Y6000000D03*
X157500000Y6000000D03*
X159000000Y6000000D03*
X159000000Y4500000D03*
X157500000Y4500000D03*
X156000000Y4500000D03*
X172500000Y6500000D03*
X174000000Y6500000D03*
X175500000Y6500000D03*
X172500000Y5000000D03*
X174000000Y5000000D03*
X175500000Y5000000D03*
X148000000Y15500000D03*
X149000000Y15500000D03*
X150000000Y15500000D03*
X182000000Y14500000D03*
X183000000Y14500000D03*
X184000000Y14500000D03*
X103500000Y15500000D03*
X104500000Y15500000D03*
X105500000Y15500000D03*
D14*
%TO.N,Net-(D1-Pad2)*%
X18800000Y19800000D03*
X47300000Y19800000D03*
%TO.N,LED_DOUT*%
X37700000Y8100000D03*
X24700000Y8100000D03*
%TO.N,BTN_CLK*%
X43000000Y8100000D03*
X43000000Y18200000D03*
%TO.N,BTN_SENSE*%
X16900000Y6200000D03*
X45300000Y3500000D03*
X22100000Y6100000D03*
X17030000Y22090000D03*
%TO.N,BTN_DOUT*%
X40700000Y8100000D03*
X40700000Y18200000D03*
%TD*%
D16*
%TO.N,+5V*%
X23500000Y17500000D02*
X23500000Y18400000D01*
X23500000Y17500000D02*
X23500000Y19030000D01*
X31140001Y16099999D02*
X31140001Y19130001D01*
D17*
X35400000Y22000000D02*
X35550000Y21850000D01*
X35200000Y22000000D02*
X35400000Y22000000D01*
X35200000Y22000000D02*
X35200000Y21810000D01*
D16*
X192549991Y17850009D02*
X192500000Y17900000D01*
D18*
X192300000Y17900000D02*
X192449991Y17750008D01*
X191450000Y17900000D02*
X192300000Y17900000D01*
X192449991Y17750008D02*
X192449991Y16728539D01*
X192449991Y16728539D02*
X192449619Y16728539D01*
X190721080Y15000000D02*
X191060540Y15339460D01*
X189987500Y15000000D02*
X190721080Y15000000D01*
X192449619Y16728539D02*
X191060540Y15339460D01*
X181418490Y11800000D02*
X187521080Y11800000D01*
X179593501Y13624990D02*
X181418490Y11800000D01*
X171613501Y13624990D02*
X179593501Y13624990D01*
X167938481Y17300010D02*
X171613501Y13624990D01*
X164061520Y17300010D02*
X167938481Y17300010D01*
X160086500Y13324990D02*
X164061520Y17300010D01*
X187521080Y11800000D02*
X191060540Y15339460D01*
X145275010Y13324990D02*
X145275010Y16375010D01*
X145275010Y13324990D02*
X160086500Y13324990D01*
X137375010Y13324990D02*
X145275010Y13324990D01*
X145275010Y16375010D02*
X146800000Y17900000D01*
X137375010Y13324990D02*
X126913500Y13324990D01*
X126913500Y13324990D02*
X123138481Y17100010D01*
X123138481Y17100010D02*
X119400000Y17100010D01*
X99987500Y13612480D02*
X100274990Y13324990D01*
X99987500Y15000000D02*
X99987500Y13612480D01*
X119400000Y17100010D02*
X118629990Y17100010D01*
X118501520Y17100010D02*
X118629990Y17100010D01*
X101140000Y13310000D02*
X114711510Y13310000D01*
X114711510Y13310000D02*
X118501520Y17100010D01*
X100274990Y13324990D02*
X101125010Y13324990D01*
X101125010Y13324990D02*
X101140000Y13310000D01*
X99987500Y15000000D02*
X99987500Y15957500D01*
X99987500Y15957500D02*
X101890000Y17860000D01*
X56450000Y17900000D02*
X55910000Y17900000D01*
X56450000Y17900000D02*
X56900000Y17900000D01*
X87165010Y13324990D02*
X100274990Y13324990D01*
X73066500Y16354990D02*
X73851520Y17140010D01*
X77958481Y17140010D02*
X81773500Y13324990D01*
X73851520Y17140010D02*
X77958481Y17140010D01*
X81773500Y13324990D02*
X87165010Y13324990D01*
X73066500Y16354990D02*
X73046499Y16354990D01*
X63622432Y16354990D02*
X73046499Y16354990D01*
X63617441Y16349999D02*
X63622432Y16354990D01*
D16*
X23500000Y16700000D02*
X23500000Y17500000D01*
X23400011Y16799989D02*
X23500000Y16700000D01*
D18*
X45300000Y18175010D02*
X45300000Y16400000D01*
X46625011Y16349999D02*
X45249999Y16349999D01*
X45300000Y16400000D02*
X45249999Y16349999D01*
X56930000Y17830000D02*
X59730000Y17830000D01*
X56450000Y17900000D02*
X56450000Y16850000D01*
X56450000Y16850000D02*
X56950001Y16349999D01*
X46625011Y16349999D02*
X56950001Y16349999D01*
X56950001Y16349999D02*
X63617441Y16349999D01*
D17*
X34900000Y2900000D02*
X35249990Y3249990D01*
X34850000Y2900000D02*
X34900000Y2900000D01*
X43356047Y5900000D02*
X45280000Y5900000D01*
X40706037Y3249990D02*
X43356047Y5900000D01*
X35249990Y3249990D02*
X40706037Y3249990D01*
D18*
X24600000Y15600000D02*
X23500000Y16700000D01*
X23400011Y16799989D02*
X23130011Y16529989D01*
X13470011Y16529989D02*
X12200000Y17800000D01*
X21600000Y16700000D02*
X21429989Y16529989D01*
X21600000Y17287500D02*
X21600000Y16700000D01*
X23130011Y16529989D02*
X21429989Y16529989D01*
X21429989Y16529989D02*
X13470011Y16529989D01*
X11940022Y15000000D02*
X13470011Y16529989D01*
X9987500Y15000000D02*
X11940022Y15000000D01*
D17*
X35200000Y21600000D02*
X35249989Y21550011D01*
X35200000Y22000000D02*
X35200000Y21600000D01*
X45300000Y18934002D02*
X45300000Y18175010D01*
X42683991Y21550011D02*
X45300000Y18934002D01*
X35249989Y21550011D02*
X42683991Y21550011D01*
D18*
X33000000Y15600000D02*
X24600000Y15600000D01*
X33700000Y15600000D02*
X33000000Y15600000D01*
X34000038Y15600000D02*
X33000000Y15600000D01*
X41550001Y16349999D02*
X40849999Y16349999D01*
X45249999Y16349999D02*
X41550001Y16349999D01*
X39949999Y16349999D02*
X39885999Y16349999D01*
X38836017Y17399981D02*
X35738489Y17399981D01*
X34738500Y16338462D02*
X34000038Y15600000D01*
X34738500Y16399992D02*
X34738500Y16338462D01*
X35738489Y17399981D02*
X34738500Y16399992D01*
X39885999Y16349999D02*
X40550001Y16349999D01*
X38836017Y17399981D02*
X39885999Y16349999D01*
X41550001Y16349999D02*
X40550001Y16349999D01*
X40550001Y16349999D02*
X39949999Y16349999D01*
D16*
%TO.N,GND*%
X27365000Y18550000D02*
X27365000Y19075000D01*
X27365000Y19075000D02*
X27360000Y19070000D01*
X27360000Y19070000D02*
X27360000Y18030000D01*
X27365000Y19420649D02*
X28244351Y20300000D01*
X27365000Y18550000D02*
X27365000Y19420649D01*
X28244351Y20300000D02*
X28700000Y20300000D01*
X28700000Y20300000D02*
X30000000Y21600000D01*
D18*
%TO.N,Net-(D1-Pad2)*%
X15008481Y20800010D02*
X12110000Y20800010D01*
X16228491Y19580000D02*
X15008481Y20800010D01*
X18760000Y19580000D02*
X16728491Y19580000D01*
X18760000Y19580000D02*
X16228491Y19580000D01*
X49200000Y17900000D02*
X47300000Y19800000D01*
X50550000Y17900000D02*
X49200000Y17900000D01*
%TO.N,Net-(D2-Pad2)*%
X63500000Y21080000D02*
X56560000Y21080000D01*
X72528019Y17655000D02*
X66925000Y17655000D01*
X73313039Y18440020D02*
X72528019Y17655000D01*
X78496962Y18440020D02*
X73313039Y18440020D01*
X82311981Y14625000D02*
X78496962Y18440020D01*
X92115000Y14625000D02*
X82311981Y14625000D01*
X95390000Y17900000D02*
X92115000Y14625000D01*
X66925000Y17655000D02*
X63500000Y21080000D01*
X95550000Y17900000D02*
X95390000Y17900000D01*
%TO.N,Net-(D3-Pad2)*%
X103540000Y21040000D02*
X102080000Y21040000D01*
X114173030Y14610010D02*
X109969990Y14610010D01*
X117963039Y18400020D02*
X114173030Y14610010D01*
X140550000Y17900000D02*
X136400000Y17900000D01*
X136400000Y17900000D02*
X133125000Y14625000D01*
X109969990Y14610010D02*
X103540000Y21040000D01*
X133125000Y14625000D02*
X127451981Y14625000D01*
X127451981Y14625000D02*
X123676962Y18400020D01*
X123676962Y18400020D02*
X117963039Y18400020D01*
%TO.N,Net-(D4-Pad2)*%
X153575000Y14625000D02*
X147400000Y20800000D01*
X159548020Y14625000D02*
X153575000Y14625000D01*
X163523039Y18600020D02*
X159548020Y14625000D01*
X182175000Y17900000D02*
X179200000Y14925000D01*
X185550000Y17900000D02*
X182175000Y17900000D01*
X179200000Y14925000D02*
X172151981Y14925000D01*
X168476962Y18600020D02*
X163523039Y18600020D01*
X172151981Y14925000D02*
X168476962Y18600020D01*
D16*
%TO.N,Net-(SW1-Pad1)*%
X12310000Y8740000D02*
X12310000Y9110000D01*
D18*
X16890000Y11440000D02*
X16740000Y11440000D01*
X16740000Y11440000D02*
X13900000Y8600000D01*
D16*
X23555000Y12050000D02*
X23555000Y11455000D01*
X23555000Y12485000D02*
X23560000Y12480000D01*
X23555000Y12050000D02*
X23555000Y12485000D01*
D18*
X16890000Y11440000D02*
X23490000Y11440000D01*
%TO.N,Net-(SW2-Pad1)*%
X49690000Y8740000D02*
X48360000Y8740000D01*
X49420000Y8740000D02*
X47010041Y11149959D01*
X49690000Y8740000D02*
X49420000Y8740000D01*
X47010041Y11149959D02*
X38980000Y11149959D01*
X38980000Y11149959D02*
X38705451Y11149959D01*
D16*
X34316905Y7249960D02*
X34961276Y7894332D01*
X27968093Y7249960D02*
X34316905Y7249960D01*
X24825000Y12050000D02*
X24825000Y10393054D01*
X24825000Y10393054D02*
X27968093Y7249960D01*
X34961276Y7894332D02*
X38283472Y11216528D01*
X24825000Y12050000D02*
X24825000Y12575000D01*
D18*
%TO.N,Net-(SW3-Pad1)*%
X94690000Y8740000D02*
X93820000Y8740000D01*
X102310000Y8740000D02*
X101780000Y8740000D01*
X102110000Y8740000D02*
X102310000Y8740000D01*
X95930000Y8740000D02*
X95270010Y9399990D01*
X102310000Y8740000D02*
X95930000Y8740000D01*
X95270010Y9399990D02*
X82890000Y9399990D01*
X77938481Y6859990D02*
X73531520Y6859990D01*
X82890000Y9399990D02*
X80478480Y9399990D01*
X80478480Y9399990D02*
X77938481Y6859990D01*
X73531520Y6859990D02*
X69965755Y10425755D01*
X69965755Y10425755D02*
X67941542Y12449969D01*
X67941542Y12449969D02*
X48320000Y12449969D01*
X48320000Y12449969D02*
X38244109Y12449969D01*
D16*
X33861266Y8349970D02*
X37961265Y12449969D01*
X37961265Y12449969D02*
X38244109Y12449969D01*
X28423732Y8349970D02*
X33861266Y8349970D01*
X26095000Y12050000D02*
X26095000Y10678702D01*
X26095000Y10678702D02*
X28423732Y8349970D01*
X26095000Y12050000D02*
X26095000Y12595000D01*
D18*
%TO.N,Net-(SW4-Pad1)*%
X147310000Y9390000D02*
X147275040Y9424960D01*
X147310000Y8740000D02*
X147310000Y9390000D01*
X147275040Y9424960D02*
X139200000Y9424960D01*
X122700000Y8300000D02*
X119200000Y8300000D01*
X139690000Y8740000D02*
X137860000Y8740000D01*
X137860000Y8740000D02*
X135900000Y10700000D01*
X125100000Y10700000D02*
X124850000Y10450000D01*
X135900000Y10700000D02*
X125100000Y10700000D01*
X124850000Y10450000D02*
X122700000Y8300000D01*
X119200000Y8300000D02*
X119200000Y8360000D01*
X116930000Y10630000D02*
X117635000Y9925000D01*
X119200000Y8360000D02*
X117635000Y9925000D01*
X79940000Y10700000D02*
X116920000Y10700000D01*
X74070000Y8160000D02*
X77400000Y8160000D01*
X77400000Y8160000D02*
X79940000Y10700000D01*
X68480023Y13749979D02*
X74070000Y8160000D01*
X48240000Y13749979D02*
X68480023Y13749979D01*
X48240000Y13749979D02*
X37847049Y13749979D01*
D19*
X37776338Y13749979D02*
X37847049Y13749979D01*
D16*
X33405629Y9449980D02*
X34050000Y10094352D01*
X28879371Y9449980D02*
X33405629Y9449980D01*
X27365000Y12050000D02*
X27365000Y10964351D01*
X27365000Y10964351D02*
X28879371Y9449980D01*
X34050000Y10094352D02*
X37805627Y13849979D01*
X27365000Y12050000D02*
X27365000Y12565000D01*
D18*
%TO.N,Net-(SW5-Pad1)*%
X183840000Y8740000D02*
X183240000Y8140000D01*
X184690000Y8740000D02*
X183840000Y8740000D01*
X184690000Y8740000D02*
X182640000Y8740000D01*
X182640000Y8740000D02*
X179055020Y12324980D01*
X179055020Y12324980D02*
X178422050Y12324980D01*
X171375018Y12324982D02*
X171375020Y12324980D01*
X171075019Y12324982D02*
X171375018Y12324982D01*
X169800000Y13600000D02*
X171075019Y12324982D01*
X170875020Y12524980D02*
X169800000Y13600000D01*
X171975018Y12324982D02*
X171975020Y12324980D01*
X171975020Y12324980D02*
X179055020Y12324980D01*
X171075019Y12324982D02*
X171975018Y12324982D01*
X167400000Y16000000D02*
X169800000Y13600000D01*
X164600000Y16000000D02*
X167400000Y16000000D01*
X160624980Y12024980D02*
X164600000Y16000000D01*
X122600000Y15800000D02*
X126375020Y12024980D01*
X119040000Y15800000D02*
X122600000Y15800000D01*
X126375020Y12024980D02*
X160624980Y12024980D01*
X119040000Y15800000D02*
X115249991Y12009990D01*
X100465020Y12024980D02*
X99275020Y12024980D01*
X100480010Y12009990D02*
X100465020Y12024980D01*
X115249991Y12009990D02*
X100480010Y12009990D01*
X99275020Y12024980D02*
X99835020Y12024980D01*
X81235020Y12024980D02*
X77420000Y15840000D01*
X99275020Y12024980D02*
X81235020Y12024980D01*
X74390000Y15840000D02*
X73604981Y15054980D01*
X73604981Y15054980D02*
X73584980Y15054980D01*
X73599989Y15049989D02*
X64155922Y15049989D01*
X74390000Y15840000D02*
X73599989Y15049989D01*
X75510000Y15840000D02*
X74390000Y15840000D01*
X77420000Y15840000D02*
X75510000Y15840000D01*
X64155922Y15049989D02*
X48240000Y15049989D01*
D16*
X29335010Y10549990D02*
X32949990Y10549990D01*
X32949990Y10549990D02*
X37449989Y15049989D01*
X28635000Y11250000D02*
X29335010Y10549990D01*
X28635000Y12050000D02*
X28635000Y11250000D01*
D18*
X48240000Y15049989D02*
X37549989Y15049989D01*
D16*
X28635000Y12050000D02*
X28635000Y12565000D01*
%TO.N,Net-(U1-Pad6)*%
X29905000Y12050000D02*
X29905000Y12595000D01*
X29905000Y12050000D02*
X29905000Y11650000D01*
%TO.N,Net-(U1-Pad7)*%
X31175000Y12050000D02*
X31175000Y12575000D01*
X31175000Y12050000D02*
X31175000Y11650000D01*
X31175000Y11650000D02*
X31160000Y11650000D01*
%TO.N,Net-(U1-Pad15)*%
X24825000Y18550000D02*
X24825000Y19025000D01*
X24825000Y19025000D02*
X24830000Y19020000D01*
X24825000Y18550000D02*
X24825000Y17925000D01*
%TO.N,LED_DIN*%
X5900000Y18000000D02*
X7400000Y19500000D01*
D18*
X14470000Y19500000D02*
X7094362Y19500000D01*
X14511706Y19393934D02*
X14505639Y19400001D01*
X7130001Y19400001D02*
X5940000Y18210000D01*
X16075641Y17829999D02*
X15452820Y18452820D01*
X15452820Y18452820D02*
X14511706Y19393934D01*
X20520012Y18750010D02*
X19600001Y17829999D01*
X21593651Y18750010D02*
X20520012Y18750010D01*
X23370010Y20180010D02*
X23023651Y20180010D01*
X24350001Y21310001D02*
X24350001Y21160001D01*
X25040000Y22000000D02*
X24350001Y21310001D01*
X24350001Y21160001D02*
X23370010Y20180010D01*
X23023651Y20180010D02*
X21593651Y18750010D01*
X19600001Y17829999D02*
X16075641Y17829999D01*
X19600001Y17829999D02*
X16575641Y17829999D01*
D16*
%TO.N,LED_DOUT*%
X191450000Y21100000D02*
X191580002Y21100000D01*
D18*
X105495010Y7952991D02*
X105495010Y7974930D01*
X106942009Y9399990D02*
X105495010Y7952991D01*
X117690000Y8031510D02*
X116321520Y9399990D01*
X117690000Y7971509D02*
X117690000Y8031510D01*
X118661519Y6999990D02*
X117690000Y7971509D01*
X181300000Y8157981D02*
X181300000Y8241510D01*
X190379971Y12820029D02*
X190379599Y12820029D01*
X191940002Y21100000D02*
X193750001Y19290001D01*
X161875030Y10724970D02*
X153986479Y10724970D01*
X188511010Y9888990D02*
X185462009Y6839990D01*
X190379599Y12820029D02*
X188511010Y10951440D01*
X185462009Y6839990D02*
X182617991Y6839990D01*
X193750000Y16190058D02*
X190379971Y12820029D01*
X188511010Y10951440D02*
X188511010Y9888990D01*
X191450000Y21100000D02*
X191940002Y21100000D01*
X170324970Y11024970D02*
X167200000Y7900000D01*
X182617991Y6839990D02*
X181300000Y8157981D01*
X164700000Y7900000D02*
X161875030Y10724970D01*
X181300000Y8241510D02*
X178516540Y11024970D01*
X123238481Y6999990D02*
X118661519Y6999990D01*
X116321520Y9399990D02*
X106942009Y9399990D01*
X178516540Y11024970D02*
X170324970Y11024970D01*
X193750001Y19290001D02*
X193750000Y16190058D01*
X167200000Y7900000D02*
X164700000Y7900000D01*
X153986479Y10724970D02*
X150101499Y6839990D01*
X150101499Y6839990D02*
X137617991Y6839990D01*
X137617991Y6839990D02*
X135057991Y9399990D01*
X135057991Y9399990D02*
X125638480Y9399990D01*
X125638480Y9399990D02*
X123238481Y6999990D01*
X44608032Y9849949D02*
X38613963Y9849949D01*
X47617991Y6839990D02*
X44608032Y9849949D01*
X51379990Y6839990D02*
X47617991Y6839990D01*
X92580010Y6839990D02*
X91320020Y8099980D01*
X81016962Y8099980D02*
X78476962Y5559980D01*
X67849990Y10640010D02*
X67340041Y11149959D01*
X37700000Y8935986D02*
X37700000Y8100000D01*
X67340041Y11149959D02*
X55689959Y11149959D01*
X105495010Y7952991D02*
X104382009Y6839990D01*
X67913010Y10640010D02*
X67849990Y10640010D01*
X104382009Y6839990D02*
X92580010Y6839990D01*
X78476962Y5559980D02*
X72993039Y5559980D01*
X38613963Y9849949D02*
X37700000Y8935986D01*
X72993039Y5559980D02*
X67913010Y10640010D01*
X91320020Y8099980D02*
X81016962Y8099980D01*
X55689959Y11149959D02*
X51379990Y6839990D01*
D17*
X24690000Y8090000D02*
X24700000Y8100000D01*
X24690000Y2900000D02*
X24690000Y8090000D01*
D18*
%TO.N,BTN_DIN*%
X27580000Y22000000D02*
X27580000Y21410000D01*
D16*
X27580000Y21191298D02*
X26095000Y19706298D01*
X27580000Y22000000D02*
X27580000Y21191298D01*
X26095000Y19925000D02*
X26095000Y19295000D01*
X26095000Y19706298D02*
X26095000Y19295000D01*
X26095000Y19295000D02*
X26095000Y17895000D01*
D18*
%TO.N,BTN_CLK*%
X43000000Y18400000D02*
X43000000Y18200000D01*
X32660000Y22000000D02*
X32660000Y21460000D01*
D16*
X28640000Y19140000D02*
X28640000Y17960000D01*
X28650000Y17950000D02*
X29875000Y17950000D01*
X29860000Y18550000D02*
X29870000Y18540000D01*
X28655000Y19150000D02*
X29890000Y19150000D01*
X28635000Y18550000D02*
X29860000Y18550000D01*
D18*
X43000000Y7824798D02*
X43000000Y8100000D01*
X43000000Y7735998D02*
X43000000Y8100000D01*
D16*
X32310000Y2900000D02*
X32800000Y2900000D01*
X29880000Y19425649D02*
X29880000Y19390000D01*
X29880000Y19425649D02*
X29880000Y17940000D01*
X30670011Y20230011D02*
X30670011Y20215660D01*
X30670011Y20215660D02*
X29880000Y19425649D01*
X32660000Y20444366D02*
X32445645Y20230011D01*
X32445645Y20230011D02*
X30670011Y20230011D01*
X32310000Y2900000D02*
X32310000Y3010000D01*
D17*
X32660000Y22000000D02*
X32660000Y21505998D01*
D18*
X43000000Y8000000D02*
X42500001Y8000000D01*
X42500001Y7600001D02*
X43000000Y8100000D01*
X42500001Y7235999D02*
X42500001Y7600001D01*
X32310000Y3010000D02*
X32949999Y3649999D01*
X32949999Y3649999D02*
X32949999Y3812001D01*
X40064002Y4800000D02*
X42500001Y7235999D01*
X32949999Y3812001D02*
X33937998Y4800000D01*
X33937998Y4800000D02*
X40064002Y4800000D01*
X32660000Y21727998D02*
X32660000Y20444366D01*
X32660000Y22000000D02*
X32660000Y21727998D01*
X41564001Y20000001D02*
X43000000Y18564002D01*
X34387997Y20000001D02*
X41564001Y20000001D01*
X33943632Y20444366D02*
X34387997Y20000001D01*
X43000000Y18564002D02*
X43000000Y18200000D01*
X32660000Y20444366D02*
X33943632Y20444366D01*
X33299999Y21087999D02*
X33299999Y21200001D01*
X33943632Y20444366D02*
X33299999Y21087999D01*
D20*
X43000000Y18200000D02*
X43000000Y18900536D01*
X43000000Y18900536D02*
X42000535Y19900001D01*
D16*
%TO.N,BTN_SENSE*%
X139690000Y3660000D02*
X137640000Y3660000D01*
X12310000Y3660000D02*
X13360000Y3660000D01*
X139690000Y3660000D02*
X139666597Y3660000D01*
X94690000Y3660000D02*
X94640000Y3660000D01*
X22500000Y22000000D02*
X22500000Y21850000D01*
D17*
X16900000Y6150000D02*
X15170000Y6150000D01*
X15170000Y6150000D02*
X12720000Y3700000D01*
D16*
X184666597Y3660000D02*
X184690000Y3660000D01*
X184690000Y3660000D02*
X183340000Y3660000D01*
D18*
X180000000Y7619491D02*
X180000000Y7703020D01*
X184690000Y3660000D02*
X183959491Y3660000D01*
X183959491Y3660000D02*
X180000000Y7619491D01*
X180000000Y7703020D02*
X177978060Y9724960D01*
X177978060Y9724960D02*
X171063450Y9724960D01*
X171063450Y9724960D02*
X170863450Y9724960D01*
X164161519Y6599990D02*
X162400000Y8361510D01*
X170863450Y9724960D02*
X167738481Y6599990D01*
X167738481Y6599990D02*
X164161519Y6599990D01*
X162400000Y8361510D02*
X161336550Y9424960D01*
X161336550Y9424960D02*
X154900000Y9424960D01*
X154900000Y9424960D02*
X154524960Y9424960D01*
X154524960Y9424960D02*
X148800000Y3700000D01*
X139690000Y3660000D02*
X138640000Y3660000D01*
X138819491Y3800000D02*
X139100000Y3800000D01*
X139690000Y3660000D02*
X138959491Y3660000D01*
X134519511Y8099980D02*
X133618471Y8099980D01*
X138959491Y3660000D02*
X134519511Y8099980D01*
X126176962Y8099980D02*
X123776962Y5699980D01*
X133618471Y8099980D02*
X126176962Y8099980D01*
X123776962Y5699980D02*
X119650000Y5699980D01*
X116390000Y7433018D02*
X116390000Y7493020D01*
X119650000Y5699980D02*
X118123038Y5699980D01*
X118123038Y5699980D02*
X116390000Y7433018D01*
X116390000Y7493020D02*
X115783040Y8099980D01*
X107480489Y8099980D02*
X103170509Y3790000D01*
X115783040Y8099980D02*
X107480489Y8099980D01*
X103170509Y3790000D02*
X101970000Y3790000D01*
X94690000Y3660000D02*
X93879726Y3660000D01*
D17*
X17120000Y22000000D02*
X17030000Y22090000D01*
X22500000Y22000000D02*
X17120000Y22000000D01*
D18*
X81555442Y6799970D02*
X90740755Y6799970D01*
X93880725Y3660000D02*
X94690000Y3660000D01*
X90740755Y6799970D02*
X93880725Y3660000D01*
X62500000Y7800000D02*
X64549949Y9849949D01*
X79015444Y4259972D02*
X81555442Y6799970D01*
X64549949Y9849949D02*
X66801560Y9849949D01*
X66801560Y9849949D02*
X72391539Y4259970D01*
X72391539Y4259970D02*
X79015443Y4259970D01*
X79015443Y4259970D02*
X79015444Y4259972D01*
X62500000Y7800000D02*
X57900000Y3200000D01*
D17*
X22150000Y6050000D02*
X22100000Y6100000D01*
X22150000Y2900000D02*
X22150000Y6050000D01*
X15220000Y6100000D02*
X15170000Y6150000D01*
X22100000Y6100000D02*
X15220000Y6100000D01*
X45460000Y3660000D02*
X45300000Y3500000D01*
X49690000Y3660000D02*
X45460000Y3660000D01*
D16*
%TO.N,BTN_DOUT*%
X40800000Y18000000D02*
X40800000Y18000000D01*
X40700000Y18700000D02*
X40600010Y18799990D01*
X40700000Y18200000D02*
X40700000Y18700000D01*
X40700000Y8100000D02*
X40700000Y8080000D01*
D19*
X28874316Y6099950D02*
X39089952Y6099950D01*
X40700000Y7709998D02*
X40700000Y8000000D01*
X27230000Y4455634D02*
X28874316Y6099950D01*
X27230000Y2900000D02*
X27230000Y4455634D01*
D18*
X40700000Y18200000D02*
X40700000Y18100000D01*
X39525522Y6100010D02*
X34864025Y6100010D01*
X40700000Y8100000D02*
X40700000Y7274488D01*
X40700000Y7274488D02*
X39525522Y6100010D01*
X28824316Y6049950D02*
X33349457Y6049950D01*
X27230000Y4455634D02*
X28824316Y6049950D01*
X27230000Y4455634D02*
X27230000Y2730000D01*
D16*
X32510000Y19120000D02*
X32510000Y17770000D01*
X32580000Y17700000D02*
X34200018Y17700000D01*
X32510000Y17770000D02*
X32580000Y17700000D01*
D18*
X40700000Y18300000D02*
X40300009Y18699991D01*
X40700000Y18200000D02*
X40700000Y18300000D01*
X35200009Y18699991D02*
X34200018Y17700000D01*
X40300009Y18699991D02*
X35200009Y18699991D01*
%TD*%
D21*
%TO.N,GND*%
G36*
X196575000Y425000D02*
G01*
X425000Y425000D01*
X425000Y3660000D01*
X1897743Y3660000D01*
X1926705Y3365949D01*
X2012476Y3083198D01*
X2151762Y2822613D01*
X2339208Y2594208D01*
X2567613Y2406762D01*
X2828198Y2267476D01*
X3110949Y2181705D01*
X3331320Y2160000D01*
X4748680Y2160000D01*
X4969051Y2181705D01*
X5251802Y2267476D01*
X5512387Y2406762D01*
X5740792Y2594208D01*
X5928238Y2822613D01*
X6067524Y3083198D01*
X6153295Y3365949D01*
X6182257Y3660000D01*
X6153295Y3954051D01*
X6067524Y4236802D01*
X5928238Y4497387D01*
X5740792Y4725792D01*
X5512387Y4913238D01*
X5251802Y5052524D01*
X4969051Y5138295D01*
X4748680Y5160000D01*
X3331320Y5160000D01*
X3110949Y5138295D01*
X2828198Y5052524D01*
X2567613Y4913238D01*
X2339208Y4725792D01*
X2151762Y4497387D01*
X2012476Y4236802D01*
X1926705Y3954051D01*
X1897743Y3660000D01*
X425000Y3660000D01*
X425000Y8740000D01*
X1897743Y8740000D01*
X1926705Y8445949D01*
X2012476Y8163198D01*
X2151762Y7902613D01*
X2339208Y7674208D01*
X2567613Y7486762D01*
X2828198Y7347476D01*
X3110949Y7261705D01*
X3331320Y7240000D01*
X4748680Y7240000D01*
X4969051Y7261705D01*
X5251802Y7347476D01*
X5512387Y7486762D01*
X5740792Y7674208D01*
X5928238Y7902613D01*
X6067524Y8163198D01*
X6153295Y8445949D01*
X6182257Y8740000D01*
X6153295Y9034051D01*
X6067524Y9316802D01*
X5928238Y9577387D01*
X5740792Y9805792D01*
X5512387Y9993238D01*
X5251802Y10132524D01*
X4969051Y10218295D01*
X4748680Y10240000D01*
X3331320Y10240000D01*
X3110949Y10218295D01*
X2828198Y10132524D01*
X2567613Y9993238D01*
X2339208Y9805792D01*
X2151762Y9577387D01*
X2012476Y9316802D01*
X1926705Y9034051D01*
X1897743Y8740000D01*
X425000Y8740000D01*
X425000Y14137888D01*
X1600000Y14137888D01*
X1600000Y13862112D01*
X1653801Y13591635D01*
X1759336Y13336851D01*
X1912549Y13107552D01*
X2107552Y12912549D01*
X2336851Y12759336D01*
X2591635Y12653801D01*
X2862112Y12600000D01*
X3137888Y12600000D01*
X3408365Y12653801D01*
X3663149Y12759336D01*
X3892448Y12912549D01*
X4087451Y13107552D01*
X4240664Y13336851D01*
X4346199Y13591635D01*
X4400000Y13862112D01*
X4400000Y14137888D01*
X4346199Y14408365D01*
X4240664Y14663149D01*
X4087451Y14892448D01*
X3892448Y15087451D01*
X3663149Y15240664D01*
X3408365Y15346199D01*
X3137888Y15400000D01*
X2862112Y15400000D01*
X2591635Y15346199D01*
X2336851Y15240664D01*
X2107552Y15087451D01*
X1912549Y14892448D01*
X1759336Y14663149D01*
X1653801Y14408365D01*
X1600000Y14137888D01*
X425000Y14137888D01*
X425000Y18650000D01*
X3648065Y18650000D01*
X3648065Y17150000D01*
X3655788Y17071586D01*
X3678660Y16996186D01*
X3715803Y16926697D01*
X3765789Y16865789D01*
X3826697Y16815803D01*
X3896186Y16778660D01*
X3971586Y16755788D01*
X4050000Y16748065D01*
X7050000Y16748065D01*
X7128414Y16755788D01*
X7203814Y16778660D01*
X7273303Y16815803D01*
X7334211Y16865789D01*
X7384197Y16926697D01*
X7421340Y16996186D01*
X7444212Y17071586D01*
X7451935Y17150000D01*
X7451935Y18420564D01*
X7631371Y18600000D01*
X9548065Y18600000D01*
X9548065Y17150000D01*
X9555788Y17071586D01*
X9578660Y16996186D01*
X9615803Y16926697D01*
X9665789Y16865789D01*
X9726697Y16815803D01*
X9796186Y16778660D01*
X9871586Y16755788D01*
X9950000Y16748065D01*
X11979143Y16748065D01*
X12197219Y16529989D01*
X11567230Y15900000D01*
X11038671Y15900000D01*
X10992064Y15987196D01*
X10910988Y16085988D01*
X10812196Y16167064D01*
X10699485Y16227309D01*
X10577186Y16264408D01*
X10450000Y16276935D01*
X9525000Y16276935D01*
X9397814Y16264408D01*
X9275515Y16227309D01*
X9162804Y16167064D01*
X9064012Y16085988D01*
X8982936Y15987196D01*
X8922691Y15874485D01*
X8885592Y15752186D01*
X8873065Y15625000D01*
X8873065Y14375000D01*
X8885592Y14247814D01*
X8922691Y14125515D01*
X8982936Y14012804D01*
X9064012Y13914012D01*
X9162804Y13832936D01*
X9275515Y13772691D01*
X9397814Y13735592D01*
X9525000Y13723065D01*
X10450000Y13723065D01*
X10577186Y13735592D01*
X10699485Y13772691D01*
X10812196Y13832936D01*
X10910988Y13914012D01*
X10992064Y14012804D01*
X11038671Y14100000D01*
X11895816Y14100000D01*
X11940022Y14095646D01*
X11984228Y14100000D01*
X11984229Y14100000D01*
X12116453Y14113023D01*
X12286103Y14164486D01*
X12442454Y14248057D01*
X12579497Y14360525D01*
X12607679Y14394865D01*
X13842804Y15629989D01*
X21385783Y15629989D01*
X21429989Y15625635D01*
X21474195Y15629989D01*
X23085805Y15629989D01*
X23130011Y15625635D01*
X23174217Y15629989D01*
X23174218Y15629989D01*
X23286191Y15641017D01*
X23932343Y14994865D01*
X23960525Y14960525D01*
X24097568Y14848057D01*
X24253919Y14764486D01*
X24423569Y14713023D01*
X24465441Y14708899D01*
X24600000Y14695646D01*
X24644206Y14700000D01*
X33955832Y14700000D01*
X34000038Y14695646D01*
X34044244Y14700000D01*
X34044245Y14700000D01*
X34176469Y14713023D01*
X34346119Y14764486D01*
X34502470Y14848057D01*
X34639513Y14960525D01*
X34667695Y14994865D01*
X35343640Y15670809D01*
X35377975Y15698987D01*
X35421635Y15752186D01*
X35490443Y15836030D01*
X35539948Y15928647D01*
X36111282Y16499981D01*
X38463225Y16499981D01*
X39013217Y15949989D01*
X37505782Y15949989D01*
X37373558Y15936966D01*
X37203908Y15885503D01*
X37047557Y15801932D01*
X36910514Y15689464D01*
X36798046Y15552421D01*
X36771631Y15503002D01*
X32618620Y11349990D01*
X32092970Y11349990D01*
X32100000Y13599688D01*
X32097869Y13620532D01*
X32091983Y13639231D01*
X32082562Y13656422D01*
X32069968Y13671445D01*
X32054686Y13683723D01*
X32037301Y13692783D01*
X32018484Y13698277D01*
X31998956Y13699995D01*
X22423956Y13599995D01*
X22406718Y13598315D01*
X22387889Y13592859D01*
X22370487Y13583835D01*
X22355179Y13571589D01*
X22342554Y13556592D01*
X22333098Y13539420D01*
X22327173Y13520733D01*
X22325008Y13501250D01*
X22310492Y12340000D01*
X16784207Y12340000D01*
X16740000Y12344354D01*
X16563569Y12326977D01*
X16393918Y12275514D01*
X16246997Y12196983D01*
X16237568Y12191943D01*
X16100525Y12079475D01*
X16072343Y12045135D01*
X14162541Y10135333D01*
X13889051Y10218295D01*
X13668680Y10240000D01*
X12251320Y10240000D01*
X12030949Y10218295D01*
X11748198Y10132524D01*
X11487613Y9993238D01*
X11259208Y9805792D01*
X11071762Y9577387D01*
X10932476Y9316802D01*
X10846705Y9034051D01*
X10817743Y8740000D01*
X10846705Y8445949D01*
X10932476Y8163198D01*
X11071762Y7902613D01*
X11259208Y7674208D01*
X11487613Y7486762D01*
X11748198Y7347476D01*
X12030949Y7261705D01*
X12251320Y7240000D01*
X13668680Y7240000D01*
X13889051Y7261705D01*
X14171802Y7347476D01*
X14432387Y7486762D01*
X14660792Y7674208D01*
X14848238Y7902613D01*
X14987524Y8163198D01*
X15073295Y8445949D01*
X15079255Y8506463D01*
X17112792Y10540000D01*
X22287992Y10540000D01*
X22275008Y9501250D01*
X22277130Y9479472D01*
X22283015Y9460773D01*
X22292435Y9443581D01*
X22305029Y9428558D01*
X22320311Y9416280D01*
X22337695Y9407219D01*
X22356512Y9401724D01*
X22376040Y9400005D01*
X24226590Y9419256D01*
X24036851Y9340664D01*
X23807552Y9187451D01*
X23612549Y8992448D01*
X23459336Y8763149D01*
X23353801Y8508365D01*
X23300000Y8237888D01*
X23300000Y7962112D01*
X23353801Y7691635D01*
X23459336Y7436851D01*
X23540001Y7316128D01*
X23540000Y3871320D01*
X23524874Y3856194D01*
X23420000Y3699240D01*
X23315126Y3856194D01*
X23300000Y3871320D01*
X23300000Y5375993D01*
X23340664Y5436851D01*
X23446199Y5691635D01*
X23500000Y5962112D01*
X23500000Y6237888D01*
X23446199Y6508365D01*
X23340664Y6763149D01*
X23187451Y6992448D01*
X22992448Y7187451D01*
X22763149Y7340664D01*
X22508365Y7446199D01*
X22237888Y7500000D01*
X21962112Y7500000D01*
X21691635Y7446199D01*
X21436851Y7340664D01*
X21301163Y7250000D01*
X17829899Y7250000D01*
X17792448Y7287451D01*
X17563149Y7440664D01*
X17308365Y7546199D01*
X17037888Y7600000D01*
X16762112Y7600000D01*
X16491635Y7546199D01*
X16236851Y7440664D01*
X16026333Y7300000D01*
X15226482Y7300000D01*
X15170000Y7305563D01*
X15169999Y7305563D01*
X15113517Y7300000D01*
X15113508Y7300000D01*
X14944561Y7283360D01*
X14727785Y7217602D01*
X14528003Y7110816D01*
X14506456Y7093133D01*
X14396772Y7003118D01*
X14396769Y7003115D01*
X14352893Y6967107D01*
X14316884Y6923230D01*
X12553655Y5160000D01*
X12251320Y5160000D01*
X12030949Y5138295D01*
X11748198Y5052524D01*
X11487613Y4913238D01*
X11259208Y4725792D01*
X11071762Y4497387D01*
X10932476Y4236802D01*
X10846705Y3954051D01*
X10817743Y3660000D01*
X10846705Y3365949D01*
X10932476Y3083198D01*
X11071762Y2822613D01*
X11259208Y2594208D01*
X11487613Y2406762D01*
X11748198Y2267476D01*
X12030949Y2181705D01*
X12251320Y2160000D01*
X13668680Y2160000D01*
X13889051Y2181705D01*
X14171802Y2267476D01*
X14432387Y2406762D01*
X14660792Y2594208D01*
X14848238Y2822613D01*
X14987524Y3083198D01*
X15073295Y3365949D01*
X15102257Y3660000D01*
X15073295Y3954051D01*
X14987524Y4236802D01*
X14951167Y4304822D01*
X15596346Y4950000D01*
X16259390Y4950000D01*
X16491635Y4853801D01*
X16762112Y4800000D01*
X17037888Y4800000D01*
X17308365Y4853801D01*
X17540610Y4950000D01*
X21000001Y4950000D01*
X21000000Y3871320D01*
X20984874Y3856194D01*
X20820717Y3610517D01*
X20707644Y3337534D01*
X20650000Y3047737D01*
X20650000Y2752263D01*
X20707644Y2462466D01*
X20820717Y2189483D01*
X20984874Y1943806D01*
X21193806Y1734874D01*
X21439483Y1570717D01*
X21712466Y1457644D01*
X22002263Y1400000D01*
X22297737Y1400000D01*
X22587534Y1457644D01*
X22860517Y1570717D01*
X23106194Y1734874D01*
X23315126Y1943806D01*
X23420000Y2100760D01*
X23524874Y1943806D01*
X23733806Y1734874D01*
X23979483Y1570717D01*
X24252466Y1457644D01*
X24542263Y1400000D01*
X24837737Y1400000D01*
X25127534Y1457644D01*
X25400517Y1570717D01*
X25646194Y1734874D01*
X25855126Y1943806D01*
X25960000Y2100760D01*
X26064874Y1943806D01*
X26273806Y1734874D01*
X26519483Y1570717D01*
X26792466Y1457644D01*
X27082263Y1400000D01*
X27377737Y1400000D01*
X27667534Y1457644D01*
X27940517Y1570717D01*
X28186194Y1734874D01*
X28395126Y1943806D01*
X28559283Y2189483D01*
X28672356Y2462466D01*
X28730000Y2752263D01*
X28730000Y3047737D01*
X28672356Y3337534D01*
X28559283Y3610517D01*
X28395126Y3856194D01*
X28186194Y4065126D01*
X28141888Y4094730D01*
X29197108Y5149950D01*
X33015156Y5149950D01*
X32344863Y4479657D01*
X32310524Y4451476D01*
X32268279Y4400000D01*
X32162263Y4400000D01*
X31872466Y4342356D01*
X31599483Y4229283D01*
X31353806Y4065126D01*
X31144874Y3856194D01*
X30980717Y3610517D01*
X30867644Y3337534D01*
X30810000Y3047737D01*
X30810000Y2752263D01*
X30867644Y2462466D01*
X30980717Y2189483D01*
X31144874Y1943806D01*
X31353806Y1734874D01*
X31599483Y1570717D01*
X31872466Y1457644D01*
X32162263Y1400000D01*
X32457737Y1400000D01*
X32747534Y1457644D01*
X33020517Y1570717D01*
X33266194Y1734874D01*
X33475126Y1943806D01*
X33580000Y2100760D01*
X33684874Y1943806D01*
X33893806Y1734874D01*
X34139483Y1570717D01*
X34412466Y1457644D01*
X34702263Y1400000D01*
X34997737Y1400000D01*
X35287534Y1457644D01*
X35560517Y1570717D01*
X35806194Y1734874D01*
X36015126Y1943806D01*
X36119485Y2099990D01*
X40649555Y2099990D01*
X40706037Y2094427D01*
X40762519Y2099990D01*
X40762529Y2099990D01*
X40931476Y2116630D01*
X41148252Y2182388D01*
X41348034Y2289174D01*
X41523144Y2432883D01*
X41559162Y2476770D01*
X43832392Y4750000D01*
X44481163Y4750000D01*
X44565993Y4693318D01*
X44407552Y4587451D01*
X44212549Y4392448D01*
X44059336Y4163149D01*
X43953801Y3908365D01*
X43900000Y3637888D01*
X43900000Y3362112D01*
X43953801Y3091635D01*
X44059336Y2836851D01*
X44212549Y2607552D01*
X44407552Y2412549D01*
X44636851Y2259336D01*
X44891635Y2153801D01*
X45162112Y2100000D01*
X45437888Y2100000D01*
X45708365Y2153801D01*
X45963149Y2259336D01*
X46192448Y2412549D01*
X46289899Y2510000D01*
X47441816Y2510000D01*
X47567613Y2406762D01*
X47828198Y2267476D01*
X48110949Y2181705D01*
X48331320Y2160000D01*
X49748680Y2160000D01*
X49969051Y2181705D01*
X50251802Y2267476D01*
X50512387Y2406762D01*
X50740792Y2594208D01*
X50928238Y2822613D01*
X51067524Y3083198D01*
X51153295Y3365949D01*
X51182257Y3660000D01*
X51153295Y3954051D01*
X51067524Y4236802D01*
X50928238Y4497387D01*
X50740792Y4725792D01*
X50512387Y4913238D01*
X50251802Y5052524D01*
X49969051Y5138295D01*
X49748680Y5160000D01*
X48331320Y5160000D01*
X48110949Y5138295D01*
X47828198Y5052524D01*
X47567613Y4913238D01*
X47441816Y4810000D01*
X46168633Y4810000D01*
X46172448Y4812549D01*
X46367451Y5007552D01*
X46520664Y5236851D01*
X46626199Y5491635D01*
X46680000Y5762112D01*
X46680000Y6037888D01*
X46626199Y6308365D01*
X46520664Y6563149D01*
X46367451Y6792448D01*
X46172448Y6987451D01*
X45943149Y7140664D01*
X45688365Y7246199D01*
X45417888Y7300000D01*
X45142112Y7300000D01*
X44871635Y7246199D01*
X44616851Y7140664D01*
X44481163Y7050000D01*
X43929899Y7050000D01*
X44087451Y7207552D01*
X44240664Y7436851D01*
X44346199Y7691635D01*
X44400000Y7962112D01*
X44400000Y8237888D01*
X44346199Y8508365D01*
X44240664Y8763149D01*
X44115848Y8949949D01*
X44235240Y8949949D01*
X46950334Y6234855D01*
X46978516Y6200515D01*
X47115559Y6088047D01*
X47271910Y6004476D01*
X47418560Y5959990D01*
X47441560Y5953013D01*
X47617991Y5935636D01*
X47662198Y5939990D01*
X51335784Y5939990D01*
X51379990Y5935636D01*
X51424196Y5939990D01*
X51424197Y5939990D01*
X51556421Y5953013D01*
X51726071Y6004476D01*
X51882422Y6088047D01*
X52019465Y6200515D01*
X52047647Y6234855D01*
X54552792Y8740000D01*
X55817743Y8740000D01*
X55846705Y8445949D01*
X55932476Y8163198D01*
X56071762Y7902613D01*
X56259208Y7674208D01*
X56487613Y7486762D01*
X56748198Y7347476D01*
X57030949Y7261705D01*
X57251320Y7240000D01*
X58668680Y7240000D01*
X58889051Y7261705D01*
X59171802Y7347476D01*
X59432387Y7486762D01*
X59660792Y7674208D01*
X59848238Y7902613D01*
X59987524Y8163198D01*
X60073295Y8445949D01*
X60102257Y8740000D01*
X60073295Y9034051D01*
X59987524Y9316802D01*
X59848238Y9577387D01*
X59660792Y9805792D01*
X59432387Y9993238D01*
X59171802Y10132524D01*
X58889051Y10218295D01*
X58668680Y10240000D01*
X57251320Y10240000D01*
X57030949Y10218295D01*
X56748198Y10132524D01*
X56487613Y9993238D01*
X56259208Y9805792D01*
X56071762Y9577387D01*
X55932476Y9316802D01*
X55846705Y9034051D01*
X55817743Y8740000D01*
X54552792Y8740000D01*
X56062751Y10249959D01*
X63677167Y10249959D01*
X58587208Y5160000D01*
X57251320Y5160000D01*
X57030949Y5138295D01*
X56748198Y5052524D01*
X56487613Y4913238D01*
X56259208Y4725792D01*
X56071762Y4497387D01*
X55932476Y4236802D01*
X55846705Y3954051D01*
X55817743Y3660000D01*
X55846705Y3365949D01*
X55932476Y3083198D01*
X56071762Y2822613D01*
X56259208Y2594208D01*
X56487613Y2406762D01*
X56748198Y2267476D01*
X57030949Y2181705D01*
X57251320Y2160000D01*
X58668680Y2160000D01*
X58889051Y2181705D01*
X59171802Y2267476D01*
X59432387Y2406762D01*
X59660792Y2594208D01*
X59848238Y2822613D01*
X59987524Y3083198D01*
X60073295Y3365949D01*
X60102257Y3660000D01*
X60073295Y3954051D01*
X60039209Y4066417D01*
X64922741Y8949949D01*
X66428768Y8949949D01*
X71723886Y3654830D01*
X71752064Y3620495D01*
X71786399Y3592317D01*
X71786401Y3592315D01*
X71815229Y3568657D01*
X71889107Y3508027D01*
X72045458Y3424456D01*
X72215108Y3372993D01*
X72347332Y3359970D01*
X72347334Y3359970D01*
X72391538Y3355616D01*
X72435742Y3359970D01*
X78939165Y3359970D01*
X78951335Y3357892D01*
X78983471Y3358767D01*
X79015444Y3355618D01*
X79059630Y3359970D01*
X79059650Y3359970D01*
X79071882Y3361175D01*
X79128552Y3362718D01*
X79159885Y3369842D01*
X79191874Y3372993D01*
X79246143Y3389455D01*
X79301424Y3402025D01*
X79330765Y3415125D01*
X79361524Y3424456D01*
X79411543Y3451191D01*
X79463306Y3474303D01*
X79489524Y3492873D01*
X79517875Y3508027D01*
X79561718Y3544008D01*
X79607977Y3576773D01*
X79630069Y3600102D01*
X79654918Y3620495D01*
X79683105Y3654841D01*
X81928234Y5899970D01*
X90367963Y5899970D01*
X92018974Y4248959D01*
X92012476Y4236802D01*
X91926705Y3954051D01*
X91897743Y3660000D01*
X91926705Y3365949D01*
X92012476Y3083198D01*
X92151762Y2822613D01*
X92339208Y2594208D01*
X92567613Y2406762D01*
X92828198Y2267476D01*
X93110949Y2181705D01*
X93331320Y2160000D01*
X94748680Y2160000D01*
X94969051Y2181705D01*
X95251802Y2267476D01*
X95512387Y2406762D01*
X95740792Y2594208D01*
X95928238Y2822613D01*
X96067524Y3083198D01*
X96153295Y3365949D01*
X96182257Y3660000D01*
X96153295Y3954051D01*
X96067524Y4236802D01*
X95928238Y4497387D01*
X95740792Y4725792D01*
X95512387Y4913238D01*
X95251802Y5052524D01*
X94969051Y5138295D01*
X94748680Y5160000D01*
X93653518Y5160000D01*
X92873527Y5939990D01*
X104047707Y5939990D01*
X103267717Y5160000D01*
X102251320Y5160000D01*
X102030949Y5138295D01*
X101748198Y5052524D01*
X101487613Y4913238D01*
X101259208Y4725792D01*
X101071762Y4497387D01*
X100932476Y4236802D01*
X100846705Y3954051D01*
X100817743Y3660000D01*
X100846705Y3365949D01*
X100932476Y3083198D01*
X101071762Y2822613D01*
X101259208Y2594208D01*
X101487613Y2406762D01*
X101748198Y2267476D01*
X102030949Y2181705D01*
X102251320Y2160000D01*
X103668680Y2160000D01*
X103889051Y2181705D01*
X104171802Y2267476D01*
X104432387Y2406762D01*
X104660792Y2594208D01*
X104848238Y2822613D01*
X104987524Y3083198D01*
X105073295Y3365949D01*
X105102257Y3660000D01*
X105073295Y3954051D01*
X104987524Y4236802D01*
X104953590Y4300288D01*
X107853282Y7199980D01*
X115410248Y7199980D01*
X115590308Y7019919D01*
X115638057Y6930587D01*
X115750525Y6793543D01*
X115784865Y6765361D01*
X117455381Y5094845D01*
X117483563Y5060505D01*
X117620606Y4948037D01*
X117776957Y4864466D01*
X117946607Y4813003D01*
X118061216Y4801715D01*
X118123038Y4795626D01*
X118167245Y4799980D01*
X123732756Y4799980D01*
X123776962Y4795626D01*
X123821168Y4799980D01*
X123821169Y4799980D01*
X123953393Y4813003D01*
X124123043Y4864466D01*
X124279394Y4948037D01*
X124416437Y5060505D01*
X124444619Y5094845D01*
X126549754Y7199980D01*
X134146719Y7199980D01*
X137046410Y4300289D01*
X137012476Y4236802D01*
X136973788Y4109263D01*
X136971607Y4106606D01*
X136897321Y3967628D01*
X136851576Y3816827D01*
X136836130Y3660000D01*
X136851576Y3503173D01*
X136897321Y3352372D01*
X136971607Y3213394D01*
X136973788Y3210737D01*
X137012476Y3083198D01*
X137151762Y2822613D01*
X137339208Y2594208D01*
X137567613Y2406762D01*
X137828198Y2267476D01*
X138110949Y2181705D01*
X138331320Y2160000D01*
X139748680Y2160000D01*
X139969051Y2181705D01*
X140251802Y2267476D01*
X140512387Y2406762D01*
X140740792Y2594208D01*
X140928238Y2822613D01*
X141067524Y3083198D01*
X141153295Y3365949D01*
X141182257Y3660000D01*
X141153295Y3954051D01*
X141067524Y4236802D01*
X140928238Y4497387D01*
X140740792Y4725792D01*
X140512387Y4913238D01*
X140251802Y5052524D01*
X139969051Y5138295D01*
X139748680Y5160000D01*
X138732283Y5160000D01*
X137952293Y5939990D01*
X149767198Y5939990D01*
X148947709Y5120501D01*
X148889051Y5138295D01*
X148668680Y5160000D01*
X147251320Y5160000D01*
X147030949Y5138295D01*
X146748198Y5052524D01*
X146487613Y4913238D01*
X146259208Y4725792D01*
X146071762Y4497387D01*
X145932476Y4236802D01*
X145846705Y3954051D01*
X145817743Y3660000D01*
X145846705Y3365949D01*
X145932476Y3083198D01*
X146071762Y2822613D01*
X146259208Y2594208D01*
X146487613Y2406762D01*
X146748198Y2267476D01*
X147030949Y2181705D01*
X147251320Y2160000D01*
X148668680Y2160000D01*
X148889051Y2181705D01*
X149171802Y2267476D01*
X149432387Y2406762D01*
X149660792Y2594208D01*
X149848238Y2822613D01*
X149987524Y3083198D01*
X150073295Y3365949D01*
X150102257Y3660000D01*
X150096029Y3723237D01*
X154897753Y8524960D01*
X160963758Y8524960D01*
X161794862Y7693856D01*
X161794867Y7693852D01*
X163493866Y5994850D01*
X163522044Y5960515D01*
X163556379Y5932337D01*
X163556381Y5932335D01*
X163628049Y5873519D01*
X163659087Y5848047D01*
X163815438Y5764476D01*
X163907959Y5736410D01*
X163985087Y5713013D01*
X164161518Y5695636D01*
X164205725Y5699990D01*
X167694275Y5699990D01*
X167738481Y5695636D01*
X167782790Y5700000D01*
X167914912Y5713013D01*
X168084562Y5764476D01*
X168240913Y5848047D01*
X168377956Y5960515D01*
X168406138Y5994855D01*
X171236243Y8824960D01*
X177605268Y8824960D01*
X179173293Y7256934D01*
X179248057Y7117060D01*
X179360525Y6980016D01*
X179394865Y6951834D01*
X182046410Y4300289D01*
X182012476Y4236802D01*
X181926705Y3954051D01*
X181897743Y3660000D01*
X181926705Y3365949D01*
X182012476Y3083198D01*
X182151762Y2822613D01*
X182339208Y2594208D01*
X182567613Y2406762D01*
X182828198Y2267476D01*
X183110949Y2181705D01*
X183331320Y2160000D01*
X184748680Y2160000D01*
X184969051Y2181705D01*
X185251802Y2267476D01*
X185512387Y2406762D01*
X185740792Y2594208D01*
X185928238Y2822613D01*
X186067524Y3083198D01*
X186153295Y3365949D01*
X186182257Y3660000D01*
X190817743Y3660000D01*
X190846705Y3365949D01*
X190932476Y3083198D01*
X191071762Y2822613D01*
X191259208Y2594208D01*
X191487613Y2406762D01*
X191748198Y2267476D01*
X192030949Y2181705D01*
X192251320Y2160000D01*
X193668680Y2160000D01*
X193889051Y2181705D01*
X194171802Y2267476D01*
X194432387Y2406762D01*
X194660792Y2594208D01*
X194848238Y2822613D01*
X194987524Y3083198D01*
X195073295Y3365949D01*
X195102257Y3660000D01*
X195073295Y3954051D01*
X194987524Y4236802D01*
X194848238Y4497387D01*
X194660792Y4725792D01*
X194432387Y4913238D01*
X194171802Y5052524D01*
X193889051Y5138295D01*
X193668680Y5160000D01*
X192251320Y5160000D01*
X192030949Y5138295D01*
X191748198Y5052524D01*
X191487613Y4913238D01*
X191259208Y4725792D01*
X191071762Y4497387D01*
X190932476Y4236802D01*
X190846705Y3954051D01*
X190817743Y3660000D01*
X186182257Y3660000D01*
X186153295Y3954051D01*
X186067524Y4236802D01*
X185928238Y4497387D01*
X185740792Y4725792D01*
X185512387Y4913238D01*
X185251802Y5052524D01*
X184969051Y5138295D01*
X184748680Y5160000D01*
X183732283Y5160000D01*
X182952293Y5939990D01*
X185417802Y5939990D01*
X185462009Y5935636D01*
X185506215Y5939990D01*
X185506216Y5939990D01*
X185638440Y5953013D01*
X185808090Y6004476D01*
X185964441Y6088047D01*
X186101484Y6200515D01*
X186129671Y6234860D01*
X188634812Y8740000D01*
X190817743Y8740000D01*
X190846705Y8445949D01*
X190932476Y8163198D01*
X191071762Y7902613D01*
X191259208Y7674208D01*
X191487613Y7486762D01*
X191748198Y7347476D01*
X192030949Y7261705D01*
X192251320Y7240000D01*
X193668680Y7240000D01*
X193889051Y7261705D01*
X194171802Y7347476D01*
X194432387Y7486762D01*
X194660792Y7674208D01*
X194848238Y7902613D01*
X194987524Y8163198D01*
X195073295Y8445949D01*
X195102257Y8740000D01*
X195073295Y9034051D01*
X194987524Y9316802D01*
X194848238Y9577387D01*
X194660792Y9805792D01*
X194432387Y9993238D01*
X194171802Y10132524D01*
X193889051Y10218295D01*
X193668680Y10240000D01*
X192251320Y10240000D01*
X192030949Y10218295D01*
X191748198Y10132524D01*
X191487613Y9993238D01*
X191259208Y9805792D01*
X191071762Y9577387D01*
X190932476Y9316802D01*
X190846705Y9034051D01*
X190817743Y8740000D01*
X188634812Y8740000D01*
X189116150Y9221337D01*
X189150485Y9249515D01*
X189262953Y9386558D01*
X189346524Y9542909D01*
X189397987Y9712559D01*
X189401288Y9746071D01*
X189415364Y9888989D01*
X189411010Y9933196D01*
X189411010Y10578648D01*
X190983031Y12150669D01*
X191019446Y12180554D01*
X191047628Y12214894D01*
X194355139Y15522405D01*
X194389474Y15550583D01*
X194417652Y15584918D01*
X194417655Y15584921D01*
X194501943Y15687626D01*
X194585514Y15843976D01*
X194636977Y16013627D01*
X194654354Y16190058D01*
X194649999Y16234274D01*
X194650001Y19245797D01*
X194654355Y19290002D01*
X194649993Y19334292D01*
X194636978Y19466431D01*
X194585515Y19636081D01*
X194579552Y19647238D01*
X194571601Y19662112D01*
X194501944Y19792432D01*
X194484716Y19813424D01*
X194417656Y19895139D01*
X194417649Y19895146D01*
X194389476Y19929475D01*
X194355147Y19957648D01*
X193351935Y20960859D01*
X193351935Y21850000D01*
X193344212Y21928414D01*
X193321340Y22003814D01*
X193284197Y22073303D01*
X193234211Y22134211D01*
X193173303Y22184197D01*
X193103814Y22221340D01*
X193028414Y22244212D01*
X192950000Y22251935D01*
X189950000Y22251935D01*
X189871586Y22244212D01*
X189796186Y22221340D01*
X189726697Y22184197D01*
X189665789Y22134211D01*
X189615803Y22073303D01*
X189578660Y22003814D01*
X189555788Y21928414D01*
X189548065Y21850000D01*
X189548065Y20350000D01*
X189555788Y20271586D01*
X189578660Y20196186D01*
X189615803Y20126697D01*
X189665789Y20065789D01*
X189726697Y20015803D01*
X189796186Y19978660D01*
X189871586Y19955788D01*
X189950000Y19948065D01*
X191819145Y19948065D01*
X192715274Y19051935D01*
X189950000Y19051935D01*
X189871586Y19044212D01*
X189796186Y19021340D01*
X189726697Y18984197D01*
X189665789Y18934211D01*
X189615803Y18873303D01*
X189578660Y18803814D01*
X189555788Y18728414D01*
X189548065Y18650000D01*
X189548065Y17150000D01*
X189555788Y17071586D01*
X189578660Y16996186D01*
X189615803Y16926697D01*
X189665789Y16865789D01*
X189726697Y16815803D01*
X189796186Y16778660D01*
X189871586Y16755788D01*
X189950000Y16748065D01*
X191196353Y16748065D01*
X190681157Y16232869D01*
X190577186Y16264408D01*
X190450000Y16276935D01*
X189525000Y16276935D01*
X189397814Y16264408D01*
X189275515Y16227309D01*
X189162804Y16167064D01*
X189064012Y16085988D01*
X188982936Y15987196D01*
X188922691Y15874485D01*
X188885592Y15752186D01*
X188873065Y15625000D01*
X188873065Y14424777D01*
X187148288Y12700000D01*
X181791282Y12700000D01*
X180261158Y14230125D01*
X180232976Y14264465D01*
X180095933Y14376933D01*
X179984361Y14436569D01*
X182547792Y17000000D01*
X183677503Y17000000D01*
X183678660Y16996186D01*
X183715803Y16926697D01*
X183765789Y16865789D01*
X183826697Y16815803D01*
X183896186Y16778660D01*
X183971586Y16755788D01*
X184050000Y16748065D01*
X187050000Y16748065D01*
X187128414Y16755788D01*
X187203814Y16778660D01*
X187273303Y16815803D01*
X187334211Y16865789D01*
X187384197Y16926697D01*
X187421340Y16996186D01*
X187444212Y17071586D01*
X187451935Y17150000D01*
X187451935Y18650000D01*
X187444212Y18728414D01*
X187421340Y18803814D01*
X187384197Y18873303D01*
X187334211Y18934211D01*
X187273303Y18984197D01*
X187203814Y19021340D01*
X187128414Y19044212D01*
X187050000Y19051935D01*
X184050000Y19051935D01*
X183971586Y19044212D01*
X183896186Y19021340D01*
X183826697Y18984197D01*
X183765789Y18934211D01*
X183715803Y18873303D01*
X183678660Y18803814D01*
X183677503Y18800000D01*
X182219196Y18800000D01*
X182174999Y18804353D01*
X182130802Y18800000D01*
X182130793Y18800000D01*
X181998569Y18786977D01*
X181828919Y18735514D01*
X181672568Y18651943D01*
X181535525Y18539475D01*
X181507345Y18505137D01*
X178827208Y15825000D01*
X172524773Y15825000D01*
X169144619Y19205155D01*
X169116437Y19239495D01*
X168979394Y19351963D01*
X168823043Y19435534D01*
X168653393Y19486997D01*
X168521169Y19500020D01*
X168476962Y19504374D01*
X168432756Y19500020D01*
X163567235Y19500020D01*
X163523038Y19504373D01*
X163478841Y19500020D01*
X163478832Y19500020D01*
X163346608Y19486997D01*
X163176958Y19435534D01*
X163020607Y19351963D01*
X162883564Y19239495D01*
X162855382Y19205155D01*
X159175229Y15525000D01*
X153947792Y15525000D01*
X148351935Y21120857D01*
X148351935Y21850000D01*
X148344212Y21928414D01*
X148321340Y22003814D01*
X148284197Y22073303D01*
X148234211Y22134211D01*
X148173303Y22184197D01*
X148103814Y22221340D01*
X148028414Y22244212D01*
X147950000Y22251935D01*
X144950000Y22251935D01*
X144871586Y22244212D01*
X144796186Y22221340D01*
X144726697Y22184197D01*
X144665789Y22134211D01*
X144615803Y22073303D01*
X144578660Y22003814D01*
X144555788Y21928414D01*
X144548065Y21850000D01*
X144548065Y20350000D01*
X144555788Y20271586D01*
X144578660Y20196186D01*
X144615803Y20126697D01*
X144665789Y20065789D01*
X144726697Y20015803D01*
X144796186Y19978660D01*
X144871586Y19955788D01*
X144950000Y19948065D01*
X146979143Y19948065D01*
X147875273Y19051935D01*
X144950000Y19051935D01*
X144871586Y19044212D01*
X144796186Y19021340D01*
X144726697Y18984197D01*
X144665789Y18934211D01*
X144615803Y18873303D01*
X144578660Y18803814D01*
X144555788Y18728414D01*
X144548065Y18650000D01*
X144548065Y17150000D01*
X144555788Y17071586D01*
X144578660Y16996186D01*
X144595170Y16965299D01*
X144523067Y16877441D01*
X144439497Y16721091D01*
X144388033Y16551440D01*
X144370656Y16375010D01*
X144375011Y16330794D01*
X144375011Y16257491D01*
X144275515Y16227309D01*
X144162804Y16167064D01*
X144064012Y16085988D01*
X143982936Y15987196D01*
X143922691Y15874485D01*
X143885592Y15752186D01*
X143873065Y15625000D01*
X143873065Y14375000D01*
X143885592Y14247814D01*
X143892516Y14224990D01*
X133997782Y14224990D01*
X136772792Y17000000D01*
X138677503Y17000000D01*
X138678660Y16996186D01*
X138715803Y16926697D01*
X138765789Y16865789D01*
X138826697Y16815803D01*
X138896186Y16778660D01*
X138971586Y16755788D01*
X139050000Y16748065D01*
X142050000Y16748065D01*
X142128414Y16755788D01*
X142203814Y16778660D01*
X142273303Y16815803D01*
X142334211Y16865789D01*
X142384197Y16926697D01*
X142421340Y16996186D01*
X142444212Y17071586D01*
X142451935Y17150000D01*
X142451935Y18650000D01*
X142444212Y18728414D01*
X142421340Y18803814D01*
X142384197Y18873303D01*
X142334211Y18934211D01*
X142273303Y18984197D01*
X142203814Y19021340D01*
X142128414Y19044212D01*
X142050000Y19051935D01*
X139050000Y19051935D01*
X138971586Y19044212D01*
X138896186Y19021340D01*
X138826697Y18984197D01*
X138765789Y18934211D01*
X138715803Y18873303D01*
X138678660Y18803814D01*
X138677503Y18800000D01*
X136444196Y18800000D01*
X136399999Y18804353D01*
X136355802Y18800000D01*
X136355793Y18800000D01*
X136223569Y18786977D01*
X136053919Y18735514D01*
X135897568Y18651943D01*
X135760525Y18539475D01*
X135732345Y18505137D01*
X132752208Y15525000D01*
X127824773Y15525000D01*
X124344619Y19005155D01*
X124316437Y19039495D01*
X124179394Y19151963D01*
X124023043Y19235534D01*
X123853393Y19286997D01*
X123721169Y19300020D01*
X123676962Y19304374D01*
X123632756Y19300020D01*
X118007245Y19300020D01*
X117963038Y19304374D01*
X117786608Y19286997D01*
X117616958Y19235534D01*
X117493031Y19169294D01*
X117460607Y19151963D01*
X117357901Y19067675D01*
X117357899Y19067673D01*
X117323564Y19039495D01*
X117295386Y19005160D01*
X113800239Y15510010D01*
X110342783Y15510010D01*
X104207657Y21645135D01*
X104179475Y21679475D01*
X104042432Y21791943D01*
X103886081Y21875514D01*
X103716431Y21926977D01*
X103584207Y21940000D01*
X103584206Y21940000D01*
X103540000Y21944354D01*
X103495794Y21940000D01*
X103340697Y21940000D01*
X103321340Y22003814D01*
X103284197Y22073303D01*
X103234211Y22134211D01*
X103173303Y22184197D01*
X103103814Y22221340D01*
X103028414Y22244212D01*
X102950000Y22251935D01*
X99950000Y22251935D01*
X99871586Y22244212D01*
X99796186Y22221340D01*
X99726697Y22184197D01*
X99665789Y22134211D01*
X99615803Y22073303D01*
X99578660Y22003814D01*
X99555788Y21928414D01*
X99548065Y21850000D01*
X99548065Y20350000D01*
X99555788Y20271586D01*
X99578660Y20196186D01*
X99615803Y20126697D01*
X99665789Y20065789D01*
X99726697Y20015803D01*
X99796186Y19978660D01*
X99871586Y19955788D01*
X99950000Y19948065D01*
X102950000Y19948065D01*
X103028414Y19955788D01*
X103103814Y19978660D01*
X103173303Y20015803D01*
X103234211Y20065789D01*
X103237460Y20069748D01*
X109097207Y14210000D01*
X101307925Y14210000D01*
X101301441Y14211967D01*
X101169217Y14224990D01*
X101169216Y14224990D01*
X101125010Y14229344D01*
X101082536Y14225161D01*
X101089408Y14247814D01*
X101101935Y14375000D01*
X101101935Y15625000D01*
X101089408Y15752186D01*
X101081395Y15778603D01*
X102050857Y16748065D01*
X102950000Y16748065D01*
X103028414Y16755788D01*
X103103814Y16778660D01*
X103173303Y16815803D01*
X103234211Y16865789D01*
X103284197Y16926697D01*
X103321340Y16996186D01*
X103344212Y17071586D01*
X103351935Y17150000D01*
X103351935Y18650000D01*
X103344212Y18728414D01*
X103321340Y18803814D01*
X103284197Y18873303D01*
X103234211Y18934211D01*
X103173303Y18984197D01*
X103103814Y19021340D01*
X103028414Y19044212D01*
X102950000Y19051935D01*
X99950000Y19051935D01*
X99871586Y19044212D01*
X99796186Y19021340D01*
X99726697Y18984197D01*
X99665789Y18934211D01*
X99615803Y18873303D01*
X99578660Y18803814D01*
X99555788Y18728414D01*
X99548065Y18650000D01*
X99548065Y17150000D01*
X99555788Y17071586D01*
X99578660Y16996186D01*
X99615803Y16926697D01*
X99646500Y16889292D01*
X99382361Y16625153D01*
X99348026Y16596975D01*
X99319848Y16562640D01*
X99319845Y16562637D01*
X99235557Y16459931D01*
X99151987Y16303581D01*
X99100523Y16133930D01*
X99098597Y16114371D01*
X99064012Y16085988D01*
X98982936Y15987196D01*
X98922691Y15874485D01*
X98885592Y15752186D01*
X98873065Y15625000D01*
X98873065Y14375000D01*
X98885592Y14247814D01*
X98892516Y14224990D01*
X92987782Y14224990D01*
X95510857Y16748065D01*
X97050000Y16748065D01*
X97128414Y16755788D01*
X97203814Y16778660D01*
X97273303Y16815803D01*
X97334211Y16865789D01*
X97384197Y16926697D01*
X97421340Y16996186D01*
X97444212Y17071586D01*
X97451935Y17150000D01*
X97451935Y18650000D01*
X97444212Y18728414D01*
X97421340Y18803814D01*
X97384197Y18873303D01*
X97334211Y18934211D01*
X97273303Y18984197D01*
X97203814Y19021340D01*
X97128414Y19044212D01*
X97050000Y19051935D01*
X94050000Y19051935D01*
X93971586Y19044212D01*
X93896186Y19021340D01*
X93826697Y18984197D01*
X93765789Y18934211D01*
X93715803Y18873303D01*
X93678660Y18803814D01*
X93655788Y18728414D01*
X93648065Y18650000D01*
X93648065Y17430857D01*
X91742208Y15525000D01*
X82684774Y15525000D01*
X79164619Y19045155D01*
X79136437Y19079495D01*
X78999394Y19191963D01*
X78843043Y19275534D01*
X78673393Y19326997D01*
X78541169Y19340020D01*
X78496962Y19344374D01*
X78452756Y19340020D01*
X73357245Y19340020D01*
X73313039Y19344374D01*
X73268832Y19340020D01*
X73136608Y19326997D01*
X72966958Y19275534D01*
X72810607Y19191963D01*
X72673564Y19079495D01*
X72645382Y19045155D01*
X72155227Y18555000D01*
X67297792Y18555000D01*
X64167657Y21685135D01*
X64139475Y21719475D01*
X64002432Y21831943D01*
X63846081Y21915514D01*
X63676431Y21966977D01*
X63544207Y21980000D01*
X63544206Y21980000D01*
X63500000Y21984354D01*
X63455794Y21980000D01*
X58328564Y21980000D01*
X58321340Y22003814D01*
X58284197Y22073303D01*
X58234211Y22134211D01*
X58173303Y22184197D01*
X58103814Y22221340D01*
X58028414Y22244212D01*
X57950000Y22251935D01*
X54950000Y22251935D01*
X54871586Y22244212D01*
X54796186Y22221340D01*
X54726697Y22184197D01*
X54665789Y22134211D01*
X54615803Y22073303D01*
X54578660Y22003814D01*
X54555788Y21928414D01*
X54548065Y21850000D01*
X54548065Y20350000D01*
X54555788Y20271586D01*
X54578660Y20196186D01*
X54615803Y20126697D01*
X54665789Y20065789D01*
X54726697Y20015803D01*
X54796186Y19978660D01*
X54871586Y19955788D01*
X54950000Y19948065D01*
X57950000Y19948065D01*
X58028414Y19955788D01*
X58103814Y19978660D01*
X58173303Y20015803D01*
X58234211Y20065789D01*
X58284197Y20126697D01*
X58312688Y20180000D01*
X63127208Y20180000D01*
X66052218Y17254990D01*
X63666628Y17254990D01*
X63622431Y17259343D01*
X63578235Y17254990D01*
X63578225Y17254990D01*
X63527551Y17249999D01*
X60843470Y17249999D01*
X60851908Y17277814D01*
X60864435Y17405000D01*
X60864435Y18655000D01*
X60851908Y18782186D01*
X60814809Y18904485D01*
X60754564Y19017196D01*
X60673488Y19115988D01*
X60574696Y19197064D01*
X60461985Y19257309D01*
X60339686Y19294408D01*
X60212500Y19306935D01*
X59287500Y19306935D01*
X59160314Y19294408D01*
X59038015Y19257309D01*
X58925304Y19197064D01*
X58826512Y19115988D01*
X58745436Y19017196D01*
X58685191Y18904485D01*
X58648092Y18782186D01*
X58642952Y18730000D01*
X58343731Y18730000D01*
X58321340Y18803814D01*
X58284197Y18873303D01*
X58234211Y18934211D01*
X58173303Y18984197D01*
X58103814Y19021340D01*
X58028414Y19044212D01*
X57950000Y19051935D01*
X54950000Y19051935D01*
X54871586Y19044212D01*
X54796186Y19021340D01*
X54726697Y18984197D01*
X54665789Y18934211D01*
X54615803Y18873303D01*
X54578660Y18803814D01*
X54555788Y18728414D01*
X54548065Y18650000D01*
X54548065Y17249999D01*
X52451935Y17249999D01*
X52451935Y18650000D01*
X52444212Y18728414D01*
X52421340Y18803814D01*
X52384197Y18873303D01*
X52334211Y18934211D01*
X52273303Y18984197D01*
X52203814Y19021340D01*
X52128414Y19044212D01*
X52050000Y19051935D01*
X49320857Y19051935D01*
X48700000Y19672792D01*
X48700000Y19937888D01*
X48646199Y20208365D01*
X48540664Y20463149D01*
X48387451Y20692448D01*
X48192448Y20887451D01*
X47963149Y21040664D01*
X47708365Y21146199D01*
X47437888Y21200000D01*
X47162112Y21200000D01*
X46891635Y21146199D01*
X46636851Y21040664D01*
X46407552Y20887451D01*
X46212549Y20692448D01*
X46059336Y20463149D01*
X45953801Y20208365D01*
X45903726Y19956622D01*
X43537115Y22323231D01*
X43501098Y22367118D01*
X43325988Y22510827D01*
X43126206Y22617613D01*
X42909430Y22683371D01*
X42740483Y22700011D01*
X42740473Y22700011D01*
X42683991Y22705574D01*
X42627509Y22700011D01*
X36533635Y22700011D01*
X36529283Y22710517D01*
X36365126Y22956194D01*
X36156194Y23165126D01*
X35910517Y23329283D01*
X35637534Y23442356D01*
X35347737Y23500000D01*
X35052263Y23500000D01*
X34762466Y23442356D01*
X34489483Y23329283D01*
X34243806Y23165126D01*
X34034874Y22956194D01*
X33930000Y22799240D01*
X33825126Y22956194D01*
X33616194Y23165126D01*
X33370517Y23329283D01*
X33097534Y23442356D01*
X32807737Y23500000D01*
X32512263Y23500000D01*
X32222466Y23442356D01*
X31949483Y23329283D01*
X31703806Y23165126D01*
X31494874Y22956194D01*
X31330717Y22710517D01*
X31217644Y22437534D01*
X31160000Y22147737D01*
X31160000Y21928218D01*
X29080000Y21909647D01*
X29080000Y22147737D01*
X29022356Y22437534D01*
X28909283Y22710517D01*
X28745126Y22956194D01*
X28536194Y23165126D01*
X28290517Y23329283D01*
X28017534Y23442356D01*
X27727737Y23500000D01*
X27432263Y23500000D01*
X27142466Y23442356D01*
X26869483Y23329283D01*
X26623806Y23165126D01*
X26414874Y22956194D01*
X26310000Y22799240D01*
X26205126Y22956194D01*
X25996194Y23165126D01*
X25750517Y23329283D01*
X25477534Y23442356D01*
X25187737Y23500000D01*
X24892263Y23500000D01*
X24602466Y23442356D01*
X24329483Y23329283D01*
X24083806Y23165126D01*
X23874874Y22956194D01*
X23770000Y22799240D01*
X23665126Y22956194D01*
X23456194Y23165126D01*
X23210517Y23329283D01*
X22937534Y23442356D01*
X22647737Y23500000D01*
X22352263Y23500000D01*
X22062466Y23442356D01*
X21789483Y23329283D01*
X21543806Y23165126D01*
X21528680Y23150000D01*
X17949899Y23150000D01*
X17922448Y23177451D01*
X17693149Y23330664D01*
X17438365Y23436199D01*
X17167888Y23490000D01*
X16892112Y23490000D01*
X16621635Y23436199D01*
X16366851Y23330664D01*
X16137552Y23177451D01*
X15942549Y22982448D01*
X15789336Y22753149D01*
X15683801Y22498365D01*
X15630000Y22227888D01*
X15630000Y21952112D01*
X15683801Y21681635D01*
X15789336Y21426851D01*
X15942549Y21197552D01*
X16137552Y21002549D01*
X16366851Y20849336D01*
X16621635Y20743801D01*
X16892112Y20690000D01*
X17167888Y20690000D01*
X17438365Y20743801D01*
X17693149Y20849336D01*
X17694143Y20850000D01*
X17870101Y20850000D01*
X17712549Y20692448D01*
X17570596Y20480000D01*
X16601283Y20480000D01*
X15676138Y21405145D01*
X15647956Y21439485D01*
X15510913Y21551953D01*
X15354562Y21635524D01*
X15184912Y21686987D01*
X15052688Y21700010D01*
X15052687Y21700010D01*
X15008481Y21704364D01*
X14964275Y21700010D01*
X13351935Y21700010D01*
X13351935Y21850000D01*
X13344212Y21928414D01*
X13321340Y22003814D01*
X13284197Y22073303D01*
X13234211Y22134211D01*
X13173303Y22184197D01*
X13103814Y22221340D01*
X13028414Y22244212D01*
X12950000Y22251935D01*
X9950000Y22251935D01*
X9871586Y22244212D01*
X9796186Y22221340D01*
X9726697Y22184197D01*
X9665789Y22134211D01*
X9615803Y22073303D01*
X9578660Y22003814D01*
X9555788Y21928414D01*
X9548065Y21850000D01*
X9548065Y20400000D01*
X7050155Y20400000D01*
X6917931Y20386977D01*
X6748281Y20335514D01*
X6591930Y20251943D01*
X6454887Y20139475D01*
X6342419Y20002432D01*
X6258848Y19846081D01*
X6239497Y19782289D01*
X5509143Y19051935D01*
X4050000Y19051935D01*
X3971586Y19044212D01*
X3896186Y19021340D01*
X3826697Y18984197D01*
X3765789Y18934211D01*
X3715803Y18873303D01*
X3678660Y18803814D01*
X3655788Y18728414D01*
X3648065Y18650000D01*
X425000Y18650000D01*
X425000Y24575000D01*
X196575001Y24575000D01*
X196575000Y425000D01*
G37*
X196575000Y425000D02*
X425000Y425000D01*
X425000Y3660000D01*
X1897743Y3660000D01*
X1926705Y3365949D01*
X2012476Y3083198D01*
X2151762Y2822613D01*
X2339208Y2594208D01*
X2567613Y2406762D01*
X2828198Y2267476D01*
X3110949Y2181705D01*
X3331320Y2160000D01*
X4748680Y2160000D01*
X4969051Y2181705D01*
X5251802Y2267476D01*
X5512387Y2406762D01*
X5740792Y2594208D01*
X5928238Y2822613D01*
X6067524Y3083198D01*
X6153295Y3365949D01*
X6182257Y3660000D01*
X6153295Y3954051D01*
X6067524Y4236802D01*
X5928238Y4497387D01*
X5740792Y4725792D01*
X5512387Y4913238D01*
X5251802Y5052524D01*
X4969051Y5138295D01*
X4748680Y5160000D01*
X3331320Y5160000D01*
X3110949Y5138295D01*
X2828198Y5052524D01*
X2567613Y4913238D01*
X2339208Y4725792D01*
X2151762Y4497387D01*
X2012476Y4236802D01*
X1926705Y3954051D01*
X1897743Y3660000D01*
X425000Y3660000D01*
X425000Y8740000D01*
X1897743Y8740000D01*
X1926705Y8445949D01*
X2012476Y8163198D01*
X2151762Y7902613D01*
X2339208Y7674208D01*
X2567613Y7486762D01*
X2828198Y7347476D01*
X3110949Y7261705D01*
X3331320Y7240000D01*
X4748680Y7240000D01*
X4969051Y7261705D01*
X5251802Y7347476D01*
X5512387Y7486762D01*
X5740792Y7674208D01*
X5928238Y7902613D01*
X6067524Y8163198D01*
X6153295Y8445949D01*
X6182257Y8740000D01*
X6153295Y9034051D01*
X6067524Y9316802D01*
X5928238Y9577387D01*
X5740792Y9805792D01*
X5512387Y9993238D01*
X5251802Y10132524D01*
X4969051Y10218295D01*
X4748680Y10240000D01*
X3331320Y10240000D01*
X3110949Y10218295D01*
X2828198Y10132524D01*
X2567613Y9993238D01*
X2339208Y9805792D01*
X2151762Y9577387D01*
X2012476Y9316802D01*
X1926705Y9034051D01*
X1897743Y8740000D01*
X425000Y8740000D01*
X425000Y14137888D01*
X1600000Y14137888D01*
X1600000Y13862112D01*
X1653801Y13591635D01*
X1759336Y13336851D01*
X1912549Y13107552D01*
X2107552Y12912549D01*
X2336851Y12759336D01*
X2591635Y12653801D01*
X2862112Y12600000D01*
X3137888Y12600000D01*
X3408365Y12653801D01*
X3663149Y12759336D01*
X3892448Y12912549D01*
X4087451Y13107552D01*
X4240664Y13336851D01*
X4346199Y13591635D01*
X4400000Y13862112D01*
X4400000Y14137888D01*
X4346199Y14408365D01*
X4240664Y14663149D01*
X4087451Y14892448D01*
X3892448Y15087451D01*
X3663149Y15240664D01*
X3408365Y15346199D01*
X3137888Y15400000D01*
X2862112Y15400000D01*
X2591635Y15346199D01*
X2336851Y15240664D01*
X2107552Y15087451D01*
X1912549Y14892448D01*
X1759336Y14663149D01*
X1653801Y14408365D01*
X1600000Y14137888D01*
X425000Y14137888D01*
X425000Y18650000D01*
X3648065Y18650000D01*
X3648065Y17150000D01*
X3655788Y17071586D01*
X3678660Y16996186D01*
X3715803Y16926697D01*
X3765789Y16865789D01*
X3826697Y16815803D01*
X3896186Y16778660D01*
X3971586Y16755788D01*
X4050000Y16748065D01*
X7050000Y16748065D01*
X7128414Y16755788D01*
X7203814Y16778660D01*
X7273303Y16815803D01*
X7334211Y16865789D01*
X7384197Y16926697D01*
X7421340Y16996186D01*
X7444212Y17071586D01*
X7451935Y17150000D01*
X7451935Y18420564D01*
X7631371Y18600000D01*
X9548065Y18600000D01*
X9548065Y17150000D01*
X9555788Y17071586D01*
X9578660Y16996186D01*
X9615803Y16926697D01*
X9665789Y16865789D01*
X9726697Y16815803D01*
X9796186Y16778660D01*
X9871586Y16755788D01*
X9950000Y16748065D01*
X11979143Y16748065D01*
X12197219Y16529989D01*
X11567230Y15900000D01*
X11038671Y15900000D01*
X10992064Y15987196D01*
X10910988Y16085988D01*
X10812196Y16167064D01*
X10699485Y16227309D01*
X10577186Y16264408D01*
X10450000Y16276935D01*
X9525000Y16276935D01*
X9397814Y16264408D01*
X9275515Y16227309D01*
X9162804Y16167064D01*
X9064012Y16085988D01*
X8982936Y15987196D01*
X8922691Y15874485D01*
X8885592Y15752186D01*
X8873065Y15625000D01*
X8873065Y14375000D01*
X8885592Y14247814D01*
X8922691Y14125515D01*
X8982936Y14012804D01*
X9064012Y13914012D01*
X9162804Y13832936D01*
X9275515Y13772691D01*
X9397814Y13735592D01*
X9525000Y13723065D01*
X10450000Y13723065D01*
X10577186Y13735592D01*
X10699485Y13772691D01*
X10812196Y13832936D01*
X10910988Y13914012D01*
X10992064Y14012804D01*
X11038671Y14100000D01*
X11895816Y14100000D01*
X11940022Y14095646D01*
X11984228Y14100000D01*
X11984229Y14100000D01*
X12116453Y14113023D01*
X12286103Y14164486D01*
X12442454Y14248057D01*
X12579497Y14360525D01*
X12607679Y14394865D01*
X13842804Y15629989D01*
X21385783Y15629989D01*
X21429989Y15625635D01*
X21474195Y15629989D01*
X23085805Y15629989D01*
X23130011Y15625635D01*
X23174217Y15629989D01*
X23174218Y15629989D01*
X23286191Y15641017D01*
X23932343Y14994865D01*
X23960525Y14960525D01*
X24097568Y14848057D01*
X24253919Y14764486D01*
X24423569Y14713023D01*
X24465441Y14708899D01*
X24600000Y14695646D01*
X24644206Y14700000D01*
X33955832Y14700000D01*
X34000038Y14695646D01*
X34044244Y14700000D01*
X34044245Y14700000D01*
X34176469Y14713023D01*
X34346119Y14764486D01*
X34502470Y14848057D01*
X34639513Y14960525D01*
X34667695Y14994865D01*
X35343640Y15670809D01*
X35377975Y15698987D01*
X35421635Y15752186D01*
X35490443Y15836030D01*
X35539948Y15928647D01*
X36111282Y16499981D01*
X38463225Y16499981D01*
X39013217Y15949989D01*
X37505782Y15949989D01*
X37373558Y15936966D01*
X37203908Y15885503D01*
X37047557Y15801932D01*
X36910514Y15689464D01*
X36798046Y15552421D01*
X36771631Y15503002D01*
X32618620Y11349990D01*
X32092970Y11349990D01*
X32100000Y13599688D01*
X32097869Y13620532D01*
X32091983Y13639231D01*
X32082562Y13656422D01*
X32069968Y13671445D01*
X32054686Y13683723D01*
X32037301Y13692783D01*
X32018484Y13698277D01*
X31998956Y13699995D01*
X22423956Y13599995D01*
X22406718Y13598315D01*
X22387889Y13592859D01*
X22370487Y13583835D01*
X22355179Y13571589D01*
X22342554Y13556592D01*
X22333098Y13539420D01*
X22327173Y13520733D01*
X22325008Y13501250D01*
X22310492Y12340000D01*
X16784207Y12340000D01*
X16740000Y12344354D01*
X16563569Y12326977D01*
X16393918Y12275514D01*
X16246997Y12196983D01*
X16237568Y12191943D01*
X16100525Y12079475D01*
X16072343Y12045135D01*
X14162541Y10135333D01*
X13889051Y10218295D01*
X13668680Y10240000D01*
X12251320Y10240000D01*
X12030949Y10218295D01*
X11748198Y10132524D01*
X11487613Y9993238D01*
X11259208Y9805792D01*
X11071762Y9577387D01*
X10932476Y9316802D01*
X10846705Y9034051D01*
X10817743Y8740000D01*
X10846705Y8445949D01*
X10932476Y8163198D01*
X11071762Y7902613D01*
X11259208Y7674208D01*
X11487613Y7486762D01*
X11748198Y7347476D01*
X12030949Y7261705D01*
X12251320Y7240000D01*
X13668680Y7240000D01*
X13889051Y7261705D01*
X14171802Y7347476D01*
X14432387Y7486762D01*
X14660792Y7674208D01*
X14848238Y7902613D01*
X14987524Y8163198D01*
X15073295Y8445949D01*
X15079255Y8506463D01*
X17112792Y10540000D01*
X22287992Y10540000D01*
X22275008Y9501250D01*
X22277130Y9479472D01*
X22283015Y9460773D01*
X22292435Y9443581D01*
X22305029Y9428558D01*
X22320311Y9416280D01*
X22337695Y9407219D01*
X22356512Y9401724D01*
X22376040Y9400005D01*
X24226590Y9419256D01*
X24036851Y9340664D01*
X23807552Y9187451D01*
X23612549Y8992448D01*
X23459336Y8763149D01*
X23353801Y8508365D01*
X23300000Y8237888D01*
X23300000Y7962112D01*
X23353801Y7691635D01*
X23459336Y7436851D01*
X23540001Y7316128D01*
X23540000Y3871320D01*
X23524874Y3856194D01*
X23420000Y3699240D01*
X23315126Y3856194D01*
X23300000Y3871320D01*
X23300000Y5375993D01*
X23340664Y5436851D01*
X23446199Y5691635D01*
X23500000Y5962112D01*
X23500000Y6237888D01*
X23446199Y6508365D01*
X23340664Y6763149D01*
X23187451Y6992448D01*
X22992448Y7187451D01*
X22763149Y7340664D01*
X22508365Y7446199D01*
X22237888Y7500000D01*
X21962112Y7500000D01*
X21691635Y7446199D01*
X21436851Y7340664D01*
X21301163Y7250000D01*
X17829899Y7250000D01*
X17792448Y7287451D01*
X17563149Y7440664D01*
X17308365Y7546199D01*
X17037888Y7600000D01*
X16762112Y7600000D01*
X16491635Y7546199D01*
X16236851Y7440664D01*
X16026333Y7300000D01*
X15226482Y7300000D01*
X15170000Y7305563D01*
X15169999Y7305563D01*
X15113517Y7300000D01*
X15113508Y7300000D01*
X14944561Y7283360D01*
X14727785Y7217602D01*
X14528003Y7110816D01*
X14506456Y7093133D01*
X14396772Y7003118D01*
X14396769Y7003115D01*
X14352893Y6967107D01*
X14316884Y6923230D01*
X12553655Y5160000D01*
X12251320Y5160000D01*
X12030949Y5138295D01*
X11748198Y5052524D01*
X11487613Y4913238D01*
X11259208Y4725792D01*
X11071762Y4497387D01*
X10932476Y4236802D01*
X10846705Y3954051D01*
X10817743Y3660000D01*
X10846705Y3365949D01*
X10932476Y3083198D01*
X11071762Y2822613D01*
X11259208Y2594208D01*
X11487613Y2406762D01*
X11748198Y2267476D01*
X12030949Y2181705D01*
X12251320Y2160000D01*
X13668680Y2160000D01*
X13889051Y2181705D01*
X14171802Y2267476D01*
X14432387Y2406762D01*
X14660792Y2594208D01*
X14848238Y2822613D01*
X14987524Y3083198D01*
X15073295Y3365949D01*
X15102257Y3660000D01*
X15073295Y3954051D01*
X14987524Y4236802D01*
X14951167Y4304822D01*
X15596346Y4950000D01*
X16259390Y4950000D01*
X16491635Y4853801D01*
X16762112Y4800000D01*
X17037888Y4800000D01*
X17308365Y4853801D01*
X17540610Y4950000D01*
X21000001Y4950000D01*
X21000000Y3871320D01*
X20984874Y3856194D01*
X20820717Y3610517D01*
X20707644Y3337534D01*
X20650000Y3047737D01*
X20650000Y2752263D01*
X20707644Y2462466D01*
X20820717Y2189483D01*
X20984874Y1943806D01*
X21193806Y1734874D01*
X21439483Y1570717D01*
X21712466Y1457644D01*
X22002263Y1400000D01*
X22297737Y1400000D01*
X22587534Y1457644D01*
X22860517Y1570717D01*
X23106194Y1734874D01*
X23315126Y1943806D01*
X23420000Y2100760D01*
X23524874Y1943806D01*
X23733806Y1734874D01*
X23979483Y1570717D01*
X24252466Y1457644D01*
X24542263Y1400000D01*
X24837737Y1400000D01*
X25127534Y1457644D01*
X25400517Y1570717D01*
X25646194Y1734874D01*
X25855126Y1943806D01*
X25960000Y2100760D01*
X26064874Y1943806D01*
X26273806Y1734874D01*
X26519483Y1570717D01*
X26792466Y1457644D01*
X27082263Y1400000D01*
X27377737Y1400000D01*
X27667534Y1457644D01*
X27940517Y1570717D01*
X28186194Y1734874D01*
X28395126Y1943806D01*
X28559283Y2189483D01*
X28672356Y2462466D01*
X28730000Y2752263D01*
X28730000Y3047737D01*
X28672356Y3337534D01*
X28559283Y3610517D01*
X28395126Y3856194D01*
X28186194Y4065126D01*
X28141888Y4094730D01*
X29197108Y5149950D01*
X33015156Y5149950D01*
X32344863Y4479657D01*
X32310524Y4451476D01*
X32268279Y4400000D01*
X32162263Y4400000D01*
X31872466Y4342356D01*
X31599483Y4229283D01*
X31353806Y4065126D01*
X31144874Y3856194D01*
X30980717Y3610517D01*
X30867644Y3337534D01*
X30810000Y3047737D01*
X30810000Y2752263D01*
X30867644Y2462466D01*
X30980717Y2189483D01*
X31144874Y1943806D01*
X31353806Y1734874D01*
X31599483Y1570717D01*
X31872466Y1457644D01*
X32162263Y1400000D01*
X32457737Y1400000D01*
X32747534Y1457644D01*
X33020517Y1570717D01*
X33266194Y1734874D01*
X33475126Y1943806D01*
X33580000Y2100760D01*
X33684874Y1943806D01*
X33893806Y1734874D01*
X34139483Y1570717D01*
X34412466Y1457644D01*
X34702263Y1400000D01*
X34997737Y1400000D01*
X35287534Y1457644D01*
X35560517Y1570717D01*
X35806194Y1734874D01*
X36015126Y1943806D01*
X36119485Y2099990D01*
X40649555Y2099990D01*
X40706037Y2094427D01*
X40762519Y2099990D01*
X40762529Y2099990D01*
X40931476Y2116630D01*
X41148252Y2182388D01*
X41348034Y2289174D01*
X41523144Y2432883D01*
X41559162Y2476770D01*
X43832392Y4750000D01*
X44481163Y4750000D01*
X44565993Y4693318D01*
X44407552Y4587451D01*
X44212549Y4392448D01*
X44059336Y4163149D01*
X43953801Y3908365D01*
X43900000Y3637888D01*
X43900000Y3362112D01*
X43953801Y3091635D01*
X44059336Y2836851D01*
X44212549Y2607552D01*
X44407552Y2412549D01*
X44636851Y2259336D01*
X44891635Y2153801D01*
X45162112Y2100000D01*
X45437888Y2100000D01*
X45708365Y2153801D01*
X45963149Y2259336D01*
X46192448Y2412549D01*
X46289899Y2510000D01*
X47441816Y2510000D01*
X47567613Y2406762D01*
X47828198Y2267476D01*
X48110949Y2181705D01*
X48331320Y2160000D01*
X49748680Y2160000D01*
X49969051Y2181705D01*
X50251802Y2267476D01*
X50512387Y2406762D01*
X50740792Y2594208D01*
X50928238Y2822613D01*
X51067524Y3083198D01*
X51153295Y3365949D01*
X51182257Y3660000D01*
X51153295Y3954051D01*
X51067524Y4236802D01*
X50928238Y4497387D01*
X50740792Y4725792D01*
X50512387Y4913238D01*
X50251802Y5052524D01*
X49969051Y5138295D01*
X49748680Y5160000D01*
X48331320Y5160000D01*
X48110949Y5138295D01*
X47828198Y5052524D01*
X47567613Y4913238D01*
X47441816Y4810000D01*
X46168633Y4810000D01*
X46172448Y4812549D01*
X46367451Y5007552D01*
X46520664Y5236851D01*
X46626199Y5491635D01*
X46680000Y5762112D01*
X46680000Y6037888D01*
X46626199Y6308365D01*
X46520664Y6563149D01*
X46367451Y6792448D01*
X46172448Y6987451D01*
X45943149Y7140664D01*
X45688365Y7246199D01*
X45417888Y7300000D01*
X45142112Y7300000D01*
X44871635Y7246199D01*
X44616851Y7140664D01*
X44481163Y7050000D01*
X43929899Y7050000D01*
X44087451Y7207552D01*
X44240664Y7436851D01*
X44346199Y7691635D01*
X44400000Y7962112D01*
X44400000Y8237888D01*
X44346199Y8508365D01*
X44240664Y8763149D01*
X44115848Y8949949D01*
X44235240Y8949949D01*
X46950334Y6234855D01*
X46978516Y6200515D01*
X47115559Y6088047D01*
X47271910Y6004476D01*
X47418560Y5959990D01*
X47441560Y5953013D01*
X47617991Y5935636D01*
X47662198Y5939990D01*
X51335784Y5939990D01*
X51379990Y5935636D01*
X51424196Y5939990D01*
X51424197Y5939990D01*
X51556421Y5953013D01*
X51726071Y6004476D01*
X51882422Y6088047D01*
X52019465Y6200515D01*
X52047647Y6234855D01*
X54552792Y8740000D01*
X55817743Y8740000D01*
X55846705Y8445949D01*
X55932476Y8163198D01*
X56071762Y7902613D01*
X56259208Y7674208D01*
X56487613Y7486762D01*
X56748198Y7347476D01*
X57030949Y7261705D01*
X57251320Y7240000D01*
X58668680Y7240000D01*
X58889051Y7261705D01*
X59171802Y7347476D01*
X59432387Y7486762D01*
X59660792Y7674208D01*
X59848238Y7902613D01*
X59987524Y8163198D01*
X60073295Y8445949D01*
X60102257Y8740000D01*
X60073295Y9034051D01*
X59987524Y9316802D01*
X59848238Y9577387D01*
X59660792Y9805792D01*
X59432387Y9993238D01*
X59171802Y10132524D01*
X58889051Y10218295D01*
X58668680Y10240000D01*
X57251320Y10240000D01*
X57030949Y10218295D01*
X56748198Y10132524D01*
X56487613Y9993238D01*
X56259208Y9805792D01*
X56071762Y9577387D01*
X55932476Y9316802D01*
X55846705Y9034051D01*
X55817743Y8740000D01*
X54552792Y8740000D01*
X56062751Y10249959D01*
X63677167Y10249959D01*
X58587208Y5160000D01*
X57251320Y5160000D01*
X57030949Y5138295D01*
X56748198Y5052524D01*
X56487613Y4913238D01*
X56259208Y4725792D01*
X56071762Y4497387D01*
X55932476Y4236802D01*
X55846705Y3954051D01*
X55817743Y3660000D01*
X55846705Y3365949D01*
X55932476Y3083198D01*
X56071762Y2822613D01*
X56259208Y2594208D01*
X56487613Y2406762D01*
X56748198Y2267476D01*
X57030949Y2181705D01*
X57251320Y2160000D01*
X58668680Y2160000D01*
X58889051Y2181705D01*
X59171802Y2267476D01*
X59432387Y2406762D01*
X59660792Y2594208D01*
X59848238Y2822613D01*
X59987524Y3083198D01*
X60073295Y3365949D01*
X60102257Y3660000D01*
X60073295Y3954051D01*
X60039209Y4066417D01*
X64922741Y8949949D01*
X66428768Y8949949D01*
X71723886Y3654830D01*
X71752064Y3620495D01*
X71786399Y3592317D01*
X71786401Y3592315D01*
X71815229Y3568657D01*
X71889107Y3508027D01*
X72045458Y3424456D01*
X72215108Y3372993D01*
X72347332Y3359970D01*
X72347334Y3359970D01*
X72391538Y3355616D01*
X72435742Y3359970D01*
X78939165Y3359970D01*
X78951335Y3357892D01*
X78983471Y3358767D01*
X79015444Y3355618D01*
X79059630Y3359970D01*
X79059650Y3359970D01*
X79071882Y3361175D01*
X79128552Y3362718D01*
X79159885Y3369842D01*
X79191874Y3372993D01*
X79246143Y3389455D01*
X79301424Y3402025D01*
X79330765Y3415125D01*
X79361524Y3424456D01*
X79411543Y3451191D01*
X79463306Y3474303D01*
X79489524Y3492873D01*
X79517875Y3508027D01*
X79561718Y3544008D01*
X79607977Y3576773D01*
X79630069Y3600102D01*
X79654918Y3620495D01*
X79683105Y3654841D01*
X81928234Y5899970D01*
X90367963Y5899970D01*
X92018974Y4248959D01*
X92012476Y4236802D01*
X91926705Y3954051D01*
X91897743Y3660000D01*
X91926705Y3365949D01*
X92012476Y3083198D01*
X92151762Y2822613D01*
X92339208Y2594208D01*
X92567613Y2406762D01*
X92828198Y2267476D01*
X93110949Y2181705D01*
X93331320Y2160000D01*
X94748680Y2160000D01*
X94969051Y2181705D01*
X95251802Y2267476D01*
X95512387Y2406762D01*
X95740792Y2594208D01*
X95928238Y2822613D01*
X96067524Y3083198D01*
X96153295Y3365949D01*
X96182257Y3660000D01*
X96153295Y3954051D01*
X96067524Y4236802D01*
X95928238Y4497387D01*
X95740792Y4725792D01*
X95512387Y4913238D01*
X95251802Y5052524D01*
X94969051Y5138295D01*
X94748680Y5160000D01*
X93653518Y5160000D01*
X92873527Y5939990D01*
X104047707Y5939990D01*
X103267717Y5160000D01*
X102251320Y5160000D01*
X102030949Y5138295D01*
X101748198Y5052524D01*
X101487613Y4913238D01*
X101259208Y4725792D01*
X101071762Y4497387D01*
X100932476Y4236802D01*
X100846705Y3954051D01*
X100817743Y3660000D01*
X100846705Y3365949D01*
X100932476Y3083198D01*
X101071762Y2822613D01*
X101259208Y2594208D01*
X101487613Y2406762D01*
X101748198Y2267476D01*
X102030949Y2181705D01*
X102251320Y2160000D01*
X103668680Y2160000D01*
X103889051Y2181705D01*
X104171802Y2267476D01*
X104432387Y2406762D01*
X104660792Y2594208D01*
X104848238Y2822613D01*
X104987524Y3083198D01*
X105073295Y3365949D01*
X105102257Y3660000D01*
X105073295Y3954051D01*
X104987524Y4236802D01*
X104953590Y4300288D01*
X107853282Y7199980D01*
X115410248Y7199980D01*
X115590308Y7019919D01*
X115638057Y6930587D01*
X115750525Y6793543D01*
X115784865Y6765361D01*
X117455381Y5094845D01*
X117483563Y5060505D01*
X117620606Y4948037D01*
X117776957Y4864466D01*
X117946607Y4813003D01*
X118061216Y4801715D01*
X118123038Y4795626D01*
X118167245Y4799980D01*
X123732756Y4799980D01*
X123776962Y4795626D01*
X123821168Y4799980D01*
X123821169Y4799980D01*
X123953393Y4813003D01*
X124123043Y4864466D01*
X124279394Y4948037D01*
X124416437Y5060505D01*
X124444619Y5094845D01*
X126549754Y7199980D01*
X134146719Y7199980D01*
X137046410Y4300289D01*
X137012476Y4236802D01*
X136973788Y4109263D01*
X136971607Y4106606D01*
X136897321Y3967628D01*
X136851576Y3816827D01*
X136836130Y3660000D01*
X136851576Y3503173D01*
X136897321Y3352372D01*
X136971607Y3213394D01*
X136973788Y3210737D01*
X137012476Y3083198D01*
X137151762Y2822613D01*
X137339208Y2594208D01*
X137567613Y2406762D01*
X137828198Y2267476D01*
X138110949Y2181705D01*
X138331320Y2160000D01*
X139748680Y2160000D01*
X139969051Y2181705D01*
X140251802Y2267476D01*
X140512387Y2406762D01*
X140740792Y2594208D01*
X140928238Y2822613D01*
X141067524Y3083198D01*
X141153295Y3365949D01*
X141182257Y3660000D01*
X141153295Y3954051D01*
X141067524Y4236802D01*
X140928238Y4497387D01*
X140740792Y4725792D01*
X140512387Y4913238D01*
X140251802Y5052524D01*
X139969051Y5138295D01*
X139748680Y5160000D01*
X138732283Y5160000D01*
X137952293Y5939990D01*
X149767198Y5939990D01*
X148947709Y5120501D01*
X148889051Y5138295D01*
X148668680Y5160000D01*
X147251320Y5160000D01*
X147030949Y5138295D01*
X146748198Y5052524D01*
X146487613Y4913238D01*
X146259208Y4725792D01*
X146071762Y4497387D01*
X145932476Y4236802D01*
X145846705Y3954051D01*
X145817743Y3660000D01*
X145846705Y3365949D01*
X145932476Y3083198D01*
X146071762Y2822613D01*
X146259208Y2594208D01*
X146487613Y2406762D01*
X146748198Y2267476D01*
X147030949Y2181705D01*
X147251320Y2160000D01*
X148668680Y2160000D01*
X148889051Y2181705D01*
X149171802Y2267476D01*
X149432387Y2406762D01*
X149660792Y2594208D01*
X149848238Y2822613D01*
X149987524Y3083198D01*
X150073295Y3365949D01*
X150102257Y3660000D01*
X150096029Y3723237D01*
X154897753Y8524960D01*
X160963758Y8524960D01*
X161794862Y7693856D01*
X161794867Y7693852D01*
X163493866Y5994850D01*
X163522044Y5960515D01*
X163556379Y5932337D01*
X163556381Y5932335D01*
X163628049Y5873519D01*
X163659087Y5848047D01*
X163815438Y5764476D01*
X163907959Y5736410D01*
X163985087Y5713013D01*
X164161518Y5695636D01*
X164205725Y5699990D01*
X167694275Y5699990D01*
X167738481Y5695636D01*
X167782790Y5700000D01*
X167914912Y5713013D01*
X168084562Y5764476D01*
X168240913Y5848047D01*
X168377956Y5960515D01*
X168406138Y5994855D01*
X171236243Y8824960D01*
X177605268Y8824960D01*
X179173293Y7256934D01*
X179248057Y7117060D01*
X179360525Y6980016D01*
X179394865Y6951834D01*
X182046410Y4300289D01*
X182012476Y4236802D01*
X181926705Y3954051D01*
X181897743Y3660000D01*
X181926705Y3365949D01*
X182012476Y3083198D01*
X182151762Y2822613D01*
X182339208Y2594208D01*
X182567613Y2406762D01*
X182828198Y2267476D01*
X183110949Y2181705D01*
X183331320Y2160000D01*
X184748680Y2160000D01*
X184969051Y2181705D01*
X185251802Y2267476D01*
X185512387Y2406762D01*
X185740792Y2594208D01*
X185928238Y2822613D01*
X186067524Y3083198D01*
X186153295Y3365949D01*
X186182257Y3660000D01*
X190817743Y3660000D01*
X190846705Y3365949D01*
X190932476Y3083198D01*
X191071762Y2822613D01*
X191259208Y2594208D01*
X191487613Y2406762D01*
X191748198Y2267476D01*
X192030949Y2181705D01*
X192251320Y2160000D01*
X193668680Y2160000D01*
X193889051Y2181705D01*
X194171802Y2267476D01*
X194432387Y2406762D01*
X194660792Y2594208D01*
X194848238Y2822613D01*
X194987524Y3083198D01*
X195073295Y3365949D01*
X195102257Y3660000D01*
X195073295Y3954051D01*
X194987524Y4236802D01*
X194848238Y4497387D01*
X194660792Y4725792D01*
X194432387Y4913238D01*
X194171802Y5052524D01*
X193889051Y5138295D01*
X193668680Y5160000D01*
X192251320Y5160000D01*
X192030949Y5138295D01*
X191748198Y5052524D01*
X191487613Y4913238D01*
X191259208Y4725792D01*
X191071762Y4497387D01*
X190932476Y4236802D01*
X190846705Y3954051D01*
X190817743Y3660000D01*
X186182257Y3660000D01*
X186153295Y3954051D01*
X186067524Y4236802D01*
X185928238Y4497387D01*
X185740792Y4725792D01*
X185512387Y4913238D01*
X185251802Y5052524D01*
X184969051Y5138295D01*
X184748680Y5160000D01*
X183732283Y5160000D01*
X182952293Y5939990D01*
X185417802Y5939990D01*
X185462009Y5935636D01*
X185506215Y5939990D01*
X185506216Y5939990D01*
X185638440Y5953013D01*
X185808090Y6004476D01*
X185964441Y6088047D01*
X186101484Y6200515D01*
X186129671Y6234860D01*
X188634812Y8740000D01*
X190817743Y8740000D01*
X190846705Y8445949D01*
X190932476Y8163198D01*
X191071762Y7902613D01*
X191259208Y7674208D01*
X191487613Y7486762D01*
X191748198Y7347476D01*
X192030949Y7261705D01*
X192251320Y7240000D01*
X193668680Y7240000D01*
X193889051Y7261705D01*
X194171802Y7347476D01*
X194432387Y7486762D01*
X194660792Y7674208D01*
X194848238Y7902613D01*
X194987524Y8163198D01*
X195073295Y8445949D01*
X195102257Y8740000D01*
X195073295Y9034051D01*
X194987524Y9316802D01*
X194848238Y9577387D01*
X194660792Y9805792D01*
X194432387Y9993238D01*
X194171802Y10132524D01*
X193889051Y10218295D01*
X193668680Y10240000D01*
X192251320Y10240000D01*
X192030949Y10218295D01*
X191748198Y10132524D01*
X191487613Y9993238D01*
X191259208Y9805792D01*
X191071762Y9577387D01*
X190932476Y9316802D01*
X190846705Y9034051D01*
X190817743Y8740000D01*
X188634812Y8740000D01*
X189116150Y9221337D01*
X189150485Y9249515D01*
X189262953Y9386558D01*
X189346524Y9542909D01*
X189397987Y9712559D01*
X189401288Y9746071D01*
X189415364Y9888989D01*
X189411010Y9933196D01*
X189411010Y10578648D01*
X190983031Y12150669D01*
X191019446Y12180554D01*
X191047628Y12214894D01*
X194355139Y15522405D01*
X194389474Y15550583D01*
X194417652Y15584918D01*
X194417655Y15584921D01*
X194501943Y15687626D01*
X194585514Y15843976D01*
X194636977Y16013627D01*
X194654354Y16190058D01*
X194649999Y16234274D01*
X194650001Y19245797D01*
X194654355Y19290002D01*
X194649993Y19334292D01*
X194636978Y19466431D01*
X194585515Y19636081D01*
X194579552Y19647238D01*
X194571601Y19662112D01*
X194501944Y19792432D01*
X194484716Y19813424D01*
X194417656Y19895139D01*
X194417649Y19895146D01*
X194389476Y19929475D01*
X194355147Y19957648D01*
X193351935Y20960859D01*
X193351935Y21850000D01*
X193344212Y21928414D01*
X193321340Y22003814D01*
X193284197Y22073303D01*
X193234211Y22134211D01*
X193173303Y22184197D01*
X193103814Y22221340D01*
X193028414Y22244212D01*
X192950000Y22251935D01*
X189950000Y22251935D01*
X189871586Y22244212D01*
X189796186Y22221340D01*
X189726697Y22184197D01*
X189665789Y22134211D01*
X189615803Y22073303D01*
X189578660Y22003814D01*
X189555788Y21928414D01*
X189548065Y21850000D01*
X189548065Y20350000D01*
X189555788Y20271586D01*
X189578660Y20196186D01*
X189615803Y20126697D01*
X189665789Y20065789D01*
X189726697Y20015803D01*
X189796186Y19978660D01*
X189871586Y19955788D01*
X189950000Y19948065D01*
X191819145Y19948065D01*
X192715274Y19051935D01*
X189950000Y19051935D01*
X189871586Y19044212D01*
X189796186Y19021340D01*
X189726697Y18984197D01*
X189665789Y18934211D01*
X189615803Y18873303D01*
X189578660Y18803814D01*
X189555788Y18728414D01*
X189548065Y18650000D01*
X189548065Y17150000D01*
X189555788Y17071586D01*
X189578660Y16996186D01*
X189615803Y16926697D01*
X189665789Y16865789D01*
X189726697Y16815803D01*
X189796186Y16778660D01*
X189871586Y16755788D01*
X189950000Y16748065D01*
X191196353Y16748065D01*
X190681157Y16232869D01*
X190577186Y16264408D01*
X190450000Y16276935D01*
X189525000Y16276935D01*
X189397814Y16264408D01*
X189275515Y16227309D01*
X189162804Y16167064D01*
X189064012Y16085988D01*
X188982936Y15987196D01*
X188922691Y15874485D01*
X188885592Y15752186D01*
X188873065Y15625000D01*
X188873065Y14424777D01*
X187148288Y12700000D01*
X181791282Y12700000D01*
X180261158Y14230125D01*
X180232976Y14264465D01*
X180095933Y14376933D01*
X179984361Y14436569D01*
X182547792Y17000000D01*
X183677503Y17000000D01*
X183678660Y16996186D01*
X183715803Y16926697D01*
X183765789Y16865789D01*
X183826697Y16815803D01*
X183896186Y16778660D01*
X183971586Y16755788D01*
X184050000Y16748065D01*
X187050000Y16748065D01*
X187128414Y16755788D01*
X187203814Y16778660D01*
X187273303Y16815803D01*
X187334211Y16865789D01*
X187384197Y16926697D01*
X187421340Y16996186D01*
X187444212Y17071586D01*
X187451935Y17150000D01*
X187451935Y18650000D01*
X187444212Y18728414D01*
X187421340Y18803814D01*
X187384197Y18873303D01*
X187334211Y18934211D01*
X187273303Y18984197D01*
X187203814Y19021340D01*
X187128414Y19044212D01*
X187050000Y19051935D01*
X184050000Y19051935D01*
X183971586Y19044212D01*
X183896186Y19021340D01*
X183826697Y18984197D01*
X183765789Y18934211D01*
X183715803Y18873303D01*
X183678660Y18803814D01*
X183677503Y18800000D01*
X182219196Y18800000D01*
X182174999Y18804353D01*
X182130802Y18800000D01*
X182130793Y18800000D01*
X181998569Y18786977D01*
X181828919Y18735514D01*
X181672568Y18651943D01*
X181535525Y18539475D01*
X181507345Y18505137D01*
X178827208Y15825000D01*
X172524773Y15825000D01*
X169144619Y19205155D01*
X169116437Y19239495D01*
X168979394Y19351963D01*
X168823043Y19435534D01*
X168653393Y19486997D01*
X168521169Y19500020D01*
X168476962Y19504374D01*
X168432756Y19500020D01*
X163567235Y19500020D01*
X163523038Y19504373D01*
X163478841Y19500020D01*
X163478832Y19500020D01*
X163346608Y19486997D01*
X163176958Y19435534D01*
X163020607Y19351963D01*
X162883564Y19239495D01*
X162855382Y19205155D01*
X159175229Y15525000D01*
X153947792Y15525000D01*
X148351935Y21120857D01*
X148351935Y21850000D01*
X148344212Y21928414D01*
X148321340Y22003814D01*
X148284197Y22073303D01*
X148234211Y22134211D01*
X148173303Y22184197D01*
X148103814Y22221340D01*
X148028414Y22244212D01*
X147950000Y22251935D01*
X144950000Y22251935D01*
X144871586Y22244212D01*
X144796186Y22221340D01*
X144726697Y22184197D01*
X144665789Y22134211D01*
X144615803Y22073303D01*
X144578660Y22003814D01*
X144555788Y21928414D01*
X144548065Y21850000D01*
X144548065Y20350000D01*
X144555788Y20271586D01*
X144578660Y20196186D01*
X144615803Y20126697D01*
X144665789Y20065789D01*
X144726697Y20015803D01*
X144796186Y19978660D01*
X144871586Y19955788D01*
X144950000Y19948065D01*
X146979143Y19948065D01*
X147875273Y19051935D01*
X144950000Y19051935D01*
X144871586Y19044212D01*
X144796186Y19021340D01*
X144726697Y18984197D01*
X144665789Y18934211D01*
X144615803Y18873303D01*
X144578660Y18803814D01*
X144555788Y18728414D01*
X144548065Y18650000D01*
X144548065Y17150000D01*
X144555788Y17071586D01*
X144578660Y16996186D01*
X144595170Y16965299D01*
X144523067Y16877441D01*
X144439497Y16721091D01*
X144388033Y16551440D01*
X144370656Y16375010D01*
X144375011Y16330794D01*
X144375011Y16257491D01*
X144275515Y16227309D01*
X144162804Y16167064D01*
X144064012Y16085988D01*
X143982936Y15987196D01*
X143922691Y15874485D01*
X143885592Y15752186D01*
X143873065Y15625000D01*
X143873065Y14375000D01*
X143885592Y14247814D01*
X143892516Y14224990D01*
X133997782Y14224990D01*
X136772792Y17000000D01*
X138677503Y17000000D01*
X138678660Y16996186D01*
X138715803Y16926697D01*
X138765789Y16865789D01*
X138826697Y16815803D01*
X138896186Y16778660D01*
X138971586Y16755788D01*
X139050000Y16748065D01*
X142050000Y16748065D01*
X142128414Y16755788D01*
X142203814Y16778660D01*
X142273303Y16815803D01*
X142334211Y16865789D01*
X142384197Y16926697D01*
X142421340Y16996186D01*
X142444212Y17071586D01*
X142451935Y17150000D01*
X142451935Y18650000D01*
X142444212Y18728414D01*
X142421340Y18803814D01*
X142384197Y18873303D01*
X142334211Y18934211D01*
X142273303Y18984197D01*
X142203814Y19021340D01*
X142128414Y19044212D01*
X142050000Y19051935D01*
X139050000Y19051935D01*
X138971586Y19044212D01*
X138896186Y19021340D01*
X138826697Y18984197D01*
X138765789Y18934211D01*
X138715803Y18873303D01*
X138678660Y18803814D01*
X138677503Y18800000D01*
X136444196Y18800000D01*
X136399999Y18804353D01*
X136355802Y18800000D01*
X136355793Y18800000D01*
X136223569Y18786977D01*
X136053919Y18735514D01*
X135897568Y18651943D01*
X135760525Y18539475D01*
X135732345Y18505137D01*
X132752208Y15525000D01*
X127824773Y15525000D01*
X124344619Y19005155D01*
X124316437Y19039495D01*
X124179394Y19151963D01*
X124023043Y19235534D01*
X123853393Y19286997D01*
X123721169Y19300020D01*
X123676962Y19304374D01*
X123632756Y19300020D01*
X118007245Y19300020D01*
X117963038Y19304374D01*
X117786608Y19286997D01*
X117616958Y19235534D01*
X117493031Y19169294D01*
X117460607Y19151963D01*
X117357901Y19067675D01*
X117357899Y19067673D01*
X117323564Y19039495D01*
X117295386Y19005160D01*
X113800239Y15510010D01*
X110342783Y15510010D01*
X104207657Y21645135D01*
X104179475Y21679475D01*
X104042432Y21791943D01*
X103886081Y21875514D01*
X103716431Y21926977D01*
X103584207Y21940000D01*
X103584206Y21940000D01*
X103540000Y21944354D01*
X103495794Y21940000D01*
X103340697Y21940000D01*
X103321340Y22003814D01*
X103284197Y22073303D01*
X103234211Y22134211D01*
X103173303Y22184197D01*
X103103814Y22221340D01*
X103028414Y22244212D01*
X102950000Y22251935D01*
X99950000Y22251935D01*
X99871586Y22244212D01*
X99796186Y22221340D01*
X99726697Y22184197D01*
X99665789Y22134211D01*
X99615803Y22073303D01*
X99578660Y22003814D01*
X99555788Y21928414D01*
X99548065Y21850000D01*
X99548065Y20350000D01*
X99555788Y20271586D01*
X99578660Y20196186D01*
X99615803Y20126697D01*
X99665789Y20065789D01*
X99726697Y20015803D01*
X99796186Y19978660D01*
X99871586Y19955788D01*
X99950000Y19948065D01*
X102950000Y19948065D01*
X103028414Y19955788D01*
X103103814Y19978660D01*
X103173303Y20015803D01*
X103234211Y20065789D01*
X103237460Y20069748D01*
X109097207Y14210000D01*
X101307925Y14210000D01*
X101301441Y14211967D01*
X101169217Y14224990D01*
X101169216Y14224990D01*
X101125010Y14229344D01*
X101082536Y14225161D01*
X101089408Y14247814D01*
X101101935Y14375000D01*
X101101935Y15625000D01*
X101089408Y15752186D01*
X101081395Y15778603D01*
X102050857Y16748065D01*
X102950000Y16748065D01*
X103028414Y16755788D01*
X103103814Y16778660D01*
X103173303Y16815803D01*
X103234211Y16865789D01*
X103284197Y16926697D01*
X103321340Y16996186D01*
X103344212Y17071586D01*
X103351935Y17150000D01*
X103351935Y18650000D01*
X103344212Y18728414D01*
X103321340Y18803814D01*
X103284197Y18873303D01*
X103234211Y18934211D01*
X103173303Y18984197D01*
X103103814Y19021340D01*
X103028414Y19044212D01*
X102950000Y19051935D01*
X99950000Y19051935D01*
X99871586Y19044212D01*
X99796186Y19021340D01*
X99726697Y18984197D01*
X99665789Y18934211D01*
X99615803Y18873303D01*
X99578660Y18803814D01*
X99555788Y18728414D01*
X99548065Y18650000D01*
X99548065Y17150000D01*
X99555788Y17071586D01*
X99578660Y16996186D01*
X99615803Y16926697D01*
X99646500Y16889292D01*
X99382361Y16625153D01*
X99348026Y16596975D01*
X99319848Y16562640D01*
X99319845Y16562637D01*
X99235557Y16459931D01*
X99151987Y16303581D01*
X99100523Y16133930D01*
X99098597Y16114371D01*
X99064012Y16085988D01*
X98982936Y15987196D01*
X98922691Y15874485D01*
X98885592Y15752186D01*
X98873065Y15625000D01*
X98873065Y14375000D01*
X98885592Y14247814D01*
X98892516Y14224990D01*
X92987782Y14224990D01*
X95510857Y16748065D01*
X97050000Y16748065D01*
X97128414Y16755788D01*
X97203814Y16778660D01*
X97273303Y16815803D01*
X97334211Y16865789D01*
X97384197Y16926697D01*
X97421340Y16996186D01*
X97444212Y17071586D01*
X97451935Y17150000D01*
X97451935Y18650000D01*
X97444212Y18728414D01*
X97421340Y18803814D01*
X97384197Y18873303D01*
X97334211Y18934211D01*
X97273303Y18984197D01*
X97203814Y19021340D01*
X97128414Y19044212D01*
X97050000Y19051935D01*
X94050000Y19051935D01*
X93971586Y19044212D01*
X93896186Y19021340D01*
X93826697Y18984197D01*
X93765789Y18934211D01*
X93715803Y18873303D01*
X93678660Y18803814D01*
X93655788Y18728414D01*
X93648065Y18650000D01*
X93648065Y17430857D01*
X91742208Y15525000D01*
X82684774Y15525000D01*
X79164619Y19045155D01*
X79136437Y19079495D01*
X78999394Y19191963D01*
X78843043Y19275534D01*
X78673393Y19326997D01*
X78541169Y19340020D01*
X78496962Y19344374D01*
X78452756Y19340020D01*
X73357245Y19340020D01*
X73313039Y19344374D01*
X73268832Y19340020D01*
X73136608Y19326997D01*
X72966958Y19275534D01*
X72810607Y19191963D01*
X72673564Y19079495D01*
X72645382Y19045155D01*
X72155227Y18555000D01*
X67297792Y18555000D01*
X64167657Y21685135D01*
X64139475Y21719475D01*
X64002432Y21831943D01*
X63846081Y21915514D01*
X63676431Y21966977D01*
X63544207Y21980000D01*
X63544206Y21980000D01*
X63500000Y21984354D01*
X63455794Y21980000D01*
X58328564Y21980000D01*
X58321340Y22003814D01*
X58284197Y22073303D01*
X58234211Y22134211D01*
X58173303Y22184197D01*
X58103814Y22221340D01*
X58028414Y22244212D01*
X57950000Y22251935D01*
X54950000Y22251935D01*
X54871586Y22244212D01*
X54796186Y22221340D01*
X54726697Y22184197D01*
X54665789Y22134211D01*
X54615803Y22073303D01*
X54578660Y22003814D01*
X54555788Y21928414D01*
X54548065Y21850000D01*
X54548065Y20350000D01*
X54555788Y20271586D01*
X54578660Y20196186D01*
X54615803Y20126697D01*
X54665789Y20065789D01*
X54726697Y20015803D01*
X54796186Y19978660D01*
X54871586Y19955788D01*
X54950000Y19948065D01*
X57950000Y19948065D01*
X58028414Y19955788D01*
X58103814Y19978660D01*
X58173303Y20015803D01*
X58234211Y20065789D01*
X58284197Y20126697D01*
X58312688Y20180000D01*
X63127208Y20180000D01*
X66052218Y17254990D01*
X63666628Y17254990D01*
X63622431Y17259343D01*
X63578235Y17254990D01*
X63578225Y17254990D01*
X63527551Y17249999D01*
X60843470Y17249999D01*
X60851908Y17277814D01*
X60864435Y17405000D01*
X60864435Y18655000D01*
X60851908Y18782186D01*
X60814809Y18904485D01*
X60754564Y19017196D01*
X60673488Y19115988D01*
X60574696Y19197064D01*
X60461985Y19257309D01*
X60339686Y19294408D01*
X60212500Y19306935D01*
X59287500Y19306935D01*
X59160314Y19294408D01*
X59038015Y19257309D01*
X58925304Y19197064D01*
X58826512Y19115988D01*
X58745436Y19017196D01*
X58685191Y18904485D01*
X58648092Y18782186D01*
X58642952Y18730000D01*
X58343731Y18730000D01*
X58321340Y18803814D01*
X58284197Y18873303D01*
X58234211Y18934211D01*
X58173303Y18984197D01*
X58103814Y19021340D01*
X58028414Y19044212D01*
X57950000Y19051935D01*
X54950000Y19051935D01*
X54871586Y19044212D01*
X54796186Y19021340D01*
X54726697Y18984197D01*
X54665789Y18934211D01*
X54615803Y18873303D01*
X54578660Y18803814D01*
X54555788Y18728414D01*
X54548065Y18650000D01*
X54548065Y17249999D01*
X52451935Y17249999D01*
X52451935Y18650000D01*
X52444212Y18728414D01*
X52421340Y18803814D01*
X52384197Y18873303D01*
X52334211Y18934211D01*
X52273303Y18984197D01*
X52203814Y19021340D01*
X52128414Y19044212D01*
X52050000Y19051935D01*
X49320857Y19051935D01*
X48700000Y19672792D01*
X48700000Y19937888D01*
X48646199Y20208365D01*
X48540664Y20463149D01*
X48387451Y20692448D01*
X48192448Y20887451D01*
X47963149Y21040664D01*
X47708365Y21146199D01*
X47437888Y21200000D01*
X47162112Y21200000D01*
X46891635Y21146199D01*
X46636851Y21040664D01*
X46407552Y20887451D01*
X46212549Y20692448D01*
X46059336Y20463149D01*
X45953801Y20208365D01*
X45903726Y19956622D01*
X43537115Y22323231D01*
X43501098Y22367118D01*
X43325988Y22510827D01*
X43126206Y22617613D01*
X42909430Y22683371D01*
X42740483Y22700011D01*
X42740473Y22700011D01*
X42683991Y22705574D01*
X42627509Y22700011D01*
X36533635Y22700011D01*
X36529283Y22710517D01*
X36365126Y22956194D01*
X36156194Y23165126D01*
X35910517Y23329283D01*
X35637534Y23442356D01*
X35347737Y23500000D01*
X35052263Y23500000D01*
X34762466Y23442356D01*
X34489483Y23329283D01*
X34243806Y23165126D01*
X34034874Y22956194D01*
X33930000Y22799240D01*
X33825126Y22956194D01*
X33616194Y23165126D01*
X33370517Y23329283D01*
X33097534Y23442356D01*
X32807737Y23500000D01*
X32512263Y23500000D01*
X32222466Y23442356D01*
X31949483Y23329283D01*
X31703806Y23165126D01*
X31494874Y22956194D01*
X31330717Y22710517D01*
X31217644Y22437534D01*
X31160000Y22147737D01*
X31160000Y21928218D01*
X29080000Y21909647D01*
X29080000Y22147737D01*
X29022356Y22437534D01*
X28909283Y22710517D01*
X28745126Y22956194D01*
X28536194Y23165126D01*
X28290517Y23329283D01*
X28017534Y23442356D01*
X27727737Y23500000D01*
X27432263Y23500000D01*
X27142466Y23442356D01*
X26869483Y23329283D01*
X26623806Y23165126D01*
X26414874Y22956194D01*
X26310000Y22799240D01*
X26205126Y22956194D01*
X25996194Y23165126D01*
X25750517Y23329283D01*
X25477534Y23442356D01*
X25187737Y23500000D01*
X24892263Y23500000D01*
X24602466Y23442356D01*
X24329483Y23329283D01*
X24083806Y23165126D01*
X23874874Y22956194D01*
X23770000Y22799240D01*
X23665126Y22956194D01*
X23456194Y23165126D01*
X23210517Y23329283D01*
X22937534Y23442356D01*
X22647737Y23500000D01*
X22352263Y23500000D01*
X22062466Y23442356D01*
X21789483Y23329283D01*
X21543806Y23165126D01*
X21528680Y23150000D01*
X17949899Y23150000D01*
X17922448Y23177451D01*
X17693149Y23330664D01*
X17438365Y23436199D01*
X17167888Y23490000D01*
X16892112Y23490000D01*
X16621635Y23436199D01*
X16366851Y23330664D01*
X16137552Y23177451D01*
X15942549Y22982448D01*
X15789336Y22753149D01*
X15683801Y22498365D01*
X15630000Y22227888D01*
X15630000Y21952112D01*
X15683801Y21681635D01*
X15789336Y21426851D01*
X15942549Y21197552D01*
X16137552Y21002549D01*
X16366851Y20849336D01*
X16621635Y20743801D01*
X16892112Y20690000D01*
X17167888Y20690000D01*
X17438365Y20743801D01*
X17693149Y20849336D01*
X17694143Y20850000D01*
X17870101Y20850000D01*
X17712549Y20692448D01*
X17570596Y20480000D01*
X16601283Y20480000D01*
X15676138Y21405145D01*
X15647956Y21439485D01*
X15510913Y21551953D01*
X15354562Y21635524D01*
X15184912Y21686987D01*
X15052688Y21700010D01*
X15052687Y21700010D01*
X15008481Y21704364D01*
X14964275Y21700010D01*
X13351935Y21700010D01*
X13351935Y21850000D01*
X13344212Y21928414D01*
X13321340Y22003814D01*
X13284197Y22073303D01*
X13234211Y22134211D01*
X13173303Y22184197D01*
X13103814Y22221340D01*
X13028414Y22244212D01*
X12950000Y22251935D01*
X9950000Y22251935D01*
X9871586Y22244212D01*
X9796186Y22221340D01*
X9726697Y22184197D01*
X9665789Y22134211D01*
X9615803Y22073303D01*
X9578660Y22003814D01*
X9555788Y21928414D01*
X9548065Y21850000D01*
X9548065Y20400000D01*
X7050155Y20400000D01*
X6917931Y20386977D01*
X6748281Y20335514D01*
X6591930Y20251943D01*
X6454887Y20139475D01*
X6342419Y20002432D01*
X6258848Y19846081D01*
X6239497Y19782289D01*
X5509143Y19051935D01*
X4050000Y19051935D01*
X3971586Y19044212D01*
X3896186Y19021340D01*
X3826697Y18984197D01*
X3765789Y18934211D01*
X3715803Y18873303D01*
X3678660Y18803814D01*
X3655788Y18728414D01*
X3648065Y18650000D01*
X425000Y18650000D01*
X425000Y24575000D01*
X196575001Y24575000D01*
X196575000Y425000D01*
G36*
X152702218Y14224990D02*
G01*
X146175010Y14224990D01*
X146175010Y16002218D01*
X146920857Y16748065D01*
X147950000Y16748065D01*
X148028414Y16755788D01*
X148103814Y16778660D01*
X148173303Y16815803D01*
X148234211Y16865789D01*
X148284197Y16926697D01*
X148321340Y16996186D01*
X148344212Y17071586D01*
X148351935Y17150000D01*
X148351935Y18575273D01*
X152702218Y14224990D01*
G37*
X152702218Y14224990D02*
X146175010Y14224990D01*
X146175010Y16002218D01*
X146920857Y16748065D01*
X147950000Y16748065D01*
X148028414Y16755788D01*
X148103814Y16778660D01*
X148173303Y16815803D01*
X148234211Y16865789D01*
X148284197Y16926697D01*
X148321340Y16996186D01*
X148344212Y17071586D01*
X148351935Y17150000D01*
X148351935Y18575273D01*
X152702218Y14224990D01*
%TD*%
M02*
