M48
; DRILL file {KiCad (5.1.6)-1} date 03/19/25 07:01:35
; FORMAT={-:-/ absolute / metric / decimal}
; #@! TF.CreationDate,2025-03-19T07:01:35-05:00
; #@! TF.GenerationSoftware,Kicad,Pcbnew,(5.1.6)-1
FMAT,2
METRIC
T1C0.400
T2C0.500
T3C0.800
T4C1.000
T5C1.800
T6C3.200
%
G90
G05
T1
X3.5Y24.0
X3.5Y23.0
X4.5Y24.0
X4.5Y23.0
X5.5Y24.0
X5.5Y23.0
X6.0Y12.5
X6.0Y11.5
X7.0Y12.5
X7.0Y11.5
X8.0Y12.5
X8.0Y11.5
X13.0Y24.0
X13.0Y23.0
X14.0Y24.0
X14.0Y23.0
X14.5Y15.0
X14.5Y14.0
X14.5Y13.0
X15.0Y24.0
X15.0Y23.0
X15.5Y15.0
X15.5Y14.0
X15.5Y13.0
X16.5Y3.5
X16.5Y2.5
X17.5Y3.5
X17.5Y2.5
X18.5Y3.5
X18.5Y2.5
X19.0Y9.5
X19.0Y8.5
X20.0Y9.5
X20.0Y8.5
X21.0Y9.5
X21.0Y8.5
X41.0Y1.5
X42.0Y1.5
X43.0Y1.5
X44.0Y24.0
X44.0Y23.0
X44.0Y1.5
X45.0Y24.0
X45.0Y23.0
X46.0Y24.0
X46.0Y23.0
X64.0Y5.0
X64.0Y3.5
X65.5Y5.0
X65.5Y3.5
X67.0Y5.0
X67.0Y3.5
X83.0Y18.5
X83.0Y17.0
X84.0Y5.0
X84.0Y3.5
X84.5Y18.5
X84.5Y17.0
X85.5Y5.0
X85.5Y3.5
X86.0Y18.5
X86.0Y17.0
X87.0Y5.0
X87.0Y3.5
X87.5Y18.5
X87.5Y17.0
X103.5Y15.5
X104.5Y15.5
X105.5Y15.5
X110.5Y5.5
X110.5Y4.0
X112.0Y5.5
X112.0Y4.0
X113.5Y5.5
X113.5Y4.0
X128.0Y18.5
X128.0Y17.0
X129.0Y5.5
X129.0Y4.0
X129.5Y18.5
X129.5Y17.0
X130.5Y5.5
X130.5Y4.0
X131.0Y18.5
X131.0Y17.0
X132.0Y5.5
X132.0Y4.0
X132.5Y18.5
X132.5Y17.0
X148.0Y15.5
X149.0Y15.5
X150.0Y15.5
X156.0Y6.0
X156.0Y4.5
X157.5Y6.0
X157.5Y4.5
X159.0Y6.0
X159.0Y4.5
X172.5Y6.5
X172.5Y5.0
X173.0Y19.0
X173.0Y17.5
X174.0Y6.5
X174.0Y5.0
X174.5Y19.0
X174.5Y17.5
X175.5Y6.5
X175.5Y5.0
X176.5Y19.0
X176.5Y17.5
X178.0Y19.0
X178.0Y17.5
X182.0Y14.5
X183.0Y14.5
X184.0Y14.5
T2
X40.7Y18.2
X40.7Y8.1
X43.0Y18.1
X43.0Y8.1
X45.31Y18.05
T3
X16.9Y6.2
X17.03Y22.09
X18.8Y19.8
X22.1Y6.1
X24.7Y8.1
X37.7Y8.1
X45.28Y5.9
X45.3Y3.5
X47.3Y19.8
X139.69Y8.74
X139.69Y3.66
X147.31Y8.74
X147.31Y3.66
X184.69Y8.74
X184.69Y3.66
X192.31Y8.74
X192.31Y3.66
X22.15Y2.9
X24.69Y2.9
X27.23Y2.9
X29.77Y2.9
X32.31Y2.9
X34.85Y2.9
X49.69Y8.74
X49.69Y3.66
X57.31Y8.74
X57.31Y3.66
X94.69Y8.74
X94.69Y3.66
X102.31Y8.74
X102.31Y3.66
X4.69Y8.74
X4.69Y3.66
X12.31Y8.74
X12.31Y3.66
T4
X22.5Y22.0
X25.04Y22.0
X27.58Y22.0
X30.12Y22.0
X32.66Y22.0
X35.2Y22.0
T5
X3.0Y14.0
T6
X166.0Y12.0
X121.0Y12.0
X76.0Y12.0
T0
M30
