%TF.GenerationSoftware,KiCad,Pcbnew,(5.1.6)-1*%
%TF.CreationDate,2025-02-09T14:16:28-05:00*%
%TF.ProjectId,test_mother_board,74657374-5f6d-46f7-9468-65725f626f61,rev?*%
%TF.SameCoordinates,PX623a7c0PY510ff40*%
%TF.FileFunction,Copper,L2,Bot*%
%TF.FilePolarity,Positive*%
%FSLAX46Y46*%
G04 Gerber Fmt 4.6, Leading zero omitted, Abs format (unit mm)*
G04 Created by KiCad (PCBNEW (5.1.6)-1) date 2025-02-09 14:16:28*
%MOMM*%
%LPD*%
G01*
G04 APERTURE LIST*
%TA.AperFunction,ComponentPad*%
%ADD10C,2.200000*%
%TD*%
%TA.AperFunction,ComponentPad*%
%ADD11C,1.500000*%
%TD*%
%TA.AperFunction,ComponentPad*%
%ADD12C,2.440000*%
%TD*%
%TA.AperFunction,ComponentPad*%
%ADD13C,2.400000*%
%TD*%
%TA.AperFunction,ViaPad*%
%ADD14C,2.000000*%
%TD*%
%TA.AperFunction,Conductor*%
%ADD15C,1.500000*%
%TD*%
%TA.AperFunction,Conductor*%
%ADD16C,2.000000*%
%TD*%
%TA.AperFunction,Conductor*%
%ADD17C,2.200000*%
%TD*%
%TA.AperFunction,Conductor*%
%ADD18C,0.600000*%
%TD*%
%TA.AperFunction,Conductor*%
%ADD19C,1.000000*%
%TD*%
G04 APERTURE END LIST*
D10*
%TO.P,REF\u002A\u002A,3*%
%TO.N,T41_TX1*%
X45220000Y5100000D03*
%TO.P,REF\u002A\u002A,2*%
%TO.N,T41_RX1*%
X47760000Y5100000D03*
%TO.P,REF\u002A\u002A,1*%
%TO.N,GND*%
X50300000Y5100000D03*
%TD*%
%TO.P,J7,1*%
%TO.N,Net-(J7-Pad1)*%
X52300000Y19540000D03*
%TO.P,J7,2*%
%TO.N,+5V*%
X52300000Y17000000D03*
%TO.P,J7,3*%
%TO.N,Net-(J7-Pad3)*%
X49760000Y19540000D03*
%TO.P,J7,4*%
%TO.N,+5V*%
X49760000Y17000000D03*
%TO.P,J7,5*%
%TO.N,Net-(J7-Pad5)*%
X47220000Y19540000D03*
%TO.P,J7,6*%
%TO.N,GND*%
X47220000Y17000000D03*
%TO.P,J7,7*%
%TO.N,RPI_LCD_DC*%
X44680000Y19540000D03*
D11*
%TO.P,J7,8*%
%TO.N,T41_RX1*%
X44680000Y17000000D03*
D10*
%TO.P,J7,9*%
%TO.N,GND*%
X42140000Y19540000D03*
D11*
%TO.P,J7,10*%
%TO.N,T41_TX1*%
X42140000Y17000000D03*
D12*
%TO.P,J7,11*%
%TO.N,Net-(J7-Pad11)*%
X39600000Y19540000D03*
D10*
%TO.P,J7,12*%
%TO.N,I2S_BCLK*%
X39600000Y17000000D03*
D12*
%TO.P,J7,13*%
%TO.N,Net-(J7-Pad13)*%
X37060000Y19540000D03*
D10*
%TO.P,J7,14*%
%TO.N,GND*%
X37060000Y17000000D03*
D13*
%TO.P,J7,15*%
%TO.N,Net-(J7-Pad15)*%
X34520000Y19540000D03*
D10*
%TO.P,J7,16*%
%TO.N,Net-(J7-Pad16)*%
X34520000Y17000000D03*
D13*
%TO.P,J7,17*%
%TO.N,Net-(J7-Pad17)*%
X31980000Y19540000D03*
D10*
%TO.P,J7,18*%
%TO.N,Net-(J7-Pad18)*%
X31980000Y17000000D03*
%TO.P,J7,19*%
%TO.N,RPI_MOSI*%
X29440000Y19540000D03*
D11*
%TO.P,J7,20*%
%TO.N,GND*%
X29440000Y17000000D03*
D10*
%TO.P,J7,21*%
%TO.N,RPI_MISO*%
X26900000Y19540000D03*
D11*
%TO.P,J7,22*%
%TO.N,Net-(J7-Pad22)*%
X26900000Y17000000D03*
D10*
%TO.P,J7,23*%
%TO.N,RPI_SCLK*%
X24360000Y19540000D03*
D11*
%TO.P,J7,24*%
%TO.N,RPI_LCD_CS*%
X24360000Y17000000D03*
D10*
%TO.P,J7,25*%
%TO.N,GND*%
X21820000Y19540000D03*
D11*
%TO.P,J7,26*%
%TO.N,RPI_T_CS*%
X21820000Y17000000D03*
D10*
%TO.P,J7,27*%
%TO.N,Net-(J7-Pad27)*%
X19280000Y19540000D03*
%TO.P,J7,28*%
%TO.N,Net-(J7-Pad28)*%
X19280000Y17000000D03*
%TO.P,J7,29*%
%TO.N,Net-(J7-Pad29)*%
X16740000Y19540000D03*
%TO.P,J7,30*%
%TO.N,GND*%
X16740000Y17000000D03*
%TO.P,J7,31*%
%TO.N,LED_RPI_BUSY*%
X14200000Y19540000D03*
D11*
%TO.P,J7,32*%
%TO.N,RPI_READY*%
X14200000Y17000000D03*
D10*
%TO.P,J7,33*%
%TO.N,LED_RPI_I2S_RX*%
X11660000Y19540000D03*
D11*
%TO.P,J7,34*%
%TO.N,GND*%
X11660000Y17000000D03*
D10*
%TO.P,J7,35*%
%TO.N,I2S_FCLK*%
X9120000Y19540000D03*
D11*
%TO.P,J7,36*%
%TO.N,LED_RPI_I2S_TX*%
X9120000Y17000000D03*
D10*
%TO.P,J7,37*%
%TO.N,Net-(J7-Pad37)*%
X6580000Y19540000D03*
D11*
%TO.P,J7,38*%
%TO.N,I2S_TXB*%
X6580000Y17000000D03*
D10*
%TO.P,J7,39*%
%TO.N,GND*%
X4040000Y19540000D03*
%TO.P,J7,40*%
%TO.N,I2S_RXB*%
X4040000Y17000000D03*
%TD*%
%TO.P,J4,8*%
%TO.N,+5V*%
X19220000Y5000000D03*
%TO.P,J4,7*%
%TO.N,RPI_T_CS*%
X21760000Y5000000D03*
%TO.P,J4,6*%
%TO.N,RPI_SCLK*%
X24300000Y5000000D03*
%TO.P,J4,5*%
%TO.N,RPI_MISO*%
X26840000Y5000000D03*
%TO.P,J4,4*%
%TO.N,RPI_LCD_DC*%
X29380000Y5000000D03*
%TO.P,J4,3*%
%TO.N,RPI_LCD_CS*%
X31920000Y5000000D03*
%TO.P,J4,2*%
%TO.N,RPI_MOSI*%
X34460000Y5000000D03*
%TO.P,J4,1*%
%TO.N,GND*%
X37000000Y5000000D03*
%TD*%
D14*
%TO.N,+5V*%
X51200000Y13400000D03*
X19200000Y13400000D03*
%TO.N,RPI_LCD_DC*%
X43600000Y10100000D03*
X29380000Y10020000D03*
%TO.N,RPI_LCD_CS*%
X25600000Y12000000D03*
X30100000Y12100000D03*
%TO.N,LED_RPI_BUSY*%
X12500000Y6000000D03*
%TO.N,RPI_READY*%
X15000000Y6000000D03*
%TO.N,LED_RPI_I2S_RX*%
X10000000Y6000000D03*
%TO.N,I2S_FCLK*%
X5000000Y6000000D03*
%TO.N,LED_RPI_I2S_TX*%
X7500000Y6000000D03*
%TO.N,I2S_TXB*%
X2500000Y6000000D03*
%TD*%
D15*
%TO.N,+5V*%
X19200000Y13400000D02*
X19200000Y13400000D01*
X19200000Y13400000D02*
X19200000Y13400000D01*
D16*
X51200000Y17000000D02*
X49800000Y17000000D01*
X52300000Y17000000D02*
X51200000Y17000000D01*
D17*
X51200000Y13400000D02*
X51200000Y17000000D01*
D15*
X19400000Y13400000D02*
X20099980Y12700020D01*
X19200000Y13400000D02*
X19400000Y13400000D01*
X20099980Y6373982D02*
X19200000Y5474002D01*
X20099980Y12700020D02*
X20099980Y6373982D01*
X19200000Y5474002D02*
X19200000Y4800000D01*
%TO.N,RPI_T_CS*%
X21820000Y4980000D02*
X21900000Y4900000D01*
X21799990Y16979990D02*
X21799990Y5000010D01*
X21820000Y17000000D02*
X21799990Y16979990D01*
D18*
%TO.N,RPI_SCLK*%
X24360000Y19540000D02*
X23109999Y18289999D01*
D15*
X24300000Y5600000D02*
X23520010Y6379990D01*
X24300000Y5000000D02*
X24300000Y5600000D01*
X23500000Y13500000D02*
X23500000Y14300000D01*
X23520010Y11979990D02*
X23520010Y13500000D01*
X23520010Y11979990D02*
X23520010Y12800000D01*
X23520010Y6379990D02*
X23520010Y11979990D01*
D18*
X23109999Y15390001D02*
X23109999Y14709999D01*
X23109999Y18289999D02*
X23109999Y15390001D01*
X23500000Y15014436D02*
X23500000Y14300000D01*
X23149979Y15364457D02*
X23500000Y15014436D01*
%TO.N,RPI_MISO*%
X26900000Y19540000D02*
X25649999Y18289999D01*
X25649999Y16399999D02*
X26900000Y15149998D01*
X25649999Y18289999D02*
X25649999Y16399999D01*
X26900000Y15149998D02*
X26900000Y14700000D01*
D15*
X26840000Y10353998D02*
X28100000Y11613998D01*
X26920030Y13479970D02*
X26920030Y14679970D01*
X28100000Y11613998D02*
X28100000Y12300000D01*
X26920030Y14679970D02*
X26900000Y14700000D01*
X28100000Y12300000D02*
X26920030Y13479970D01*
X27600000Y12340000D02*
X27600000Y11620000D01*
X26840000Y10353998D02*
X26840000Y5060000D01*
D18*
%TO.N,RPI_LCD_DC*%
X44680000Y19540000D02*
X43390001Y18250001D01*
X43390001Y18250001D02*
X43390001Y16090001D01*
D17*
X29380000Y5000000D02*
X29380000Y9799999D01*
D19*
X43100009Y10599991D02*
X43600000Y10100000D01*
X43393001Y16106999D02*
X43100009Y15814007D01*
X43100009Y15814007D02*
X43100009Y10599991D01*
D15*
%TO.N,RPI_LCD_CS*%
X25220020Y13504167D02*
X25220020Y13975804D01*
X25199991Y15082227D02*
X24399989Y15882228D01*
X25199991Y13995833D02*
X25199991Y15082227D01*
X24399989Y15882228D02*
X24399989Y17000000D01*
X25220020Y12379980D02*
X25600000Y12000000D01*
X25220020Y13975804D02*
X25220020Y12379980D01*
X25199991Y13995833D02*
X25220020Y13975804D01*
X31920000Y5000000D02*
X31920000Y10580000D01*
X31920000Y10580000D02*
X30500000Y12000000D01*
D18*
%TO.N,RPI_MOSI*%
X28189999Y18289999D02*
X28189999Y14910001D01*
X29440000Y19540000D02*
X28189999Y18289999D01*
D15*
X28950001Y14050001D02*
X28620040Y14379962D01*
X31036001Y14050001D02*
X28950001Y14050001D01*
X33620010Y11465992D02*
X31036001Y14050001D01*
X34100000Y5000000D02*
X33970001Y5129999D01*
X33970001Y5129999D02*
X33970001Y5929999D01*
X33970001Y5929999D02*
X33620010Y6279990D01*
X28620040Y14379962D02*
X28620040Y14910001D01*
X34460000Y5000000D02*
X34100000Y5000000D01*
X33620010Y6279990D02*
X33620010Y11465992D01*
%TO.N,I2S_BCLK*%
X39600000Y17000000D02*
X39600000Y16800000D01*
D18*
%TO.N,LED_RPI_BUSY*%
X12949999Y18289999D02*
X12949999Y15950001D01*
X14200000Y19540000D02*
X12949999Y18289999D01*
D19*
X11630040Y14630042D02*
X12949999Y15950001D01*
X11630040Y11130040D02*
X11630040Y14630042D01*
X11630040Y11130040D02*
X11630040Y9369960D01*
X11630040Y9369960D02*
X12500000Y8500000D01*
X12500000Y8500000D02*
X12500000Y6000000D01*
X12500000Y6000000D02*
X12500000Y6000000D01*
%TO.N,RPI_READY*%
X14150008Y16250008D02*
X14150008Y15452940D01*
X14200000Y17000000D02*
X14200000Y16300000D01*
X14200000Y16300000D02*
X14150008Y16250008D01*
X14150008Y15452940D02*
X12830050Y14132982D01*
X12830050Y14132982D02*
X12830050Y11000000D01*
X12830050Y11000000D02*
X12830050Y10969950D01*
X14500000Y6000000D02*
X14500000Y6000000D01*
X15000000Y8500000D02*
X15000000Y6000000D01*
X12830050Y11000000D02*
X12830050Y10669950D01*
X12830050Y10669950D02*
X15000000Y8500000D01*
D18*
%TO.N,LED_RPI_I2S_RX*%
X10409999Y18289999D02*
X10409999Y15909999D01*
X11660000Y19540000D02*
X10409999Y18289999D01*
D19*
X10430030Y10930030D02*
X10430030Y15909999D01*
X10430030Y10930030D02*
X10430030Y9500000D01*
X10430030Y9500000D02*
X10430030Y9430030D01*
X10430030Y8872900D02*
X10000000Y8442870D01*
X10430030Y9430030D02*
X10430030Y8872900D01*
X10000000Y8442870D02*
X10000000Y6000000D01*
X10000000Y6000000D02*
X10000000Y6000000D01*
D18*
%TO.N,I2S_FCLK*%
X7869999Y18289999D02*
X7869999Y15830001D01*
X9120000Y19540000D02*
X7869999Y18289999D01*
D19*
X8030010Y15338727D02*
X8030010Y15943988D01*
X8030010Y11030010D02*
X8030010Y15338727D01*
X8030010Y9867020D02*
X5000000Y6837010D01*
X8030010Y11030010D02*
X8030010Y9867020D01*
X5000000Y6837010D02*
X5000000Y6000000D01*
X5000000Y6000000D02*
X5000000Y6000000D01*
%TO.N,LED_RPI_I2S_TX*%
X9120000Y16551068D02*
X9120000Y17000000D01*
X9230020Y16441048D02*
X9120000Y16551068D01*
X7500000Y7639940D02*
X9230020Y9369960D01*
X9230020Y9369960D02*
X9230020Y16441048D01*
X7500000Y6000000D02*
X7500000Y6000000D01*
X7500000Y6000000D02*
X7500000Y7639940D01*
%TO.N,I2S_TXB*%
X6580000Y16920000D02*
X6869989Y16630011D01*
X6580000Y17000000D02*
X6580000Y16920000D01*
X6869989Y16481037D02*
X6830000Y16441048D01*
X6869989Y16630011D02*
X6869989Y16481037D01*
X6830000Y10364080D02*
X4465920Y8000000D01*
X6830000Y16441048D02*
X6830000Y10364080D01*
X3799991Y7334071D02*
X2834071Y7334071D01*
X4465920Y8000000D02*
X3799991Y7334071D01*
X2834071Y7334071D02*
X2500000Y7000000D01*
X2500000Y7000000D02*
X2500000Y6000000D01*
X2500000Y6000000D02*
X2500000Y6000000D01*
D15*
%TO.N,I2S_RXB*%
X4040000Y16840000D02*
X3900000Y16700000D01*
X4040000Y17000000D02*
X4040000Y16840000D01*
D19*
%TO.N,T41_RX1*%
X44680000Y16497072D02*
X44800010Y16377062D01*
X44680000Y17000000D02*
X44680000Y16497072D01*
X44680000Y17000000D02*
X44680000Y15696928D01*
X44300019Y15316947D02*
X44300019Y15250001D01*
X44680000Y15696928D02*
X44300019Y15316947D01*
X44300019Y15316947D02*
X44300019Y11800001D01*
X44416001Y11800001D02*
X47800000Y8416002D01*
X44300019Y11800001D02*
X44416001Y11800001D01*
X47800000Y8416002D02*
X47800000Y4900000D01*
%TO.N,T41_TX1*%
X41899999Y15250001D02*
X41899999Y16699999D01*
X41899999Y15250001D02*
X41899999Y15799999D01*
X41899999Y9283999D02*
X45200000Y5983998D01*
X41899999Y15250001D02*
X41899999Y9283999D01*
X45200000Y5983998D02*
X45200000Y5100000D01*
%TD*%
M02*
