0
SECTION
2
HEADER
9
$INSUNITS
70
4
9
$ACADVER
1
AC1014
9
$HANDSEED
5
FFFF
0
ENDSEC
0
SECTION
2
TABLES
0
TABLE
2
VPORT
5
8
100
AcDbSymbolTable
0
ENDTAB
0
TABLE
2
LTYPE
5
5
100
AcDbSymbolTable
0
LTYPE
5
14
100
AcDbSymbolTableRecord
100
AcDbLinetypeTableRecord
2
BYBLOCK
70
0
0
LTYPE
5
15
100
AcDbSymbolTableRecord
100
AcDbLinetypeTableRecord
2
BYLAYER
70
0
0
LTYPE
5
16
100
AcDbSymbolTableRecord
100
AcDbLinetypeTableRecord
2
DASHED
70
0
3
Dashed __ __ __ __ __ __ __ __ __ __ __ __ __ _
72
65
73
2
40
0.75
49
0.5
74
0
49
-0.25
74
0
0
ENDTAB
0
TABLE
2
LAYER
5
2
100
AcDbSymbolTable
70
3
0
LAYER
5
50
100
AcDbSymbolTableRecord
100
AcDbLayerTableRecord
2
1
70
0
62
7
6
DASHED
0
LAYER
5
51
100
AcDbSymbolTableRecord
100
AcDbLayerTableRecord
2
0
70
0
62
7
6
CONTINUOUS
0
ENDTAB
0
TABLE
2
STYLE
5
3
100
AcDbSymbolTable
70
1
0
STYLE
5
11
100
AcDbSymbolTableRecord
100
AcDbTextStyleTableRecord
2
STANDARD
70
0
0
ENDTAB
0
TABLE
2
VIEW
5
6
100
AcDbSymbolTable
70
0
0
ENDTAB
0
TABLE
2
UCS
5
7
100
AcDbSymbolTable
70
0
0
ENDTAB
0
TABLE
2
APPID
5
9
100
AcDbSymbolTable
70
2
0
APPID
5
12
100
AcDbSymbolTableRecord
100
AcDbRegAppTableRecord
2
ACAD
70
0
0
ENDTAB
0
TABLE
2
DIMSTYLE
5
A
100
AcDbSymbolTable
70
1
0
ENDTAB
0
TABLE
2
BLOCK_RECORD
5
1
100
AcDbSymbolTable
70
1
0
BLOCK_RECORD
5
1F
100
AcDbSymbolTableRecord
100
AcDbBlockTableRecord
2
*MODEL_SPACE
0
BLOCK_RECORD
5
1B
100
AcDbSymbolTableRecord
100
AcDbBlockTableRecord
2
*PAPER_SPACE
0
ENDTAB
0
ENDSEC
0
SECTION
2
BLOCKS
0
BLOCK
5
20
100
AcDbEntity
100
AcDbBlockBegin
2
*MODEL_SPACE
0
ENDBLK
5
21
100
AcDbEntity
100
AcDbBlockEnd
0
BLOCK
5
1C
100
AcDbEntity
100
AcDbBlockBegin
2
*PAPER_SPACE
0
ENDBLK
5
1D
100
AcDbEntity
100
AcDbBlockEnd
0
ENDSEC
0
SECTION
2
ENTITIES
0
POINT
5
100
100
AcDbEntity
8
0
100
AcDbPoint
10
11.500000171363354
20
22.500000335276127
30
0
0
CIRCLE
5
101
100
AcDbEntity
8
1
100
AcDbCircle
10
50.00000074505806
20
22.000000327825546
30
0
40
1.6000000000000014
210
0
220
0
230
1
0
LINE
5
102
100
AcDbEntity
8
1
100
AcDbLine
10
0
20
296
30
0
11
0
21
0
31
0
0
LINE
5
103
100
AcDbEntity
8
1
100
AcDbLine
10
235
20
296
30
0
11
0
21
296
31
0
0
LINE
5
104
100
AcDbEntity
8
1
100
AcDbLine
10
235
20
0
30
0
11
235
21
296
31
0
0
LINE
5
105
100
AcDbEntity
8
1
100
AcDbLine
10
0
20
0
30
0
11
235
21
0
31
0
0
CIRCLE
5
106
100
AcDbEntity
8
0
100
AcDbCircle
10
11.500000171363354
20
22.500000335276127
30
0
40
0.74999999999999944
210
0
220
0
230
1
0
CIRCLE
5
107
100
AcDbEntity
8
0
100
AcDbCircle
10
50.00000074505806
20
22.000000327825546
30
0
40
0.75000000000000133
210
0
220
0
230
1
0
CIRCLE
5
108
100
AcDbEntity
8
0
100
AcDbCircle
10
95.000001415610313
20
22.000000327825546
30
0
40
0.75000000000000333
210
0
220
0
230
1
0
CIRCLE
5
109
100
AcDbEntity
8
0
100
AcDbCircle
10
139.99999858438969
20
22.000000327825546
30
0
40
0.75000000000000089
210
0
220
0
230
1
0
CIRCLE
5
110
100
AcDbEntity
8
0
100
AcDbCircle
10
184.99999925494194
20
22.000000327825546
30
0
40
0.75000000000000844
210
0
220
0
230
1
0
CIRCLE
5
111
100
AcDbEntity
8
0
100
AcDbCircle
10
223.49999982863665
20
22.500000335276127
30
0
40
0.75000000000000178
210
0
220
0
230
1
0
CIRCLE
5
112
100
AcDbEntity
8
0
100
AcDbCircle
10
213.99999968707561
20
54.000000849366188
30
0
40
0.74999999999999412
210
0
220
0
230
1
0
CIRCLE
5
113
100
AcDbEntity
8
0
100
AcDbCircle
10
146.99999868869781
20
54.000000849366188
30
0
40
0.750000000000002
210
0
220
0
230
1
0
CIRCLE
5
114
100
AcDbEntity
8
0
100
AcDbCircle
10
88.000001311302185
20
54.000000849366188
30
0
40
0.75000000000000355
210
0
220
0
230
1
0
CIRCLE
5
115
100
AcDbEntity
8
0
100
AcDbCircle
10
21.000000312924385
20
54.000000849366188
30
0
40
0.75000000000000178
210
0
220
0
230
1
0
CIRCLE
5
116
100
AcDbEntity
8
0
100
AcDbCircle
10
21.000000312924385
20
120.0000024586916
30
0
40
0.75000000000000278
210
0
220
0
230
1
0
CIRCLE
5
117
100
AcDbEntity
8
0
100
AcDbCircle
10
85.000001266598701
20
150.0000024586916
30
0
40
0.75
210
0
220
0
230
1
0
CIRCLE
5
118
100
AcDbEntity
8
0
100
AcDbCircle
10
149.9999987334013
20
150.0000024586916
30
0
40
0.75000000000000644
210
0
220
0
230
1
0
CIRCLE
5
119
100
AcDbEntity
8
0
100
AcDbCircle
10
213.99999968707561
20
120.0000024586916
30
0
40
0.74999999999999289
210
0
220
0
230
1
0
CIRCLE
5
120
100
AcDbEntity
8
0
100
AcDbCircle
10
8.0000001192093073
20
192.00000286102338
30
0
40
0.75000000000001066
210
0
220
0
230
1
0
CIRCLE
5
121
100
AcDbEntity
8
0
100
AcDbCircle
10
226.99999988079071
20
192.00000286102338
30
0
40
0.75000000000000744
210
0
220
0
230
1
0
CIRCLE
5
122
100
AcDbEntity
8
0
100
AcDbCircle
10
8.0000001192092896
20
268.00000402331352
30
0
40
0.50000000000000278
210
0
220
0
230
1
0
CIRCLE
5
123
100
AcDbEntity
8
0
100
AcDbCircle
10
8.0000001192092913
20
276.00000414252287
30
0
40
0.50000000000000344
210
0
220
0
230
1
0
CIRCLE
5
124
100
AcDbEntity
8
0
100
AcDbCircle
10
227.00000011920932
20
268.00000402331352
30
0
40
0.50000000000000577
210
0
220
0
230
1
0
CIRCLE
5
125
100
AcDbEntity
8
0
100
AcDbCircle
10
227.00000011920932
20
276.00000414252287
30
0
40
0.49999999999999772
210
0
220
0
230
1
0
LWPOLYLINE
5
126
100
AcDbEntity
8
0
100
AcDbPolyline
90
4
70
1
43
0.0
10
299.80000000000001
20
-3.9999999850988388
10
-5
20
-3.9999999850988388
10
-5
20
300.80000001490117
10
299.80000000000001
20
300.80000001490117
0
LINE
5
127
100
AcDbEntity
8
0
100
AcDbLine
10
240.00000357627869
20
-8.0000001192092896
30
0
11
240.00000357627869
21
303.00000451505184
31
0
0
ENDSEC
0
SECTION
2
OBJECTS
0
DICTIONARY
5
C
100
AcDbDictionary
3
ACAD_GROUP
350
D
3
ACAD_MLINESTYLE
350
17
0
DICTIONARY
5
D
100
AcDbDictionary
0
DICTIONARY
5
1A
330
C
100
AcDbDictionary
0
DICTIONARY
5
17
100
AcDbDictionary
0
ENDSEC
0
EOF
