%TF.GenerationSoftware,KiCad,Pcbnew,(5.1.6)-1*%
%TF.CreationDate,2025-02-22T11:04:11-05:00*%
%TF.ProjectId,row_board,726f775f-626f-4617-9264-2e6b69636164,rev?*%
%TF.SameCoordinates,PX311d3e0PY5f5e100*%
%TF.FileFunction,Soldermask,Top*%
%TF.FilePolarity,Negative*%
%FSLAX46Y46*%
G04 Gerber Fmt 4.6, Leading zero omitted, Abs format (unit mm)*
G04 Created by KiCad (PCBNEW (5.1.6)-1) date 2025-02-22 11:04:11*
%MOMM*%
%LPD*%
G01*
G04 APERTURE LIST*
%ADD10C,2.300000*%
%ADD11C,2.100000*%
%ADD12C,3.300000*%
%ADD13R,3.100000X1.600000*%
%ADD14O,3.570000X2.300000*%
%ADD15C,0.900000*%
G04 APERTURE END LIST*
D10*
%TO.C,J1*%
X35200000Y21500000D03*
X32660000Y21500000D03*
X30120000Y21500000D03*
X27580000Y21500000D03*
X25040000Y21500000D03*
X22500000Y21500000D03*
%TD*%
D11*
%TO.C,REF\u002A\u002A*%
X3000000Y14000000D03*
%TD*%
D12*
%TO.C,REF\u002A\u002A*%
X166000000Y12000000D03*
%TD*%
%TO.C,REF\u002A\u002A*%
X121000000Y12000000D03*
%TD*%
%TO.C,REF\u002A\u002A*%
X76000000Y12000000D03*
%TD*%
%TO.C,C6*%
G36*
G01*
X20942544Y14575000D02*
X22257456Y14575000D01*
G75*
G02*
X22525000Y14307456I0J-267544D01*
G01*
X22525000Y13317544D01*
G75*
G02*
X22257456Y13050000I-267544J0D01*
G01*
X20942544Y13050000D01*
G75*
G02*
X20675000Y13317544I0J267544D01*
G01*
X20675000Y14307456D01*
G75*
G02*
X20942544Y14575000I267544J0D01*
G01*
G37*
G36*
G01*
X20942544Y17550000D02*
X22257456Y17550000D01*
G75*
G02*
X22525000Y17282456I0J-267544D01*
G01*
X22525000Y16292544D01*
G75*
G02*
X22257456Y16025000I-267544J0D01*
G01*
X20942544Y16025000D01*
G75*
G02*
X20675000Y16292544I0J267544D01*
G01*
X20675000Y17282456D01*
G75*
G02*
X20942544Y17550000I267544J0D01*
G01*
G37*
%TD*%
D13*
%TO.C,D1*%
X5550000Y21100000D03*
X5550000Y17900000D03*
X11450000Y21100000D03*
X11450000Y17900000D03*
%TD*%
%TO.C,D2*%
X56450000Y17900000D03*
X56450000Y21100000D03*
X50550000Y17900000D03*
X50550000Y21100000D03*
%TD*%
%TO.C,D3*%
X95550000Y21100000D03*
X95550000Y17900000D03*
X101450000Y21100000D03*
X101450000Y17900000D03*
%TD*%
%TO.C,D4*%
X146450000Y17900000D03*
X146450000Y21100000D03*
X140550000Y17900000D03*
X140550000Y21100000D03*
%TD*%
%TO.C,D5*%
X185550000Y21100000D03*
X185550000Y17900000D03*
X191450000Y21100000D03*
X191450000Y17900000D03*
%TD*%
%TO.C,C1*%
G36*
G01*
X10750000Y15657456D02*
X10750000Y14342544D01*
G75*
G02*
X10482456Y14075000I-267544J0D01*
G01*
X9492544Y14075000D01*
G75*
G02*
X9225000Y14342544I0J267544D01*
G01*
X9225000Y15657456D01*
G75*
G02*
X9492544Y15925000I267544J0D01*
G01*
X10482456Y15925000D01*
G75*
G02*
X10750000Y15657456I0J-267544D01*
G01*
G37*
G36*
G01*
X7775000Y15657456D02*
X7775000Y14342544D01*
G75*
G02*
X7507456Y14075000I-267544J0D01*
G01*
X6517544Y14075000D01*
G75*
G02*
X6250000Y14342544I0J267544D01*
G01*
X6250000Y15657456D01*
G75*
G02*
X6517544Y15925000I267544J0D01*
G01*
X7507456Y15925000D01*
G75*
G02*
X7775000Y15657456I0J-267544D01*
G01*
G37*
%TD*%
%TO.C,C2*%
G36*
G01*
X52775000Y15657456D02*
X52775000Y14342544D01*
G75*
G02*
X52507456Y14075000I-267544J0D01*
G01*
X51517544Y14075000D01*
G75*
G02*
X51250000Y14342544I0J267544D01*
G01*
X51250000Y15657456D01*
G75*
G02*
X51517544Y15925000I267544J0D01*
G01*
X52507456Y15925000D01*
G75*
G02*
X52775000Y15657456I0J-267544D01*
G01*
G37*
G36*
G01*
X55750000Y15657456D02*
X55750000Y14342544D01*
G75*
G02*
X55482456Y14075000I-267544J0D01*
G01*
X54492544Y14075000D01*
G75*
G02*
X54225000Y14342544I0J267544D01*
G01*
X54225000Y15657456D01*
G75*
G02*
X54492544Y15925000I267544J0D01*
G01*
X55482456Y15925000D01*
G75*
G02*
X55750000Y15657456I0J-267544D01*
G01*
G37*
%TD*%
%TO.C,C3*%
G36*
G01*
X97775000Y15657456D02*
X97775000Y14342544D01*
G75*
G02*
X97507456Y14075000I-267544J0D01*
G01*
X96517544Y14075000D01*
G75*
G02*
X96250000Y14342544I0J267544D01*
G01*
X96250000Y15657456D01*
G75*
G02*
X96517544Y15925000I267544J0D01*
G01*
X97507456Y15925000D01*
G75*
G02*
X97775000Y15657456I0J-267544D01*
G01*
G37*
G36*
G01*
X100750000Y15657456D02*
X100750000Y14342544D01*
G75*
G02*
X100482456Y14075000I-267544J0D01*
G01*
X99492544Y14075000D01*
G75*
G02*
X99225000Y14342544I0J267544D01*
G01*
X99225000Y15657456D01*
G75*
G02*
X99492544Y15925000I267544J0D01*
G01*
X100482456Y15925000D01*
G75*
G02*
X100750000Y15657456I0J-267544D01*
G01*
G37*
%TD*%
%TO.C,C4*%
G36*
G01*
X142775000Y15657456D02*
X142775000Y14342544D01*
G75*
G02*
X142507456Y14075000I-267544J0D01*
G01*
X141517544Y14075000D01*
G75*
G02*
X141250000Y14342544I0J267544D01*
G01*
X141250000Y15657456D01*
G75*
G02*
X141517544Y15925000I267544J0D01*
G01*
X142507456Y15925000D01*
G75*
G02*
X142775000Y15657456I0J-267544D01*
G01*
G37*
G36*
G01*
X145750000Y15657456D02*
X145750000Y14342544D01*
G75*
G02*
X145482456Y14075000I-267544J0D01*
G01*
X144492544Y14075000D01*
G75*
G02*
X144225000Y14342544I0J267544D01*
G01*
X144225000Y15657456D01*
G75*
G02*
X144492544Y15925000I267544J0D01*
G01*
X145482456Y15925000D01*
G75*
G02*
X145750000Y15657456I0J-267544D01*
G01*
G37*
%TD*%
%TO.C,C5*%
G36*
G01*
X190750000Y15657456D02*
X190750000Y14342544D01*
G75*
G02*
X190482456Y14075000I-267544J0D01*
G01*
X189492544Y14075000D01*
G75*
G02*
X189225000Y14342544I0J267544D01*
G01*
X189225000Y15657456D01*
G75*
G02*
X189492544Y15925000I267544J0D01*
G01*
X190482456Y15925000D01*
G75*
G02*
X190750000Y15657456I0J-267544D01*
G01*
G37*
G36*
G01*
X187775000Y15657456D02*
X187775000Y14342544D01*
G75*
G02*
X187507456Y14075000I-267544J0D01*
G01*
X186517544Y14075000D01*
G75*
G02*
X186250000Y14342544I0J267544D01*
G01*
X186250000Y15657456D01*
G75*
G02*
X186517544Y15925000I267544J0D01*
G01*
X187507456Y15925000D01*
G75*
G02*
X187775000Y15657456I0J-267544D01*
G01*
G37*
%TD*%
D14*
%TO.C,SW1*%
X12960000Y3660000D03*
X12960000Y8740000D03*
X4040000Y3660000D03*
X4040000Y8740000D03*
%TD*%
%TO.C,SW2*%
X49040000Y8740000D03*
X49040000Y3660000D03*
X57960000Y8740000D03*
X57960000Y3660000D03*
%TD*%
%TO.C,SW3*%
X102960000Y3660000D03*
X102960000Y8740000D03*
X94040000Y3660000D03*
X94040000Y8740000D03*
%TD*%
%TO.C,SW4*%
X139040000Y8740000D03*
X139040000Y3660000D03*
X147960000Y8740000D03*
X147960000Y3660000D03*
%TD*%
%TO.C,U1*%
G36*
G01*
X23717500Y10700000D02*
X23392500Y10700000D01*
G75*
G02*
X23230000Y10862500I0J162500D01*
G01*
X23230000Y12237500D01*
G75*
G02*
X23392500Y12400000I162500J0D01*
G01*
X23717500Y12400000D01*
G75*
G02*
X23880000Y12237500I0J-162500D01*
G01*
X23880000Y10862500D01*
G75*
G02*
X23717500Y10700000I-162500J0D01*
G01*
G37*
G36*
G01*
X24987500Y10700000D02*
X24662500Y10700000D01*
G75*
G02*
X24500000Y10862500I0J162500D01*
G01*
X24500000Y12237500D01*
G75*
G02*
X24662500Y12400000I162500J0D01*
G01*
X24987500Y12400000D01*
G75*
G02*
X25150000Y12237500I0J-162500D01*
G01*
X25150000Y10862500D01*
G75*
G02*
X24987500Y10700000I-162500J0D01*
G01*
G37*
G36*
G01*
X26257500Y10700000D02*
X25932500Y10700000D01*
G75*
G02*
X25770000Y10862500I0J162500D01*
G01*
X25770000Y12237500D01*
G75*
G02*
X25932500Y12400000I162500J0D01*
G01*
X26257500Y12400000D01*
G75*
G02*
X26420000Y12237500I0J-162500D01*
G01*
X26420000Y10862500D01*
G75*
G02*
X26257500Y10700000I-162500J0D01*
G01*
G37*
G36*
G01*
X27527500Y10700000D02*
X27202500Y10700000D01*
G75*
G02*
X27040000Y10862500I0J162500D01*
G01*
X27040000Y12237500D01*
G75*
G02*
X27202500Y12400000I162500J0D01*
G01*
X27527500Y12400000D01*
G75*
G02*
X27690000Y12237500I0J-162500D01*
G01*
X27690000Y10862500D01*
G75*
G02*
X27527500Y10700000I-162500J0D01*
G01*
G37*
G36*
G01*
X28797500Y10700000D02*
X28472500Y10700000D01*
G75*
G02*
X28310000Y10862500I0J162500D01*
G01*
X28310000Y12237500D01*
G75*
G02*
X28472500Y12400000I162500J0D01*
G01*
X28797500Y12400000D01*
G75*
G02*
X28960000Y12237500I0J-162500D01*
G01*
X28960000Y10862500D01*
G75*
G02*
X28797500Y10700000I-162500J0D01*
G01*
G37*
G36*
G01*
X30067500Y10700000D02*
X29742500Y10700000D01*
G75*
G02*
X29580000Y10862500I0J162500D01*
G01*
X29580000Y12237500D01*
G75*
G02*
X29742500Y12400000I162500J0D01*
G01*
X30067500Y12400000D01*
G75*
G02*
X30230000Y12237500I0J-162500D01*
G01*
X30230000Y10862500D01*
G75*
G02*
X30067500Y10700000I-162500J0D01*
G01*
G37*
G36*
G01*
X31337500Y10700000D02*
X31012500Y10700000D01*
G75*
G02*
X30850000Y10862500I0J162500D01*
G01*
X30850000Y12237500D01*
G75*
G02*
X31012500Y12400000I162500J0D01*
G01*
X31337500Y12400000D01*
G75*
G02*
X31500000Y12237500I0J-162500D01*
G01*
X31500000Y10862500D01*
G75*
G02*
X31337500Y10700000I-162500J0D01*
G01*
G37*
G36*
G01*
X32607500Y10700000D02*
X32282500Y10700000D01*
G75*
G02*
X32120000Y10862500I0J162500D01*
G01*
X32120000Y12237500D01*
G75*
G02*
X32282500Y12400000I162500J0D01*
G01*
X32607500Y12400000D01*
G75*
G02*
X32770000Y12237500I0J-162500D01*
G01*
X32770000Y10862500D01*
G75*
G02*
X32607500Y10700000I-162500J0D01*
G01*
G37*
G36*
G01*
X32607500Y17200000D02*
X32282500Y17200000D01*
G75*
G02*
X32120000Y17362500I0J162500D01*
G01*
X32120000Y18737500D01*
G75*
G02*
X32282500Y18900000I162500J0D01*
G01*
X32607500Y18900000D01*
G75*
G02*
X32770000Y18737500I0J-162500D01*
G01*
X32770000Y17362500D01*
G75*
G02*
X32607500Y17200000I-162500J0D01*
G01*
G37*
G36*
G01*
X31337500Y17200000D02*
X31012500Y17200000D01*
G75*
G02*
X30850000Y17362500I0J162500D01*
G01*
X30850000Y18737500D01*
G75*
G02*
X31012500Y18900000I162500J0D01*
G01*
X31337500Y18900000D01*
G75*
G02*
X31500000Y18737500I0J-162500D01*
G01*
X31500000Y17362500D01*
G75*
G02*
X31337500Y17200000I-162500J0D01*
G01*
G37*
G36*
G01*
X30067500Y17200000D02*
X29742500Y17200000D01*
G75*
G02*
X29580000Y17362500I0J162500D01*
G01*
X29580000Y18737500D01*
G75*
G02*
X29742500Y18900000I162500J0D01*
G01*
X30067500Y18900000D01*
G75*
G02*
X30230000Y18737500I0J-162500D01*
G01*
X30230000Y17362500D01*
G75*
G02*
X30067500Y17200000I-162500J0D01*
G01*
G37*
G36*
G01*
X28797500Y17200000D02*
X28472500Y17200000D01*
G75*
G02*
X28310000Y17362500I0J162500D01*
G01*
X28310000Y18737500D01*
G75*
G02*
X28472500Y18900000I162500J0D01*
G01*
X28797500Y18900000D01*
G75*
G02*
X28960000Y18737500I0J-162500D01*
G01*
X28960000Y17362500D01*
G75*
G02*
X28797500Y17200000I-162500J0D01*
G01*
G37*
G36*
G01*
X27527500Y17200000D02*
X27202500Y17200000D01*
G75*
G02*
X27040000Y17362500I0J162500D01*
G01*
X27040000Y18737500D01*
G75*
G02*
X27202500Y18900000I162500J0D01*
G01*
X27527500Y18900000D01*
G75*
G02*
X27690000Y18737500I0J-162500D01*
G01*
X27690000Y17362500D01*
G75*
G02*
X27527500Y17200000I-162500J0D01*
G01*
G37*
G36*
G01*
X26257500Y17200000D02*
X25932500Y17200000D01*
G75*
G02*
X25770000Y17362500I0J162500D01*
G01*
X25770000Y18737500D01*
G75*
G02*
X25932500Y18900000I162500J0D01*
G01*
X26257500Y18900000D01*
G75*
G02*
X26420000Y18737500I0J-162500D01*
G01*
X26420000Y17362500D01*
G75*
G02*
X26257500Y17200000I-162500J0D01*
G01*
G37*
G36*
G01*
X24987500Y17200000D02*
X24662500Y17200000D01*
G75*
G02*
X24500000Y17362500I0J162500D01*
G01*
X24500000Y18737500D01*
G75*
G02*
X24662500Y18900000I162500J0D01*
G01*
X24987500Y18900000D01*
G75*
G02*
X25150000Y18737500I0J-162500D01*
G01*
X25150000Y17362500D01*
G75*
G02*
X24987500Y17200000I-162500J0D01*
G01*
G37*
G36*
G01*
X23717500Y17200000D02*
X23392500Y17200000D01*
G75*
G02*
X23230000Y17362500I0J162500D01*
G01*
X23230000Y18737500D01*
G75*
G02*
X23392500Y18900000I162500J0D01*
G01*
X23717500Y18900000D01*
G75*
G02*
X23880000Y18737500I0J-162500D01*
G01*
X23880000Y17362500D01*
G75*
G02*
X23717500Y17200000I-162500J0D01*
G01*
G37*
%TD*%
%TO.C,SW5*%
X184040000Y8740000D03*
X184040000Y3660000D03*
X192960000Y8740000D03*
X192960000Y3660000D03*
%TD*%
D10*
%TO.C,J2*%
X34850000Y3500000D03*
X32310000Y3500000D03*
X29770000Y3500000D03*
X27230000Y3500000D03*
X24690000Y3500000D03*
X22150000Y3500000D03*
%TD*%
D11*
X43900000Y6800000D03*
X43800000Y17175010D03*
D15*
X156324990Y13524990D03*
D11*
X19100000Y19100000D03*
X46600000Y19100000D03*
D15*
X156324980Y12524980D03*
D11*
X37100000Y7900000D03*
X24430000Y7920000D03*
X41600000Y6800000D03*
X41500000Y17200000D03*
X16900000Y6150000D03*
X44000000Y3700000D03*
X21650000Y6150000D03*
X17000000Y20900000D03*
X39300000Y6800000D03*
X39200000Y17200000D03*
M02*
