%TF.GenerationSoftware,KiCad,Pcbnew,(5.1.6)-1*%
%TF.CreationDate,2025-02-26T15:49:59-05:00*%
%TF.ProjectId,led_board,6c65645f-626f-4617-9264-2e6b69636164,rev?*%
%TF.SameCoordinates,PX2e063a0PY4d83c00*%
%TF.FileFunction,Copper,L1,Top*%
%TF.FilePolarity,Positive*%
%FSLAX46Y46*%
G04 Gerber Fmt 4.6, Leading zero omitted, Abs format (unit mm)*
G04 Created by KiCad (PCBNEW (5.1.6)-1) date 2025-02-26 15:49:59*
%MOMM*%
%LPD*%
G01*
G04 APERTURE LIST*
%TA.AperFunction,WasherPad*%
%ADD10C,2.000000*%
%TD*%
%TA.AperFunction,ComponentPad*%
%ADD11C,2.200000*%
%TD*%
%TA.AperFunction,Conductor*%
%ADD12C,1.000000*%
%TD*%
%TA.AperFunction,Conductor*%
%ADD13C,0.260000*%
%TD*%
G04 APERTURE END LIST*
D10*
%TO.P,REF\u002A\u002A,*%
%TO.N,*%
X2540000Y25400000D03*
%TD*%
%TO.P,REF\u002A\u002A,*%
%TO.N,*%
X2540000Y5080000D03*
%TD*%
%TO.P,REF\u002A\u002A,*%
%TO.N,*%
X25400000Y5080000D03*
%TD*%
%TO.P,REF\u002A\u002A,*%
%TO.N,*%
X25400000Y25400000D03*
%TD*%
%TO.P,D1,1*%
%TO.N,Net-(D1-Pad1)*%
%TA.AperFunction,SMDPad,CuDef*%
G36*
G01*
X3165000Y11770000D02*
X1915000Y11770000D01*
G75*
G02*
X1665000Y12020000I0J250000D01*
G01*
X1665000Y12945000D01*
G75*
G02*
X1915000Y13195000I250000J0D01*
G01*
X3165000Y13195000D01*
G75*
G02*
X3415000Y12945000I0J-250000D01*
G01*
X3415000Y12020000D01*
G75*
G02*
X3165000Y11770000I-250000J0D01*
G01*
G37*
%TD.AperFunction*%
%TO.P,D1,2*%
%TO.N,Net-(D1-Pad2)*%
%TA.AperFunction,SMDPad,CuDef*%
G36*
G01*
X3165000Y14745000D02*
X1915000Y14745000D01*
G75*
G02*
X1665000Y14995000I0J250000D01*
G01*
X1665000Y15920000D01*
G75*
G02*
X1915000Y16170000I250000J0D01*
G01*
X3165000Y16170000D01*
G75*
G02*
X3415000Y15920000I0J-250000D01*
G01*
X3415000Y14995000D01*
G75*
G02*
X3165000Y14745000I-250000J0D01*
G01*
G37*
%TD.AperFunction*%
%TD*%
%TO.P,D2,2*%
%TO.N,Net-(D2-Pad2)*%
%TA.AperFunction,SMDPad,CuDef*%
G36*
G01*
X6975000Y14745000D02*
X5725000Y14745000D01*
G75*
G02*
X5475000Y14995000I0J250000D01*
G01*
X5475000Y15920000D01*
G75*
G02*
X5725000Y16170000I250000J0D01*
G01*
X6975000Y16170000D01*
G75*
G02*
X7225000Y15920000I0J-250000D01*
G01*
X7225000Y14995000D01*
G75*
G02*
X6975000Y14745000I-250000J0D01*
G01*
G37*
%TD.AperFunction*%
%TO.P,D2,1*%
%TO.N,Net-(D2-Pad1)*%
%TA.AperFunction,SMDPad,CuDef*%
G36*
G01*
X6975000Y11770000D02*
X5725000Y11770000D01*
G75*
G02*
X5475000Y12020000I0J250000D01*
G01*
X5475000Y12945000D01*
G75*
G02*
X5725000Y13195000I250000J0D01*
G01*
X6975000Y13195000D01*
G75*
G02*
X7225000Y12945000I0J-250000D01*
G01*
X7225000Y12020000D01*
G75*
G02*
X6975000Y11770000I-250000J0D01*
G01*
G37*
%TD.AperFunction*%
%TD*%
%TO.P,D3,1*%
%TO.N,Net-(D3-Pad1)*%
%TA.AperFunction,SMDPad,CuDef*%
G36*
G01*
X10785000Y11770000D02*
X9535000Y11770000D01*
G75*
G02*
X9285000Y12020000I0J250000D01*
G01*
X9285000Y12945000D01*
G75*
G02*
X9535000Y13195000I250000J0D01*
G01*
X10785000Y13195000D01*
G75*
G02*
X11035000Y12945000I0J-250000D01*
G01*
X11035000Y12020000D01*
G75*
G02*
X10785000Y11770000I-250000J0D01*
G01*
G37*
%TD.AperFunction*%
%TO.P,D3,2*%
%TO.N,Net-(D3-Pad2)*%
%TA.AperFunction,SMDPad,CuDef*%
G36*
G01*
X10785000Y14745000D02*
X9535000Y14745000D01*
G75*
G02*
X9285000Y14995000I0J250000D01*
G01*
X9285000Y15920000D01*
G75*
G02*
X9535000Y16170000I250000J0D01*
G01*
X10785000Y16170000D01*
G75*
G02*
X11035000Y15920000I0J-250000D01*
G01*
X11035000Y14995000D01*
G75*
G02*
X10785000Y14745000I-250000J0D01*
G01*
G37*
%TD.AperFunction*%
%TD*%
%TO.P,D4,2*%
%TO.N,Net-(D4-Pad2)*%
%TA.AperFunction,SMDPad,CuDef*%
G36*
G01*
X14595000Y14745000D02*
X13345000Y14745000D01*
G75*
G02*
X13095000Y14995000I0J250000D01*
G01*
X13095000Y15920000D01*
G75*
G02*
X13345000Y16170000I250000J0D01*
G01*
X14595000Y16170000D01*
G75*
G02*
X14845000Y15920000I0J-250000D01*
G01*
X14845000Y14995000D01*
G75*
G02*
X14595000Y14745000I-250000J0D01*
G01*
G37*
%TD.AperFunction*%
%TO.P,D4,1*%
%TO.N,Net-(D4-Pad1)*%
%TA.AperFunction,SMDPad,CuDef*%
G36*
G01*
X14595000Y11770000D02*
X13345000Y11770000D01*
G75*
G02*
X13095000Y12020000I0J250000D01*
G01*
X13095000Y12945000D01*
G75*
G02*
X13345000Y13195000I250000J0D01*
G01*
X14595000Y13195000D01*
G75*
G02*
X14845000Y12945000I0J-250000D01*
G01*
X14845000Y12020000D01*
G75*
G02*
X14595000Y11770000I-250000J0D01*
G01*
G37*
%TD.AperFunction*%
%TD*%
%TO.P,D5,1*%
%TO.N,Net-(D5-Pad1)*%
%TA.AperFunction,SMDPad,CuDef*%
G36*
G01*
X18405000Y11770000D02*
X17155000Y11770000D01*
G75*
G02*
X16905000Y12020000I0J250000D01*
G01*
X16905000Y12945000D01*
G75*
G02*
X17155000Y13195000I250000J0D01*
G01*
X18405000Y13195000D01*
G75*
G02*
X18655000Y12945000I0J-250000D01*
G01*
X18655000Y12020000D01*
G75*
G02*
X18405000Y11770000I-250000J0D01*
G01*
G37*
%TD.AperFunction*%
%TO.P,D5,2*%
%TO.N,Net-(D5-Pad2)*%
%TA.AperFunction,SMDPad,CuDef*%
G36*
G01*
X18405000Y14745000D02*
X17155000Y14745000D01*
G75*
G02*
X16905000Y14995000I0J250000D01*
G01*
X16905000Y15920000D01*
G75*
G02*
X17155000Y16170000I250000J0D01*
G01*
X18405000Y16170000D01*
G75*
G02*
X18655000Y15920000I0J-250000D01*
G01*
X18655000Y14995000D01*
G75*
G02*
X18405000Y14745000I-250000J0D01*
G01*
G37*
%TD.AperFunction*%
%TD*%
%TO.P,D6,2*%
%TO.N,Net-(D6-Pad2)*%
%TA.AperFunction,SMDPad,CuDef*%
G36*
G01*
X22215000Y14745000D02*
X20965000Y14745000D01*
G75*
G02*
X20715000Y14995000I0J250000D01*
G01*
X20715000Y15920000D01*
G75*
G02*
X20965000Y16170000I250000J0D01*
G01*
X22215000Y16170000D01*
G75*
G02*
X22465000Y15920000I0J-250000D01*
G01*
X22465000Y14995000D01*
G75*
G02*
X22215000Y14745000I-250000J0D01*
G01*
G37*
%TD.AperFunction*%
%TO.P,D6,1*%
%TO.N,Net-(D6-Pad1)*%
%TA.AperFunction,SMDPad,CuDef*%
G36*
G01*
X22215000Y11770000D02*
X20965000Y11770000D01*
G75*
G02*
X20715000Y12020000I0J250000D01*
G01*
X20715000Y12945000D01*
G75*
G02*
X20965000Y13195000I250000J0D01*
G01*
X22215000Y13195000D01*
G75*
G02*
X22465000Y12945000I0J-250000D01*
G01*
X22465000Y12020000D01*
G75*
G02*
X22215000Y11770000I-250000J0D01*
G01*
G37*
%TD.AperFunction*%
%TD*%
%TO.P,D7,1*%
%TO.N,Net-(D7-Pad1)*%
%TA.AperFunction,SMDPad,CuDef*%
G36*
G01*
X26025000Y11770000D02*
X24775000Y11770000D01*
G75*
G02*
X24525000Y12020000I0J250000D01*
G01*
X24525000Y12945000D01*
G75*
G02*
X24775000Y13195000I250000J0D01*
G01*
X26025000Y13195000D01*
G75*
G02*
X26275000Y12945000I0J-250000D01*
G01*
X26275000Y12020000D01*
G75*
G02*
X26025000Y11770000I-250000J0D01*
G01*
G37*
%TD.AperFunction*%
%TO.P,D7,2*%
%TO.N,Net-(D7-Pad2)*%
%TA.AperFunction,SMDPad,CuDef*%
G36*
G01*
X26025000Y14745000D02*
X24775000Y14745000D01*
G75*
G02*
X24525000Y14995000I0J250000D01*
G01*
X24525000Y15920000D01*
G75*
G02*
X24775000Y16170000I250000J0D01*
G01*
X26025000Y16170000D01*
G75*
G02*
X26275000Y15920000I0J-250000D01*
G01*
X26275000Y14995000D01*
G75*
G02*
X26025000Y14745000I-250000J0D01*
G01*
G37*
%TD.AperFunction*%
%TD*%
D11*
%TO.P,J1,1*%
%TO.N,Net-(D1-Pad2)*%
X5080000Y21590000D03*
%TO.P,J1,2*%
%TO.N,Net-(D2-Pad2)*%
X7620000Y21590000D03*
%TO.P,J1,3*%
%TO.N,Net-(D3-Pad2)*%
X10160000Y21590000D03*
%TO.P,J1,4*%
%TO.N,Net-(D4-Pad2)*%
X12700000Y21590000D03*
%TO.P,J1,5*%
%TO.N,Net-(D5-Pad2)*%
X15240000Y21590000D03*
%TO.P,J1,6*%
%TO.N,Net-(D6-Pad2)*%
X17780000Y21590000D03*
%TO.P,J1,7*%
%TO.N,Net-(D7-Pad2)*%
X20320000Y21590000D03*
%TO.P,J1,8*%
%TO.N,GND*%
X22860000Y21590000D03*
%TD*%
%TO.P,R1,1*%
%TO.N,GND*%
%TA.AperFunction,SMDPad,CuDef*%
G36*
G01*
X6975000Y2880000D02*
X5725000Y2880000D01*
G75*
G02*
X5475000Y3130000I0J250000D01*
G01*
X5475000Y4055000D01*
G75*
G02*
X5725000Y4305000I250000J0D01*
G01*
X6975000Y4305000D01*
G75*
G02*
X7225000Y4055000I0J-250000D01*
G01*
X7225000Y3130000D01*
G75*
G02*
X6975000Y2880000I-250000J0D01*
G01*
G37*
%TD.AperFunction*%
%TO.P,R1,2*%
%TO.N,Net-(D1-Pad1)*%
%TA.AperFunction,SMDPad,CuDef*%
G36*
G01*
X6975000Y5855000D02*
X5725000Y5855000D01*
G75*
G02*
X5475000Y6105000I0J250000D01*
G01*
X5475000Y7030000D01*
G75*
G02*
X5725000Y7280000I250000J0D01*
G01*
X6975000Y7280000D01*
G75*
G02*
X7225000Y7030000I0J-250000D01*
G01*
X7225000Y6105000D01*
G75*
G02*
X6975000Y5855000I-250000J0D01*
G01*
G37*
%TD.AperFunction*%
%TD*%
%TO.P,R2,2*%
%TO.N,Net-(D2-Pad1)*%
%TA.AperFunction,SMDPad,CuDef*%
G36*
G01*
X9515000Y5855000D02*
X8265000Y5855000D01*
G75*
G02*
X8015000Y6105000I0J250000D01*
G01*
X8015000Y7030000D01*
G75*
G02*
X8265000Y7280000I250000J0D01*
G01*
X9515000Y7280000D01*
G75*
G02*
X9765000Y7030000I0J-250000D01*
G01*
X9765000Y6105000D01*
G75*
G02*
X9515000Y5855000I-250000J0D01*
G01*
G37*
%TD.AperFunction*%
%TO.P,R2,1*%
%TO.N,GND*%
%TA.AperFunction,SMDPad,CuDef*%
G36*
G01*
X9515000Y2880000D02*
X8265000Y2880000D01*
G75*
G02*
X8015000Y3130000I0J250000D01*
G01*
X8015000Y4055000D01*
G75*
G02*
X8265000Y4305000I250000J0D01*
G01*
X9515000Y4305000D01*
G75*
G02*
X9765000Y4055000I0J-250000D01*
G01*
X9765000Y3130000D01*
G75*
G02*
X9515000Y2880000I-250000J0D01*
G01*
G37*
%TD.AperFunction*%
%TD*%
%TO.P,R3,1*%
%TO.N,GND*%
%TA.AperFunction,SMDPad,CuDef*%
G36*
G01*
X12055000Y2880000D02*
X10805000Y2880000D01*
G75*
G02*
X10555000Y3130000I0J250000D01*
G01*
X10555000Y4055000D01*
G75*
G02*
X10805000Y4305000I250000J0D01*
G01*
X12055000Y4305000D01*
G75*
G02*
X12305000Y4055000I0J-250000D01*
G01*
X12305000Y3130000D01*
G75*
G02*
X12055000Y2880000I-250000J0D01*
G01*
G37*
%TD.AperFunction*%
%TO.P,R3,2*%
%TO.N,Net-(D3-Pad1)*%
%TA.AperFunction,SMDPad,CuDef*%
G36*
G01*
X12055000Y5855000D02*
X10805000Y5855000D01*
G75*
G02*
X10555000Y6105000I0J250000D01*
G01*
X10555000Y7030000D01*
G75*
G02*
X10805000Y7280000I250000J0D01*
G01*
X12055000Y7280000D01*
G75*
G02*
X12305000Y7030000I0J-250000D01*
G01*
X12305000Y6105000D01*
G75*
G02*
X12055000Y5855000I-250000J0D01*
G01*
G37*
%TD.AperFunction*%
%TD*%
%TO.P,R4,2*%
%TO.N,Net-(D4-Pad1)*%
%TA.AperFunction,SMDPad,CuDef*%
G36*
G01*
X14595000Y5855000D02*
X13345000Y5855000D01*
G75*
G02*
X13095000Y6105000I0J250000D01*
G01*
X13095000Y7030000D01*
G75*
G02*
X13345000Y7280000I250000J0D01*
G01*
X14595000Y7280000D01*
G75*
G02*
X14845000Y7030000I0J-250000D01*
G01*
X14845000Y6105000D01*
G75*
G02*
X14595000Y5855000I-250000J0D01*
G01*
G37*
%TD.AperFunction*%
%TO.P,R4,1*%
%TO.N,GND*%
%TA.AperFunction,SMDPad,CuDef*%
G36*
G01*
X14595000Y2880000D02*
X13345000Y2880000D01*
G75*
G02*
X13095000Y3130000I0J250000D01*
G01*
X13095000Y4055000D01*
G75*
G02*
X13345000Y4305000I250000J0D01*
G01*
X14595000Y4305000D01*
G75*
G02*
X14845000Y4055000I0J-250000D01*
G01*
X14845000Y3130000D01*
G75*
G02*
X14595000Y2880000I-250000J0D01*
G01*
G37*
%TD.AperFunction*%
%TD*%
%TO.P,R5,1*%
%TO.N,GND*%
%TA.AperFunction,SMDPad,CuDef*%
G36*
G01*
X17135000Y2880000D02*
X15885000Y2880000D01*
G75*
G02*
X15635000Y3130000I0J250000D01*
G01*
X15635000Y4055000D01*
G75*
G02*
X15885000Y4305000I250000J0D01*
G01*
X17135000Y4305000D01*
G75*
G02*
X17385000Y4055000I0J-250000D01*
G01*
X17385000Y3130000D01*
G75*
G02*
X17135000Y2880000I-250000J0D01*
G01*
G37*
%TD.AperFunction*%
%TO.P,R5,2*%
%TO.N,Net-(D5-Pad1)*%
%TA.AperFunction,SMDPad,CuDef*%
G36*
G01*
X17135000Y5855000D02*
X15885000Y5855000D01*
G75*
G02*
X15635000Y6105000I0J250000D01*
G01*
X15635000Y7030000D01*
G75*
G02*
X15885000Y7280000I250000J0D01*
G01*
X17135000Y7280000D01*
G75*
G02*
X17385000Y7030000I0J-250000D01*
G01*
X17385000Y6105000D01*
G75*
G02*
X17135000Y5855000I-250000J0D01*
G01*
G37*
%TD.AperFunction*%
%TD*%
%TO.P,R6,2*%
%TO.N,Net-(D6-Pad1)*%
%TA.AperFunction,SMDPad,CuDef*%
G36*
G01*
X19675000Y5855000D02*
X18425000Y5855000D01*
G75*
G02*
X18175000Y6105000I0J250000D01*
G01*
X18175000Y7030000D01*
G75*
G02*
X18425000Y7280000I250000J0D01*
G01*
X19675000Y7280000D01*
G75*
G02*
X19925000Y7030000I0J-250000D01*
G01*
X19925000Y6105000D01*
G75*
G02*
X19675000Y5855000I-250000J0D01*
G01*
G37*
%TD.AperFunction*%
%TO.P,R6,1*%
%TO.N,GND*%
%TA.AperFunction,SMDPad,CuDef*%
G36*
G01*
X19675000Y2880000D02*
X18425000Y2880000D01*
G75*
G02*
X18175000Y3130000I0J250000D01*
G01*
X18175000Y4055000D01*
G75*
G02*
X18425000Y4305000I250000J0D01*
G01*
X19675000Y4305000D01*
G75*
G02*
X19925000Y4055000I0J-250000D01*
G01*
X19925000Y3130000D01*
G75*
G02*
X19675000Y2880000I-250000J0D01*
G01*
G37*
%TD.AperFunction*%
%TD*%
%TO.P,R7,1*%
%TO.N,GND*%
%TA.AperFunction,SMDPad,CuDef*%
G36*
G01*
X22215000Y2880000D02*
X20965000Y2880000D01*
G75*
G02*
X20715000Y3130000I0J250000D01*
G01*
X20715000Y4055000D01*
G75*
G02*
X20965000Y4305000I250000J0D01*
G01*
X22215000Y4305000D01*
G75*
G02*
X22465000Y4055000I0J-250000D01*
G01*
X22465000Y3130000D01*
G75*
G02*
X22215000Y2880000I-250000J0D01*
G01*
G37*
%TD.AperFunction*%
%TO.P,R7,2*%
%TO.N,Net-(D7-Pad1)*%
%TA.AperFunction,SMDPad,CuDef*%
G36*
G01*
X22215000Y5855000D02*
X20965000Y5855000D01*
G75*
G02*
X20715000Y6105000I0J250000D01*
G01*
X20715000Y7030000D01*
G75*
G02*
X20965000Y7280000I250000J0D01*
G01*
X22215000Y7280000D01*
G75*
G02*
X22465000Y7030000I0J-250000D01*
G01*
X22465000Y6105000D01*
G75*
G02*
X22215000Y5855000I-250000J0D01*
G01*
G37*
%TD.AperFunction*%
%TD*%
D12*
%TO.N,Net-(D1-Pad1)*%
X2540000Y12482500D02*
X2540000Y11049000D01*
X2540000Y11049000D02*
X6223000Y7366000D01*
X6223000Y7366000D02*
X6223000Y6858000D01*
%TO.N,Net-(D1-Pad2)*%
X2540000Y15457500D02*
X2540000Y17145000D01*
X2540000Y17145000D02*
X5207000Y19812000D01*
X5207000Y19812000D02*
X5207000Y21590000D01*
%TO.N,Net-(D2-Pad2)*%
X6350000Y15457500D02*
X6350000Y16891000D01*
X6350000Y16891000D02*
X6350000Y17145000D01*
X6350000Y17145000D02*
X7620000Y18415000D01*
X7620000Y18415000D02*
X7620000Y21463000D01*
%TO.N,Net-(D2-Pad1)*%
X6350000Y12482500D02*
X6350000Y11430000D01*
X6350000Y11430000D02*
X8890000Y8890000D01*
X8890000Y8890000D02*
X8890000Y6858000D01*
%TO.N,Net-(D3-Pad1)*%
X10160000Y12482500D02*
X10160000Y11303000D01*
X10160000Y11303000D02*
X11430000Y10033000D01*
X11430000Y10033000D02*
X11430000Y6731000D01*
%TO.N,Net-(D3-Pad2)*%
X10160000Y21590000D02*
X10160000Y15240000D01*
%TO.N,Net-(D4-Pad2)*%
X12700000Y21590000D02*
X12700000Y18415000D01*
X12700000Y18415000D02*
X13843000Y17272000D01*
X13843000Y17272000D02*
X13970000Y17145000D01*
X13970000Y17145000D02*
X13970000Y15621000D01*
%TO.N,Net-(D4-Pad1)*%
X13970000Y12482500D02*
X13970000Y6985000D01*
%TO.N,Net-(D5-Pad1)*%
X17780000Y12482500D02*
X17780000Y11303000D01*
X17780000Y11303000D02*
X16510000Y10033000D01*
X16510000Y10033000D02*
X16510000Y6731000D01*
%TO.N,Net-(D5-Pad2)*%
X17780000Y15457500D02*
X17780000Y17018000D01*
X17780000Y17018000D02*
X15367000Y19431000D01*
X15367000Y19431000D02*
X15367000Y21717000D01*
%TO.N,Net-(D6-Pad2)*%
X21590000Y15457500D02*
X21590000Y16637000D01*
X21590000Y16637000D02*
X17780000Y20447000D01*
X17780000Y20447000D02*
X17780000Y21590000D01*
%TO.N,Net-(D6-Pad1)*%
X21590000Y12482500D02*
X21590000Y11430000D01*
X21590000Y11430000D02*
X18923000Y8763000D01*
X18923000Y8763000D02*
X18923000Y6731000D01*
%TO.N,Net-(D7-Pad1)*%
X25400000Y12482500D02*
X25400000Y11303000D01*
X25400000Y11303000D02*
X21590000Y7493000D01*
X21590000Y7493000D02*
X21590000Y6604000D01*
%TO.N,Net-(D7-Pad2)*%
X25400000Y15457500D02*
X25400000Y16383000D01*
X25400000Y16383000D02*
X20320000Y21463000D01*
%TD*%
D13*
%TO.N,GND*%
G36*
X27535001Y405000D02*
G01*
X405000Y405000D01*
X405000Y5215918D01*
X1160000Y5215918D01*
X1160000Y4944082D01*
X1213033Y4677469D01*
X1317060Y4426325D01*
X1468084Y4200301D01*
X1660301Y4008084D01*
X1886325Y3857060D01*
X2137469Y3753033D01*
X2404082Y3700000D01*
X2675918Y3700000D01*
X2942531Y3753033D01*
X3193675Y3857060D01*
X3419699Y4008084D01*
X3611916Y4200301D01*
X3762940Y4426325D01*
X3866967Y4677469D01*
X3920000Y4944082D01*
X3920000Y5215918D01*
X24020000Y5215918D01*
X24020000Y4944082D01*
X24073033Y4677469D01*
X24177060Y4426325D01*
X24328084Y4200301D01*
X24520301Y4008084D01*
X24746325Y3857060D01*
X24997469Y3753033D01*
X25264082Y3700000D01*
X25535918Y3700000D01*
X25802531Y3753033D01*
X26053675Y3857060D01*
X26279699Y4008084D01*
X26471916Y4200301D01*
X26622940Y4426325D01*
X26726967Y4677469D01*
X26780000Y4944082D01*
X26780000Y5215918D01*
X26726967Y5482531D01*
X26622940Y5733675D01*
X26471916Y5959699D01*
X26279699Y6151916D01*
X26053675Y6302940D01*
X25802531Y6406967D01*
X25535918Y6460000D01*
X25264082Y6460000D01*
X24997469Y6406967D01*
X24746325Y6302940D01*
X24520301Y6151916D01*
X24328084Y5959699D01*
X24177060Y5733675D01*
X24073033Y5482531D01*
X24020000Y5215918D01*
X3920000Y5215918D01*
X3866967Y5482531D01*
X3762940Y5733675D01*
X3611916Y5959699D01*
X3419699Y6151916D01*
X3193675Y6302940D01*
X2942531Y6406967D01*
X2675918Y6460000D01*
X2404082Y6460000D01*
X2137469Y6406967D01*
X1886325Y6302940D01*
X1660301Y6151916D01*
X1468084Y5959699D01*
X1317060Y5733675D01*
X1213033Y5482531D01*
X1160000Y5215918D01*
X405000Y5215918D01*
X405000Y12945000D01*
X1283162Y12945000D01*
X1283162Y12020000D01*
X1295303Y11896735D01*
X1331258Y11778206D01*
X1389646Y11668970D01*
X1468223Y11573223D01*
X1563970Y11494646D01*
X1660001Y11443316D01*
X1660001Y11092223D01*
X1655744Y11049000D01*
X1672734Y10876490D01*
X1723053Y10710610D01*
X1740625Y10677736D01*
X1804768Y10557733D01*
X1914737Y10423736D01*
X1948309Y10396184D01*
X5125301Y7219191D01*
X5105303Y7153265D01*
X5093162Y7030000D01*
X5093162Y6105000D01*
X5105303Y5981735D01*
X5141258Y5863206D01*
X5199646Y5753970D01*
X5278223Y5658223D01*
X5373970Y5579646D01*
X5483206Y5521258D01*
X5601735Y5485303D01*
X5725000Y5473162D01*
X6975000Y5473162D01*
X7098265Y5485303D01*
X7216794Y5521258D01*
X7326030Y5579646D01*
X7421777Y5658223D01*
X7500354Y5753970D01*
X7558742Y5863206D01*
X7594697Y5981735D01*
X7606838Y6105000D01*
X7606838Y7030000D01*
X7594697Y7153265D01*
X7558742Y7271794D01*
X7500354Y7381030D01*
X7421777Y7476777D01*
X7326030Y7555354D01*
X7216794Y7613742D01*
X7098265Y7649697D01*
X7055253Y7653933D01*
X7052855Y7661838D01*
X7039947Y7704391D01*
X6958233Y7857267D01*
X6848264Y7991264D01*
X6814693Y8018815D01*
X3420000Y11413507D01*
X3420000Y11443317D01*
X3516030Y11494646D01*
X3611777Y11573223D01*
X3690354Y11668970D01*
X3748742Y11778206D01*
X3784697Y11896735D01*
X3796838Y12020000D01*
X3796838Y12945000D01*
X5093162Y12945000D01*
X5093162Y12020000D01*
X5105303Y11896735D01*
X5141258Y11778206D01*
X5199646Y11668970D01*
X5278223Y11573223D01*
X5373970Y11494646D01*
X5467203Y11444812D01*
X5465744Y11430000D01*
X5482734Y11257490D01*
X5533053Y11091610D01*
X5533054Y11091609D01*
X5614768Y10938733D01*
X5724737Y10804736D01*
X5758309Y10777184D01*
X8010000Y8525492D01*
X8010001Y7606684D01*
X7913970Y7555354D01*
X7818223Y7476777D01*
X7739646Y7381030D01*
X7681258Y7271794D01*
X7645303Y7153265D01*
X7633162Y7030000D01*
X7633162Y6105000D01*
X7645303Y5981735D01*
X7681258Y5863206D01*
X7739646Y5753970D01*
X7818223Y5658223D01*
X7913970Y5579646D01*
X8023206Y5521258D01*
X8141735Y5485303D01*
X8265000Y5473162D01*
X9515000Y5473162D01*
X9638265Y5485303D01*
X9756794Y5521258D01*
X9866030Y5579646D01*
X9961777Y5658223D01*
X10040354Y5753970D01*
X10098742Y5863206D01*
X10134697Y5981735D01*
X10146838Y6105000D01*
X10146838Y7030000D01*
X10134697Y7153265D01*
X10098742Y7271794D01*
X10040354Y7381030D01*
X9961777Y7476777D01*
X9866030Y7555354D01*
X9770000Y7606683D01*
X9770000Y8846787D01*
X9774256Y8890001D01*
X9770000Y8933215D01*
X9770000Y8933221D01*
X9757266Y9062510D01*
X9731108Y9148744D01*
X9706947Y9228391D01*
X9625233Y9381267D01*
X9515264Y9515264D01*
X9481693Y9542815D01*
X7435077Y11589430D01*
X7500354Y11668970D01*
X7558742Y11778206D01*
X7594697Y11896735D01*
X7606838Y12020000D01*
X7606838Y12945000D01*
X8903162Y12945000D01*
X8903162Y12020000D01*
X8915303Y11896735D01*
X8951258Y11778206D01*
X9009646Y11668970D01*
X9088223Y11573223D01*
X9183970Y11494646D01*
X9280001Y11443316D01*
X9280001Y11346223D01*
X9275744Y11303000D01*
X9292734Y11130490D01*
X9343053Y10964610D01*
X9343054Y10964609D01*
X9424768Y10811733D01*
X9534737Y10677736D01*
X9568308Y10650184D01*
X10550000Y9668492D01*
X10550001Y7606684D01*
X10453970Y7555354D01*
X10358223Y7476777D01*
X10279646Y7381030D01*
X10221258Y7271794D01*
X10185303Y7153265D01*
X10173162Y7030000D01*
X10173162Y6105000D01*
X10185303Y5981735D01*
X10221258Y5863206D01*
X10279646Y5753970D01*
X10358223Y5658223D01*
X10453970Y5579646D01*
X10563206Y5521258D01*
X10681735Y5485303D01*
X10805000Y5473162D01*
X12055000Y5473162D01*
X12178265Y5485303D01*
X12296794Y5521258D01*
X12406030Y5579646D01*
X12501777Y5658223D01*
X12580354Y5753970D01*
X12638742Y5863206D01*
X12674697Y5981735D01*
X12686838Y6105000D01*
X12686838Y7030000D01*
X12674697Y7153265D01*
X12638742Y7271794D01*
X12580354Y7381030D01*
X12501777Y7476777D01*
X12406030Y7555354D01*
X12310000Y7606683D01*
X12310000Y9989787D01*
X12314256Y10033001D01*
X12310000Y10076215D01*
X12310000Y10076221D01*
X12297266Y10205510D01*
X12289215Y10232053D01*
X12246947Y10371391D01*
X12165233Y10524267D01*
X12055264Y10658264D01*
X12021693Y10685815D01*
X11178229Y11529278D01*
X11231777Y11573223D01*
X11310354Y11668970D01*
X11368742Y11778206D01*
X11404697Y11896735D01*
X11416838Y12020000D01*
X11416838Y12945000D01*
X12713162Y12945000D01*
X12713162Y12020000D01*
X12725303Y11896735D01*
X12761258Y11778206D01*
X12819646Y11668970D01*
X12898223Y11573223D01*
X12993970Y11494646D01*
X13090000Y11443317D01*
X13090001Y7606684D01*
X12993970Y7555354D01*
X12898223Y7476777D01*
X12819646Y7381030D01*
X12761258Y7271794D01*
X12725303Y7153265D01*
X12713162Y7030000D01*
X12713162Y6105000D01*
X12725303Y5981735D01*
X12761258Y5863206D01*
X12819646Y5753970D01*
X12898223Y5658223D01*
X12993970Y5579646D01*
X13103206Y5521258D01*
X13221735Y5485303D01*
X13345000Y5473162D01*
X14595000Y5473162D01*
X14718265Y5485303D01*
X14836794Y5521258D01*
X14946030Y5579646D01*
X15041777Y5658223D01*
X15120354Y5753970D01*
X15178742Y5863206D01*
X15214697Y5981735D01*
X15226838Y6105000D01*
X15226838Y7030000D01*
X15253162Y7030000D01*
X15253162Y6105000D01*
X15265303Y5981735D01*
X15301258Y5863206D01*
X15359646Y5753970D01*
X15438223Y5658223D01*
X15533970Y5579646D01*
X15643206Y5521258D01*
X15761735Y5485303D01*
X15885000Y5473162D01*
X17135000Y5473162D01*
X17258265Y5485303D01*
X17376794Y5521258D01*
X17486030Y5579646D01*
X17581777Y5658223D01*
X17660354Y5753970D01*
X17718742Y5863206D01*
X17754697Y5981735D01*
X17766838Y6105000D01*
X17766838Y7030000D01*
X17793162Y7030000D01*
X17793162Y6105000D01*
X17805303Y5981735D01*
X17841258Y5863206D01*
X17899646Y5753970D01*
X17978223Y5658223D01*
X18073970Y5579646D01*
X18183206Y5521258D01*
X18301735Y5485303D01*
X18425000Y5473162D01*
X19675000Y5473162D01*
X19798265Y5485303D01*
X19916794Y5521258D01*
X20026030Y5579646D01*
X20121777Y5658223D01*
X20200354Y5753970D01*
X20258742Y5863206D01*
X20294697Y5981735D01*
X20306838Y6105000D01*
X20306838Y7030000D01*
X20333162Y7030000D01*
X20333162Y6105000D01*
X20345303Y5981735D01*
X20381258Y5863206D01*
X20439646Y5753970D01*
X20518223Y5658223D01*
X20613970Y5579646D01*
X20723206Y5521258D01*
X20841735Y5485303D01*
X20965000Y5473162D01*
X22215000Y5473162D01*
X22338265Y5485303D01*
X22456794Y5521258D01*
X22566030Y5579646D01*
X22661777Y5658223D01*
X22740354Y5753970D01*
X22798742Y5863206D01*
X22834697Y5981735D01*
X22846838Y6105000D01*
X22846838Y7030000D01*
X22834697Y7153265D01*
X22798742Y7271794D01*
X22740354Y7381030D01*
X22732323Y7390816D01*
X25991692Y10650184D01*
X26025264Y10677736D01*
X26135233Y10811733D01*
X26216947Y10964609D01*
X26267266Y11130490D01*
X26280000Y11259779D01*
X26284257Y11303000D01*
X26280000Y11346221D01*
X26280000Y11443317D01*
X26376030Y11494646D01*
X26471777Y11573223D01*
X26550354Y11668970D01*
X26608742Y11778206D01*
X26644697Y11896735D01*
X26656838Y12020000D01*
X26656838Y12945000D01*
X26644697Y13068265D01*
X26608742Y13186794D01*
X26550354Y13296030D01*
X26471777Y13391777D01*
X26376030Y13470354D01*
X26266794Y13528742D01*
X26148265Y13564697D01*
X26025000Y13576838D01*
X24775000Y13576838D01*
X24651735Y13564697D01*
X24533206Y13528742D01*
X24423970Y13470354D01*
X24328223Y13391777D01*
X24249646Y13296030D01*
X24191258Y13186794D01*
X24155303Y13068265D01*
X24143162Y12945000D01*
X24143162Y12020000D01*
X24155303Y11896735D01*
X24191258Y11778206D01*
X24249646Y11668970D01*
X24328223Y11573223D01*
X24381770Y11529278D01*
X20998313Y8145820D01*
X20964736Y8118264D01*
X20854767Y7984266D01*
X20786885Y7857267D01*
X20773053Y7831390D01*
X20734529Y7704391D01*
X20722734Y7665509D01*
X20717326Y7610599D01*
X20613970Y7555354D01*
X20518223Y7476777D01*
X20439646Y7381030D01*
X20381258Y7271794D01*
X20345303Y7153265D01*
X20333162Y7030000D01*
X20306838Y7030000D01*
X20294697Y7153265D01*
X20258742Y7271794D01*
X20200354Y7381030D01*
X20121777Y7476777D01*
X20026030Y7555354D01*
X19916794Y7613742D01*
X19803000Y7648261D01*
X19803000Y8398493D01*
X22181692Y10777184D01*
X22215264Y10804736D01*
X22325233Y10938733D01*
X22406947Y11091609D01*
X22457266Y11257490D01*
X22470000Y11386779D01*
X22474257Y11430000D01*
X22472798Y11444812D01*
X22566030Y11494646D01*
X22661777Y11573223D01*
X22740354Y11668970D01*
X22798742Y11778206D01*
X22834697Y11896735D01*
X22846838Y12020000D01*
X22846838Y12945000D01*
X22834697Y13068265D01*
X22798742Y13186794D01*
X22740354Y13296030D01*
X22661777Y13391777D01*
X22566030Y13470354D01*
X22456794Y13528742D01*
X22338265Y13564697D01*
X22215000Y13576838D01*
X20965000Y13576838D01*
X20841735Y13564697D01*
X20723206Y13528742D01*
X20613970Y13470354D01*
X20518223Y13391777D01*
X20439646Y13296030D01*
X20381258Y13186794D01*
X20345303Y13068265D01*
X20333162Y12945000D01*
X20333162Y12020000D01*
X20345303Y11896735D01*
X20381258Y11778206D01*
X20439646Y11668970D01*
X20504922Y11589430D01*
X18331313Y9415820D01*
X18297736Y9388264D01*
X18187767Y9254266D01*
X18106054Y9101391D01*
X18106053Y9101390D01*
X18055734Y8935510D01*
X18053964Y8917538D01*
X18043000Y8806220D01*
X18043000Y8806214D01*
X18038744Y8763000D01*
X18043000Y8719786D01*
X18043001Y7529938D01*
X17978223Y7476777D01*
X17899646Y7381030D01*
X17841258Y7271794D01*
X17805303Y7153265D01*
X17793162Y7030000D01*
X17766838Y7030000D01*
X17754697Y7153265D01*
X17718742Y7271794D01*
X17660354Y7381030D01*
X17581777Y7476777D01*
X17486030Y7555354D01*
X17390000Y7606683D01*
X17390000Y9668493D01*
X18371692Y10650184D01*
X18405264Y10677736D01*
X18515233Y10811733D01*
X18596947Y10964609D01*
X18647266Y11130490D01*
X18660000Y11259779D01*
X18660000Y11259785D01*
X18664256Y11302999D01*
X18660000Y11346213D01*
X18660000Y11443317D01*
X18756030Y11494646D01*
X18851777Y11573223D01*
X18930354Y11668970D01*
X18988742Y11778206D01*
X19024697Y11896735D01*
X19036838Y12020000D01*
X19036838Y12945000D01*
X19024697Y13068265D01*
X18988742Y13186794D01*
X18930354Y13296030D01*
X18851777Y13391777D01*
X18756030Y13470354D01*
X18646794Y13528742D01*
X18528265Y13564697D01*
X18405000Y13576838D01*
X17155000Y13576838D01*
X17031735Y13564697D01*
X16913206Y13528742D01*
X16803970Y13470354D01*
X16708223Y13391777D01*
X16629646Y13296030D01*
X16571258Y13186794D01*
X16535303Y13068265D01*
X16523162Y12945000D01*
X16523162Y12020000D01*
X16535303Y11896735D01*
X16571258Y11778206D01*
X16629646Y11668970D01*
X16708223Y11573223D01*
X16761770Y11529278D01*
X15918313Y10685820D01*
X15884736Y10658264D01*
X15774767Y10524266D01*
X15727446Y10435734D01*
X15693053Y10371390D01*
X15642735Y10205511D01*
X15642734Y10205509D01*
X15630000Y10076220D01*
X15630000Y10076214D01*
X15625744Y10033000D01*
X15630000Y9989786D01*
X15630001Y7606684D01*
X15533970Y7555354D01*
X15438223Y7476777D01*
X15359646Y7381030D01*
X15301258Y7271794D01*
X15265303Y7153265D01*
X15253162Y7030000D01*
X15226838Y7030000D01*
X15214697Y7153265D01*
X15178742Y7271794D01*
X15120354Y7381030D01*
X15041777Y7476777D01*
X14946030Y7555354D01*
X14850000Y7606683D01*
X14850000Y11443317D01*
X14946030Y11494646D01*
X15041777Y11573223D01*
X15120354Y11668970D01*
X15178742Y11778206D01*
X15214697Y11896735D01*
X15226838Y12020000D01*
X15226838Y12945000D01*
X15214697Y13068265D01*
X15178742Y13186794D01*
X15120354Y13296030D01*
X15041777Y13391777D01*
X14946030Y13470354D01*
X14836794Y13528742D01*
X14718265Y13564697D01*
X14595000Y13576838D01*
X13345000Y13576838D01*
X13221735Y13564697D01*
X13103206Y13528742D01*
X12993970Y13470354D01*
X12898223Y13391777D01*
X12819646Y13296030D01*
X12761258Y13186794D01*
X12725303Y13068265D01*
X12713162Y12945000D01*
X11416838Y12945000D01*
X11404697Y13068265D01*
X11368742Y13186794D01*
X11310354Y13296030D01*
X11231777Y13391777D01*
X11136030Y13470354D01*
X11026794Y13528742D01*
X10908265Y13564697D01*
X10785000Y13576838D01*
X9535000Y13576838D01*
X9411735Y13564697D01*
X9293206Y13528742D01*
X9183970Y13470354D01*
X9088223Y13391777D01*
X9009646Y13296030D01*
X8951258Y13186794D01*
X8915303Y13068265D01*
X8903162Y12945000D01*
X7606838Y12945000D01*
X7594697Y13068265D01*
X7558742Y13186794D01*
X7500354Y13296030D01*
X7421777Y13391777D01*
X7326030Y13470354D01*
X7216794Y13528742D01*
X7098265Y13564697D01*
X6975000Y13576838D01*
X5725000Y13576838D01*
X5601735Y13564697D01*
X5483206Y13528742D01*
X5373970Y13470354D01*
X5278223Y13391777D01*
X5199646Y13296030D01*
X5141258Y13186794D01*
X5105303Y13068265D01*
X5093162Y12945000D01*
X3796838Y12945000D01*
X3784697Y13068265D01*
X3748742Y13186794D01*
X3690354Y13296030D01*
X3611777Y13391777D01*
X3516030Y13470354D01*
X3406794Y13528742D01*
X3288265Y13564697D01*
X3165000Y13576838D01*
X1915000Y13576838D01*
X1791735Y13564697D01*
X1673206Y13528742D01*
X1563970Y13470354D01*
X1468223Y13391777D01*
X1389646Y13296030D01*
X1331258Y13186794D01*
X1295303Y13068265D01*
X1283162Y12945000D01*
X405000Y12945000D01*
X405000Y15920000D01*
X1283162Y15920000D01*
X1283162Y14995000D01*
X1295303Y14871735D01*
X1331258Y14753206D01*
X1389646Y14643970D01*
X1468223Y14548223D01*
X1563970Y14469646D01*
X1673206Y14411258D01*
X1791735Y14375303D01*
X1915000Y14363162D01*
X3165000Y14363162D01*
X3288265Y14375303D01*
X3406794Y14411258D01*
X3516030Y14469646D01*
X3611777Y14548223D01*
X3690354Y14643970D01*
X3748742Y14753206D01*
X3784697Y14871735D01*
X3796838Y14995000D01*
X3796838Y15920000D01*
X3784697Y16043265D01*
X3748742Y16161794D01*
X3690354Y16271030D01*
X3611777Y16366777D01*
X3516030Y16445354D01*
X3420000Y16496683D01*
X3420000Y16780493D01*
X5798693Y19159185D01*
X5832264Y19186736D01*
X5942233Y19320733D01*
X6023947Y19473609D01*
X6074266Y19639490D01*
X6087000Y19768779D01*
X6087000Y19768780D01*
X6091257Y19812000D01*
X6087000Y19855221D01*
X6087000Y20503964D01*
X6229591Y20646555D01*
X6350000Y20826760D01*
X6470409Y20646555D01*
X6676555Y20440409D01*
X6740001Y20398016D01*
X6740000Y18779508D01*
X5758312Y17797819D01*
X5724736Y17770264D01*
X5614767Y17636267D01*
X5533053Y17483391D01*
X5482734Y17317510D01*
X5470000Y17188221D01*
X5470000Y17188214D01*
X5465744Y17145000D01*
X5470000Y17101786D01*
X5470000Y16847780D01*
X5470001Y16847770D01*
X5470001Y16496684D01*
X5373970Y16445354D01*
X5278223Y16366777D01*
X5199646Y16271030D01*
X5141258Y16161794D01*
X5105303Y16043265D01*
X5093162Y15920000D01*
X5093162Y14995000D01*
X5105303Y14871735D01*
X5141258Y14753206D01*
X5199646Y14643970D01*
X5278223Y14548223D01*
X5373970Y14469646D01*
X5483206Y14411258D01*
X5601735Y14375303D01*
X5725000Y14363162D01*
X6975000Y14363162D01*
X7098265Y14375303D01*
X7216794Y14411258D01*
X7326030Y14469646D01*
X7421777Y14548223D01*
X7500354Y14643970D01*
X7558742Y14753206D01*
X7594697Y14871735D01*
X7606838Y14995000D01*
X7606838Y15920000D01*
X7594697Y16043265D01*
X7558742Y16161794D01*
X7500354Y16271030D01*
X7421777Y16366777D01*
X7326030Y16445354D01*
X7230000Y16496683D01*
X7230000Y16780493D01*
X8211693Y17762185D01*
X8245264Y17789736D01*
X8355233Y17923733D01*
X8436947Y18076609D01*
X8455954Y18139266D01*
X8487266Y18242489D01*
X8489036Y18260461D01*
X8500000Y18371779D01*
X8500000Y18371785D01*
X8504256Y18414999D01*
X8500000Y18458213D01*
X8500000Y20398016D01*
X8563445Y20440409D01*
X8769591Y20646555D01*
X8890000Y20826760D01*
X9010409Y20646555D01*
X9216555Y20440409D01*
X9280000Y20398016D01*
X9280001Y16496684D01*
X9183970Y16445354D01*
X9088223Y16366777D01*
X9009646Y16271030D01*
X8951258Y16161794D01*
X8915303Y16043265D01*
X8903162Y15920000D01*
X8903162Y14995000D01*
X8915303Y14871735D01*
X8951258Y14753206D01*
X9009646Y14643970D01*
X9088223Y14548223D01*
X9183970Y14469646D01*
X9293206Y14411258D01*
X9411735Y14375303D01*
X9535000Y14363162D01*
X10084675Y14363162D01*
X10160000Y14355743D01*
X10235325Y14363162D01*
X10785000Y14363162D01*
X10908265Y14375303D01*
X11026794Y14411258D01*
X11136030Y14469646D01*
X11231777Y14548223D01*
X11310354Y14643970D01*
X11368742Y14753206D01*
X11404697Y14871735D01*
X11416838Y14995000D01*
X11416838Y15920000D01*
X11404697Y16043265D01*
X11368742Y16161794D01*
X11310354Y16271030D01*
X11231777Y16366777D01*
X11136030Y16445354D01*
X11040000Y16496683D01*
X11040000Y20398016D01*
X11103445Y20440409D01*
X11309591Y20646555D01*
X11430000Y20826760D01*
X11550409Y20646555D01*
X11756555Y20440409D01*
X11820000Y20398016D01*
X11820001Y18458224D01*
X11815744Y18415000D01*
X11832734Y18242490D01*
X11883053Y18076610D01*
X11883054Y18076609D01*
X11964768Y17923733D01*
X12074737Y17789736D01*
X12108308Y17762184D01*
X13090000Y16780492D01*
X13090000Y16496683D01*
X12993970Y16445354D01*
X12898223Y16366777D01*
X12819646Y16271030D01*
X12761258Y16161794D01*
X12725303Y16043265D01*
X12713162Y15920000D01*
X12713162Y14995000D01*
X12725303Y14871735D01*
X12761258Y14753206D01*
X12819646Y14643970D01*
X12898223Y14548223D01*
X12993970Y14469646D01*
X13103206Y14411258D01*
X13221735Y14375303D01*
X13345000Y14363162D01*
X14595000Y14363162D01*
X14718265Y14375303D01*
X14836794Y14411258D01*
X14946030Y14469646D01*
X15041777Y14548223D01*
X15120354Y14643970D01*
X15178742Y14753206D01*
X15214697Y14871735D01*
X15226838Y14995000D01*
X15226838Y15920000D01*
X15214697Y16043265D01*
X15178742Y16161794D01*
X15120354Y16271030D01*
X15041777Y16366777D01*
X14946030Y16445354D01*
X14850000Y16496683D01*
X14850000Y17101787D01*
X14854256Y17145001D01*
X14850000Y17188215D01*
X14850000Y17188221D01*
X14837266Y17317510D01*
X14786947Y17483391D01*
X14705233Y17636267D01*
X14595264Y17770264D01*
X14561688Y17797819D01*
X14495820Y17863687D01*
X14495815Y17863693D01*
X13580000Y18779507D01*
X13580000Y20398016D01*
X13643445Y20440409D01*
X13849591Y20646555D01*
X13970000Y20826760D01*
X14090409Y20646555D01*
X14296555Y20440409D01*
X14487000Y20313157D01*
X14487000Y19474214D01*
X14482744Y19431000D01*
X14487000Y19387786D01*
X14487000Y19387780D01*
X14493604Y19320734D01*
X14499734Y19258490D01*
X14521500Y19186736D01*
X14550053Y19092610D01*
X14631767Y18939734D01*
X14741736Y18805736D01*
X14775313Y18778180D01*
X16900001Y16653491D01*
X16900001Y16496684D01*
X16803970Y16445354D01*
X16708223Y16366777D01*
X16629646Y16271030D01*
X16571258Y16161794D01*
X16535303Y16043265D01*
X16523162Y15920000D01*
X16523162Y14995000D01*
X16535303Y14871735D01*
X16571258Y14753206D01*
X16629646Y14643970D01*
X16708223Y14548223D01*
X16803970Y14469646D01*
X16913206Y14411258D01*
X17031735Y14375303D01*
X17155000Y14363162D01*
X18405000Y14363162D01*
X18528265Y14375303D01*
X18646794Y14411258D01*
X18756030Y14469646D01*
X18851777Y14548223D01*
X18930354Y14643970D01*
X18988742Y14753206D01*
X19024697Y14871735D01*
X19036838Y14995000D01*
X19036838Y15920000D01*
X19024697Y16043265D01*
X18988742Y16161794D01*
X18930354Y16271030D01*
X18851777Y16366777D01*
X18756030Y16445354D01*
X18660000Y16496683D01*
X18660000Y16974787D01*
X18664256Y17018001D01*
X18660000Y17061215D01*
X18660000Y17061221D01*
X18647492Y17188220D01*
X18647266Y17190511D01*
X18596947Y17356391D01*
X18549846Y17444510D01*
X18515233Y17509267D01*
X18405264Y17643264D01*
X18371692Y17670816D01*
X16247000Y19795507D01*
X16247000Y20503964D01*
X16389591Y20646555D01*
X16510000Y20826760D01*
X16630409Y20646555D01*
X16836555Y20440409D01*
X16900608Y20397610D01*
X16912734Y20274491D01*
X16963053Y20108610D01*
X17044767Y19955734D01*
X17154736Y19821736D01*
X17188313Y19794180D01*
X20571770Y16410722D01*
X20518223Y16366777D01*
X20439646Y16271030D01*
X20381258Y16161794D01*
X20345303Y16043265D01*
X20333162Y15920000D01*
X20333162Y14995000D01*
X20345303Y14871735D01*
X20381258Y14753206D01*
X20439646Y14643970D01*
X20518223Y14548223D01*
X20613970Y14469646D01*
X20723206Y14411258D01*
X20841735Y14375303D01*
X20965000Y14363162D01*
X22215000Y14363162D01*
X22338265Y14375303D01*
X22456794Y14411258D01*
X22566030Y14469646D01*
X22661777Y14548223D01*
X22740354Y14643970D01*
X22798742Y14753206D01*
X22834697Y14871735D01*
X22846838Y14995000D01*
X22846838Y15920000D01*
X22834697Y16043265D01*
X22798742Y16161794D01*
X22740354Y16271030D01*
X22661777Y16366777D01*
X22566030Y16445354D01*
X22470000Y16496683D01*
X22470000Y16593779D01*
X22474257Y16637000D01*
X22457266Y16809510D01*
X22419621Y16933610D01*
X22406947Y16975391D01*
X22325233Y17128267D01*
X22215264Y17262264D01*
X22181692Y17289816D01*
X18877272Y20594236D01*
X18929591Y20646555D01*
X19050000Y20826760D01*
X19170409Y20646555D01*
X19376555Y20440409D01*
X19618957Y20278441D01*
X19888300Y20166876D01*
X20174233Y20110000D01*
X20428493Y20110000D01*
X24257677Y16280815D01*
X24249646Y16271030D01*
X24191258Y16161794D01*
X24155303Y16043265D01*
X24143162Y15920000D01*
X24143162Y14995000D01*
X24155303Y14871735D01*
X24191258Y14753206D01*
X24249646Y14643970D01*
X24328223Y14548223D01*
X24423970Y14469646D01*
X24533206Y14411258D01*
X24651735Y14375303D01*
X24775000Y14363162D01*
X26025000Y14363162D01*
X26148265Y14375303D01*
X26266794Y14411258D01*
X26376030Y14469646D01*
X26471777Y14548223D01*
X26550354Y14643970D01*
X26608742Y14753206D01*
X26644697Y14871735D01*
X26656838Y14995000D01*
X26656838Y15920000D01*
X26644697Y16043265D01*
X26608742Y16161794D01*
X26550354Y16271030D01*
X26471777Y16366777D01*
X26376030Y16445354D01*
X26272674Y16500599D01*
X26267266Y16555510D01*
X26216947Y16721391D01*
X26135233Y16874267D01*
X26025264Y17008264D01*
X25991692Y17035816D01*
X21764043Y21263465D01*
X21800000Y21444233D01*
X21800000Y21735767D01*
X21743124Y22021700D01*
X21631559Y22291043D01*
X21469591Y22533445D01*
X21263445Y22739591D01*
X21021043Y22901559D01*
X20751700Y23013124D01*
X20465767Y23070000D01*
X20174233Y23070000D01*
X19888300Y23013124D01*
X19618957Y22901559D01*
X19376555Y22739591D01*
X19170409Y22533445D01*
X19050000Y22353240D01*
X18929591Y22533445D01*
X18723445Y22739591D01*
X18481043Y22901559D01*
X18211700Y23013124D01*
X17925767Y23070000D01*
X17634233Y23070000D01*
X17348300Y23013124D01*
X17078957Y22901559D01*
X16836555Y22739591D01*
X16630409Y22533445D01*
X16510000Y22353240D01*
X16389591Y22533445D01*
X16183445Y22739591D01*
X15941043Y22901559D01*
X15671700Y23013124D01*
X15385767Y23070000D01*
X15094233Y23070000D01*
X14808300Y23013124D01*
X14538957Y22901559D01*
X14296555Y22739591D01*
X14090409Y22533445D01*
X13970000Y22353240D01*
X13849591Y22533445D01*
X13643445Y22739591D01*
X13401043Y22901559D01*
X13131700Y23013124D01*
X12845767Y23070000D01*
X12554233Y23070000D01*
X12268300Y23013124D01*
X11998957Y22901559D01*
X11756555Y22739591D01*
X11550409Y22533445D01*
X11430000Y22353240D01*
X11309591Y22533445D01*
X11103445Y22739591D01*
X10861043Y22901559D01*
X10591700Y23013124D01*
X10305767Y23070000D01*
X10014233Y23070000D01*
X9728300Y23013124D01*
X9458957Y22901559D01*
X9216555Y22739591D01*
X9010409Y22533445D01*
X8890000Y22353240D01*
X8769591Y22533445D01*
X8563445Y22739591D01*
X8321043Y22901559D01*
X8051700Y23013124D01*
X7765767Y23070000D01*
X7474233Y23070000D01*
X7188300Y23013124D01*
X6918957Y22901559D01*
X6676555Y22739591D01*
X6470409Y22533445D01*
X6350000Y22353240D01*
X6229591Y22533445D01*
X6023445Y22739591D01*
X5781043Y22901559D01*
X5511700Y23013124D01*
X5225767Y23070000D01*
X4934233Y23070000D01*
X4648300Y23013124D01*
X4378957Y22901559D01*
X4136555Y22739591D01*
X3930409Y22533445D01*
X3768441Y22291043D01*
X3656876Y22021700D01*
X3600000Y21735767D01*
X3600000Y21444233D01*
X3656876Y21158300D01*
X3768441Y20888957D01*
X3930409Y20646555D01*
X4136555Y20440409D01*
X4327000Y20313157D01*
X4327000Y20176508D01*
X1948309Y17797816D01*
X1914737Y17770264D01*
X1804768Y17636267D01*
X1790564Y17609693D01*
X1723053Y17483390D01*
X1672734Y17317510D01*
X1655744Y17145000D01*
X1660001Y17101777D01*
X1660001Y16496684D01*
X1563970Y16445354D01*
X1468223Y16366777D01*
X1389646Y16271030D01*
X1331258Y16161794D01*
X1295303Y16043265D01*
X1283162Y15920000D01*
X405000Y15920000D01*
X405000Y25535918D01*
X1160000Y25535918D01*
X1160000Y25264082D01*
X1213033Y24997469D01*
X1317060Y24746325D01*
X1468084Y24520301D01*
X1660301Y24328084D01*
X1886325Y24177060D01*
X2137469Y24073033D01*
X2404082Y24020000D01*
X2675918Y24020000D01*
X2942531Y24073033D01*
X3193675Y24177060D01*
X3419699Y24328084D01*
X3611916Y24520301D01*
X3762940Y24746325D01*
X3866967Y24997469D01*
X3920000Y25264082D01*
X3920000Y25535918D01*
X24020000Y25535918D01*
X24020000Y25264082D01*
X24073033Y24997469D01*
X24177060Y24746325D01*
X24328084Y24520301D01*
X24520301Y24328084D01*
X24746325Y24177060D01*
X24997469Y24073033D01*
X25264082Y24020000D01*
X25535918Y24020000D01*
X25802531Y24073033D01*
X26053675Y24177060D01*
X26279699Y24328084D01*
X26471916Y24520301D01*
X26622940Y24746325D01*
X26726967Y24997469D01*
X26780000Y25264082D01*
X26780000Y25535918D01*
X26726967Y25802531D01*
X26622940Y26053675D01*
X26471916Y26279699D01*
X26279699Y26471916D01*
X26053675Y26622940D01*
X25802531Y26726967D01*
X25535918Y26780000D01*
X25264082Y26780000D01*
X24997469Y26726967D01*
X24746325Y26622940D01*
X24520301Y26471916D01*
X24328084Y26279699D01*
X24177060Y26053675D01*
X24073033Y25802531D01*
X24020000Y25535918D01*
X3920000Y25535918D01*
X3866967Y25802531D01*
X3762940Y26053675D01*
X3611916Y26279699D01*
X3419699Y26471916D01*
X3193675Y26622940D01*
X2942531Y26726967D01*
X2675918Y26780000D01*
X2404082Y26780000D01*
X2137469Y26726967D01*
X1886325Y26622940D01*
X1660301Y26471916D01*
X1468084Y26279699D01*
X1317060Y26053675D01*
X1213033Y25802531D01*
X1160000Y25535918D01*
X405000Y25535918D01*
X405000Y27535000D01*
X27535000Y27535000D01*
X27535001Y405000D01*
G37*
X27535001Y405000D02*
X405000Y405000D01*
X405000Y5215918D01*
X1160000Y5215918D01*
X1160000Y4944082D01*
X1213033Y4677469D01*
X1317060Y4426325D01*
X1468084Y4200301D01*
X1660301Y4008084D01*
X1886325Y3857060D01*
X2137469Y3753033D01*
X2404082Y3700000D01*
X2675918Y3700000D01*
X2942531Y3753033D01*
X3193675Y3857060D01*
X3419699Y4008084D01*
X3611916Y4200301D01*
X3762940Y4426325D01*
X3866967Y4677469D01*
X3920000Y4944082D01*
X3920000Y5215918D01*
X24020000Y5215918D01*
X24020000Y4944082D01*
X24073033Y4677469D01*
X24177060Y4426325D01*
X24328084Y4200301D01*
X24520301Y4008084D01*
X24746325Y3857060D01*
X24997469Y3753033D01*
X25264082Y3700000D01*
X25535918Y3700000D01*
X25802531Y3753033D01*
X26053675Y3857060D01*
X26279699Y4008084D01*
X26471916Y4200301D01*
X26622940Y4426325D01*
X26726967Y4677469D01*
X26780000Y4944082D01*
X26780000Y5215918D01*
X26726967Y5482531D01*
X26622940Y5733675D01*
X26471916Y5959699D01*
X26279699Y6151916D01*
X26053675Y6302940D01*
X25802531Y6406967D01*
X25535918Y6460000D01*
X25264082Y6460000D01*
X24997469Y6406967D01*
X24746325Y6302940D01*
X24520301Y6151916D01*
X24328084Y5959699D01*
X24177060Y5733675D01*
X24073033Y5482531D01*
X24020000Y5215918D01*
X3920000Y5215918D01*
X3866967Y5482531D01*
X3762940Y5733675D01*
X3611916Y5959699D01*
X3419699Y6151916D01*
X3193675Y6302940D01*
X2942531Y6406967D01*
X2675918Y6460000D01*
X2404082Y6460000D01*
X2137469Y6406967D01*
X1886325Y6302940D01*
X1660301Y6151916D01*
X1468084Y5959699D01*
X1317060Y5733675D01*
X1213033Y5482531D01*
X1160000Y5215918D01*
X405000Y5215918D01*
X405000Y12945000D01*
X1283162Y12945000D01*
X1283162Y12020000D01*
X1295303Y11896735D01*
X1331258Y11778206D01*
X1389646Y11668970D01*
X1468223Y11573223D01*
X1563970Y11494646D01*
X1660001Y11443316D01*
X1660001Y11092223D01*
X1655744Y11049000D01*
X1672734Y10876490D01*
X1723053Y10710610D01*
X1740625Y10677736D01*
X1804768Y10557733D01*
X1914737Y10423736D01*
X1948309Y10396184D01*
X5125301Y7219191D01*
X5105303Y7153265D01*
X5093162Y7030000D01*
X5093162Y6105000D01*
X5105303Y5981735D01*
X5141258Y5863206D01*
X5199646Y5753970D01*
X5278223Y5658223D01*
X5373970Y5579646D01*
X5483206Y5521258D01*
X5601735Y5485303D01*
X5725000Y5473162D01*
X6975000Y5473162D01*
X7098265Y5485303D01*
X7216794Y5521258D01*
X7326030Y5579646D01*
X7421777Y5658223D01*
X7500354Y5753970D01*
X7558742Y5863206D01*
X7594697Y5981735D01*
X7606838Y6105000D01*
X7606838Y7030000D01*
X7594697Y7153265D01*
X7558742Y7271794D01*
X7500354Y7381030D01*
X7421777Y7476777D01*
X7326030Y7555354D01*
X7216794Y7613742D01*
X7098265Y7649697D01*
X7055253Y7653933D01*
X7052855Y7661838D01*
X7039947Y7704391D01*
X6958233Y7857267D01*
X6848264Y7991264D01*
X6814693Y8018815D01*
X3420000Y11413507D01*
X3420000Y11443317D01*
X3516030Y11494646D01*
X3611777Y11573223D01*
X3690354Y11668970D01*
X3748742Y11778206D01*
X3784697Y11896735D01*
X3796838Y12020000D01*
X3796838Y12945000D01*
X5093162Y12945000D01*
X5093162Y12020000D01*
X5105303Y11896735D01*
X5141258Y11778206D01*
X5199646Y11668970D01*
X5278223Y11573223D01*
X5373970Y11494646D01*
X5467203Y11444812D01*
X5465744Y11430000D01*
X5482734Y11257490D01*
X5533053Y11091610D01*
X5533054Y11091609D01*
X5614768Y10938733D01*
X5724737Y10804736D01*
X5758309Y10777184D01*
X8010000Y8525492D01*
X8010001Y7606684D01*
X7913970Y7555354D01*
X7818223Y7476777D01*
X7739646Y7381030D01*
X7681258Y7271794D01*
X7645303Y7153265D01*
X7633162Y7030000D01*
X7633162Y6105000D01*
X7645303Y5981735D01*
X7681258Y5863206D01*
X7739646Y5753970D01*
X7818223Y5658223D01*
X7913970Y5579646D01*
X8023206Y5521258D01*
X8141735Y5485303D01*
X8265000Y5473162D01*
X9515000Y5473162D01*
X9638265Y5485303D01*
X9756794Y5521258D01*
X9866030Y5579646D01*
X9961777Y5658223D01*
X10040354Y5753970D01*
X10098742Y5863206D01*
X10134697Y5981735D01*
X10146838Y6105000D01*
X10146838Y7030000D01*
X10134697Y7153265D01*
X10098742Y7271794D01*
X10040354Y7381030D01*
X9961777Y7476777D01*
X9866030Y7555354D01*
X9770000Y7606683D01*
X9770000Y8846787D01*
X9774256Y8890001D01*
X9770000Y8933215D01*
X9770000Y8933221D01*
X9757266Y9062510D01*
X9731108Y9148744D01*
X9706947Y9228391D01*
X9625233Y9381267D01*
X9515264Y9515264D01*
X9481693Y9542815D01*
X7435077Y11589430D01*
X7500354Y11668970D01*
X7558742Y11778206D01*
X7594697Y11896735D01*
X7606838Y12020000D01*
X7606838Y12945000D01*
X8903162Y12945000D01*
X8903162Y12020000D01*
X8915303Y11896735D01*
X8951258Y11778206D01*
X9009646Y11668970D01*
X9088223Y11573223D01*
X9183970Y11494646D01*
X9280001Y11443316D01*
X9280001Y11346223D01*
X9275744Y11303000D01*
X9292734Y11130490D01*
X9343053Y10964610D01*
X9343054Y10964609D01*
X9424768Y10811733D01*
X9534737Y10677736D01*
X9568308Y10650184D01*
X10550000Y9668492D01*
X10550001Y7606684D01*
X10453970Y7555354D01*
X10358223Y7476777D01*
X10279646Y7381030D01*
X10221258Y7271794D01*
X10185303Y7153265D01*
X10173162Y7030000D01*
X10173162Y6105000D01*
X10185303Y5981735D01*
X10221258Y5863206D01*
X10279646Y5753970D01*
X10358223Y5658223D01*
X10453970Y5579646D01*
X10563206Y5521258D01*
X10681735Y5485303D01*
X10805000Y5473162D01*
X12055000Y5473162D01*
X12178265Y5485303D01*
X12296794Y5521258D01*
X12406030Y5579646D01*
X12501777Y5658223D01*
X12580354Y5753970D01*
X12638742Y5863206D01*
X12674697Y5981735D01*
X12686838Y6105000D01*
X12686838Y7030000D01*
X12674697Y7153265D01*
X12638742Y7271794D01*
X12580354Y7381030D01*
X12501777Y7476777D01*
X12406030Y7555354D01*
X12310000Y7606683D01*
X12310000Y9989787D01*
X12314256Y10033001D01*
X12310000Y10076215D01*
X12310000Y10076221D01*
X12297266Y10205510D01*
X12289215Y10232053D01*
X12246947Y10371391D01*
X12165233Y10524267D01*
X12055264Y10658264D01*
X12021693Y10685815D01*
X11178229Y11529278D01*
X11231777Y11573223D01*
X11310354Y11668970D01*
X11368742Y11778206D01*
X11404697Y11896735D01*
X11416838Y12020000D01*
X11416838Y12945000D01*
X12713162Y12945000D01*
X12713162Y12020000D01*
X12725303Y11896735D01*
X12761258Y11778206D01*
X12819646Y11668970D01*
X12898223Y11573223D01*
X12993970Y11494646D01*
X13090000Y11443317D01*
X13090001Y7606684D01*
X12993970Y7555354D01*
X12898223Y7476777D01*
X12819646Y7381030D01*
X12761258Y7271794D01*
X12725303Y7153265D01*
X12713162Y7030000D01*
X12713162Y6105000D01*
X12725303Y5981735D01*
X12761258Y5863206D01*
X12819646Y5753970D01*
X12898223Y5658223D01*
X12993970Y5579646D01*
X13103206Y5521258D01*
X13221735Y5485303D01*
X13345000Y5473162D01*
X14595000Y5473162D01*
X14718265Y5485303D01*
X14836794Y5521258D01*
X14946030Y5579646D01*
X15041777Y5658223D01*
X15120354Y5753970D01*
X15178742Y5863206D01*
X15214697Y5981735D01*
X15226838Y6105000D01*
X15226838Y7030000D01*
X15253162Y7030000D01*
X15253162Y6105000D01*
X15265303Y5981735D01*
X15301258Y5863206D01*
X15359646Y5753970D01*
X15438223Y5658223D01*
X15533970Y5579646D01*
X15643206Y5521258D01*
X15761735Y5485303D01*
X15885000Y5473162D01*
X17135000Y5473162D01*
X17258265Y5485303D01*
X17376794Y5521258D01*
X17486030Y5579646D01*
X17581777Y5658223D01*
X17660354Y5753970D01*
X17718742Y5863206D01*
X17754697Y5981735D01*
X17766838Y6105000D01*
X17766838Y7030000D01*
X17793162Y7030000D01*
X17793162Y6105000D01*
X17805303Y5981735D01*
X17841258Y5863206D01*
X17899646Y5753970D01*
X17978223Y5658223D01*
X18073970Y5579646D01*
X18183206Y5521258D01*
X18301735Y5485303D01*
X18425000Y5473162D01*
X19675000Y5473162D01*
X19798265Y5485303D01*
X19916794Y5521258D01*
X20026030Y5579646D01*
X20121777Y5658223D01*
X20200354Y5753970D01*
X20258742Y5863206D01*
X20294697Y5981735D01*
X20306838Y6105000D01*
X20306838Y7030000D01*
X20333162Y7030000D01*
X20333162Y6105000D01*
X20345303Y5981735D01*
X20381258Y5863206D01*
X20439646Y5753970D01*
X20518223Y5658223D01*
X20613970Y5579646D01*
X20723206Y5521258D01*
X20841735Y5485303D01*
X20965000Y5473162D01*
X22215000Y5473162D01*
X22338265Y5485303D01*
X22456794Y5521258D01*
X22566030Y5579646D01*
X22661777Y5658223D01*
X22740354Y5753970D01*
X22798742Y5863206D01*
X22834697Y5981735D01*
X22846838Y6105000D01*
X22846838Y7030000D01*
X22834697Y7153265D01*
X22798742Y7271794D01*
X22740354Y7381030D01*
X22732323Y7390816D01*
X25991692Y10650184D01*
X26025264Y10677736D01*
X26135233Y10811733D01*
X26216947Y10964609D01*
X26267266Y11130490D01*
X26280000Y11259779D01*
X26284257Y11303000D01*
X26280000Y11346221D01*
X26280000Y11443317D01*
X26376030Y11494646D01*
X26471777Y11573223D01*
X26550354Y11668970D01*
X26608742Y11778206D01*
X26644697Y11896735D01*
X26656838Y12020000D01*
X26656838Y12945000D01*
X26644697Y13068265D01*
X26608742Y13186794D01*
X26550354Y13296030D01*
X26471777Y13391777D01*
X26376030Y13470354D01*
X26266794Y13528742D01*
X26148265Y13564697D01*
X26025000Y13576838D01*
X24775000Y13576838D01*
X24651735Y13564697D01*
X24533206Y13528742D01*
X24423970Y13470354D01*
X24328223Y13391777D01*
X24249646Y13296030D01*
X24191258Y13186794D01*
X24155303Y13068265D01*
X24143162Y12945000D01*
X24143162Y12020000D01*
X24155303Y11896735D01*
X24191258Y11778206D01*
X24249646Y11668970D01*
X24328223Y11573223D01*
X24381770Y11529278D01*
X20998313Y8145820D01*
X20964736Y8118264D01*
X20854767Y7984266D01*
X20786885Y7857267D01*
X20773053Y7831390D01*
X20734529Y7704391D01*
X20722734Y7665509D01*
X20717326Y7610599D01*
X20613970Y7555354D01*
X20518223Y7476777D01*
X20439646Y7381030D01*
X20381258Y7271794D01*
X20345303Y7153265D01*
X20333162Y7030000D01*
X20306838Y7030000D01*
X20294697Y7153265D01*
X20258742Y7271794D01*
X20200354Y7381030D01*
X20121777Y7476777D01*
X20026030Y7555354D01*
X19916794Y7613742D01*
X19803000Y7648261D01*
X19803000Y8398493D01*
X22181692Y10777184D01*
X22215264Y10804736D01*
X22325233Y10938733D01*
X22406947Y11091609D01*
X22457266Y11257490D01*
X22470000Y11386779D01*
X22474257Y11430000D01*
X22472798Y11444812D01*
X22566030Y11494646D01*
X22661777Y11573223D01*
X22740354Y11668970D01*
X22798742Y11778206D01*
X22834697Y11896735D01*
X22846838Y12020000D01*
X22846838Y12945000D01*
X22834697Y13068265D01*
X22798742Y13186794D01*
X22740354Y13296030D01*
X22661777Y13391777D01*
X22566030Y13470354D01*
X22456794Y13528742D01*
X22338265Y13564697D01*
X22215000Y13576838D01*
X20965000Y13576838D01*
X20841735Y13564697D01*
X20723206Y13528742D01*
X20613970Y13470354D01*
X20518223Y13391777D01*
X20439646Y13296030D01*
X20381258Y13186794D01*
X20345303Y13068265D01*
X20333162Y12945000D01*
X20333162Y12020000D01*
X20345303Y11896735D01*
X20381258Y11778206D01*
X20439646Y11668970D01*
X20504922Y11589430D01*
X18331313Y9415820D01*
X18297736Y9388264D01*
X18187767Y9254266D01*
X18106054Y9101391D01*
X18106053Y9101390D01*
X18055734Y8935510D01*
X18053964Y8917538D01*
X18043000Y8806220D01*
X18043000Y8806214D01*
X18038744Y8763000D01*
X18043000Y8719786D01*
X18043001Y7529938D01*
X17978223Y7476777D01*
X17899646Y7381030D01*
X17841258Y7271794D01*
X17805303Y7153265D01*
X17793162Y7030000D01*
X17766838Y7030000D01*
X17754697Y7153265D01*
X17718742Y7271794D01*
X17660354Y7381030D01*
X17581777Y7476777D01*
X17486030Y7555354D01*
X17390000Y7606683D01*
X17390000Y9668493D01*
X18371692Y10650184D01*
X18405264Y10677736D01*
X18515233Y10811733D01*
X18596947Y10964609D01*
X18647266Y11130490D01*
X18660000Y11259779D01*
X18660000Y11259785D01*
X18664256Y11302999D01*
X18660000Y11346213D01*
X18660000Y11443317D01*
X18756030Y11494646D01*
X18851777Y11573223D01*
X18930354Y11668970D01*
X18988742Y11778206D01*
X19024697Y11896735D01*
X19036838Y12020000D01*
X19036838Y12945000D01*
X19024697Y13068265D01*
X18988742Y13186794D01*
X18930354Y13296030D01*
X18851777Y13391777D01*
X18756030Y13470354D01*
X18646794Y13528742D01*
X18528265Y13564697D01*
X18405000Y13576838D01*
X17155000Y13576838D01*
X17031735Y13564697D01*
X16913206Y13528742D01*
X16803970Y13470354D01*
X16708223Y13391777D01*
X16629646Y13296030D01*
X16571258Y13186794D01*
X16535303Y13068265D01*
X16523162Y12945000D01*
X16523162Y12020000D01*
X16535303Y11896735D01*
X16571258Y11778206D01*
X16629646Y11668970D01*
X16708223Y11573223D01*
X16761770Y11529278D01*
X15918313Y10685820D01*
X15884736Y10658264D01*
X15774767Y10524266D01*
X15727446Y10435734D01*
X15693053Y10371390D01*
X15642735Y10205511D01*
X15642734Y10205509D01*
X15630000Y10076220D01*
X15630000Y10076214D01*
X15625744Y10033000D01*
X15630000Y9989786D01*
X15630001Y7606684D01*
X15533970Y7555354D01*
X15438223Y7476777D01*
X15359646Y7381030D01*
X15301258Y7271794D01*
X15265303Y7153265D01*
X15253162Y7030000D01*
X15226838Y7030000D01*
X15214697Y7153265D01*
X15178742Y7271794D01*
X15120354Y7381030D01*
X15041777Y7476777D01*
X14946030Y7555354D01*
X14850000Y7606683D01*
X14850000Y11443317D01*
X14946030Y11494646D01*
X15041777Y11573223D01*
X15120354Y11668970D01*
X15178742Y11778206D01*
X15214697Y11896735D01*
X15226838Y12020000D01*
X15226838Y12945000D01*
X15214697Y13068265D01*
X15178742Y13186794D01*
X15120354Y13296030D01*
X15041777Y13391777D01*
X14946030Y13470354D01*
X14836794Y13528742D01*
X14718265Y13564697D01*
X14595000Y13576838D01*
X13345000Y13576838D01*
X13221735Y13564697D01*
X13103206Y13528742D01*
X12993970Y13470354D01*
X12898223Y13391777D01*
X12819646Y13296030D01*
X12761258Y13186794D01*
X12725303Y13068265D01*
X12713162Y12945000D01*
X11416838Y12945000D01*
X11404697Y13068265D01*
X11368742Y13186794D01*
X11310354Y13296030D01*
X11231777Y13391777D01*
X11136030Y13470354D01*
X11026794Y13528742D01*
X10908265Y13564697D01*
X10785000Y13576838D01*
X9535000Y13576838D01*
X9411735Y13564697D01*
X9293206Y13528742D01*
X9183970Y13470354D01*
X9088223Y13391777D01*
X9009646Y13296030D01*
X8951258Y13186794D01*
X8915303Y13068265D01*
X8903162Y12945000D01*
X7606838Y12945000D01*
X7594697Y13068265D01*
X7558742Y13186794D01*
X7500354Y13296030D01*
X7421777Y13391777D01*
X7326030Y13470354D01*
X7216794Y13528742D01*
X7098265Y13564697D01*
X6975000Y13576838D01*
X5725000Y13576838D01*
X5601735Y13564697D01*
X5483206Y13528742D01*
X5373970Y13470354D01*
X5278223Y13391777D01*
X5199646Y13296030D01*
X5141258Y13186794D01*
X5105303Y13068265D01*
X5093162Y12945000D01*
X3796838Y12945000D01*
X3784697Y13068265D01*
X3748742Y13186794D01*
X3690354Y13296030D01*
X3611777Y13391777D01*
X3516030Y13470354D01*
X3406794Y13528742D01*
X3288265Y13564697D01*
X3165000Y13576838D01*
X1915000Y13576838D01*
X1791735Y13564697D01*
X1673206Y13528742D01*
X1563970Y13470354D01*
X1468223Y13391777D01*
X1389646Y13296030D01*
X1331258Y13186794D01*
X1295303Y13068265D01*
X1283162Y12945000D01*
X405000Y12945000D01*
X405000Y15920000D01*
X1283162Y15920000D01*
X1283162Y14995000D01*
X1295303Y14871735D01*
X1331258Y14753206D01*
X1389646Y14643970D01*
X1468223Y14548223D01*
X1563970Y14469646D01*
X1673206Y14411258D01*
X1791735Y14375303D01*
X1915000Y14363162D01*
X3165000Y14363162D01*
X3288265Y14375303D01*
X3406794Y14411258D01*
X3516030Y14469646D01*
X3611777Y14548223D01*
X3690354Y14643970D01*
X3748742Y14753206D01*
X3784697Y14871735D01*
X3796838Y14995000D01*
X3796838Y15920000D01*
X3784697Y16043265D01*
X3748742Y16161794D01*
X3690354Y16271030D01*
X3611777Y16366777D01*
X3516030Y16445354D01*
X3420000Y16496683D01*
X3420000Y16780493D01*
X5798693Y19159185D01*
X5832264Y19186736D01*
X5942233Y19320733D01*
X6023947Y19473609D01*
X6074266Y19639490D01*
X6087000Y19768779D01*
X6087000Y19768780D01*
X6091257Y19812000D01*
X6087000Y19855221D01*
X6087000Y20503964D01*
X6229591Y20646555D01*
X6350000Y20826760D01*
X6470409Y20646555D01*
X6676555Y20440409D01*
X6740001Y20398016D01*
X6740000Y18779508D01*
X5758312Y17797819D01*
X5724736Y17770264D01*
X5614767Y17636267D01*
X5533053Y17483391D01*
X5482734Y17317510D01*
X5470000Y17188221D01*
X5470000Y17188214D01*
X5465744Y17145000D01*
X5470000Y17101786D01*
X5470000Y16847780D01*
X5470001Y16847770D01*
X5470001Y16496684D01*
X5373970Y16445354D01*
X5278223Y16366777D01*
X5199646Y16271030D01*
X5141258Y16161794D01*
X5105303Y16043265D01*
X5093162Y15920000D01*
X5093162Y14995000D01*
X5105303Y14871735D01*
X5141258Y14753206D01*
X5199646Y14643970D01*
X5278223Y14548223D01*
X5373970Y14469646D01*
X5483206Y14411258D01*
X5601735Y14375303D01*
X5725000Y14363162D01*
X6975000Y14363162D01*
X7098265Y14375303D01*
X7216794Y14411258D01*
X7326030Y14469646D01*
X7421777Y14548223D01*
X7500354Y14643970D01*
X7558742Y14753206D01*
X7594697Y14871735D01*
X7606838Y14995000D01*
X7606838Y15920000D01*
X7594697Y16043265D01*
X7558742Y16161794D01*
X7500354Y16271030D01*
X7421777Y16366777D01*
X7326030Y16445354D01*
X7230000Y16496683D01*
X7230000Y16780493D01*
X8211693Y17762185D01*
X8245264Y17789736D01*
X8355233Y17923733D01*
X8436947Y18076609D01*
X8455954Y18139266D01*
X8487266Y18242489D01*
X8489036Y18260461D01*
X8500000Y18371779D01*
X8500000Y18371785D01*
X8504256Y18414999D01*
X8500000Y18458213D01*
X8500000Y20398016D01*
X8563445Y20440409D01*
X8769591Y20646555D01*
X8890000Y20826760D01*
X9010409Y20646555D01*
X9216555Y20440409D01*
X9280000Y20398016D01*
X9280001Y16496684D01*
X9183970Y16445354D01*
X9088223Y16366777D01*
X9009646Y16271030D01*
X8951258Y16161794D01*
X8915303Y16043265D01*
X8903162Y15920000D01*
X8903162Y14995000D01*
X8915303Y14871735D01*
X8951258Y14753206D01*
X9009646Y14643970D01*
X9088223Y14548223D01*
X9183970Y14469646D01*
X9293206Y14411258D01*
X9411735Y14375303D01*
X9535000Y14363162D01*
X10084675Y14363162D01*
X10160000Y14355743D01*
X10235325Y14363162D01*
X10785000Y14363162D01*
X10908265Y14375303D01*
X11026794Y14411258D01*
X11136030Y14469646D01*
X11231777Y14548223D01*
X11310354Y14643970D01*
X11368742Y14753206D01*
X11404697Y14871735D01*
X11416838Y14995000D01*
X11416838Y15920000D01*
X11404697Y16043265D01*
X11368742Y16161794D01*
X11310354Y16271030D01*
X11231777Y16366777D01*
X11136030Y16445354D01*
X11040000Y16496683D01*
X11040000Y20398016D01*
X11103445Y20440409D01*
X11309591Y20646555D01*
X11430000Y20826760D01*
X11550409Y20646555D01*
X11756555Y20440409D01*
X11820000Y20398016D01*
X11820001Y18458224D01*
X11815744Y18415000D01*
X11832734Y18242490D01*
X11883053Y18076610D01*
X11883054Y18076609D01*
X11964768Y17923733D01*
X12074737Y17789736D01*
X12108308Y17762184D01*
X13090000Y16780492D01*
X13090000Y16496683D01*
X12993970Y16445354D01*
X12898223Y16366777D01*
X12819646Y16271030D01*
X12761258Y16161794D01*
X12725303Y16043265D01*
X12713162Y15920000D01*
X12713162Y14995000D01*
X12725303Y14871735D01*
X12761258Y14753206D01*
X12819646Y14643970D01*
X12898223Y14548223D01*
X12993970Y14469646D01*
X13103206Y14411258D01*
X13221735Y14375303D01*
X13345000Y14363162D01*
X14595000Y14363162D01*
X14718265Y14375303D01*
X14836794Y14411258D01*
X14946030Y14469646D01*
X15041777Y14548223D01*
X15120354Y14643970D01*
X15178742Y14753206D01*
X15214697Y14871735D01*
X15226838Y14995000D01*
X15226838Y15920000D01*
X15214697Y16043265D01*
X15178742Y16161794D01*
X15120354Y16271030D01*
X15041777Y16366777D01*
X14946030Y16445354D01*
X14850000Y16496683D01*
X14850000Y17101787D01*
X14854256Y17145001D01*
X14850000Y17188215D01*
X14850000Y17188221D01*
X14837266Y17317510D01*
X14786947Y17483391D01*
X14705233Y17636267D01*
X14595264Y17770264D01*
X14561688Y17797819D01*
X14495820Y17863687D01*
X14495815Y17863693D01*
X13580000Y18779507D01*
X13580000Y20398016D01*
X13643445Y20440409D01*
X13849591Y20646555D01*
X13970000Y20826760D01*
X14090409Y20646555D01*
X14296555Y20440409D01*
X14487000Y20313157D01*
X14487000Y19474214D01*
X14482744Y19431000D01*
X14487000Y19387786D01*
X14487000Y19387780D01*
X14493604Y19320734D01*
X14499734Y19258490D01*
X14521500Y19186736D01*
X14550053Y19092610D01*
X14631767Y18939734D01*
X14741736Y18805736D01*
X14775313Y18778180D01*
X16900001Y16653491D01*
X16900001Y16496684D01*
X16803970Y16445354D01*
X16708223Y16366777D01*
X16629646Y16271030D01*
X16571258Y16161794D01*
X16535303Y16043265D01*
X16523162Y15920000D01*
X16523162Y14995000D01*
X16535303Y14871735D01*
X16571258Y14753206D01*
X16629646Y14643970D01*
X16708223Y14548223D01*
X16803970Y14469646D01*
X16913206Y14411258D01*
X17031735Y14375303D01*
X17155000Y14363162D01*
X18405000Y14363162D01*
X18528265Y14375303D01*
X18646794Y14411258D01*
X18756030Y14469646D01*
X18851777Y14548223D01*
X18930354Y14643970D01*
X18988742Y14753206D01*
X19024697Y14871735D01*
X19036838Y14995000D01*
X19036838Y15920000D01*
X19024697Y16043265D01*
X18988742Y16161794D01*
X18930354Y16271030D01*
X18851777Y16366777D01*
X18756030Y16445354D01*
X18660000Y16496683D01*
X18660000Y16974787D01*
X18664256Y17018001D01*
X18660000Y17061215D01*
X18660000Y17061221D01*
X18647492Y17188220D01*
X18647266Y17190511D01*
X18596947Y17356391D01*
X18549846Y17444510D01*
X18515233Y17509267D01*
X18405264Y17643264D01*
X18371692Y17670816D01*
X16247000Y19795507D01*
X16247000Y20503964D01*
X16389591Y20646555D01*
X16510000Y20826760D01*
X16630409Y20646555D01*
X16836555Y20440409D01*
X16900608Y20397610D01*
X16912734Y20274491D01*
X16963053Y20108610D01*
X17044767Y19955734D01*
X17154736Y19821736D01*
X17188313Y19794180D01*
X20571770Y16410722D01*
X20518223Y16366777D01*
X20439646Y16271030D01*
X20381258Y16161794D01*
X20345303Y16043265D01*
X20333162Y15920000D01*
X20333162Y14995000D01*
X20345303Y14871735D01*
X20381258Y14753206D01*
X20439646Y14643970D01*
X20518223Y14548223D01*
X20613970Y14469646D01*
X20723206Y14411258D01*
X20841735Y14375303D01*
X20965000Y14363162D01*
X22215000Y14363162D01*
X22338265Y14375303D01*
X22456794Y14411258D01*
X22566030Y14469646D01*
X22661777Y14548223D01*
X22740354Y14643970D01*
X22798742Y14753206D01*
X22834697Y14871735D01*
X22846838Y14995000D01*
X22846838Y15920000D01*
X22834697Y16043265D01*
X22798742Y16161794D01*
X22740354Y16271030D01*
X22661777Y16366777D01*
X22566030Y16445354D01*
X22470000Y16496683D01*
X22470000Y16593779D01*
X22474257Y16637000D01*
X22457266Y16809510D01*
X22419621Y16933610D01*
X22406947Y16975391D01*
X22325233Y17128267D01*
X22215264Y17262264D01*
X22181692Y17289816D01*
X18877272Y20594236D01*
X18929591Y20646555D01*
X19050000Y20826760D01*
X19170409Y20646555D01*
X19376555Y20440409D01*
X19618957Y20278441D01*
X19888300Y20166876D01*
X20174233Y20110000D01*
X20428493Y20110000D01*
X24257677Y16280815D01*
X24249646Y16271030D01*
X24191258Y16161794D01*
X24155303Y16043265D01*
X24143162Y15920000D01*
X24143162Y14995000D01*
X24155303Y14871735D01*
X24191258Y14753206D01*
X24249646Y14643970D01*
X24328223Y14548223D01*
X24423970Y14469646D01*
X24533206Y14411258D01*
X24651735Y14375303D01*
X24775000Y14363162D01*
X26025000Y14363162D01*
X26148265Y14375303D01*
X26266794Y14411258D01*
X26376030Y14469646D01*
X26471777Y14548223D01*
X26550354Y14643970D01*
X26608742Y14753206D01*
X26644697Y14871735D01*
X26656838Y14995000D01*
X26656838Y15920000D01*
X26644697Y16043265D01*
X26608742Y16161794D01*
X26550354Y16271030D01*
X26471777Y16366777D01*
X26376030Y16445354D01*
X26272674Y16500599D01*
X26267266Y16555510D01*
X26216947Y16721391D01*
X26135233Y16874267D01*
X26025264Y17008264D01*
X25991692Y17035816D01*
X21764043Y21263465D01*
X21800000Y21444233D01*
X21800000Y21735767D01*
X21743124Y22021700D01*
X21631559Y22291043D01*
X21469591Y22533445D01*
X21263445Y22739591D01*
X21021043Y22901559D01*
X20751700Y23013124D01*
X20465767Y23070000D01*
X20174233Y23070000D01*
X19888300Y23013124D01*
X19618957Y22901559D01*
X19376555Y22739591D01*
X19170409Y22533445D01*
X19050000Y22353240D01*
X18929591Y22533445D01*
X18723445Y22739591D01*
X18481043Y22901559D01*
X18211700Y23013124D01*
X17925767Y23070000D01*
X17634233Y23070000D01*
X17348300Y23013124D01*
X17078957Y22901559D01*
X16836555Y22739591D01*
X16630409Y22533445D01*
X16510000Y22353240D01*
X16389591Y22533445D01*
X16183445Y22739591D01*
X15941043Y22901559D01*
X15671700Y23013124D01*
X15385767Y23070000D01*
X15094233Y23070000D01*
X14808300Y23013124D01*
X14538957Y22901559D01*
X14296555Y22739591D01*
X14090409Y22533445D01*
X13970000Y22353240D01*
X13849591Y22533445D01*
X13643445Y22739591D01*
X13401043Y22901559D01*
X13131700Y23013124D01*
X12845767Y23070000D01*
X12554233Y23070000D01*
X12268300Y23013124D01*
X11998957Y22901559D01*
X11756555Y22739591D01*
X11550409Y22533445D01*
X11430000Y22353240D01*
X11309591Y22533445D01*
X11103445Y22739591D01*
X10861043Y22901559D01*
X10591700Y23013124D01*
X10305767Y23070000D01*
X10014233Y23070000D01*
X9728300Y23013124D01*
X9458957Y22901559D01*
X9216555Y22739591D01*
X9010409Y22533445D01*
X8890000Y22353240D01*
X8769591Y22533445D01*
X8563445Y22739591D01*
X8321043Y22901559D01*
X8051700Y23013124D01*
X7765767Y23070000D01*
X7474233Y23070000D01*
X7188300Y23013124D01*
X6918957Y22901559D01*
X6676555Y22739591D01*
X6470409Y22533445D01*
X6350000Y22353240D01*
X6229591Y22533445D01*
X6023445Y22739591D01*
X5781043Y22901559D01*
X5511700Y23013124D01*
X5225767Y23070000D01*
X4934233Y23070000D01*
X4648300Y23013124D01*
X4378957Y22901559D01*
X4136555Y22739591D01*
X3930409Y22533445D01*
X3768441Y22291043D01*
X3656876Y22021700D01*
X3600000Y21735767D01*
X3600000Y21444233D01*
X3656876Y21158300D01*
X3768441Y20888957D01*
X3930409Y20646555D01*
X4136555Y20440409D01*
X4327000Y20313157D01*
X4327000Y20176508D01*
X1948309Y17797816D01*
X1914737Y17770264D01*
X1804768Y17636267D01*
X1790564Y17609693D01*
X1723053Y17483390D01*
X1672734Y17317510D01*
X1655744Y17145000D01*
X1660001Y17101777D01*
X1660001Y16496684D01*
X1563970Y16445354D01*
X1468223Y16366777D01*
X1389646Y16271030D01*
X1331258Y16161794D01*
X1295303Y16043265D01*
X1283162Y15920000D01*
X405000Y15920000D01*
X405000Y25535918D01*
X1160000Y25535918D01*
X1160000Y25264082D01*
X1213033Y24997469D01*
X1317060Y24746325D01*
X1468084Y24520301D01*
X1660301Y24328084D01*
X1886325Y24177060D01*
X2137469Y24073033D01*
X2404082Y24020000D01*
X2675918Y24020000D01*
X2942531Y24073033D01*
X3193675Y24177060D01*
X3419699Y24328084D01*
X3611916Y24520301D01*
X3762940Y24746325D01*
X3866967Y24997469D01*
X3920000Y25264082D01*
X3920000Y25535918D01*
X24020000Y25535918D01*
X24020000Y25264082D01*
X24073033Y24997469D01*
X24177060Y24746325D01*
X24328084Y24520301D01*
X24520301Y24328084D01*
X24746325Y24177060D01*
X24997469Y24073033D01*
X25264082Y24020000D01*
X25535918Y24020000D01*
X25802531Y24073033D01*
X26053675Y24177060D01*
X26279699Y24328084D01*
X26471916Y24520301D01*
X26622940Y24746325D01*
X26726967Y24997469D01*
X26780000Y25264082D01*
X26780000Y25535918D01*
X26726967Y25802531D01*
X26622940Y26053675D01*
X26471916Y26279699D01*
X26279699Y26471916D01*
X26053675Y26622940D01*
X25802531Y26726967D01*
X25535918Y26780000D01*
X25264082Y26780000D01*
X24997469Y26726967D01*
X24746325Y26622940D01*
X24520301Y26471916D01*
X24328084Y26279699D01*
X24177060Y26053675D01*
X24073033Y25802531D01*
X24020000Y25535918D01*
X3920000Y25535918D01*
X3866967Y25802531D01*
X3762940Y26053675D01*
X3611916Y26279699D01*
X3419699Y26471916D01*
X3193675Y26622940D01*
X2942531Y26726967D01*
X2675918Y26780000D01*
X2404082Y26780000D01*
X2137469Y26726967D01*
X1886325Y26622940D01*
X1660301Y26471916D01*
X1468084Y26279699D01*
X1317060Y26053675D01*
X1213033Y25802531D01*
X1160000Y25535918D01*
X405000Y25535918D01*
X405000Y27535000D01*
X27535000Y27535000D01*
X27535001Y405000D01*
%TD*%
M02*
