%TF.GenerationSoftware,KiCad,Pcbnew,(5.1.6)-1*%
%TF.CreationDate,2025-02-26T15:49:59-05:00*%
%TF.ProjectId,led_board,6c65645f-626f-4617-9264-2e6b69636164,rev?*%
%TF.SameCoordinates,PX2e063a0PY4d83c00*%
%TF.FileFunction,Soldermask,Top*%
%TF.FilePolarity,Negative*%
%FSLAX46Y46*%
G04 Gerber Fmt 4.6, Leading zero omitted, Abs format (unit mm)*
G04 Created by KiCad (PCBNEW (5.1.6)-1) date 2025-02-26 15:49:59*
%MOMM*%
%LPD*%
G01*
G04 APERTURE LIST*
%ADD10C,2.100000*%
%ADD11C,2.300000*%
G04 APERTURE END LIST*
D10*
%TO.C,REF\u002A\u002A*%
X2540000Y25400000D03*
%TD*%
%TO.C,REF\u002A\u002A*%
X2540000Y5080000D03*
%TD*%
%TO.C,REF\u002A\u002A*%
X25400000Y5080000D03*
%TD*%
%TO.C,REF\u002A\u002A*%
X25400000Y25400000D03*
%TD*%
%TO.C,D1*%
G36*
G01*
X3197456Y11720000D02*
X1882544Y11720000D01*
G75*
G02*
X1615000Y11987544I0J267544D01*
G01*
X1615000Y12977456D01*
G75*
G02*
X1882544Y13245000I267544J0D01*
G01*
X3197456Y13245000D01*
G75*
G02*
X3465000Y12977456I0J-267544D01*
G01*
X3465000Y11987544D01*
G75*
G02*
X3197456Y11720000I-267544J0D01*
G01*
G37*
G36*
G01*
X3197456Y14695000D02*
X1882544Y14695000D01*
G75*
G02*
X1615000Y14962544I0J267544D01*
G01*
X1615000Y15952456D01*
G75*
G02*
X1882544Y16220000I267544J0D01*
G01*
X3197456Y16220000D01*
G75*
G02*
X3465000Y15952456I0J-267544D01*
G01*
X3465000Y14962544D01*
G75*
G02*
X3197456Y14695000I-267544J0D01*
G01*
G37*
%TD*%
%TO.C,D2*%
G36*
G01*
X7007456Y14695000D02*
X5692544Y14695000D01*
G75*
G02*
X5425000Y14962544I0J267544D01*
G01*
X5425000Y15952456D01*
G75*
G02*
X5692544Y16220000I267544J0D01*
G01*
X7007456Y16220000D01*
G75*
G02*
X7275000Y15952456I0J-267544D01*
G01*
X7275000Y14962544D01*
G75*
G02*
X7007456Y14695000I-267544J0D01*
G01*
G37*
G36*
G01*
X7007456Y11720000D02*
X5692544Y11720000D01*
G75*
G02*
X5425000Y11987544I0J267544D01*
G01*
X5425000Y12977456D01*
G75*
G02*
X5692544Y13245000I267544J0D01*
G01*
X7007456Y13245000D01*
G75*
G02*
X7275000Y12977456I0J-267544D01*
G01*
X7275000Y11987544D01*
G75*
G02*
X7007456Y11720000I-267544J0D01*
G01*
G37*
%TD*%
%TO.C,D3*%
G36*
G01*
X10817456Y11720000D02*
X9502544Y11720000D01*
G75*
G02*
X9235000Y11987544I0J267544D01*
G01*
X9235000Y12977456D01*
G75*
G02*
X9502544Y13245000I267544J0D01*
G01*
X10817456Y13245000D01*
G75*
G02*
X11085000Y12977456I0J-267544D01*
G01*
X11085000Y11987544D01*
G75*
G02*
X10817456Y11720000I-267544J0D01*
G01*
G37*
G36*
G01*
X10817456Y14695000D02*
X9502544Y14695000D01*
G75*
G02*
X9235000Y14962544I0J267544D01*
G01*
X9235000Y15952456D01*
G75*
G02*
X9502544Y16220000I267544J0D01*
G01*
X10817456Y16220000D01*
G75*
G02*
X11085000Y15952456I0J-267544D01*
G01*
X11085000Y14962544D01*
G75*
G02*
X10817456Y14695000I-267544J0D01*
G01*
G37*
%TD*%
%TO.C,D4*%
G36*
G01*
X14627456Y14695000D02*
X13312544Y14695000D01*
G75*
G02*
X13045000Y14962544I0J267544D01*
G01*
X13045000Y15952456D01*
G75*
G02*
X13312544Y16220000I267544J0D01*
G01*
X14627456Y16220000D01*
G75*
G02*
X14895000Y15952456I0J-267544D01*
G01*
X14895000Y14962544D01*
G75*
G02*
X14627456Y14695000I-267544J0D01*
G01*
G37*
G36*
G01*
X14627456Y11720000D02*
X13312544Y11720000D01*
G75*
G02*
X13045000Y11987544I0J267544D01*
G01*
X13045000Y12977456D01*
G75*
G02*
X13312544Y13245000I267544J0D01*
G01*
X14627456Y13245000D01*
G75*
G02*
X14895000Y12977456I0J-267544D01*
G01*
X14895000Y11987544D01*
G75*
G02*
X14627456Y11720000I-267544J0D01*
G01*
G37*
%TD*%
%TO.C,D5*%
G36*
G01*
X18437456Y11720000D02*
X17122544Y11720000D01*
G75*
G02*
X16855000Y11987544I0J267544D01*
G01*
X16855000Y12977456D01*
G75*
G02*
X17122544Y13245000I267544J0D01*
G01*
X18437456Y13245000D01*
G75*
G02*
X18705000Y12977456I0J-267544D01*
G01*
X18705000Y11987544D01*
G75*
G02*
X18437456Y11720000I-267544J0D01*
G01*
G37*
G36*
G01*
X18437456Y14695000D02*
X17122544Y14695000D01*
G75*
G02*
X16855000Y14962544I0J267544D01*
G01*
X16855000Y15952456D01*
G75*
G02*
X17122544Y16220000I267544J0D01*
G01*
X18437456Y16220000D01*
G75*
G02*
X18705000Y15952456I0J-267544D01*
G01*
X18705000Y14962544D01*
G75*
G02*
X18437456Y14695000I-267544J0D01*
G01*
G37*
%TD*%
%TO.C,D6*%
G36*
G01*
X22247456Y14695000D02*
X20932544Y14695000D01*
G75*
G02*
X20665000Y14962544I0J267544D01*
G01*
X20665000Y15952456D01*
G75*
G02*
X20932544Y16220000I267544J0D01*
G01*
X22247456Y16220000D01*
G75*
G02*
X22515000Y15952456I0J-267544D01*
G01*
X22515000Y14962544D01*
G75*
G02*
X22247456Y14695000I-267544J0D01*
G01*
G37*
G36*
G01*
X22247456Y11720000D02*
X20932544Y11720000D01*
G75*
G02*
X20665000Y11987544I0J267544D01*
G01*
X20665000Y12977456D01*
G75*
G02*
X20932544Y13245000I267544J0D01*
G01*
X22247456Y13245000D01*
G75*
G02*
X22515000Y12977456I0J-267544D01*
G01*
X22515000Y11987544D01*
G75*
G02*
X22247456Y11720000I-267544J0D01*
G01*
G37*
%TD*%
%TO.C,D7*%
G36*
G01*
X26057456Y11720000D02*
X24742544Y11720000D01*
G75*
G02*
X24475000Y11987544I0J267544D01*
G01*
X24475000Y12977456D01*
G75*
G02*
X24742544Y13245000I267544J0D01*
G01*
X26057456Y13245000D01*
G75*
G02*
X26325000Y12977456I0J-267544D01*
G01*
X26325000Y11987544D01*
G75*
G02*
X26057456Y11720000I-267544J0D01*
G01*
G37*
G36*
G01*
X26057456Y14695000D02*
X24742544Y14695000D01*
G75*
G02*
X24475000Y14962544I0J267544D01*
G01*
X24475000Y15952456D01*
G75*
G02*
X24742544Y16220000I267544J0D01*
G01*
X26057456Y16220000D01*
G75*
G02*
X26325000Y15952456I0J-267544D01*
G01*
X26325000Y14962544D01*
G75*
G02*
X26057456Y14695000I-267544J0D01*
G01*
G37*
%TD*%
D11*
%TO.C,J1*%
X5080000Y21590000D03*
X7620000Y21590000D03*
X10160000Y21590000D03*
X12700000Y21590000D03*
X15240000Y21590000D03*
X17780000Y21590000D03*
X20320000Y21590000D03*
X22860000Y21590000D03*
%TD*%
%TO.C,R1*%
G36*
G01*
X7007456Y2830000D02*
X5692544Y2830000D01*
G75*
G02*
X5425000Y3097544I0J267544D01*
G01*
X5425000Y4087456D01*
G75*
G02*
X5692544Y4355000I267544J0D01*
G01*
X7007456Y4355000D01*
G75*
G02*
X7275000Y4087456I0J-267544D01*
G01*
X7275000Y3097544D01*
G75*
G02*
X7007456Y2830000I-267544J0D01*
G01*
G37*
G36*
G01*
X7007456Y5805000D02*
X5692544Y5805000D01*
G75*
G02*
X5425000Y6072544I0J267544D01*
G01*
X5425000Y7062456D01*
G75*
G02*
X5692544Y7330000I267544J0D01*
G01*
X7007456Y7330000D01*
G75*
G02*
X7275000Y7062456I0J-267544D01*
G01*
X7275000Y6072544D01*
G75*
G02*
X7007456Y5805000I-267544J0D01*
G01*
G37*
%TD*%
%TO.C,R2*%
G36*
G01*
X9547456Y5805000D02*
X8232544Y5805000D01*
G75*
G02*
X7965000Y6072544I0J267544D01*
G01*
X7965000Y7062456D01*
G75*
G02*
X8232544Y7330000I267544J0D01*
G01*
X9547456Y7330000D01*
G75*
G02*
X9815000Y7062456I0J-267544D01*
G01*
X9815000Y6072544D01*
G75*
G02*
X9547456Y5805000I-267544J0D01*
G01*
G37*
G36*
G01*
X9547456Y2830000D02*
X8232544Y2830000D01*
G75*
G02*
X7965000Y3097544I0J267544D01*
G01*
X7965000Y4087456D01*
G75*
G02*
X8232544Y4355000I267544J0D01*
G01*
X9547456Y4355000D01*
G75*
G02*
X9815000Y4087456I0J-267544D01*
G01*
X9815000Y3097544D01*
G75*
G02*
X9547456Y2830000I-267544J0D01*
G01*
G37*
%TD*%
%TO.C,R3*%
G36*
G01*
X12087456Y2830000D02*
X10772544Y2830000D01*
G75*
G02*
X10505000Y3097544I0J267544D01*
G01*
X10505000Y4087456D01*
G75*
G02*
X10772544Y4355000I267544J0D01*
G01*
X12087456Y4355000D01*
G75*
G02*
X12355000Y4087456I0J-267544D01*
G01*
X12355000Y3097544D01*
G75*
G02*
X12087456Y2830000I-267544J0D01*
G01*
G37*
G36*
G01*
X12087456Y5805000D02*
X10772544Y5805000D01*
G75*
G02*
X10505000Y6072544I0J267544D01*
G01*
X10505000Y7062456D01*
G75*
G02*
X10772544Y7330000I267544J0D01*
G01*
X12087456Y7330000D01*
G75*
G02*
X12355000Y7062456I0J-267544D01*
G01*
X12355000Y6072544D01*
G75*
G02*
X12087456Y5805000I-267544J0D01*
G01*
G37*
%TD*%
%TO.C,R4*%
G36*
G01*
X14627456Y5805000D02*
X13312544Y5805000D01*
G75*
G02*
X13045000Y6072544I0J267544D01*
G01*
X13045000Y7062456D01*
G75*
G02*
X13312544Y7330000I267544J0D01*
G01*
X14627456Y7330000D01*
G75*
G02*
X14895000Y7062456I0J-267544D01*
G01*
X14895000Y6072544D01*
G75*
G02*
X14627456Y5805000I-267544J0D01*
G01*
G37*
G36*
G01*
X14627456Y2830000D02*
X13312544Y2830000D01*
G75*
G02*
X13045000Y3097544I0J267544D01*
G01*
X13045000Y4087456D01*
G75*
G02*
X13312544Y4355000I267544J0D01*
G01*
X14627456Y4355000D01*
G75*
G02*
X14895000Y4087456I0J-267544D01*
G01*
X14895000Y3097544D01*
G75*
G02*
X14627456Y2830000I-267544J0D01*
G01*
G37*
%TD*%
%TO.C,R5*%
G36*
G01*
X17167456Y2830000D02*
X15852544Y2830000D01*
G75*
G02*
X15585000Y3097544I0J267544D01*
G01*
X15585000Y4087456D01*
G75*
G02*
X15852544Y4355000I267544J0D01*
G01*
X17167456Y4355000D01*
G75*
G02*
X17435000Y4087456I0J-267544D01*
G01*
X17435000Y3097544D01*
G75*
G02*
X17167456Y2830000I-267544J0D01*
G01*
G37*
G36*
G01*
X17167456Y5805000D02*
X15852544Y5805000D01*
G75*
G02*
X15585000Y6072544I0J267544D01*
G01*
X15585000Y7062456D01*
G75*
G02*
X15852544Y7330000I267544J0D01*
G01*
X17167456Y7330000D01*
G75*
G02*
X17435000Y7062456I0J-267544D01*
G01*
X17435000Y6072544D01*
G75*
G02*
X17167456Y5805000I-267544J0D01*
G01*
G37*
%TD*%
%TO.C,R6*%
G36*
G01*
X19707456Y5805000D02*
X18392544Y5805000D01*
G75*
G02*
X18125000Y6072544I0J267544D01*
G01*
X18125000Y7062456D01*
G75*
G02*
X18392544Y7330000I267544J0D01*
G01*
X19707456Y7330000D01*
G75*
G02*
X19975000Y7062456I0J-267544D01*
G01*
X19975000Y6072544D01*
G75*
G02*
X19707456Y5805000I-267544J0D01*
G01*
G37*
G36*
G01*
X19707456Y2830000D02*
X18392544Y2830000D01*
G75*
G02*
X18125000Y3097544I0J267544D01*
G01*
X18125000Y4087456D01*
G75*
G02*
X18392544Y4355000I267544J0D01*
G01*
X19707456Y4355000D01*
G75*
G02*
X19975000Y4087456I0J-267544D01*
G01*
X19975000Y3097544D01*
G75*
G02*
X19707456Y2830000I-267544J0D01*
G01*
G37*
%TD*%
%TO.C,R7*%
G36*
G01*
X22247456Y2830000D02*
X20932544Y2830000D01*
G75*
G02*
X20665000Y3097544I0J267544D01*
G01*
X20665000Y4087456D01*
G75*
G02*
X20932544Y4355000I267544J0D01*
G01*
X22247456Y4355000D01*
G75*
G02*
X22515000Y4087456I0J-267544D01*
G01*
X22515000Y3097544D01*
G75*
G02*
X22247456Y2830000I-267544J0D01*
G01*
G37*
G36*
G01*
X22247456Y5805000D02*
X20932544Y5805000D01*
G75*
G02*
X20665000Y6072544I0J267544D01*
G01*
X20665000Y7062456D01*
G75*
G02*
X20932544Y7330000I267544J0D01*
G01*
X22247456Y7330000D01*
G75*
G02*
X22515000Y7062456I0J-267544D01*
G01*
X22515000Y6072544D01*
G75*
G02*
X22247456Y5805000I-267544J0D01*
G01*
G37*
%TD*%
M02*
