  0
SECTION
  2
HEADER
  9
$ANGBASE
  50
0.0
  9
$ANGDIR
  70
1
  9
$MEASUREMENT
  70
1
  0
ENDSEC
  0
SECTION
  2
TABLES
  0
TABLE
  2
LTYPE
  70
4
  0
LTYPE
  5
40F
  2
CONTINUOUS
  70
0
  3
Solid line
  72
65
  73
0
  40
0.0
  0
LTYPE
  5
410
  2
DASHDOT
 70
0
  3
Dash Dot ____ _ ____ _
 72
65
 73
4
 40
2.0
 49
1.25
 49
-0.25
 49
0.25
 49
-0.25
  0
LTYPE
  5
411
  2
DASHED
 70
0
  3
Dashed __ __ __ __ __
 72
65
 73
2
 40
0.75
 49
0.5
 49
-0.25
  0
LTYPE
  5
43B
  2
DOTTED
 70
0
  3
Dotted .  .  .  .
 72
65
 73
2
 40
0.2
 49
0.0
 49
-0.2
  0
ENDTAB
  0
TABLE
  2
STYLE
  70
4
  0
STYLE
  2
KICAD
  70
0
  40
0
  41
1
  42
1
  50
0
  71
0
  3
isocp.shx
  0
STYLE
  2
KICADB
  70
0
  40
0
  41
1
  42
1
  50
0
  71
0
  3
isocp.shx
  0
STYLE
  2
KICADI
  70
0
  40
0
  41
1
  42
1
  50
15
  71
0
  3
isocp.shx
  0
STYLE
  2
KICADBI
  70
0
  40
0
  41
1
  42
1
  50
15
  71
0
  3
isocp.shx
  0
ENDTAB
  0
TABLE
  2
LAYER
  70
1
  0
LAYER
  2
BLACK
  70
0
  62
7
  6
CONTINUOUS
  0
ENDTAB
  0
ENDSEC
  0
SECTION
  2
ENTITIES
0
LINE
8
BLACK
6
CONTINUOUS
10
22.2638
20
4.3002
11
22.3107
21
4.28597
0
LINE
8
BLACK
6
CONTINUOUS
10
22.3107
20
4.28597
11
22.3539
21
4.26287
0
LINE
8
BLACK
6
CONTINUOUS
10
22.3539
20
4.26287
11
22.3918
21
4.23178
0
LINE
8
BLACK
6
CONTINUOUS
10
22.3918
20
4.23178
11
22.4229
21
4.19389
0
LINE
8
BLACK
6
CONTINUOUS
10
22.4229
20
4.19389
11
22.446
21
4.15067
0
LINE
8
BLACK
6
CONTINUOUS
10
22.446
20
4.15067
11
22.4602
21
4.10377
0
LINE
8
BLACK
6
CONTINUOUS
10
22.4602
20
4.10377
11
22.465
21
4.055
0
LINE
8
BLACK
6
CONTINUOUS
10
22.465
20
4.055
11
22.465
21
3.13
0
LINE
8
BLACK
6
CONTINUOUS
10
22.465
20
3.13
11
22.4602
21
3.08123
0
LINE
8
BLACK
6
CONTINUOUS
10
22.4602
20
3.08123
11
22.446
21
3.03433
0
LINE
8
BLACK
6
CONTINUOUS
10
22.446
20
3.03433
11
22.4229
21
2.99111
0
LINE
8
BLACK
6
CONTINUOUS
10
22.4229
20
2.99111
11
22.3918
21
2.95322
0
LINE
8
BLACK
6
CONTINUOUS
10
22.3918
20
2.95322
11
22.3539
21
2.92213
0
LINE
8
BLACK
6
CONTINUOUS
10
22.3539
20
2.92213
11
22.3107
21
2.89903
0
LINE
8
BLACK
6
CONTINUOUS
10
22.3107
20
2.89903
11
22.2638
21
2.8848
0
LINE
8
BLACK
6
CONTINUOUS
10
22.2638
20
2.8848
11
22.215
21
2.88
0
LINE
8
BLACK
6
CONTINUOUS
10
22.215
20
2.88
11
20.965
21
2.88
0
LINE
8
BLACK
6
CONTINUOUS
10
20.965
20
2.88
11
20.9162
21
2.8848
0
LINE
8
BLACK
6
CONTINUOUS
10
20.9162
20
2.8848
11
20.8693
21
2.89903
0
LINE
8
BLACK
6
CONTINUOUS
10
20.8693
20
2.89903
11
20.8261
21
2.92213
0
LINE
8
BLACK
6
CONTINUOUS
10
20.8261
20
2.92213
11
20.7882
21
2.95322
0
LINE
8
BLACK
6
CONTINUOUS
10
20.7882
20
2.95322
11
20.7571
21
2.99111
0
LINE
8
BLACK
6
CONTINUOUS
10
20.7571
20
2.99111
11
20.734
21
3.03433
0
LINE
8
BLACK
6
CONTINUOUS
10
20.734
20
3.03433
11
20.7198
21
3.08123
0
LINE
8
BLACK
6
CONTINUOUS
10
20.7198
20
3.08123
11
20.715
21
3.13
0
LINE
8
BLACK
6
CONTINUOUS
10
20.715
20
3.13
11
20.715
21
4.055
0
LINE
8
BLACK
6
CONTINUOUS
10
20.715
20
4.055
11
20.7198
21
4.10377
0
LINE
8
BLACK
6
CONTINUOUS
10
20.7198
20
4.10377
11
20.734
21
4.15067
0
LINE
8
BLACK
6
CONTINUOUS
10
20.734
20
4.15067
11
20.7571
21
4.19389
0
LINE
8
BLACK
6
CONTINUOUS
10
20.7571
20
4.19389
11
20.7882
21
4.23178
0
LINE
8
BLACK
6
CONTINUOUS
10
20.7882
20
4.23178
11
20.8261
21
4.26287
0
LINE
8
BLACK
6
CONTINUOUS
10
20.8261
20
4.26287
11
20.8693
21
4.28597
0
LINE
8
BLACK
6
CONTINUOUS
10
20.8693
20
4.28597
11
20.9162
21
4.3002
0
LINE
8
BLACK
6
CONTINUOUS
10
20.9162
20
4.3002
11
20.965
21
4.305
0
LINE
8
BLACK
6
CONTINUOUS
10
20.965
20
4.305
11
22.215
21
4.305
0
LINE
8
BLACK
6
CONTINUOUS
10
22.215
20
4.305
11
22.2638
21
4.3002
0
LINE
8
BLACK
6
CONTINUOUS
10
19.7238
20
4.3002
11
19.7707
21
4.28597
0
LINE
8
BLACK
6
CONTINUOUS
10
19.7707
20
4.28597
11
19.8139
21
4.26287
0
LINE
8
BLACK
6
CONTINUOUS
10
19.8139
20
4.26287
11
19.8518
21
4.23178
0
LINE
8
BLACK
6
CONTINUOUS
10
19.8518
20
4.23178
11
19.8829
21
4.19389
0
LINE
8
BLACK
6
CONTINUOUS
10
19.8829
20
4.19389
11
19.906
21
4.15067
0
LINE
8
BLACK
6
CONTINUOUS
10
19.906
20
4.15067
11
19.9202
21
4.10377
0
LINE
8
BLACK
6
CONTINUOUS
10
19.9202
20
4.10377
11
19.925
21
4.055
0
LINE
8
BLACK
6
CONTINUOUS
10
19.925
20
4.055
11
19.925
21
3.13
0
LINE
8
BLACK
6
CONTINUOUS
10
19.925
20
3.13
11
19.9202
21
3.08123
0
LINE
8
BLACK
6
CONTINUOUS
10
19.9202
20
3.08123
11
19.906
21
3.03433
0
LINE
8
BLACK
6
CONTINUOUS
10
19.906
20
3.03433
11
19.8829
21
2.99111
0
LINE
8
BLACK
6
CONTINUOUS
10
19.8829
20
2.99111
11
19.8518
21
2.95322
0
LINE
8
BLACK
6
CONTINUOUS
10
19.8518
20
2.95322
11
19.8139
21
2.92213
0
LINE
8
BLACK
6
CONTINUOUS
10
19.8139
20
2.92213
11
19.7707
21
2.89903
0
LINE
8
BLACK
6
CONTINUOUS
10
19.7707
20
2.89903
11
19.7238
21
2.8848
0
LINE
8
BLACK
6
CONTINUOUS
10
19.7238
20
2.8848
11
19.675
21
2.88
0
LINE
8
BLACK
6
CONTINUOUS
10
19.675
20
2.88
11
18.425
21
2.88
0
LINE
8
BLACK
6
CONTINUOUS
10
18.425
20
2.88
11
18.3762
21
2.8848
0
LINE
8
BLACK
6
CONTINUOUS
10
18.3762
20
2.8848
11
18.3293
21
2.89903
0
LINE
8
BLACK
6
CONTINUOUS
10
18.3293
20
2.89903
11
18.2861
21
2.92213
0
LINE
8
BLACK
6
CONTINUOUS
10
18.2861
20
2.92213
11
18.2482
21
2.95322
0
LINE
8
BLACK
6
CONTINUOUS
10
18.2482
20
2.95322
11
18.2171
21
2.99111
0
LINE
8
BLACK
6
CONTINUOUS
10
18.2171
20
2.99111
11
18.194
21
3.03433
0
LINE
8
BLACK
6
CONTINUOUS
10
18.194
20
3.03433
11
18.1798
21
3.08123
0
LINE
8
BLACK
6
CONTINUOUS
10
18.1798
20
3.08123
11
18.175
21
3.13
0
LINE
8
BLACK
6
CONTINUOUS
10
18.175
20
3.13
11
18.175
21
4.055
0
LINE
8
BLACK
6
CONTINUOUS
10
18.175
20
4.055
11
18.1798
21
4.10377
0
LINE
8
BLACK
6
CONTINUOUS
10
18.1798
20
4.10377
11
18.194
21
4.15067
0
LINE
8
BLACK
6
CONTINUOUS
10
18.194
20
4.15067
11
18.2171
21
4.19389
0
LINE
8
BLACK
6
CONTINUOUS
10
18.2171
20
4.19389
11
18.2482
21
4.23178
0
LINE
8
BLACK
6
CONTINUOUS
10
18.2482
20
4.23178
11
18.2861
21
4.26287
0
LINE
8
BLACK
6
CONTINUOUS
10
18.2861
20
4.26287
11
18.3293
21
4.28597
0
LINE
8
BLACK
6
CONTINUOUS
10
18.3293
20
4.28597
11
18.3762
21
4.3002
0
LINE
8
BLACK
6
CONTINUOUS
10
18.3762
20
4.3002
11
18.425
21
4.305
0
LINE
8
BLACK
6
CONTINUOUS
10
18.425
20
4.305
11
19.675
21
4.305
0
LINE
8
BLACK
6
CONTINUOUS
10
19.675
20
4.305
11
19.7238
21
4.3002
0
LINE
8
BLACK
6
CONTINUOUS
10
17.1838
20
4.3002
11
17.2307
21
4.28597
0
LINE
8
BLACK
6
CONTINUOUS
10
17.2307
20
4.28597
11
17.2739
21
4.26287
0
LINE
8
BLACK
6
CONTINUOUS
10
17.2739
20
4.26287
11
17.3118
21
4.23178
0
LINE
8
BLACK
6
CONTINUOUS
10
17.3118
20
4.23178
11
17.3429
21
4.19389
0
LINE
8
BLACK
6
CONTINUOUS
10
17.3429
20
4.19389
11
17.366
21
4.15067
0
LINE
8
BLACK
6
CONTINUOUS
10
17.366
20
4.15067
11
17.3802
21
4.10377
0
LINE
8
BLACK
6
CONTINUOUS
10
17.3802
20
4.10377
11
17.385
21
4.055
0
LINE
8
BLACK
6
CONTINUOUS
10
17.385
20
4.055
11
17.385
21
3.13
0
LINE
8
BLACK
6
CONTINUOUS
10
17.385
20
3.13
11
17.3802
21
3.08123
0
LINE
8
BLACK
6
CONTINUOUS
10
17.3802
20
3.08123
11
17.366
21
3.03433
0
LINE
8
BLACK
6
CONTINUOUS
10
17.366
20
3.03433
11
17.3429
21
2.99111
0
LINE
8
BLACK
6
CONTINUOUS
10
17.3429
20
2.99111
11
17.3118
21
2.95322
0
LINE
8
BLACK
6
CONTINUOUS
10
17.3118
20
2.95322
11
17.2739
21
2.92213
0
LINE
8
BLACK
6
CONTINUOUS
10
17.2739
20
2.92213
11
17.2307
21
2.89903
0
LINE
8
BLACK
6
CONTINUOUS
10
17.2307
20
2.89903
11
17.1838
21
2.8848
0
LINE
8
BLACK
6
CONTINUOUS
10
17.1838
20
2.8848
11
17.135
21
2.88
0
LINE
8
BLACK
6
CONTINUOUS
10
17.135
20
2.88
11
15.885
21
2.88
0
LINE
8
BLACK
6
CONTINUOUS
10
15.885
20
2.88
11
15.8362
21
2.8848
0
LINE
8
BLACK
6
CONTINUOUS
10
15.8362
20
2.8848
11
15.7893
21
2.89903
0
LINE
8
BLACK
6
CONTINUOUS
10
15.7893
20
2.89903
11
15.7461
21
2.92213
0
LINE
8
BLACK
6
CONTINUOUS
10
15.7461
20
2.92213
11
15.7082
21
2.95322
0
LINE
8
BLACK
6
CONTINUOUS
10
15.7082
20
2.95322
11
15.6771
21
2.99111
0
LINE
8
BLACK
6
CONTINUOUS
10
15.6771
20
2.99111
11
15.654
21
3.03433
0
LINE
8
BLACK
6
CONTINUOUS
10
15.654
20
3.03433
11
15.6398
21
3.08123
0
LINE
8
BLACK
6
CONTINUOUS
10
15.6398
20
3.08123
11
15.635
21
3.13
0
LINE
8
BLACK
6
CONTINUOUS
10
15.635
20
3.13
11
15.635
21
4.055
0
LINE
8
BLACK
6
CONTINUOUS
10
15.635
20
4.055
11
15.6398
21
4.10377
0
LINE
8
BLACK
6
CONTINUOUS
10
15.6398
20
4.10377
11
15.654
21
4.15067
0
LINE
8
BLACK
6
CONTINUOUS
10
15.654
20
4.15067
11
15.6771
21
4.19389
0
LINE
8
BLACK
6
CONTINUOUS
10
15.6771
20
4.19389
11
15.7082
21
4.23178
0
LINE
8
BLACK
6
CONTINUOUS
10
15.7082
20
4.23178
11
15.7461
21
4.26287
0
LINE
8
BLACK
6
CONTINUOUS
10
15.7461
20
4.26287
11
15.7893
21
4.28597
0
LINE
8
BLACK
6
CONTINUOUS
10
15.7893
20
4.28597
11
15.8362
21
4.3002
0
LINE
8
BLACK
6
CONTINUOUS
10
15.8362
20
4.3002
11
15.885
21
4.305
0
LINE
8
BLACK
6
CONTINUOUS
10
15.885
20
4.305
11
17.135
21
4.305
0
LINE
8
BLACK
6
CONTINUOUS
10
17.135
20
4.305
11
17.1838
21
4.3002
0
LINE
8
BLACK
6
CONTINUOUS
10
14.6438
20
4.3002
11
14.6907
21
4.28597
0
LINE
8
BLACK
6
CONTINUOUS
10
14.6907
20
4.28597
11
14.7339
21
4.26287
0
LINE
8
BLACK
6
CONTINUOUS
10
14.7339
20
4.26287
11
14.7718
21
4.23178
0
LINE
8
BLACK
6
CONTINUOUS
10
14.7718
20
4.23178
11
14.8029
21
4.19389
0
LINE
8
BLACK
6
CONTINUOUS
10
14.8029
20
4.19389
11
14.826
21
4.15067
0
LINE
8
BLACK
6
CONTINUOUS
10
14.826
20
4.15067
11
14.8402
21
4.10377
0
LINE
8
BLACK
6
CONTINUOUS
10
14.8402
20
4.10377
11
14.845
21
4.055
0
LINE
8
BLACK
6
CONTINUOUS
10
14.845
20
4.055
11
14.845
21
3.13
0
LINE
8
BLACK
6
CONTINUOUS
10
14.845
20
3.13
11
14.8402
21
3.08123
0
LINE
8
BLACK
6
CONTINUOUS
10
14.8402
20
3.08123
11
14.826
21
3.03433
0
LINE
8
BLACK
6
CONTINUOUS
10
14.826
20
3.03433
11
14.8029
21
2.99111
0
LINE
8
BLACK
6
CONTINUOUS
10
14.8029
20
2.99111
11
14.7718
21
2.95322
0
LINE
8
BLACK
6
CONTINUOUS
10
14.7718
20
2.95322
11
14.7339
21
2.92213
0
LINE
8
BLACK
6
CONTINUOUS
10
14.7339
20
2.92213
11
14.6907
21
2.89903
0
LINE
8
BLACK
6
CONTINUOUS
10
14.6907
20
2.89903
11
14.6438
21
2.8848
0
LINE
8
BLACK
6
CONTINUOUS
10
14.6438
20
2.8848
11
14.595
21
2.88
0
LINE
8
BLACK
6
CONTINUOUS
10
14.595
20
2.88
11
13.345
21
2.88
0
LINE
8
BLACK
6
CONTINUOUS
10
13.345
20
2.88
11
13.2962
21
2.8848
0
LINE
8
BLACK
6
CONTINUOUS
10
13.2962
20
2.8848
11
13.2493
21
2.89903
0
LINE
8
BLACK
6
CONTINUOUS
10
13.2493
20
2.89903
11
13.2061
21
2.92213
0
LINE
8
BLACK
6
CONTINUOUS
10
13.2061
20
2.92213
11
13.1682
21
2.95322
0
LINE
8
BLACK
6
CONTINUOUS
10
13.1682
20
2.95322
11
13.1371
21
2.99111
0
LINE
8
BLACK
6
CONTINUOUS
10
13.1371
20
2.99111
11
13.114
21
3.03433
0
LINE
8
BLACK
6
CONTINUOUS
10
13.114
20
3.03433
11
13.0998
21
3.08123
0
LINE
8
BLACK
6
CONTINUOUS
10
13.0998
20
3.08123
11
13.095
21
3.13
0
LINE
8
BLACK
6
CONTINUOUS
10
13.095
20
3.13
11
13.095
21
4.055
0
LINE
8
BLACK
6
CONTINUOUS
10
13.095
20
4.055
11
13.0998
21
4.10377
0
LINE
8
BLACK
6
CONTINUOUS
10
13.0998
20
4.10377
11
13.114
21
4.15067
0
LINE
8
BLACK
6
CONTINUOUS
10
13.114
20
4.15067
11
13.1371
21
4.19389
0
LINE
8
BLACK
6
CONTINUOUS
10
13.1371
20
4.19389
11
13.1682
21
4.23178
0
LINE
8
BLACK
6
CONTINUOUS
10
13.1682
20
4.23178
11
13.2061
21
4.26287
0
LINE
8
BLACK
6
CONTINUOUS
10
13.2061
20
4.26287
11
13.2493
21
4.28597
0
LINE
8
BLACK
6
CONTINUOUS
10
13.2493
20
4.28597
11
13.2962
21
4.3002
0
LINE
8
BLACK
6
CONTINUOUS
10
13.2962
20
4.3002
11
13.345
21
4.305
0
LINE
8
BLACK
6
CONTINUOUS
10
13.345
20
4.305
11
14.595
21
4.305
0
LINE
8
BLACK
6
CONTINUOUS
10
14.595
20
4.305
11
14.6438
21
4.3002
0
LINE
8
BLACK
6
CONTINUOUS
10
12.1038
20
4.3002
11
12.1507
21
4.28597
0
LINE
8
BLACK
6
CONTINUOUS
10
12.1507
20
4.28597
11
12.1939
21
4.26287
0
LINE
8
BLACK
6
CONTINUOUS
10
12.1939
20
4.26287
11
12.2318
21
4.23178
0
LINE
8
BLACK
6
CONTINUOUS
10
12.2318
20
4.23178
11
12.2629
21
4.19389
0
LINE
8
BLACK
6
CONTINUOUS
10
12.2629
20
4.19389
11
12.286
21
4.15067
0
LINE
8
BLACK
6
CONTINUOUS
10
12.286
20
4.15067
11
12.3002
21
4.10377
0
LINE
8
BLACK
6
CONTINUOUS
10
12.3002
20
4.10377
11
12.305
21
4.055
0
LINE
8
BLACK
6
CONTINUOUS
10
12.305
20
4.055
11
12.305
21
3.13
0
LINE
8
BLACK
6
CONTINUOUS
10
12.305
20
3.13
11
12.3002
21
3.08123
0
LINE
8
BLACK
6
CONTINUOUS
10
12.3002
20
3.08123
11
12.286
21
3.03433
0
LINE
8
BLACK
6
CONTINUOUS
10
12.286
20
3.03433
11
12.2629
21
2.99111
0
LINE
8
BLACK
6
CONTINUOUS
10
12.2629
20
2.99111
11
12.2318
21
2.95322
0
LINE
8
BLACK
6
CONTINUOUS
10
12.2318
20
2.95322
11
12.1939
21
2.92213
0
LINE
8
BLACK
6
CONTINUOUS
10
12.1939
20
2.92213
11
12.1507
21
2.89903
0
LINE
8
BLACK
6
CONTINUOUS
10
12.1507
20
2.89903
11
12.1038
21
2.8848
0
LINE
8
BLACK
6
CONTINUOUS
10
12.1038
20
2.8848
11
12.055
21
2.88
0
LINE
8
BLACK
6
CONTINUOUS
10
12.055
20
2.88
11
10.805
21
2.88
0
LINE
8
BLACK
6
CONTINUOUS
10
10.805
20
2.88
11
10.7562
21
2.8848
0
LINE
8
BLACK
6
CONTINUOUS
10
10.7562
20
2.8848
11
10.7093
21
2.89903
0
LINE
8
BLACK
6
CONTINUOUS
10
10.7093
20
2.89903
11
10.6661
21
2.92213
0
LINE
8
BLACK
6
CONTINUOUS
10
10.6661
20
2.92213
11
10.6282
21
2.95322
0
LINE
8
BLACK
6
CONTINUOUS
10
10.6282
20
2.95322
11
10.5971
21
2.99111
0
LINE
8
BLACK
6
CONTINUOUS
10
10.5971
20
2.99111
11
10.574
21
3.03433
0
LINE
8
BLACK
6
CONTINUOUS
10
10.574
20
3.03433
11
10.5598
21
3.08123
0
LINE
8
BLACK
6
CONTINUOUS
10
10.5598
20
3.08123
11
10.555
21
3.13
0
LINE
8
BLACK
6
CONTINUOUS
10
10.555
20
3.13
11
10.555
21
4.055
0
LINE
8
BLACK
6
CONTINUOUS
10
10.555
20
4.055
11
10.5598
21
4.10377
0
LINE
8
BLACK
6
CONTINUOUS
10
10.5598
20
4.10377
11
10.574
21
4.15067
0
LINE
8
BLACK
6
CONTINUOUS
10
10.574
20
4.15067
11
10.5971
21
4.19389
0
LINE
8
BLACK
6
CONTINUOUS
10
10.5971
20
4.19389
11
10.6282
21
4.23178
0
LINE
8
BLACK
6
CONTINUOUS
10
10.6282
20
4.23178
11
10.6661
21
4.26287
0
LINE
8
BLACK
6
CONTINUOUS
10
10.6661
20
4.26287
11
10.7093
21
4.28597
0
LINE
8
BLACK
6
CONTINUOUS
10
10.7093
20
4.28597
11
10.7562
21
4.3002
0
LINE
8
BLACK
6
CONTINUOUS
10
10.7562
20
4.3002
11
10.805
21
4.305
0
LINE
8
BLACK
6
CONTINUOUS
10
10.805
20
4.305
11
12.055
21
4.305
0
LINE
8
BLACK
6
CONTINUOUS
10
12.055
20
4.305
11
12.1038
21
4.3002
0
LINE
8
BLACK
6
CONTINUOUS
10
9.56377
20
4.3002
11
9.61067
21
4.28597
0
LINE
8
BLACK
6
CONTINUOUS
10
9.61067
20
4.28597
11
9.65389
21
4.26287
0
LINE
8
BLACK
6
CONTINUOUS
10
9.65389
20
4.26287
11
9.69178
21
4.23178
0
LINE
8
BLACK
6
CONTINUOUS
10
9.69178
20
4.23178
11
9.72287
21
4.19389
0
LINE
8
BLACK
6
CONTINUOUS
10
9.72287
20
4.19389
11
9.74597
21
4.15067
0
LINE
8
BLACK
6
CONTINUOUS
10
9.74597
20
4.15067
11
9.7602
21
4.10377
0
LINE
8
BLACK
6
CONTINUOUS
10
9.7602
20
4.10377
11
9.765
21
4.055
0
LINE
8
BLACK
6
CONTINUOUS
10
9.765
20
4.055
11
9.765
21
3.13
0
LINE
8
BLACK
6
CONTINUOUS
10
9.765
20
3.13
11
9.7602
21
3.08123
0
LINE
8
BLACK
6
CONTINUOUS
10
9.7602
20
3.08123
11
9.74597
21
3.03433
0
LINE
8
BLACK
6
CONTINUOUS
10
9.74597
20
3.03433
11
9.72287
21
2.99111
0
LINE
8
BLACK
6
CONTINUOUS
10
9.72287
20
2.99111
11
9.69178
21
2.95322
0
LINE
8
BLACK
6
CONTINUOUS
10
9.69178
20
2.95322
11
9.65389
21
2.92213
0
LINE
8
BLACK
6
CONTINUOUS
10
9.65389
20
2.92213
11
9.61067
21
2.89903
0
LINE
8
BLACK
6
CONTINUOUS
10
9.61067
20
2.89903
11
9.56377
21
2.8848
0
LINE
8
BLACK
6
CONTINUOUS
10
9.56377
20
2.8848
11
9.515
21
2.88
0
LINE
8
BLACK
6
CONTINUOUS
10
9.515
20
2.88
11
8.265
21
2.88
0
LINE
8
BLACK
6
CONTINUOUS
10
8.265
20
2.88
11
8.21623
21
2.8848
0
LINE
8
BLACK
6
CONTINUOUS
10
8.21623
20
2.8848
11
8.16933
21
2.89903
0
LINE
8
BLACK
6
CONTINUOUS
10
8.16933
20
2.89903
11
8.12611
21
2.92213
0
LINE
8
BLACK
6
CONTINUOUS
10
8.12611
20
2.92213
11
8.08822
21
2.95322
0
LINE
8
BLACK
6
CONTINUOUS
10
8.08822
20
2.95322
11
8.05713
21
2.99111
0
LINE
8
BLACK
6
CONTINUOUS
10
8.05713
20
2.99111
11
8.03403
21
3.03433
0
LINE
8
BLACK
6
CONTINUOUS
10
8.03403
20
3.03433
11
8.0198
21
3.08123
0
LINE
8
BLACK
6
CONTINUOUS
10
8.0198
20
3.08123
11
8.015
21
3.13
0
LINE
8
BLACK
6
CONTINUOUS
10
8.015
20
3.13
11
8.015
21
4.055
0
LINE
8
BLACK
6
CONTINUOUS
10
8.015
20
4.055
11
8.0198
21
4.10377
0
LINE
8
BLACK
6
CONTINUOUS
10
8.0198
20
4.10377
11
8.03403
21
4.15067
0
LINE
8
BLACK
6
CONTINUOUS
10
8.03403
20
4.15067
11
8.05713
21
4.19389
0
LINE
8
BLACK
6
CONTINUOUS
10
8.05713
20
4.19389
11
8.08822
21
4.23178
0
LINE
8
BLACK
6
CONTINUOUS
10
8.08822
20
4.23178
11
8.12611
21
4.26287
0
LINE
8
BLACK
6
CONTINUOUS
10
8.12611
20
4.26287
11
8.16933
21
4.28597
0
LINE
8
BLACK
6
CONTINUOUS
10
8.16933
20
4.28597
11
8.21623
21
4.3002
0
LINE
8
BLACK
6
CONTINUOUS
10
8.21623
20
4.3002
11
8.265
21
4.305
0
LINE
8
BLACK
6
CONTINUOUS
10
8.265
20
4.305
11
9.515
21
4.305
0
LINE
8
BLACK
6
CONTINUOUS
10
9.515
20
4.305
11
9.56377
21
4.3002
0
LINE
8
BLACK
6
CONTINUOUS
10
7.02377
20
4.3002
11
7.07067
21
4.28597
0
LINE
8
BLACK
6
CONTINUOUS
10
7.07067
20
4.28597
11
7.11389
21
4.26287
0
LINE
8
BLACK
6
CONTINUOUS
10
7.11389
20
4.26287
11
7.15178
21
4.23178
0
LINE
8
BLACK
6
CONTINUOUS
10
7.15178
20
4.23178
11
7.18287
21
4.19389
0
LINE
8
BLACK
6
CONTINUOUS
10
7.18287
20
4.19389
11
7.20597
21
4.15067
0
LINE
8
BLACK
6
CONTINUOUS
10
7.20597
20
4.15067
11
7.2202
21
4.10377
0
LINE
8
BLACK
6
CONTINUOUS
10
7.2202
20
4.10377
11
7.225
21
4.055
0
LINE
8
BLACK
6
CONTINUOUS
10
7.225
20
4.055
11
7.225
21
3.13
0
LINE
8
BLACK
6
CONTINUOUS
10
7.225
20
3.13
11
7.2202
21
3.08123
0
LINE
8
BLACK
6
CONTINUOUS
10
7.2202
20
3.08123
11
7.20597
21
3.03433
0
LINE
8
BLACK
6
CONTINUOUS
10
7.20597
20
3.03433
11
7.18287
21
2.99111
0
LINE
8
BLACK
6
CONTINUOUS
10
7.18287
20
2.99111
11
7.15178
21
2.95322
0
LINE
8
BLACK
6
CONTINUOUS
10
7.15178
20
2.95322
11
7.11389
21
2.92213
0
LINE
8
BLACK
6
CONTINUOUS
10
7.11389
20
2.92213
11
7.07067
21
2.89903
0
LINE
8
BLACK
6
CONTINUOUS
10
7.07067
20
2.89903
11
7.02377
21
2.8848
0
LINE
8
BLACK
6
CONTINUOUS
10
7.02377
20
2.8848
11
6.975
21
2.88
0
LINE
8
BLACK
6
CONTINUOUS
10
6.975
20
2.88
11
5.725
21
2.88
0
LINE
8
BLACK
6
CONTINUOUS
10
5.725
20
2.88
11
5.67623
21
2.8848
0
LINE
8
BLACK
6
CONTINUOUS
10
5.67623
20
2.8848
11
5.62933
21
2.89903
0
LINE
8
BLACK
6
CONTINUOUS
10
5.62933
20
2.89903
11
5.58611
21
2.92213
0
LINE
8
BLACK
6
CONTINUOUS
10
5.58611
20
2.92213
11
5.54822
21
2.95322
0
LINE
8
BLACK
6
CONTINUOUS
10
5.54822
20
2.95322
11
5.51713
21
2.99111
0
LINE
8
BLACK
6
CONTINUOUS
10
5.51713
20
2.99111
11
5.49403
21
3.03433
0
LINE
8
BLACK
6
CONTINUOUS
10
5.49403
20
3.03433
11
5.4798
21
3.08123
0
LINE
8
BLACK
6
CONTINUOUS
10
5.4798
20
3.08123
11
5.475
21
3.13
0
LINE
8
BLACK
6
CONTINUOUS
10
5.475
20
3.13
11
5.475
21
4.055
0
LINE
8
BLACK
6
CONTINUOUS
10
5.475
20
4.055
11
5.4798
21
4.10377
0
LINE
8
BLACK
6
CONTINUOUS
10
5.4798
20
4.10377
11
5.49403
21
4.15067
0
LINE
8
BLACK
6
CONTINUOUS
10
5.49403
20
4.15067
11
5.51713
21
4.19389
0
LINE
8
BLACK
6
CONTINUOUS
10
5.51713
20
4.19389
11
5.54822
21
4.23178
0
LINE
8
BLACK
6
CONTINUOUS
10
5.54822
20
4.23178
11
5.58611
21
4.26287
0
LINE
8
BLACK
6
CONTINUOUS
10
5.58611
20
4.26287
11
5.62933
21
4.28597
0
LINE
8
BLACK
6
CONTINUOUS
10
5.62933
20
4.28597
11
5.67623
21
4.3002
0
LINE
8
BLACK
6
CONTINUOUS
10
5.67623
20
4.3002
11
5.725
21
4.305
0
LINE
8
BLACK
6
CONTINUOUS
10
5.725
20
4.305
11
6.975
21
4.305
0
LINE
8
BLACK
6
CONTINUOUS
10
6.975
20
4.305
11
7.02377
21
4.3002
0
LINE
8
BLACK
6
CONTINUOUS
10
22.2638
20
7.2752
11
22.3107
21
7.26097
0
LINE
8
BLACK
6
CONTINUOUS
10
22.3107
20
7.26097
11
22.3539
21
7.23787
0
LINE
8
BLACK
6
CONTINUOUS
10
22.3539
20
7.23787
11
22.3918
21
7.20678
0
LINE
8
BLACK
6
CONTINUOUS
10
22.3918
20
7.20678
11
22.4229
21
7.16889
0
LINE
8
BLACK
6
CONTINUOUS
10
22.4229
20
7.16889
11
22.446
21
7.12567
0
LINE
8
BLACK
6
CONTINUOUS
10
22.446
20
7.12567
11
22.4602
21
7.07877
0
LINE
8
BLACK
6
CONTINUOUS
10
22.4602
20
7.07877
11
22.465
21
7.03
0
LINE
8
BLACK
6
CONTINUOUS
10
22.465
20
7.03
11
22.465
21
6.105
0
LINE
8
BLACK
6
CONTINUOUS
10
22.465
20
6.105
11
22.4602
21
6.05623
0
LINE
8
BLACK
6
CONTINUOUS
10
22.4602
20
6.05623
11
22.446
21
6.00933
0
LINE
8
BLACK
6
CONTINUOUS
10
22.446
20
6.00933
11
22.4229
21
5.96611
0
LINE
8
BLACK
6
CONTINUOUS
10
22.4229
20
5.96611
11
22.3918
21
5.92822
0
LINE
8
BLACK
6
CONTINUOUS
10
22.3918
20
5.92822
11
22.3539
21
5.89713
0
LINE
8
BLACK
6
CONTINUOUS
10
22.3539
20
5.89713
11
22.3107
21
5.87403
0
LINE
8
BLACK
6
CONTINUOUS
10
22.3107
20
5.87403
11
22.2638
21
5.8598
0
LINE
8
BLACK
6
CONTINUOUS
10
22.2638
20
5.8598
11
22.215
21
5.855
0
LINE
8
BLACK
6
CONTINUOUS
10
22.215
20
5.855
11
20.965
21
5.855
0
LINE
8
BLACK
6
CONTINUOUS
10
20.965
20
5.855
11
20.9162
21
5.8598
0
LINE
8
BLACK
6
CONTINUOUS
10
20.9162
20
5.8598
11
20.8693
21
5.87403
0
LINE
8
BLACK
6
CONTINUOUS
10
20.8693
20
5.87403
11
20.8261
21
5.89713
0
LINE
8
BLACK
6
CONTINUOUS
10
20.8261
20
5.89713
11
20.7882
21
5.92822
0
LINE
8
BLACK
6
CONTINUOUS
10
20.7882
20
5.92822
11
20.7571
21
5.96611
0
LINE
8
BLACK
6
CONTINUOUS
10
20.7571
20
5.96611
11
20.734
21
6.00933
0
LINE
8
BLACK
6
CONTINUOUS
10
20.734
20
6.00933
11
20.7198
21
6.05623
0
LINE
8
BLACK
6
CONTINUOUS
10
20.7198
20
6.05623
11
20.715
21
6.105
0
LINE
8
BLACK
6
CONTINUOUS
10
20.715
20
6.105
11
20.715
21
7.03
0
LINE
8
BLACK
6
CONTINUOUS
10
20.715
20
7.03
11
20.7198
21
7.07877
0
LINE
8
BLACK
6
CONTINUOUS
10
20.7198
20
7.07877
11
20.734
21
7.12567
0
LINE
8
BLACK
6
CONTINUOUS
10
20.734
20
7.12567
11
20.7571
21
7.16889
0
LINE
8
BLACK
6
CONTINUOUS
10
20.7571
20
7.16889
11
20.7882
21
7.20678
0
LINE
8
BLACK
6
CONTINUOUS
10
20.7882
20
7.20678
11
20.8261
21
7.23787
0
LINE
8
BLACK
6
CONTINUOUS
10
20.8261
20
7.23787
11
20.8693
21
7.26097
0
LINE
8
BLACK
6
CONTINUOUS
10
20.8693
20
7.26097
11
20.9162
21
7.2752
0
LINE
8
BLACK
6
CONTINUOUS
10
20.9162
20
7.2752
11
20.965
21
7.28
0
LINE
8
BLACK
6
CONTINUOUS
10
20.965
20
7.28
11
22.215
21
7.28
0
LINE
8
BLACK
6
CONTINUOUS
10
22.215
20
7.28
11
22.2638
21
7.2752
0
LINE
8
BLACK
6
CONTINUOUS
10
19.7238
20
7.2752
11
19.7707
21
7.26097
0
LINE
8
BLACK
6
CONTINUOUS
10
19.7707
20
7.26097
11
19.8139
21
7.23787
0
LINE
8
BLACK
6
CONTINUOUS
10
19.8139
20
7.23787
11
19.8518
21
7.20678
0
LINE
8
BLACK
6
CONTINUOUS
10
19.8518
20
7.20678
11
19.8829
21
7.16889
0
LINE
8
BLACK
6
CONTINUOUS
10
19.8829
20
7.16889
11
19.906
21
7.12567
0
LINE
8
BLACK
6
CONTINUOUS
10
19.906
20
7.12567
11
19.9202
21
7.07877
0
LINE
8
BLACK
6
CONTINUOUS
10
19.9202
20
7.07877
11
19.925
21
7.03
0
LINE
8
BLACK
6
CONTINUOUS
10
19.925
20
7.03
11
19.925
21
6.105
0
LINE
8
BLACK
6
CONTINUOUS
10
19.925
20
6.105
11
19.9202
21
6.05623
0
LINE
8
BLACK
6
CONTINUOUS
10
19.9202
20
6.05623
11
19.906
21
6.00933
0
LINE
8
BLACK
6
CONTINUOUS
10
19.906
20
6.00933
11
19.8829
21
5.96611
0
LINE
8
BLACK
6
CONTINUOUS
10
19.8829
20
5.96611
11
19.8518
21
5.92822
0
LINE
8
BLACK
6
CONTINUOUS
10
19.8518
20
5.92822
11
19.8139
21
5.89713
0
LINE
8
BLACK
6
CONTINUOUS
10
19.8139
20
5.89713
11
19.7707
21
5.87403
0
LINE
8
BLACK
6
CONTINUOUS
10
19.7707
20
5.87403
11
19.7238
21
5.8598
0
LINE
8
BLACK
6
CONTINUOUS
10
19.7238
20
5.8598
11
19.675
21
5.855
0
LINE
8
BLACK
6
CONTINUOUS
10
19.675
20
5.855
11
18.425
21
5.855
0
LINE
8
BLACK
6
CONTINUOUS
10
18.425
20
5.855
11
18.3762
21
5.8598
0
LINE
8
BLACK
6
CONTINUOUS
10
18.3762
20
5.8598
11
18.3293
21
5.87403
0
LINE
8
BLACK
6
CONTINUOUS
10
18.3293
20
5.87403
11
18.2861
21
5.89713
0
LINE
8
BLACK
6
CONTINUOUS
10
18.2861
20
5.89713
11
18.2482
21
5.92822
0
LINE
8
BLACK
6
CONTINUOUS
10
18.2482
20
5.92822
11
18.2171
21
5.96611
0
LINE
8
BLACK
6
CONTINUOUS
10
18.2171
20
5.96611
11
18.194
21
6.00933
0
LINE
8
BLACK
6
CONTINUOUS
10
18.194
20
6.00933
11
18.1798
21
6.05623
0
LINE
8
BLACK
6
CONTINUOUS
10
18.1798
20
6.05623
11
18.175
21
6.105
0
LINE
8
BLACK
6
CONTINUOUS
10
18.175
20
6.105
11
18.175
21
7.03
0
LINE
8
BLACK
6
CONTINUOUS
10
18.175
20
7.03
11
18.1798
21
7.07877
0
LINE
8
BLACK
6
CONTINUOUS
10
18.1798
20
7.07877
11
18.194
21
7.12567
0
LINE
8
BLACK
6
CONTINUOUS
10
18.194
20
7.12567
11
18.2171
21
7.16889
0
LINE
8
BLACK
6
CONTINUOUS
10
18.2171
20
7.16889
11
18.2482
21
7.20678
0
LINE
8
BLACK
6
CONTINUOUS
10
18.2482
20
7.20678
11
18.2861
21
7.23787
0
LINE
8
BLACK
6
CONTINUOUS
10
18.2861
20
7.23787
11
18.3293
21
7.26097
0
LINE
8
BLACK
6
CONTINUOUS
10
18.3293
20
7.26097
11
18.3762
21
7.2752
0
LINE
8
BLACK
6
CONTINUOUS
10
18.3762
20
7.2752
11
18.425
21
7.28
0
LINE
8
BLACK
6
CONTINUOUS
10
18.425
20
7.28
11
19.675
21
7.28
0
LINE
8
BLACK
6
CONTINUOUS
10
19.675
20
7.28
11
19.7238
21
7.2752
0
LINE
8
BLACK
6
CONTINUOUS
10
17.1838
20
7.2752
11
17.2307
21
7.26097
0
LINE
8
BLACK
6
CONTINUOUS
10
17.2307
20
7.26097
11
17.2739
21
7.23787
0
LINE
8
BLACK
6
CONTINUOUS
10
17.2739
20
7.23787
11
17.3118
21
7.20678
0
LINE
8
BLACK
6
CONTINUOUS
10
17.3118
20
7.20678
11
17.3429
21
7.16889
0
LINE
8
BLACK
6
CONTINUOUS
10
17.3429
20
7.16889
11
17.366
21
7.12567
0
LINE
8
BLACK
6
CONTINUOUS
10
17.366
20
7.12567
11
17.3802
21
7.07877
0
LINE
8
BLACK
6
CONTINUOUS
10
17.3802
20
7.07877
11
17.385
21
7.03
0
LINE
8
BLACK
6
CONTINUOUS
10
17.385
20
7.03
11
17.385
21
6.105
0
LINE
8
BLACK
6
CONTINUOUS
10
17.385
20
6.105
11
17.3802
21
6.05623
0
LINE
8
BLACK
6
CONTINUOUS
10
17.3802
20
6.05623
11
17.366
21
6.00933
0
LINE
8
BLACK
6
CONTINUOUS
10
17.366
20
6.00933
11
17.3429
21
5.96611
0
LINE
8
BLACK
6
CONTINUOUS
10
17.3429
20
5.96611
11
17.3118
21
5.92822
0
LINE
8
BLACK
6
CONTINUOUS
10
17.3118
20
5.92822
11
17.2739
21
5.89713
0
LINE
8
BLACK
6
CONTINUOUS
10
17.2739
20
5.89713
11
17.2307
21
5.87403
0
LINE
8
BLACK
6
CONTINUOUS
10
17.2307
20
5.87403
11
17.1838
21
5.8598
0
LINE
8
BLACK
6
CONTINUOUS
10
17.1838
20
5.8598
11
17.135
21
5.855
0
LINE
8
BLACK
6
CONTINUOUS
10
17.135
20
5.855
11
15.885
21
5.855
0
LINE
8
BLACK
6
CONTINUOUS
10
15.885
20
5.855
11
15.8362
21
5.8598
0
LINE
8
BLACK
6
CONTINUOUS
10
15.8362
20
5.8598
11
15.7893
21
5.87403
0
LINE
8
BLACK
6
CONTINUOUS
10
15.7893
20
5.87403
11
15.7461
21
5.89713
0
LINE
8
BLACK
6
CONTINUOUS
10
15.7461
20
5.89713
11
15.7082
21
5.92822
0
LINE
8
BLACK
6
CONTINUOUS
10
15.7082
20
5.92822
11
15.6771
21
5.96611
0
LINE
8
BLACK
6
CONTINUOUS
10
15.6771
20
5.96611
11
15.654
21
6.00933
0
LINE
8
BLACK
6
CONTINUOUS
10
15.654
20
6.00933
11
15.6398
21
6.05623
0
LINE
8
BLACK
6
CONTINUOUS
10
15.6398
20
6.05623
11
15.635
21
6.105
0
LINE
8
BLACK
6
CONTINUOUS
10
15.635
20
6.105
11
15.635
21
7.03
0
LINE
8
BLACK
6
CONTINUOUS
10
15.635
20
7.03
11
15.6398
21
7.07877
0
LINE
8
BLACK
6
CONTINUOUS
10
15.6398
20
7.07877
11
15.654
21
7.12567
0
LINE
8
BLACK
6
CONTINUOUS
10
15.654
20
7.12567
11
15.6771
21
7.16889
0
LINE
8
BLACK
6
CONTINUOUS
10
15.6771
20
7.16889
11
15.7082
21
7.20678
0
LINE
8
BLACK
6
CONTINUOUS
10
15.7082
20
7.20678
11
15.7461
21
7.23787
0
LINE
8
BLACK
6
CONTINUOUS
10
15.7461
20
7.23787
11
15.7893
21
7.26097
0
LINE
8
BLACK
6
CONTINUOUS
10
15.7893
20
7.26097
11
15.8362
21
7.2752
0
LINE
8
BLACK
6
CONTINUOUS
10
15.8362
20
7.2752
11
15.885
21
7.28
0
LINE
8
BLACK
6
CONTINUOUS
10
15.885
20
7.28
11
17.135
21
7.28
0
LINE
8
BLACK
6
CONTINUOUS
10
17.135
20
7.28
11
17.1838
21
7.2752
0
LINE
8
BLACK
6
CONTINUOUS
10
14.6438
20
7.2752
11
14.6907
21
7.26097
0
LINE
8
BLACK
6
CONTINUOUS
10
14.6907
20
7.26097
11
14.7339
21
7.23787
0
LINE
8
BLACK
6
CONTINUOUS
10
14.7339
20
7.23787
11
14.7718
21
7.20678
0
LINE
8
BLACK
6
CONTINUOUS
10
14.7718
20
7.20678
11
14.8029
21
7.16889
0
LINE
8
BLACK
6
CONTINUOUS
10
14.8029
20
7.16889
11
14.826
21
7.12567
0
LINE
8
BLACK
6
CONTINUOUS
10
14.826
20
7.12567
11
14.8402
21
7.07877
0
LINE
8
BLACK
6
CONTINUOUS
10
14.8402
20
7.07877
11
14.845
21
7.03
0
LINE
8
BLACK
6
CONTINUOUS
10
14.845
20
7.03
11
14.845
21
6.105
0
LINE
8
BLACK
6
CONTINUOUS
10
14.845
20
6.105
11
14.8402
21
6.05623
0
LINE
8
BLACK
6
CONTINUOUS
10
14.8402
20
6.05623
11
14.826
21
6.00933
0
LINE
8
BLACK
6
CONTINUOUS
10
14.826
20
6.00933
11
14.8029
21
5.96611
0
LINE
8
BLACK
6
CONTINUOUS
10
14.8029
20
5.96611
11
14.7718
21
5.92822
0
LINE
8
BLACK
6
CONTINUOUS
10
14.7718
20
5.92822
11
14.7339
21
5.89713
0
LINE
8
BLACK
6
CONTINUOUS
10
14.7339
20
5.89713
11
14.6907
21
5.87403
0
LINE
8
BLACK
6
CONTINUOUS
10
14.6907
20
5.87403
11
14.6438
21
5.8598
0
LINE
8
BLACK
6
CONTINUOUS
10
14.6438
20
5.8598
11
14.595
21
5.855
0
LINE
8
BLACK
6
CONTINUOUS
10
14.595
20
5.855
11
13.345
21
5.855
0
LINE
8
BLACK
6
CONTINUOUS
10
13.345
20
5.855
11
13.2962
21
5.8598
0
LINE
8
BLACK
6
CONTINUOUS
10
13.2962
20
5.8598
11
13.2493
21
5.87403
0
LINE
8
BLACK
6
CONTINUOUS
10
13.2493
20
5.87403
11
13.2061
21
5.89713
0
LINE
8
BLACK
6
CONTINUOUS
10
13.2061
20
5.89713
11
13.1682
21
5.92822
0
LINE
8
BLACK
6
CONTINUOUS
10
13.1682
20
5.92822
11
13.1371
21
5.96611
0
LINE
8
BLACK
6
CONTINUOUS
10
13.1371
20
5.96611
11
13.114
21
6.00933
0
LINE
8
BLACK
6
CONTINUOUS
10
13.114
20
6.00933
11
13.0998
21
6.05623
0
LINE
8
BLACK
6
CONTINUOUS
10
13.0998
20
6.05623
11
13.095
21
6.105
0
LINE
8
BLACK
6
CONTINUOUS
10
13.095
20
6.105
11
13.095
21
7.03
0
LINE
8
BLACK
6
CONTINUOUS
10
13.095
20
7.03
11
13.0998
21
7.07877
0
LINE
8
BLACK
6
CONTINUOUS
10
13.0998
20
7.07877
11
13.114
21
7.12567
0
LINE
8
BLACK
6
CONTINUOUS
10
13.114
20
7.12567
11
13.1371
21
7.16889
0
LINE
8
BLACK
6
CONTINUOUS
10
13.1371
20
7.16889
11
13.1682
21
7.20678
0
LINE
8
BLACK
6
CONTINUOUS
10
13.1682
20
7.20678
11
13.2061
21
7.23787
0
LINE
8
BLACK
6
CONTINUOUS
10
13.2061
20
7.23787
11
13.2493
21
7.26097
0
LINE
8
BLACK
6
CONTINUOUS
10
13.2493
20
7.26097
11
13.2962
21
7.2752
0
LINE
8
BLACK
6
CONTINUOUS
10
13.2962
20
7.2752
11
13.345
21
7.28
0
LINE
8
BLACK
6
CONTINUOUS
10
13.345
20
7.28
11
14.595
21
7.28
0
LINE
8
BLACK
6
CONTINUOUS
10
14.595
20
7.28
11
14.6438
21
7.2752
0
LINE
8
BLACK
6
CONTINUOUS
10
12.1038
20
7.2752
11
12.1507
21
7.26097
0
LINE
8
BLACK
6
CONTINUOUS
10
12.1507
20
7.26097
11
12.1939
21
7.23787
0
LINE
8
BLACK
6
CONTINUOUS
10
12.1939
20
7.23787
11
12.2318
21
7.20678
0
LINE
8
BLACK
6
CONTINUOUS
10
12.2318
20
7.20678
11
12.2629
21
7.16889
0
LINE
8
BLACK
6
CONTINUOUS
10
12.2629
20
7.16889
11
12.286
21
7.12567
0
LINE
8
BLACK
6
CONTINUOUS
10
12.286
20
7.12567
11
12.3002
21
7.07877
0
LINE
8
BLACK
6
CONTINUOUS
10
12.3002
20
7.07877
11
12.305
21
7.03
0
LINE
8
BLACK
6
CONTINUOUS
10
12.305
20
7.03
11
12.305
21
6.105
0
LINE
8
BLACK
6
CONTINUOUS
10
12.305
20
6.105
11
12.3002
21
6.05623
0
LINE
8
BLACK
6
CONTINUOUS
10
12.3002
20
6.05623
11
12.286
21
6.00933
0
LINE
8
BLACK
6
CONTINUOUS
10
12.286
20
6.00933
11
12.2629
21
5.96611
0
LINE
8
BLACK
6
CONTINUOUS
10
12.2629
20
5.96611
11
12.2318
21
5.92822
0
LINE
8
BLACK
6
CONTINUOUS
10
12.2318
20
5.92822
11
12.1939
21
5.89713
0
LINE
8
BLACK
6
CONTINUOUS
10
12.1939
20
5.89713
11
12.1507
21
5.87403
0
LINE
8
BLACK
6
CONTINUOUS
10
12.1507
20
5.87403
11
12.1038
21
5.8598
0
LINE
8
BLACK
6
CONTINUOUS
10
12.1038
20
5.8598
11
12.055
21
5.855
0
LINE
8
BLACK
6
CONTINUOUS
10
12.055
20
5.855
11
10.805
21
5.855
0
LINE
8
BLACK
6
CONTINUOUS
10
10.805
20
5.855
11
10.7562
21
5.8598
0
LINE
8
BLACK
6
CONTINUOUS
10
10.7562
20
5.8598
11
10.7093
21
5.87403
0
LINE
8
BLACK
6
CONTINUOUS
10
10.7093
20
5.87403
11
10.6661
21
5.89713
0
LINE
8
BLACK
6
CONTINUOUS
10
10.6661
20
5.89713
11
10.6282
21
5.92822
0
LINE
8
BLACK
6
CONTINUOUS
10
10.6282
20
5.92822
11
10.5971
21
5.96611
0
LINE
8
BLACK
6
CONTINUOUS
10
10.5971
20
5.96611
11
10.574
21
6.00933
0
LINE
8
BLACK
6
CONTINUOUS
10
10.574
20
6.00933
11
10.5598
21
6.05623
0
LINE
8
BLACK
6
CONTINUOUS
10
10.5598
20
6.05623
11
10.555
21
6.105
0
LINE
8
BLACK
6
CONTINUOUS
10
10.555
20
6.105
11
10.555
21
7.03
0
LINE
8
BLACK
6
CONTINUOUS
10
10.555
20
7.03
11
10.5598
21
7.07877
0
LINE
8
BLACK
6
CONTINUOUS
10
10.5598
20
7.07877
11
10.574
21
7.12567
0
LINE
8
BLACK
6
CONTINUOUS
10
10.574
20
7.12567
11
10.5971
21
7.16889
0
LINE
8
BLACK
6
CONTINUOUS
10
10.5971
20
7.16889
11
10.6282
21
7.20678
0
LINE
8
BLACK
6
CONTINUOUS
10
10.6282
20
7.20678
11
10.6661
21
7.23787
0
LINE
8
BLACK
6
CONTINUOUS
10
10.6661
20
7.23787
11
10.7093
21
7.26097
0
LINE
8
BLACK
6
CONTINUOUS
10
10.7093
20
7.26097
11
10.7562
21
7.2752
0
LINE
8
BLACK
6
CONTINUOUS
10
10.7562
20
7.2752
11
10.805
21
7.28
0
LINE
8
BLACK
6
CONTINUOUS
10
10.805
20
7.28
11
12.055
21
7.28
0
LINE
8
BLACK
6
CONTINUOUS
10
12.055
20
7.28
11
12.1038
21
7.2752
0
LINE
8
BLACK
6
CONTINUOUS
10
9.56377
20
7.2752
11
9.61067
21
7.26097
0
LINE
8
BLACK
6
CONTINUOUS
10
9.61067
20
7.26097
11
9.65389
21
7.23787
0
LINE
8
BLACK
6
CONTINUOUS
10
9.65389
20
7.23787
11
9.69178
21
7.20678
0
LINE
8
BLACK
6
CONTINUOUS
10
9.69178
20
7.20678
11
9.72287
21
7.16889
0
LINE
8
BLACK
6
CONTINUOUS
10
9.72287
20
7.16889
11
9.74597
21
7.12567
0
LINE
8
BLACK
6
CONTINUOUS
10
9.74597
20
7.12567
11
9.7602
21
7.07877
0
LINE
8
BLACK
6
CONTINUOUS
10
9.7602
20
7.07877
11
9.765
21
7.03
0
LINE
8
BLACK
6
CONTINUOUS
10
9.765
20
7.03
11
9.765
21
6.105
0
LINE
8
BLACK
6
CONTINUOUS
10
9.765
20
6.105
11
9.7602
21
6.05623
0
LINE
8
BLACK
6
CONTINUOUS
10
9.7602
20
6.05623
11
9.74597
21
6.00933
0
LINE
8
BLACK
6
CONTINUOUS
10
9.74597
20
6.00933
11
9.72287
21
5.96611
0
LINE
8
BLACK
6
CONTINUOUS
10
9.72287
20
5.96611
11
9.69178
21
5.92822
0
LINE
8
BLACK
6
CONTINUOUS
10
9.69178
20
5.92822
11
9.65389
21
5.89713
0
LINE
8
BLACK
6
CONTINUOUS
10
9.65389
20
5.89713
11
9.61067
21
5.87403
0
LINE
8
BLACK
6
CONTINUOUS
10
9.61067
20
5.87403
11
9.56377
21
5.8598
0
LINE
8
BLACK
6
CONTINUOUS
10
9.56377
20
5.8598
11
9.515
21
5.855
0
LINE
8
BLACK
6
CONTINUOUS
10
9.515
20
5.855
11
8.265
21
5.855
0
LINE
8
BLACK
6
CONTINUOUS
10
8.265
20
5.855
11
8.21623
21
5.8598
0
LINE
8
BLACK
6
CONTINUOUS
10
8.21623
20
5.8598
11
8.16933
21
5.87403
0
LINE
8
BLACK
6
CONTINUOUS
10
8.16933
20
5.87403
11
8.12611
21
5.89713
0
LINE
8
BLACK
6
CONTINUOUS
10
8.12611
20
5.89713
11
8.08822
21
5.92822
0
LINE
8
BLACK
6
CONTINUOUS
10
8.08822
20
5.92822
11
8.05713
21
5.96611
0
LINE
8
BLACK
6
CONTINUOUS
10
8.05713
20
5.96611
11
8.03403
21
6.00933
0
LINE
8
BLACK
6
CONTINUOUS
10
8.03403
20
6.00933
11
8.0198
21
6.05623
0
LINE
8
BLACK
6
CONTINUOUS
10
8.0198
20
6.05623
11
8.015
21
6.105
0
LINE
8
BLACK
6
CONTINUOUS
10
8.015
20
6.105
11
8.015
21
7.03
0
LINE
8
BLACK
6
CONTINUOUS
10
8.015
20
7.03
11
8.0198
21
7.07877
0
LINE
8
BLACK
6
CONTINUOUS
10
8.0198
20
7.07877
11
8.03403
21
7.12567
0
LINE
8
BLACK
6
CONTINUOUS
10
8.03403
20
7.12567
11
8.05713
21
7.16889
0
LINE
8
BLACK
6
CONTINUOUS
10
8.05713
20
7.16889
11
8.08822
21
7.20678
0
LINE
8
BLACK
6
CONTINUOUS
10
8.08822
20
7.20678
11
8.12611
21
7.23787
0
LINE
8
BLACK
6
CONTINUOUS
10
8.12611
20
7.23787
11
8.16933
21
7.26097
0
LINE
8
BLACK
6
CONTINUOUS
10
8.16933
20
7.26097
11
8.21623
21
7.2752
0
LINE
8
BLACK
6
CONTINUOUS
10
8.21623
20
7.2752
11
8.265
21
7.28
0
LINE
8
BLACK
6
CONTINUOUS
10
8.265
20
7.28
11
9.515
21
7.28
0
LINE
8
BLACK
6
CONTINUOUS
10
9.515
20
7.28
11
9.56377
21
7.2752
0
LINE
8
BLACK
6
CONTINUOUS
10
7.02377
20
7.2752
11
7.07067
21
7.26097
0
LINE
8
BLACK
6
CONTINUOUS
10
7.07067
20
7.26097
11
7.11389
21
7.23787
0
LINE
8
BLACK
6
CONTINUOUS
10
7.11389
20
7.23787
11
7.15178
21
7.20678
0
LINE
8
BLACK
6
CONTINUOUS
10
7.15178
20
7.20678
11
7.18287
21
7.16889
0
LINE
8
BLACK
6
CONTINUOUS
10
7.18287
20
7.16889
11
7.20597
21
7.12567
0
LINE
8
BLACK
6
CONTINUOUS
10
7.20597
20
7.12567
11
7.2202
21
7.07877
0
LINE
8
BLACK
6
CONTINUOUS
10
7.2202
20
7.07877
11
7.225
21
7.03
0
LINE
8
BLACK
6
CONTINUOUS
10
7.225
20
7.03
11
7.225
21
6.105
0
LINE
8
BLACK
6
CONTINUOUS
10
7.225
20
6.105
11
7.2202
21
6.05623
0
LINE
8
BLACK
6
CONTINUOUS
10
7.2202
20
6.05623
11
7.20597
21
6.00933
0
LINE
8
BLACK
6
CONTINUOUS
10
7.20597
20
6.00933
11
7.18287
21
5.96611
0
LINE
8
BLACK
6
CONTINUOUS
10
7.18287
20
5.96611
11
7.15178
21
5.92822
0
LINE
8
BLACK
6
CONTINUOUS
10
7.15178
20
5.92822
11
7.11389
21
5.89713
0
LINE
8
BLACK
6
CONTINUOUS
10
7.11389
20
5.89713
11
7.07067
21
5.87403
0
LINE
8
BLACK
6
CONTINUOUS
10
7.07067
20
5.87403
11
7.02377
21
5.8598
0
LINE
8
BLACK
6
CONTINUOUS
10
7.02377
20
5.8598
11
6.975
21
5.855
0
LINE
8
BLACK
6
CONTINUOUS
10
6.975
20
5.855
11
5.725
21
5.855
0
LINE
8
BLACK
6
CONTINUOUS
10
5.725
20
5.855
11
5.67623
21
5.8598
0
LINE
8
BLACK
6
CONTINUOUS
10
5.67623
20
5.8598
11
5.62933
21
5.87403
0
LINE
8
BLACK
6
CONTINUOUS
10
5.62933
20
5.87403
11
5.58611
21
5.89713
0
LINE
8
BLACK
6
CONTINUOUS
10
5.58611
20
5.89713
11
5.54822
21
5.92822
0
LINE
8
BLACK
6
CONTINUOUS
10
5.54822
20
5.92822
11
5.51713
21
5.96611
0
LINE
8
BLACK
6
CONTINUOUS
10
5.51713
20
5.96611
11
5.49403
21
6.00933
0
LINE
8
BLACK
6
CONTINUOUS
10
5.49403
20
6.00933
11
5.4798
21
6.05623
0
LINE
8
BLACK
6
CONTINUOUS
10
5.4798
20
6.05623
11
5.475
21
6.105
0
LINE
8
BLACK
6
CONTINUOUS
10
5.475
20
6.105
11
5.475
21
7.03
0
LINE
8
BLACK
6
CONTINUOUS
10
5.475
20
7.03
11
5.4798
21
7.07877
0
LINE
8
BLACK
6
CONTINUOUS
10
5.4798
20
7.07877
11
5.49403
21
7.12567
0
LINE
8
BLACK
6
CONTINUOUS
10
5.49403
20
7.12567
11
5.51713
21
7.16889
0
LINE
8
BLACK
6
CONTINUOUS
10
5.51713
20
7.16889
11
5.54822
21
7.20678
0
LINE
8
BLACK
6
CONTINUOUS
10
5.54822
20
7.20678
11
5.58611
21
7.23787
0
LINE
8
BLACK
6
CONTINUOUS
10
5.58611
20
7.23787
11
5.62933
21
7.26097
0
LINE
8
BLACK
6
CONTINUOUS
10
5.62933
20
7.26097
11
5.67623
21
7.2752
0
LINE
8
BLACK
6
CONTINUOUS
10
5.67623
20
7.2752
11
5.725
21
7.28
0
LINE
8
BLACK
6
CONTINUOUS
10
5.725
20
7.28
11
6.975
21
7.28
0
LINE
8
BLACK
6
CONTINUOUS
10
6.975
20
7.28
11
7.02377
21
7.2752
0
LINE
8
BLACK
6
CONTINUOUS
10
26.0738
20
13.1902
11
26.1207
21
13.176
0
LINE
8
BLACK
6
CONTINUOUS
10
26.1207
20
13.176
11
26.1639
21
13.1529
0
LINE
8
BLACK
6
CONTINUOUS
10
26.1639
20
13.1529
11
26.2018
21
13.1218
0
LINE
8
BLACK
6
CONTINUOUS
10
26.2018
20
13.1218
11
26.2329
21
13.0839
0
LINE
8
BLACK
6
CONTINUOUS
10
26.2329
20
13.0839
11
26.256
21
13.0407
0
LINE
8
BLACK
6
CONTINUOUS
10
26.256
20
13.0407
11
26.2702
21
12.9938
0
LINE
8
BLACK
6
CONTINUOUS
10
26.2702
20
12.9938
11
26.275
21
12.945
0
LINE
8
BLACK
6
CONTINUOUS
10
26.275
20
12.945
11
26.275
21
12.02
0
LINE
8
BLACK
6
CONTINUOUS
10
26.275
20
12.02
11
26.2702
21
11.9712
0
LINE
8
BLACK
6
CONTINUOUS
10
26.2702
20
11.9712
11
26.256
21
11.9243
0
LINE
8
BLACK
6
CONTINUOUS
10
26.256
20
11.9243
11
26.2329
21
11.8811
0
LINE
8
BLACK
6
CONTINUOUS
10
26.2329
20
11.8811
11
26.2018
21
11.8432
0
LINE
8
BLACK
6
CONTINUOUS
10
26.2018
20
11.8432
11
26.1639
21
11.8121
0
LINE
8
BLACK
6
CONTINUOUS
10
26.1639
20
11.8121
11
26.1207
21
11.789
0
LINE
8
BLACK
6
CONTINUOUS
10
26.1207
20
11.789
11
26.0738
21
11.7748
0
LINE
8
BLACK
6
CONTINUOUS
10
26.0738
20
11.7748
11
26.025
21
11.77
0
LINE
8
BLACK
6
CONTINUOUS
10
26.025
20
11.77
11
24.775
21
11.77
0
LINE
8
BLACK
6
CONTINUOUS
10
24.775
20
11.77
11
24.7262
21
11.7748
0
LINE
8
BLACK
6
CONTINUOUS
10
24.7262
20
11.7748
11
24.6793
21
11.789
0
LINE
8
BLACK
6
CONTINUOUS
10
24.6793
20
11.789
11
24.6361
21
11.8121
0
LINE
8
BLACK
6
CONTINUOUS
10
24.6361
20
11.8121
11
24.5982
21
11.8432
0
LINE
8
BLACK
6
CONTINUOUS
10
24.5982
20
11.8432
11
24.5671
21
11.8811
0
LINE
8
BLACK
6
CONTINUOUS
10
24.5671
20
11.8811
11
24.544
21
11.9243
0
LINE
8
BLACK
6
CONTINUOUS
10
24.544
20
11.9243
11
24.5298
21
11.9712
0
LINE
8
BLACK
6
CONTINUOUS
10
24.5298
20
11.9712
11
24.525
21
12.02
0
LINE
8
BLACK
6
CONTINUOUS
10
24.525
20
12.02
11
24.525
21
12.945
0
LINE
8
BLACK
6
CONTINUOUS
10
24.525
20
12.945
11
24.5298
21
12.9938
0
LINE
8
BLACK
6
CONTINUOUS
10
24.5298
20
12.9938
11
24.544
21
13.0407
0
LINE
8
BLACK
6
CONTINUOUS
10
24.544
20
13.0407
11
24.5671
21
13.0839
0
LINE
8
BLACK
6
CONTINUOUS
10
24.5671
20
13.0839
11
24.5982
21
13.1218
0
LINE
8
BLACK
6
CONTINUOUS
10
24.5982
20
13.1218
11
24.6361
21
13.1529
0
LINE
8
BLACK
6
CONTINUOUS
10
24.6361
20
13.1529
11
24.6793
21
13.176
0
LINE
8
BLACK
6
CONTINUOUS
10
24.6793
20
13.176
11
24.7262
21
13.1902
0
LINE
8
BLACK
6
CONTINUOUS
10
24.7262
20
13.1902
11
24.775
21
13.195
0
LINE
8
BLACK
6
CONTINUOUS
10
24.775
20
13.195
11
26.025
21
13.195
0
LINE
8
BLACK
6
CONTINUOUS
10
26.025
20
13.195
11
26.0738
21
13.1902
0
LINE
8
BLACK
6
CONTINUOUS
10
22.2638
20
13.1902
11
22.3107
21
13.176
0
LINE
8
BLACK
6
CONTINUOUS
10
22.3107
20
13.176
11
22.3539
21
13.1529
0
LINE
8
BLACK
6
CONTINUOUS
10
22.3539
20
13.1529
11
22.3918
21
13.1218
0
LINE
8
BLACK
6
CONTINUOUS
10
22.3918
20
13.1218
11
22.4229
21
13.0839
0
LINE
8
BLACK
6
CONTINUOUS
10
22.4229
20
13.0839
11
22.446
21
13.0407
0
LINE
8
BLACK
6
CONTINUOUS
10
22.446
20
13.0407
11
22.4602
21
12.9938
0
LINE
8
BLACK
6
CONTINUOUS
10
22.4602
20
12.9938
11
22.465
21
12.945
0
LINE
8
BLACK
6
CONTINUOUS
10
22.465
20
12.945
11
22.465
21
12.02
0
LINE
8
BLACK
6
CONTINUOUS
10
22.465
20
12.02
11
22.4602
21
11.9712
0
LINE
8
BLACK
6
CONTINUOUS
10
22.4602
20
11.9712
11
22.446
21
11.9243
0
LINE
8
BLACK
6
CONTINUOUS
10
22.446
20
11.9243
11
22.4229
21
11.8811
0
LINE
8
BLACK
6
CONTINUOUS
10
22.4229
20
11.8811
11
22.3918
21
11.8432
0
LINE
8
BLACK
6
CONTINUOUS
10
22.3918
20
11.8432
11
22.3539
21
11.8121
0
LINE
8
BLACK
6
CONTINUOUS
10
22.3539
20
11.8121
11
22.3107
21
11.789
0
LINE
8
BLACK
6
CONTINUOUS
10
22.3107
20
11.789
11
22.2638
21
11.7748
0
LINE
8
BLACK
6
CONTINUOUS
10
22.2638
20
11.7748
11
22.215
21
11.77
0
LINE
8
BLACK
6
CONTINUOUS
10
22.215
20
11.77
11
20.965
21
11.77
0
LINE
8
BLACK
6
CONTINUOUS
10
20.965
20
11.77
11
20.9162
21
11.7748
0
LINE
8
BLACK
6
CONTINUOUS
10
20.9162
20
11.7748
11
20.8693
21
11.789
0
LINE
8
BLACK
6
CONTINUOUS
10
20.8693
20
11.789
11
20.8261
21
11.8121
0
LINE
8
BLACK
6
CONTINUOUS
10
20.8261
20
11.8121
11
20.7882
21
11.8432
0
LINE
8
BLACK
6
CONTINUOUS
10
20.7882
20
11.8432
11
20.7571
21
11.8811
0
LINE
8
BLACK
6
CONTINUOUS
10
20.7571
20
11.8811
11
20.734
21
11.9243
0
LINE
8
BLACK
6
CONTINUOUS
10
20.734
20
11.9243
11
20.7198
21
11.9712
0
LINE
8
BLACK
6
CONTINUOUS
10
20.7198
20
11.9712
11
20.715
21
12.02
0
LINE
8
BLACK
6
CONTINUOUS
10
20.715
20
12.02
11
20.715
21
12.945
0
LINE
8
BLACK
6
CONTINUOUS
10
20.715
20
12.945
11
20.7198
21
12.9938
0
LINE
8
BLACK
6
CONTINUOUS
10
20.7198
20
12.9938
11
20.734
21
13.0407
0
LINE
8
BLACK
6
CONTINUOUS
10
20.734
20
13.0407
11
20.7571
21
13.0839
0
LINE
8
BLACK
6
CONTINUOUS
10
20.7571
20
13.0839
11
20.7882
21
13.1218
0
LINE
8
BLACK
6
CONTINUOUS
10
20.7882
20
13.1218
11
20.8261
21
13.1529
0
LINE
8
BLACK
6
CONTINUOUS
10
20.8261
20
13.1529
11
20.8693
21
13.176
0
LINE
8
BLACK
6
CONTINUOUS
10
20.8693
20
13.176
11
20.9162
21
13.1902
0
LINE
8
BLACK
6
CONTINUOUS
10
20.9162
20
13.1902
11
20.965
21
13.195
0
LINE
8
BLACK
6
CONTINUOUS
10
20.965
20
13.195
11
22.215
21
13.195
0
LINE
8
BLACK
6
CONTINUOUS
10
22.215
20
13.195
11
22.2638
21
13.1902
0
LINE
8
BLACK
6
CONTINUOUS
10
18.4538
20
13.1902
11
18.5007
21
13.176
0
LINE
8
BLACK
6
CONTINUOUS
10
18.5007
20
13.176
11
18.5439
21
13.1529
0
LINE
8
BLACK
6
CONTINUOUS
10
18.5439
20
13.1529
11
18.5818
21
13.1218
0
LINE
8
BLACK
6
CONTINUOUS
10
18.5818
20
13.1218
11
18.6129
21
13.0839
0
LINE
8
BLACK
6
CONTINUOUS
10
18.6129
20
13.0839
11
18.636
21
13.0407
0
LINE
8
BLACK
6
CONTINUOUS
10
18.636
20
13.0407
11
18.6502
21
12.9938
0
LINE
8
BLACK
6
CONTINUOUS
10
18.6502
20
12.9938
11
18.655
21
12.945
0
LINE
8
BLACK
6
CONTINUOUS
10
18.655
20
12.945
11
18.655
21
12.02
0
LINE
8
BLACK
6
CONTINUOUS
10
18.655
20
12.02
11
18.6502
21
11.9712
0
LINE
8
BLACK
6
CONTINUOUS
10
18.6502
20
11.9712
11
18.636
21
11.9243
0
LINE
8
BLACK
6
CONTINUOUS
10
18.636
20
11.9243
11
18.6129
21
11.8811
0
LINE
8
BLACK
6
CONTINUOUS
10
18.6129
20
11.8811
11
18.5818
21
11.8432
0
LINE
8
BLACK
6
CONTINUOUS
10
18.5818
20
11.8432
11
18.5439
21
11.8121
0
LINE
8
BLACK
6
CONTINUOUS
10
18.5439
20
11.8121
11
18.5007
21
11.789
0
LINE
8
BLACK
6
CONTINUOUS
10
18.5007
20
11.789
11
18.4538
21
11.7748
0
LINE
8
BLACK
6
CONTINUOUS
10
18.4538
20
11.7748
11
18.405
21
11.77
0
LINE
8
BLACK
6
CONTINUOUS
10
18.405
20
11.77
11
17.155
21
11.77
0
LINE
8
BLACK
6
CONTINUOUS
10
17.155
20
11.77
11
17.1062
21
11.7748
0
LINE
8
BLACK
6
CONTINUOUS
10
17.1062
20
11.7748
11
17.0593
21
11.789
0
LINE
8
BLACK
6
CONTINUOUS
10
17.0593
20
11.789
11
17.0161
21
11.8121
0
LINE
8
BLACK
6
CONTINUOUS
10
17.0161
20
11.8121
11
16.9782
21
11.8432
0
LINE
8
BLACK
6
CONTINUOUS
10
16.9782
20
11.8432
11
16.9471
21
11.8811
0
LINE
8
BLACK
6
CONTINUOUS
10
16.9471
20
11.8811
11
16.924
21
11.9243
0
LINE
8
BLACK
6
CONTINUOUS
10
16.924
20
11.9243
11
16.9098
21
11.9712
0
LINE
8
BLACK
6
CONTINUOUS
10
16.9098
20
11.9712
11
16.905
21
12.02
0
LINE
8
BLACK
6
CONTINUOUS
10
16.905
20
12.02
11
16.905
21
12.945
0
LINE
8
BLACK
6
CONTINUOUS
10
16.905
20
12.945
11
16.9098
21
12.9938
0
LINE
8
BLACK
6
CONTINUOUS
10
16.9098
20
12.9938
11
16.924
21
13.0407
0
LINE
8
BLACK
6
CONTINUOUS
10
16.924
20
13.0407
11
16.9471
21
13.0839
0
LINE
8
BLACK
6
CONTINUOUS
10
16.9471
20
13.0839
11
16.9782
21
13.1218
0
LINE
8
BLACK
6
CONTINUOUS
10
16.9782
20
13.1218
11
17.0161
21
13.1529
0
LINE
8
BLACK
6
CONTINUOUS
10
17.0161
20
13.1529
11
17.0593
21
13.176
0
LINE
8
BLACK
6
CONTINUOUS
10
17.0593
20
13.176
11
17.1062
21
13.1902
0
LINE
8
BLACK
6
CONTINUOUS
10
17.1062
20
13.1902
11
17.155
21
13.195
0
LINE
8
BLACK
6
CONTINUOUS
10
17.155
20
13.195
11
18.405
21
13.195
0
LINE
8
BLACK
6
CONTINUOUS
10
18.405
20
13.195
11
18.4538
21
13.1902
0
LINE
8
BLACK
6
CONTINUOUS
10
14.6438
20
13.1902
11
14.6907
21
13.176
0
LINE
8
BLACK
6
CONTINUOUS
10
14.6907
20
13.176
11
14.7339
21
13.1529
0
LINE
8
BLACK
6
CONTINUOUS
10
14.7339
20
13.1529
11
14.7718
21
13.1218
0
LINE
8
BLACK
6
CONTINUOUS
10
14.7718
20
13.1218
11
14.8029
21
13.0839
0
LINE
8
BLACK
6
CONTINUOUS
10
14.8029
20
13.0839
11
14.826
21
13.0407
0
LINE
8
BLACK
6
CONTINUOUS
10
14.826
20
13.0407
11
14.8402
21
12.9938
0
LINE
8
BLACK
6
CONTINUOUS
10
14.8402
20
12.9938
11
14.845
21
12.945
0
LINE
8
BLACK
6
CONTINUOUS
10
14.845
20
12.945
11
14.845
21
12.02
0
LINE
8
BLACK
6
CONTINUOUS
10
14.845
20
12.02
11
14.8402
21
11.9712
0
LINE
8
BLACK
6
CONTINUOUS
10
14.8402
20
11.9712
11
14.826
21
11.9243
0
LINE
8
BLACK
6
CONTINUOUS
10
14.826
20
11.9243
11
14.8029
21
11.8811
0
LINE
8
BLACK
6
CONTINUOUS
10
14.8029
20
11.8811
11
14.7718
21
11.8432
0
LINE
8
BLACK
6
CONTINUOUS
10
14.7718
20
11.8432
11
14.7339
21
11.8121
0
LINE
8
BLACK
6
CONTINUOUS
10
14.7339
20
11.8121
11
14.6907
21
11.789
0
LINE
8
BLACK
6
CONTINUOUS
10
14.6907
20
11.789
11
14.6438
21
11.7748
0
LINE
8
BLACK
6
CONTINUOUS
10
14.6438
20
11.7748
11
14.595
21
11.77
0
LINE
8
BLACK
6
CONTINUOUS
10
14.595
20
11.77
11
13.345
21
11.77
0
LINE
8
BLACK
6
CONTINUOUS
10
13.345
20
11.77
11
13.2962
21
11.7748
0
LINE
8
BLACK
6
CONTINUOUS
10
13.2962
20
11.7748
11
13.2493
21
11.789
0
LINE
8
BLACK
6
CONTINUOUS
10
13.2493
20
11.789
11
13.2061
21
11.8121
0
LINE
8
BLACK
6
CONTINUOUS
10
13.2061
20
11.8121
11
13.1682
21
11.8432
0
LINE
8
BLACK
6
CONTINUOUS
10
13.1682
20
11.8432
11
13.1371
21
11.8811
0
LINE
8
BLACK
6
CONTINUOUS
10
13.1371
20
11.8811
11
13.114
21
11.9243
0
LINE
8
BLACK
6
CONTINUOUS
10
13.114
20
11.9243
11
13.0998
21
11.9712
0
LINE
8
BLACK
6
CONTINUOUS
10
13.0998
20
11.9712
11
13.095
21
12.02
0
LINE
8
BLACK
6
CONTINUOUS
10
13.095
20
12.02
11
13.095
21
12.945
0
LINE
8
BLACK
6
CONTINUOUS
10
13.095
20
12.945
11
13.0998
21
12.9938
0
LINE
8
BLACK
6
CONTINUOUS
10
13.0998
20
12.9938
11
13.114
21
13.0407
0
LINE
8
BLACK
6
CONTINUOUS
10
13.114
20
13.0407
11
13.1371
21
13.0839
0
LINE
8
BLACK
6
CONTINUOUS
10
13.1371
20
13.0839
11
13.1682
21
13.1218
0
LINE
8
BLACK
6
CONTINUOUS
10
13.1682
20
13.1218
11
13.2061
21
13.1529
0
LINE
8
BLACK
6
CONTINUOUS
10
13.2061
20
13.1529
11
13.2493
21
13.176
0
LINE
8
BLACK
6
CONTINUOUS
10
13.2493
20
13.176
11
13.2962
21
13.1902
0
LINE
8
BLACK
6
CONTINUOUS
10
13.2962
20
13.1902
11
13.345
21
13.195
0
LINE
8
BLACK
6
CONTINUOUS
10
13.345
20
13.195
11
14.595
21
13.195
0
LINE
8
BLACK
6
CONTINUOUS
10
14.595
20
13.195
11
14.6438
21
13.1902
0
LINE
8
BLACK
6
CONTINUOUS
10
10.8338
20
13.1902
11
10.8807
21
13.176
0
LINE
8
BLACK
6
CONTINUOUS
10
10.8807
20
13.176
11
10.9239
21
13.1529
0
LINE
8
BLACK
6
CONTINUOUS
10
10.9239
20
13.1529
11
10.9618
21
13.1218
0
LINE
8
BLACK
6
CONTINUOUS
10
10.9618
20
13.1218
11
10.9929
21
13.0839
0
LINE
8
BLACK
6
CONTINUOUS
10
10.9929
20
13.0839
11
11.016
21
13.0407
0
LINE
8
BLACK
6
CONTINUOUS
10
11.016
20
13.0407
11
11.0302
21
12.9938
0
LINE
8
BLACK
6
CONTINUOUS
10
11.0302
20
12.9938
11
11.035
21
12.945
0
LINE
8
BLACK
6
CONTINUOUS
10
11.035
20
12.945
11
11.035
21
12.02
0
LINE
8
BLACK
6
CONTINUOUS
10
11.035
20
12.02
11
11.0302
21
11.9712
0
LINE
8
BLACK
6
CONTINUOUS
10
11.0302
20
11.9712
11
11.016
21
11.9243
0
LINE
8
BLACK
6
CONTINUOUS
10
11.016
20
11.9243
11
10.9929
21
11.8811
0
LINE
8
BLACK
6
CONTINUOUS
10
10.9929
20
11.8811
11
10.9618
21
11.8432
0
LINE
8
BLACK
6
CONTINUOUS
10
10.9618
20
11.8432
11
10.9239
21
11.8121
0
LINE
8
BLACK
6
CONTINUOUS
10
10.9239
20
11.8121
11
10.8807
21
11.789
0
LINE
8
BLACK
6
CONTINUOUS
10
10.8807
20
11.789
11
10.8338
21
11.7748
0
LINE
8
BLACK
6
CONTINUOUS
10
10.8338
20
11.7748
11
10.785
21
11.77
0
LINE
8
BLACK
6
CONTINUOUS
10
10.785
20
11.77
11
9.535
21
11.77
0
LINE
8
BLACK
6
CONTINUOUS
10
9.535
20
11.77
11
9.48623
21
11.7748
0
LINE
8
BLACK
6
CONTINUOUS
10
9.48623
20
11.7748
11
9.43933
21
11.789
0
LINE
8
BLACK
6
CONTINUOUS
10
9.43933
20
11.789
11
9.39611
21
11.8121
0
LINE
8
BLACK
6
CONTINUOUS
10
9.39611
20
11.8121
11
9.35822
21
11.8432
0
LINE
8
BLACK
6
CONTINUOUS
10
9.35822
20
11.8432
11
9.32713
21
11.8811
0
LINE
8
BLACK
6
CONTINUOUS
10
9.32713
20
11.8811
11
9.30403
21
11.9243
0
LINE
8
BLACK
6
CONTINUOUS
10
9.30403
20
11.9243
11
9.2898
21
11.9712
0
LINE
8
BLACK
6
CONTINUOUS
10
9.2898
20
11.9712
11
9.285
21
12.02
0
LINE
8
BLACK
6
CONTINUOUS
10
9.285
20
12.02
11
9.285
21
12.945
0
LINE
8
BLACK
6
CONTINUOUS
10
9.285
20
12.945
11
9.2898
21
12.9938
0
LINE
8
BLACK
6
CONTINUOUS
10
9.2898
20
12.9938
11
9.30403
21
13.0407
0
LINE
8
BLACK
6
CONTINUOUS
10
9.30403
20
13.0407
11
9.32713
21
13.0839
0
LINE
8
BLACK
6
CONTINUOUS
10
9.32713
20
13.0839
11
9.35822
21
13.1218
0
LINE
8
BLACK
6
CONTINUOUS
10
9.35822
20
13.1218
11
9.39611
21
13.1529
0
LINE
8
BLACK
6
CONTINUOUS
10
9.39611
20
13.1529
11
9.43933
21
13.176
0
LINE
8
BLACK
6
CONTINUOUS
10
9.43933
20
13.176
11
9.48623
21
13.1902
0
LINE
8
BLACK
6
CONTINUOUS
10
9.48623
20
13.1902
11
9.535
21
13.195
0
LINE
8
BLACK
6
CONTINUOUS
10
9.535
20
13.195
11
10.785
21
13.195
0
LINE
8
BLACK
6
CONTINUOUS
10
10.785
20
13.195
11
10.8338
21
13.1902
0
LINE
8
BLACK
6
CONTINUOUS
10
7.02377
20
13.1902
11
7.07067
21
13.176
0
LINE
8
BLACK
6
CONTINUOUS
10
7.07067
20
13.176
11
7.11389
21
13.1529
0
LINE
8
BLACK
6
CONTINUOUS
10
7.11389
20
13.1529
11
7.15178
21
13.1218
0
LINE
8
BLACK
6
CONTINUOUS
10
7.15178
20
13.1218
11
7.18287
21
13.0839
0
LINE
8
BLACK
6
CONTINUOUS
10
7.18287
20
13.0839
11
7.20597
21
13.0407
0
LINE
8
BLACK
6
CONTINUOUS
10
7.20597
20
13.0407
11
7.2202
21
12.9938
0
LINE
8
BLACK
6
CONTINUOUS
10
7.2202
20
12.9938
11
7.225
21
12.945
0
LINE
8
BLACK
6
CONTINUOUS
10
7.225
20
12.945
11
7.225
21
12.02
0
LINE
8
BLACK
6
CONTINUOUS
10
7.225
20
12.02
11
7.2202
21
11.9712
0
LINE
8
BLACK
6
CONTINUOUS
10
7.2202
20
11.9712
11
7.20597
21
11.9243
0
LINE
8
BLACK
6
CONTINUOUS
10
7.20597
20
11.9243
11
7.18287
21
11.8811
0
LINE
8
BLACK
6
CONTINUOUS
10
7.18287
20
11.8811
11
7.15178
21
11.8432
0
LINE
8
BLACK
6
CONTINUOUS
10
7.15178
20
11.8432
11
7.11389
21
11.8121
0
LINE
8
BLACK
6
CONTINUOUS
10
7.11389
20
11.8121
11
7.07067
21
11.789
0
LINE
8
BLACK
6
CONTINUOUS
10
7.07067
20
11.789
11
7.02377
21
11.7748
0
LINE
8
BLACK
6
CONTINUOUS
10
7.02377
20
11.7748
11
6.975
21
11.77
0
LINE
8
BLACK
6
CONTINUOUS
10
6.975
20
11.77
11
5.725
21
11.77
0
LINE
8
BLACK
6
CONTINUOUS
10
5.725
20
11.77
11
5.67623
21
11.7748
0
LINE
8
BLACK
6
CONTINUOUS
10
5.67623
20
11.7748
11
5.62933
21
11.789
0
LINE
8
BLACK
6
CONTINUOUS
10
5.62933
20
11.789
11
5.58611
21
11.8121
0
LINE
8
BLACK
6
CONTINUOUS
10
5.58611
20
11.8121
11
5.54822
21
11.8432
0
LINE
8
BLACK
6
CONTINUOUS
10
5.54822
20
11.8432
11
5.51713
21
11.8811
0
LINE
8
BLACK
6
CONTINUOUS
10
5.51713
20
11.8811
11
5.49403
21
11.9243
0
LINE
8
BLACK
6
CONTINUOUS
10
5.49403
20
11.9243
11
5.4798
21
11.9712
0
LINE
8
BLACK
6
CONTINUOUS
10
5.4798
20
11.9712
11
5.475
21
12.02
0
LINE
8
BLACK
6
CONTINUOUS
10
5.475
20
12.02
11
5.475
21
12.945
0
LINE
8
BLACK
6
CONTINUOUS
10
5.475
20
12.945
11
5.4798
21
12.9938
0
LINE
8
BLACK
6
CONTINUOUS
10
5.4798
20
12.9938
11
5.49403
21
13.0407
0
LINE
8
BLACK
6
CONTINUOUS
10
5.49403
20
13.0407
11
5.51713
21
13.0839
0
LINE
8
BLACK
6
CONTINUOUS
10
5.51713
20
13.0839
11
5.54822
21
13.1218
0
LINE
8
BLACK
6
CONTINUOUS
10
5.54822
20
13.1218
11
5.58611
21
13.1529
0
LINE
8
BLACK
6
CONTINUOUS
10
5.58611
20
13.1529
11
5.62933
21
13.176
0
LINE
8
BLACK
6
CONTINUOUS
10
5.62933
20
13.176
11
5.67623
21
13.1902
0
LINE
8
BLACK
6
CONTINUOUS
10
5.67623
20
13.1902
11
5.725
21
13.195
0
LINE
8
BLACK
6
CONTINUOUS
10
5.725
20
13.195
11
6.975
21
13.195
0
LINE
8
BLACK
6
CONTINUOUS
10
6.975
20
13.195
11
7.02377
21
13.1902
0
LINE
8
BLACK
6
CONTINUOUS
10
3.21377
20
13.1902
11
3.26067
21
13.176
0
LINE
8
BLACK
6
CONTINUOUS
10
3.26067
20
13.176
11
3.30389
21
13.1529
0
LINE
8
BLACK
6
CONTINUOUS
10
3.30389
20
13.1529
11
3.34178
21
13.1218
0
LINE
8
BLACK
6
CONTINUOUS
10
3.34178
20
13.1218
11
3.37287
21
13.0839
0
LINE
8
BLACK
6
CONTINUOUS
10
3.37287
20
13.0839
11
3.39597
21
13.0407
0
LINE
8
BLACK
6
CONTINUOUS
10
3.39597
20
13.0407
11
3.4102
21
12.9938
0
LINE
8
BLACK
6
CONTINUOUS
10
3.4102
20
12.9938
11
3.415
21
12.945
0
LINE
8
BLACK
6
CONTINUOUS
10
3.415
20
12.945
11
3.415
21
12.02
0
LINE
8
BLACK
6
CONTINUOUS
10
3.415
20
12.02
11
3.4102
21
11.9712
0
LINE
8
BLACK
6
CONTINUOUS
10
3.4102
20
11.9712
11
3.39597
21
11.9243
0
LINE
8
BLACK
6
CONTINUOUS
10
3.39597
20
11.9243
11
3.37287
21
11.8811
0
LINE
8
BLACK
6
CONTINUOUS
10
3.37287
20
11.8811
11
3.34178
21
11.8432
0
LINE
8
BLACK
6
CONTINUOUS
10
3.34178
20
11.8432
11
3.30389
21
11.8121
0
LINE
8
BLACK
6
CONTINUOUS
10
3.30389
20
11.8121
11
3.26067
21
11.789
0
LINE
8
BLACK
6
CONTINUOUS
10
3.26067
20
11.789
11
3.21377
21
11.7748
0
LINE
8
BLACK
6
CONTINUOUS
10
3.21377
20
11.7748
11
3.165
21
11.77
0
LINE
8
BLACK
6
CONTINUOUS
10
3.165
20
11.77
11
1.915
21
11.77
0
LINE
8
BLACK
6
CONTINUOUS
10
1.915
20
11.77
11
1.86623
21
11.7748
0
LINE
8
BLACK
6
CONTINUOUS
10
1.86623
20
11.7748
11
1.81933
21
11.789
0
LINE
8
BLACK
6
CONTINUOUS
10
1.81933
20
11.789
11
1.77611
21
11.8121
0
LINE
8
BLACK
6
CONTINUOUS
10
1.77611
20
11.8121
11
1.73822
21
11.8432
0
LINE
8
BLACK
6
CONTINUOUS
10
1.73822
20
11.8432
11
1.70713
21
11.8811
0
LINE
8
BLACK
6
CONTINUOUS
10
1.70713
20
11.8811
11
1.68403
21
11.9243
0
LINE
8
BLACK
6
CONTINUOUS
10
1.68403
20
11.9243
11
1.6698
21
11.9712
0
LINE
8
BLACK
6
CONTINUOUS
10
1.6698
20
11.9712
11
1.665
21
12.02
0
LINE
8
BLACK
6
CONTINUOUS
10
1.665
20
12.02
11
1.665
21
12.945
0
LINE
8
BLACK
6
CONTINUOUS
10
1.665
20
12.945
11
1.6698
21
12.9938
0
LINE
8
BLACK
6
CONTINUOUS
10
1.6698
20
12.9938
11
1.68403
21
13.0407
0
LINE
8
BLACK
6
CONTINUOUS
10
1.68403
20
13.0407
11
1.70713
21
13.0839
0
LINE
8
BLACK
6
CONTINUOUS
10
1.70713
20
13.0839
11
1.73822
21
13.1218
0
LINE
8
BLACK
6
CONTINUOUS
10
1.73822
20
13.1218
11
1.77611
21
13.1529
0
LINE
8
BLACK
6
CONTINUOUS
10
1.77611
20
13.1529
11
1.81933
21
13.176
0
LINE
8
BLACK
6
CONTINUOUS
10
1.81933
20
13.176
11
1.86623
21
13.1902
0
LINE
8
BLACK
6
CONTINUOUS
10
1.86623
20
13.1902
11
1.915
21
13.195
0
LINE
8
BLACK
6
CONTINUOUS
10
1.915
20
13.195
11
3.165
21
13.195
0
LINE
8
BLACK
6
CONTINUOUS
10
3.165
20
13.195
11
3.21377
21
13.1902
0
LINE
8
BLACK
6
CONTINUOUS
10
26.0738
20
16.1652
11
26.1207
21
16.151
0
LINE
8
BLACK
6
CONTINUOUS
10
26.1207
20
16.151
11
26.1639
21
16.1279
0
LINE
8
BLACK
6
CONTINUOUS
10
26.1639
20
16.1279
11
26.2018
21
16.0968
0
LINE
8
BLACK
6
CONTINUOUS
10
26.2018
20
16.0968
11
26.2329
21
16.0589
0
LINE
8
BLACK
6
CONTINUOUS
10
26.2329
20
16.0589
11
26.256
21
16.0157
0
LINE
8
BLACK
6
CONTINUOUS
10
26.256
20
16.0157
11
26.2702
21
15.9688
0
LINE
8
BLACK
6
CONTINUOUS
10
26.2702
20
15.9688
11
26.275
21
15.92
0
LINE
8
BLACK
6
CONTINUOUS
10
26.275
20
15.92
11
26.275
21
14.995
0
LINE
8
BLACK
6
CONTINUOUS
10
26.275
20
14.995
11
26.2702
21
14.9462
0
LINE
8
BLACK
6
CONTINUOUS
10
26.2702
20
14.9462
11
26.256
21
14.8993
0
LINE
8
BLACK
6
CONTINUOUS
10
26.256
20
14.8993
11
26.2329
21
14.8561
0
LINE
8
BLACK
6
CONTINUOUS
10
26.2329
20
14.8561
11
26.2018
21
14.8182
0
LINE
8
BLACK
6
CONTINUOUS
10
26.2018
20
14.8182
11
26.1639
21
14.7871
0
LINE
8
BLACK
6
CONTINUOUS
10
26.1639
20
14.7871
11
26.1207
21
14.764
0
LINE
8
BLACK
6
CONTINUOUS
10
26.1207
20
14.764
11
26.0738
21
14.7498
0
LINE
8
BLACK
6
CONTINUOUS
10
26.0738
20
14.7498
11
26.025
21
14.745
0
LINE
8
BLACK
6
CONTINUOUS
10
26.025
20
14.745
11
24.775
21
14.745
0
LINE
8
BLACK
6
CONTINUOUS
10
24.775
20
14.745
11
24.7262
21
14.7498
0
LINE
8
BLACK
6
CONTINUOUS
10
24.7262
20
14.7498
11
24.6793
21
14.764
0
LINE
8
BLACK
6
CONTINUOUS
10
24.6793
20
14.764
11
24.6361
21
14.7871
0
LINE
8
BLACK
6
CONTINUOUS
10
24.6361
20
14.7871
11
24.5982
21
14.8182
0
LINE
8
BLACK
6
CONTINUOUS
10
24.5982
20
14.8182
11
24.5671
21
14.8561
0
LINE
8
BLACK
6
CONTINUOUS
10
24.5671
20
14.8561
11
24.544
21
14.8993
0
LINE
8
BLACK
6
CONTINUOUS
10
24.544
20
14.8993
11
24.5298
21
14.9462
0
LINE
8
BLACK
6
CONTINUOUS
10
24.5298
20
14.9462
11
24.525
21
14.995
0
LINE
8
BLACK
6
CONTINUOUS
10
24.525
20
14.995
11
24.525
21
15.92
0
LINE
8
BLACK
6
CONTINUOUS
10
24.525
20
15.92
11
24.5298
21
15.9688
0
LINE
8
BLACK
6
CONTINUOUS
10
24.5298
20
15.9688
11
24.544
21
16.0157
0
LINE
8
BLACK
6
CONTINUOUS
10
24.544
20
16.0157
11
24.5671
21
16.0589
0
LINE
8
BLACK
6
CONTINUOUS
10
24.5671
20
16.0589
11
24.5982
21
16.0968
0
LINE
8
BLACK
6
CONTINUOUS
10
24.5982
20
16.0968
11
24.6361
21
16.1279
0
LINE
8
BLACK
6
CONTINUOUS
10
24.6361
20
16.1279
11
24.6793
21
16.151
0
LINE
8
BLACK
6
CONTINUOUS
10
24.6793
20
16.151
11
24.7262
21
16.1652
0
LINE
8
BLACK
6
CONTINUOUS
10
24.7262
20
16.1652
11
24.775
21
16.17
0
LINE
8
BLACK
6
CONTINUOUS
10
24.775
20
16.17
11
26.025
21
16.17
0
LINE
8
BLACK
6
CONTINUOUS
10
26.025
20
16.17
11
26.0738
21
16.1652
0
LINE
8
BLACK
6
CONTINUOUS
10
22.2638
20
16.1652
11
22.3107
21
16.151
0
LINE
8
BLACK
6
CONTINUOUS
10
22.3107
20
16.151
11
22.3539
21
16.1279
0
LINE
8
BLACK
6
CONTINUOUS
10
22.3539
20
16.1279
11
22.3918
21
16.0968
0
LINE
8
BLACK
6
CONTINUOUS
10
22.3918
20
16.0968
11
22.4229
21
16.0589
0
LINE
8
BLACK
6
CONTINUOUS
10
22.4229
20
16.0589
11
22.446
21
16.0157
0
LINE
8
BLACK
6
CONTINUOUS
10
22.446
20
16.0157
11
22.4602
21
15.9688
0
LINE
8
BLACK
6
CONTINUOUS
10
22.4602
20
15.9688
11
22.465
21
15.92
0
LINE
8
BLACK
6
CONTINUOUS
10
22.465
20
15.92
11
22.465
21
14.995
0
LINE
8
BLACK
6
CONTINUOUS
10
22.465
20
14.995
11
22.4602
21
14.9462
0
LINE
8
BLACK
6
CONTINUOUS
10
22.4602
20
14.9462
11
22.446
21
14.8993
0
LINE
8
BLACK
6
CONTINUOUS
10
22.446
20
14.8993
11
22.4229
21
14.8561
0
LINE
8
BLACK
6
CONTINUOUS
10
22.4229
20
14.8561
11
22.3918
21
14.8182
0
LINE
8
BLACK
6
CONTINUOUS
10
22.3918
20
14.8182
11
22.3539
21
14.7871
0
LINE
8
BLACK
6
CONTINUOUS
10
22.3539
20
14.7871
11
22.3107
21
14.764
0
LINE
8
BLACK
6
CONTINUOUS
10
22.3107
20
14.764
11
22.2638
21
14.7498
0
LINE
8
BLACK
6
CONTINUOUS
10
22.2638
20
14.7498
11
22.215
21
14.745
0
LINE
8
BLACK
6
CONTINUOUS
10
22.215
20
14.745
11
20.965
21
14.745
0
LINE
8
BLACK
6
CONTINUOUS
10
20.965
20
14.745
11
20.9162
21
14.7498
0
LINE
8
BLACK
6
CONTINUOUS
10
20.9162
20
14.7498
11
20.8693
21
14.764
0
LINE
8
BLACK
6
CONTINUOUS
10
20.8693
20
14.764
11
20.8261
21
14.7871
0
LINE
8
BLACK
6
CONTINUOUS
10
20.8261
20
14.7871
11
20.7882
21
14.8182
0
LINE
8
BLACK
6
CONTINUOUS
10
20.7882
20
14.8182
11
20.7571
21
14.8561
0
LINE
8
BLACK
6
CONTINUOUS
10
20.7571
20
14.8561
11
20.734
21
14.8993
0
LINE
8
BLACK
6
CONTINUOUS
10
20.734
20
14.8993
11
20.7198
21
14.9462
0
LINE
8
BLACK
6
CONTINUOUS
10
20.7198
20
14.9462
11
20.715
21
14.995
0
LINE
8
BLACK
6
CONTINUOUS
10
20.715
20
14.995
11
20.715
21
15.92
0
LINE
8
BLACK
6
CONTINUOUS
10
20.715
20
15.92
11
20.7198
21
15.9688
0
LINE
8
BLACK
6
CONTINUOUS
10
20.7198
20
15.9688
11
20.734
21
16.0157
0
LINE
8
BLACK
6
CONTINUOUS
10
20.734
20
16.0157
11
20.7571
21
16.0589
0
LINE
8
BLACK
6
CONTINUOUS
10
20.7571
20
16.0589
11
20.7882
21
16.0968
0
LINE
8
BLACK
6
CONTINUOUS
10
20.7882
20
16.0968
11
20.8261
21
16.1279
0
LINE
8
BLACK
6
CONTINUOUS
10
20.8261
20
16.1279
11
20.8693
21
16.151
0
LINE
8
BLACK
6
CONTINUOUS
10
20.8693
20
16.151
11
20.9162
21
16.1652
0
LINE
8
BLACK
6
CONTINUOUS
10
20.9162
20
16.1652
11
20.965
21
16.17
0
LINE
8
BLACK
6
CONTINUOUS
10
20.965
20
16.17
11
22.215
21
16.17
0
LINE
8
BLACK
6
CONTINUOUS
10
22.215
20
16.17
11
22.2638
21
16.1652
0
LINE
8
BLACK
6
CONTINUOUS
10
18.4538
20
16.1652
11
18.5007
21
16.151
0
LINE
8
BLACK
6
CONTINUOUS
10
18.5007
20
16.151
11
18.5439
21
16.1279
0
LINE
8
BLACK
6
CONTINUOUS
10
18.5439
20
16.1279
11
18.5818
21
16.0968
0
LINE
8
BLACK
6
CONTINUOUS
10
18.5818
20
16.0968
11
18.6129
21
16.0589
0
LINE
8
BLACK
6
CONTINUOUS
10
18.6129
20
16.0589
11
18.636
21
16.0157
0
LINE
8
BLACK
6
CONTINUOUS
10
18.636
20
16.0157
11
18.6502
21
15.9688
0
LINE
8
BLACK
6
CONTINUOUS
10
18.6502
20
15.9688
11
18.655
21
15.92
0
LINE
8
BLACK
6
CONTINUOUS
10
18.655
20
15.92
11
18.655
21
14.995
0
LINE
8
BLACK
6
CONTINUOUS
10
18.655
20
14.995
11
18.6502
21
14.9462
0
LINE
8
BLACK
6
CONTINUOUS
10
18.6502
20
14.9462
11
18.636
21
14.8993
0
LINE
8
BLACK
6
CONTINUOUS
10
18.636
20
14.8993
11
18.6129
21
14.8561
0
LINE
8
BLACK
6
CONTINUOUS
10
18.6129
20
14.8561
11
18.5818
21
14.8182
0
LINE
8
BLACK
6
CONTINUOUS
10
18.5818
20
14.8182
11
18.5439
21
14.7871
0
LINE
8
BLACK
6
CONTINUOUS
10
18.5439
20
14.7871
11
18.5007
21
14.764
0
LINE
8
BLACK
6
CONTINUOUS
10
18.5007
20
14.764
11
18.4538
21
14.7498
0
LINE
8
BLACK
6
CONTINUOUS
10
18.4538
20
14.7498
11
18.405
21
14.745
0
LINE
8
BLACK
6
CONTINUOUS
10
18.405
20
14.745
11
17.155
21
14.745
0
LINE
8
BLACK
6
CONTINUOUS
10
17.155
20
14.745
11
17.1062
21
14.7498
0
LINE
8
BLACK
6
CONTINUOUS
10
17.1062
20
14.7498
11
17.0593
21
14.764
0
LINE
8
BLACK
6
CONTINUOUS
10
17.0593
20
14.764
11
17.0161
21
14.7871
0
LINE
8
BLACK
6
CONTINUOUS
10
17.0161
20
14.7871
11
16.9782
21
14.8182
0
LINE
8
BLACK
6
CONTINUOUS
10
16.9782
20
14.8182
11
16.9471
21
14.8561
0
LINE
8
BLACK
6
CONTINUOUS
10
16.9471
20
14.8561
11
16.924
21
14.8993
0
LINE
8
BLACK
6
CONTINUOUS
10
16.924
20
14.8993
11
16.9098
21
14.9462
0
LINE
8
BLACK
6
CONTINUOUS
10
16.9098
20
14.9462
11
16.905
21
14.995
0
LINE
8
BLACK
6
CONTINUOUS
10
16.905
20
14.995
11
16.905
21
15.92
0
LINE
8
BLACK
6
CONTINUOUS
10
16.905
20
15.92
11
16.9098
21
15.9688
0
LINE
8
BLACK
6
CONTINUOUS
10
16.9098
20
15.9688
11
16.924
21
16.0157
0
LINE
8
BLACK
6
CONTINUOUS
10
16.924
20
16.0157
11
16.9471
21
16.0589
0
LINE
8
BLACK
6
CONTINUOUS
10
16.9471
20
16.0589
11
16.9782
21
16.0968
0
LINE
8
BLACK
6
CONTINUOUS
10
16.9782
20
16.0968
11
17.0161
21
16.1279
0
LINE
8
BLACK
6
CONTINUOUS
10
17.0161
20
16.1279
11
17.0593
21
16.151
0
LINE
8
BLACK
6
CONTINUOUS
10
17.0593
20
16.151
11
17.1062
21
16.1652
0
LINE
8
BLACK
6
CONTINUOUS
10
17.1062
20
16.1652
11
17.155
21
16.17
0
LINE
8
BLACK
6
CONTINUOUS
10
17.155
20
16.17
11
18.405
21
16.17
0
LINE
8
BLACK
6
CONTINUOUS
10
18.405
20
16.17
11
18.4538
21
16.1652
0
LINE
8
BLACK
6
CONTINUOUS
10
14.6438
20
16.1652
11
14.6907
21
16.151
0
LINE
8
BLACK
6
CONTINUOUS
10
14.6907
20
16.151
11
14.7339
21
16.1279
0
LINE
8
BLACK
6
CONTINUOUS
10
14.7339
20
16.1279
11
14.7718
21
16.0968
0
LINE
8
BLACK
6
CONTINUOUS
10
14.7718
20
16.0968
11
14.8029
21
16.0589
0
LINE
8
BLACK
6
CONTINUOUS
10
14.8029
20
16.0589
11
14.826
21
16.0157
0
LINE
8
BLACK
6
CONTINUOUS
10
14.826
20
16.0157
11
14.8402
21
15.9688
0
LINE
8
BLACK
6
CONTINUOUS
10
14.8402
20
15.9688
11
14.845
21
15.92
0
LINE
8
BLACK
6
CONTINUOUS
10
14.845
20
15.92
11
14.845
21
14.995
0
LINE
8
BLACK
6
CONTINUOUS
10
14.845
20
14.995
11
14.8402
21
14.9462
0
LINE
8
BLACK
6
CONTINUOUS
10
14.8402
20
14.9462
11
14.826
21
14.8993
0
LINE
8
BLACK
6
CONTINUOUS
10
14.826
20
14.8993
11
14.8029
21
14.8561
0
LINE
8
BLACK
6
CONTINUOUS
10
14.8029
20
14.8561
11
14.7718
21
14.8182
0
LINE
8
BLACK
6
CONTINUOUS
10
14.7718
20
14.8182
11
14.7339
21
14.7871
0
LINE
8
BLACK
6
CONTINUOUS
10
14.7339
20
14.7871
11
14.6907
21
14.764
0
LINE
8
BLACK
6
CONTINUOUS
10
14.6907
20
14.764
11
14.6438
21
14.7498
0
LINE
8
BLACK
6
CONTINUOUS
10
14.6438
20
14.7498
11
14.595
21
14.745
0
LINE
8
BLACK
6
CONTINUOUS
10
14.595
20
14.745
11
13.345
21
14.745
0
LINE
8
BLACK
6
CONTINUOUS
10
13.345
20
14.745
11
13.2962
21
14.7498
0
LINE
8
BLACK
6
CONTINUOUS
10
13.2962
20
14.7498
11
13.2493
21
14.764
0
LINE
8
BLACK
6
CONTINUOUS
10
13.2493
20
14.764
11
13.2061
21
14.7871
0
LINE
8
BLACK
6
CONTINUOUS
10
13.2061
20
14.7871
11
13.1682
21
14.8182
0
LINE
8
BLACK
6
CONTINUOUS
10
13.1682
20
14.8182
11
13.1371
21
14.8561
0
LINE
8
BLACK
6
CONTINUOUS
10
13.1371
20
14.8561
11
13.114
21
14.8993
0
LINE
8
BLACK
6
CONTINUOUS
10
13.114
20
14.8993
11
13.0998
21
14.9462
0
LINE
8
BLACK
6
CONTINUOUS
10
13.0998
20
14.9462
11
13.095
21
14.995
0
LINE
8
BLACK
6
CONTINUOUS
10
13.095
20
14.995
11
13.095
21
15.92
0
LINE
8
BLACK
6
CONTINUOUS
10
13.095
20
15.92
11
13.0998
21
15.9688
0
LINE
8
BLACK
6
CONTINUOUS
10
13.0998
20
15.9688
11
13.114
21
16.0157
0
LINE
8
BLACK
6
CONTINUOUS
10
13.114
20
16.0157
11
13.1371
21
16.0589
0
LINE
8
BLACK
6
CONTINUOUS
10
13.1371
20
16.0589
11
13.1682
21
16.0968
0
LINE
8
BLACK
6
CONTINUOUS
10
13.1682
20
16.0968
11
13.2061
21
16.1279
0
LINE
8
BLACK
6
CONTINUOUS
10
13.2061
20
16.1279
11
13.2493
21
16.151
0
LINE
8
BLACK
6
CONTINUOUS
10
13.2493
20
16.151
11
13.2962
21
16.1652
0
LINE
8
BLACK
6
CONTINUOUS
10
13.2962
20
16.1652
11
13.345
21
16.17
0
LINE
8
BLACK
6
CONTINUOUS
10
13.345
20
16.17
11
14.595
21
16.17
0
LINE
8
BLACK
6
CONTINUOUS
10
14.595
20
16.17
11
14.6438
21
16.1652
0
LINE
8
BLACK
6
CONTINUOUS
10
10.8338
20
16.1652
11
10.8807
21
16.151
0
LINE
8
BLACK
6
CONTINUOUS
10
10.8807
20
16.151
11
10.9239
21
16.1279
0
LINE
8
BLACK
6
CONTINUOUS
10
10.9239
20
16.1279
11
10.9618
21
16.0968
0
LINE
8
BLACK
6
CONTINUOUS
10
10.9618
20
16.0968
11
10.9929
21
16.0589
0
LINE
8
BLACK
6
CONTINUOUS
10
10.9929
20
16.0589
11
11.016
21
16.0157
0
LINE
8
BLACK
6
CONTINUOUS
10
11.016
20
16.0157
11
11.0302
21
15.9688
0
LINE
8
BLACK
6
CONTINUOUS
10
11.0302
20
15.9688
11
11.035
21
15.92
0
LINE
8
BLACK
6
CONTINUOUS
10
11.035
20
15.92
11
11.035
21
14.995
0
LINE
8
BLACK
6
CONTINUOUS
10
11.035
20
14.995
11
11.0302
21
14.9462
0
LINE
8
BLACK
6
CONTINUOUS
10
11.0302
20
14.9462
11
11.016
21
14.8993
0
LINE
8
BLACK
6
CONTINUOUS
10
11.016
20
14.8993
11
10.9929
21
14.8561
0
LINE
8
BLACK
6
CONTINUOUS
10
10.9929
20
14.8561
11
10.9618
21
14.8182
0
LINE
8
BLACK
6
CONTINUOUS
10
10.9618
20
14.8182
11
10.9239
21
14.7871
0
LINE
8
BLACK
6
CONTINUOUS
10
10.9239
20
14.7871
11
10.8807
21
14.764
0
LINE
8
BLACK
6
CONTINUOUS
10
10.8807
20
14.764
11
10.8338
21
14.7498
0
LINE
8
BLACK
6
CONTINUOUS
10
10.8338
20
14.7498
11
10.785
21
14.745
0
LINE
8
BLACK
6
CONTINUOUS
10
10.785
20
14.745
11
9.535
21
14.745
0
LINE
8
BLACK
6
CONTINUOUS
10
9.535
20
14.745
11
9.48623
21
14.7498
0
LINE
8
BLACK
6
CONTINUOUS
10
9.48623
20
14.7498
11
9.43933
21
14.764
0
LINE
8
BLACK
6
CONTINUOUS
10
9.43933
20
14.764
11
9.39611
21
14.7871
0
LINE
8
BLACK
6
CONTINUOUS
10
9.39611
20
14.7871
11
9.35822
21
14.8182
0
LINE
8
BLACK
6
CONTINUOUS
10
9.35822
20
14.8182
11
9.32713
21
14.8561
0
LINE
8
BLACK
6
CONTINUOUS
10
9.32713
20
14.8561
11
9.30403
21
14.8993
0
LINE
8
BLACK
6
CONTINUOUS
10
9.30403
20
14.8993
11
9.2898
21
14.9462
0
LINE
8
BLACK
6
CONTINUOUS
10
9.2898
20
14.9462
11
9.285
21
14.995
0
LINE
8
BLACK
6
CONTINUOUS
10
9.285
20
14.995
11
9.285
21
15.92
0
LINE
8
BLACK
6
CONTINUOUS
10
9.285
20
15.92
11
9.2898
21
15.9688
0
LINE
8
BLACK
6
CONTINUOUS
10
9.2898
20
15.9688
11
9.30403
21
16.0157
0
LINE
8
BLACK
6
CONTINUOUS
10
9.30403
20
16.0157
11
9.32713
21
16.0589
0
LINE
8
BLACK
6
CONTINUOUS
10
9.32713
20
16.0589
11
9.35822
21
16.0968
0
LINE
8
BLACK
6
CONTINUOUS
10
9.35822
20
16.0968
11
9.39611
21
16.1279
0
LINE
8
BLACK
6
CONTINUOUS
10
9.39611
20
16.1279
11
9.43933
21
16.151
0
LINE
8
BLACK
6
CONTINUOUS
10
9.43933
20
16.151
11
9.48623
21
16.1652
0
LINE
8
BLACK
6
CONTINUOUS
10
9.48623
20
16.1652
11
9.535
21
16.17
0
LINE
8
BLACK
6
CONTINUOUS
10
9.535
20
16.17
11
10.785
21
16.17
0
LINE
8
BLACK
6
CONTINUOUS
10
10.785
20
16.17
11
10.8338
21
16.1652
0
LINE
8
BLACK
6
CONTINUOUS
10
7.02377
20
16.1652
11
7.07067
21
16.151
0
LINE
8
BLACK
6
CONTINUOUS
10
7.07067
20
16.151
11
7.11389
21
16.1279
0
LINE
8
BLACK
6
CONTINUOUS
10
7.11389
20
16.1279
11
7.15178
21
16.0968
0
LINE
8
BLACK
6
CONTINUOUS
10
7.15178
20
16.0968
11
7.18287
21
16.0589
0
LINE
8
BLACK
6
CONTINUOUS
10
7.18287
20
16.0589
11
7.20597
21
16.0157
0
LINE
8
BLACK
6
CONTINUOUS
10
7.20597
20
16.0157
11
7.2202
21
15.9688
0
LINE
8
BLACK
6
CONTINUOUS
10
7.2202
20
15.9688
11
7.225
21
15.92
0
LINE
8
BLACK
6
CONTINUOUS
10
7.225
20
15.92
11
7.225
21
14.995
0
LINE
8
BLACK
6
CONTINUOUS
10
7.225
20
14.995
11
7.2202
21
14.9462
0
LINE
8
BLACK
6
CONTINUOUS
10
7.2202
20
14.9462
11
7.20597
21
14.8993
0
LINE
8
BLACK
6
CONTINUOUS
10
7.20597
20
14.8993
11
7.18287
21
14.8561
0
LINE
8
BLACK
6
CONTINUOUS
10
7.18287
20
14.8561
11
7.15178
21
14.8182
0
LINE
8
BLACK
6
CONTINUOUS
10
7.15178
20
14.8182
11
7.11389
21
14.7871
0
LINE
8
BLACK
6
CONTINUOUS
10
7.11389
20
14.7871
11
7.07067
21
14.764
0
LINE
8
BLACK
6
CONTINUOUS
10
7.07067
20
14.764
11
7.02377
21
14.7498
0
LINE
8
BLACK
6
CONTINUOUS
10
7.02377
20
14.7498
11
6.975
21
14.745
0
LINE
8
BLACK
6
CONTINUOUS
10
6.975
20
14.745
11
5.725
21
14.745
0
LINE
8
BLACK
6
CONTINUOUS
10
5.725
20
14.745
11
5.67623
21
14.7498
0
LINE
8
BLACK
6
CONTINUOUS
10
5.67623
20
14.7498
11
5.62933
21
14.764
0
LINE
8
BLACK
6
CONTINUOUS
10
5.62933
20
14.764
11
5.58611
21
14.7871
0
LINE
8
BLACK
6
CONTINUOUS
10
5.58611
20
14.7871
11
5.54822
21
14.8182
0
LINE
8
BLACK
6
CONTINUOUS
10
5.54822
20
14.8182
11
5.51713
21
14.8561
0
LINE
8
BLACK
6
CONTINUOUS
10
5.51713
20
14.8561
11
5.49403
21
14.8993
0
LINE
8
BLACK
6
CONTINUOUS
10
5.49403
20
14.8993
11
5.4798
21
14.9462
0
LINE
8
BLACK
6
CONTINUOUS
10
5.4798
20
14.9462
11
5.475
21
14.995
0
LINE
8
BLACK
6
CONTINUOUS
10
5.475
20
14.995
11
5.475
21
15.92
0
LINE
8
BLACK
6
CONTINUOUS
10
5.475
20
15.92
11
5.4798
21
15.9688
0
LINE
8
BLACK
6
CONTINUOUS
10
5.4798
20
15.9688
11
5.49403
21
16.0157
0
LINE
8
BLACK
6
CONTINUOUS
10
5.49403
20
16.0157
11
5.51713
21
16.0589
0
LINE
8
BLACK
6
CONTINUOUS
10
5.51713
20
16.0589
11
5.54822
21
16.0968
0
LINE
8
BLACK
6
CONTINUOUS
10
5.54822
20
16.0968
11
5.58611
21
16.1279
0
LINE
8
BLACK
6
CONTINUOUS
10
5.58611
20
16.1279
11
5.62933
21
16.151
0
LINE
8
BLACK
6
CONTINUOUS
10
5.62933
20
16.151
11
5.67623
21
16.1652
0
LINE
8
BLACK
6
CONTINUOUS
10
5.67623
20
16.1652
11
5.725
21
16.17
0
LINE
8
BLACK
6
CONTINUOUS
10
5.725
20
16.17
11
6.975
21
16.17
0
LINE
8
BLACK
6
CONTINUOUS
10
6.975
20
16.17
11
7.02377
21
16.1652
0
LINE
8
BLACK
6
CONTINUOUS
10
3.21377
20
16.1652
11
3.26067
21
16.151
0
LINE
8
BLACK
6
CONTINUOUS
10
3.26067
20
16.151
11
3.30389
21
16.1279
0
LINE
8
BLACK
6
CONTINUOUS
10
3.30389
20
16.1279
11
3.34178
21
16.0968
0
LINE
8
BLACK
6
CONTINUOUS
10
3.34178
20
16.0968
11
3.37287
21
16.0589
0
LINE
8
BLACK
6
CONTINUOUS
10
3.37287
20
16.0589
11
3.39597
21
16.0157
0
LINE
8
BLACK
6
CONTINUOUS
10
3.39597
20
16.0157
11
3.4102
21
15.9688
0
LINE
8
BLACK
6
CONTINUOUS
10
3.4102
20
15.9688
11
3.415
21
15.92
0
LINE
8
BLACK
6
CONTINUOUS
10
3.415
20
15.92
11
3.415
21
14.995
0
LINE
8
BLACK
6
CONTINUOUS
10
3.415
20
14.995
11
3.4102
21
14.9462
0
LINE
8
BLACK
6
CONTINUOUS
10
3.4102
20
14.9462
11
3.39597
21
14.8993
0
LINE
8
BLACK
6
CONTINUOUS
10
3.39597
20
14.8993
11
3.37287
21
14.8561
0
LINE
8
BLACK
6
CONTINUOUS
10
3.37287
20
14.8561
11
3.34178
21
14.8182
0
LINE
8
BLACK
6
CONTINUOUS
10
3.34178
20
14.8182
11
3.30389
21
14.7871
0
LINE
8
BLACK
6
CONTINUOUS
10
3.30389
20
14.7871
11
3.26067
21
14.764
0
LINE
8
BLACK
6
CONTINUOUS
10
3.26067
20
14.764
11
3.21377
21
14.7498
0
LINE
8
BLACK
6
CONTINUOUS
10
3.21377
20
14.7498
11
3.165
21
14.745
0
LINE
8
BLACK
6
CONTINUOUS
10
3.165
20
14.745
11
1.915
21
14.745
0
LINE
8
BLACK
6
CONTINUOUS
10
1.915
20
14.745
11
1.86623
21
14.7498
0
LINE
8
BLACK
6
CONTINUOUS
10
1.86623
20
14.7498
11
1.81933
21
14.764
0
LINE
8
BLACK
6
CONTINUOUS
10
1.81933
20
14.764
11
1.77611
21
14.7871
0
LINE
8
BLACK
6
CONTINUOUS
10
1.77611
20
14.7871
11
1.73822
21
14.8182
0
LINE
8
BLACK
6
CONTINUOUS
10
1.73822
20
14.8182
11
1.70713
21
14.8561
0
LINE
8
BLACK
6
CONTINUOUS
10
1.70713
20
14.8561
11
1.68403
21
14.8993
0
LINE
8
BLACK
6
CONTINUOUS
10
1.68403
20
14.8993
11
1.6698
21
14.9462
0
LINE
8
BLACK
6
CONTINUOUS
10
1.6698
20
14.9462
11
1.665
21
14.995
0
LINE
8
BLACK
6
CONTINUOUS
10
1.665
20
14.995
11
1.665
21
15.92
0
LINE
8
BLACK
6
CONTINUOUS
10
1.665
20
15.92
11
1.6698
21
15.9688
0
LINE
8
BLACK
6
CONTINUOUS
10
1.6698
20
15.9688
11
1.68403
21
16.0157
0
LINE
8
BLACK
6
CONTINUOUS
10
1.68403
20
16.0157
11
1.70713
21
16.0589
0
LINE
8
BLACK
6
CONTINUOUS
10
1.70713
20
16.0589
11
1.73822
21
16.0968
0
LINE
8
BLACK
6
CONTINUOUS
10
1.73822
20
16.0968
11
1.77611
21
16.1279
0
LINE
8
BLACK
6
CONTINUOUS
10
1.77611
20
16.1279
11
1.81933
21
16.151
0
LINE
8
BLACK
6
CONTINUOUS
10
1.81933
20
16.151
11
1.86623
21
16.1652
0
LINE
8
BLACK
6
CONTINUOUS
10
1.86623
20
16.1652
11
1.915
21
16.17
0
LINE
8
BLACK
6
CONTINUOUS
10
1.915
20
16.17
11
3.165
21
16.17
0
LINE
8
BLACK
6
CONTINUOUS
10
3.165
20
16.17
11
3.21377
21
16.1652
  0
ENDSEC
  0
EOF
