M48
; DRILL file {KiCad (5.1.6)-1} date 05/08/24 10:03:11
; FORMAT={-:-/ absolute / metric / decimal}
; #@! TF.CreationDate,2024-05-08T10:03:11-05:00
; #@! TF.GenerationSoftware,Kicad,Pcbnew,(5.1.6)-1
FMAT,2
METRIC
T1C0.800
T2C0.900
T3C3.200
%
G90
G05
T1
X90.805Y6.985
X85.09Y6.985
X83.82Y9.525
X90.805Y9.525
X107.95Y9.525
X128.14Y9.655
X83.82Y12.065
X107.95Y12.065
X136.525Y12.7
X120.65Y12.7
X71.755Y14.605
X83.82Y14.605
X98.425Y16.51
X116.84Y17.78
X132.08Y17.78
X92.71Y19.05
X77.47Y19.05
X116.84Y20.32
X132.08Y20.32
X64.77Y20.955
X54.61Y20.955
X77.47Y21.59
X92.71Y21.59
X132.08Y22.86
X116.84Y22.86
X77.47Y24.13
X92.71Y24.13
X132.08Y25.4
X120.015Y25.4
X116.84Y25.4
X77.47Y26.67
X92.71Y26.67
X132.08Y27.94
X116.84Y27.94
X77.47Y29.21
X92.71Y29.21
X132.08Y30.48
X116.84Y30.48
X52.705Y30.48
X19.05Y31.115
X92.71Y31.75
X77.47Y31.75
X6.35Y32.616
X132.08Y33.02
X116.84Y33.02
X77.47Y34.29
X92.71Y34.29
X72.898Y34.417
X123.711Y35.446
X132.08Y35.56
X116.84Y35.56
X77.47Y36.83
X92.71Y36.83
X132.08Y38.1
X116.84Y38.1
X54.61Y38.1
X52.07Y38.1
X49.53Y38.1
X46.99Y38.1
X44.45Y38.1
X41.91Y38.1
X39.37Y38.1
X36.83Y38.1
X34.29Y38.1
X31.75Y38.1
X29.21Y38.1
X26.67Y38.1
X24.13Y38.1
X21.59Y38.1
X19.05Y38.1
X16.51Y38.1
X13.97Y38.1
X11.43Y38.1
X8.89Y38.1
X6.35Y38.1
X77.47Y39.37
X92.71Y39.37
X132.08Y40.64
X116.84Y40.64
X77.47Y41.91
X92.71Y41.91
X34.29Y42.545
X116.84Y43.18
X132.08Y43.18
X52.768Y43.815
X77.47Y44.45
X92.71Y44.45
X132.08Y45.72
X116.84Y45.72
X42.545Y46.355
X52.705Y46.355
X92.71Y46.99
X77.47Y46.99
X72.898Y46.99
X116.84Y48.26
X126.04Y48.26
X132.08Y48.26
X92.71Y49.53
X77.47Y49.53
X72.834Y49.53
X68.58Y49.53
X6.35Y50.165
X34.29Y50.165
X36.83Y50.165
X132.08Y50.8
X116.84Y50.8
X77.47Y52.07
X92.71Y52.07
X100.33Y52.07
X102.87Y52.07
X105.41Y52.07
X54.61Y53.34
X52.07Y53.34
X49.53Y53.34
X46.99Y53.34
X44.45Y53.34
X41.91Y53.34
X39.37Y53.34
X36.83Y53.34
X34.29Y53.34
X31.75Y53.34
X29.21Y53.34
X26.67Y53.34
X24.13Y53.34
X21.59Y53.34
X19.05Y53.34
X16.51Y53.34
X13.97Y53.34
X11.43Y53.34
X8.89Y53.34
X6.35Y53.34
X77.47Y54.61
X92.71Y54.61
X140.97Y55.88
X133.35Y55.88
X77.47Y57.15
X92.71Y57.15
X72.39Y57.785
X77.47Y59.69
X92.71Y59.69
X62.02Y60.66
X54.4Y60.66
X48.05Y60.66
X104.14Y60.96
X106.68Y60.96
X109.22Y60.96
X111.76Y60.96
X114.3Y60.96
X116.84Y60.96
X119.38Y60.96
X121.92Y60.96
X124.46Y60.96
X127.0Y60.96
X129.54Y60.96
X132.08Y60.96
X134.62Y60.96
X137.16Y60.96
X139.7Y60.96
X142.24Y60.96
X92.71Y62.23
X77.47Y62.23
X34.08Y63.2
X48.05Y63.2
X92.71Y64.77
X77.47Y64.77
X48.05Y65.74
X92.71Y67.31
X77.47Y67.31
X87.63Y67.945
X92.71Y69.85
X77.47Y69.85
X60.96Y69.85
X58.42Y69.85
X24.13Y69.85
X21.59Y69.85
X77.47Y72.39
X92.71Y72.39
X104.14Y73.66
X106.68Y74.295
X92.71Y74.93
X88.9Y74.93
X77.47Y74.93
X31.75Y76.2
X38.1Y76.2
X44.45Y76.2
X50.8Y76.2
X109.22Y76.2
X111.76Y76.2
X114.3Y76.2
X116.84Y76.2
X119.38Y76.2
X121.92Y76.2
X124.46Y76.2
X127.0Y76.2
X129.54Y76.2
X132.08Y76.2
X134.62Y76.2
X137.16Y76.2
X139.7Y76.2
X142.24Y76.2
X92.71Y77.47
X88.9Y77.47
X82.042Y77.47
X77.47Y77.47
X60.96Y77.47
X58.42Y77.47
X24.13Y77.47
X21.59Y77.47
X31.75Y78.74
X38.1Y78.74
X44.45Y78.74
X50.8Y78.74
X79.52Y79.965
X88.9Y80.01
X88.9Y82.55
T2
X95.25Y10.16
X97.79Y10.16
X100.33Y10.16
X102.87Y10.16
X67.31Y17.145
X64.77Y17.145
X62.23Y17.145
X59.69Y17.145
X57.15Y17.145
X54.61Y17.145
X52.07Y17.145
X49.53Y17.145
X31.75Y17.145
X29.21Y17.145
X26.67Y17.145
X24.13Y17.145
X21.59Y17.145
X19.05Y17.145
X16.51Y17.145
X13.97Y17.145
T3
X10.16Y3.81
X143.51Y3.81
X143.51Y85.09
X10.16Y85.09
T0
M30
