%TF.GenerationSoftware,KiCad,Pcbnew,(5.1.6)-1*%
%TF.CreationDate,2025-01-27T19:57:42-05:00*%
%TF.ProjectId,test,74657374-2e6b-4696-9361-645f70636258,rev?*%
%TF.SameCoordinates,PX876bf80PY5f5e100*%
%TF.FileFunction,Copper,L1,Top*%
%TF.FilePolarity,Positive*%
%FSLAX46Y46*%
G04 Gerber Fmt 4.6, Leading zero omitted, Abs format (unit mm)*
G04 Created by KiCad (PCBNEW (5.1.6)-1) date 2025-01-27 19:57:42*
%MOMM*%
%LPD*%
G01*
G04 APERTURE LIST*
%TA.AperFunction,SMDPad,CuDef*%
%ADD10R,3.000000X1.500000*%
%TD*%
%TA.AperFunction,ComponentPad*%
%ADD11C,2.200000*%
%TD*%
%TA.AperFunction,ComponentPad*%
%ADD12O,3.470000X2.200000*%
%TD*%
%TA.AperFunction,ViaPad*%
%ADD13C,2.000000*%
%TD*%
%TA.AperFunction,ViaPad*%
%ADD14C,0.600000*%
%TD*%
%TA.AperFunction,Conductor*%
%ADD15C,0.800000*%
%TD*%
%TA.AperFunction,Conductor*%
%ADD16C,1.500000*%
%TD*%
%TA.AperFunction,Conductor*%
%ADD17C,2.000000*%
%TD*%
%TA.AperFunction,Conductor*%
%ADD18C,1.000000*%
%TD*%
%TA.AperFunction,Conductor*%
%ADD19C,0.400000*%
%TD*%
%TA.AperFunction,Conductor*%
%ADD20C,0.500000*%
%TD*%
G04 APERTURE END LIST*
%TO.P,C6,2*%
%TO.N,GND*%
%TA.AperFunction,SMDPad,CuDef*%
G36*
G01*
X23475000Y14025000D02*
X24725000Y14025000D01*
G75*
G02*
X24975000Y13775000I0J-250000D01*
G01*
X24975000Y12850000D01*
G75*
G02*
X24725000Y12600000I-250000J0D01*
G01*
X23475000Y12600000D01*
G75*
G02*
X23225000Y12850000I0J250000D01*
G01*
X23225000Y13775000D01*
G75*
G02*
X23475000Y14025000I250000J0D01*
G01*
G37*
%TD.AperFunction*%
%TO.P,C6,1*%
%TO.N,+5V*%
%TA.AperFunction,SMDPad,CuDef*%
G36*
G01*
X23475000Y17000000D02*
X24725000Y17000000D01*
G75*
G02*
X24975000Y16750000I0J-250000D01*
G01*
X24975000Y15825000D01*
G75*
G02*
X24725000Y15575000I-250000J0D01*
G01*
X23475000Y15575000D01*
G75*
G02*
X23225000Y15825000I0J250000D01*
G01*
X23225000Y16750000D01*
G75*
G02*
X23475000Y17000000I250000J0D01*
G01*
G37*
%TD.AperFunction*%
%TD*%
D10*
%TO.P,D3,3*%
%TO.N,GND*%
X5050000Y20100000D03*
%TO.P,D3,4*%
%TO.N,LED_DIN*%
X5050000Y16900000D03*
%TO.P,D3,2*%
%TO.N,Net-(D3-Pad2)*%
X10950000Y20100000D03*
%TO.P,D3,1*%
%TO.N,+5V*%
X10950000Y16900000D03*
%TD*%
%TO.P,D4,1*%
%TO.N,+5V*%
X55950000Y16800000D03*
%TO.P,D4,2*%
%TO.N,LED_DOUT*%
X55950000Y20000000D03*
%TO.P,D4,4*%
%TO.N,Net-(D3-Pad2)*%
X50050000Y16800000D03*
%TO.P,D4,3*%
%TO.N,GND*%
X50050000Y20000000D03*
%TD*%
D11*
%TO.P,J1,1*%
%TO.N,BTN_SENSE*%
X24150000Y21700000D03*
%TO.P,J1,2*%
%TO.N,LED_DIN*%
X26690000Y21700000D03*
%TO.P,J1,3*%
%TO.N,BTN_DIN*%
X29230000Y21700000D03*
%TO.P,J1,4*%
%TO.N,GND*%
X31770000Y21700000D03*
%TO.P,J1,5*%
%TO.N,BTN_CLK*%
X34310000Y21700000D03*
%TO.P,J1,6*%
%TO.N,+5V*%
X36850000Y21700000D03*
%TD*%
%TO.P,J2,6*%
%TO.N,+5V*%
X36950000Y3300000D03*
%TO.P,J2,5*%
%TO.N,BTN_CLK*%
X34410000Y3300000D03*
%TO.P,J2,4*%
%TO.N,GND*%
X31870000Y3300000D03*
%TO.P,J2,3*%
%TO.N,BTN_DOUT*%
X29330000Y3300000D03*
%TO.P,J2,2*%
%TO.N,LED_DOUT*%
X26790000Y3300000D03*
%TO.P,J2,1*%
%TO.N,BTN_SENSE*%
X24250000Y3300000D03*
%TD*%
%TO.P,C3,2*%
%TO.N,GND*%
%TA.AperFunction,SMDPad,CuDef*%
G36*
G01*
X7225000Y14625000D02*
X7225000Y13375000D01*
G75*
G02*
X6975000Y13125000I-250000J0D01*
G01*
X6050000Y13125000D01*
G75*
G02*
X5800000Y13375000I0J250000D01*
G01*
X5800000Y14625000D01*
G75*
G02*
X6050000Y14875000I250000J0D01*
G01*
X6975000Y14875000D01*
G75*
G02*
X7225000Y14625000I0J-250000D01*
G01*
G37*
%TD.AperFunction*%
%TO.P,C3,1*%
%TO.N,+5V*%
%TA.AperFunction,SMDPad,CuDef*%
G36*
G01*
X10200000Y14625000D02*
X10200000Y13375000D01*
G75*
G02*
X9950000Y13125000I-250000J0D01*
G01*
X9025000Y13125000D01*
G75*
G02*
X8775000Y13375000I0J250000D01*
G01*
X8775000Y14625000D01*
G75*
G02*
X9025000Y14875000I250000J0D01*
G01*
X9950000Y14875000D01*
G75*
G02*
X10200000Y14625000I0J-250000D01*
G01*
G37*
%TD.AperFunction*%
%TD*%
%TO.P,C4,2*%
%TO.N,GND*%
%TA.AperFunction,SMDPad,CuDef*%
G36*
G01*
X52225000Y14825000D02*
X52225000Y13575000D01*
G75*
G02*
X51975000Y13325000I-250000J0D01*
G01*
X51050000Y13325000D01*
G75*
G02*
X50800000Y13575000I0J250000D01*
G01*
X50800000Y14825000D01*
G75*
G02*
X51050000Y15075000I250000J0D01*
G01*
X51975000Y15075000D01*
G75*
G02*
X52225000Y14825000I0J-250000D01*
G01*
G37*
%TD.AperFunction*%
%TO.P,C4,1*%
%TO.N,+5V*%
%TA.AperFunction,SMDPad,CuDef*%
G36*
G01*
X55200000Y14825000D02*
X55200000Y13575000D01*
G75*
G02*
X54950000Y13325000I-250000J0D01*
G01*
X54025000Y13325000D01*
G75*
G02*
X53775000Y13575000I0J250000D01*
G01*
X53775000Y14825000D01*
G75*
G02*
X54025000Y15075000I250000J0D01*
G01*
X54950000Y15075000D01*
G75*
G02*
X55200000Y14825000I0J-250000D01*
G01*
G37*
%TD.AperFunction*%
%TD*%
D12*
%TO.P,SW3,2*%
%TO.N,BTN_SENSE*%
X12460000Y3460000D03*
%TO.P,SW3,1*%
%TO.N,Net-(SW3-Pad1)*%
X12460000Y8540000D03*
%TO.P,SW3,2*%
%TO.N,BTN_SENSE*%
X3540000Y3460000D03*
%TO.P,SW3,1*%
%TO.N,Net-(SW3-Pad1)*%
X3540000Y8540000D03*
%TD*%
%TO.P,SW4,1*%
%TO.N,Net-(SW4-Pad1)*%
X48540000Y8540000D03*
%TO.P,SW4,2*%
%TO.N,BTN_SENSE*%
X48540000Y3460000D03*
%TO.P,SW4,1*%
%TO.N,Net-(SW4-Pad1)*%
X57460000Y8540000D03*
%TO.P,SW4,2*%
%TO.N,BTN_SENSE*%
X57460000Y3460000D03*
%TD*%
%TO.P,U1,1*%
%TO.N,Net-(SW1-Pad1)*%
%TA.AperFunction,SMDPad,CuDef*%
G36*
G01*
X26192500Y10250000D02*
X25917500Y10250000D01*
G75*
G02*
X25780000Y10387500I0J137500D01*
G01*
X25780000Y11712500D01*
G75*
G02*
X25917500Y11850000I137500J0D01*
G01*
X26192500Y11850000D01*
G75*
G02*
X26330000Y11712500I0J-137500D01*
G01*
X26330000Y10387500D01*
G75*
G02*
X26192500Y10250000I-137500J0D01*
G01*
G37*
%TD.AperFunction*%
%TO.P,U1,2*%
%TO.N,Net-(SW2-Pad1)*%
%TA.AperFunction,SMDPad,CuDef*%
G36*
G01*
X27462500Y10250000D02*
X27187500Y10250000D01*
G75*
G02*
X27050000Y10387500I0J137500D01*
G01*
X27050000Y11712500D01*
G75*
G02*
X27187500Y11850000I137500J0D01*
G01*
X27462500Y11850000D01*
G75*
G02*
X27600000Y11712500I0J-137500D01*
G01*
X27600000Y10387500D01*
G75*
G02*
X27462500Y10250000I-137500J0D01*
G01*
G37*
%TD.AperFunction*%
%TO.P,U1,3*%
%TO.N,Net-(SW3-Pad1)*%
%TA.AperFunction,SMDPad,CuDef*%
G36*
G01*
X28732500Y10250000D02*
X28457500Y10250000D01*
G75*
G02*
X28320000Y10387500I0J137500D01*
G01*
X28320000Y11712500D01*
G75*
G02*
X28457500Y11850000I137500J0D01*
G01*
X28732500Y11850000D01*
G75*
G02*
X28870000Y11712500I0J-137500D01*
G01*
X28870000Y10387500D01*
G75*
G02*
X28732500Y10250000I-137500J0D01*
G01*
G37*
%TD.AperFunction*%
%TO.P,U1,4*%
%TO.N,Net-(SW4-Pad1)*%
%TA.AperFunction,SMDPad,CuDef*%
G36*
G01*
X30002500Y10250000D02*
X29727500Y10250000D01*
G75*
G02*
X29590000Y10387500I0J137500D01*
G01*
X29590000Y11712500D01*
G75*
G02*
X29727500Y11850000I137500J0D01*
G01*
X30002500Y11850000D01*
G75*
G02*
X30140000Y11712500I0J-137500D01*
G01*
X30140000Y10387500D01*
G75*
G02*
X30002500Y10250000I-137500J0D01*
G01*
G37*
%TD.AperFunction*%
%TO.P,U1,5*%
%TO.N,Net-(SW5-Pad1)*%
%TA.AperFunction,SMDPad,CuDef*%
G36*
G01*
X31272500Y10250000D02*
X30997500Y10250000D01*
G75*
G02*
X30860000Y10387500I0J137500D01*
G01*
X30860000Y11712500D01*
G75*
G02*
X30997500Y11850000I137500J0D01*
G01*
X31272500Y11850000D01*
G75*
G02*
X31410000Y11712500I0J-137500D01*
G01*
X31410000Y10387500D01*
G75*
G02*
X31272500Y10250000I-137500J0D01*
G01*
G37*
%TD.AperFunction*%
%TO.P,U1,6*%
%TO.N,Net-(U1-Pad6)*%
%TA.AperFunction,SMDPad,CuDef*%
G36*
G01*
X32542500Y10250000D02*
X32267500Y10250000D01*
G75*
G02*
X32130000Y10387500I0J137500D01*
G01*
X32130000Y11712500D01*
G75*
G02*
X32267500Y11850000I137500J0D01*
G01*
X32542500Y11850000D01*
G75*
G02*
X32680000Y11712500I0J-137500D01*
G01*
X32680000Y10387500D01*
G75*
G02*
X32542500Y10250000I-137500J0D01*
G01*
G37*
%TD.AperFunction*%
%TO.P,U1,7*%
%TO.N,Net-(U1-Pad7)*%
%TA.AperFunction,SMDPad,CuDef*%
G36*
G01*
X33812500Y10250000D02*
X33537500Y10250000D01*
G75*
G02*
X33400000Y10387500I0J137500D01*
G01*
X33400000Y11712500D01*
G75*
G02*
X33537500Y11850000I137500J0D01*
G01*
X33812500Y11850000D01*
G75*
G02*
X33950000Y11712500I0J-137500D01*
G01*
X33950000Y10387500D01*
G75*
G02*
X33812500Y10250000I-137500J0D01*
G01*
G37*
%TD.AperFunction*%
%TO.P,U1,8*%
%TO.N,GND*%
%TA.AperFunction,SMDPad,CuDef*%
G36*
G01*
X35082500Y10250000D02*
X34807500Y10250000D01*
G75*
G02*
X34670000Y10387500I0J137500D01*
G01*
X34670000Y11712500D01*
G75*
G02*
X34807500Y11850000I137500J0D01*
G01*
X35082500Y11850000D01*
G75*
G02*
X35220000Y11712500I0J-137500D01*
G01*
X35220000Y10387500D01*
G75*
G02*
X35082500Y10250000I-137500J0D01*
G01*
G37*
%TD.AperFunction*%
%TO.P,U1,9*%
%TO.N,BTN_DOUT*%
%TA.AperFunction,SMDPad,CuDef*%
G36*
G01*
X35082500Y16750000D02*
X34807500Y16750000D01*
G75*
G02*
X34670000Y16887500I0J137500D01*
G01*
X34670000Y18212500D01*
G75*
G02*
X34807500Y18350000I137500J0D01*
G01*
X35082500Y18350000D01*
G75*
G02*
X35220000Y18212500I0J-137500D01*
G01*
X35220000Y16887500D01*
G75*
G02*
X35082500Y16750000I-137500J0D01*
G01*
G37*
%TD.AperFunction*%
%TO.P,U1,10*%
%TO.N,+5V*%
%TA.AperFunction,SMDPad,CuDef*%
G36*
G01*
X33812500Y16750000D02*
X33537500Y16750000D01*
G75*
G02*
X33400000Y16887500I0J137500D01*
G01*
X33400000Y18212500D01*
G75*
G02*
X33537500Y18350000I137500J0D01*
G01*
X33812500Y18350000D01*
G75*
G02*
X33950000Y18212500I0J-137500D01*
G01*
X33950000Y16887500D01*
G75*
G02*
X33812500Y16750000I-137500J0D01*
G01*
G37*
%TD.AperFunction*%
%TO.P,U1,11*%
%TO.N,BTN_CLK*%
%TA.AperFunction,SMDPad,CuDef*%
G36*
G01*
X32542500Y16750000D02*
X32267500Y16750000D01*
G75*
G02*
X32130000Y16887500I0J137500D01*
G01*
X32130000Y18212500D01*
G75*
G02*
X32267500Y18350000I137500J0D01*
G01*
X32542500Y18350000D01*
G75*
G02*
X32680000Y18212500I0J-137500D01*
G01*
X32680000Y16887500D01*
G75*
G02*
X32542500Y16750000I-137500J0D01*
G01*
G37*
%TD.AperFunction*%
%TO.P,U1,12*%
%TA.AperFunction,SMDPad,CuDef*%
G36*
G01*
X31272500Y16750000D02*
X30997500Y16750000D01*
G75*
G02*
X30860000Y16887500I0J137500D01*
G01*
X30860000Y18212500D01*
G75*
G02*
X30997500Y18350000I137500J0D01*
G01*
X31272500Y18350000D01*
G75*
G02*
X31410000Y18212500I0J-137500D01*
G01*
X31410000Y16887500D01*
G75*
G02*
X31272500Y16750000I-137500J0D01*
G01*
G37*
%TD.AperFunction*%
%TO.P,U1,13*%
%TO.N,GND*%
%TA.AperFunction,SMDPad,CuDef*%
G36*
G01*
X30002500Y16750000D02*
X29727500Y16750000D01*
G75*
G02*
X29590000Y16887500I0J137500D01*
G01*
X29590000Y18212500D01*
G75*
G02*
X29727500Y18350000I137500J0D01*
G01*
X30002500Y18350000D01*
G75*
G02*
X30140000Y18212500I0J-137500D01*
G01*
X30140000Y16887500D01*
G75*
G02*
X30002500Y16750000I-137500J0D01*
G01*
G37*
%TD.AperFunction*%
%TO.P,U1,14*%
%TO.N,BTN_DIN*%
%TA.AperFunction,SMDPad,CuDef*%
G36*
G01*
X28732500Y16750000D02*
X28457500Y16750000D01*
G75*
G02*
X28320000Y16887500I0J137500D01*
G01*
X28320000Y18212500D01*
G75*
G02*
X28457500Y18350000I137500J0D01*
G01*
X28732500Y18350000D01*
G75*
G02*
X28870000Y18212500I0J-137500D01*
G01*
X28870000Y16887500D01*
G75*
G02*
X28732500Y16750000I-137500J0D01*
G01*
G37*
%TD.AperFunction*%
%TO.P,U1,15*%
%TO.N,Net-(U1-Pad15)*%
%TA.AperFunction,SMDPad,CuDef*%
G36*
G01*
X27462500Y16750000D02*
X27187500Y16750000D01*
G75*
G02*
X27050000Y16887500I0J137500D01*
G01*
X27050000Y18212500D01*
G75*
G02*
X27187500Y18350000I137500J0D01*
G01*
X27462500Y18350000D01*
G75*
G02*
X27600000Y18212500I0J-137500D01*
G01*
X27600000Y16887500D01*
G75*
G02*
X27462500Y16750000I-137500J0D01*
G01*
G37*
%TD.AperFunction*%
%TO.P,U1,16*%
%TO.N,+5V*%
%TA.AperFunction,SMDPad,CuDef*%
G36*
G01*
X26192500Y16750000D02*
X25917500Y16750000D01*
G75*
G02*
X25780000Y16887500I0J137500D01*
G01*
X25780000Y18212500D01*
G75*
G02*
X25917500Y18350000I137500J0D01*
G01*
X26192500Y18350000D01*
G75*
G02*
X26330000Y18212500I0J-137500D01*
G01*
X26330000Y16887500D01*
G75*
G02*
X26192500Y16750000I-137500J0D01*
G01*
G37*
%TD.AperFunction*%
%TD*%
D13*
%TO.N,+5V*%
X45200000Y14500000D03*
X45100000Y8200000D03*
X21700000Y11600000D03*
X21700000Y18400000D03*
%TO.N,LED_DOUT*%
X38200000Y12300000D03*
%TO.N,Net-(D3-Pad2)*%
X44800000Y20200000D03*
X14600000Y20300000D03*
%TO.N,Net-(SW2-Pad1)*%
X15600000Y9700000D03*
X15500000Y6200000D03*
D14*
%TO.N,Net-(SW5-Pad1)*%
X57500000Y10700000D03*
D13*
%TO.N,LED_DIN*%
X19400000Y18400000D03*
X19400000Y11600000D03*
%TO.N,LED_DOUT*%
X38200000Y8200000D03*
%TO.N,BTN_CLK*%
X42800000Y8200000D03*
X42800000Y14500000D03*
%TO.N,BTN_SENSE*%
X17900000Y6200000D03*
X46800000Y6100000D03*
X24200000Y6300000D03*
X17100000Y18400000D03*
%TO.N,BTN_DOUT*%
X40500000Y8200000D03*
X40200000Y15000000D03*
%TD*%
D15*
%TO.N,+5V*%
X26087500Y16687500D02*
X26100000Y16700000D01*
X23900000Y15787500D02*
X26087500Y15787500D01*
X26100000Y16700000D02*
X26100000Y18200000D01*
X26100000Y16700000D02*
X26100000Y15700000D01*
D16*
X36950000Y3400000D02*
X36950000Y3450000D01*
D15*
X48275010Y12724990D02*
X50624990Y12724990D01*
X50624990Y12724990D02*
X54424990Y12724990D01*
D17*
X36950000Y3300000D02*
X37000000Y3300000D01*
D15*
X55950000Y16800000D02*
X55950000Y16550000D01*
X55675010Y12724990D02*
X54424990Y12724990D01*
D16*
X36950000Y3300000D02*
X36950000Y3750000D01*
X36950000Y3750000D02*
X37049990Y3849990D01*
X37049990Y3849990D02*
X40716615Y3849990D01*
X40716615Y3849990D02*
X43116623Y6249999D01*
X43736001Y6249999D02*
X43116623Y6249999D01*
X44750001Y7263999D02*
X43736001Y6249999D01*
D15*
X45100000Y8400000D02*
X45449980Y8749980D01*
X45100000Y8200000D02*
X45100000Y8400000D01*
X45249980Y8800000D02*
X45800000Y8800000D01*
X45800000Y8749980D02*
X45800000Y7600000D01*
X45086002Y7600000D02*
X44750001Y7263999D01*
X45800000Y7600000D02*
X44886002Y7600000D01*
X45100000Y8200000D02*
X44500000Y8200000D01*
X44400000Y8700000D02*
X44400000Y7586002D01*
X45050020Y8749980D02*
X44400000Y8749980D01*
X45100000Y8200000D02*
X45100000Y8700000D01*
X45100000Y8700000D02*
X45050020Y8749980D01*
D16*
X36850000Y21700000D02*
X36850000Y21086620D01*
X44750001Y14949999D02*
X45200000Y14500000D01*
X44750001Y15616624D02*
X44750001Y14949999D01*
X39816615Y20550010D02*
X44750001Y15616624D01*
X36850000Y21086620D02*
X37386610Y20550010D01*
X37386610Y20550010D02*
X39816615Y20550010D01*
D15*
X40143012Y12724990D02*
X38968001Y13900001D01*
X40824990Y12724990D02*
X40143012Y12724990D01*
X40375010Y12724990D02*
X40824990Y12724990D01*
X10950000Y16900000D02*
X10950000Y16850000D01*
X10950000Y16850000D02*
X10500000Y16400000D01*
D16*
X9487500Y14000000D02*
X9487500Y13012500D01*
D15*
X45200000Y12749980D02*
X45224990Y12724990D01*
X45200000Y14500000D02*
X45200000Y12749980D01*
X40824990Y12724990D02*
X45224990Y12724990D01*
X45224990Y12724990D02*
X50624990Y12724990D01*
X38968001Y13900001D02*
X38968001Y13931999D01*
X38968001Y13931999D02*
X37900000Y15000000D01*
X26800000Y15000000D02*
X26100000Y15700000D01*
X33700000Y18100000D02*
X33700000Y15200000D01*
X37900000Y15000000D02*
X33500000Y15000000D01*
X33700000Y15200000D02*
X33500000Y15000000D01*
X33500000Y15000000D02*
X26800000Y15000000D01*
X10200000Y14000000D02*
X10500000Y13700000D01*
X9487500Y14000000D02*
X10200000Y14000000D01*
X10500000Y16400000D02*
X10500000Y13700000D01*
X10500000Y13700000D02*
X10500000Y12500000D01*
X9800000Y12500000D02*
X10500000Y12500000D01*
X9800000Y12500000D02*
X12177545Y12500000D01*
X55200000Y14200000D02*
X55400000Y14000000D01*
X54487500Y14200000D02*
X55200000Y14200000D01*
X55400000Y14000000D02*
X55400000Y12749980D01*
X12177545Y12500000D02*
X13277544Y12500000D01*
X14027565Y13250021D02*
X20049979Y13250021D01*
X20049979Y13250021D02*
X21700000Y11600000D01*
X13277544Y12500000D02*
X14027565Y13250021D01*
X23812500Y16287500D02*
X21700000Y18400000D01*
X24100000Y16287500D02*
X23812500Y16287500D01*
X55400000Y12749980D02*
X55700001Y12749980D01*
X55700001Y12749980D02*
X57049991Y14099970D01*
X57049991Y14099970D02*
X57049991Y16700000D01*
%TO.N,Net-(D3-Pad2)*%
X50050000Y16800000D02*
X47700000Y16800000D01*
X47700000Y16800000D02*
X44800000Y19700000D01*
X10950000Y20100000D02*
X13900000Y20100000D01*
X13900000Y20100000D02*
X14200000Y19800000D01*
X44800000Y19700000D02*
X44800000Y19700000D01*
X14200000Y19800000D02*
X14200000Y19800000D01*
%TO.N,Net-(SW1-Pad1)*%
X26100000Y10443517D02*
X26100000Y11600000D01*
X25606493Y9950010D02*
X26100000Y10443517D01*
X16344001Y11250001D02*
X17643992Y9950010D01*
X14855999Y11250001D02*
X16344001Y11250001D01*
X13049999Y10499980D02*
X14105978Y10499980D01*
X14105978Y10499980D02*
X14855999Y11250001D01*
X17643992Y9950010D02*
X25606493Y9950010D01*
X13049999Y10499980D02*
X2500020Y10499980D01*
%TO.N,Net-(SW2-Pad1)*%
X27325000Y10250000D02*
X26375000Y9300000D01*
X26300000Y9300000D02*
X26000000Y9000000D01*
X26375000Y9300000D02*
X26300000Y9300000D01*
X27325000Y11050000D02*
X27325000Y11575000D01*
X27325000Y11575000D02*
X27300000Y11600000D01*
X27300000Y11600000D02*
X27300000Y10300000D01*
X27300000Y10300000D02*
X26000000Y9000000D01*
X16300000Y9000000D02*
X15600000Y9700000D01*
X26000000Y9000000D02*
X16300000Y9000000D01*
X2600000Y6200000D02*
X15500000Y6200000D01*
%TO.N,Net-(SW3-Pad1)*%
X16449990Y8049990D02*
X12150010Y8049990D01*
X12150010Y8049990D02*
X11700000Y8500000D01*
X16449990Y8049990D02*
X26468507Y8049990D01*
X28600000Y10181483D02*
X28600000Y11700000D01*
X26468507Y8049990D02*
X28600000Y10181483D01*
X11810000Y8540000D02*
X11540000Y8540000D01*
X4400000Y7840009D02*
X4400000Y8300000D01*
X4400000Y8300000D02*
X4200000Y8500000D01*
X11810000Y9410000D02*
X11800000Y9420000D01*
X11810000Y8540000D02*
X11810000Y9410000D01*
X11800000Y9500000D02*
X11750030Y9549970D01*
X11800000Y9420000D02*
X11800000Y9500000D01*
X11750030Y9549970D02*
X4200000Y9549970D01*
X4200000Y9549970D02*
X4200000Y8700000D01*
X4200000Y8700000D02*
X4300000Y8600000D01*
%TO.N,Net-(SW4-Pad1)*%
X29900000Y10156483D02*
X31356502Y8699980D01*
X31356502Y8699980D02*
X35899980Y8699980D01*
X55600010Y9749990D02*
X56810000Y8540000D01*
X29900000Y11600000D02*
X29900000Y10156483D01*
X35899980Y8699980D02*
X36949990Y9749990D01*
X49190000Y9610000D02*
X49050010Y9749990D01*
X49190000Y8540000D02*
X49190000Y9610000D01*
X36949990Y9749990D02*
X49050010Y9749990D01*
X49050010Y9749990D02*
X55600010Y9749990D01*
%TO.N,Net-(SW5-Pad1)*%
X35387988Y9649990D02*
X31750010Y9649990D01*
X36268999Y10531001D02*
X35387988Y9649990D01*
X36437998Y10700000D02*
X36268999Y10531001D01*
X31750010Y9649990D02*
X31100000Y10300000D01*
X31100000Y10300000D02*
X31100000Y11700000D01*
X57500000Y10700000D02*
X36437998Y10700000D01*
%TO.N,Net-(U1-Pad6)*%
X32405000Y11050000D02*
X32405000Y11795000D01*
X32405000Y11795000D02*
X32400000Y11800000D01*
X32405000Y11050000D02*
X32405000Y10650000D01*
X32405000Y10650000D02*
X32400000Y10650000D01*
%TO.N,Net-(U1-Pad7)*%
X33675000Y11050000D02*
X33675000Y11725000D01*
X33675000Y11050000D02*
X33675000Y10650000D01*
%TO.N,Net-(U1-Pad15)*%
X27325000Y17550000D02*
X27325000Y18175000D01*
X27325000Y17550000D02*
X27325000Y16825000D01*
%TO.N,LED_DIN*%
X26690000Y21700000D02*
X26666002Y21700000D01*
X19300000Y18700000D02*
X19300000Y18700000D01*
X16758218Y12250011D02*
X18058209Y10950020D01*
X13791772Y11600000D02*
X14441782Y12250011D01*
X14441782Y12250011D02*
X16758218Y12250011D01*
X18058209Y10950020D02*
X19200000Y10950020D01*
X19200000Y11400000D02*
X19400000Y11600000D01*
X19200000Y10950020D02*
X19200000Y11400000D01*
X13855989Y11664218D02*
X14441782Y12250011D01*
X13691761Y11499990D02*
X13855989Y11664218D01*
X20899999Y19999999D02*
X19400000Y18500000D01*
X26690000Y21700000D02*
X24989999Y19999999D01*
X24989999Y19999999D02*
X20899999Y19999999D01*
X9090808Y11499990D02*
X8137490Y12453308D01*
X13691761Y11499990D02*
X9090808Y11499990D01*
X7275010Y12524990D02*
X5697912Y12524990D01*
X8137490Y12453308D02*
X7346692Y12453308D01*
X7346692Y12453308D02*
X7275010Y12524990D01*
X5199990Y13022912D02*
X5199990Y16399990D01*
X5697912Y12524990D02*
X5199990Y13022912D01*
X5199990Y16399990D02*
X5200000Y16400000D01*
%TO.N,LED_DOUT*%
X44624980Y11724980D02*
X44600010Y11700010D01*
X44724980Y11724980D02*
X44624980Y11724980D01*
X38875020Y11724980D02*
X38200000Y12400000D01*
X44724980Y11724980D02*
X38875020Y11724980D01*
X31189970Y7699970D02*
X31500030Y7699970D01*
X26790000Y3300000D02*
X31189970Y7699970D01*
X31189970Y7699970D02*
X36314197Y7699970D01*
X38200000Y8200000D02*
X38200000Y8000000D01*
X37899970Y7699970D02*
X36314197Y7699970D01*
X38200000Y8000000D02*
X37899970Y7699970D01*
X36314197Y7699970D02*
X36899990Y8285764D01*
X36899990Y8285764D02*
X37364206Y8749980D01*
X37364206Y8749980D02*
X38799991Y8749980D01*
X36314197Y7699970D02*
X38585744Y7699970D01*
X38585744Y7699970D02*
X38799991Y7914217D01*
X38799991Y7914217D02*
X38799991Y8500000D01*
X58050001Y13685754D02*
X56089227Y11724980D01*
X58050001Y18030001D02*
X58050001Y13685754D01*
X56089227Y11724980D02*
X44724980Y11724980D01*
X55950000Y20000000D02*
X56080002Y20000000D01*
X56080002Y20000000D02*
X58050001Y18030001D01*
%TO.N,BTN_DIN*%
X29230000Y21700000D02*
X29230000Y20330000D01*
X29230000Y20330000D02*
X28600000Y19700000D01*
X28600000Y19700000D02*
X28600000Y17000000D01*
D18*
%TO.N,BTN_CLK*%
X34310000Y21700000D02*
X34310000Y21575998D01*
X36285998Y5300000D02*
X40116002Y5300000D01*
X34400000Y3414002D02*
X36285998Y5300000D01*
X34400000Y3400000D02*
X34400000Y3414002D01*
D15*
X42200009Y7384007D02*
X42008001Y7191999D01*
D18*
X40116002Y5300000D02*
X42008001Y7191999D01*
D15*
X42800000Y8600000D02*
X42949980Y8749980D01*
X42800000Y8200000D02*
X42800000Y8600000D01*
X42800000Y8600000D02*
X42650020Y8749980D01*
X42650020Y8749980D02*
X42200009Y8749980D01*
X42200009Y8749980D02*
X42200009Y7700000D01*
X43249980Y8749980D02*
X43399991Y8749980D01*
X43399991Y8749980D02*
X43399991Y7900000D01*
X42800000Y8200000D02*
X42800000Y8300000D01*
X42800000Y8300000D02*
X43249980Y8749980D01*
X34310000Y21700000D02*
X34310000Y20610000D01*
X34310000Y20610000D02*
X33200000Y19500000D01*
X33200000Y19500000D02*
X32600000Y19500000D01*
D19*
X32405000Y17550000D02*
X31650000Y17550000D01*
X31135000Y17550000D02*
X31650000Y17550000D01*
X31650000Y17550000D02*
X32250000Y17550000D01*
D16*
X34310000Y21222443D02*
X36682443Y18850000D01*
X34310000Y21700000D02*
X34310000Y21222443D01*
X43000000Y14800000D02*
X43000000Y14962449D01*
X42800000Y14500000D02*
X42800000Y14600000D01*
X42800000Y14600000D02*
X43000000Y14800000D01*
X43000000Y14962449D02*
X39112449Y18850000D01*
X39112449Y18850000D02*
X36682443Y18850000D01*
X31800000Y17900000D02*
X31800000Y17300000D01*
D15*
X31800000Y17900000D02*
X31800000Y17100000D01*
X31800000Y18700000D02*
X31800000Y17900000D01*
X31800000Y18700000D02*
X31300000Y18200000D01*
X32405000Y17550000D02*
X32405000Y19095000D01*
X32600000Y19500000D02*
X32300000Y19200000D01*
X32405000Y19095000D02*
X32300000Y19200000D01*
X32300000Y19200000D02*
X31800000Y18700000D01*
X32405000Y17550000D02*
X32405000Y16995000D01*
%TO.N,BTN_SENSE*%
X4100000Y3400000D02*
X4300000Y3200000D01*
X56900000Y3400000D02*
X50200000Y3400000D01*
X50200000Y3400000D02*
X49100000Y3400000D01*
X4085774Y3300000D02*
X4100000Y3300000D01*
X11810000Y3460000D02*
X4260000Y3460000D01*
X49190000Y3460000D02*
X47200000Y5450000D01*
X47200000Y5450000D02*
X47200000Y6300000D01*
X47200000Y6300000D02*
X47200000Y6300000D01*
X24150000Y21700000D02*
X23900000Y21700000D01*
D18*
X24250000Y6250000D02*
X24200000Y6300000D01*
D15*
X24150000Y21700000D02*
X24150000Y21250000D01*
X24150000Y21250000D02*
X23900009Y21000009D01*
D16*
X19813998Y21700000D02*
X17449999Y19336001D01*
X24150000Y21700000D02*
X19813998Y21700000D01*
X17900000Y6300000D02*
X18299980Y6699980D01*
X17900000Y6200000D02*
X17900000Y6300000D01*
X23800020Y6699980D02*
X24200000Y6300000D01*
X18299980Y6699980D02*
X23800020Y6699980D01*
X24200000Y6300000D02*
X24200000Y3300000D01*
D15*
X15160000Y3460000D02*
X14740000Y3460000D01*
X17900000Y6200000D02*
X15160000Y3460000D01*
X11810000Y3460000D02*
X14740000Y3460000D01*
%TO.N,BTN_DOUT*%
X40500000Y8200000D02*
X40500000Y7239646D01*
X39660364Y6400010D02*
X31900010Y6400010D01*
X40500000Y7239646D02*
X39660364Y6400010D01*
X31900010Y6400010D02*
X29500000Y4000000D01*
X29330000Y3470000D02*
X29330000Y3300000D01*
X39800001Y8749980D02*
X39800001Y7500001D01*
X40250020Y8749980D02*
X39800001Y8749980D01*
X37332038Y6699960D02*
X31604186Y6699960D01*
X40500000Y8500000D02*
X40250020Y8749980D01*
X40500000Y8200000D02*
X40500000Y8500000D01*
X37431999Y6599999D02*
X37332038Y6699960D01*
X38899999Y6599999D02*
X37431999Y6599999D01*
X31604186Y6699960D02*
X28900000Y3995774D01*
X39800001Y7500001D02*
X38899999Y6599999D01*
X28900000Y3995774D02*
X28900000Y3900000D01*
X28900000Y3900000D02*
X29330000Y3470000D01*
X40500000Y8600000D02*
X40649980Y8749980D01*
X40500000Y8200000D02*
X40500000Y8600000D01*
X40649980Y8749980D02*
X41199999Y8749980D01*
X41199999Y8749980D02*
X41199999Y7939645D01*
X41199999Y7939645D02*
X40330177Y7069823D01*
X39900000Y14800000D02*
X40500000Y14800000D01*
X40500000Y14800000D02*
X39514227Y14800000D01*
X35095000Y17500000D02*
X35900000Y17500000D01*
X36123251Y17499990D02*
X38553257Y17499990D01*
X40200000Y15853247D02*
X40200000Y15000000D01*
X38553257Y17499990D02*
X40200000Y15853247D01*
%TD*%
D20*
%TO.N,GND*%
G36*
X60325000Y675000D02*
G01*
X675000Y675000D01*
X675000Y8540000D01*
X1146533Y8540000D01*
X1180321Y8196940D01*
X1280388Y7867064D01*
X1442888Y7563048D01*
X1661576Y7296576D01*
X1928048Y7077888D01*
X1980454Y7049877D01*
X1853946Y6946054D01*
X1722733Y6786171D01*
X1625233Y6603762D01*
X1565193Y6405836D01*
X1544920Y6200000D01*
X1565193Y5994164D01*
X1625233Y5796238D01*
X1722733Y5613829D01*
X1853946Y5453946D01*
X2013829Y5322733D01*
X2196238Y5225233D01*
X2394164Y5165193D01*
X2472326Y5157495D01*
X2232064Y5084612D01*
X1928048Y4922112D01*
X1661576Y4703424D01*
X1442888Y4436952D01*
X1280388Y4132936D01*
X1180321Y3803060D01*
X1146533Y3460000D01*
X1180321Y3116940D01*
X1280388Y2787064D01*
X1442888Y2483048D01*
X1661576Y2216576D01*
X1928048Y1997888D01*
X2232064Y1835388D01*
X2561940Y1735321D01*
X2819032Y1710000D01*
X4260968Y1710000D01*
X4518060Y1735321D01*
X4847936Y1835388D01*
X5151952Y1997888D01*
X5418424Y2216576D01*
X5577163Y2410000D01*
X10422837Y2410000D01*
X10581576Y2216576D01*
X10848048Y1997888D01*
X11152064Y1835388D01*
X11481940Y1735321D01*
X11739032Y1710000D01*
X13180968Y1710000D01*
X13438060Y1735321D01*
X13767936Y1835388D01*
X14071952Y1997888D01*
X14338424Y2216576D01*
X14497163Y2410000D01*
X15108432Y2410000D01*
X15160000Y2404921D01*
X15211568Y2410000D01*
X15211578Y2410000D01*
X15365836Y2425193D01*
X15563762Y2485233D01*
X15746171Y2582733D01*
X15906054Y2713946D01*
X15938937Y2754014D01*
X17735350Y4550426D01*
X17737489Y4550000D01*
X18062511Y4550000D01*
X18381287Y4613408D01*
X18681568Y4737789D01*
X18951814Y4918361D01*
X19181639Y5148186D01*
X19283064Y5299980D01*
X22800000Y5299980D01*
X22800001Y4279840D01*
X22699170Y4128936D01*
X22567251Y3810456D01*
X22500000Y3472360D01*
X22500000Y3127640D01*
X22567251Y2789544D01*
X22699170Y2471064D01*
X22890686Y2184440D01*
X23134440Y1940686D01*
X23421064Y1749170D01*
X23739544Y1617251D01*
X24077640Y1550000D01*
X24422360Y1550000D01*
X24760456Y1617251D01*
X25078936Y1749170D01*
X25365560Y1940686D01*
X25520000Y2095126D01*
X25674440Y1940686D01*
X25961064Y1749170D01*
X26279544Y1617251D01*
X26617640Y1550000D01*
X26962360Y1550000D01*
X27300456Y1617251D01*
X27618936Y1749170D01*
X27905560Y1940686D01*
X28060000Y2095126D01*
X28214440Y1940686D01*
X28501064Y1749170D01*
X28819544Y1617251D01*
X29157640Y1550000D01*
X29502360Y1550000D01*
X29840456Y1617251D01*
X30158936Y1749170D01*
X30445560Y1940686D01*
X30689314Y2184440D01*
X30880830Y2471064D01*
X31012749Y2789544D01*
X31080000Y3127640D01*
X31080000Y3472360D01*
X31012749Y3810456D01*
X30949083Y3964159D01*
X32334934Y5350010D01*
X34709663Y5350010D01*
X34409654Y5050000D01*
X34237640Y5050000D01*
X33899544Y4982749D01*
X33581064Y4850830D01*
X33294440Y4659314D01*
X33050686Y4415560D01*
X32859170Y4128936D01*
X32727251Y3810456D01*
X32660000Y3472360D01*
X32660000Y3127640D01*
X32727251Y2789544D01*
X32859170Y2471064D01*
X33050686Y2184440D01*
X33294440Y1940686D01*
X33581064Y1749170D01*
X33899544Y1617251D01*
X34237640Y1550000D01*
X34582360Y1550000D01*
X34920456Y1617251D01*
X35238936Y1749170D01*
X35525560Y1940686D01*
X35680000Y2095126D01*
X35834440Y1940686D01*
X36121064Y1749170D01*
X36439544Y1617251D01*
X36777640Y1550000D01*
X37122360Y1550000D01*
X37460456Y1617251D01*
X37778936Y1749170D01*
X38065560Y1940686D01*
X38309314Y2184440D01*
X38486749Y2449990D01*
X40647846Y2449990D01*
X40716615Y2443217D01*
X40785384Y2449990D01*
X40785392Y2449990D01*
X40991063Y2470247D01*
X41254964Y2550300D01*
X41498177Y2680300D01*
X41711354Y2855251D01*
X41755199Y2908676D01*
X43693896Y4847373D01*
X43736001Y4843226D01*
X43804770Y4849999D01*
X43804778Y4849999D01*
X44010449Y4870256D01*
X44274350Y4950309D01*
X44517563Y5080309D01*
X44730740Y5255260D01*
X44774585Y5308685D01*
X45192040Y5726139D01*
X45213408Y5618713D01*
X45337789Y5318432D01*
X45518361Y5048186D01*
X45748186Y4818361D01*
X46018432Y4637789D01*
X46318713Y4513408D01*
X46479403Y4481445D01*
X46442888Y4436952D01*
X46280388Y4132936D01*
X46180321Y3803060D01*
X46146533Y3460000D01*
X46180321Y3116940D01*
X46280388Y2787064D01*
X46442888Y2483048D01*
X46661576Y2216576D01*
X46928048Y1997888D01*
X47232064Y1835388D01*
X47561940Y1735321D01*
X47819032Y1710000D01*
X49260968Y1710000D01*
X49518060Y1735321D01*
X49847936Y1835388D01*
X50151952Y1997888D01*
X50418424Y2216576D01*
X50527922Y2350000D01*
X55472078Y2350000D01*
X55581576Y2216576D01*
X55848048Y1997888D01*
X56152064Y1835388D01*
X56481940Y1735321D01*
X56739032Y1710000D01*
X58180968Y1710000D01*
X58438060Y1735321D01*
X58767936Y1835388D01*
X59071952Y1997888D01*
X59338424Y2216576D01*
X59557112Y2483048D01*
X59719612Y2787064D01*
X59819679Y3116940D01*
X59853467Y3460000D01*
X59819679Y3803060D01*
X59719612Y4132936D01*
X59557112Y4436952D01*
X59338424Y4703424D01*
X59071952Y4922112D01*
X58767936Y5084612D01*
X58438060Y5184679D01*
X58180968Y5210000D01*
X56739032Y5210000D01*
X56481940Y5184679D01*
X56152064Y5084612D01*
X55848048Y4922112D01*
X55581576Y4703424D01*
X55373596Y4450000D01*
X50626404Y4450000D01*
X50418424Y4703424D01*
X50151952Y4922112D01*
X49847936Y5084612D01*
X49518060Y5184679D01*
X49260968Y5210000D01*
X48924923Y5210000D01*
X48408097Y5726826D01*
X48450000Y5937489D01*
X48450000Y6262511D01*
X48386592Y6581287D01*
X48300140Y6790000D01*
X49260968Y6790000D01*
X49518060Y6815321D01*
X49847936Y6915388D01*
X50151952Y7077888D01*
X50418424Y7296576D01*
X50637112Y7563048D01*
X50799612Y7867064D01*
X50899679Y8196940D01*
X50933467Y8540000D01*
X50917710Y8699990D01*
X55082290Y8699990D01*
X55066533Y8540000D01*
X55100321Y8196940D01*
X55200388Y7867064D01*
X55362888Y7563048D01*
X55581576Y7296576D01*
X55848048Y7077888D01*
X56152064Y6915388D01*
X56481940Y6815321D01*
X56739032Y6790000D01*
X58180968Y6790000D01*
X58438060Y6815321D01*
X58767936Y6915388D01*
X59071952Y7077888D01*
X59338424Y7296576D01*
X59557112Y7563048D01*
X59719612Y7867064D01*
X59819679Y8196940D01*
X59853467Y8540000D01*
X59819679Y8883060D01*
X59719612Y9212936D01*
X59557112Y9516952D01*
X59338424Y9783424D01*
X59071952Y10002112D01*
X58767936Y10164612D01*
X58455130Y10259501D01*
X58474767Y10296238D01*
X58534807Y10494164D01*
X58555080Y10700000D01*
X58534807Y10905836D01*
X58474767Y11103762D01*
X58377267Y11286171D01*
X58246054Y11446054D01*
X58086171Y11577267D01*
X57903762Y11674767D01*
X57705836Y11734807D01*
X57594904Y11745733D01*
X58755997Y12906825D01*
X58796055Y12939700D01*
X58828929Y12979757D01*
X58828934Y12979762D01*
X58927267Y13099582D01*
X58933457Y13111161D01*
X59024768Y13281992D01*
X59084808Y13479918D01*
X59100001Y13634176D01*
X59100001Y13634185D01*
X59105080Y13685753D01*
X59100001Y13737321D01*
X59100001Y17978434D01*
X59105080Y18030002D01*
X59100001Y18081570D01*
X59100001Y18081579D01*
X59084808Y18235837D01*
X59024768Y18433763D01*
X58927268Y18616172D01*
X58902744Y18646054D01*
X58828934Y18735993D01*
X58828929Y18735998D01*
X58796055Y18776055D01*
X58755997Y18808930D01*
X58103145Y19461781D01*
X58103145Y20750000D01*
X58090595Y20877422D01*
X58053427Y20999948D01*
X57993070Y21112868D01*
X57911843Y21211843D01*
X57812868Y21293070D01*
X57699948Y21353427D01*
X57577422Y21390595D01*
X57450000Y21403145D01*
X54450000Y21403145D01*
X54322578Y21390595D01*
X54200052Y21353427D01*
X54087132Y21293070D01*
X53988157Y21211843D01*
X53906930Y21112868D01*
X53846573Y20999948D01*
X53809405Y20877422D01*
X53796855Y20750000D01*
X53796855Y19250000D01*
X53809405Y19122578D01*
X53846573Y19000052D01*
X53906930Y18887132D01*
X53988157Y18788157D01*
X54087132Y18706930D01*
X54200052Y18646573D01*
X54322578Y18609405D01*
X54450000Y18596855D01*
X55998223Y18596855D01*
X56391933Y18203145D01*
X54450000Y18203145D01*
X54322578Y18190595D01*
X54200052Y18153427D01*
X54087132Y18093070D01*
X53988157Y18011843D01*
X53906930Y17912868D01*
X53846573Y17799948D01*
X53809405Y17677422D01*
X53796855Y17550000D01*
X53796855Y16050000D01*
X53809405Y15922578D01*
X53846573Y15800052D01*
X53892009Y15715046D01*
X53848805Y15710791D01*
X53679381Y15659397D01*
X53523240Y15575938D01*
X53386380Y15463620D01*
X53274062Y15326760D01*
X53190603Y15170619D01*
X53139209Y15001195D01*
X53121855Y14825000D01*
X53121855Y13774990D01*
X46685638Y13774990D01*
X46786592Y14018713D01*
X46850000Y14337489D01*
X46850000Y14662511D01*
X46786592Y14981287D01*
X46662211Y15281568D01*
X46481639Y15551814D01*
X46251814Y15781639D01*
X46132682Y15861240D01*
X46129744Y15891072D01*
X46125573Y15904824D01*
X46094646Y16006774D01*
X46049691Y16154973D01*
X45919691Y16398186D01*
X45851181Y16481665D01*
X45788582Y16557942D01*
X45788577Y16557947D01*
X45744739Y16611363D01*
X45691325Y16655199D01*
X41984013Y20362511D01*
X43150000Y20362511D01*
X43150000Y20037489D01*
X43213408Y19718713D01*
X43337789Y19418432D01*
X43518361Y19148186D01*
X43748186Y18918361D01*
X44018432Y18737789D01*
X44318713Y18613408D01*
X44422267Y18592810D01*
X46921072Y16094003D01*
X46953946Y16053946D01*
X46994003Y16021072D01*
X46994008Y16021067D01*
X47085412Y15946054D01*
X47113829Y15922733D01*
X47296238Y15825233D01*
X47494164Y15765193D01*
X47648422Y15750000D01*
X47648431Y15750000D01*
X47699999Y15744921D01*
X47751567Y15750000D01*
X47973326Y15750000D01*
X48006930Y15687132D01*
X48088157Y15588157D01*
X48187132Y15506930D01*
X48300052Y15446573D01*
X48422578Y15409405D01*
X48550000Y15396855D01*
X51550000Y15396855D01*
X51677422Y15409405D01*
X51799948Y15446573D01*
X51912868Y15506930D01*
X52011843Y15588157D01*
X52093070Y15687132D01*
X52153427Y15800052D01*
X52190595Y15922578D01*
X52203145Y16050000D01*
X52203145Y17550000D01*
X52190595Y17677422D01*
X52153427Y17799948D01*
X52093070Y17912868D01*
X52011843Y18011843D01*
X51912868Y18093070D01*
X51799948Y18153427D01*
X51677422Y18190595D01*
X51550000Y18203145D01*
X48550000Y18203145D01*
X48422578Y18190595D01*
X48300052Y18153427D01*
X48187132Y18093070D01*
X48088157Y18011843D01*
X48036286Y17948638D01*
X46351333Y19633591D01*
X46386592Y19718713D01*
X46450000Y20037489D01*
X46450000Y20362511D01*
X46386592Y20681287D01*
X46262211Y20981568D01*
X46081639Y21251814D01*
X45851814Y21481639D01*
X45581568Y21662211D01*
X45281287Y21786592D01*
X44962511Y21850000D01*
X44637489Y21850000D01*
X44318713Y21786592D01*
X44018432Y21662211D01*
X43748186Y21481639D01*
X43518361Y21251814D01*
X43337789Y20981568D01*
X43213408Y20681287D01*
X43150000Y20362511D01*
X41984013Y20362511D01*
X40855197Y21491326D01*
X40811354Y21544749D01*
X40598177Y21719700D01*
X40354964Y21849700D01*
X40091063Y21929753D01*
X39885392Y21950010D01*
X39885384Y21950010D01*
X39816615Y21956783D01*
X39747846Y21950010D01*
X38584555Y21950010D01*
X38532749Y22210456D01*
X38400830Y22528936D01*
X38209314Y22815560D01*
X37965560Y23059314D01*
X37678936Y23250830D01*
X37360456Y23382749D01*
X37022360Y23450000D01*
X36677640Y23450000D01*
X36339544Y23382749D01*
X36021064Y23250830D01*
X35734440Y23059314D01*
X35580000Y22904874D01*
X35425560Y23059314D01*
X35138936Y23250830D01*
X34820456Y23382749D01*
X34482360Y23450000D01*
X34137640Y23450000D01*
X33799544Y23382749D01*
X33481064Y23250830D01*
X33194440Y23059314D01*
X32950686Y22815560D01*
X32759170Y22528936D01*
X32627251Y22210456D01*
X32560000Y21872360D01*
X32560000Y21527640D01*
X32627251Y21189544D01*
X32759170Y20871064D01*
X32890136Y20675060D01*
X32765076Y20550000D01*
X32651567Y20550000D01*
X32599999Y20555079D01*
X32548431Y20550000D01*
X32548422Y20550000D01*
X32394164Y20534807D01*
X32196238Y20474767D01*
X32013829Y20377267D01*
X31853946Y20246054D01*
X31821066Y20205990D01*
X31594013Y19978936D01*
X31553946Y19946054D01*
X31521063Y19905986D01*
X31094014Y19478937D01*
X31053946Y19446054D01*
X31021063Y19405986D01*
X30521067Y18905990D01*
X30422733Y18786171D01*
X30371033Y18689447D01*
X30340103Y18651759D01*
X30267039Y18515067D01*
X30222047Y18366747D01*
X30206855Y18212500D01*
X30206855Y16887500D01*
X30210548Y16850000D01*
X29640306Y16850000D01*
X29650000Y16948422D01*
X29650000Y19265077D01*
X29935986Y19551063D01*
X29976054Y19583946D01*
X30107267Y19743829D01*
X30204767Y19926238D01*
X30264807Y20124164D01*
X30280000Y20278422D01*
X30281946Y20298181D01*
X30345560Y20340686D01*
X30589314Y20584440D01*
X30780830Y20871064D01*
X30912749Y21189544D01*
X30980000Y21527640D01*
X30980000Y21872360D01*
X30912749Y22210456D01*
X30780830Y22528936D01*
X30589314Y22815560D01*
X30345560Y23059314D01*
X30058936Y23250830D01*
X29740456Y23382749D01*
X29402360Y23450000D01*
X29057640Y23450000D01*
X28719544Y23382749D01*
X28401064Y23250830D01*
X28114440Y23059314D01*
X27960000Y22904874D01*
X27805560Y23059314D01*
X27518936Y23250830D01*
X27200456Y23382749D01*
X26862360Y23450000D01*
X26517640Y23450000D01*
X26179544Y23382749D01*
X25861064Y23250830D01*
X25574440Y23059314D01*
X25420000Y22904874D01*
X25265560Y23059314D01*
X24978936Y23250830D01*
X24660456Y23382749D01*
X24322360Y23450000D01*
X23977640Y23450000D01*
X23639544Y23382749D01*
X23321064Y23250830D01*
X23095331Y23100000D01*
X19882766Y23100000D01*
X19813997Y23106773D01*
X19745228Y23100000D01*
X19745221Y23100000D01*
X19566536Y23082401D01*
X19539549Y23079743D01*
X19472204Y23059314D01*
X19275649Y22999690D01*
X19032436Y22869690D01*
X18819259Y22694739D01*
X18775418Y22641319D01*
X16411417Y20277317D01*
X16280310Y20117562D01*
X16225722Y20015436D01*
X16250000Y20137489D01*
X16250000Y20462511D01*
X16186592Y20781287D01*
X16062211Y21081568D01*
X15881639Y21351814D01*
X15651814Y21581639D01*
X15381568Y21762211D01*
X15081287Y21886592D01*
X14762511Y21950000D01*
X14437489Y21950000D01*
X14118713Y21886592D01*
X13818432Y21762211D01*
X13548186Y21581639D01*
X13318361Y21351814D01*
X13183514Y21150000D01*
X13026674Y21150000D01*
X12993070Y21212868D01*
X12911843Y21311843D01*
X12812868Y21393070D01*
X12699948Y21453427D01*
X12577422Y21490595D01*
X12450000Y21503145D01*
X9450000Y21503145D01*
X9322578Y21490595D01*
X9200052Y21453427D01*
X9087132Y21393070D01*
X8988157Y21311843D01*
X8906930Y21212868D01*
X8846573Y21099948D01*
X8809405Y20977422D01*
X8796855Y20850000D01*
X8796855Y19350000D01*
X8809405Y19222578D01*
X8846573Y19100052D01*
X8906930Y18987132D01*
X8988157Y18888157D01*
X9087132Y18806930D01*
X9200052Y18746573D01*
X9322578Y18709405D01*
X9450000Y18696855D01*
X12450000Y18696855D01*
X12577422Y18709405D01*
X12699948Y18746573D01*
X12812868Y18806930D01*
X12911843Y18888157D01*
X12993070Y18987132D01*
X13026674Y19050000D01*
X13458754Y19050000D01*
X13494009Y19021067D01*
X13562093Y18965192D01*
X13613829Y18922733D01*
X13796238Y18825233D01*
X13992406Y18765726D01*
X14118713Y18713408D01*
X14437489Y18650000D01*
X14762511Y18650000D01*
X15081287Y18713408D01*
X15381568Y18837789D01*
X15538948Y18942947D01*
X15513408Y18881287D01*
X15450000Y18562511D01*
X15450000Y18237489D01*
X15513408Y17918713D01*
X15637789Y17618432D01*
X15818361Y17348186D01*
X16048186Y17118361D01*
X16318432Y16937789D01*
X16618713Y16813408D01*
X16937489Y16750000D01*
X17262511Y16750000D01*
X17581287Y16813408D01*
X17881568Y16937789D01*
X18151814Y17118361D01*
X18250000Y17216547D01*
X18348186Y17118361D01*
X18618432Y16937789D01*
X18918713Y16813408D01*
X19237489Y16750000D01*
X19562511Y16750000D01*
X19881287Y16813408D01*
X20181568Y16937789D01*
X20451814Y17118361D01*
X20550000Y17216547D01*
X20648186Y17118361D01*
X20918432Y16937789D01*
X21218713Y16813408D01*
X21537489Y16750000D01*
X21862511Y16750000D01*
X21864651Y16750426D01*
X22571855Y16043220D01*
X22571855Y15825000D01*
X22589209Y15648805D01*
X22640603Y15479381D01*
X22724062Y15323240D01*
X22836380Y15186380D01*
X22973240Y15074062D01*
X23129381Y14990603D01*
X23266628Y14948970D01*
X23313829Y14910233D01*
X23496238Y14812733D01*
X23694164Y14752693D01*
X23848422Y14737500D01*
X25577577Y14737500D01*
X26021063Y14294014D01*
X26053946Y14253946D01*
X26213829Y14122733D01*
X26396238Y14025233D01*
X26594164Y13965193D01*
X26748422Y13950000D01*
X26748431Y13950000D01*
X26799999Y13944921D01*
X26851567Y13950000D01*
X33448432Y13950000D01*
X33500000Y13944921D01*
X33551568Y13950000D01*
X37465077Y13950000D01*
X37584201Y13830875D01*
X37418432Y13762211D01*
X37148186Y13581639D01*
X36918361Y13351814D01*
X36737789Y13081568D01*
X36613408Y12781287D01*
X36550000Y12462511D01*
X36550000Y12137489D01*
X36613408Y11818713D01*
X36641870Y11750000D01*
X36489569Y11750000D01*
X36437998Y11755079D01*
X36386428Y11750000D01*
X36386420Y11750000D01*
X36232162Y11734807D01*
X36034236Y11674767D01*
X35851827Y11577267D01*
X35691944Y11446054D01*
X35659061Y11405986D01*
X35563014Y11309939D01*
X35563008Y11309934D01*
X34953065Y10699990D01*
X34750000Y10699990D01*
X34750000Y12800000D01*
X34745196Y12848773D01*
X34730970Y12895671D01*
X34707867Y12938893D01*
X34676777Y12976777D01*
X34638893Y13007867D01*
X34595671Y13030970D01*
X34548773Y13045196D01*
X34500000Y13050000D01*
X25100000Y13050000D01*
X25051227Y13045196D01*
X25004329Y13030970D01*
X24961107Y13007867D01*
X24923223Y12976777D01*
X24892133Y12938893D01*
X24869030Y12895671D01*
X24854804Y12848773D01*
X24850000Y12800000D01*
X24850000Y11000010D01*
X23237423Y11000010D01*
X23286592Y11118713D01*
X23350000Y11437489D01*
X23350000Y11762511D01*
X23286592Y12081287D01*
X23162211Y12381568D01*
X22981639Y12651814D01*
X22751814Y12881639D01*
X22481568Y13062211D01*
X22181287Y13186592D01*
X21862511Y13250000D01*
X21537489Y13250000D01*
X21535349Y13249574D01*
X20828916Y13956007D01*
X20796033Y13996075D01*
X20636150Y14127288D01*
X20453741Y14224788D01*
X20255815Y14284828D01*
X20101557Y14300021D01*
X20101547Y14300021D01*
X20049979Y14305100D01*
X19998411Y14300021D01*
X14079136Y14300021D01*
X14027565Y14305100D01*
X13975994Y14300021D01*
X13975987Y14300021D01*
X13821729Y14284828D01*
X13623803Y14224788D01*
X13441394Y14127288D01*
X13281511Y13996075D01*
X13248632Y13956012D01*
X12842621Y13550000D01*
X11550000Y13550000D01*
X11550000Y13648433D01*
X11555079Y13700001D01*
X11550000Y13751569D01*
X11550000Y15496855D01*
X12450000Y15496855D01*
X12577422Y15509405D01*
X12699948Y15546573D01*
X12812868Y15606930D01*
X12911843Y15688157D01*
X12993070Y15787132D01*
X13053427Y15900052D01*
X13090595Y16022578D01*
X13103145Y16150000D01*
X13103145Y17650000D01*
X13090595Y17777422D01*
X13053427Y17899948D01*
X12993070Y18012868D01*
X12911843Y18111843D01*
X12812868Y18193070D01*
X12699948Y18253427D01*
X12577422Y18290595D01*
X12450000Y18303145D01*
X9450000Y18303145D01*
X9322578Y18290595D01*
X9200052Y18253427D01*
X9087132Y18193070D01*
X8988157Y18111843D01*
X8906930Y18012868D01*
X8846573Y17899948D01*
X8809405Y17777422D01*
X8796855Y17650000D01*
X8796855Y16150000D01*
X8809405Y16022578D01*
X8846573Y15900052D01*
X8906930Y15787132D01*
X8988157Y15688157D01*
X9087132Y15606930D01*
X9200052Y15546573D01*
X9260801Y15528145D01*
X9025000Y15528145D01*
X8848805Y15510791D01*
X8679381Y15459397D01*
X8523240Y15375938D01*
X8386380Y15263620D01*
X8274062Y15126760D01*
X8190603Y14970619D01*
X8139209Y14801195D01*
X8121855Y14625000D01*
X8121855Y14320922D01*
X8107757Y14274447D01*
X8087500Y14068776D01*
X8087500Y13503463D01*
X8085922Y13503308D01*
X7667066Y13503308D01*
X7480846Y13559797D01*
X7326588Y13574990D01*
X7326578Y13574990D01*
X7275010Y13580069D01*
X7223442Y13574990D01*
X6249990Y13574990D01*
X6249990Y15496855D01*
X6550000Y15496855D01*
X6677422Y15509405D01*
X6799948Y15546573D01*
X6912868Y15606930D01*
X7011843Y15688157D01*
X7093070Y15787132D01*
X7153427Y15900052D01*
X7190595Y16022578D01*
X7203145Y16150000D01*
X7203145Y17650000D01*
X7190595Y17777422D01*
X7153427Y17899948D01*
X7093070Y18012868D01*
X7011843Y18111843D01*
X6912868Y18193070D01*
X6799948Y18253427D01*
X6677422Y18290595D01*
X6550000Y18303145D01*
X3550000Y18303145D01*
X3422578Y18290595D01*
X3300052Y18253427D01*
X3187132Y18193070D01*
X3088157Y18111843D01*
X3006930Y18012868D01*
X2946573Y17899948D01*
X2909405Y17777422D01*
X2896855Y17650000D01*
X2896855Y16150000D01*
X2909405Y16022578D01*
X2946573Y15900052D01*
X3006930Y15787132D01*
X3088157Y15688157D01*
X3187132Y15606930D01*
X3300052Y15546573D01*
X3422578Y15509405D01*
X3550000Y15496855D01*
X4149991Y15496855D01*
X4149990Y13074480D01*
X4144911Y13022912D01*
X4149990Y12971344D01*
X4149990Y12971335D01*
X4165183Y12817077D01*
X4225223Y12619151D01*
X4322723Y12436741D01*
X4453936Y12276858D01*
X4494004Y12243975D01*
X4918975Y11819004D01*
X4951858Y11778936D01*
X5111741Y11647723D01*
X5294150Y11550223D01*
X5294951Y11549980D01*
X2448442Y11549980D01*
X2294184Y11534787D01*
X2096258Y11474747D01*
X1913849Y11377247D01*
X1753966Y11246034D01*
X1622753Y11086151D01*
X1525253Y10903742D01*
X1465213Y10705816D01*
X1444940Y10499980D01*
X1465213Y10294144D01*
X1525253Y10096218D01*
X1622753Y9913809D01*
X1702317Y9816860D01*
X1661576Y9783424D01*
X1442888Y9516952D01*
X1280388Y9212936D01*
X1180321Y8883060D01*
X1146533Y8540000D01*
X675000Y8540000D01*
X675000Y24325000D01*
X60325001Y24325000D01*
X60325000Y675000D01*
G37*
X60325000Y675000D02*
X675000Y675000D01*
X675000Y8540000D01*
X1146533Y8540000D01*
X1180321Y8196940D01*
X1280388Y7867064D01*
X1442888Y7563048D01*
X1661576Y7296576D01*
X1928048Y7077888D01*
X1980454Y7049877D01*
X1853946Y6946054D01*
X1722733Y6786171D01*
X1625233Y6603762D01*
X1565193Y6405836D01*
X1544920Y6200000D01*
X1565193Y5994164D01*
X1625233Y5796238D01*
X1722733Y5613829D01*
X1853946Y5453946D01*
X2013829Y5322733D01*
X2196238Y5225233D01*
X2394164Y5165193D01*
X2472326Y5157495D01*
X2232064Y5084612D01*
X1928048Y4922112D01*
X1661576Y4703424D01*
X1442888Y4436952D01*
X1280388Y4132936D01*
X1180321Y3803060D01*
X1146533Y3460000D01*
X1180321Y3116940D01*
X1280388Y2787064D01*
X1442888Y2483048D01*
X1661576Y2216576D01*
X1928048Y1997888D01*
X2232064Y1835388D01*
X2561940Y1735321D01*
X2819032Y1710000D01*
X4260968Y1710000D01*
X4518060Y1735321D01*
X4847936Y1835388D01*
X5151952Y1997888D01*
X5418424Y2216576D01*
X5577163Y2410000D01*
X10422837Y2410000D01*
X10581576Y2216576D01*
X10848048Y1997888D01*
X11152064Y1835388D01*
X11481940Y1735321D01*
X11739032Y1710000D01*
X13180968Y1710000D01*
X13438060Y1735321D01*
X13767936Y1835388D01*
X14071952Y1997888D01*
X14338424Y2216576D01*
X14497163Y2410000D01*
X15108432Y2410000D01*
X15160000Y2404921D01*
X15211568Y2410000D01*
X15211578Y2410000D01*
X15365836Y2425193D01*
X15563762Y2485233D01*
X15746171Y2582733D01*
X15906054Y2713946D01*
X15938937Y2754014D01*
X17735350Y4550426D01*
X17737489Y4550000D01*
X18062511Y4550000D01*
X18381287Y4613408D01*
X18681568Y4737789D01*
X18951814Y4918361D01*
X19181639Y5148186D01*
X19283064Y5299980D01*
X22800000Y5299980D01*
X22800001Y4279840D01*
X22699170Y4128936D01*
X22567251Y3810456D01*
X22500000Y3472360D01*
X22500000Y3127640D01*
X22567251Y2789544D01*
X22699170Y2471064D01*
X22890686Y2184440D01*
X23134440Y1940686D01*
X23421064Y1749170D01*
X23739544Y1617251D01*
X24077640Y1550000D01*
X24422360Y1550000D01*
X24760456Y1617251D01*
X25078936Y1749170D01*
X25365560Y1940686D01*
X25520000Y2095126D01*
X25674440Y1940686D01*
X25961064Y1749170D01*
X26279544Y1617251D01*
X26617640Y1550000D01*
X26962360Y1550000D01*
X27300456Y1617251D01*
X27618936Y1749170D01*
X27905560Y1940686D01*
X28060000Y2095126D01*
X28214440Y1940686D01*
X28501064Y1749170D01*
X28819544Y1617251D01*
X29157640Y1550000D01*
X29502360Y1550000D01*
X29840456Y1617251D01*
X30158936Y1749170D01*
X30445560Y1940686D01*
X30689314Y2184440D01*
X30880830Y2471064D01*
X31012749Y2789544D01*
X31080000Y3127640D01*
X31080000Y3472360D01*
X31012749Y3810456D01*
X30949083Y3964159D01*
X32334934Y5350010D01*
X34709663Y5350010D01*
X34409654Y5050000D01*
X34237640Y5050000D01*
X33899544Y4982749D01*
X33581064Y4850830D01*
X33294440Y4659314D01*
X33050686Y4415560D01*
X32859170Y4128936D01*
X32727251Y3810456D01*
X32660000Y3472360D01*
X32660000Y3127640D01*
X32727251Y2789544D01*
X32859170Y2471064D01*
X33050686Y2184440D01*
X33294440Y1940686D01*
X33581064Y1749170D01*
X33899544Y1617251D01*
X34237640Y1550000D01*
X34582360Y1550000D01*
X34920456Y1617251D01*
X35238936Y1749170D01*
X35525560Y1940686D01*
X35680000Y2095126D01*
X35834440Y1940686D01*
X36121064Y1749170D01*
X36439544Y1617251D01*
X36777640Y1550000D01*
X37122360Y1550000D01*
X37460456Y1617251D01*
X37778936Y1749170D01*
X38065560Y1940686D01*
X38309314Y2184440D01*
X38486749Y2449990D01*
X40647846Y2449990D01*
X40716615Y2443217D01*
X40785384Y2449990D01*
X40785392Y2449990D01*
X40991063Y2470247D01*
X41254964Y2550300D01*
X41498177Y2680300D01*
X41711354Y2855251D01*
X41755199Y2908676D01*
X43693896Y4847373D01*
X43736001Y4843226D01*
X43804770Y4849999D01*
X43804778Y4849999D01*
X44010449Y4870256D01*
X44274350Y4950309D01*
X44517563Y5080309D01*
X44730740Y5255260D01*
X44774585Y5308685D01*
X45192040Y5726139D01*
X45213408Y5618713D01*
X45337789Y5318432D01*
X45518361Y5048186D01*
X45748186Y4818361D01*
X46018432Y4637789D01*
X46318713Y4513408D01*
X46479403Y4481445D01*
X46442888Y4436952D01*
X46280388Y4132936D01*
X46180321Y3803060D01*
X46146533Y3460000D01*
X46180321Y3116940D01*
X46280388Y2787064D01*
X46442888Y2483048D01*
X46661576Y2216576D01*
X46928048Y1997888D01*
X47232064Y1835388D01*
X47561940Y1735321D01*
X47819032Y1710000D01*
X49260968Y1710000D01*
X49518060Y1735321D01*
X49847936Y1835388D01*
X50151952Y1997888D01*
X50418424Y2216576D01*
X50527922Y2350000D01*
X55472078Y2350000D01*
X55581576Y2216576D01*
X55848048Y1997888D01*
X56152064Y1835388D01*
X56481940Y1735321D01*
X56739032Y1710000D01*
X58180968Y1710000D01*
X58438060Y1735321D01*
X58767936Y1835388D01*
X59071952Y1997888D01*
X59338424Y2216576D01*
X59557112Y2483048D01*
X59719612Y2787064D01*
X59819679Y3116940D01*
X59853467Y3460000D01*
X59819679Y3803060D01*
X59719612Y4132936D01*
X59557112Y4436952D01*
X59338424Y4703424D01*
X59071952Y4922112D01*
X58767936Y5084612D01*
X58438060Y5184679D01*
X58180968Y5210000D01*
X56739032Y5210000D01*
X56481940Y5184679D01*
X56152064Y5084612D01*
X55848048Y4922112D01*
X55581576Y4703424D01*
X55373596Y4450000D01*
X50626404Y4450000D01*
X50418424Y4703424D01*
X50151952Y4922112D01*
X49847936Y5084612D01*
X49518060Y5184679D01*
X49260968Y5210000D01*
X48924923Y5210000D01*
X48408097Y5726826D01*
X48450000Y5937489D01*
X48450000Y6262511D01*
X48386592Y6581287D01*
X48300140Y6790000D01*
X49260968Y6790000D01*
X49518060Y6815321D01*
X49847936Y6915388D01*
X50151952Y7077888D01*
X50418424Y7296576D01*
X50637112Y7563048D01*
X50799612Y7867064D01*
X50899679Y8196940D01*
X50933467Y8540000D01*
X50917710Y8699990D01*
X55082290Y8699990D01*
X55066533Y8540000D01*
X55100321Y8196940D01*
X55200388Y7867064D01*
X55362888Y7563048D01*
X55581576Y7296576D01*
X55848048Y7077888D01*
X56152064Y6915388D01*
X56481940Y6815321D01*
X56739032Y6790000D01*
X58180968Y6790000D01*
X58438060Y6815321D01*
X58767936Y6915388D01*
X59071952Y7077888D01*
X59338424Y7296576D01*
X59557112Y7563048D01*
X59719612Y7867064D01*
X59819679Y8196940D01*
X59853467Y8540000D01*
X59819679Y8883060D01*
X59719612Y9212936D01*
X59557112Y9516952D01*
X59338424Y9783424D01*
X59071952Y10002112D01*
X58767936Y10164612D01*
X58455130Y10259501D01*
X58474767Y10296238D01*
X58534807Y10494164D01*
X58555080Y10700000D01*
X58534807Y10905836D01*
X58474767Y11103762D01*
X58377267Y11286171D01*
X58246054Y11446054D01*
X58086171Y11577267D01*
X57903762Y11674767D01*
X57705836Y11734807D01*
X57594904Y11745733D01*
X58755997Y12906825D01*
X58796055Y12939700D01*
X58828929Y12979757D01*
X58828934Y12979762D01*
X58927267Y13099582D01*
X58933457Y13111161D01*
X59024768Y13281992D01*
X59084808Y13479918D01*
X59100001Y13634176D01*
X59100001Y13634185D01*
X59105080Y13685753D01*
X59100001Y13737321D01*
X59100001Y17978434D01*
X59105080Y18030002D01*
X59100001Y18081570D01*
X59100001Y18081579D01*
X59084808Y18235837D01*
X59024768Y18433763D01*
X58927268Y18616172D01*
X58902744Y18646054D01*
X58828934Y18735993D01*
X58828929Y18735998D01*
X58796055Y18776055D01*
X58755997Y18808930D01*
X58103145Y19461781D01*
X58103145Y20750000D01*
X58090595Y20877422D01*
X58053427Y20999948D01*
X57993070Y21112868D01*
X57911843Y21211843D01*
X57812868Y21293070D01*
X57699948Y21353427D01*
X57577422Y21390595D01*
X57450000Y21403145D01*
X54450000Y21403145D01*
X54322578Y21390595D01*
X54200052Y21353427D01*
X54087132Y21293070D01*
X53988157Y21211843D01*
X53906930Y21112868D01*
X53846573Y20999948D01*
X53809405Y20877422D01*
X53796855Y20750000D01*
X53796855Y19250000D01*
X53809405Y19122578D01*
X53846573Y19000052D01*
X53906930Y18887132D01*
X53988157Y18788157D01*
X54087132Y18706930D01*
X54200052Y18646573D01*
X54322578Y18609405D01*
X54450000Y18596855D01*
X55998223Y18596855D01*
X56391933Y18203145D01*
X54450000Y18203145D01*
X54322578Y18190595D01*
X54200052Y18153427D01*
X54087132Y18093070D01*
X53988157Y18011843D01*
X53906930Y17912868D01*
X53846573Y17799948D01*
X53809405Y17677422D01*
X53796855Y17550000D01*
X53796855Y16050000D01*
X53809405Y15922578D01*
X53846573Y15800052D01*
X53892009Y15715046D01*
X53848805Y15710791D01*
X53679381Y15659397D01*
X53523240Y15575938D01*
X53386380Y15463620D01*
X53274062Y15326760D01*
X53190603Y15170619D01*
X53139209Y15001195D01*
X53121855Y14825000D01*
X53121855Y13774990D01*
X46685638Y13774990D01*
X46786592Y14018713D01*
X46850000Y14337489D01*
X46850000Y14662511D01*
X46786592Y14981287D01*
X46662211Y15281568D01*
X46481639Y15551814D01*
X46251814Y15781639D01*
X46132682Y15861240D01*
X46129744Y15891072D01*
X46125573Y15904824D01*
X46094646Y16006774D01*
X46049691Y16154973D01*
X45919691Y16398186D01*
X45851181Y16481665D01*
X45788582Y16557942D01*
X45788577Y16557947D01*
X45744739Y16611363D01*
X45691325Y16655199D01*
X41984013Y20362511D01*
X43150000Y20362511D01*
X43150000Y20037489D01*
X43213408Y19718713D01*
X43337789Y19418432D01*
X43518361Y19148186D01*
X43748186Y18918361D01*
X44018432Y18737789D01*
X44318713Y18613408D01*
X44422267Y18592810D01*
X46921072Y16094003D01*
X46953946Y16053946D01*
X46994003Y16021072D01*
X46994008Y16021067D01*
X47085412Y15946054D01*
X47113829Y15922733D01*
X47296238Y15825233D01*
X47494164Y15765193D01*
X47648422Y15750000D01*
X47648431Y15750000D01*
X47699999Y15744921D01*
X47751567Y15750000D01*
X47973326Y15750000D01*
X48006930Y15687132D01*
X48088157Y15588157D01*
X48187132Y15506930D01*
X48300052Y15446573D01*
X48422578Y15409405D01*
X48550000Y15396855D01*
X51550000Y15396855D01*
X51677422Y15409405D01*
X51799948Y15446573D01*
X51912868Y15506930D01*
X52011843Y15588157D01*
X52093070Y15687132D01*
X52153427Y15800052D01*
X52190595Y15922578D01*
X52203145Y16050000D01*
X52203145Y17550000D01*
X52190595Y17677422D01*
X52153427Y17799948D01*
X52093070Y17912868D01*
X52011843Y18011843D01*
X51912868Y18093070D01*
X51799948Y18153427D01*
X51677422Y18190595D01*
X51550000Y18203145D01*
X48550000Y18203145D01*
X48422578Y18190595D01*
X48300052Y18153427D01*
X48187132Y18093070D01*
X48088157Y18011843D01*
X48036286Y17948638D01*
X46351333Y19633591D01*
X46386592Y19718713D01*
X46450000Y20037489D01*
X46450000Y20362511D01*
X46386592Y20681287D01*
X46262211Y20981568D01*
X46081639Y21251814D01*
X45851814Y21481639D01*
X45581568Y21662211D01*
X45281287Y21786592D01*
X44962511Y21850000D01*
X44637489Y21850000D01*
X44318713Y21786592D01*
X44018432Y21662211D01*
X43748186Y21481639D01*
X43518361Y21251814D01*
X43337789Y20981568D01*
X43213408Y20681287D01*
X43150000Y20362511D01*
X41984013Y20362511D01*
X40855197Y21491326D01*
X40811354Y21544749D01*
X40598177Y21719700D01*
X40354964Y21849700D01*
X40091063Y21929753D01*
X39885392Y21950010D01*
X39885384Y21950010D01*
X39816615Y21956783D01*
X39747846Y21950010D01*
X38584555Y21950010D01*
X38532749Y22210456D01*
X38400830Y22528936D01*
X38209314Y22815560D01*
X37965560Y23059314D01*
X37678936Y23250830D01*
X37360456Y23382749D01*
X37022360Y23450000D01*
X36677640Y23450000D01*
X36339544Y23382749D01*
X36021064Y23250830D01*
X35734440Y23059314D01*
X35580000Y22904874D01*
X35425560Y23059314D01*
X35138936Y23250830D01*
X34820456Y23382749D01*
X34482360Y23450000D01*
X34137640Y23450000D01*
X33799544Y23382749D01*
X33481064Y23250830D01*
X33194440Y23059314D01*
X32950686Y22815560D01*
X32759170Y22528936D01*
X32627251Y22210456D01*
X32560000Y21872360D01*
X32560000Y21527640D01*
X32627251Y21189544D01*
X32759170Y20871064D01*
X32890136Y20675060D01*
X32765076Y20550000D01*
X32651567Y20550000D01*
X32599999Y20555079D01*
X32548431Y20550000D01*
X32548422Y20550000D01*
X32394164Y20534807D01*
X32196238Y20474767D01*
X32013829Y20377267D01*
X31853946Y20246054D01*
X31821066Y20205990D01*
X31594013Y19978936D01*
X31553946Y19946054D01*
X31521063Y19905986D01*
X31094014Y19478937D01*
X31053946Y19446054D01*
X31021063Y19405986D01*
X30521067Y18905990D01*
X30422733Y18786171D01*
X30371033Y18689447D01*
X30340103Y18651759D01*
X30267039Y18515067D01*
X30222047Y18366747D01*
X30206855Y18212500D01*
X30206855Y16887500D01*
X30210548Y16850000D01*
X29640306Y16850000D01*
X29650000Y16948422D01*
X29650000Y19265077D01*
X29935986Y19551063D01*
X29976054Y19583946D01*
X30107267Y19743829D01*
X30204767Y19926238D01*
X30264807Y20124164D01*
X30280000Y20278422D01*
X30281946Y20298181D01*
X30345560Y20340686D01*
X30589314Y20584440D01*
X30780830Y20871064D01*
X30912749Y21189544D01*
X30980000Y21527640D01*
X30980000Y21872360D01*
X30912749Y22210456D01*
X30780830Y22528936D01*
X30589314Y22815560D01*
X30345560Y23059314D01*
X30058936Y23250830D01*
X29740456Y23382749D01*
X29402360Y23450000D01*
X29057640Y23450000D01*
X28719544Y23382749D01*
X28401064Y23250830D01*
X28114440Y23059314D01*
X27960000Y22904874D01*
X27805560Y23059314D01*
X27518936Y23250830D01*
X27200456Y23382749D01*
X26862360Y23450000D01*
X26517640Y23450000D01*
X26179544Y23382749D01*
X25861064Y23250830D01*
X25574440Y23059314D01*
X25420000Y22904874D01*
X25265560Y23059314D01*
X24978936Y23250830D01*
X24660456Y23382749D01*
X24322360Y23450000D01*
X23977640Y23450000D01*
X23639544Y23382749D01*
X23321064Y23250830D01*
X23095331Y23100000D01*
X19882766Y23100000D01*
X19813997Y23106773D01*
X19745228Y23100000D01*
X19745221Y23100000D01*
X19566536Y23082401D01*
X19539549Y23079743D01*
X19472204Y23059314D01*
X19275649Y22999690D01*
X19032436Y22869690D01*
X18819259Y22694739D01*
X18775418Y22641319D01*
X16411417Y20277317D01*
X16280310Y20117562D01*
X16225722Y20015436D01*
X16250000Y20137489D01*
X16250000Y20462511D01*
X16186592Y20781287D01*
X16062211Y21081568D01*
X15881639Y21351814D01*
X15651814Y21581639D01*
X15381568Y21762211D01*
X15081287Y21886592D01*
X14762511Y21950000D01*
X14437489Y21950000D01*
X14118713Y21886592D01*
X13818432Y21762211D01*
X13548186Y21581639D01*
X13318361Y21351814D01*
X13183514Y21150000D01*
X13026674Y21150000D01*
X12993070Y21212868D01*
X12911843Y21311843D01*
X12812868Y21393070D01*
X12699948Y21453427D01*
X12577422Y21490595D01*
X12450000Y21503145D01*
X9450000Y21503145D01*
X9322578Y21490595D01*
X9200052Y21453427D01*
X9087132Y21393070D01*
X8988157Y21311843D01*
X8906930Y21212868D01*
X8846573Y21099948D01*
X8809405Y20977422D01*
X8796855Y20850000D01*
X8796855Y19350000D01*
X8809405Y19222578D01*
X8846573Y19100052D01*
X8906930Y18987132D01*
X8988157Y18888157D01*
X9087132Y18806930D01*
X9200052Y18746573D01*
X9322578Y18709405D01*
X9450000Y18696855D01*
X12450000Y18696855D01*
X12577422Y18709405D01*
X12699948Y18746573D01*
X12812868Y18806930D01*
X12911843Y18888157D01*
X12993070Y18987132D01*
X13026674Y19050000D01*
X13458754Y19050000D01*
X13494009Y19021067D01*
X13562093Y18965192D01*
X13613829Y18922733D01*
X13796238Y18825233D01*
X13992406Y18765726D01*
X14118713Y18713408D01*
X14437489Y18650000D01*
X14762511Y18650000D01*
X15081287Y18713408D01*
X15381568Y18837789D01*
X15538948Y18942947D01*
X15513408Y18881287D01*
X15450000Y18562511D01*
X15450000Y18237489D01*
X15513408Y17918713D01*
X15637789Y17618432D01*
X15818361Y17348186D01*
X16048186Y17118361D01*
X16318432Y16937789D01*
X16618713Y16813408D01*
X16937489Y16750000D01*
X17262511Y16750000D01*
X17581287Y16813408D01*
X17881568Y16937789D01*
X18151814Y17118361D01*
X18250000Y17216547D01*
X18348186Y17118361D01*
X18618432Y16937789D01*
X18918713Y16813408D01*
X19237489Y16750000D01*
X19562511Y16750000D01*
X19881287Y16813408D01*
X20181568Y16937789D01*
X20451814Y17118361D01*
X20550000Y17216547D01*
X20648186Y17118361D01*
X20918432Y16937789D01*
X21218713Y16813408D01*
X21537489Y16750000D01*
X21862511Y16750000D01*
X21864651Y16750426D01*
X22571855Y16043220D01*
X22571855Y15825000D01*
X22589209Y15648805D01*
X22640603Y15479381D01*
X22724062Y15323240D01*
X22836380Y15186380D01*
X22973240Y15074062D01*
X23129381Y14990603D01*
X23266628Y14948970D01*
X23313829Y14910233D01*
X23496238Y14812733D01*
X23694164Y14752693D01*
X23848422Y14737500D01*
X25577577Y14737500D01*
X26021063Y14294014D01*
X26053946Y14253946D01*
X26213829Y14122733D01*
X26396238Y14025233D01*
X26594164Y13965193D01*
X26748422Y13950000D01*
X26748431Y13950000D01*
X26799999Y13944921D01*
X26851567Y13950000D01*
X33448432Y13950000D01*
X33500000Y13944921D01*
X33551568Y13950000D01*
X37465077Y13950000D01*
X37584201Y13830875D01*
X37418432Y13762211D01*
X37148186Y13581639D01*
X36918361Y13351814D01*
X36737789Y13081568D01*
X36613408Y12781287D01*
X36550000Y12462511D01*
X36550000Y12137489D01*
X36613408Y11818713D01*
X36641870Y11750000D01*
X36489569Y11750000D01*
X36437998Y11755079D01*
X36386428Y11750000D01*
X36386420Y11750000D01*
X36232162Y11734807D01*
X36034236Y11674767D01*
X35851827Y11577267D01*
X35691944Y11446054D01*
X35659061Y11405986D01*
X35563014Y11309939D01*
X35563008Y11309934D01*
X34953065Y10699990D01*
X34750000Y10699990D01*
X34750000Y12800000D01*
X34745196Y12848773D01*
X34730970Y12895671D01*
X34707867Y12938893D01*
X34676777Y12976777D01*
X34638893Y13007867D01*
X34595671Y13030970D01*
X34548773Y13045196D01*
X34500000Y13050000D01*
X25100000Y13050000D01*
X25051227Y13045196D01*
X25004329Y13030970D01*
X24961107Y13007867D01*
X24923223Y12976777D01*
X24892133Y12938893D01*
X24869030Y12895671D01*
X24854804Y12848773D01*
X24850000Y12800000D01*
X24850000Y11000010D01*
X23237423Y11000010D01*
X23286592Y11118713D01*
X23350000Y11437489D01*
X23350000Y11762511D01*
X23286592Y12081287D01*
X23162211Y12381568D01*
X22981639Y12651814D01*
X22751814Y12881639D01*
X22481568Y13062211D01*
X22181287Y13186592D01*
X21862511Y13250000D01*
X21537489Y13250000D01*
X21535349Y13249574D01*
X20828916Y13956007D01*
X20796033Y13996075D01*
X20636150Y14127288D01*
X20453741Y14224788D01*
X20255815Y14284828D01*
X20101557Y14300021D01*
X20101547Y14300021D01*
X20049979Y14305100D01*
X19998411Y14300021D01*
X14079136Y14300021D01*
X14027565Y14305100D01*
X13975994Y14300021D01*
X13975987Y14300021D01*
X13821729Y14284828D01*
X13623803Y14224788D01*
X13441394Y14127288D01*
X13281511Y13996075D01*
X13248632Y13956012D01*
X12842621Y13550000D01*
X11550000Y13550000D01*
X11550000Y13648433D01*
X11555079Y13700001D01*
X11550000Y13751569D01*
X11550000Y15496855D01*
X12450000Y15496855D01*
X12577422Y15509405D01*
X12699948Y15546573D01*
X12812868Y15606930D01*
X12911843Y15688157D01*
X12993070Y15787132D01*
X13053427Y15900052D01*
X13090595Y16022578D01*
X13103145Y16150000D01*
X13103145Y17650000D01*
X13090595Y17777422D01*
X13053427Y17899948D01*
X12993070Y18012868D01*
X12911843Y18111843D01*
X12812868Y18193070D01*
X12699948Y18253427D01*
X12577422Y18290595D01*
X12450000Y18303145D01*
X9450000Y18303145D01*
X9322578Y18290595D01*
X9200052Y18253427D01*
X9087132Y18193070D01*
X8988157Y18111843D01*
X8906930Y18012868D01*
X8846573Y17899948D01*
X8809405Y17777422D01*
X8796855Y17650000D01*
X8796855Y16150000D01*
X8809405Y16022578D01*
X8846573Y15900052D01*
X8906930Y15787132D01*
X8988157Y15688157D01*
X9087132Y15606930D01*
X9200052Y15546573D01*
X9260801Y15528145D01*
X9025000Y15528145D01*
X8848805Y15510791D01*
X8679381Y15459397D01*
X8523240Y15375938D01*
X8386380Y15263620D01*
X8274062Y15126760D01*
X8190603Y14970619D01*
X8139209Y14801195D01*
X8121855Y14625000D01*
X8121855Y14320922D01*
X8107757Y14274447D01*
X8087500Y14068776D01*
X8087500Y13503463D01*
X8085922Y13503308D01*
X7667066Y13503308D01*
X7480846Y13559797D01*
X7326588Y13574990D01*
X7326578Y13574990D01*
X7275010Y13580069D01*
X7223442Y13574990D01*
X6249990Y13574990D01*
X6249990Y15496855D01*
X6550000Y15496855D01*
X6677422Y15509405D01*
X6799948Y15546573D01*
X6912868Y15606930D01*
X7011843Y15688157D01*
X7093070Y15787132D01*
X7153427Y15900052D01*
X7190595Y16022578D01*
X7203145Y16150000D01*
X7203145Y17650000D01*
X7190595Y17777422D01*
X7153427Y17899948D01*
X7093070Y18012868D01*
X7011843Y18111843D01*
X6912868Y18193070D01*
X6799948Y18253427D01*
X6677422Y18290595D01*
X6550000Y18303145D01*
X3550000Y18303145D01*
X3422578Y18290595D01*
X3300052Y18253427D01*
X3187132Y18193070D01*
X3088157Y18111843D01*
X3006930Y18012868D01*
X2946573Y17899948D01*
X2909405Y17777422D01*
X2896855Y17650000D01*
X2896855Y16150000D01*
X2909405Y16022578D01*
X2946573Y15900052D01*
X3006930Y15787132D01*
X3088157Y15688157D01*
X3187132Y15606930D01*
X3300052Y15546573D01*
X3422578Y15509405D01*
X3550000Y15496855D01*
X4149991Y15496855D01*
X4149990Y13074480D01*
X4144911Y13022912D01*
X4149990Y12971344D01*
X4149990Y12971335D01*
X4165183Y12817077D01*
X4225223Y12619151D01*
X4322723Y12436741D01*
X4453936Y12276858D01*
X4494004Y12243975D01*
X4918975Y11819004D01*
X4951858Y11778936D01*
X5111741Y11647723D01*
X5294150Y11550223D01*
X5294951Y11549980D01*
X2448442Y11549980D01*
X2294184Y11534787D01*
X2096258Y11474747D01*
X1913849Y11377247D01*
X1753966Y11246034D01*
X1622753Y11086151D01*
X1525253Y10903742D01*
X1465213Y10705816D01*
X1444940Y10499980D01*
X1465213Y10294144D01*
X1525253Y10096218D01*
X1622753Y9913809D01*
X1702317Y9816860D01*
X1661576Y9783424D01*
X1442888Y9516952D01*
X1280388Y9212936D01*
X1180321Y8883060D01*
X1146533Y8540000D01*
X675000Y8540000D01*
X675000Y24325000D01*
X60325001Y24325000D01*
X60325000Y675000D01*
%TD*%
M02*
