  0
SECTION
  2
HEADER
  9
$ANGBASE
  50
0.0
  9
$ANGDIR
  70
1
  9
$MEASUREMENT
  70
1
  0
ENDSEC
  0
SECTION
  2
TABLES
  0
TABLE
  2
LTYPE
  70
4
  0
LTYPE
  5
40F
  2
CONTINUOUS
  70
0
  3
Solid line
  72
65
  73
0
  40
0.0
  0
LTYPE
  5
410
  2
DASHDOT
 70
0
  3
Dash Dot ____ _ ____ _
 72
65
 73
4
 40
2.0
 49
1.25
 49
-0.25
 49
0.25
 49
-0.25
  0
LTYPE
  5
411
  2
DASHED
 70
0
  3
Dashed __ __ __ __ __
 72
65
 73
2
 40
0.75
 49
0.5
 49
-0.25
  0
LTYPE
  5
43B
  2
DOTTED
 70
0
  3
Dotted .  .  .  .
 72
65
 73
2
 40
0.2
 49
0.0
 49
-0.2
  0
ENDTAB
  0
TABLE
  2
STYLE
  70
4
  0
STYLE
  2
KICAD
  70
0
  40
0
  41
1
  42
1
  50
0
  71
0
  3
isocp.shx
  0
STYLE
  2
KICADB
  70
0
  40
0
  41
1
  42
1
  50
0
  71
0
  3
isocp.shx
  0
STYLE
  2
KICADI
  70
0
  40
0
  41
1
  42
1
  50
15
  71
0
  3
isocp.shx
  0
STYLE
  2
KICADBI
  70
0
  40
0
  41
1
  42
1
  50
15
  71
0
  3
isocp.shx
  0
ENDTAB
  0
TABLE
  2
LAYER
  70
1
  0
LAYER
  2
BLACK
  70
0
  62
7
  6
CONTINUOUS
  0
ENDTAB
  0
ENDSEC
  0
SECTION
  2
ENTITIES
0
LINE
8
BLACK
6
CONTINUOUS
10
24.5854
20
4.40581
11
24.7947
21
4.31912
0
LINE
8
BLACK
6
CONTINUOUS
10
24.7947
20
4.31912
11
24.9831
21
4.19326
0
LINE
8
BLACK
6
CONTINUOUS
10
24.9831
20
4.19326
11
25.1433
21
4.03308
0
LINE
8
BLACK
6
CONTINUOUS
10
25.1433
20
4.03308
11
25.2691
21
3.84473
0
LINE
8
BLACK
6
CONTINUOUS
10
25.2691
20
3.84473
11
25.3558
21
3.63544
0
LINE
8
BLACK
6
CONTINUOUS
10
25.3558
20
3.63544
11
25.4
21
3.41326
0
LINE
8
BLACK
6
CONTINUOUS
10
25.4
20
3.41326
11
25.4
21
3.18673
0
LINE
8
BLACK
6
CONTINUOUS
10
25.4
20
3.18673
11
25.3558
21
2.96456
0
LINE
8
BLACK
6
CONTINUOUS
10
25.3558
20
2.96456
11
25.2691
21
2.75527
0
LINE
8
BLACK
6
CONTINUOUS
10
25.2691
20
2.75527
11
25.1433
21
2.56692
0
LINE
8
BLACK
6
CONTINUOUS
10
25.1433
20
2.56692
11
24.9831
21
2.40674
0
LINE
8
BLACK
6
CONTINUOUS
10
24.9831
20
2.40674
11
24.7947
21
2.28088
0
LINE
8
BLACK
6
CONTINUOUS
10
24.7947
20
2.28088
11
24.5854
21
2.19419
0
LINE
8
BLACK
6
CONTINUOUS
10
24.5854
20
2.19419
11
24.3633
21
2.15
0
LINE
8
BLACK
6
CONTINUOUS
10
24.3633
20
2.15
11
24.1367
21
2.15
0
LINE
8
BLACK
6
CONTINUOUS
10
24.1367
20
2.15
11
23.9146
21
2.19419
0
LINE
8
BLACK
6
CONTINUOUS
10
23.9146
20
2.19419
11
23.7053
21
2.28088
0
LINE
8
BLACK
6
CONTINUOUS
10
23.7053
20
2.28088
11
23.5169
21
2.40674
0
LINE
8
BLACK
6
CONTINUOUS
10
23.5169
20
2.40674
11
23.3567
21
2.56692
0
LINE
8
BLACK
6
CONTINUOUS
10
23.3567
20
2.56692
11
23.2309
21
2.75527
0
LINE
8
BLACK
6
CONTINUOUS
10
23.2309
20
2.75527
11
23.1442
21
2.96456
0
LINE
8
BLACK
6
CONTINUOUS
10
23.1442
20
2.96456
11
23.1
21
3.18673
0
LINE
8
BLACK
6
CONTINUOUS
10
23.1
20
3.18673
11
23.1
21
3.41326
0
LINE
8
BLACK
6
CONTINUOUS
10
23.1
20
3.41326
11
23.1442
21
3.63544
0
LINE
8
BLACK
6
CONTINUOUS
10
23.1442
20
3.63544
11
23.2309
21
3.84473
0
LINE
8
BLACK
6
CONTINUOUS
10
23.2309
20
3.84473
11
23.3567
21
4.03308
0
LINE
8
BLACK
6
CONTINUOUS
10
23.3567
20
4.03308
11
23.5169
21
4.19326
0
LINE
8
BLACK
6
CONTINUOUS
10
23.5169
20
4.19326
11
23.7053
21
4.31912
0
LINE
8
BLACK
6
CONTINUOUS
10
23.7053
20
4.31912
11
23.9146
21
4.40581
0
LINE
8
BLACK
6
CONTINUOUS
10
23.9146
20
4.40581
11
24.1367
21
4.45
0
LINE
8
BLACK
6
CONTINUOUS
10
24.1367
20
4.45
11
24.3633
21
4.45
0
LINE
8
BLACK
6
CONTINUOUS
10
24.3633
20
4.45
11
24.5854
21
4.40581
0
LINE
8
BLACK
6
CONTINUOUS
10
27.1254
20
4.40581
11
27.3347
21
4.31912
0
LINE
8
BLACK
6
CONTINUOUS
10
27.3347
20
4.31912
11
27.5231
21
4.19326
0
LINE
8
BLACK
6
CONTINUOUS
10
27.5231
20
4.19326
11
27.6833
21
4.03308
0
LINE
8
BLACK
6
CONTINUOUS
10
27.6833
20
4.03308
11
27.8091
21
3.84473
0
LINE
8
BLACK
6
CONTINUOUS
10
27.8091
20
3.84473
11
27.8958
21
3.63544
0
LINE
8
BLACK
6
CONTINUOUS
10
27.8958
20
3.63544
11
27.94
21
3.41326
0
LINE
8
BLACK
6
CONTINUOUS
10
27.94
20
3.41326
11
27.94
21
3.18673
0
LINE
8
BLACK
6
CONTINUOUS
10
27.94
20
3.18673
11
27.8958
21
2.96456
0
LINE
8
BLACK
6
CONTINUOUS
10
27.8958
20
2.96456
11
27.8091
21
2.75527
0
LINE
8
BLACK
6
CONTINUOUS
10
27.8091
20
2.75527
11
27.6833
21
2.56692
0
LINE
8
BLACK
6
CONTINUOUS
10
27.6833
20
2.56692
11
27.5231
21
2.40674
0
LINE
8
BLACK
6
CONTINUOUS
10
27.5231
20
2.40674
11
27.3347
21
2.28088
0
LINE
8
BLACK
6
CONTINUOUS
10
27.3347
20
2.28088
11
27.1254
21
2.19419
0
LINE
8
BLACK
6
CONTINUOUS
10
27.1254
20
2.19419
11
26.9033
21
2.15
0
LINE
8
BLACK
6
CONTINUOUS
10
26.9033
20
2.15
11
26.6767
21
2.15
0
LINE
8
BLACK
6
CONTINUOUS
10
26.6767
20
2.15
11
26.4546
21
2.19419
0
LINE
8
BLACK
6
CONTINUOUS
10
26.4546
20
2.19419
11
26.2453
21
2.28088
0
LINE
8
BLACK
6
CONTINUOUS
10
26.2453
20
2.28088
11
26.0569
21
2.40674
0
LINE
8
BLACK
6
CONTINUOUS
10
26.0569
20
2.40674
11
25.8967
21
2.56692
0
LINE
8
BLACK
6
CONTINUOUS
10
25.8967
20
2.56692
11
25.7709
21
2.75527
0
LINE
8
BLACK
6
CONTINUOUS
10
25.7709
20
2.75527
11
25.6842
21
2.96456
0
LINE
8
BLACK
6
CONTINUOUS
10
25.6842
20
2.96456
11
25.64
21
3.18673
0
LINE
8
BLACK
6
CONTINUOUS
10
25.64
20
3.18673
11
25.64
21
3.41326
0
LINE
8
BLACK
6
CONTINUOUS
10
25.64
20
3.41326
11
25.6842
21
3.63544
0
LINE
8
BLACK
6
CONTINUOUS
10
25.6842
20
3.63544
11
25.7709
21
3.84473
0
LINE
8
BLACK
6
CONTINUOUS
10
25.7709
20
3.84473
11
25.8967
21
4.03308
0
LINE
8
BLACK
6
CONTINUOUS
10
25.8967
20
4.03308
11
26.0569
21
4.19326
0
LINE
8
BLACK
6
CONTINUOUS
10
26.0569
20
4.19326
11
26.2453
21
4.31912
0
LINE
8
BLACK
6
CONTINUOUS
10
26.2453
20
4.31912
11
26.4546
21
4.40581
0
LINE
8
BLACK
6
CONTINUOUS
10
26.4546
20
4.40581
11
26.6767
21
4.45
0
LINE
8
BLACK
6
CONTINUOUS
10
26.6767
20
4.45
11
26.9033
21
4.45
0
LINE
8
BLACK
6
CONTINUOUS
10
26.9033
20
4.45
11
27.1254
21
4.40581
0
LINE
8
BLACK
6
CONTINUOUS
10
29.6654
20
4.40581
11
29.8747
21
4.31912
0
LINE
8
BLACK
6
CONTINUOUS
10
29.8747
20
4.31912
11
30.0631
21
4.19326
0
LINE
8
BLACK
6
CONTINUOUS
10
30.0631
20
4.19326
11
30.2233
21
4.03308
0
LINE
8
BLACK
6
CONTINUOUS
10
30.2233
20
4.03308
11
30.3491
21
3.84473
0
LINE
8
BLACK
6
CONTINUOUS
10
30.3491
20
3.84473
11
30.4358
21
3.63544
0
LINE
8
BLACK
6
CONTINUOUS
10
30.4358
20
3.63544
11
30.48
21
3.41326
0
LINE
8
BLACK
6
CONTINUOUS
10
30.48
20
3.41326
11
30.48
21
3.18673
0
LINE
8
BLACK
6
CONTINUOUS
10
30.48
20
3.18673
11
30.4358
21
2.96456
0
LINE
8
BLACK
6
CONTINUOUS
10
30.4358
20
2.96456
11
30.3491
21
2.75527
0
LINE
8
BLACK
6
CONTINUOUS
10
30.3491
20
2.75527
11
30.2233
21
2.56692
0
LINE
8
BLACK
6
CONTINUOUS
10
30.2233
20
2.56692
11
30.0631
21
2.40674
0
LINE
8
BLACK
6
CONTINUOUS
10
30.0631
20
2.40674
11
29.8747
21
2.28088
0
LINE
8
BLACK
6
CONTINUOUS
10
29.8747
20
2.28088
11
29.6654
21
2.19419
0
LINE
8
BLACK
6
CONTINUOUS
10
29.6654
20
2.19419
11
29.4433
21
2.15
0
LINE
8
BLACK
6
CONTINUOUS
10
29.4433
20
2.15
11
29.2167
21
2.15
0
LINE
8
BLACK
6
CONTINUOUS
10
29.2167
20
2.15
11
28.9946
21
2.19419
0
LINE
8
BLACK
6
CONTINUOUS
10
28.9946
20
2.19419
11
28.7853
21
2.28088
0
LINE
8
BLACK
6
CONTINUOUS
10
28.7853
20
2.28088
11
28.5969
21
2.40674
0
LINE
8
BLACK
6
CONTINUOUS
10
28.5969
20
2.40674
11
28.4367
21
2.56692
0
LINE
8
BLACK
6
CONTINUOUS
10
28.4367
20
2.56692
11
28.3109
21
2.75527
0
LINE
8
BLACK
6
CONTINUOUS
10
28.3109
20
2.75527
11
28.2242
21
2.96456
0
LINE
8
BLACK
6
CONTINUOUS
10
28.2242
20
2.96456
11
28.18
21
3.18673
0
LINE
8
BLACK
6
CONTINUOUS
10
28.18
20
3.18673
11
28.18
21
3.41326
0
LINE
8
BLACK
6
CONTINUOUS
10
28.18
20
3.41326
11
28.2242
21
3.63544
0
LINE
8
BLACK
6
CONTINUOUS
10
28.2242
20
3.63544
11
28.3109
21
3.84473
0
LINE
8
BLACK
6
CONTINUOUS
10
28.3109
20
3.84473
11
28.4367
21
4.03308
0
LINE
8
BLACK
6
CONTINUOUS
10
28.4367
20
4.03308
11
28.5969
21
4.19326
0
LINE
8
BLACK
6
CONTINUOUS
10
28.5969
20
4.19326
11
28.7853
21
4.31912
0
LINE
8
BLACK
6
CONTINUOUS
10
28.7853
20
4.31912
11
28.9946
21
4.40581
0
LINE
8
BLACK
6
CONTINUOUS
10
28.9946
20
4.40581
11
29.2167
21
4.45
0
LINE
8
BLACK
6
CONTINUOUS
10
29.2167
20
4.45
11
29.4433
21
4.45
0
LINE
8
BLACK
6
CONTINUOUS
10
29.4433
20
4.45
11
29.6654
21
4.40581
0
LINE
8
BLACK
6
CONTINUOUS
10
32.2054
20
4.40581
11
32.4147
21
4.31912
0
LINE
8
BLACK
6
CONTINUOUS
10
32.4147
20
4.31912
11
32.6031
21
4.19326
0
LINE
8
BLACK
6
CONTINUOUS
10
32.6031
20
4.19326
11
32.7633
21
4.03308
0
LINE
8
BLACK
6
CONTINUOUS
10
32.7633
20
4.03308
11
32.8891
21
3.84473
0
LINE
8
BLACK
6
CONTINUOUS
10
32.8891
20
3.84473
11
32.9758
21
3.63544
0
LINE
8
BLACK
6
CONTINUOUS
10
32.9758
20
3.63544
11
33.02
21
3.41326
0
LINE
8
BLACK
6
CONTINUOUS
10
33.02
20
3.41326
11
33.02
21
3.18673
0
LINE
8
BLACK
6
CONTINUOUS
10
33.02
20
3.18673
11
32.9758
21
2.96456
0
LINE
8
BLACK
6
CONTINUOUS
10
32.9758
20
2.96456
11
32.8891
21
2.75527
0
LINE
8
BLACK
6
CONTINUOUS
10
32.8891
20
2.75527
11
32.7633
21
2.56692
0
LINE
8
BLACK
6
CONTINUOUS
10
32.7633
20
2.56692
11
32.6031
21
2.40674
0
LINE
8
BLACK
6
CONTINUOUS
10
32.6031
20
2.40674
11
32.4147
21
2.28088
0
LINE
8
BLACK
6
CONTINUOUS
10
32.4147
20
2.28088
11
32.2054
21
2.19419
0
LINE
8
BLACK
6
CONTINUOUS
10
32.2054
20
2.19419
11
31.9833
21
2.15
0
LINE
8
BLACK
6
CONTINUOUS
10
31.9833
20
2.15
11
31.7567
21
2.15
0
LINE
8
BLACK
6
CONTINUOUS
10
31.7567
20
2.15
11
31.5346
21
2.19419
0
LINE
8
BLACK
6
CONTINUOUS
10
31.5346
20
2.19419
11
31.3253
21
2.28088
0
LINE
8
BLACK
6
CONTINUOUS
10
31.3253
20
2.28088
11
31.1369
21
2.40674
0
LINE
8
BLACK
6
CONTINUOUS
10
31.1369
20
2.40674
11
30.9767
21
2.56692
0
LINE
8
BLACK
6
CONTINUOUS
10
30.9767
20
2.56692
11
30.8509
21
2.75527
0
LINE
8
BLACK
6
CONTINUOUS
10
30.8509
20
2.75527
11
30.7642
21
2.96456
0
LINE
8
BLACK
6
CONTINUOUS
10
30.7642
20
2.96456
11
30.72
21
3.18673
0
LINE
8
BLACK
6
CONTINUOUS
10
30.72
20
3.18673
11
30.72
21
3.41326
0
LINE
8
BLACK
6
CONTINUOUS
10
30.72
20
3.41326
11
30.7642
21
3.63544
0
LINE
8
BLACK
6
CONTINUOUS
10
30.7642
20
3.63544
11
30.8509
21
3.84473
0
LINE
8
BLACK
6
CONTINUOUS
10
30.8509
20
3.84473
11
30.9767
21
4.03308
0
LINE
8
BLACK
6
CONTINUOUS
10
30.9767
20
4.03308
11
31.1369
21
4.19326
0
LINE
8
BLACK
6
CONTINUOUS
10
31.1369
20
4.19326
11
31.3253
21
4.31912
0
LINE
8
BLACK
6
CONTINUOUS
10
31.3253
20
4.31912
11
31.5346
21
4.40581
0
LINE
8
BLACK
6
CONTINUOUS
10
31.5346
20
4.40581
11
31.7567
21
4.45
0
LINE
8
BLACK
6
CONTINUOUS
10
31.7567
20
4.45
11
31.9833
21
4.45
0
LINE
8
BLACK
6
CONTINUOUS
10
31.9833
20
4.45
11
32.2054
21
4.40581
0
LINE
8
BLACK
6
CONTINUOUS
10
34.7454
20
4.40581
11
34.9547
21
4.31912
0
LINE
8
BLACK
6
CONTINUOUS
10
34.9547
20
4.31912
11
35.1431
21
4.19326
0
LINE
8
BLACK
6
CONTINUOUS
10
35.1431
20
4.19326
11
35.3033
21
4.03308
0
LINE
8
BLACK
6
CONTINUOUS
10
35.3033
20
4.03308
11
35.4291
21
3.84473
0
LINE
8
BLACK
6
CONTINUOUS
10
35.4291
20
3.84473
11
35.5158
21
3.63544
0
LINE
8
BLACK
6
CONTINUOUS
10
35.5158
20
3.63544
11
35.56
21
3.41326
0
LINE
8
BLACK
6
CONTINUOUS
10
35.56
20
3.41326
11
35.56
21
3.18673
0
LINE
8
BLACK
6
CONTINUOUS
10
35.56
20
3.18673
11
35.5158
21
2.96456
0
LINE
8
BLACK
6
CONTINUOUS
10
35.5158
20
2.96456
11
35.4291
21
2.75527
0
LINE
8
BLACK
6
CONTINUOUS
10
35.4291
20
2.75527
11
35.3033
21
2.56692
0
LINE
8
BLACK
6
CONTINUOUS
10
35.3033
20
2.56692
11
35.1431
21
2.40674
0
LINE
8
BLACK
6
CONTINUOUS
10
35.1431
20
2.40674
11
34.9547
21
2.28088
0
LINE
8
BLACK
6
CONTINUOUS
10
34.9547
20
2.28088
11
34.7454
21
2.19419
0
LINE
8
BLACK
6
CONTINUOUS
10
34.7454
20
2.19419
11
34.5233
21
2.15
0
LINE
8
BLACK
6
CONTINUOUS
10
34.5233
20
2.15
11
34.2967
21
2.15
0
LINE
8
BLACK
6
CONTINUOUS
10
34.2967
20
2.15
11
34.0746
21
2.19419
0
LINE
8
BLACK
6
CONTINUOUS
10
34.0746
20
2.19419
11
33.8653
21
2.28088
0
LINE
8
BLACK
6
CONTINUOUS
10
33.8653
20
2.28088
11
33.6769
21
2.40674
0
LINE
8
BLACK
6
CONTINUOUS
10
33.6769
20
2.40674
11
33.5167
21
2.56692
0
LINE
8
BLACK
6
CONTINUOUS
10
33.5167
20
2.56692
11
33.3909
21
2.75527
0
LINE
8
BLACK
6
CONTINUOUS
10
33.3909
20
2.75527
11
33.3042
21
2.96456
0
LINE
8
BLACK
6
CONTINUOUS
10
33.3042
20
2.96456
11
33.26
21
3.18673
0
LINE
8
BLACK
6
CONTINUOUS
10
33.26
20
3.18673
11
33.26
21
3.41326
0
LINE
8
BLACK
6
CONTINUOUS
10
33.26
20
3.41326
11
33.3042
21
3.63544
0
LINE
8
BLACK
6
CONTINUOUS
10
33.3042
20
3.63544
11
33.3909
21
3.84473
0
LINE
8
BLACK
6
CONTINUOUS
10
33.3909
20
3.84473
11
33.5167
21
4.03308
0
LINE
8
BLACK
6
CONTINUOUS
10
33.5167
20
4.03308
11
33.6769
21
4.19326
0
LINE
8
BLACK
6
CONTINUOUS
10
33.6769
20
4.19326
11
33.8653
21
4.31912
0
LINE
8
BLACK
6
CONTINUOUS
10
33.8653
20
4.31912
11
34.0746
21
4.40581
0
LINE
8
BLACK
6
CONTINUOUS
10
34.0746
20
4.40581
11
34.2967
21
4.45
0
LINE
8
BLACK
6
CONTINUOUS
10
34.2967
20
4.45
11
34.5233
21
4.45
0
LINE
8
BLACK
6
CONTINUOUS
10
34.5233
20
4.45
11
34.7454
21
4.40581
0
LINE
8
BLACK
6
CONTINUOUS
10
37.2854
20
4.40581
11
37.4947
21
4.31912
0
LINE
8
BLACK
6
CONTINUOUS
10
37.4947
20
4.31912
11
37.6831
21
4.19326
0
LINE
8
BLACK
6
CONTINUOUS
10
37.6831
20
4.19326
11
37.8433
21
4.03308
0
LINE
8
BLACK
6
CONTINUOUS
10
37.8433
20
4.03308
11
37.9691
21
3.84473
0
LINE
8
BLACK
6
CONTINUOUS
10
37.9691
20
3.84473
11
38.0558
21
3.63544
0
LINE
8
BLACK
6
CONTINUOUS
10
38.0558
20
3.63544
11
38.1
21
3.41326
0
LINE
8
BLACK
6
CONTINUOUS
10
38.1
20
3.41326
11
38.1
21
3.18673
0
LINE
8
BLACK
6
CONTINUOUS
10
38.1
20
3.18673
11
38.0558
21
2.96456
0
LINE
8
BLACK
6
CONTINUOUS
10
38.0558
20
2.96456
11
37.9691
21
2.75527
0
LINE
8
BLACK
6
CONTINUOUS
10
37.9691
20
2.75527
11
37.8433
21
2.56692
0
LINE
8
BLACK
6
CONTINUOUS
10
37.8433
20
2.56692
11
37.6831
21
2.40674
0
LINE
8
BLACK
6
CONTINUOUS
10
37.6831
20
2.40674
11
37.4947
21
2.28088
0
LINE
8
BLACK
6
CONTINUOUS
10
37.4947
20
2.28088
11
37.2854
21
2.19419
0
LINE
8
BLACK
6
CONTINUOUS
10
37.2854
20
2.19419
11
37.0633
21
2.15
0
LINE
8
BLACK
6
CONTINUOUS
10
37.0633
20
2.15
11
36.8367
21
2.15
0
LINE
8
BLACK
6
CONTINUOUS
10
36.8367
20
2.15
11
36.6146
21
2.19419
0
LINE
8
BLACK
6
CONTINUOUS
10
36.6146
20
2.19419
11
36.4053
21
2.28088
0
LINE
8
BLACK
6
CONTINUOUS
10
36.4053
20
2.28088
11
36.2169
21
2.40674
0
LINE
8
BLACK
6
CONTINUOUS
10
36.2169
20
2.40674
11
36.0567
21
2.56692
0
LINE
8
BLACK
6
CONTINUOUS
10
36.0567
20
2.56692
11
35.9309
21
2.75527
0
LINE
8
BLACK
6
CONTINUOUS
10
35.9309
20
2.75527
11
35.8442
21
2.96456
0
LINE
8
BLACK
6
CONTINUOUS
10
35.8442
20
2.96456
11
35.8
21
3.18673
0
LINE
8
BLACK
6
CONTINUOUS
10
35.8
20
3.18673
11
35.8
21
3.41326
0
LINE
8
BLACK
6
CONTINUOUS
10
35.8
20
3.41326
11
35.8442
21
3.63544
0
LINE
8
BLACK
6
CONTINUOUS
10
35.8442
20
3.63544
11
35.9309
21
3.84473
0
LINE
8
BLACK
6
CONTINUOUS
10
35.9309
20
3.84473
11
36.0567
21
4.03308
0
LINE
8
BLACK
6
CONTINUOUS
10
36.0567
20
4.03308
11
36.2169
21
4.19326
0
LINE
8
BLACK
6
CONTINUOUS
10
36.2169
20
4.19326
11
36.4053
21
4.31912
0
LINE
8
BLACK
6
CONTINUOUS
10
36.4053
20
4.31912
11
36.6146
21
4.40581
0
LINE
8
BLACK
6
CONTINUOUS
10
36.6146
20
4.40581
11
36.8367
21
4.45
0
LINE
8
BLACK
6
CONTINUOUS
10
36.8367
20
4.45
11
37.0633
21
4.45
0
LINE
8
BLACK
6
CONTINUOUS
10
37.0633
20
4.45
11
37.2854
21
4.40581
0
LINE
8
BLACK
6
CONTINUOUS
10
13.3204
20
4.59336
11
13.5372
21
4.5276
0
LINE
8
BLACK
6
CONTINUOUS
10
13.5372
20
4.5276
11
13.737
21
4.42082
0
LINE
8
BLACK
6
CONTINUOUS
10
13.737
20
4.42082
11
13.9121
21
4.27711
0
LINE
8
BLACK
6
CONTINUOUS
10
13.9121
20
4.27711
11
14.0558
21
4.102
0
LINE
8
BLACK
6
CONTINUOUS
10
14.0558
20
4.102
11
14.1626
21
3.90221
0
LINE
8
BLACK
6
CONTINUOUS
10
14.1626
20
3.90221
11
14.2284
21
3.68544
0
LINE
8
BLACK
6
CONTINUOUS
10
14.2284
20
3.68544
11
14.2506
21
3.46
0
LINE
8
BLACK
6
CONTINUOUS
10
14.2506
20
3.46
11
14.2284
21
3.23456
0
LINE
8
BLACK
6
CONTINUOUS
10
14.2284
20
3.23456
11
14.1626
21
3.01778
0
LINE
8
BLACK
6
CONTINUOUS
10
14.1626
20
3.01778
11
14.0558
21
2.818
0
LINE
8
BLACK
6
CONTINUOUS
10
14.0558
20
2.818
11
13.9121
21
2.64289
0
LINE
8
BLACK
6
CONTINUOUS
10
13.9121
20
2.64289
11
13.737
21
2.49918
0
LINE
8
BLACK
6
CONTINUOUS
10
13.737
20
2.49918
11
13.5372
21
2.3924
0
LINE
8
BLACK
6
CONTINUOUS
10
13.5372
20
2.3924
11
13.3204
21
2.32664
0
LINE
8
BLACK
6
CONTINUOUS
10
13.3204
20
2.32664
11
13.1515
21
2.31
0
LINE
8
BLACK
6
CONTINUOUS
10
13.1515
20
2.31
11
11.7685
21
2.31
0
LINE
8
BLACK
6
CONTINUOUS
10
11.7685
20
2.31
11
11.5996
21
2.32664
0
LINE
8
BLACK
6
CONTINUOUS
10
11.5996
20
2.32664
11
11.3828
21
2.3924
0
LINE
8
BLACK
6
CONTINUOUS
10
11.3828
20
2.3924
11
11.183
21
2.49918
0
LINE
8
BLACK
6
CONTINUOUS
10
11.183
20
2.49918
11
11.0079
21
2.64289
0
LINE
8
BLACK
6
CONTINUOUS
10
11.0079
20
2.64289
11
10.8642
21
2.818
0
LINE
8
BLACK
6
CONTINUOUS
10
10.8642
20
2.818
11
10.7574
21
3.01778
0
LINE
8
BLACK
6
CONTINUOUS
10
10.7574
20
3.01778
11
10.6916
21
3.23456
0
LINE
8
BLACK
6
CONTINUOUS
10
10.6916
20
3.23456
11
10.6694
21
3.46
0
LINE
8
BLACK
6
CONTINUOUS
10
10.6694
20
3.46
11
10.6916
21
3.68544
0
LINE
8
BLACK
6
CONTINUOUS
10
10.6916
20
3.68544
11
10.7574
21
3.90221
0
LINE
8
BLACK
6
CONTINUOUS
10
10.7574
20
3.90221
11
10.8642
21
4.102
0
LINE
8
BLACK
6
CONTINUOUS
10
10.8642
20
4.102
11
11.0079
21
4.27711
0
LINE
8
BLACK
6
CONTINUOUS
10
11.0079
20
4.27711
11
11.183
21
4.42082
0
LINE
8
BLACK
6
CONTINUOUS
10
11.183
20
4.42082
11
11.3828
21
4.5276
0
LINE
8
BLACK
6
CONTINUOUS
10
11.3828
20
4.5276
11
11.5996
21
4.59336
0
LINE
8
BLACK
6
CONTINUOUS
10
11.5996
20
4.59336
11
11.7685
21
4.61
0
LINE
8
BLACK
6
CONTINUOUS
10
11.7685
20
4.61
11
13.1515
21
4.61
0
LINE
8
BLACK
6
CONTINUOUS
10
13.1515
20
4.61
11
13.3204
21
4.59336
0
LINE
8
BLACK
6
CONTINUOUS
10
4.40044
20
4.59336
11
4.61721
21
4.5276
0
LINE
8
BLACK
6
CONTINUOUS
10
4.61721
20
4.5276
11
4.817
21
4.42082
0
LINE
8
BLACK
6
CONTINUOUS
10
4.817
20
4.42082
11
4.99211
21
4.27711
0
LINE
8
BLACK
6
CONTINUOUS
10
4.99211
20
4.27711
11
5.13582
21
4.102
0
LINE
8
BLACK
6
CONTINUOUS
10
5.13582
20
4.102
11
5.2426
21
3.90221
0
LINE
8
BLACK
6
CONTINUOUS
10
5.2426
20
3.90221
11
5.30836
21
3.68544
0
LINE
8
BLACK
6
CONTINUOUS
10
5.30836
20
3.68544
11
5.33056
21
3.46
0
LINE
8
BLACK
6
CONTINUOUS
10
5.33056
20
3.46
11
5.30836
21
3.23456
0
LINE
8
BLACK
6
CONTINUOUS
10
5.30836
20
3.23456
11
5.2426
21
3.01778
0
LINE
8
BLACK
6
CONTINUOUS
10
5.2426
20
3.01778
11
5.13582
21
2.818
0
LINE
8
BLACK
6
CONTINUOUS
10
5.13582
20
2.818
11
4.99211
21
2.64289
0
LINE
8
BLACK
6
CONTINUOUS
10
4.99211
20
2.64289
11
4.817
21
2.49918
0
LINE
8
BLACK
6
CONTINUOUS
10
4.817
20
2.49918
11
4.61721
21
2.3924
0
LINE
8
BLACK
6
CONTINUOUS
10
4.61721
20
2.3924
11
4.40044
21
2.32664
0
LINE
8
BLACK
6
CONTINUOUS
10
4.40044
20
2.32664
11
4.23149
21
2.31
0
LINE
8
BLACK
6
CONTINUOUS
10
4.23149
20
2.31
11
2.84851
21
2.31
0
LINE
8
BLACK
6
CONTINUOUS
10
2.84851
20
2.31
11
2.67956
21
2.32664
0
LINE
8
BLACK
6
CONTINUOUS
10
2.67956
20
2.32664
11
2.46278
21
2.3924
0
LINE
8
BLACK
6
CONTINUOUS
10
2.46278
20
2.3924
11
2.263
21
2.49918
0
LINE
8
BLACK
6
CONTINUOUS
10
2.263
20
2.49918
11
2.08789
21
2.64289
0
LINE
8
BLACK
6
CONTINUOUS
10
2.08789
20
2.64289
11
1.94418
21
2.818
0
LINE
8
BLACK
6
CONTINUOUS
10
1.94418
20
2.818
11
1.8374
21
3.01778
0
LINE
8
BLACK
6
CONTINUOUS
10
1.8374
20
3.01778
11
1.77164
21
3.23456
0
LINE
8
BLACK
6
CONTINUOUS
10
1.77164
20
3.23456
11
1.74944
21
3.46
0
LINE
8
BLACK
6
CONTINUOUS
10
1.74944
20
3.46
11
1.77164
21
3.68544
0
LINE
8
BLACK
6
CONTINUOUS
10
1.77164
20
3.68544
11
1.8374
21
3.90221
0
LINE
8
BLACK
6
CONTINUOUS
10
1.8374
20
3.90221
11
1.94418
21
4.102
0
LINE
8
BLACK
6
CONTINUOUS
10
1.94418
20
4.102
11
2.08789
21
4.27711
0
LINE
8
BLACK
6
CONTINUOUS
10
2.08789
20
4.27711
11
2.263
21
4.42082
0
LINE
8
BLACK
6
CONTINUOUS
10
2.263
20
4.42082
11
2.46278
21
4.5276
0
LINE
8
BLACK
6
CONTINUOUS
10
2.46278
20
4.5276
11
2.67956
21
4.59336
0
LINE
8
BLACK
6
CONTINUOUS
10
2.67956
20
4.59336
11
2.84851
21
4.61
0
LINE
8
BLACK
6
CONTINUOUS
10
2.84851
20
4.61
11
4.23149
21
4.61
0
LINE
8
BLACK
6
CONTINUOUS
10
4.23149
20
4.61
11
4.40044
21
4.59336
0
LINE
8
BLACK
6
CONTINUOUS
10
58.3204
20
4.59336
11
58.5372
21
4.5276
0
LINE
8
BLACK
6
CONTINUOUS
10
58.5372
20
4.5276
11
58.737
21
4.42082
0
LINE
8
BLACK
6
CONTINUOUS
10
58.737
20
4.42082
11
58.9121
21
4.27711
0
LINE
8
BLACK
6
CONTINUOUS
10
58.9121
20
4.27711
11
59.0558
21
4.102
0
LINE
8
BLACK
6
CONTINUOUS
10
59.0558
20
4.102
11
59.1626
21
3.90221
0
LINE
8
BLACK
6
CONTINUOUS
10
59.1626
20
3.90221
11
59.2284
21
3.68544
0
LINE
8
BLACK
6
CONTINUOUS
10
59.2284
20
3.68544
11
59.2506
21
3.46
0
LINE
8
BLACK
6
CONTINUOUS
10
59.2506
20
3.46
11
59.2284
21
3.23456
0
LINE
8
BLACK
6
CONTINUOUS
10
59.2284
20
3.23456
11
59.1626
21
3.01778
0
LINE
8
BLACK
6
CONTINUOUS
10
59.1626
20
3.01778
11
59.0558
21
2.818
0
LINE
8
BLACK
6
CONTINUOUS
10
59.0558
20
2.818
11
58.9121
21
2.64289
0
LINE
8
BLACK
6
CONTINUOUS
10
58.9121
20
2.64289
11
58.737
21
2.49918
0
LINE
8
BLACK
6
CONTINUOUS
10
58.737
20
2.49918
11
58.5372
21
2.3924
0
LINE
8
BLACK
6
CONTINUOUS
10
58.5372
20
2.3924
11
58.3204
21
2.32664
0
LINE
8
BLACK
6
CONTINUOUS
10
58.3204
20
2.32664
11
58.1515
21
2.31
0
LINE
8
BLACK
6
CONTINUOUS
10
58.1515
20
2.31
11
56.7685
21
2.31
0
LINE
8
BLACK
6
CONTINUOUS
10
56.7685
20
2.31
11
56.5996
21
2.32664
0
LINE
8
BLACK
6
CONTINUOUS
10
56.5996
20
2.32664
11
56.3828
21
2.3924
0
LINE
8
BLACK
6
CONTINUOUS
10
56.3828
20
2.3924
11
56.183
21
2.49918
0
LINE
8
BLACK
6
CONTINUOUS
10
56.183
20
2.49918
11
56.0079
21
2.64289
0
LINE
8
BLACK
6
CONTINUOUS
10
56.0079
20
2.64289
11
55.8642
21
2.818
0
LINE
8
BLACK
6
CONTINUOUS
10
55.8642
20
2.818
11
55.7574
21
3.01778
0
LINE
8
BLACK
6
CONTINUOUS
10
55.7574
20
3.01778
11
55.6916
21
3.23456
0
LINE
8
BLACK
6
CONTINUOUS
10
55.6916
20
3.23456
11
55.6694
21
3.46
0
LINE
8
BLACK
6
CONTINUOUS
10
55.6694
20
3.46
11
55.6916
21
3.68544
0
LINE
8
BLACK
6
CONTINUOUS
10
55.6916
20
3.68544
11
55.7574
21
3.90221
0
LINE
8
BLACK
6
CONTINUOUS
10
55.7574
20
3.90221
11
55.8642
21
4.102
0
LINE
8
BLACK
6
CONTINUOUS
10
55.8642
20
4.102
11
56.0079
21
4.27711
0
LINE
8
BLACK
6
CONTINUOUS
10
56.0079
20
4.27711
11
56.183
21
4.42082
0
LINE
8
BLACK
6
CONTINUOUS
10
56.183
20
4.42082
11
56.3828
21
4.5276
0
LINE
8
BLACK
6
CONTINUOUS
10
56.3828
20
4.5276
11
56.5996
21
4.59336
0
LINE
8
BLACK
6
CONTINUOUS
10
56.5996
20
4.59336
11
56.7685
21
4.61
0
LINE
8
BLACK
6
CONTINUOUS
10
56.7685
20
4.61
11
58.1515
21
4.61
0
LINE
8
BLACK
6
CONTINUOUS
10
58.1515
20
4.61
11
58.3204
21
4.59336
0
LINE
8
BLACK
6
CONTINUOUS
10
49.4004
20
4.59336
11
49.6172
21
4.5276
0
LINE
8
BLACK
6
CONTINUOUS
10
49.6172
20
4.5276
11
49.817
21
4.42082
0
LINE
8
BLACK
6
CONTINUOUS
10
49.817
20
4.42082
11
49.9921
21
4.27711
0
LINE
8
BLACK
6
CONTINUOUS
10
49.9921
20
4.27711
11
50.1358
21
4.102
0
LINE
8
BLACK
6
CONTINUOUS
10
50.1358
20
4.102
11
50.2426
21
3.90221
0
LINE
8
BLACK
6
CONTINUOUS
10
50.2426
20
3.90221
11
50.3084
21
3.68544
0
LINE
8
BLACK
6
CONTINUOUS
10
50.3084
20
3.68544
11
50.3306
21
3.46
0
LINE
8
BLACK
6
CONTINUOUS
10
50.3306
20
3.46
11
50.3084
21
3.23456
0
LINE
8
BLACK
6
CONTINUOUS
10
50.3084
20
3.23456
11
50.2426
21
3.01778
0
LINE
8
BLACK
6
CONTINUOUS
10
50.2426
20
3.01778
11
50.1358
21
2.818
0
LINE
8
BLACK
6
CONTINUOUS
10
50.1358
20
2.818
11
49.9921
21
2.64289
0
LINE
8
BLACK
6
CONTINUOUS
10
49.9921
20
2.64289
11
49.817
21
2.49918
0
LINE
8
BLACK
6
CONTINUOUS
10
49.817
20
2.49918
11
49.6172
21
2.3924
0
LINE
8
BLACK
6
CONTINUOUS
10
49.6172
20
2.3924
11
49.4004
21
2.32664
0
LINE
8
BLACK
6
CONTINUOUS
10
49.4004
20
2.32664
11
49.2315
21
2.31
0
LINE
8
BLACK
6
CONTINUOUS
10
49.2315
20
2.31
11
47.8485
21
2.31
0
LINE
8
BLACK
6
CONTINUOUS
10
47.8485
20
2.31
11
47.6796
21
2.32664
0
LINE
8
BLACK
6
CONTINUOUS
10
47.6796
20
2.32664
11
47.4628
21
2.3924
0
LINE
8
BLACK
6
CONTINUOUS
10
47.4628
20
2.3924
11
47.263
21
2.49918
0
LINE
8
BLACK
6
CONTINUOUS
10
47.263
20
2.49918
11
47.0879
21
2.64289
0
LINE
8
BLACK
6
CONTINUOUS
10
47.0879
20
2.64289
11
46.9442
21
2.818
0
LINE
8
BLACK
6
CONTINUOUS
10
46.9442
20
2.818
11
46.8374
21
3.01778
0
LINE
8
BLACK
6
CONTINUOUS
10
46.8374
20
3.01778
11
46.7716
21
3.23456
0
LINE
8
BLACK
6
CONTINUOUS
10
46.7716
20
3.23456
11
46.7494
21
3.46
0
LINE
8
BLACK
6
CONTINUOUS
10
46.7494
20
3.46
11
46.7716
21
3.68544
0
LINE
8
BLACK
6
CONTINUOUS
10
46.7716
20
3.68544
11
46.8374
21
3.90221
0
LINE
8
BLACK
6
CONTINUOUS
10
46.8374
20
3.90221
11
46.9442
21
4.102
0
LINE
8
BLACK
6
CONTINUOUS
10
46.9442
20
4.102
11
47.0879
21
4.27711
0
LINE
8
BLACK
6
CONTINUOUS
10
47.0879
20
4.27711
11
47.263
21
4.42082
0
LINE
8
BLACK
6
CONTINUOUS
10
47.263
20
4.42082
11
47.4628
21
4.5276
0
LINE
8
BLACK
6
CONTINUOUS
10
47.4628
20
4.5276
11
47.6796
21
4.59336
0
LINE
8
BLACK
6
CONTINUOUS
10
47.6796
20
4.59336
11
47.8485
21
4.61
0
LINE
8
BLACK
6
CONTINUOUS
10
47.8485
20
4.61
11
49.2315
21
4.61
0
LINE
8
BLACK
6
CONTINUOUS
10
49.2315
20
4.61
11
49.4004
21
4.59336
0
LINE
8
BLACK
6
CONTINUOUS
10
4.40044
20
9.67336
11
4.61721
21
9.6076
0
LINE
8
BLACK
6
CONTINUOUS
10
4.61721
20
9.6076
11
4.817
21
9.50082
0
LINE
8
BLACK
6
CONTINUOUS
10
4.817
20
9.50082
11
4.99211
21
9.35711
0
LINE
8
BLACK
6
CONTINUOUS
10
4.99211
20
9.35711
11
5.13582
21
9.182
0
LINE
8
BLACK
6
CONTINUOUS
10
5.13582
20
9.182
11
5.2426
21
8.98222
0
LINE
8
BLACK
6
CONTINUOUS
10
5.2426
20
8.98222
11
5.30836
21
8.76544
0
LINE
8
BLACK
6
CONTINUOUS
10
5.30836
20
8.76544
11
5.33056
21
8.54
0
LINE
8
BLACK
6
CONTINUOUS
10
5.33056
20
8.54
11
5.30836
21
8.31456
0
LINE
8
BLACK
6
CONTINUOUS
10
5.30836
20
8.31456
11
5.2426
21
8.09779
0
LINE
8
BLACK
6
CONTINUOUS
10
5.2426
20
8.09779
11
5.13582
21
7.898
0
LINE
8
BLACK
6
CONTINUOUS
10
5.13582
20
7.898
11
4.99211
21
7.72289
0
LINE
8
BLACK
6
CONTINUOUS
10
4.99211
20
7.72289
11
4.817
21
7.57918
0
LINE
8
BLACK
6
CONTINUOUS
10
4.817
20
7.57918
11
4.61721
21
7.4724
0
LINE
8
BLACK
6
CONTINUOUS
10
4.61721
20
7.4724
11
4.40044
21
7.40664
0
LINE
8
BLACK
6
CONTINUOUS
10
4.40044
20
7.40664
11
4.23149
21
7.39
0
LINE
8
BLACK
6
CONTINUOUS
10
4.23149
20
7.39
11
2.84851
21
7.39
0
LINE
8
BLACK
6
CONTINUOUS
10
2.84851
20
7.39
11
2.67956
21
7.40664
0
LINE
8
BLACK
6
CONTINUOUS
10
2.67956
20
7.40664
11
2.46278
21
7.4724
0
LINE
8
BLACK
6
CONTINUOUS
10
2.46278
20
7.4724
11
2.263
21
7.57918
0
LINE
8
BLACK
6
CONTINUOUS
10
2.263
20
7.57918
11
2.08789
21
7.72289
0
LINE
8
BLACK
6
CONTINUOUS
10
2.08789
20
7.72289
11
1.94418
21
7.898
0
LINE
8
BLACK
6
CONTINUOUS
10
1.94418
20
7.898
11
1.8374
21
8.09779
0
LINE
8
BLACK
6
CONTINUOUS
10
1.8374
20
8.09779
11
1.77164
21
8.31456
0
LINE
8
BLACK
6
CONTINUOUS
10
1.77164
20
8.31456
11
1.74944
21
8.54
0
LINE
8
BLACK
6
CONTINUOUS
10
1.74944
20
8.54
11
1.77164
21
8.76544
0
LINE
8
BLACK
6
CONTINUOUS
10
1.77164
20
8.76544
11
1.8374
21
8.98222
0
LINE
8
BLACK
6
CONTINUOUS
10
1.8374
20
8.98222
11
1.94418
21
9.182
0
LINE
8
BLACK
6
CONTINUOUS
10
1.94418
20
9.182
11
2.08789
21
9.35711
0
LINE
8
BLACK
6
CONTINUOUS
10
2.08789
20
9.35711
11
2.263
21
9.50082
0
LINE
8
BLACK
6
CONTINUOUS
10
2.263
20
9.50082
11
2.46278
21
9.6076
0
LINE
8
BLACK
6
CONTINUOUS
10
2.46278
20
9.6076
11
2.67956
21
9.67336
0
LINE
8
BLACK
6
CONTINUOUS
10
2.67956
20
9.67336
11
2.84851
21
9.69
0
LINE
8
BLACK
6
CONTINUOUS
10
2.84851
20
9.69
11
4.23149
21
9.69
0
LINE
8
BLACK
6
CONTINUOUS
10
4.23149
20
9.69
11
4.40044
21
9.67336
0
LINE
8
BLACK
6
CONTINUOUS
10
13.3204
20
9.67336
11
13.5372
21
9.6076
0
LINE
8
BLACK
6
CONTINUOUS
10
13.5372
20
9.6076
11
13.737
21
9.50082
0
LINE
8
BLACK
6
CONTINUOUS
10
13.737
20
9.50082
11
13.9121
21
9.35711
0
LINE
8
BLACK
6
CONTINUOUS
10
13.9121
20
9.35711
11
14.0558
21
9.182
0
LINE
8
BLACK
6
CONTINUOUS
10
14.0558
20
9.182
11
14.1626
21
8.98222
0
LINE
8
BLACK
6
CONTINUOUS
10
14.1626
20
8.98222
11
14.2284
21
8.76544
0
LINE
8
BLACK
6
CONTINUOUS
10
14.2284
20
8.76544
11
14.2506
21
8.54
0
LINE
8
BLACK
6
CONTINUOUS
10
14.2506
20
8.54
11
14.2284
21
8.31456
0
LINE
8
BLACK
6
CONTINUOUS
10
14.2284
20
8.31456
11
14.1626
21
8.09779
0
LINE
8
BLACK
6
CONTINUOUS
10
14.1626
20
8.09779
11
14.0558
21
7.898
0
LINE
8
BLACK
6
CONTINUOUS
10
14.0558
20
7.898
11
13.9121
21
7.72289
0
LINE
8
BLACK
6
CONTINUOUS
10
13.9121
20
7.72289
11
13.737
21
7.57918
0
LINE
8
BLACK
6
CONTINUOUS
10
13.737
20
7.57918
11
13.5372
21
7.4724
0
LINE
8
BLACK
6
CONTINUOUS
10
13.5372
20
7.4724
11
13.3204
21
7.40664
0
LINE
8
BLACK
6
CONTINUOUS
10
13.3204
20
7.40664
11
13.1515
21
7.39
0
LINE
8
BLACK
6
CONTINUOUS
10
13.1515
20
7.39
11
11.7685
21
7.39
0
LINE
8
BLACK
6
CONTINUOUS
10
11.7685
20
7.39
11
11.5996
21
7.40664
0
LINE
8
BLACK
6
CONTINUOUS
10
11.5996
20
7.40664
11
11.3828
21
7.4724
0
LINE
8
BLACK
6
CONTINUOUS
10
11.3828
20
7.4724
11
11.183
21
7.57918
0
LINE
8
BLACK
6
CONTINUOUS
10
11.183
20
7.57918
11
11.0079
21
7.72289
0
LINE
8
BLACK
6
CONTINUOUS
10
11.0079
20
7.72289
11
10.8642
21
7.898
0
LINE
8
BLACK
6
CONTINUOUS
10
10.8642
20
7.898
11
10.7574
21
8.09779
0
LINE
8
BLACK
6
CONTINUOUS
10
10.7574
20
8.09779
11
10.6916
21
8.31456
0
LINE
8
BLACK
6
CONTINUOUS
10
10.6916
20
8.31456
11
10.6694
21
8.54
0
LINE
8
BLACK
6
CONTINUOUS
10
10.6694
20
8.54
11
10.6916
21
8.76544
0
LINE
8
BLACK
6
CONTINUOUS
10
10.6916
20
8.76544
11
10.7574
21
8.98222
0
LINE
8
BLACK
6
CONTINUOUS
10
10.7574
20
8.98222
11
10.8642
21
9.182
0
LINE
8
BLACK
6
CONTINUOUS
10
10.8642
20
9.182
11
11.0079
21
9.35711
0
LINE
8
BLACK
6
CONTINUOUS
10
11.0079
20
9.35711
11
11.183
21
9.50082
0
LINE
8
BLACK
6
CONTINUOUS
10
11.183
20
9.50082
11
11.3828
21
9.6076
0
LINE
8
BLACK
6
CONTINUOUS
10
11.3828
20
9.6076
11
11.5996
21
9.67336
0
LINE
8
BLACK
6
CONTINUOUS
10
11.5996
20
9.67336
11
11.7685
21
9.69
0
LINE
8
BLACK
6
CONTINUOUS
10
11.7685
20
9.69
11
13.1515
21
9.69
0
LINE
8
BLACK
6
CONTINUOUS
10
13.1515
20
9.69
11
13.3204
21
9.67336
0
LINE
8
BLACK
6
CONTINUOUS
10
49.4004
20
9.67336
11
49.6172
21
9.6076
0
LINE
8
BLACK
6
CONTINUOUS
10
49.6172
20
9.6076
11
49.817
21
9.50082
0
LINE
8
BLACK
6
CONTINUOUS
10
49.817
20
9.50082
11
49.9921
21
9.35711
0
LINE
8
BLACK
6
CONTINUOUS
10
49.9921
20
9.35711
11
50.1358
21
9.182
0
LINE
8
BLACK
6
CONTINUOUS
10
50.1358
20
9.182
11
50.2426
21
8.98222
0
LINE
8
BLACK
6
CONTINUOUS
10
50.2426
20
8.98222
11
50.3084
21
8.76544
0
LINE
8
BLACK
6
CONTINUOUS
10
50.3084
20
8.76544
11
50.3306
21
8.54
0
LINE
8
BLACK
6
CONTINUOUS
10
50.3306
20
8.54
11
50.3084
21
8.31456
0
LINE
8
BLACK
6
CONTINUOUS
10
50.3084
20
8.31456
11
50.2426
21
8.09779
0
LINE
8
BLACK
6
CONTINUOUS
10
50.2426
20
8.09779
11
50.1358
21
7.898
0
LINE
8
BLACK
6
CONTINUOUS
10
50.1358
20
7.898
11
49.9921
21
7.72289
0
LINE
8
BLACK
6
CONTINUOUS
10
49.9921
20
7.72289
11
49.817
21
7.57918
0
LINE
8
BLACK
6
CONTINUOUS
10
49.817
20
7.57918
11
49.6172
21
7.4724
0
LINE
8
BLACK
6
CONTINUOUS
10
49.6172
20
7.4724
11
49.4004
21
7.40664
0
LINE
8
BLACK
6
CONTINUOUS
10
49.4004
20
7.40664
11
49.2315
21
7.39
0
LINE
8
BLACK
6
CONTINUOUS
10
49.2315
20
7.39
11
47.8485
21
7.39
0
LINE
8
BLACK
6
CONTINUOUS
10
47.8485
20
7.39
11
47.6796
21
7.40664
0
LINE
8
BLACK
6
CONTINUOUS
10
47.6796
20
7.40664
11
47.4628
21
7.4724
0
LINE
8
BLACK
6
CONTINUOUS
10
47.4628
20
7.4724
11
47.263
21
7.57918
0
LINE
8
BLACK
6
CONTINUOUS
10
47.263
20
7.57918
11
47.0879
21
7.72289
0
LINE
8
BLACK
6
CONTINUOUS
10
47.0879
20
7.72289
11
46.9442
21
7.898
0
LINE
8
BLACK
6
CONTINUOUS
10
46.9442
20
7.898
11
46.8374
21
8.09779
0
LINE
8
BLACK
6
CONTINUOUS
10
46.8374
20
8.09779
11
46.7716
21
8.31456
0
LINE
8
BLACK
6
CONTINUOUS
10
46.7716
20
8.31456
11
46.7494
21
8.54
0
LINE
8
BLACK
6
CONTINUOUS
10
46.7494
20
8.54
11
46.7716
21
8.76544
0
LINE
8
BLACK
6
CONTINUOUS
10
46.7716
20
8.76544
11
46.8374
21
8.98222
0
LINE
8
BLACK
6
CONTINUOUS
10
46.8374
20
8.98222
11
46.9442
21
9.182
0
LINE
8
BLACK
6
CONTINUOUS
10
46.9442
20
9.182
11
47.0879
21
9.35711
0
LINE
8
BLACK
6
CONTINUOUS
10
47.0879
20
9.35711
11
47.263
21
9.50082
0
LINE
8
BLACK
6
CONTINUOUS
10
47.263
20
9.50082
11
47.4628
21
9.6076
0
LINE
8
BLACK
6
CONTINUOUS
10
47.4628
20
9.6076
11
47.6796
21
9.67336
0
LINE
8
BLACK
6
CONTINUOUS
10
47.6796
20
9.67336
11
47.8485
21
9.69
0
LINE
8
BLACK
6
CONTINUOUS
10
47.8485
20
9.69
11
49.2315
21
9.69
0
LINE
8
BLACK
6
CONTINUOUS
10
49.2315
20
9.69
11
49.4004
21
9.67336
0
LINE
8
BLACK
6
CONTINUOUS
10
58.3204
20
9.67336
11
58.5372
21
9.6076
0
LINE
8
BLACK
6
CONTINUOUS
10
58.5372
20
9.6076
11
58.737
21
9.50082
0
LINE
8
BLACK
6
CONTINUOUS
10
58.737
20
9.50082
11
58.9121
21
9.35711
0
LINE
8
BLACK
6
CONTINUOUS
10
58.9121
20
9.35711
11
59.0558
21
9.182
0
LINE
8
BLACK
6
CONTINUOUS
10
59.0558
20
9.182
11
59.1626
21
8.98222
0
LINE
8
BLACK
6
CONTINUOUS
10
59.1626
20
8.98222
11
59.2284
21
8.76544
0
LINE
8
BLACK
6
CONTINUOUS
10
59.2284
20
8.76544
11
59.2506
21
8.54
0
LINE
8
BLACK
6
CONTINUOUS
10
59.2506
20
8.54
11
59.2284
21
8.31456
0
LINE
8
BLACK
6
CONTINUOUS
10
59.2284
20
8.31456
11
59.1626
21
8.09779
0
LINE
8
BLACK
6
CONTINUOUS
10
59.1626
20
8.09779
11
59.0558
21
7.898
0
LINE
8
BLACK
6
CONTINUOUS
10
59.0558
20
7.898
11
58.9121
21
7.72289
0
LINE
8
BLACK
6
CONTINUOUS
10
58.9121
20
7.72289
11
58.737
21
7.57918
0
LINE
8
BLACK
6
CONTINUOUS
10
58.737
20
7.57918
11
58.5372
21
7.4724
0
LINE
8
BLACK
6
CONTINUOUS
10
58.5372
20
7.4724
11
58.3204
21
7.40664
0
LINE
8
BLACK
6
CONTINUOUS
10
58.3204
20
7.40664
11
58.1515
21
7.39
0
LINE
8
BLACK
6
CONTINUOUS
10
58.1515
20
7.39
11
56.7685
21
7.39
0
LINE
8
BLACK
6
CONTINUOUS
10
56.7685
20
7.39
11
56.5996
21
7.40664
0
LINE
8
BLACK
6
CONTINUOUS
10
56.5996
20
7.40664
11
56.3828
21
7.4724
0
LINE
8
BLACK
6
CONTINUOUS
10
56.3828
20
7.4724
11
56.183
21
7.57918
0
LINE
8
BLACK
6
CONTINUOUS
10
56.183
20
7.57918
11
56.0079
21
7.72289
0
LINE
8
BLACK
6
CONTINUOUS
10
56.0079
20
7.72289
11
55.8642
21
7.898
0
LINE
8
BLACK
6
CONTINUOUS
10
55.8642
20
7.898
11
55.7574
21
8.09779
0
LINE
8
BLACK
6
CONTINUOUS
10
55.7574
20
8.09779
11
55.6916
21
8.31456
0
LINE
8
BLACK
6
CONTINUOUS
10
55.6916
20
8.31456
11
55.6694
21
8.54
0
LINE
8
BLACK
6
CONTINUOUS
10
55.6694
20
8.54
11
55.6916
21
8.76544
0
LINE
8
BLACK
6
CONTINUOUS
10
55.6916
20
8.76544
11
55.7574
21
8.98222
0
LINE
8
BLACK
6
CONTINUOUS
10
55.7574
20
8.98222
11
55.8642
21
9.182
0
LINE
8
BLACK
6
CONTINUOUS
10
55.8642
20
9.182
11
56.0079
21
9.35711
0
LINE
8
BLACK
6
CONTINUOUS
10
56.0079
20
9.35711
11
56.183
21
9.50082
0
LINE
8
BLACK
6
CONTINUOUS
10
56.183
20
9.50082
11
56.3828
21
9.6076
0
LINE
8
BLACK
6
CONTINUOUS
10
56.3828
20
9.6076
11
56.5996
21
9.67336
0
LINE
8
BLACK
6
CONTINUOUS
10
56.5996
20
9.67336
11
56.7685
21
9.69
0
LINE
8
BLACK
6
CONTINUOUS
10
56.7685
20
9.69
11
58.1515
21
9.69
0
LINE
8
BLACK
6
CONTINUOUS
10
58.1515
20
9.69
11
58.3204
21
9.67336
0
LINE
8
BLACK
6
CONTINUOUS
10
26.2492
20
11.8969
11
26.2797
21
11.8876
0
LINE
8
BLACK
6
CONTINUOUS
10
26.2797
20
11.8876
11
26.3078
21
11.8726
0
LINE
8
BLACK
6
CONTINUOUS
10
26.3078
20
11.8726
11
26.3324
21
11.8524
0
LINE
8
BLACK
6
CONTINUOUS
10
26.3324
20
11.8524
11
26.3526
21
11.8278
0
LINE
8
BLACK
6
CONTINUOUS
10
26.3526
20
11.8278
11
26.3676
21
11.7997
0
LINE
8
BLACK
6
CONTINUOUS
10
26.3676
20
11.7997
11
26.3769
21
11.7692
0
LINE
8
BLACK
6
CONTINUOUS
10
26.3769
20
11.7692
11
26.38
21
11.7375
0
LINE
8
BLACK
6
CONTINUOUS
10
26.38
20
11.7375
11
26.38
21
10.3625
0
LINE
8
BLACK
6
CONTINUOUS
10
26.38
20
10.3625
11
26.3769
21
10.3308
0
LINE
8
BLACK
6
CONTINUOUS
10
26.3769
20
10.3308
11
26.3676
21
10.3003
0
LINE
8
BLACK
6
CONTINUOUS
10
26.3676
20
10.3003
11
26.3526
21
10.2722
0
LINE
8
BLACK
6
CONTINUOUS
10
26.3526
20
10.2722
11
26.3324
21
10.2476
0
LINE
8
BLACK
6
CONTINUOUS
10
26.3324
20
10.2476
11
26.3078
21
10.2274
0
LINE
8
BLACK
6
CONTINUOUS
10
26.3078
20
10.2274
11
26.2797
21
10.2124
0
LINE
8
BLACK
6
CONTINUOUS
10
26.2797
20
10.2124
11
26.2492
21
10.2031
0
LINE
8
BLACK
6
CONTINUOUS
10
26.2492
20
10.2031
11
26.2175
21
10.2
0
LINE
8
BLACK
6
CONTINUOUS
10
26.2175
20
10.2
11
25.8925
21
10.2
0
LINE
8
BLACK
6
CONTINUOUS
10
25.8925
20
10.2
11
25.8608
21
10.2031
0
LINE
8
BLACK
6
CONTINUOUS
10
25.8608
20
10.2031
11
25.8303
21
10.2124
0
LINE
8
BLACK
6
CONTINUOUS
10
25.8303
20
10.2124
11
25.8022
21
10.2274
0
LINE
8
BLACK
6
CONTINUOUS
10
25.8022
20
10.2274
11
25.7776
21
10.2476
0
LINE
8
BLACK
6
CONTINUOUS
10
25.7776
20
10.2476
11
25.7574
21
10.2722
0
LINE
8
BLACK
6
CONTINUOUS
10
25.7574
20
10.2722
11
25.7424
21
10.3003
0
LINE
8
BLACK
6
CONTINUOUS
10
25.7424
20
10.3003
11
25.7331
21
10.3308
0
LINE
8
BLACK
6
CONTINUOUS
10
25.7331
20
10.3308
11
25.73
21
10.3625
0
LINE
8
BLACK
6
CONTINUOUS
10
25.73
20
10.3625
11
25.73
21
11.7375
0
LINE
8
BLACK
6
CONTINUOUS
10
25.73
20
11.7375
11
25.7331
21
11.7692
0
LINE
8
BLACK
6
CONTINUOUS
10
25.7331
20
11.7692
11
25.7424
21
11.7997
0
LINE
8
BLACK
6
CONTINUOUS
10
25.7424
20
11.7997
11
25.7574
21
11.8278
0
LINE
8
BLACK
6
CONTINUOUS
10
25.7574
20
11.8278
11
25.7776
21
11.8524
0
LINE
8
BLACK
6
CONTINUOUS
10
25.7776
20
11.8524
11
25.8022
21
11.8726
0
LINE
8
BLACK
6
CONTINUOUS
10
25.8022
20
11.8726
11
25.8303
21
11.8876
0
LINE
8
BLACK
6
CONTINUOUS
10
25.8303
20
11.8876
11
25.8608
21
11.8969
0
LINE
8
BLACK
6
CONTINUOUS
10
25.8608
20
11.8969
11
25.8925
21
11.9
0
LINE
8
BLACK
6
CONTINUOUS
10
25.8925
20
11.9
11
26.2175
21
11.9
0
LINE
8
BLACK
6
CONTINUOUS
10
26.2175
20
11.9
11
26.2492
21
11.8969
0
LINE
8
BLACK
6
CONTINUOUS
10
27.5192
20
11.8969
11
27.5497
21
11.8876
0
LINE
8
BLACK
6
CONTINUOUS
10
27.5497
20
11.8876
11
27.5778
21
11.8726
0
LINE
8
BLACK
6
CONTINUOUS
10
27.5778
20
11.8726
11
27.6024
21
11.8524
0
LINE
8
BLACK
6
CONTINUOUS
10
27.6024
20
11.8524
11
27.6226
21
11.8278
0
LINE
8
BLACK
6
CONTINUOUS
10
27.6226
20
11.8278
11
27.6376
21
11.7997
0
LINE
8
BLACK
6
CONTINUOUS
10
27.6376
20
11.7997
11
27.6469
21
11.7692
0
LINE
8
BLACK
6
CONTINUOUS
10
27.6469
20
11.7692
11
27.65
21
11.7375
0
LINE
8
BLACK
6
CONTINUOUS
10
27.65
20
11.7375
11
27.65
21
10.3625
0
LINE
8
BLACK
6
CONTINUOUS
10
27.65
20
10.3625
11
27.6469
21
10.3308
0
LINE
8
BLACK
6
CONTINUOUS
10
27.6469
20
10.3308
11
27.6376
21
10.3003
0
LINE
8
BLACK
6
CONTINUOUS
10
27.6376
20
10.3003
11
27.6226
21
10.2722
0
LINE
8
BLACK
6
CONTINUOUS
10
27.6226
20
10.2722
11
27.6024
21
10.2476
0
LINE
8
BLACK
6
CONTINUOUS
10
27.6024
20
10.2476
11
27.5778
21
10.2274
0
LINE
8
BLACK
6
CONTINUOUS
10
27.5778
20
10.2274
11
27.5497
21
10.2124
0
LINE
8
BLACK
6
CONTINUOUS
10
27.5497
20
10.2124
11
27.5192
21
10.2031
0
LINE
8
BLACK
6
CONTINUOUS
10
27.5192
20
10.2031
11
27.4875
21
10.2
0
LINE
8
BLACK
6
CONTINUOUS
10
27.4875
20
10.2
11
27.1625
21
10.2
0
LINE
8
BLACK
6
CONTINUOUS
10
27.1625
20
10.2
11
27.1308
21
10.2031
0
LINE
8
BLACK
6
CONTINUOUS
10
27.1308
20
10.2031
11
27.1003
21
10.2124
0
LINE
8
BLACK
6
CONTINUOUS
10
27.1003
20
10.2124
11
27.0722
21
10.2274
0
LINE
8
BLACK
6
CONTINUOUS
10
27.0722
20
10.2274
11
27.0476
21
10.2476
0
LINE
8
BLACK
6
CONTINUOUS
10
27.0476
20
10.2476
11
27.0274
21
10.2722
0
LINE
8
BLACK
6
CONTINUOUS
10
27.0274
20
10.2722
11
27.0124
21
10.3003
0
LINE
8
BLACK
6
CONTINUOUS
10
27.0124
20
10.3003
11
27.0031
21
10.3308
0
LINE
8
BLACK
6
CONTINUOUS
10
27.0031
20
10.3308
11
27
21
10.3625
0
LINE
8
BLACK
6
CONTINUOUS
10
27
20
10.3625
11
27
21
11.7375
0
LINE
8
BLACK
6
CONTINUOUS
10
27
20
11.7375
11
27.0031
21
11.7692
0
LINE
8
BLACK
6
CONTINUOUS
10
27.0031
20
11.7692
11
27.0124
21
11.7997
0
LINE
8
BLACK
6
CONTINUOUS
10
27.0124
20
11.7997
11
27.0274
21
11.8278
0
LINE
8
BLACK
6
CONTINUOUS
10
27.0274
20
11.8278
11
27.0476
21
11.8524
0
LINE
8
BLACK
6
CONTINUOUS
10
27.0476
20
11.8524
11
27.0722
21
11.8726
0
LINE
8
BLACK
6
CONTINUOUS
10
27.0722
20
11.8726
11
27.1003
21
11.8876
0
LINE
8
BLACK
6
CONTINUOUS
10
27.1003
20
11.8876
11
27.1308
21
11.8969
0
LINE
8
BLACK
6
CONTINUOUS
10
27.1308
20
11.8969
11
27.1625
21
11.9
0
LINE
8
BLACK
6
CONTINUOUS
10
27.1625
20
11.9
11
27.4875
21
11.9
0
LINE
8
BLACK
6
CONTINUOUS
10
27.4875
20
11.9
11
27.5192
21
11.8969
0
LINE
8
BLACK
6
CONTINUOUS
10
28.7892
20
11.8969
11
28.8197
21
11.8876
0
LINE
8
BLACK
6
CONTINUOUS
10
28.8197
20
11.8876
11
28.8478
21
11.8726
0
LINE
8
BLACK
6
CONTINUOUS
10
28.8478
20
11.8726
11
28.8724
21
11.8524
0
LINE
8
BLACK
6
CONTINUOUS
10
28.8724
20
11.8524
11
28.8926
21
11.8278
0
LINE
8
BLACK
6
CONTINUOUS
10
28.8926
20
11.8278
11
28.9076
21
11.7997
0
LINE
8
BLACK
6
CONTINUOUS
10
28.9076
20
11.7997
11
28.9169
21
11.7692
0
LINE
8
BLACK
6
CONTINUOUS
10
28.9169
20
11.7692
11
28.92
21
11.7375
0
LINE
8
BLACK
6
CONTINUOUS
10
28.92
20
11.7375
11
28.92
21
10.3625
0
LINE
8
BLACK
6
CONTINUOUS
10
28.92
20
10.3625
11
28.9169
21
10.3308
0
LINE
8
BLACK
6
CONTINUOUS
10
28.9169
20
10.3308
11
28.9076
21
10.3003
0
LINE
8
BLACK
6
CONTINUOUS
10
28.9076
20
10.3003
11
28.8926
21
10.2722
0
LINE
8
BLACK
6
CONTINUOUS
10
28.8926
20
10.2722
11
28.8724
21
10.2476
0
LINE
8
BLACK
6
CONTINUOUS
10
28.8724
20
10.2476
11
28.8478
21
10.2274
0
LINE
8
BLACK
6
CONTINUOUS
10
28.8478
20
10.2274
11
28.8197
21
10.2124
0
LINE
8
BLACK
6
CONTINUOUS
10
28.8197
20
10.2124
11
28.7892
21
10.2031
0
LINE
8
BLACK
6
CONTINUOUS
10
28.7892
20
10.2031
11
28.7575
21
10.2
0
LINE
8
BLACK
6
CONTINUOUS
10
28.7575
20
10.2
11
28.4325
21
10.2
0
LINE
8
BLACK
6
CONTINUOUS
10
28.4325
20
10.2
11
28.4008
21
10.2031
0
LINE
8
BLACK
6
CONTINUOUS
10
28.4008
20
10.2031
11
28.3703
21
10.2124
0
LINE
8
BLACK
6
CONTINUOUS
10
28.3703
20
10.2124
11
28.3422
21
10.2274
0
LINE
8
BLACK
6
CONTINUOUS
10
28.3422
20
10.2274
11
28.3176
21
10.2476
0
LINE
8
BLACK
6
CONTINUOUS
10
28.3176
20
10.2476
11
28.2974
21
10.2722
0
LINE
8
BLACK
6
CONTINUOUS
10
28.2974
20
10.2722
11
28.2824
21
10.3003
0
LINE
8
BLACK
6
CONTINUOUS
10
28.2824
20
10.3003
11
28.2731
21
10.3308
0
LINE
8
BLACK
6
CONTINUOUS
10
28.2731
20
10.3308
11
28.27
21
10.3625
0
LINE
8
BLACK
6
CONTINUOUS
10
28.27
20
10.3625
11
28.27
21
11.7375
0
LINE
8
BLACK
6
CONTINUOUS
10
28.27
20
11.7375
11
28.2731
21
11.7692
0
LINE
8
BLACK
6
CONTINUOUS
10
28.2731
20
11.7692
11
28.2824
21
11.7997
0
LINE
8
BLACK
6
CONTINUOUS
10
28.2824
20
11.7997
11
28.2974
21
11.8278
0
LINE
8
BLACK
6
CONTINUOUS
10
28.2974
20
11.8278
11
28.3176
21
11.8524
0
LINE
8
BLACK
6
CONTINUOUS
10
28.3176
20
11.8524
11
28.3422
21
11.8726
0
LINE
8
BLACK
6
CONTINUOUS
10
28.3422
20
11.8726
11
28.3703
21
11.8876
0
LINE
8
BLACK
6
CONTINUOUS
10
28.3703
20
11.8876
11
28.4008
21
11.8969
0
LINE
8
BLACK
6
CONTINUOUS
10
28.4008
20
11.8969
11
28.4325
21
11.9
0
LINE
8
BLACK
6
CONTINUOUS
10
28.4325
20
11.9
11
28.7575
21
11.9
0
LINE
8
BLACK
6
CONTINUOUS
10
28.7575
20
11.9
11
28.7892
21
11.8969
0
LINE
8
BLACK
6
CONTINUOUS
10
30.0592
20
11.8969
11
30.0897
21
11.8876
0
LINE
8
BLACK
6
CONTINUOUS
10
30.0897
20
11.8876
11
30.1178
21
11.8726
0
LINE
8
BLACK
6
CONTINUOUS
10
30.1178
20
11.8726
11
30.1424
21
11.8524
0
LINE
8
BLACK
6
CONTINUOUS
10
30.1424
20
11.8524
11
30.1626
21
11.8278
0
LINE
8
BLACK
6
CONTINUOUS
10
30.1626
20
11.8278
11
30.1776
21
11.7997
0
LINE
8
BLACK
6
CONTINUOUS
10
30.1776
20
11.7997
11
30.1869
21
11.7692
0
LINE
8
BLACK
6
CONTINUOUS
10
30.1869
20
11.7692
11
30.19
21
11.7375
0
LINE
8
BLACK
6
CONTINUOUS
10
30.19
20
11.7375
11
30.19
21
10.3625
0
LINE
8
BLACK
6
CONTINUOUS
10
30.19
20
10.3625
11
30.1869
21
10.3308
0
LINE
8
BLACK
6
CONTINUOUS
10
30.1869
20
10.3308
11
30.1776
21
10.3003
0
LINE
8
BLACK
6
CONTINUOUS
10
30.1776
20
10.3003
11
30.1626
21
10.2722
0
LINE
8
BLACK
6
CONTINUOUS
10
30.1626
20
10.2722
11
30.1424
21
10.2476
0
LINE
8
BLACK
6
CONTINUOUS
10
30.1424
20
10.2476
11
30.1178
21
10.2274
0
LINE
8
BLACK
6
CONTINUOUS
10
30.1178
20
10.2274
11
30.0897
21
10.2124
0
LINE
8
BLACK
6
CONTINUOUS
10
30.0897
20
10.2124
11
30.0592
21
10.2031
0
LINE
8
BLACK
6
CONTINUOUS
10
30.0592
20
10.2031
11
30.0275
21
10.2
0
LINE
8
BLACK
6
CONTINUOUS
10
30.0275
20
10.2
11
29.7025
21
10.2
0
LINE
8
BLACK
6
CONTINUOUS
10
29.7025
20
10.2
11
29.6708
21
10.2031
0
LINE
8
BLACK
6
CONTINUOUS
10
29.6708
20
10.2031
11
29.6403
21
10.2124
0
LINE
8
BLACK
6
CONTINUOUS
10
29.6403
20
10.2124
11
29.6122
21
10.2274
0
LINE
8
BLACK
6
CONTINUOUS
10
29.6122
20
10.2274
11
29.5876
21
10.2476
0
LINE
8
BLACK
6
CONTINUOUS
10
29.5876
20
10.2476
11
29.5674
21
10.2722
0
LINE
8
BLACK
6
CONTINUOUS
10
29.5674
20
10.2722
11
29.5524
21
10.3003
0
LINE
8
BLACK
6
CONTINUOUS
10
29.5524
20
10.3003
11
29.5431
21
10.3308
0
LINE
8
BLACK
6
CONTINUOUS
10
29.5431
20
10.3308
11
29.54
21
10.3625
0
LINE
8
BLACK
6
CONTINUOUS
10
29.54
20
10.3625
11
29.54
21
11.7375
0
LINE
8
BLACK
6
CONTINUOUS
10
29.54
20
11.7375
11
29.5431
21
11.7692
0
LINE
8
BLACK
6
CONTINUOUS
10
29.5431
20
11.7692
11
29.5524
21
11.7997
0
LINE
8
BLACK
6
CONTINUOUS
10
29.5524
20
11.7997
11
29.5674
21
11.8278
0
LINE
8
BLACK
6
CONTINUOUS
10
29.5674
20
11.8278
11
29.5876
21
11.8524
0
LINE
8
BLACK
6
CONTINUOUS
10
29.5876
20
11.8524
11
29.6122
21
11.8726
0
LINE
8
BLACK
6
CONTINUOUS
10
29.6122
20
11.8726
11
29.6403
21
11.8876
0
LINE
8
BLACK
6
CONTINUOUS
10
29.6403
20
11.8876
11
29.6708
21
11.8969
0
LINE
8
BLACK
6
CONTINUOUS
10
29.6708
20
11.8969
11
29.7025
21
11.9
0
LINE
8
BLACK
6
CONTINUOUS
10
29.7025
20
11.9
11
30.0275
21
11.9
0
LINE
8
BLACK
6
CONTINUOUS
10
30.0275
20
11.9
11
30.0592
21
11.8969
0
LINE
8
BLACK
6
CONTINUOUS
10
31.3292
20
11.8969
11
31.3597
21
11.8876
0
LINE
8
BLACK
6
CONTINUOUS
10
31.3597
20
11.8876
11
31.3878
21
11.8726
0
LINE
8
BLACK
6
CONTINUOUS
10
31.3878
20
11.8726
11
31.4124
21
11.8524
0
LINE
8
BLACK
6
CONTINUOUS
10
31.4124
20
11.8524
11
31.4326
21
11.8278
0
LINE
8
BLACK
6
CONTINUOUS
10
31.4326
20
11.8278
11
31.4476
21
11.7997
0
LINE
8
BLACK
6
CONTINUOUS
10
31.4476
20
11.7997
11
31.4569
21
11.7692
0
LINE
8
BLACK
6
CONTINUOUS
10
31.4569
20
11.7692
11
31.46
21
11.7375
0
LINE
8
BLACK
6
CONTINUOUS
10
31.46
20
11.7375
11
31.46
21
10.3625
0
LINE
8
BLACK
6
CONTINUOUS
10
31.46
20
10.3625
11
31.4569
21
10.3308
0
LINE
8
BLACK
6
CONTINUOUS
10
31.4569
20
10.3308
11
31.4476
21
10.3003
0
LINE
8
BLACK
6
CONTINUOUS
10
31.4476
20
10.3003
11
31.4326
21
10.2722
0
LINE
8
BLACK
6
CONTINUOUS
10
31.4326
20
10.2722
11
31.4124
21
10.2476
0
LINE
8
BLACK
6
CONTINUOUS
10
31.4124
20
10.2476
11
31.3878
21
10.2274
0
LINE
8
BLACK
6
CONTINUOUS
10
31.3878
20
10.2274
11
31.3597
21
10.2124
0
LINE
8
BLACK
6
CONTINUOUS
10
31.3597
20
10.2124
11
31.3292
21
10.2031
0
LINE
8
BLACK
6
CONTINUOUS
10
31.3292
20
10.2031
11
31.2975
21
10.2
0
LINE
8
BLACK
6
CONTINUOUS
10
31.2975
20
10.2
11
30.9725
21
10.2
0
LINE
8
BLACK
6
CONTINUOUS
10
30.9725
20
10.2
11
30.9408
21
10.2031
0
LINE
8
BLACK
6
CONTINUOUS
10
30.9408
20
10.2031
11
30.9103
21
10.2124
0
LINE
8
BLACK
6
CONTINUOUS
10
30.9103
20
10.2124
11
30.8822
21
10.2274
0
LINE
8
BLACK
6
CONTINUOUS
10
30.8822
20
10.2274
11
30.8576
21
10.2476
0
LINE
8
BLACK
6
CONTINUOUS
10
30.8576
20
10.2476
11
30.8374
21
10.2722
0
LINE
8
BLACK
6
CONTINUOUS
10
30.8374
20
10.2722
11
30.8224
21
10.3003
0
LINE
8
BLACK
6
CONTINUOUS
10
30.8224
20
10.3003
11
30.8131
21
10.3308
0
LINE
8
BLACK
6
CONTINUOUS
10
30.8131
20
10.3308
11
30.81
21
10.3625
0
LINE
8
BLACK
6
CONTINUOUS
10
30.81
20
10.3625
11
30.81
21
11.7375
0
LINE
8
BLACK
6
CONTINUOUS
10
30.81
20
11.7375
11
30.8131
21
11.7692
0
LINE
8
BLACK
6
CONTINUOUS
10
30.8131
20
11.7692
11
30.8224
21
11.7997
0
LINE
8
BLACK
6
CONTINUOUS
10
30.8224
20
11.7997
11
30.8374
21
11.8278
0
LINE
8
BLACK
6
CONTINUOUS
10
30.8374
20
11.8278
11
30.8576
21
11.8524
0
LINE
8
BLACK
6
CONTINUOUS
10
30.8576
20
11.8524
11
30.8822
21
11.8726
0
LINE
8
BLACK
6
CONTINUOUS
10
30.8822
20
11.8726
11
30.9103
21
11.8876
0
LINE
8
BLACK
6
CONTINUOUS
10
30.9103
20
11.8876
11
30.9408
21
11.8969
0
LINE
8
BLACK
6
CONTINUOUS
10
30.9408
20
11.8969
11
30.9725
21
11.9
0
LINE
8
BLACK
6
CONTINUOUS
10
30.9725
20
11.9
11
31.2975
21
11.9
0
LINE
8
BLACK
6
CONTINUOUS
10
31.2975
20
11.9
11
31.3292
21
11.8969
0
LINE
8
BLACK
6
CONTINUOUS
10
32.5992
20
11.8969
11
32.6297
21
11.8876
0
LINE
8
BLACK
6
CONTINUOUS
10
32.6297
20
11.8876
11
32.6578
21
11.8726
0
LINE
8
BLACK
6
CONTINUOUS
10
32.6578
20
11.8726
11
32.6824
21
11.8524
0
LINE
8
BLACK
6
CONTINUOUS
10
32.6824
20
11.8524
11
32.7026
21
11.8278
0
LINE
8
BLACK
6
CONTINUOUS
10
32.7026
20
11.8278
11
32.7176
21
11.7997
0
LINE
8
BLACK
6
CONTINUOUS
10
32.7176
20
11.7997
11
32.7269
21
11.7692
0
LINE
8
BLACK
6
CONTINUOUS
10
32.7269
20
11.7692
11
32.73
21
11.7375
0
LINE
8
BLACK
6
CONTINUOUS
10
32.73
20
11.7375
11
32.73
21
10.3625
0
LINE
8
BLACK
6
CONTINUOUS
10
32.73
20
10.3625
11
32.7269
21
10.3308
0
LINE
8
BLACK
6
CONTINUOUS
10
32.7269
20
10.3308
11
32.7176
21
10.3003
0
LINE
8
BLACK
6
CONTINUOUS
10
32.7176
20
10.3003
11
32.7026
21
10.2722
0
LINE
8
BLACK
6
CONTINUOUS
10
32.7026
20
10.2722
11
32.6824
21
10.2476
0
LINE
8
BLACK
6
CONTINUOUS
10
32.6824
20
10.2476
11
32.6578
21
10.2274
0
LINE
8
BLACK
6
CONTINUOUS
10
32.6578
20
10.2274
11
32.6297
21
10.2124
0
LINE
8
BLACK
6
CONTINUOUS
10
32.6297
20
10.2124
11
32.5992
21
10.2031
0
LINE
8
BLACK
6
CONTINUOUS
10
32.5992
20
10.2031
11
32.5675
21
10.2
0
LINE
8
BLACK
6
CONTINUOUS
10
32.5675
20
10.2
11
32.2425
21
10.2
0
LINE
8
BLACK
6
CONTINUOUS
10
32.2425
20
10.2
11
32.2108
21
10.2031
0
LINE
8
BLACK
6
CONTINUOUS
10
32.2108
20
10.2031
11
32.1803
21
10.2124
0
LINE
8
BLACK
6
CONTINUOUS
10
32.1803
20
10.2124
11
32.1522
21
10.2274
0
LINE
8
BLACK
6
CONTINUOUS
10
32.1522
20
10.2274
11
32.1276
21
10.2476
0
LINE
8
BLACK
6
CONTINUOUS
10
32.1276
20
10.2476
11
32.1074
21
10.2722
0
LINE
8
BLACK
6
CONTINUOUS
10
32.1074
20
10.2722
11
32.0924
21
10.3003
0
LINE
8
BLACK
6
CONTINUOUS
10
32.0924
20
10.3003
11
32.0831
21
10.3308
0
LINE
8
BLACK
6
CONTINUOUS
10
32.0831
20
10.3308
11
32.08
21
10.3625
0
LINE
8
BLACK
6
CONTINUOUS
10
32.08
20
10.3625
11
32.08
21
11.7375
0
LINE
8
BLACK
6
CONTINUOUS
10
32.08
20
11.7375
11
32.0831
21
11.7692
0
LINE
8
BLACK
6
CONTINUOUS
10
32.0831
20
11.7692
11
32.0924
21
11.7997
0
LINE
8
BLACK
6
CONTINUOUS
10
32.0924
20
11.7997
11
32.1074
21
11.8278
0
LINE
8
BLACK
6
CONTINUOUS
10
32.1074
20
11.8278
11
32.1276
21
11.8524
0
LINE
8
BLACK
6
CONTINUOUS
10
32.1276
20
11.8524
11
32.1522
21
11.8726
0
LINE
8
BLACK
6
CONTINUOUS
10
32.1522
20
11.8726
11
32.1803
21
11.8876
0
LINE
8
BLACK
6
CONTINUOUS
10
32.1803
20
11.8876
11
32.2108
21
11.8969
0
LINE
8
BLACK
6
CONTINUOUS
10
32.2108
20
11.8969
11
32.2425
21
11.9
0
LINE
8
BLACK
6
CONTINUOUS
10
32.2425
20
11.9
11
32.5675
21
11.9
0
LINE
8
BLACK
6
CONTINUOUS
10
32.5675
20
11.9
11
32.5992
21
11.8969
0
LINE
8
BLACK
6
CONTINUOUS
10
33.8692
20
11.8969
11
33.8997
21
11.8876
0
LINE
8
BLACK
6
CONTINUOUS
10
33.8997
20
11.8876
11
33.9278
21
11.8726
0
LINE
8
BLACK
6
CONTINUOUS
10
33.9278
20
11.8726
11
33.9524
21
11.8524
0
LINE
8
BLACK
6
CONTINUOUS
10
33.9524
20
11.8524
11
33.9726
21
11.8278
0
LINE
8
BLACK
6
CONTINUOUS
10
33.9726
20
11.8278
11
33.9876
21
11.7997
0
LINE
8
BLACK
6
CONTINUOUS
10
33.9876
20
11.7997
11
33.9969
21
11.7692
0
LINE
8
BLACK
6
CONTINUOUS
10
33.9969
20
11.7692
11
34
21
11.7375
0
LINE
8
BLACK
6
CONTINUOUS
10
34
20
11.7375
11
34
21
10.3625
0
LINE
8
BLACK
6
CONTINUOUS
10
34
20
10.3625
11
33.9969
21
10.3308
0
LINE
8
BLACK
6
CONTINUOUS
10
33.9969
20
10.3308
11
33.9876
21
10.3003
0
LINE
8
BLACK
6
CONTINUOUS
10
33.9876
20
10.3003
11
33.9726
21
10.2722
0
LINE
8
BLACK
6
CONTINUOUS
10
33.9726
20
10.2722
11
33.9524
21
10.2476
0
LINE
8
BLACK
6
CONTINUOUS
10
33.9524
20
10.2476
11
33.9278
21
10.2274
0
LINE
8
BLACK
6
CONTINUOUS
10
33.9278
20
10.2274
11
33.8997
21
10.2124
0
LINE
8
BLACK
6
CONTINUOUS
10
33.8997
20
10.2124
11
33.8692
21
10.2031
0
LINE
8
BLACK
6
CONTINUOUS
10
33.8692
20
10.2031
11
33.8375
21
10.2
0
LINE
8
BLACK
6
CONTINUOUS
10
33.8375
20
10.2
11
33.5125
21
10.2
0
LINE
8
BLACK
6
CONTINUOUS
10
33.5125
20
10.2
11
33.4808
21
10.2031
0
LINE
8
BLACK
6
CONTINUOUS
10
33.4808
20
10.2031
11
33.4503
21
10.2124
0
LINE
8
BLACK
6
CONTINUOUS
10
33.4503
20
10.2124
11
33.4222
21
10.2274
0
LINE
8
BLACK
6
CONTINUOUS
10
33.4222
20
10.2274
11
33.3976
21
10.2476
0
LINE
8
BLACK
6
CONTINUOUS
10
33.3976
20
10.2476
11
33.3774
21
10.2722
0
LINE
8
BLACK
6
CONTINUOUS
10
33.3774
20
10.2722
11
33.3624
21
10.3003
0
LINE
8
BLACK
6
CONTINUOUS
10
33.3624
20
10.3003
11
33.3531
21
10.3308
0
LINE
8
BLACK
6
CONTINUOUS
10
33.3531
20
10.3308
11
33.35
21
10.3625
0
LINE
8
BLACK
6
CONTINUOUS
10
33.35
20
10.3625
11
33.35
21
11.7375
0
LINE
8
BLACK
6
CONTINUOUS
10
33.35
20
11.7375
11
33.3531
21
11.7692
0
LINE
8
BLACK
6
CONTINUOUS
10
33.3531
20
11.7692
11
33.3624
21
11.7997
0
LINE
8
BLACK
6
CONTINUOUS
10
33.3624
20
11.7997
11
33.3774
21
11.8278
0
LINE
8
BLACK
6
CONTINUOUS
10
33.3774
20
11.8278
11
33.3976
21
11.8524
0
LINE
8
BLACK
6
CONTINUOUS
10
33.3976
20
11.8524
11
33.4222
21
11.8726
0
LINE
8
BLACK
6
CONTINUOUS
10
33.4222
20
11.8726
11
33.4503
21
11.8876
0
LINE
8
BLACK
6
CONTINUOUS
10
33.4503
20
11.8876
11
33.4808
21
11.8969
0
LINE
8
BLACK
6
CONTINUOUS
10
33.4808
20
11.8969
11
33.5125
21
11.9
0
LINE
8
BLACK
6
CONTINUOUS
10
33.5125
20
11.9
11
33.8375
21
11.9
0
LINE
8
BLACK
6
CONTINUOUS
10
33.8375
20
11.9
11
33.8692
21
11.8969
0
LINE
8
BLACK
6
CONTINUOUS
10
35.1392
20
11.8969
11
35.1697
21
11.8876
0
LINE
8
BLACK
6
CONTINUOUS
10
35.1697
20
11.8876
11
35.1978
21
11.8726
0
LINE
8
BLACK
6
CONTINUOUS
10
35.1978
20
11.8726
11
35.2224
21
11.8524
0
LINE
8
BLACK
6
CONTINUOUS
10
35.2224
20
11.8524
11
35.2426
21
11.8278
0
LINE
8
BLACK
6
CONTINUOUS
10
35.2426
20
11.8278
11
35.2576
21
11.7997
0
LINE
8
BLACK
6
CONTINUOUS
10
35.2576
20
11.7997
11
35.2669
21
11.7692
0
LINE
8
BLACK
6
CONTINUOUS
10
35.2669
20
11.7692
11
35.27
21
11.7375
0
LINE
8
BLACK
6
CONTINUOUS
10
35.27
20
11.7375
11
35.27
21
10.3625
0
LINE
8
BLACK
6
CONTINUOUS
10
35.27
20
10.3625
11
35.2669
21
10.3308
0
LINE
8
BLACK
6
CONTINUOUS
10
35.2669
20
10.3308
11
35.2576
21
10.3003
0
LINE
8
BLACK
6
CONTINUOUS
10
35.2576
20
10.3003
11
35.2426
21
10.2722
0
LINE
8
BLACK
6
CONTINUOUS
10
35.2426
20
10.2722
11
35.2224
21
10.2476
0
LINE
8
BLACK
6
CONTINUOUS
10
35.2224
20
10.2476
11
35.1978
21
10.2274
0
LINE
8
BLACK
6
CONTINUOUS
10
35.1978
20
10.2274
11
35.1697
21
10.2124
0
LINE
8
BLACK
6
CONTINUOUS
10
35.1697
20
10.2124
11
35.1392
21
10.2031
0
LINE
8
BLACK
6
CONTINUOUS
10
35.1392
20
10.2031
11
35.1075
21
10.2
0
LINE
8
BLACK
6
CONTINUOUS
10
35.1075
20
10.2
11
34.7825
21
10.2
0
LINE
8
BLACK
6
CONTINUOUS
10
34.7825
20
10.2
11
34.7508
21
10.2031
0
LINE
8
BLACK
6
CONTINUOUS
10
34.7508
20
10.2031
11
34.7203
21
10.2124
0
LINE
8
BLACK
6
CONTINUOUS
10
34.7203
20
10.2124
11
34.6922
21
10.2274
0
LINE
8
BLACK
6
CONTINUOUS
10
34.6922
20
10.2274
11
34.6676
21
10.2476
0
LINE
8
BLACK
6
CONTINUOUS
10
34.6676
20
10.2476
11
34.6474
21
10.2722
0
LINE
8
BLACK
6
CONTINUOUS
10
34.6474
20
10.2722
11
34.6324
21
10.3003
0
LINE
8
BLACK
6
CONTINUOUS
10
34.6324
20
10.3003
11
34.6231
21
10.3308
0
LINE
8
BLACK
6
CONTINUOUS
10
34.6231
20
10.3308
11
34.62
21
10.3625
0
LINE
8
BLACK
6
CONTINUOUS
10
34.62
20
10.3625
11
34.62
21
11.7375
0
LINE
8
BLACK
6
CONTINUOUS
10
34.62
20
11.7375
11
34.6231
21
11.7692
0
LINE
8
BLACK
6
CONTINUOUS
10
34.6231
20
11.7692
11
34.6324
21
11.7997
0
LINE
8
BLACK
6
CONTINUOUS
10
34.6324
20
11.7997
11
34.6474
21
11.8278
0
LINE
8
BLACK
6
CONTINUOUS
10
34.6474
20
11.8278
11
34.6676
21
11.8524
0
LINE
8
BLACK
6
CONTINUOUS
10
34.6676
20
11.8524
11
34.6922
21
11.8726
0
LINE
8
BLACK
6
CONTINUOUS
10
34.6922
20
11.8726
11
34.7203
21
11.8876
0
LINE
8
BLACK
6
CONTINUOUS
10
34.7203
20
11.8876
11
34.7508
21
11.8969
0
LINE
8
BLACK
6
CONTINUOUS
10
34.7508
20
11.8969
11
34.7825
21
11.9
0
LINE
8
BLACK
6
CONTINUOUS
10
34.7825
20
11.9
11
35.1075
21
11.9
0
LINE
8
BLACK
6
CONTINUOUS
10
35.1075
20
11.9
11
35.1392
21
11.8969
0
LINE
8
BLACK
6
CONTINUOUS
10
24.8097
20
14.0699
11
24.8598
21
14.0546
0
LINE
8
BLACK
6
CONTINUOUS
10
24.8598
20
14.0546
11
24.9061
21
14.0299
0
LINE
8
BLACK
6
CONTINUOUS
10
24.9061
20
14.0299
11
24.9466
21
13.9966
0
LINE
8
BLACK
6
CONTINUOUS
10
24.9466
20
13.9966
11
24.9799
21
13.9561
0
LINE
8
BLACK
6
CONTINUOUS
10
24.9799
20
13.9561
11
25.0046
21
13.9098
0
LINE
8
BLACK
6
CONTINUOUS
10
25.0046
20
13.9098
11
25.0199
21
13.8597
0
LINE
8
BLACK
6
CONTINUOUS
10
25.0199
20
13.8597
11
25.025
21
13.8075
0
LINE
8
BLACK
6
CONTINUOUS
10
25.025
20
13.8075
11
25.025
21
12.8175
0
LINE
8
BLACK
6
CONTINUOUS
10
25.025
20
12.8175
11
25.0199
21
12.7653
0
LINE
8
BLACK
6
CONTINUOUS
10
25.0199
20
12.7653
11
25.0046
21
12.7152
0
LINE
8
BLACK
6
CONTINUOUS
10
25.0046
20
12.7152
11
24.9799
21
12.6689
0
LINE
8
BLACK
6
CONTINUOUS
10
24.9799
20
12.6689
11
24.9466
21
12.6284
0
LINE
8
BLACK
6
CONTINUOUS
10
24.9466
20
12.6284
11
24.9061
21
12.5951
0
LINE
8
BLACK
6
CONTINUOUS
10
24.9061
20
12.5951
11
24.8598
21
12.5704
0
LINE
8
BLACK
6
CONTINUOUS
10
24.8598
20
12.5704
11
24.8097
21
12.5551
0
LINE
8
BLACK
6
CONTINUOUS
10
24.8097
20
12.5551
11
24.7575
21
12.55
0
LINE
8
BLACK
6
CONTINUOUS
10
24.7575
20
12.55
11
23.4425
21
12.55
0
LINE
8
BLACK
6
CONTINUOUS
10
23.4425
20
12.55
11
23.3903
21
12.5551
0
LINE
8
BLACK
6
CONTINUOUS
10
23.3903
20
12.5551
11
23.3402
21
12.5704
0
LINE
8
BLACK
6
CONTINUOUS
10
23.3402
20
12.5704
11
23.2939
21
12.5951
0
LINE
8
BLACK
6
CONTINUOUS
10
23.2939
20
12.5951
11
23.2534
21
12.6284
0
LINE
8
BLACK
6
CONTINUOUS
10
23.2534
20
12.6284
11
23.2201
21
12.6689
0
LINE
8
BLACK
6
CONTINUOUS
10
23.2201
20
12.6689
11
23.1954
21
12.7152
0
LINE
8
BLACK
6
CONTINUOUS
10
23.1954
20
12.7152
11
23.1801
21
12.7653
0
LINE
8
BLACK
6
CONTINUOUS
10
23.1801
20
12.7653
11
23.175
21
12.8175
0
LINE
8
BLACK
6
CONTINUOUS
10
23.175
20
12.8175
11
23.175
21
13.8075
0
LINE
8
BLACK
6
CONTINUOUS
10
23.175
20
13.8075
11
23.1801
21
13.8597
0
LINE
8
BLACK
6
CONTINUOUS
10
23.1801
20
13.8597
11
23.1954
21
13.9098
0
LINE
8
BLACK
6
CONTINUOUS
10
23.1954
20
13.9098
11
23.2201
21
13.9561
0
LINE
8
BLACK
6
CONTINUOUS
10
23.2201
20
13.9561
11
23.2534
21
13.9966
0
LINE
8
BLACK
6
CONTINUOUS
10
23.2534
20
13.9966
11
23.2939
21
14.0299
0
LINE
8
BLACK
6
CONTINUOUS
10
23.2939
20
14.0299
11
23.3402
21
14.0546
0
LINE
8
BLACK
6
CONTINUOUS
10
23.3402
20
14.0546
11
23.3903
21
14.0699
0
LINE
8
BLACK
6
CONTINUOUS
10
23.3903
20
14.0699
11
23.4425
21
14.075
0
LINE
8
BLACK
6
CONTINUOUS
10
23.4425
20
14.075
11
24.7575
21
14.075
0
LINE
8
BLACK
6
CONTINUOUS
10
24.7575
20
14.075
11
24.8097
21
14.0699
0
LINE
8
BLACK
6
CONTINUOUS
10
7.05965
20
14.9199
11
7.10984
21
14.9046
0
LINE
8
BLACK
6
CONTINUOUS
10
7.10984
20
14.9046
11
7.15609
21
14.8799
0
LINE
8
BLACK
6
CONTINUOUS
10
7.15609
20
14.8799
11
7.19664
21
14.8466
0
LINE
8
BLACK
6
CONTINUOUS
10
7.19664
20
14.8466
11
7.22991
21
14.8061
0
LINE
8
BLACK
6
CONTINUOUS
10
7.22991
20
14.8061
11
7.25463
21
14.7598
0
LINE
8
BLACK
6
CONTINUOUS
10
7.25463
20
14.7598
11
7.26986
21
14.7097
0
LINE
8
BLACK
6
CONTINUOUS
10
7.26986
20
14.7097
11
7.275
21
14.6575
0
LINE
8
BLACK
6
CONTINUOUS
10
7.275
20
14.6575
11
7.275
21
13.3425
0
LINE
8
BLACK
6
CONTINUOUS
10
7.275
20
13.3425
11
7.26986
21
13.2903
0
LINE
8
BLACK
6
CONTINUOUS
10
7.26986
20
13.2903
11
7.25463
21
13.2402
0
LINE
8
BLACK
6
CONTINUOUS
10
7.25463
20
13.2402
11
7.22991
21
13.1939
0
LINE
8
BLACK
6
CONTINUOUS
10
7.22991
20
13.1939
11
7.19664
21
13.1534
0
LINE
8
BLACK
6
CONTINUOUS
10
7.19664
20
13.1534
11
7.15609
21
13.1201
0
LINE
8
BLACK
6
CONTINUOUS
10
7.15609
20
13.1201
11
7.10984
21
13.0954
0
LINE
8
BLACK
6
CONTINUOUS
10
7.10984
20
13.0954
11
7.05965
21
13.0801
0
LINE
8
BLACK
6
CONTINUOUS
10
7.05965
20
13.0801
11
7.00746
21
13.075
0
LINE
8
BLACK
6
CONTINUOUS
10
7.00746
20
13.075
11
6.01754
21
13.075
0
LINE
8
BLACK
6
CONTINUOUS
10
6.01754
20
13.075
11
5.96535
21
13.0801
0
LINE
8
BLACK
6
CONTINUOUS
10
5.96535
20
13.0801
11
5.91516
21
13.0954
0
LINE
8
BLACK
6
CONTINUOUS
10
5.91516
20
13.0954
11
5.8689
21
13.1201
0
LINE
8
BLACK
6
CONTINUOUS
10
5.8689
20
13.1201
11
5.82836
21
13.1534
0
LINE
8
BLACK
6
CONTINUOUS
10
5.82836
20
13.1534
11
5.79509
21
13.1939
0
LINE
8
BLACK
6
CONTINUOUS
10
5.79509
20
13.1939
11
5.77037
21
13.2402
0
LINE
8
BLACK
6
CONTINUOUS
10
5.77037
20
13.2402
11
5.75514
21
13.2903
0
LINE
8
BLACK
6
CONTINUOUS
10
5.75514
20
13.2903
11
5.75
21
13.3425
0
LINE
8
BLACK
6
CONTINUOUS
10
5.75
20
13.3425
11
5.75
21
14.6575
0
LINE
8
BLACK
6
CONTINUOUS
10
5.75
20
14.6575
11
5.75514
21
14.7097
0
LINE
8
BLACK
6
CONTINUOUS
10
5.75514
20
14.7097
11
5.77037
21
14.7598
0
LINE
8
BLACK
6
CONTINUOUS
10
5.77037
20
14.7598
11
5.79509
21
14.8061
0
LINE
8
BLACK
6
CONTINUOUS
10
5.79509
20
14.8061
11
5.82836
21
14.8466
0
LINE
8
BLACK
6
CONTINUOUS
10
5.82836
20
14.8466
11
5.8689
21
14.8799
0
LINE
8
BLACK
6
CONTINUOUS
10
5.8689
20
14.8799
11
5.91516
21
14.9046
0
LINE
8
BLACK
6
CONTINUOUS
10
5.91516
20
14.9046
11
5.96535
21
14.9199
0
LINE
8
BLACK
6
CONTINUOUS
10
5.96535
20
14.9199
11
6.01754
21
14.925
0
LINE
8
BLACK
6
CONTINUOUS
10
6.01754
20
14.925
11
7.00746
21
14.925
0
LINE
8
BLACK
6
CONTINUOUS
10
7.00746
20
14.925
11
7.05965
21
14.9199
0
LINE
8
BLACK
6
CONTINUOUS
10
10.0347
20
14.9199
11
10.0848
21
14.9046
0
LINE
8
BLACK
6
CONTINUOUS
10
10.0848
20
14.9046
11
10.1311
21
14.8799
0
LINE
8
BLACK
6
CONTINUOUS
10
10.1311
20
14.8799
11
10.1716
21
14.8466
0
LINE
8
BLACK
6
CONTINUOUS
10
10.1716
20
14.8466
11
10.2049
21
14.8061
0
LINE
8
BLACK
6
CONTINUOUS
10
10.2049
20
14.8061
11
10.2296
21
14.7598
0
LINE
8
BLACK
6
CONTINUOUS
10
10.2296
20
14.7598
11
10.2449
21
14.7097
0
LINE
8
BLACK
6
CONTINUOUS
10
10.2449
20
14.7097
11
10.25
21
14.6575
0
LINE
8
BLACK
6
CONTINUOUS
10
10.25
20
14.6575
11
10.25
21
13.3425
0
LINE
8
BLACK
6
CONTINUOUS
10
10.25
20
13.3425
11
10.2449
21
13.2903
0
LINE
8
BLACK
6
CONTINUOUS
10
10.2449
20
13.2903
11
10.2296
21
13.2402
0
LINE
8
BLACK
6
CONTINUOUS
10
10.2296
20
13.2402
11
10.2049
21
13.1939
0
LINE
8
BLACK
6
CONTINUOUS
10
10.2049
20
13.1939
11
10.1716
21
13.1534
0
LINE
8
BLACK
6
CONTINUOUS
10
10.1716
20
13.1534
11
10.1311
21
13.1201
0
LINE
8
BLACK
6
CONTINUOUS
10
10.1311
20
13.1201
11
10.0848
21
13.0954
0
LINE
8
BLACK
6
CONTINUOUS
10
10.0848
20
13.0954
11
10.0347
21
13.0801
0
LINE
8
BLACK
6
CONTINUOUS
10
10.0347
20
13.0801
11
9.98246
21
13.075
0
LINE
8
BLACK
6
CONTINUOUS
10
9.98246
20
13.075
11
8.99254
21
13.075
0
LINE
8
BLACK
6
CONTINUOUS
10
8.99254
20
13.075
11
8.94035
21
13.0801
0
LINE
8
BLACK
6
CONTINUOUS
10
8.94035
20
13.0801
11
8.89016
21
13.0954
0
LINE
8
BLACK
6
CONTINUOUS
10
8.89016
20
13.0954
11
8.8439
21
13.1201
0
LINE
8
BLACK
6
CONTINUOUS
10
8.8439
20
13.1201
11
8.80336
21
13.1534
0
LINE
8
BLACK
6
CONTINUOUS
10
8.80336
20
13.1534
11
8.77009
21
13.1939
0
LINE
8
BLACK
6
CONTINUOUS
10
8.77009
20
13.1939
11
8.74537
21
13.2402
0
LINE
8
BLACK
6
CONTINUOUS
10
8.74537
20
13.2402
11
8.73014
21
13.2903
0
LINE
8
BLACK
6
CONTINUOUS
10
8.73014
20
13.2903
11
8.725
21
13.3425
0
LINE
8
BLACK
6
CONTINUOUS
10
8.725
20
13.3425
11
8.725
21
14.6575
0
LINE
8
BLACK
6
CONTINUOUS
10
8.725
20
14.6575
11
8.73014
21
14.7097
0
LINE
8
BLACK
6
CONTINUOUS
10
8.73014
20
14.7097
11
8.74537
21
14.7598
0
LINE
8
BLACK
6
CONTINUOUS
10
8.74537
20
14.7598
11
8.77009
21
14.8061
0
LINE
8
BLACK
6
CONTINUOUS
10
8.77009
20
14.8061
11
8.80336
21
14.8466
0
LINE
8
BLACK
6
CONTINUOUS
10
8.80336
20
14.8466
11
8.8439
21
14.8799
0
LINE
8
BLACK
6
CONTINUOUS
10
8.8439
20
14.8799
11
8.89016
21
14.9046
0
LINE
8
BLACK
6
CONTINUOUS
10
8.89016
20
14.9046
11
8.94035
21
14.9199
0
LINE
8
BLACK
6
CONTINUOUS
10
8.94035
20
14.9199
11
8.99254
21
14.925
0
LINE
8
BLACK
6
CONTINUOUS
10
8.99254
20
14.925
11
9.98246
21
14.925
0
LINE
8
BLACK
6
CONTINUOUS
10
9.98246
20
14.925
11
10.0347
21
14.9199
0
LINE
8
BLACK
6
CONTINUOUS
10
52.0597
20
15.1199
11
52.1098
21
15.1046
0
LINE
8
BLACK
6
CONTINUOUS
10
52.1098
20
15.1046
11
52.1561
21
15.0799
0
LINE
8
BLACK
6
CONTINUOUS
10
52.1561
20
15.0799
11
52.1966
21
15.0466
0
LINE
8
BLACK
6
CONTINUOUS
10
52.1966
20
15.0466
11
52.2299
21
15.0061
0
LINE
8
BLACK
6
CONTINUOUS
10
52.2299
20
15.0061
11
52.2546
21
14.9598
0
LINE
8
BLACK
6
CONTINUOUS
10
52.2546
20
14.9598
11
52.2699
21
14.9097
0
LINE
8
BLACK
6
CONTINUOUS
10
52.2699
20
14.9097
11
52.275
21
14.8575
0
LINE
8
BLACK
6
CONTINUOUS
10
52.275
20
14.8575
11
52.275
21
13.5425
0
LINE
8
BLACK
6
CONTINUOUS
10
52.275
20
13.5425
11
52.2699
21
13.4903
0
LINE
8
BLACK
6
CONTINUOUS
10
52.2699
20
13.4903
11
52.2546
21
13.4402
0
LINE
8
BLACK
6
CONTINUOUS
10
52.2546
20
13.4402
11
52.2299
21
13.3939
0
LINE
8
BLACK
6
CONTINUOUS
10
52.2299
20
13.3939
11
52.1966
21
13.3534
0
LINE
8
BLACK
6
CONTINUOUS
10
52.1966
20
13.3534
11
52.1561
21
13.3201
0
LINE
8
BLACK
6
CONTINUOUS
10
52.1561
20
13.3201
11
52.1098
21
13.2954
0
LINE
8
BLACK
6
CONTINUOUS
10
52.1098
20
13.2954
11
52.0597
21
13.2801
0
LINE
8
BLACK
6
CONTINUOUS
10
52.0597
20
13.2801
11
52.0075
21
13.275
0
LINE
8
BLACK
6
CONTINUOUS
10
52.0075
20
13.275
11
51.0175
21
13.275
0
LINE
8
BLACK
6
CONTINUOUS
10
51.0175
20
13.275
11
50.9653
21
13.2801
0
LINE
8
BLACK
6
CONTINUOUS
10
50.9653
20
13.2801
11
50.9152
21
13.2954
0
LINE
8
BLACK
6
CONTINUOUS
10
50.9152
20
13.2954
11
50.8689
21
13.3201
0
LINE
8
BLACK
6
CONTINUOUS
10
50.8689
20
13.3201
11
50.8284
21
13.3534
0
LINE
8
BLACK
6
CONTINUOUS
10
50.8284
20
13.3534
11
50.7951
21
13.3939
0
LINE
8
BLACK
6
CONTINUOUS
10
50.7951
20
13.3939
11
50.7704
21
13.4402
0
LINE
8
BLACK
6
CONTINUOUS
10
50.7704
20
13.4402
11
50.7551
21
13.4903
0
LINE
8
BLACK
6
CONTINUOUS
10
50.7551
20
13.4903
11
50.75
21
13.5425
0
LINE
8
BLACK
6
CONTINUOUS
10
50.75
20
13.5425
11
50.75
21
14.8575
0
LINE
8
BLACK
6
CONTINUOUS
10
50.75
20
14.8575
11
50.7551
21
14.9097
0
LINE
8
BLACK
6
CONTINUOUS
10
50.7551
20
14.9097
11
50.7704
21
14.9598
0
LINE
8
BLACK
6
CONTINUOUS
10
50.7704
20
14.9598
11
50.7951
21
15.0061
0
LINE
8
BLACK
6
CONTINUOUS
10
50.7951
20
15.0061
11
50.8284
21
15.0466
0
LINE
8
BLACK
6
CONTINUOUS
10
50.8284
20
15.0466
11
50.8689
21
15.0799
0
LINE
8
BLACK
6
CONTINUOUS
10
50.8689
20
15.0799
11
50.9152
21
15.1046
0
LINE
8
BLACK
6
CONTINUOUS
10
50.9152
20
15.1046
11
50.9653
21
15.1199
0
LINE
8
BLACK
6
CONTINUOUS
10
50.9653
20
15.1199
11
51.0175
21
15.125
0
LINE
8
BLACK
6
CONTINUOUS
10
51.0175
20
15.125
11
52.0075
21
15.125
0
LINE
8
BLACK
6
CONTINUOUS
10
52.0075
20
15.125
11
52.0597
21
15.1199
0
LINE
8
BLACK
6
CONTINUOUS
10
55.0347
20
15.1199
11
55.0848
21
15.1046
0
LINE
8
BLACK
6
CONTINUOUS
10
55.0848
20
15.1046
11
55.1311
21
15.0799
0
LINE
8
BLACK
6
CONTINUOUS
10
55.1311
20
15.0799
11
55.1716
21
15.0466
0
LINE
8
BLACK
6
CONTINUOUS
10
55.1716
20
15.0466
11
55.2049
21
15.0061
0
LINE
8
BLACK
6
CONTINUOUS
10
55.2049
20
15.0061
11
55.2296
21
14.9598
0
LINE
8
BLACK
6
CONTINUOUS
10
55.2296
20
14.9598
11
55.2449
21
14.9097
0
LINE
8
BLACK
6
CONTINUOUS
10
55.2449
20
14.9097
11
55.25
21
14.8575
0
LINE
8
BLACK
6
CONTINUOUS
10
55.25
20
14.8575
11
55.25
21
13.5425
0
LINE
8
BLACK
6
CONTINUOUS
10
55.25
20
13.5425
11
55.2449
21
13.4903
0
LINE
8
BLACK
6
CONTINUOUS
10
55.2449
20
13.4903
11
55.2296
21
13.4402
0
LINE
8
BLACK
6
CONTINUOUS
10
55.2296
20
13.4402
11
55.2049
21
13.3939
0
LINE
8
BLACK
6
CONTINUOUS
10
55.2049
20
13.3939
11
55.1716
21
13.3534
0
LINE
8
BLACK
6
CONTINUOUS
10
55.1716
20
13.3534
11
55.1311
21
13.3201
0
LINE
8
BLACK
6
CONTINUOUS
10
55.1311
20
13.3201
11
55.0848
21
13.2954
0
LINE
8
BLACK
6
CONTINUOUS
10
55.0848
20
13.2954
11
55.0347
21
13.2801
0
LINE
8
BLACK
6
CONTINUOUS
10
55.0347
20
13.2801
11
54.9825
21
13.275
0
LINE
8
BLACK
6
CONTINUOUS
10
54.9825
20
13.275
11
53.9925
21
13.275
0
LINE
8
BLACK
6
CONTINUOUS
10
53.9925
20
13.275
11
53.9403
21
13.2801
0
LINE
8
BLACK
6
CONTINUOUS
10
53.9403
20
13.2801
11
53.8902
21
13.2954
0
LINE
8
BLACK
6
CONTINUOUS
10
53.8902
20
13.2954
11
53.8439
21
13.3201
0
LINE
8
BLACK
6
CONTINUOUS
10
53.8439
20
13.3201
11
53.8034
21
13.3534
0
LINE
8
BLACK
6
CONTINUOUS
10
53.8034
20
13.3534
11
53.7701
21
13.3939
0
LINE
8
BLACK
6
CONTINUOUS
10
53.7701
20
13.3939
11
53.7454
21
13.4402
0
LINE
8
BLACK
6
CONTINUOUS
10
53.7454
20
13.4402
11
53.7301
21
13.4903
0
LINE
8
BLACK
6
CONTINUOUS
10
53.7301
20
13.4903
11
53.725
21
13.5425
0
LINE
8
BLACK
6
CONTINUOUS
10
53.725
20
13.5425
11
53.725
21
14.8575
0
LINE
8
BLACK
6
CONTINUOUS
10
53.725
20
14.8575
11
53.7301
21
14.9097
0
LINE
8
BLACK
6
CONTINUOUS
10
53.7301
20
14.9097
11
53.7454
21
14.9598
0
LINE
8
BLACK
6
CONTINUOUS
10
53.7454
20
14.9598
11
53.7701
21
15.0061
0
LINE
8
BLACK
6
CONTINUOUS
10
53.7701
20
15.0061
11
53.8034
21
15.0466
0
LINE
8
BLACK
6
CONTINUOUS
10
53.8034
20
15.0466
11
53.8439
21
15.0799
0
LINE
8
BLACK
6
CONTINUOUS
10
53.8439
20
15.0799
11
53.8902
21
15.1046
0
LINE
8
BLACK
6
CONTINUOUS
10
53.8902
20
15.1046
11
53.9403
21
15.1199
0
LINE
8
BLACK
6
CONTINUOUS
10
53.9403
20
15.1199
11
53.9925
21
15.125
0
LINE
8
BLACK
6
CONTINUOUS
10
53.9925
20
15.125
11
54.9825
21
15.125
0
LINE
8
BLACK
6
CONTINUOUS
10
54.9825
20
15.125
11
55.0347
21
15.1199
0
LINE
8
BLACK
6
CONTINUOUS
10
24.8097
20
17.0449
11
24.8598
21
17.0296
0
LINE
8
BLACK
6
CONTINUOUS
10
24.8598
20
17.0296
11
24.9061
21
17.0049
0
LINE
8
BLACK
6
CONTINUOUS
10
24.9061
20
17.0049
11
24.9466
21
16.9716
0
LINE
8
BLACK
6
CONTINUOUS
10
24.9466
20
16.9716
11
24.9799
21
16.9311
0
LINE
8
BLACK
6
CONTINUOUS
10
24.9799
20
16.9311
11
25.0046
21
16.8848
0
LINE
8
BLACK
6
CONTINUOUS
10
25.0046
20
16.8848
11
25.0199
21
16.8347
0
LINE
8
BLACK
6
CONTINUOUS
10
25.0199
20
16.8347
11
25.025
21
16.7825
0
LINE
8
BLACK
6
CONTINUOUS
10
25.025
20
16.7825
11
25.025
21
15.7925
0
LINE
8
BLACK
6
CONTINUOUS
10
25.025
20
15.7925
11
25.0199
21
15.7403
0
LINE
8
BLACK
6
CONTINUOUS
10
25.0199
20
15.7403
11
25.0046
21
15.6902
0
LINE
8
BLACK
6
CONTINUOUS
10
25.0046
20
15.6902
11
24.9799
21
15.6439
0
LINE
8
BLACK
6
CONTINUOUS
10
24.9799
20
15.6439
11
24.9466
21
15.6034
0
LINE
8
BLACK
6
CONTINUOUS
10
24.9466
20
15.6034
11
24.9061
21
15.5701
0
LINE
8
BLACK
6
CONTINUOUS
10
24.9061
20
15.5701
11
24.8598
21
15.5454
0
LINE
8
BLACK
6
CONTINUOUS
10
24.8598
20
15.5454
11
24.8097
21
15.5301
0
LINE
8
BLACK
6
CONTINUOUS
10
24.8097
20
15.5301
11
24.7575
21
15.525
0
LINE
8
BLACK
6
CONTINUOUS
10
24.7575
20
15.525
11
23.4425
21
15.525
0
LINE
8
BLACK
6
CONTINUOUS
10
23.4425
20
15.525
11
23.3903
21
15.5301
0
LINE
8
BLACK
6
CONTINUOUS
10
23.3903
20
15.5301
11
23.3402
21
15.5454
0
LINE
8
BLACK
6
CONTINUOUS
10
23.3402
20
15.5454
11
23.2939
21
15.5701
0
LINE
8
BLACK
6
CONTINUOUS
10
23.2939
20
15.5701
11
23.2534
21
15.6034
0
LINE
8
BLACK
6
CONTINUOUS
10
23.2534
20
15.6034
11
23.2201
21
15.6439
0
LINE
8
BLACK
6
CONTINUOUS
10
23.2201
20
15.6439
11
23.1954
21
15.6902
0
LINE
8
BLACK
6
CONTINUOUS
10
23.1954
20
15.6902
11
23.1801
21
15.7403
0
LINE
8
BLACK
6
CONTINUOUS
10
23.1801
20
15.7403
11
23.175
21
15.7925
0
LINE
8
BLACK
6
CONTINUOUS
10
23.175
20
15.7925
11
23.175
21
16.7825
0
LINE
8
BLACK
6
CONTINUOUS
10
23.175
20
16.7825
11
23.1801
21
16.8347
0
LINE
8
BLACK
6
CONTINUOUS
10
23.1801
20
16.8347
11
23.1954
21
16.8848
0
LINE
8
BLACK
6
CONTINUOUS
10
23.1954
20
16.8848
11
23.2201
21
16.9311
0
LINE
8
BLACK
6
CONTINUOUS
10
23.2201
20
16.9311
11
23.2534
21
16.9716
0
LINE
8
BLACK
6
CONTINUOUS
10
23.2534
20
16.9716
11
23.2939
21
17.0049
0
LINE
8
BLACK
6
CONTINUOUS
10
23.2939
20
17.0049
11
23.3402
21
17.0296
0
LINE
8
BLACK
6
CONTINUOUS
10
23.3402
20
17.0296
11
23.3903
21
17.0449
0
LINE
8
BLACK
6
CONTINUOUS
10
23.3903
20
17.0449
11
23.4425
21
17.05
0
LINE
8
BLACK
6
CONTINUOUS
10
23.4425
20
17.05
11
24.7575
21
17.05
0
LINE
8
BLACK
6
CONTINUOUS
10
24.7575
20
17.05
11
24.8097
21
17.0449
0
LINE
8
BLACK
6
CONTINUOUS
10
51.6
20
16
11
48.5
21
16
0
LINE
8
BLACK
6
CONTINUOUS
10
48.5
20
16
11
48.5
21
17.6
0
LINE
8
BLACK
6
CONTINUOUS
10
48.5
20
17.6
11
51.6
21
17.6
0
LINE
8
BLACK
6
CONTINUOUS
10
51.6
20
17.6
11
51.6
21
16
0
LINE
8
BLACK
6
CONTINUOUS
10
57.5
20
16
11
54.4
21
16
0
LINE
8
BLACK
6
CONTINUOUS
10
54.4
20
16
11
54.4
21
17.6
0
LINE
8
BLACK
6
CONTINUOUS
10
54.4
20
17.6
11
57.5
21
17.6
0
LINE
8
BLACK
6
CONTINUOUS
10
57.5
20
17.6
11
57.5
21
16
0
LINE
8
BLACK
6
CONTINUOUS
10
12.5
20
16.1
11
9.4
21
16.1
0
LINE
8
BLACK
6
CONTINUOUS
10
9.4
20
16.1
11
9.4
21
17.7
0
LINE
8
BLACK
6
CONTINUOUS
10
9.4
20
17.7
11
12.5
21
17.7
0
LINE
8
BLACK
6
CONTINUOUS
10
12.5
20
17.7
11
12.5
21
16.1
0
LINE
8
BLACK
6
CONTINUOUS
10
6.6
20
16.1
11
3.5
21
16.1
0
LINE
8
BLACK
6
CONTINUOUS
10
3.5
20
16.1
11
3.5
21
17.7
0
LINE
8
BLACK
6
CONTINUOUS
10
3.5
20
17.7
11
6.6
21
17.7
0
LINE
8
BLACK
6
CONTINUOUS
10
6.6
20
17.7
11
6.6
21
16.1
0
LINE
8
BLACK
6
CONTINUOUS
10
26.2492
20
18.3969
11
26.2797
21
18.3876
0
LINE
8
BLACK
6
CONTINUOUS
10
26.2797
20
18.3876
11
26.3078
21
18.3726
0
LINE
8
BLACK
6
CONTINUOUS
10
26.3078
20
18.3726
11
26.3324
21
18.3524
0
LINE
8
BLACK
6
CONTINUOUS
10
26.3324
20
18.3524
11
26.3526
21
18.3278
0
LINE
8
BLACK
6
CONTINUOUS
10
26.3526
20
18.3278
11
26.3676
21
18.2997
0
LINE
8
BLACK
6
CONTINUOUS
10
26.3676
20
18.2997
11
26.3769
21
18.2692
0
LINE
8
BLACK
6
CONTINUOUS
10
26.3769
20
18.2692
11
26.38
21
18.2375
0
LINE
8
BLACK
6
CONTINUOUS
10
26.38
20
18.2375
11
26.38
21
16.8625
0
LINE
8
BLACK
6
CONTINUOUS
10
26.38
20
16.8625
11
26.3769
21
16.8308
0
LINE
8
BLACK
6
CONTINUOUS
10
26.3769
20
16.8308
11
26.3676
21
16.8003
0
LINE
8
BLACK
6
CONTINUOUS
10
26.3676
20
16.8003
11
26.3526
21
16.7722
0
LINE
8
BLACK
6
CONTINUOUS
10
26.3526
20
16.7722
11
26.3324
21
16.7476
0
LINE
8
BLACK
6
CONTINUOUS
10
26.3324
20
16.7476
11
26.3078
21
16.7274
0
LINE
8
BLACK
6
CONTINUOUS
10
26.3078
20
16.7274
11
26.2797
21
16.7124
0
LINE
8
BLACK
6
CONTINUOUS
10
26.2797
20
16.7124
11
26.2492
21
16.7031
0
LINE
8
BLACK
6
CONTINUOUS
10
26.2492
20
16.7031
11
26.2175
21
16.7
0
LINE
8
BLACK
6
CONTINUOUS
10
26.2175
20
16.7
11
25.8925
21
16.7
0
LINE
8
BLACK
6
CONTINUOUS
10
25.8925
20
16.7
11
25.8608
21
16.7031
0
LINE
8
BLACK
6
CONTINUOUS
10
25.8608
20
16.7031
11
25.8303
21
16.7124
0
LINE
8
BLACK
6
CONTINUOUS
10
25.8303
20
16.7124
11
25.8022
21
16.7274
0
LINE
8
BLACK
6
CONTINUOUS
10
25.8022
20
16.7274
11
25.7776
21
16.7476
0
LINE
8
BLACK
6
CONTINUOUS
10
25.7776
20
16.7476
11
25.7574
21
16.7722
0
LINE
8
BLACK
6
CONTINUOUS
10
25.7574
20
16.7722
11
25.7424
21
16.8003
0
LINE
8
BLACK
6
CONTINUOUS
10
25.7424
20
16.8003
11
25.7331
21
16.8308
0
LINE
8
BLACK
6
CONTINUOUS
10
25.7331
20
16.8308
11
25.73
21
16.8625
0
LINE
8
BLACK
6
CONTINUOUS
10
25.73
20
16.8625
11
25.73
21
18.2375
0
LINE
8
BLACK
6
CONTINUOUS
10
25.73
20
18.2375
11
25.7331
21
18.2692
0
LINE
8
BLACK
6
CONTINUOUS
10
25.7331
20
18.2692
11
25.7424
21
18.2997
0
LINE
8
BLACK
6
CONTINUOUS
10
25.7424
20
18.2997
11
25.7574
21
18.3278
0
LINE
8
BLACK
6
CONTINUOUS
10
25.7574
20
18.3278
11
25.7776
21
18.3524
0
LINE
8
BLACK
6
CONTINUOUS
10
25.7776
20
18.3524
11
25.8022
21
18.3726
0
LINE
8
BLACK
6
CONTINUOUS
10
25.8022
20
18.3726
11
25.8303
21
18.3876
0
LINE
8
BLACK
6
CONTINUOUS
10
25.8303
20
18.3876
11
25.8608
21
18.3969
0
LINE
8
BLACK
6
CONTINUOUS
10
25.8608
20
18.3969
11
25.8925
21
18.4
0
LINE
8
BLACK
6
CONTINUOUS
10
25.8925
20
18.4
11
26.2175
21
18.4
0
LINE
8
BLACK
6
CONTINUOUS
10
26.2175
20
18.4
11
26.2492
21
18.3969
0
LINE
8
BLACK
6
CONTINUOUS
10
27.5192
20
18.3969
11
27.5497
21
18.3876
0
LINE
8
BLACK
6
CONTINUOUS
10
27.5497
20
18.3876
11
27.5778
21
18.3726
0
LINE
8
BLACK
6
CONTINUOUS
10
27.5778
20
18.3726
11
27.6024
21
18.3524
0
LINE
8
BLACK
6
CONTINUOUS
10
27.6024
20
18.3524
11
27.6226
21
18.3278
0
LINE
8
BLACK
6
CONTINUOUS
10
27.6226
20
18.3278
11
27.6376
21
18.2997
0
LINE
8
BLACK
6
CONTINUOUS
10
27.6376
20
18.2997
11
27.6469
21
18.2692
0
LINE
8
BLACK
6
CONTINUOUS
10
27.6469
20
18.2692
11
27.65
21
18.2375
0
LINE
8
BLACK
6
CONTINUOUS
10
27.65
20
18.2375
11
27.65
21
16.8625
0
LINE
8
BLACK
6
CONTINUOUS
10
27.65
20
16.8625
11
27.6469
21
16.8308
0
LINE
8
BLACK
6
CONTINUOUS
10
27.6469
20
16.8308
11
27.6376
21
16.8003
0
LINE
8
BLACK
6
CONTINUOUS
10
27.6376
20
16.8003
11
27.6226
21
16.7722
0
LINE
8
BLACK
6
CONTINUOUS
10
27.6226
20
16.7722
11
27.6024
21
16.7476
0
LINE
8
BLACK
6
CONTINUOUS
10
27.6024
20
16.7476
11
27.5778
21
16.7274
0
LINE
8
BLACK
6
CONTINUOUS
10
27.5778
20
16.7274
11
27.5497
21
16.7124
0
LINE
8
BLACK
6
CONTINUOUS
10
27.5497
20
16.7124
11
27.5192
21
16.7031
0
LINE
8
BLACK
6
CONTINUOUS
10
27.5192
20
16.7031
11
27.4875
21
16.7
0
LINE
8
BLACK
6
CONTINUOUS
10
27.4875
20
16.7
11
27.1625
21
16.7
0
LINE
8
BLACK
6
CONTINUOUS
10
27.1625
20
16.7
11
27.1308
21
16.7031
0
LINE
8
BLACK
6
CONTINUOUS
10
27.1308
20
16.7031
11
27.1003
21
16.7124
0
LINE
8
BLACK
6
CONTINUOUS
10
27.1003
20
16.7124
11
27.0722
21
16.7274
0
LINE
8
BLACK
6
CONTINUOUS
10
27.0722
20
16.7274
11
27.0476
21
16.7476
0
LINE
8
BLACK
6
CONTINUOUS
10
27.0476
20
16.7476
11
27.0274
21
16.7722
0
LINE
8
BLACK
6
CONTINUOUS
10
27.0274
20
16.7722
11
27.0124
21
16.8003
0
LINE
8
BLACK
6
CONTINUOUS
10
27.0124
20
16.8003
11
27.0031
21
16.8308
0
LINE
8
BLACK
6
CONTINUOUS
10
27.0031
20
16.8308
11
27
21
16.8625
0
LINE
8
BLACK
6
CONTINUOUS
10
27
20
16.8625
11
27
21
18.2375
0
LINE
8
BLACK
6
CONTINUOUS
10
27
20
18.2375
11
27.0031
21
18.2692
0
LINE
8
BLACK
6
CONTINUOUS
10
27.0031
20
18.2692
11
27.0124
21
18.2997
0
LINE
8
BLACK
6
CONTINUOUS
10
27.0124
20
18.2997
11
27.0274
21
18.3278
0
LINE
8
BLACK
6
CONTINUOUS
10
27.0274
20
18.3278
11
27.0476
21
18.3524
0
LINE
8
BLACK
6
CONTINUOUS
10
27.0476
20
18.3524
11
27.0722
21
18.3726
0
LINE
8
BLACK
6
CONTINUOUS
10
27.0722
20
18.3726
11
27.1003
21
18.3876
0
LINE
8
BLACK
6
CONTINUOUS
10
27.1003
20
18.3876
11
27.1308
21
18.3969
0
LINE
8
BLACK
6
CONTINUOUS
10
27.1308
20
18.3969
11
27.1625
21
18.4
0
LINE
8
BLACK
6
CONTINUOUS
10
27.1625
20
18.4
11
27.4875
21
18.4
0
LINE
8
BLACK
6
CONTINUOUS
10
27.4875
20
18.4
11
27.5192
21
18.3969
0
LINE
8
BLACK
6
CONTINUOUS
10
28.7892
20
18.3969
11
28.8197
21
18.3876
0
LINE
8
BLACK
6
CONTINUOUS
10
28.8197
20
18.3876
11
28.8478
21
18.3726
0
LINE
8
BLACK
6
CONTINUOUS
10
28.8478
20
18.3726
11
28.8724
21
18.3524
0
LINE
8
BLACK
6
CONTINUOUS
10
28.8724
20
18.3524
11
28.8926
21
18.3278
0
LINE
8
BLACK
6
CONTINUOUS
10
28.8926
20
18.3278
11
28.9076
21
18.2997
0
LINE
8
BLACK
6
CONTINUOUS
10
28.9076
20
18.2997
11
28.9169
21
18.2692
0
LINE
8
BLACK
6
CONTINUOUS
10
28.9169
20
18.2692
11
28.92
21
18.2375
0
LINE
8
BLACK
6
CONTINUOUS
10
28.92
20
18.2375
11
28.92
21
16.8625
0
LINE
8
BLACK
6
CONTINUOUS
10
28.92
20
16.8625
11
28.9169
21
16.8308
0
LINE
8
BLACK
6
CONTINUOUS
10
28.9169
20
16.8308
11
28.9076
21
16.8003
0
LINE
8
BLACK
6
CONTINUOUS
10
28.9076
20
16.8003
11
28.8926
21
16.7722
0
LINE
8
BLACK
6
CONTINUOUS
10
28.8926
20
16.7722
11
28.8724
21
16.7476
0
LINE
8
BLACK
6
CONTINUOUS
10
28.8724
20
16.7476
11
28.8478
21
16.7274
0
LINE
8
BLACK
6
CONTINUOUS
10
28.8478
20
16.7274
11
28.8197
21
16.7124
0
LINE
8
BLACK
6
CONTINUOUS
10
28.8197
20
16.7124
11
28.7892
21
16.7031
0
LINE
8
BLACK
6
CONTINUOUS
10
28.7892
20
16.7031
11
28.7575
21
16.7
0
LINE
8
BLACK
6
CONTINUOUS
10
28.7575
20
16.7
11
28.4325
21
16.7
0
LINE
8
BLACK
6
CONTINUOUS
10
28.4325
20
16.7
11
28.4008
21
16.7031
0
LINE
8
BLACK
6
CONTINUOUS
10
28.4008
20
16.7031
11
28.3703
21
16.7124
0
LINE
8
BLACK
6
CONTINUOUS
10
28.3703
20
16.7124
11
28.3422
21
16.7274
0
LINE
8
BLACK
6
CONTINUOUS
10
28.3422
20
16.7274
11
28.3176
21
16.7476
0
LINE
8
BLACK
6
CONTINUOUS
10
28.3176
20
16.7476
11
28.2974
21
16.7722
0
LINE
8
BLACK
6
CONTINUOUS
10
28.2974
20
16.7722
11
28.2824
21
16.8003
0
LINE
8
BLACK
6
CONTINUOUS
10
28.2824
20
16.8003
11
28.2731
21
16.8308
0
LINE
8
BLACK
6
CONTINUOUS
10
28.2731
20
16.8308
11
28.27
21
16.8625
0
LINE
8
BLACK
6
CONTINUOUS
10
28.27
20
16.8625
11
28.27
21
18.2375
0
LINE
8
BLACK
6
CONTINUOUS
10
28.27
20
18.2375
11
28.2731
21
18.2692
0
LINE
8
BLACK
6
CONTINUOUS
10
28.2731
20
18.2692
11
28.2824
21
18.2997
0
LINE
8
BLACK
6
CONTINUOUS
10
28.2824
20
18.2997
11
28.2974
21
18.3278
0
LINE
8
BLACK
6
CONTINUOUS
10
28.2974
20
18.3278
11
28.3176
21
18.3524
0
LINE
8
BLACK
6
CONTINUOUS
10
28.3176
20
18.3524
11
28.3422
21
18.3726
0
LINE
8
BLACK
6
CONTINUOUS
10
28.3422
20
18.3726
11
28.3703
21
18.3876
0
LINE
8
BLACK
6
CONTINUOUS
10
28.3703
20
18.3876
11
28.4008
21
18.3969
0
LINE
8
BLACK
6
CONTINUOUS
10
28.4008
20
18.3969
11
28.4325
21
18.4
0
LINE
8
BLACK
6
CONTINUOUS
10
28.4325
20
18.4
11
28.7575
21
18.4
0
LINE
8
BLACK
6
CONTINUOUS
10
28.7575
20
18.4
11
28.7892
21
18.3969
0
LINE
8
BLACK
6
CONTINUOUS
10
30.0592
20
18.3969
11
30.0897
21
18.3876
0
LINE
8
BLACK
6
CONTINUOUS
10
30.0897
20
18.3876
11
30.1178
21
18.3726
0
LINE
8
BLACK
6
CONTINUOUS
10
30.1178
20
18.3726
11
30.1424
21
18.3524
0
LINE
8
BLACK
6
CONTINUOUS
10
30.1424
20
18.3524
11
30.1626
21
18.3278
0
LINE
8
BLACK
6
CONTINUOUS
10
30.1626
20
18.3278
11
30.1776
21
18.2997
0
LINE
8
BLACK
6
CONTINUOUS
10
30.1776
20
18.2997
11
30.1869
21
18.2692
0
LINE
8
BLACK
6
CONTINUOUS
10
30.1869
20
18.2692
11
30.19
21
18.2375
0
LINE
8
BLACK
6
CONTINUOUS
10
30.19
20
18.2375
11
30.19
21
16.8625
0
LINE
8
BLACK
6
CONTINUOUS
10
30.19
20
16.8625
11
30.1869
21
16.8308
0
LINE
8
BLACK
6
CONTINUOUS
10
30.1869
20
16.8308
11
30.1776
21
16.8003
0
LINE
8
BLACK
6
CONTINUOUS
10
30.1776
20
16.8003
11
30.1626
21
16.7722
0
LINE
8
BLACK
6
CONTINUOUS
10
30.1626
20
16.7722
11
30.1424
21
16.7476
0
LINE
8
BLACK
6
CONTINUOUS
10
30.1424
20
16.7476
11
30.1178
21
16.7274
0
LINE
8
BLACK
6
CONTINUOUS
10
30.1178
20
16.7274
11
30.0897
21
16.7124
0
LINE
8
BLACK
6
CONTINUOUS
10
30.0897
20
16.7124
11
30.0592
21
16.7031
0
LINE
8
BLACK
6
CONTINUOUS
10
30.0592
20
16.7031
11
30.0275
21
16.7
0
LINE
8
BLACK
6
CONTINUOUS
10
30.0275
20
16.7
11
29.7025
21
16.7
0
LINE
8
BLACK
6
CONTINUOUS
10
29.7025
20
16.7
11
29.6708
21
16.7031
0
LINE
8
BLACK
6
CONTINUOUS
10
29.6708
20
16.7031
11
29.6403
21
16.7124
0
LINE
8
BLACK
6
CONTINUOUS
10
29.6403
20
16.7124
11
29.6122
21
16.7274
0
LINE
8
BLACK
6
CONTINUOUS
10
29.6122
20
16.7274
11
29.5876
21
16.7476
0
LINE
8
BLACK
6
CONTINUOUS
10
29.5876
20
16.7476
11
29.5674
21
16.7722
0
LINE
8
BLACK
6
CONTINUOUS
10
29.5674
20
16.7722
11
29.5524
21
16.8003
0
LINE
8
BLACK
6
CONTINUOUS
10
29.5524
20
16.8003
11
29.5431
21
16.8308
0
LINE
8
BLACK
6
CONTINUOUS
10
29.5431
20
16.8308
11
29.54
21
16.8625
0
LINE
8
BLACK
6
CONTINUOUS
10
29.54
20
16.8625
11
29.54
21
18.2375
0
LINE
8
BLACK
6
CONTINUOUS
10
29.54
20
18.2375
11
29.5431
21
18.2692
0
LINE
8
BLACK
6
CONTINUOUS
10
29.5431
20
18.2692
11
29.5524
21
18.2997
0
LINE
8
BLACK
6
CONTINUOUS
10
29.5524
20
18.2997
11
29.5674
21
18.3278
0
LINE
8
BLACK
6
CONTINUOUS
10
29.5674
20
18.3278
11
29.5876
21
18.3524
0
LINE
8
BLACK
6
CONTINUOUS
10
29.5876
20
18.3524
11
29.6122
21
18.3726
0
LINE
8
BLACK
6
CONTINUOUS
10
29.6122
20
18.3726
11
29.6403
21
18.3876
0
LINE
8
BLACK
6
CONTINUOUS
10
29.6403
20
18.3876
11
29.6708
21
18.3969
0
LINE
8
BLACK
6
CONTINUOUS
10
29.6708
20
18.3969
11
29.7025
21
18.4
0
LINE
8
BLACK
6
CONTINUOUS
10
29.7025
20
18.4
11
30.0275
21
18.4
0
LINE
8
BLACK
6
CONTINUOUS
10
30.0275
20
18.4
11
30.0592
21
18.3969
0
LINE
8
BLACK
6
CONTINUOUS
10
31.3292
20
18.3969
11
31.3597
21
18.3876
0
LINE
8
BLACK
6
CONTINUOUS
10
31.3597
20
18.3876
11
31.3878
21
18.3726
0
LINE
8
BLACK
6
CONTINUOUS
10
31.3878
20
18.3726
11
31.4124
21
18.3524
0
LINE
8
BLACK
6
CONTINUOUS
10
31.4124
20
18.3524
11
31.4326
21
18.3278
0
LINE
8
BLACK
6
CONTINUOUS
10
31.4326
20
18.3278
11
31.4476
21
18.2997
0
LINE
8
BLACK
6
CONTINUOUS
10
31.4476
20
18.2997
11
31.4569
21
18.2692
0
LINE
8
BLACK
6
CONTINUOUS
10
31.4569
20
18.2692
11
31.46
21
18.2375
0
LINE
8
BLACK
6
CONTINUOUS
10
31.46
20
18.2375
11
31.46
21
16.8625
0
LINE
8
BLACK
6
CONTINUOUS
10
31.46
20
16.8625
11
31.4569
21
16.8308
0
LINE
8
BLACK
6
CONTINUOUS
10
31.4569
20
16.8308
11
31.4476
21
16.8003
0
LINE
8
BLACK
6
CONTINUOUS
10
31.4476
20
16.8003
11
31.4326
21
16.7722
0
LINE
8
BLACK
6
CONTINUOUS
10
31.4326
20
16.7722
11
31.4124
21
16.7476
0
LINE
8
BLACK
6
CONTINUOUS
10
31.4124
20
16.7476
11
31.3878
21
16.7274
0
LINE
8
BLACK
6
CONTINUOUS
10
31.3878
20
16.7274
11
31.3597
21
16.7124
0
LINE
8
BLACK
6
CONTINUOUS
10
31.3597
20
16.7124
11
31.3292
21
16.7031
0
LINE
8
BLACK
6
CONTINUOUS
10
31.3292
20
16.7031
11
31.2975
21
16.7
0
LINE
8
BLACK
6
CONTINUOUS
10
31.2975
20
16.7
11
30.9725
21
16.7
0
LINE
8
BLACK
6
CONTINUOUS
10
30.9725
20
16.7
11
30.9408
21
16.7031
0
LINE
8
BLACK
6
CONTINUOUS
10
30.9408
20
16.7031
11
30.9103
21
16.7124
0
LINE
8
BLACK
6
CONTINUOUS
10
30.9103
20
16.7124
11
30.8822
21
16.7274
0
LINE
8
BLACK
6
CONTINUOUS
10
30.8822
20
16.7274
11
30.8576
21
16.7476
0
LINE
8
BLACK
6
CONTINUOUS
10
30.8576
20
16.7476
11
30.8374
21
16.7722
0
LINE
8
BLACK
6
CONTINUOUS
10
30.8374
20
16.7722
11
30.8224
21
16.8003
0
LINE
8
BLACK
6
CONTINUOUS
10
30.8224
20
16.8003
11
30.8131
21
16.8308
0
LINE
8
BLACK
6
CONTINUOUS
10
30.8131
20
16.8308
11
30.81
21
16.8625
0
LINE
8
BLACK
6
CONTINUOUS
10
30.81
20
16.8625
11
30.81
21
18.2375
0
LINE
8
BLACK
6
CONTINUOUS
10
30.81
20
18.2375
11
30.8131
21
18.2692
0
LINE
8
BLACK
6
CONTINUOUS
10
30.8131
20
18.2692
11
30.8224
21
18.2997
0
LINE
8
BLACK
6
CONTINUOUS
10
30.8224
20
18.2997
11
30.8374
21
18.3278
0
LINE
8
BLACK
6
CONTINUOUS
10
30.8374
20
18.3278
11
30.8576
21
18.3524
0
LINE
8
BLACK
6
CONTINUOUS
10
30.8576
20
18.3524
11
30.8822
21
18.3726
0
LINE
8
BLACK
6
CONTINUOUS
10
30.8822
20
18.3726
11
30.9103
21
18.3876
0
LINE
8
BLACK
6
CONTINUOUS
10
30.9103
20
18.3876
11
30.9408
21
18.3969
0
LINE
8
BLACK
6
CONTINUOUS
10
30.9408
20
18.3969
11
30.9725
21
18.4
0
LINE
8
BLACK
6
CONTINUOUS
10
30.9725
20
18.4
11
31.2975
21
18.4
0
LINE
8
BLACK
6
CONTINUOUS
10
31.2975
20
18.4
11
31.3292
21
18.3969
0
LINE
8
BLACK
6
CONTINUOUS
10
32.5992
20
18.3969
11
32.6297
21
18.3876
0
LINE
8
BLACK
6
CONTINUOUS
10
32.6297
20
18.3876
11
32.6578
21
18.3726
0
LINE
8
BLACK
6
CONTINUOUS
10
32.6578
20
18.3726
11
32.6824
21
18.3524
0
LINE
8
BLACK
6
CONTINUOUS
10
32.6824
20
18.3524
11
32.7026
21
18.3278
0
LINE
8
BLACK
6
CONTINUOUS
10
32.7026
20
18.3278
11
32.7176
21
18.2997
0
LINE
8
BLACK
6
CONTINUOUS
10
32.7176
20
18.2997
11
32.7269
21
18.2692
0
LINE
8
BLACK
6
CONTINUOUS
10
32.7269
20
18.2692
11
32.73
21
18.2375
0
LINE
8
BLACK
6
CONTINUOUS
10
32.73
20
18.2375
11
32.73
21
16.8625
0
LINE
8
BLACK
6
CONTINUOUS
10
32.73
20
16.8625
11
32.7269
21
16.8308
0
LINE
8
BLACK
6
CONTINUOUS
10
32.7269
20
16.8308
11
32.7176
21
16.8003
0
LINE
8
BLACK
6
CONTINUOUS
10
32.7176
20
16.8003
11
32.7026
21
16.7722
0
LINE
8
BLACK
6
CONTINUOUS
10
32.7026
20
16.7722
11
32.6824
21
16.7476
0
LINE
8
BLACK
6
CONTINUOUS
10
32.6824
20
16.7476
11
32.6578
21
16.7274
0
LINE
8
BLACK
6
CONTINUOUS
10
32.6578
20
16.7274
11
32.6297
21
16.7124
0
LINE
8
BLACK
6
CONTINUOUS
10
32.6297
20
16.7124
11
32.5992
21
16.7031
0
LINE
8
BLACK
6
CONTINUOUS
10
32.5992
20
16.7031
11
32.5675
21
16.7
0
LINE
8
BLACK
6
CONTINUOUS
10
32.5675
20
16.7
11
32.2425
21
16.7
0
LINE
8
BLACK
6
CONTINUOUS
10
32.2425
20
16.7
11
32.2108
21
16.7031
0
LINE
8
BLACK
6
CONTINUOUS
10
32.2108
20
16.7031
11
32.1803
21
16.7124
0
LINE
8
BLACK
6
CONTINUOUS
10
32.1803
20
16.7124
11
32.1522
21
16.7274
0
LINE
8
BLACK
6
CONTINUOUS
10
32.1522
20
16.7274
11
32.1276
21
16.7476
0
LINE
8
BLACK
6
CONTINUOUS
10
32.1276
20
16.7476
11
32.1074
21
16.7722
0
LINE
8
BLACK
6
CONTINUOUS
10
32.1074
20
16.7722
11
32.0924
21
16.8003
0
LINE
8
BLACK
6
CONTINUOUS
10
32.0924
20
16.8003
11
32.0831
21
16.8308
0
LINE
8
BLACK
6
CONTINUOUS
10
32.0831
20
16.8308
11
32.08
21
16.8625
0
LINE
8
BLACK
6
CONTINUOUS
10
32.08
20
16.8625
11
32.08
21
18.2375
0
LINE
8
BLACK
6
CONTINUOUS
10
32.08
20
18.2375
11
32.0831
21
18.2692
0
LINE
8
BLACK
6
CONTINUOUS
10
32.0831
20
18.2692
11
32.0924
21
18.2997
0
LINE
8
BLACK
6
CONTINUOUS
10
32.0924
20
18.2997
11
32.1074
21
18.3278
0
LINE
8
BLACK
6
CONTINUOUS
10
32.1074
20
18.3278
11
32.1276
21
18.3524
0
LINE
8
BLACK
6
CONTINUOUS
10
32.1276
20
18.3524
11
32.1522
21
18.3726
0
LINE
8
BLACK
6
CONTINUOUS
10
32.1522
20
18.3726
11
32.1803
21
18.3876
0
LINE
8
BLACK
6
CONTINUOUS
10
32.1803
20
18.3876
11
32.2108
21
18.3969
0
LINE
8
BLACK
6
CONTINUOUS
10
32.2108
20
18.3969
11
32.2425
21
18.4
0
LINE
8
BLACK
6
CONTINUOUS
10
32.2425
20
18.4
11
32.5675
21
18.4
0
LINE
8
BLACK
6
CONTINUOUS
10
32.5675
20
18.4
11
32.5992
21
18.3969
0
LINE
8
BLACK
6
CONTINUOUS
10
33.8692
20
18.3969
11
33.8997
21
18.3876
0
LINE
8
BLACK
6
CONTINUOUS
10
33.8997
20
18.3876
11
33.9278
21
18.3726
0
LINE
8
BLACK
6
CONTINUOUS
10
33.9278
20
18.3726
11
33.9524
21
18.3524
0
LINE
8
BLACK
6
CONTINUOUS
10
33.9524
20
18.3524
11
33.9726
21
18.3278
0
LINE
8
BLACK
6
CONTINUOUS
10
33.9726
20
18.3278
11
33.9876
21
18.2997
0
LINE
8
BLACK
6
CONTINUOUS
10
33.9876
20
18.2997
11
33.9969
21
18.2692
0
LINE
8
BLACK
6
CONTINUOUS
10
33.9969
20
18.2692
11
34
21
18.2375
0
LINE
8
BLACK
6
CONTINUOUS
10
34
20
18.2375
11
34
21
16.8625
0
LINE
8
BLACK
6
CONTINUOUS
10
34
20
16.8625
11
33.9969
21
16.8308
0
LINE
8
BLACK
6
CONTINUOUS
10
33.9969
20
16.8308
11
33.9876
21
16.8003
0
LINE
8
BLACK
6
CONTINUOUS
10
33.9876
20
16.8003
11
33.9726
21
16.7722
0
LINE
8
BLACK
6
CONTINUOUS
10
33.9726
20
16.7722
11
33.9524
21
16.7476
0
LINE
8
BLACK
6
CONTINUOUS
10
33.9524
20
16.7476
11
33.9278
21
16.7274
0
LINE
8
BLACK
6
CONTINUOUS
10
33.9278
20
16.7274
11
33.8997
21
16.7124
0
LINE
8
BLACK
6
CONTINUOUS
10
33.8997
20
16.7124
11
33.8692
21
16.7031
0
LINE
8
BLACK
6
CONTINUOUS
10
33.8692
20
16.7031
11
33.8375
21
16.7
0
LINE
8
BLACK
6
CONTINUOUS
10
33.8375
20
16.7
11
33.5125
21
16.7
0
LINE
8
BLACK
6
CONTINUOUS
10
33.5125
20
16.7
11
33.4808
21
16.7031
0
LINE
8
BLACK
6
CONTINUOUS
10
33.4808
20
16.7031
11
33.4503
21
16.7124
0
LINE
8
BLACK
6
CONTINUOUS
10
33.4503
20
16.7124
11
33.4222
21
16.7274
0
LINE
8
BLACK
6
CONTINUOUS
10
33.4222
20
16.7274
11
33.3976
21
16.7476
0
LINE
8
BLACK
6
CONTINUOUS
10
33.3976
20
16.7476
11
33.3774
21
16.7722
0
LINE
8
BLACK
6
CONTINUOUS
10
33.3774
20
16.7722
11
33.3624
21
16.8003
0
LINE
8
BLACK
6
CONTINUOUS
10
33.3624
20
16.8003
11
33.3531
21
16.8308
0
LINE
8
BLACK
6
CONTINUOUS
10
33.3531
20
16.8308
11
33.35
21
16.8625
0
LINE
8
BLACK
6
CONTINUOUS
10
33.35
20
16.8625
11
33.35
21
18.2375
0
LINE
8
BLACK
6
CONTINUOUS
10
33.35
20
18.2375
11
33.3531
21
18.2692
0
LINE
8
BLACK
6
CONTINUOUS
10
33.3531
20
18.2692
11
33.3624
21
18.2997
0
LINE
8
BLACK
6
CONTINUOUS
10
33.3624
20
18.2997
11
33.3774
21
18.3278
0
LINE
8
BLACK
6
CONTINUOUS
10
33.3774
20
18.3278
11
33.3976
21
18.3524
0
LINE
8
BLACK
6
CONTINUOUS
10
33.3976
20
18.3524
11
33.4222
21
18.3726
0
LINE
8
BLACK
6
CONTINUOUS
10
33.4222
20
18.3726
11
33.4503
21
18.3876
0
LINE
8
BLACK
6
CONTINUOUS
10
33.4503
20
18.3876
11
33.4808
21
18.3969
0
LINE
8
BLACK
6
CONTINUOUS
10
33.4808
20
18.3969
11
33.5125
21
18.4
0
LINE
8
BLACK
6
CONTINUOUS
10
33.5125
20
18.4
11
33.8375
21
18.4
0
LINE
8
BLACK
6
CONTINUOUS
10
33.8375
20
18.4
11
33.8692
21
18.3969
0
LINE
8
BLACK
6
CONTINUOUS
10
35.1392
20
18.3969
11
35.1697
21
18.3876
0
LINE
8
BLACK
6
CONTINUOUS
10
35.1697
20
18.3876
11
35.1978
21
18.3726
0
LINE
8
BLACK
6
CONTINUOUS
10
35.1978
20
18.3726
11
35.2224
21
18.3524
0
LINE
8
BLACK
6
CONTINUOUS
10
35.2224
20
18.3524
11
35.2426
21
18.3278
0
LINE
8
BLACK
6
CONTINUOUS
10
35.2426
20
18.3278
11
35.2576
21
18.2997
0
LINE
8
BLACK
6
CONTINUOUS
10
35.2576
20
18.2997
11
35.2669
21
18.2692
0
LINE
8
BLACK
6
CONTINUOUS
10
35.2669
20
18.2692
11
35.27
21
18.2375
0
LINE
8
BLACK
6
CONTINUOUS
10
35.27
20
18.2375
11
35.27
21
16.8625
0
LINE
8
BLACK
6
CONTINUOUS
10
35.27
20
16.8625
11
35.2669
21
16.8308
0
LINE
8
BLACK
6
CONTINUOUS
10
35.2669
20
16.8308
11
35.2576
21
16.8003
0
LINE
8
BLACK
6
CONTINUOUS
10
35.2576
20
16.8003
11
35.2426
21
16.7722
0
LINE
8
BLACK
6
CONTINUOUS
10
35.2426
20
16.7722
11
35.2224
21
16.7476
0
LINE
8
BLACK
6
CONTINUOUS
10
35.2224
20
16.7476
11
35.1978
21
16.7274
0
LINE
8
BLACK
6
CONTINUOUS
10
35.1978
20
16.7274
11
35.1697
21
16.7124
0
LINE
8
BLACK
6
CONTINUOUS
10
35.1697
20
16.7124
11
35.1392
21
16.7031
0
LINE
8
BLACK
6
CONTINUOUS
10
35.1392
20
16.7031
11
35.1075
21
16.7
0
LINE
8
BLACK
6
CONTINUOUS
10
35.1075
20
16.7
11
34.7825
21
16.7
0
LINE
8
BLACK
6
CONTINUOUS
10
34.7825
20
16.7
11
34.7508
21
16.7031
0
LINE
8
BLACK
6
CONTINUOUS
10
34.7508
20
16.7031
11
34.7203
21
16.7124
0
LINE
8
BLACK
6
CONTINUOUS
10
34.7203
20
16.7124
11
34.6922
21
16.7274
0
LINE
8
BLACK
6
CONTINUOUS
10
34.6922
20
16.7274
11
34.6676
21
16.7476
0
LINE
8
BLACK
6
CONTINUOUS
10
34.6676
20
16.7476
11
34.6474
21
16.7722
0
LINE
8
BLACK
6
CONTINUOUS
10
34.6474
20
16.7722
11
34.6324
21
16.8003
0
LINE
8
BLACK
6
CONTINUOUS
10
34.6324
20
16.8003
11
34.6231
21
16.8308
0
LINE
8
BLACK
6
CONTINUOUS
10
34.6231
20
16.8308
11
34.62
21
16.8625
0
LINE
8
BLACK
6
CONTINUOUS
10
34.62
20
16.8625
11
34.62
21
18.2375
0
LINE
8
BLACK
6
CONTINUOUS
10
34.62
20
18.2375
11
34.6231
21
18.2692
0
LINE
8
BLACK
6
CONTINUOUS
10
34.6231
20
18.2692
11
34.6324
21
18.2997
0
LINE
8
BLACK
6
CONTINUOUS
10
34.6324
20
18.2997
11
34.6474
21
18.3278
0
LINE
8
BLACK
6
CONTINUOUS
10
34.6474
20
18.3278
11
34.6676
21
18.3524
0
LINE
8
BLACK
6
CONTINUOUS
10
34.6676
20
18.3524
11
34.6922
21
18.3726
0
LINE
8
BLACK
6
CONTINUOUS
10
34.6922
20
18.3726
11
34.7203
21
18.3876
0
LINE
8
BLACK
6
CONTINUOUS
10
34.7203
20
18.3876
11
34.7508
21
18.3969
0
LINE
8
BLACK
6
CONTINUOUS
10
34.7508
20
18.3969
11
34.7825
21
18.4
0
LINE
8
BLACK
6
CONTINUOUS
10
34.7825
20
18.4
11
35.1075
21
18.4
0
LINE
8
BLACK
6
CONTINUOUS
10
35.1075
20
18.4
11
35.1392
21
18.3969
0
LINE
8
BLACK
6
CONTINUOUS
10
51.6
20
19.2
11
48.5
21
19.2
0
LINE
8
BLACK
6
CONTINUOUS
10
48.5
20
19.2
11
48.5
21
20.8
0
LINE
8
BLACK
6
CONTINUOUS
10
48.5
20
20.8
11
51.6
21
20.8
0
LINE
8
BLACK
6
CONTINUOUS
10
51.6
20
20.8
11
51.6
21
19.2
0
LINE
8
BLACK
6
CONTINUOUS
10
57.5
20
19.2
11
54.4
21
19.2
0
LINE
8
BLACK
6
CONTINUOUS
10
54.4
20
19.2
11
54.4
21
20.8
0
LINE
8
BLACK
6
CONTINUOUS
10
54.4
20
20.8
11
57.5
21
20.8
0
LINE
8
BLACK
6
CONTINUOUS
10
57.5
20
20.8
11
57.5
21
19.2
0
LINE
8
BLACK
6
CONTINUOUS
10
12.5
20
19.3
11
9.4
21
19.3
0
LINE
8
BLACK
6
CONTINUOUS
10
9.4
20
19.3
11
9.4
21
20.9
0
LINE
8
BLACK
6
CONTINUOUS
10
9.4
20
20.9
11
12.5
21
20.9
0
LINE
8
BLACK
6
CONTINUOUS
10
12.5
20
20.9
11
12.5
21
19.3
0
LINE
8
BLACK
6
CONTINUOUS
10
6.6
20
19.3
11
3.5
21
19.3
0
LINE
8
BLACK
6
CONTINUOUS
10
3.5
20
19.3
11
3.5
21
20.9
0
LINE
8
BLACK
6
CONTINUOUS
10
3.5
20
20.9
11
6.6
21
20.9
0
LINE
8
BLACK
6
CONTINUOUS
10
6.6
20
20.9
11
6.6
21
19.3
0
LINE
8
BLACK
6
CONTINUOUS
10
37.1854
20
22.8058
11
37.3947
21
22.7191
0
LINE
8
BLACK
6
CONTINUOUS
10
37.3947
20
22.7191
11
37.5831
21
22.5933
0
LINE
8
BLACK
6
CONTINUOUS
10
37.5831
20
22.5933
11
37.7433
21
22.4331
0
LINE
8
BLACK
6
CONTINUOUS
10
37.7433
20
22.4331
11
37.8691
21
22.2447
0
LINE
8
BLACK
6
CONTINUOUS
10
37.8691
20
22.2447
11
37.9558
21
22.0354
0
LINE
8
BLACK
6
CONTINUOUS
10
37.9558
20
22.0354
11
38
21
21.8133
0
LINE
8
BLACK
6
CONTINUOUS
10
38
20
21.8133
11
38
21
21.5867
0
LINE
8
BLACK
6
CONTINUOUS
10
38
20
21.5867
11
37.9558
21
21.3646
0
LINE
8
BLACK
6
CONTINUOUS
10
37.9558
20
21.3646
11
37.8691
21
21.1553
0
LINE
8
BLACK
6
CONTINUOUS
10
37.8691
20
21.1553
11
37.7433
21
20.9669
0
LINE
8
BLACK
6
CONTINUOUS
10
37.7433
20
20.9669
11
37.5831
21
20.8067
0
LINE
8
BLACK
6
CONTINUOUS
10
37.5831
20
20.8067
11
37.3947
21
20.6809
0
LINE
8
BLACK
6
CONTINUOUS
10
37.3947
20
20.6809
11
37.1854
21
20.5942
0
LINE
8
BLACK
6
CONTINUOUS
10
37.1854
20
20.5942
11
36.9633
21
20.55
0
LINE
8
BLACK
6
CONTINUOUS
10
36.9633
20
20.55
11
36.7367
21
20.55
0
LINE
8
BLACK
6
CONTINUOUS
10
36.7367
20
20.55
11
36.5146
21
20.5942
0
LINE
8
BLACK
6
CONTINUOUS
10
36.5146
20
20.5942
11
36.3053
21
20.6809
0
LINE
8
BLACK
6
CONTINUOUS
10
36.3053
20
20.6809
11
36.1169
21
20.8067
0
LINE
8
BLACK
6
CONTINUOUS
10
36.1169
20
20.8067
11
35.9567
21
20.9669
0
LINE
8
BLACK
6
CONTINUOUS
10
35.9567
20
20.9669
11
35.8309
21
21.1553
0
LINE
8
BLACK
6
CONTINUOUS
10
35.8309
20
21.1553
11
35.7442
21
21.3646
0
LINE
8
BLACK
6
CONTINUOUS
10
35.7442
20
21.3646
11
35.7
21
21.5867
0
LINE
8
BLACK
6
CONTINUOUS
10
35.7
20
21.5867
11
35.7
21
21.8133
0
LINE
8
BLACK
6
CONTINUOUS
10
35.7
20
21.8133
11
35.7442
21
22.0354
0
LINE
8
BLACK
6
CONTINUOUS
10
35.7442
20
22.0354
11
35.8309
21
22.2447
0
LINE
8
BLACK
6
CONTINUOUS
10
35.8309
20
22.2447
11
35.9567
21
22.4331
0
LINE
8
BLACK
6
CONTINUOUS
10
35.9567
20
22.4331
11
36.1169
21
22.5933
0
LINE
8
BLACK
6
CONTINUOUS
10
36.1169
20
22.5933
11
36.3053
21
22.7191
0
LINE
8
BLACK
6
CONTINUOUS
10
36.3053
20
22.7191
11
36.5146
21
22.8058
0
LINE
8
BLACK
6
CONTINUOUS
10
36.5146
20
22.8058
11
36.7367
21
22.85
0
LINE
8
BLACK
6
CONTINUOUS
10
36.7367
20
22.85
11
36.9633
21
22.85
0
LINE
8
BLACK
6
CONTINUOUS
10
36.9633
20
22.85
11
37.1854
21
22.8058
0
LINE
8
BLACK
6
CONTINUOUS
10
24.4854
20
22.8058
11
24.6947
21
22.7191
0
LINE
8
BLACK
6
CONTINUOUS
10
24.6947
20
22.7191
11
24.8831
21
22.5933
0
LINE
8
BLACK
6
CONTINUOUS
10
24.8831
20
22.5933
11
25.0433
21
22.4331
0
LINE
8
BLACK
6
CONTINUOUS
10
25.0433
20
22.4331
11
25.1691
21
22.2447
0
LINE
8
BLACK
6
CONTINUOUS
10
25.1691
20
22.2447
11
25.2558
21
22.0354
0
LINE
8
BLACK
6
CONTINUOUS
10
25.2558
20
22.0354
11
25.3
21
21.8133
0
LINE
8
BLACK
6
CONTINUOUS
10
25.3
20
21.8133
11
25.3
21
21.5867
0
LINE
8
BLACK
6
CONTINUOUS
10
25.3
20
21.5867
11
25.2558
21
21.3646
0
LINE
8
BLACK
6
CONTINUOUS
10
25.2558
20
21.3646
11
25.1691
21
21.1553
0
LINE
8
BLACK
6
CONTINUOUS
10
25.1691
20
21.1553
11
25.0433
21
20.9669
0
LINE
8
BLACK
6
CONTINUOUS
10
25.0433
20
20.9669
11
24.8831
21
20.8067
0
LINE
8
BLACK
6
CONTINUOUS
10
24.8831
20
20.8067
11
24.6947
21
20.6809
0
LINE
8
BLACK
6
CONTINUOUS
10
24.6947
20
20.6809
11
24.4854
21
20.5942
0
LINE
8
BLACK
6
CONTINUOUS
10
24.4854
20
20.5942
11
24.2633
21
20.55
0
LINE
8
BLACK
6
CONTINUOUS
10
24.2633
20
20.55
11
24.0367
21
20.55
0
LINE
8
BLACK
6
CONTINUOUS
10
24.0367
20
20.55
11
23.8146
21
20.5942
0
LINE
8
BLACK
6
CONTINUOUS
10
23.8146
20
20.5942
11
23.6053
21
20.6809
0
LINE
8
BLACK
6
CONTINUOUS
10
23.6053
20
20.6809
11
23.4169
21
20.8067
0
LINE
8
BLACK
6
CONTINUOUS
10
23.4169
20
20.8067
11
23.2567
21
20.9669
0
LINE
8
BLACK
6
CONTINUOUS
10
23.2567
20
20.9669
11
23.1309
21
21.1553
0
LINE
8
BLACK
6
CONTINUOUS
10
23.1309
20
21.1553
11
23.0442
21
21.3646
0
LINE
8
BLACK
6
CONTINUOUS
10
23.0442
20
21.3646
11
23
21
21.5867
0
LINE
8
BLACK
6
CONTINUOUS
10
23
20
21.5867
11
23
21
21.8133
0
LINE
8
BLACK
6
CONTINUOUS
10
23
20
21.8133
11
23.0442
21
22.0354
0
LINE
8
BLACK
6
CONTINUOUS
10
23.0442
20
22.0354
11
23.1309
21
22.2447
0
LINE
8
BLACK
6
CONTINUOUS
10
23.1309
20
22.2447
11
23.2567
21
22.4331
0
LINE
8
BLACK
6
CONTINUOUS
10
23.2567
20
22.4331
11
23.4169
21
22.5933
0
LINE
8
BLACK
6
CONTINUOUS
10
23.4169
20
22.5933
11
23.6053
21
22.7191
0
LINE
8
BLACK
6
CONTINUOUS
10
23.6053
20
22.7191
11
23.8146
21
22.8058
0
LINE
8
BLACK
6
CONTINUOUS
10
23.8146
20
22.8058
11
24.0367
21
22.85
0
LINE
8
BLACK
6
CONTINUOUS
10
24.0367
20
22.85
11
24.2633
21
22.85
0
LINE
8
BLACK
6
CONTINUOUS
10
24.2633
20
22.85
11
24.4854
21
22.8058
0
LINE
8
BLACK
6
CONTINUOUS
10
27.0254
20
22.8058
11
27.2347
21
22.7191
0
LINE
8
BLACK
6
CONTINUOUS
10
27.2347
20
22.7191
11
27.4231
21
22.5933
0
LINE
8
BLACK
6
CONTINUOUS
10
27.4231
20
22.5933
11
27.5833
21
22.4331
0
LINE
8
BLACK
6
CONTINUOUS
10
27.5833
20
22.4331
11
27.7091
21
22.2447
0
LINE
8
BLACK
6
CONTINUOUS
10
27.7091
20
22.2447
11
27.7958
21
22.0354
0
LINE
8
BLACK
6
CONTINUOUS
10
27.7958
20
22.0354
11
27.84
21
21.8133
0
LINE
8
BLACK
6
CONTINUOUS
10
27.84
20
21.8133
11
27.84
21
21.5867
0
LINE
8
BLACK
6
CONTINUOUS
10
27.84
20
21.5867
11
27.7958
21
21.3646
0
LINE
8
BLACK
6
CONTINUOUS
10
27.7958
20
21.3646
11
27.7091
21
21.1553
0
LINE
8
BLACK
6
CONTINUOUS
10
27.7091
20
21.1553
11
27.5833
21
20.9669
0
LINE
8
BLACK
6
CONTINUOUS
10
27.5833
20
20.9669
11
27.4231
21
20.8067
0
LINE
8
BLACK
6
CONTINUOUS
10
27.4231
20
20.8067
11
27.2347
21
20.6809
0
LINE
8
BLACK
6
CONTINUOUS
10
27.2347
20
20.6809
11
27.0254
21
20.5942
0
LINE
8
BLACK
6
CONTINUOUS
10
27.0254
20
20.5942
11
26.8033
21
20.55
0
LINE
8
BLACK
6
CONTINUOUS
10
26.8033
20
20.55
11
26.5767
21
20.55
0
LINE
8
BLACK
6
CONTINUOUS
10
26.5767
20
20.55
11
26.3546
21
20.5942
0
LINE
8
BLACK
6
CONTINUOUS
10
26.3546
20
20.5942
11
26.1453
21
20.6809
0
LINE
8
BLACK
6
CONTINUOUS
10
26.1453
20
20.6809
11
25.9569
21
20.8067
0
LINE
8
BLACK
6
CONTINUOUS
10
25.9569
20
20.8067
11
25.7967
21
20.9669
0
LINE
8
BLACK
6
CONTINUOUS
10
25.7967
20
20.9669
11
25.6709
21
21.1553
0
LINE
8
BLACK
6
CONTINUOUS
10
25.6709
20
21.1553
11
25.5842
21
21.3646
0
LINE
8
BLACK
6
CONTINUOUS
10
25.5842
20
21.3646
11
25.54
21
21.5867
0
LINE
8
BLACK
6
CONTINUOUS
10
25.54
20
21.5867
11
25.54
21
21.8133
0
LINE
8
BLACK
6
CONTINUOUS
10
25.54
20
21.8133
11
25.5842
21
22.0354
0
LINE
8
BLACK
6
CONTINUOUS
10
25.5842
20
22.0354
11
25.6709
21
22.2447
0
LINE
8
BLACK
6
CONTINUOUS
10
25.6709
20
22.2447
11
25.7967
21
22.4331
0
LINE
8
BLACK
6
CONTINUOUS
10
25.7967
20
22.4331
11
25.9569
21
22.5933
0
LINE
8
BLACK
6
CONTINUOUS
10
25.9569
20
22.5933
11
26.1453
21
22.7191
0
LINE
8
BLACK
6
CONTINUOUS
10
26.1453
20
22.7191
11
26.3546
21
22.8058
0
LINE
8
BLACK
6
CONTINUOUS
10
26.3546
20
22.8058
11
26.5767
21
22.85
0
LINE
8
BLACK
6
CONTINUOUS
10
26.5767
20
22.85
11
26.8033
21
22.85
0
LINE
8
BLACK
6
CONTINUOUS
10
26.8033
20
22.85
11
27.0254
21
22.8058
0
LINE
8
BLACK
6
CONTINUOUS
10
29.5654
20
22.8058
11
29.7747
21
22.7191
0
LINE
8
BLACK
6
CONTINUOUS
10
29.7747
20
22.7191
11
29.9631
21
22.5933
0
LINE
8
BLACK
6
CONTINUOUS
10
29.9631
20
22.5933
11
30.1233
21
22.4331
0
LINE
8
BLACK
6
CONTINUOUS
10
30.1233
20
22.4331
11
30.2491
21
22.2447
0
LINE
8
BLACK
6
CONTINUOUS
10
30.2491
20
22.2447
11
30.3358
21
22.0354
0
LINE
8
BLACK
6
CONTINUOUS
10
30.3358
20
22.0354
11
30.38
21
21.8133
0
LINE
8
BLACK
6
CONTINUOUS
10
30.38
20
21.8133
11
30.38
21
21.5867
0
LINE
8
BLACK
6
CONTINUOUS
10
30.38
20
21.5867
11
30.3358
21
21.3646
0
LINE
8
BLACK
6
CONTINUOUS
10
30.3358
20
21.3646
11
30.2491
21
21.1553
0
LINE
8
BLACK
6
CONTINUOUS
10
30.2491
20
21.1553
11
30.1233
21
20.9669
0
LINE
8
BLACK
6
CONTINUOUS
10
30.1233
20
20.9669
11
29.9631
21
20.8067
0
LINE
8
BLACK
6
CONTINUOUS
10
29.9631
20
20.8067
11
29.7747
21
20.6809
0
LINE
8
BLACK
6
CONTINUOUS
10
29.7747
20
20.6809
11
29.5654
21
20.5942
0
LINE
8
BLACK
6
CONTINUOUS
10
29.5654
20
20.5942
11
29.3433
21
20.55
0
LINE
8
BLACK
6
CONTINUOUS
10
29.3433
20
20.55
11
29.1167
21
20.55
0
LINE
8
BLACK
6
CONTINUOUS
10
29.1167
20
20.55
11
28.8946
21
20.5942
0
LINE
8
BLACK
6
CONTINUOUS
10
28.8946
20
20.5942
11
28.6853
21
20.6809
0
LINE
8
BLACK
6
CONTINUOUS
10
28.6853
20
20.6809
11
28.4969
21
20.8067
0
LINE
8
BLACK
6
CONTINUOUS
10
28.4969
20
20.8067
11
28.3367
21
20.9669
0
LINE
8
BLACK
6
CONTINUOUS
10
28.3367
20
20.9669
11
28.2109
21
21.1553
0
LINE
8
BLACK
6
CONTINUOUS
10
28.2109
20
21.1553
11
28.1242
21
21.3646
0
LINE
8
BLACK
6
CONTINUOUS
10
28.1242
20
21.3646
11
28.08
21
21.5867
0
LINE
8
BLACK
6
CONTINUOUS
10
28.08
20
21.5867
11
28.08
21
21.8133
0
LINE
8
BLACK
6
CONTINUOUS
10
28.08
20
21.8133
11
28.1242
21
22.0354
0
LINE
8
BLACK
6
CONTINUOUS
10
28.1242
20
22.0354
11
28.2109
21
22.2447
0
LINE
8
BLACK
6
CONTINUOUS
10
28.2109
20
22.2447
11
28.3367
21
22.4331
0
LINE
8
BLACK
6
CONTINUOUS
10
28.3367
20
22.4331
11
28.4969
21
22.5933
0
LINE
8
BLACK
6
CONTINUOUS
10
28.4969
20
22.5933
11
28.6853
21
22.7191
0
LINE
8
BLACK
6
CONTINUOUS
10
28.6853
20
22.7191
11
28.8946
21
22.8058
0
LINE
8
BLACK
6
CONTINUOUS
10
28.8946
20
22.8058
11
29.1167
21
22.85
0
LINE
8
BLACK
6
CONTINUOUS
10
29.1167
20
22.85
11
29.3433
21
22.85
0
LINE
8
BLACK
6
CONTINUOUS
10
29.3433
20
22.85
11
29.5654
21
22.8058
0
LINE
8
BLACK
6
CONTINUOUS
10
32.1054
20
22.8058
11
32.3147
21
22.7191
0
LINE
8
BLACK
6
CONTINUOUS
10
32.3147
20
22.7191
11
32.5031
21
22.5933
0
LINE
8
BLACK
6
CONTINUOUS
10
32.5031
20
22.5933
11
32.6633
21
22.4331
0
LINE
8
BLACK
6
CONTINUOUS
10
32.6633
20
22.4331
11
32.7891
21
22.2447
0
LINE
8
BLACK
6
CONTINUOUS
10
32.7891
20
22.2447
11
32.8758
21
22.0354
0
LINE
8
BLACK
6
CONTINUOUS
10
32.8758
20
22.0354
11
32.92
21
21.8133
0
LINE
8
BLACK
6
CONTINUOUS
10
32.92
20
21.8133
11
32.92
21
21.5867
0
LINE
8
BLACK
6
CONTINUOUS
10
32.92
20
21.5867
11
32.8758
21
21.3646
0
LINE
8
BLACK
6
CONTINUOUS
10
32.8758
20
21.3646
11
32.7891
21
21.1553
0
LINE
8
BLACK
6
CONTINUOUS
10
32.7891
20
21.1553
11
32.6633
21
20.9669
0
LINE
8
BLACK
6
CONTINUOUS
10
32.6633
20
20.9669
11
32.5031
21
20.8067
0
LINE
8
BLACK
6
CONTINUOUS
10
32.5031
20
20.8067
11
32.3147
21
20.6809
0
LINE
8
BLACK
6
CONTINUOUS
10
32.3147
20
20.6809
11
32.1054
21
20.5942
0
LINE
8
BLACK
6
CONTINUOUS
10
32.1054
20
20.5942
11
31.8833
21
20.55
0
LINE
8
BLACK
6
CONTINUOUS
10
31.8833
20
20.55
11
31.6567
21
20.55
0
LINE
8
BLACK
6
CONTINUOUS
10
31.6567
20
20.55
11
31.4346
21
20.5942
0
LINE
8
BLACK
6
CONTINUOUS
10
31.4346
20
20.5942
11
31.2253
21
20.6809
0
LINE
8
BLACK
6
CONTINUOUS
10
31.2253
20
20.6809
11
31.0369
21
20.8067
0
LINE
8
BLACK
6
CONTINUOUS
10
31.0369
20
20.8067
11
30.8767
21
20.9669
0
LINE
8
BLACK
6
CONTINUOUS
10
30.8767
20
20.9669
11
30.7509
21
21.1553
0
LINE
8
BLACK
6
CONTINUOUS
10
30.7509
20
21.1553
11
30.6642
21
21.3646
0
LINE
8
BLACK
6
CONTINUOUS
10
30.6642
20
21.3646
11
30.62
21
21.5867
0
LINE
8
BLACK
6
CONTINUOUS
10
30.62
20
21.5867
11
30.62
21
21.8133
0
LINE
8
BLACK
6
CONTINUOUS
10
30.62
20
21.8133
11
30.6642
21
22.0354
0
LINE
8
BLACK
6
CONTINUOUS
10
30.6642
20
22.0354
11
30.7509
21
22.2447
0
LINE
8
BLACK
6
CONTINUOUS
10
30.7509
20
22.2447
11
30.8767
21
22.4331
0
LINE
8
BLACK
6
CONTINUOUS
10
30.8767
20
22.4331
11
31.0369
21
22.5933
0
LINE
8
BLACK
6
CONTINUOUS
10
31.0369
20
22.5933
11
31.2253
21
22.7191
0
LINE
8
BLACK
6
CONTINUOUS
10
31.2253
20
22.7191
11
31.4346
21
22.8058
0
LINE
8
BLACK
6
CONTINUOUS
10
31.4346
20
22.8058
11
31.6567
21
22.85
0
LINE
8
BLACK
6
CONTINUOUS
10
31.6567
20
22.85
11
31.8833
21
22.85
0
LINE
8
BLACK
6
CONTINUOUS
10
31.8833
20
22.85
11
32.1054
21
22.8058
0
LINE
8
BLACK
6
CONTINUOUS
10
34.6454
20
22.8058
11
34.8547
21
22.7191
0
LINE
8
BLACK
6
CONTINUOUS
10
34.8547
20
22.7191
11
35.0431
21
22.5933
0
LINE
8
BLACK
6
CONTINUOUS
10
35.0431
20
22.5933
11
35.2033
21
22.4331
0
LINE
8
BLACK
6
CONTINUOUS
10
35.2033
20
22.4331
11
35.3291
21
22.2447
0
LINE
8
BLACK
6
CONTINUOUS
10
35.3291
20
22.2447
11
35.4158
21
22.0354
0
LINE
8
BLACK
6
CONTINUOUS
10
35.4158
20
22.0354
11
35.46
21
21.8133
0
LINE
8
BLACK
6
CONTINUOUS
10
35.46
20
21.8133
11
35.46
21
21.5867
0
LINE
8
BLACK
6
CONTINUOUS
10
35.46
20
21.5867
11
35.4158
21
21.3646
0
LINE
8
BLACK
6
CONTINUOUS
10
35.4158
20
21.3646
11
35.3291
21
21.1553
0
LINE
8
BLACK
6
CONTINUOUS
10
35.3291
20
21.1553
11
35.2033
21
20.9669
0
LINE
8
BLACK
6
CONTINUOUS
10
35.2033
20
20.9669
11
35.0431
21
20.8067
0
LINE
8
BLACK
6
CONTINUOUS
10
35.0431
20
20.8067
11
34.8547
21
20.6809
0
LINE
8
BLACK
6
CONTINUOUS
10
34.8547
20
20.6809
11
34.6454
21
20.5942
0
LINE
8
BLACK
6
CONTINUOUS
10
34.6454
20
20.5942
11
34.4233
21
20.55
0
LINE
8
BLACK
6
CONTINUOUS
10
34.4233
20
20.55
11
34.1967
21
20.55
0
LINE
8
BLACK
6
CONTINUOUS
10
34.1967
20
20.55
11
33.9746
21
20.5942
0
LINE
8
BLACK
6
CONTINUOUS
10
33.9746
20
20.5942
11
33.7653
21
20.6809
0
LINE
8
BLACK
6
CONTINUOUS
10
33.7653
20
20.6809
11
33.5769
21
20.8067
0
LINE
8
BLACK
6
CONTINUOUS
10
33.5769
20
20.8067
11
33.4167
21
20.9669
0
LINE
8
BLACK
6
CONTINUOUS
10
33.4167
20
20.9669
11
33.2909
21
21.1553
0
LINE
8
BLACK
6
CONTINUOUS
10
33.2909
20
21.1553
11
33.2042
21
21.3646
0
LINE
8
BLACK
6
CONTINUOUS
10
33.2042
20
21.3646
11
33.16
21
21.5867
0
LINE
8
BLACK
6
CONTINUOUS
10
33.16
20
21.5867
11
33.16
21
21.8133
0
LINE
8
BLACK
6
CONTINUOUS
10
33.16
20
21.8133
11
33.2042
21
22.0354
0
LINE
8
BLACK
6
CONTINUOUS
10
33.2042
20
22.0354
11
33.2909
21
22.2447
0
LINE
8
BLACK
6
CONTINUOUS
10
33.2909
20
22.2447
11
33.4167
21
22.4331
0
LINE
8
BLACK
6
CONTINUOUS
10
33.4167
20
22.4331
11
33.5769
21
22.5933
0
LINE
8
BLACK
6
CONTINUOUS
10
33.5769
20
22.5933
11
33.7653
21
22.7191
0
LINE
8
BLACK
6
CONTINUOUS
10
33.7653
20
22.7191
11
33.9746
21
22.8058
0
LINE
8
BLACK
6
CONTINUOUS
10
33.9746
20
22.8058
11
34.1967
21
22.85
0
LINE
8
BLACK
6
CONTINUOUS
10
34.1967
20
22.85
11
34.4233
21
22.85
0
LINE
8
BLACK
6
CONTINUOUS
10
34.4233
20
22.85
11
34.6454
21
22.8058
  0
ENDSEC
  0
EOF
