M48
; DRILL file {KiCad (5.1.6)-1} date 01/27/25 19:05:14
; FORMAT={-:-/ absolute / metric / decimal}
; #@! TF.CreationDate,2025-01-27T19:05:14-05:00
; #@! TF.GenerationSoftware,Kicad,Pcbnew,(5.1.6)-1
FMAT,2
METRIC
T1C0.800
%
G90
G05
T1
X106.6Y20.3
X107.5Y6.2
X107.6Y9.7
X109.1Y18.4
X109.9Y6.2
X111.4Y18.4
X111.4Y11.6
X113.7Y18.4
X113.7Y11.6
X116.2Y6.3
X130.2Y12.3
X130.2Y8.2
X132.2Y15.0
X132.5Y8.2
X134.8Y14.5
X134.8Y8.2
X136.8Y20.2
X137.1Y8.2
X137.2Y14.5
X138.8Y6.1
X51.19Y8.54
X51.19Y3.46
X58.81Y8.54
X58.81Y3.46
X6.19Y8.54
X6.19Y3.46
X13.81Y8.54
X13.81Y3.46
X116.25Y3.3
X118.79Y3.3
X121.33Y3.3
X123.87Y3.3
X126.41Y3.3
X128.95Y3.3
X116.15Y21.7
X118.69Y21.7
X121.23Y21.7
X123.77Y21.7
X126.31Y21.7
X128.85Y21.7
X96.19Y8.54
X96.19Y3.46
X103.81Y8.54
X103.81Y3.46
X186.19Y8.5
X186.19Y3.42
X193.81Y8.5
X193.81Y3.42
X141.19Y8.54
X141.19Y3.46
X148.81Y8.54
X148.81Y3.46
T0
M30
