%TF.GenerationSoftware,KiCad,Pcbnew,(5.1.6)-1*%
%TF.CreationDate,2025-01-27T19:19:46-05:00*%
%TF.ProjectId,row_board,726f775f-626f-4617-9264-2e6b69636164,rev?*%
%TF.SameCoordinates,PX2faf080PY5f5e100*%
%TF.FileFunction,Soldermask,Top*%
%TF.FilePolarity,Negative*%
%FSLAX46Y46*%
G04 Gerber Fmt 4.6, Leading zero omitted, Abs format (unit mm)*
G04 Created by KiCad (PCBNEW (5.1.6)-1) date 2025-01-27 19:19:46*
%MOMM*%
%LPD*%
G01*
G04 APERTURE LIST*
%ADD10R,3.100000X1.600000*%
%ADD11C,2.300000*%
%ADD12O,3.570000X2.300000*%
%ADD13C,2.100000*%
G04 APERTURE END LIST*
%TO.C,C6*%
G36*
G01*
X115442544Y14075000D02*
X116757456Y14075000D01*
G75*
G02*
X117025000Y13807456I0J-267544D01*
G01*
X117025000Y12817544D01*
G75*
G02*
X116757456Y12550000I-267544J0D01*
G01*
X115442544Y12550000D01*
G75*
G02*
X115175000Y12817544I0J267544D01*
G01*
X115175000Y13807456D01*
G75*
G02*
X115442544Y14075000I267544J0D01*
G01*
G37*
G36*
G01*
X115442544Y17050000D02*
X116757456Y17050000D01*
G75*
G02*
X117025000Y16782456I0J-267544D01*
G01*
X117025000Y15792544D01*
G75*
G02*
X116757456Y15525000I-267544J0D01*
G01*
X115442544Y15525000D01*
G75*
G02*
X115175000Y15792544I0J267544D01*
G01*
X115175000Y16782456D01*
G75*
G02*
X115442544Y17050000I267544J0D01*
G01*
G37*
%TD*%
D10*
%TO.C,D1*%
X7050000Y20100000D03*
X7050000Y16900000D03*
X12950000Y20100000D03*
X12950000Y16900000D03*
%TD*%
%TO.C,D2*%
X57950000Y16800000D03*
X57950000Y20000000D03*
X52050000Y16800000D03*
X52050000Y20000000D03*
%TD*%
%TO.C,D3*%
X97050000Y20100000D03*
X97050000Y16900000D03*
X102950000Y20100000D03*
X102950000Y16900000D03*
%TD*%
%TO.C,D4*%
X147950000Y16800000D03*
X147950000Y20000000D03*
X142050000Y16800000D03*
X142050000Y20000000D03*
%TD*%
%TO.C,D5*%
X187050000Y20100000D03*
X187050000Y16900000D03*
X192950000Y20100000D03*
X192950000Y16900000D03*
%TD*%
D11*
%TO.C,J1*%
X116150000Y21700000D03*
X118690000Y21700000D03*
X121230000Y21700000D03*
X123770000Y21700000D03*
X126310000Y21700000D03*
X128850000Y21700000D03*
%TD*%
%TO.C,J2*%
X128950000Y3300000D03*
X126410000Y3300000D03*
X123870000Y3300000D03*
X121330000Y3300000D03*
X118790000Y3300000D03*
X116250000Y3300000D03*
%TD*%
%TO.C,C1*%
G36*
G01*
X12250000Y14957456D02*
X12250000Y13642544D01*
G75*
G02*
X11982456Y13375000I-267544J0D01*
G01*
X10992544Y13375000D01*
G75*
G02*
X10725000Y13642544I0J267544D01*
G01*
X10725000Y14957456D01*
G75*
G02*
X10992544Y15225000I267544J0D01*
G01*
X11982456Y15225000D01*
G75*
G02*
X12250000Y14957456I0J-267544D01*
G01*
G37*
G36*
G01*
X9275000Y14957456D02*
X9275000Y13642544D01*
G75*
G02*
X9007456Y13375000I-267544J0D01*
G01*
X8017544Y13375000D01*
G75*
G02*
X7750000Y13642544I0J267544D01*
G01*
X7750000Y14957456D01*
G75*
G02*
X8017544Y15225000I267544J0D01*
G01*
X9007456Y15225000D01*
G75*
G02*
X9275000Y14957456I0J-267544D01*
G01*
G37*
%TD*%
%TO.C,C2*%
G36*
G01*
X54275000Y14857456D02*
X54275000Y13542544D01*
G75*
G02*
X54007456Y13275000I-267544J0D01*
G01*
X53017544Y13275000D01*
G75*
G02*
X52750000Y13542544I0J267544D01*
G01*
X52750000Y14857456D01*
G75*
G02*
X53017544Y15125000I267544J0D01*
G01*
X54007456Y15125000D01*
G75*
G02*
X54275000Y14857456I0J-267544D01*
G01*
G37*
G36*
G01*
X57250000Y14857456D02*
X57250000Y13542544D01*
G75*
G02*
X56982456Y13275000I-267544J0D01*
G01*
X55992544Y13275000D01*
G75*
G02*
X55725000Y13542544I0J267544D01*
G01*
X55725000Y14857456D01*
G75*
G02*
X55992544Y15125000I267544J0D01*
G01*
X56982456Y15125000D01*
G75*
G02*
X57250000Y14857456I0J-267544D01*
G01*
G37*
%TD*%
%TO.C,C3*%
G36*
G01*
X99275000Y14657456D02*
X99275000Y13342544D01*
G75*
G02*
X99007456Y13075000I-267544J0D01*
G01*
X98017544Y13075000D01*
G75*
G02*
X97750000Y13342544I0J267544D01*
G01*
X97750000Y14657456D01*
G75*
G02*
X98017544Y14925000I267544J0D01*
G01*
X99007456Y14925000D01*
G75*
G02*
X99275000Y14657456I0J-267544D01*
G01*
G37*
G36*
G01*
X102250000Y14657456D02*
X102250000Y13342544D01*
G75*
G02*
X101982456Y13075000I-267544J0D01*
G01*
X100992544Y13075000D01*
G75*
G02*
X100725000Y13342544I0J267544D01*
G01*
X100725000Y14657456D01*
G75*
G02*
X100992544Y14925000I267544J0D01*
G01*
X101982456Y14925000D01*
G75*
G02*
X102250000Y14657456I0J-267544D01*
G01*
G37*
%TD*%
%TO.C,C4*%
G36*
G01*
X144275000Y14857456D02*
X144275000Y13542544D01*
G75*
G02*
X144007456Y13275000I-267544J0D01*
G01*
X143017544Y13275000D01*
G75*
G02*
X142750000Y13542544I0J267544D01*
G01*
X142750000Y14857456D01*
G75*
G02*
X143017544Y15125000I267544J0D01*
G01*
X144007456Y15125000D01*
G75*
G02*
X144275000Y14857456I0J-267544D01*
G01*
G37*
G36*
G01*
X147250000Y14857456D02*
X147250000Y13542544D01*
G75*
G02*
X146982456Y13275000I-267544J0D01*
G01*
X145992544Y13275000D01*
G75*
G02*
X145725000Y13542544I0J267544D01*
G01*
X145725000Y14857456D01*
G75*
G02*
X145992544Y15125000I267544J0D01*
G01*
X146982456Y15125000D01*
G75*
G02*
X147250000Y14857456I0J-267544D01*
G01*
G37*
%TD*%
%TO.C,C5*%
G36*
G01*
X192250000Y14957456D02*
X192250000Y13642544D01*
G75*
G02*
X191982456Y13375000I-267544J0D01*
G01*
X190992544Y13375000D01*
G75*
G02*
X190725000Y13642544I0J267544D01*
G01*
X190725000Y14957456D01*
G75*
G02*
X190992544Y15225000I267544J0D01*
G01*
X191982456Y15225000D01*
G75*
G02*
X192250000Y14957456I0J-267544D01*
G01*
G37*
G36*
G01*
X189275000Y14957456D02*
X189275000Y13642544D01*
G75*
G02*
X189007456Y13375000I-267544J0D01*
G01*
X188017544Y13375000D01*
G75*
G02*
X187750000Y13642544I0J267544D01*
G01*
X187750000Y14957456D01*
G75*
G02*
X188017544Y15225000I267544J0D01*
G01*
X189007456Y15225000D01*
G75*
G02*
X189275000Y14957456I0J-267544D01*
G01*
G37*
%TD*%
D12*
%TO.C,SW1*%
X14460000Y3460000D03*
X14460000Y8540000D03*
X5540000Y3460000D03*
X5540000Y8540000D03*
%TD*%
%TO.C,SW2*%
X50540000Y8540000D03*
X50540000Y3460000D03*
X59460000Y8540000D03*
X59460000Y3460000D03*
%TD*%
%TO.C,SW3*%
X104460000Y3460000D03*
X104460000Y8540000D03*
X95540000Y3460000D03*
X95540000Y8540000D03*
%TD*%
%TO.C,SW4*%
X140540000Y8540000D03*
X140540000Y3460000D03*
X149460000Y8540000D03*
X149460000Y3460000D03*
%TD*%
%TO.C,U1*%
G36*
G01*
X118217500Y10200000D02*
X117892500Y10200000D01*
G75*
G02*
X117730000Y10362500I0J162500D01*
G01*
X117730000Y11737500D01*
G75*
G02*
X117892500Y11900000I162500J0D01*
G01*
X118217500Y11900000D01*
G75*
G02*
X118380000Y11737500I0J-162500D01*
G01*
X118380000Y10362500D01*
G75*
G02*
X118217500Y10200000I-162500J0D01*
G01*
G37*
G36*
G01*
X119487500Y10200000D02*
X119162500Y10200000D01*
G75*
G02*
X119000000Y10362500I0J162500D01*
G01*
X119000000Y11737500D01*
G75*
G02*
X119162500Y11900000I162500J0D01*
G01*
X119487500Y11900000D01*
G75*
G02*
X119650000Y11737500I0J-162500D01*
G01*
X119650000Y10362500D01*
G75*
G02*
X119487500Y10200000I-162500J0D01*
G01*
G37*
G36*
G01*
X120757500Y10200000D02*
X120432500Y10200000D01*
G75*
G02*
X120270000Y10362500I0J162500D01*
G01*
X120270000Y11737500D01*
G75*
G02*
X120432500Y11900000I162500J0D01*
G01*
X120757500Y11900000D01*
G75*
G02*
X120920000Y11737500I0J-162500D01*
G01*
X120920000Y10362500D01*
G75*
G02*
X120757500Y10200000I-162500J0D01*
G01*
G37*
G36*
G01*
X122027500Y10200000D02*
X121702500Y10200000D01*
G75*
G02*
X121540000Y10362500I0J162500D01*
G01*
X121540000Y11737500D01*
G75*
G02*
X121702500Y11900000I162500J0D01*
G01*
X122027500Y11900000D01*
G75*
G02*
X122190000Y11737500I0J-162500D01*
G01*
X122190000Y10362500D01*
G75*
G02*
X122027500Y10200000I-162500J0D01*
G01*
G37*
G36*
G01*
X123297500Y10200000D02*
X122972500Y10200000D01*
G75*
G02*
X122810000Y10362500I0J162500D01*
G01*
X122810000Y11737500D01*
G75*
G02*
X122972500Y11900000I162500J0D01*
G01*
X123297500Y11900000D01*
G75*
G02*
X123460000Y11737500I0J-162500D01*
G01*
X123460000Y10362500D01*
G75*
G02*
X123297500Y10200000I-162500J0D01*
G01*
G37*
G36*
G01*
X124567500Y10200000D02*
X124242500Y10200000D01*
G75*
G02*
X124080000Y10362500I0J162500D01*
G01*
X124080000Y11737500D01*
G75*
G02*
X124242500Y11900000I162500J0D01*
G01*
X124567500Y11900000D01*
G75*
G02*
X124730000Y11737500I0J-162500D01*
G01*
X124730000Y10362500D01*
G75*
G02*
X124567500Y10200000I-162500J0D01*
G01*
G37*
G36*
G01*
X125837500Y10200000D02*
X125512500Y10200000D01*
G75*
G02*
X125350000Y10362500I0J162500D01*
G01*
X125350000Y11737500D01*
G75*
G02*
X125512500Y11900000I162500J0D01*
G01*
X125837500Y11900000D01*
G75*
G02*
X126000000Y11737500I0J-162500D01*
G01*
X126000000Y10362500D01*
G75*
G02*
X125837500Y10200000I-162500J0D01*
G01*
G37*
G36*
G01*
X127107500Y10200000D02*
X126782500Y10200000D01*
G75*
G02*
X126620000Y10362500I0J162500D01*
G01*
X126620000Y11737500D01*
G75*
G02*
X126782500Y11900000I162500J0D01*
G01*
X127107500Y11900000D01*
G75*
G02*
X127270000Y11737500I0J-162500D01*
G01*
X127270000Y10362500D01*
G75*
G02*
X127107500Y10200000I-162500J0D01*
G01*
G37*
G36*
G01*
X127107500Y16700000D02*
X126782500Y16700000D01*
G75*
G02*
X126620000Y16862500I0J162500D01*
G01*
X126620000Y18237500D01*
G75*
G02*
X126782500Y18400000I162500J0D01*
G01*
X127107500Y18400000D01*
G75*
G02*
X127270000Y18237500I0J-162500D01*
G01*
X127270000Y16862500D01*
G75*
G02*
X127107500Y16700000I-162500J0D01*
G01*
G37*
G36*
G01*
X125837500Y16700000D02*
X125512500Y16700000D01*
G75*
G02*
X125350000Y16862500I0J162500D01*
G01*
X125350000Y18237500D01*
G75*
G02*
X125512500Y18400000I162500J0D01*
G01*
X125837500Y18400000D01*
G75*
G02*
X126000000Y18237500I0J-162500D01*
G01*
X126000000Y16862500D01*
G75*
G02*
X125837500Y16700000I-162500J0D01*
G01*
G37*
G36*
G01*
X124567500Y16700000D02*
X124242500Y16700000D01*
G75*
G02*
X124080000Y16862500I0J162500D01*
G01*
X124080000Y18237500D01*
G75*
G02*
X124242500Y18400000I162500J0D01*
G01*
X124567500Y18400000D01*
G75*
G02*
X124730000Y18237500I0J-162500D01*
G01*
X124730000Y16862500D01*
G75*
G02*
X124567500Y16700000I-162500J0D01*
G01*
G37*
G36*
G01*
X123297500Y16700000D02*
X122972500Y16700000D01*
G75*
G02*
X122810000Y16862500I0J162500D01*
G01*
X122810000Y18237500D01*
G75*
G02*
X122972500Y18400000I162500J0D01*
G01*
X123297500Y18400000D01*
G75*
G02*
X123460000Y18237500I0J-162500D01*
G01*
X123460000Y16862500D01*
G75*
G02*
X123297500Y16700000I-162500J0D01*
G01*
G37*
G36*
G01*
X122027500Y16700000D02*
X121702500Y16700000D01*
G75*
G02*
X121540000Y16862500I0J162500D01*
G01*
X121540000Y18237500D01*
G75*
G02*
X121702500Y18400000I162500J0D01*
G01*
X122027500Y18400000D01*
G75*
G02*
X122190000Y18237500I0J-162500D01*
G01*
X122190000Y16862500D01*
G75*
G02*
X122027500Y16700000I-162500J0D01*
G01*
G37*
G36*
G01*
X120757500Y16700000D02*
X120432500Y16700000D01*
G75*
G02*
X120270000Y16862500I0J162500D01*
G01*
X120270000Y18237500D01*
G75*
G02*
X120432500Y18400000I162500J0D01*
G01*
X120757500Y18400000D01*
G75*
G02*
X120920000Y18237500I0J-162500D01*
G01*
X120920000Y16862500D01*
G75*
G02*
X120757500Y16700000I-162500J0D01*
G01*
G37*
G36*
G01*
X119487500Y16700000D02*
X119162500Y16700000D01*
G75*
G02*
X119000000Y16862500I0J162500D01*
G01*
X119000000Y18237500D01*
G75*
G02*
X119162500Y18400000I162500J0D01*
G01*
X119487500Y18400000D01*
G75*
G02*
X119650000Y18237500I0J-162500D01*
G01*
X119650000Y16862500D01*
G75*
G02*
X119487500Y16700000I-162500J0D01*
G01*
G37*
G36*
G01*
X118217500Y16700000D02*
X117892500Y16700000D01*
G75*
G02*
X117730000Y16862500I0J162500D01*
G01*
X117730000Y18237500D01*
G75*
G02*
X117892500Y18400000I162500J0D01*
G01*
X118217500Y18400000D01*
G75*
G02*
X118380000Y18237500I0J-162500D01*
G01*
X118380000Y16862500D01*
G75*
G02*
X118217500Y16700000I-162500J0D01*
G01*
G37*
%TD*%
%TO.C,SW5*%
X185540000Y8500000D03*
X185540000Y3420000D03*
X194460000Y8500000D03*
X194460000Y3420000D03*
%TD*%
D13*
X137200000Y14500000D03*
X137100000Y8200000D03*
X113700000Y11600000D03*
X113700000Y18400000D03*
X130200000Y12300000D03*
X136800000Y20200000D03*
X106600000Y20300000D03*
X107600000Y9700000D03*
X107500000Y6200000D03*
X111400000Y18400000D03*
X111400000Y11600000D03*
X130200000Y8200000D03*
X134800000Y8200000D03*
X134800000Y14500000D03*
X109900000Y6200000D03*
X138800000Y6100000D03*
X116200000Y6300000D03*
X109100000Y18400000D03*
X132500000Y8200000D03*
X132200000Y15000000D03*
M02*
