%TF.GenerationSoftware,KiCad,Pcbnew,(5.1.6)-1*%
%TF.CreationDate,2025-03-19T06:33:13-05:00*%
%TF.ProjectId,mother_board_pcbway,6d6f7468-6572-45f6-926f-6172645f7063,rev?*%
%TF.SameCoordinates,PX3d09000PY907b4e0*%
%TF.FileFunction,Soldermask,Bot*%
%TF.FilePolarity,Negative*%
%FSLAX46Y46*%
G04 Gerber Fmt 4.6, Leading zero omitted, Abs format (unit mm)*
G04 Created by KiCad (PCBNEW (5.1.6)-1) date 2025-03-19 06:33:13*
%MOMM*%
%LPD*%
G01*
G04 APERTURE LIST*
%ADD10C,2.300000*%
%ADD11O,1.600000X2.300000*%
%ADD12O,2.300000X3.570000*%
%ADD13O,2.300000X3.100000*%
%ADD14C,3.300000*%
%ADD15C,2.000000*%
G04 APERTURE END LIST*
D10*
%TO.C,J7*%
X43040000Y83500000D03*
X43040000Y86040000D03*
D11*
X45580000Y83500000D03*
D10*
X45580000Y86040000D03*
D11*
X48120000Y83500000D03*
D10*
X48120000Y86040000D03*
D11*
X50660000Y83500000D03*
D10*
X50660000Y86040000D03*
D11*
X53200000Y83500000D03*
D10*
X53200000Y86040000D03*
X55740000Y83500000D03*
X55740000Y86040000D03*
X58280000Y83500000D03*
X58280000Y86040000D03*
D11*
X60820000Y83500000D03*
D10*
X60820000Y86040000D03*
D11*
X63360000Y83500000D03*
D10*
X63360000Y86040000D03*
D11*
X65900000Y83500000D03*
D10*
X65900000Y86040000D03*
D11*
X68440000Y83500000D03*
D10*
X68440000Y86040000D03*
X70980000Y83500000D03*
X70980000Y86040000D03*
X73520000Y83500000D03*
X73520000Y86040000D03*
X76060000Y83500000D03*
X76060000Y86040000D03*
X78600000Y83500000D03*
X78600000Y86040000D03*
D11*
X81140000Y83500000D03*
D10*
X81140000Y86040000D03*
D11*
X83680000Y83500000D03*
D10*
X83680000Y86040000D03*
X86220000Y83500000D03*
X86220000Y86040000D03*
X88760000Y83500000D03*
X88760000Y86040000D03*
X91300000Y83500000D03*
X91300000Y86040000D03*
%TD*%
D12*
%TO.C,U1*%
X15410000Y36625000D03*
X17950000Y36625000D03*
X20490000Y36625000D03*
X23030000Y36625000D03*
X25570000Y36625000D03*
X37000000Y40125000D03*
X34460000Y40125000D03*
X31920000Y40125000D03*
X29380000Y40125000D03*
D13*
X26840000Y40125000D03*
X24300000Y40125000D03*
X21760000Y40125000D03*
X19220000Y40125000D03*
X16680000Y40125000D03*
X14140000Y40125000D03*
D12*
X11600000Y40125000D03*
X9060000Y40125000D03*
X6520000Y40125000D03*
X3980000Y40125000D03*
X3980000Y56635000D03*
X6520000Y56635000D03*
X9060000Y56635000D03*
X11600000Y56635000D03*
X14140000Y56635000D03*
X16680000Y56635000D03*
X19220000Y56635000D03*
X21760000Y56635000D03*
X24300000Y56635000D03*
X26840000Y56635000D03*
X29380000Y56635000D03*
X31920000Y56635000D03*
X34460000Y56635000D03*
X37000000Y56635000D03*
%TD*%
%TO.C,J10*%
G36*
G01*
X53700000Y22050000D02*
X53700000Y24950000D01*
G75*
G02*
X54600000Y25850000I900000J0D01*
G01*
X56400000Y25850000D01*
G75*
G02*
X57300000Y24950000I0J-900000D01*
G01*
X57300000Y22050000D01*
G75*
G02*
X56400000Y21150000I-900000J0D01*
G01*
X54600000Y21150000D01*
G75*
G02*
X53700000Y22050000I0J900000D01*
G01*
G37*
G36*
G01*
X48700000Y22050000D02*
X48700000Y24950000D01*
G75*
G02*
X49600000Y25850000I900000J0D01*
G01*
X51400000Y25850000D01*
G75*
G02*
X52300000Y24950000I0J-900000D01*
G01*
X52300000Y22050000D01*
G75*
G02*
X51400000Y21150000I-900000J0D01*
G01*
X49600000Y21150000D01*
G75*
G02*
X48700000Y22050000I0J900000D01*
G01*
G37*
G36*
G01*
X58700000Y14050000D02*
X58700000Y16950000D01*
G75*
G02*
X59600000Y17850000I900000J0D01*
G01*
X61400000Y17850000D01*
G75*
G02*
X62300000Y16950000I0J-900000D01*
G01*
X62300000Y14050000D01*
G75*
G02*
X61400000Y13150000I-900000J0D01*
G01*
X59600000Y13150000D01*
G75*
G02*
X58700000Y14050000I0J900000D01*
G01*
G37*
G36*
G01*
X53700000Y14050000D02*
X53700000Y16950000D01*
G75*
G02*
X54600000Y17850000I900000J0D01*
G01*
X56400000Y17850000D01*
G75*
G02*
X57300000Y16950000I0J-900000D01*
G01*
X57300000Y14050000D01*
G75*
G02*
X56400000Y13150000I-900000J0D01*
G01*
X54600000Y13150000D01*
G75*
G02*
X53700000Y14050000I0J900000D01*
G01*
G37*
G36*
G01*
X48700000Y14050000D02*
X48700000Y16950000D01*
G75*
G02*
X49600000Y17850000I900000J0D01*
G01*
X51400000Y17850000D01*
G75*
G02*
X52300000Y16950000I0J-900000D01*
G01*
X52300000Y14050000D01*
G75*
G02*
X51400000Y13150000I-900000J0D01*
G01*
X49600000Y13150000D01*
G75*
G02*
X48700000Y14050000I0J900000D01*
G01*
G37*
G36*
G01*
X43700000Y14050000D02*
X43700000Y16950000D01*
G75*
G02*
X44600000Y17850000I900000J0D01*
G01*
X46400000Y17850000D01*
G75*
G02*
X47300000Y16950000I0J-900000D01*
G01*
X47300000Y14050000D01*
G75*
G02*
X46400000Y13150000I-900000J0D01*
G01*
X44600000Y13150000D01*
G75*
G02*
X43700000Y14050000I0J900000D01*
G01*
G37*
G36*
G01*
X51200000Y6550000D02*
X51200000Y9450000D01*
G75*
G02*
X52100000Y10350000I900000J0D01*
G01*
X53900000Y10350000D01*
G75*
G02*
X54800000Y9450000I0J-900000D01*
G01*
X54800000Y6550000D01*
G75*
G02*
X53900000Y5650000I-900000J0D01*
G01*
X52100000Y5650000D01*
G75*
G02*
X51200000Y6550000I0J900000D01*
G01*
G37*
%TD*%
%TO.C,J11*%
G36*
G01*
X76700000Y22050000D02*
X76700000Y24950000D01*
G75*
G02*
X77600000Y25850000I900000J0D01*
G01*
X79400000Y25850000D01*
G75*
G02*
X80300000Y24950000I0J-900000D01*
G01*
X80300000Y22050000D01*
G75*
G02*
X79400000Y21150000I-900000J0D01*
G01*
X77600000Y21150000D01*
G75*
G02*
X76700000Y22050000I0J900000D01*
G01*
G37*
G36*
G01*
X71700000Y22050000D02*
X71700000Y24950000D01*
G75*
G02*
X72600000Y25850000I900000J0D01*
G01*
X74400000Y25850000D01*
G75*
G02*
X75300000Y24950000I0J-900000D01*
G01*
X75300000Y22050000D01*
G75*
G02*
X74400000Y21150000I-900000J0D01*
G01*
X72600000Y21150000D01*
G75*
G02*
X71700000Y22050000I0J900000D01*
G01*
G37*
G36*
G01*
X81700000Y14050000D02*
X81700000Y16950000D01*
G75*
G02*
X82600000Y17850000I900000J0D01*
G01*
X84400000Y17850000D01*
G75*
G02*
X85300000Y16950000I0J-900000D01*
G01*
X85300000Y14050000D01*
G75*
G02*
X84400000Y13150000I-900000J0D01*
G01*
X82600000Y13150000D01*
G75*
G02*
X81700000Y14050000I0J900000D01*
G01*
G37*
G36*
G01*
X76700000Y14050000D02*
X76700000Y16950000D01*
G75*
G02*
X77600000Y17850000I900000J0D01*
G01*
X79400000Y17850000D01*
G75*
G02*
X80300000Y16950000I0J-900000D01*
G01*
X80300000Y14050000D01*
G75*
G02*
X79400000Y13150000I-900000J0D01*
G01*
X77600000Y13150000D01*
G75*
G02*
X76700000Y14050000I0J900000D01*
G01*
G37*
G36*
G01*
X71700000Y14050000D02*
X71700000Y16950000D01*
G75*
G02*
X72600000Y17850000I900000J0D01*
G01*
X74400000Y17850000D01*
G75*
G02*
X75300000Y16950000I0J-900000D01*
G01*
X75300000Y14050000D01*
G75*
G02*
X74400000Y13150000I-900000J0D01*
G01*
X72600000Y13150000D01*
G75*
G02*
X71700000Y14050000I0J900000D01*
G01*
G37*
G36*
G01*
X66700000Y14050000D02*
X66700000Y16950000D01*
G75*
G02*
X67600000Y17850000I900000J0D01*
G01*
X69400000Y17850000D01*
G75*
G02*
X70300000Y16950000I0J-900000D01*
G01*
X70300000Y14050000D01*
G75*
G02*
X69400000Y13150000I-900000J0D01*
G01*
X67600000Y13150000D01*
G75*
G02*
X66700000Y14050000I0J900000D01*
G01*
G37*
G36*
G01*
X74200000Y6550000D02*
X74200000Y9450000D01*
G75*
G02*
X75100000Y10350000I900000J0D01*
G01*
X76900000Y10350000D01*
G75*
G02*
X77800000Y9450000I0J-900000D01*
G01*
X77800000Y6550000D01*
G75*
G02*
X76900000Y5650000I-900000J0D01*
G01*
X75100000Y5650000D01*
G75*
G02*
X74200000Y6550000I0J900000D01*
G01*
G37*
%TD*%
%TO.C,J12*%
G36*
G01*
X99700000Y22050000D02*
X99700000Y24950000D01*
G75*
G02*
X100600000Y25850000I900000J0D01*
G01*
X102400000Y25850000D01*
G75*
G02*
X103300000Y24950000I0J-900000D01*
G01*
X103300000Y22050000D01*
G75*
G02*
X102400000Y21150000I-900000J0D01*
G01*
X100600000Y21150000D01*
G75*
G02*
X99700000Y22050000I0J900000D01*
G01*
G37*
G36*
G01*
X94700000Y22050000D02*
X94700000Y24950000D01*
G75*
G02*
X95600000Y25850000I900000J0D01*
G01*
X97400000Y25850000D01*
G75*
G02*
X98300000Y24950000I0J-900000D01*
G01*
X98300000Y22050000D01*
G75*
G02*
X97400000Y21150000I-900000J0D01*
G01*
X95600000Y21150000D01*
G75*
G02*
X94700000Y22050000I0J900000D01*
G01*
G37*
G36*
G01*
X104700000Y14050000D02*
X104700000Y16950000D01*
G75*
G02*
X105600000Y17850000I900000J0D01*
G01*
X107400000Y17850000D01*
G75*
G02*
X108300000Y16950000I0J-900000D01*
G01*
X108300000Y14050000D01*
G75*
G02*
X107400000Y13150000I-900000J0D01*
G01*
X105600000Y13150000D01*
G75*
G02*
X104700000Y14050000I0J900000D01*
G01*
G37*
G36*
G01*
X99700000Y14050000D02*
X99700000Y16950000D01*
G75*
G02*
X100600000Y17850000I900000J0D01*
G01*
X102400000Y17850000D01*
G75*
G02*
X103300000Y16950000I0J-900000D01*
G01*
X103300000Y14050000D01*
G75*
G02*
X102400000Y13150000I-900000J0D01*
G01*
X100600000Y13150000D01*
G75*
G02*
X99700000Y14050000I0J900000D01*
G01*
G37*
G36*
G01*
X94700000Y14050000D02*
X94700000Y16950000D01*
G75*
G02*
X95600000Y17850000I900000J0D01*
G01*
X97400000Y17850000D01*
G75*
G02*
X98300000Y16950000I0J-900000D01*
G01*
X98300000Y14050000D01*
G75*
G02*
X97400000Y13150000I-900000J0D01*
G01*
X95600000Y13150000D01*
G75*
G02*
X94700000Y14050000I0J900000D01*
G01*
G37*
G36*
G01*
X89700000Y14050000D02*
X89700000Y16950000D01*
G75*
G02*
X90600000Y17850000I900000J0D01*
G01*
X92400000Y17850000D01*
G75*
G02*
X93300000Y16950000I0J-900000D01*
G01*
X93300000Y14050000D01*
G75*
G02*
X92400000Y13150000I-900000J0D01*
G01*
X90600000Y13150000D01*
G75*
G02*
X89700000Y14050000I0J900000D01*
G01*
G37*
G36*
G01*
X97200000Y6550000D02*
X97200000Y9450000D01*
G75*
G02*
X98100000Y10350000I900000J0D01*
G01*
X99900000Y10350000D01*
G75*
G02*
X100800000Y9450000I0J-900000D01*
G01*
X100800000Y6550000D01*
G75*
G02*
X99900000Y5650000I-900000J0D01*
G01*
X98100000Y5650000D01*
G75*
G02*
X97200000Y6550000I0J900000D01*
G01*
G37*
%TD*%
%TO.C,J13*%
G36*
G01*
X122700000Y22050000D02*
X122700000Y24950000D01*
G75*
G02*
X123600000Y25850000I900000J0D01*
G01*
X125400000Y25850000D01*
G75*
G02*
X126300000Y24950000I0J-900000D01*
G01*
X126300000Y22050000D01*
G75*
G02*
X125400000Y21150000I-900000J0D01*
G01*
X123600000Y21150000D01*
G75*
G02*
X122700000Y22050000I0J900000D01*
G01*
G37*
G36*
G01*
X117700000Y22050000D02*
X117700000Y24950000D01*
G75*
G02*
X118600000Y25850000I900000J0D01*
G01*
X120400000Y25850000D01*
G75*
G02*
X121300000Y24950000I0J-900000D01*
G01*
X121300000Y22050000D01*
G75*
G02*
X120400000Y21150000I-900000J0D01*
G01*
X118600000Y21150000D01*
G75*
G02*
X117700000Y22050000I0J900000D01*
G01*
G37*
G36*
G01*
X127700000Y14050000D02*
X127700000Y16950000D01*
G75*
G02*
X128600000Y17850000I900000J0D01*
G01*
X130400000Y17850000D01*
G75*
G02*
X131300000Y16950000I0J-900000D01*
G01*
X131300000Y14050000D01*
G75*
G02*
X130400000Y13150000I-900000J0D01*
G01*
X128600000Y13150000D01*
G75*
G02*
X127700000Y14050000I0J900000D01*
G01*
G37*
G36*
G01*
X122700000Y14050000D02*
X122700000Y16950000D01*
G75*
G02*
X123600000Y17850000I900000J0D01*
G01*
X125400000Y17850000D01*
G75*
G02*
X126300000Y16950000I0J-900000D01*
G01*
X126300000Y14050000D01*
G75*
G02*
X125400000Y13150000I-900000J0D01*
G01*
X123600000Y13150000D01*
G75*
G02*
X122700000Y14050000I0J900000D01*
G01*
G37*
G36*
G01*
X117700000Y14050000D02*
X117700000Y16950000D01*
G75*
G02*
X118600000Y17850000I900000J0D01*
G01*
X120400000Y17850000D01*
G75*
G02*
X121300000Y16950000I0J-900000D01*
G01*
X121300000Y14050000D01*
G75*
G02*
X120400000Y13150000I-900000J0D01*
G01*
X118600000Y13150000D01*
G75*
G02*
X117700000Y14050000I0J900000D01*
G01*
G37*
G36*
G01*
X112700000Y14050000D02*
X112700000Y16950000D01*
G75*
G02*
X113600000Y17850000I900000J0D01*
G01*
X115400000Y17850000D01*
G75*
G02*
X116300000Y16950000I0J-900000D01*
G01*
X116300000Y14050000D01*
G75*
G02*
X115400000Y13150000I-900000J0D01*
G01*
X113600000Y13150000D01*
G75*
G02*
X112700000Y14050000I0J900000D01*
G01*
G37*
G36*
G01*
X120200000Y6550000D02*
X120200000Y9450000D01*
G75*
G02*
X121100000Y10350000I900000J0D01*
G01*
X122900000Y10350000D01*
G75*
G02*
X123800000Y9450000I0J-900000D01*
G01*
X123800000Y6550000D01*
G75*
G02*
X122900000Y5650000I-900000J0D01*
G01*
X121100000Y5650000D01*
G75*
G02*
X120200000Y6550000I0J900000D01*
G01*
G37*
%TD*%
%TO.C,J14*%
G36*
G01*
X29700000Y22050000D02*
X29700000Y24950000D01*
G75*
G02*
X30600000Y25850000I900000J0D01*
G01*
X32400000Y25850000D01*
G75*
G02*
X33300000Y24950000I0J-900000D01*
G01*
X33300000Y22050000D01*
G75*
G02*
X32400000Y21150000I-900000J0D01*
G01*
X30600000Y21150000D01*
G75*
G02*
X29700000Y22050000I0J900000D01*
G01*
G37*
G36*
G01*
X24700000Y22050000D02*
X24700000Y24950000D01*
G75*
G02*
X25600000Y25850000I900000J0D01*
G01*
X27400000Y25850000D01*
G75*
G02*
X28300000Y24950000I0J-900000D01*
G01*
X28300000Y22050000D01*
G75*
G02*
X27400000Y21150000I-900000J0D01*
G01*
X25600000Y21150000D01*
G75*
G02*
X24700000Y22050000I0J900000D01*
G01*
G37*
G36*
G01*
X34700000Y14050000D02*
X34700000Y16950000D01*
G75*
G02*
X35600000Y17850000I900000J0D01*
G01*
X37400000Y17850000D01*
G75*
G02*
X38300000Y16950000I0J-900000D01*
G01*
X38300000Y14050000D01*
G75*
G02*
X37400000Y13150000I-900000J0D01*
G01*
X35600000Y13150000D01*
G75*
G02*
X34700000Y14050000I0J900000D01*
G01*
G37*
G36*
G01*
X29700000Y14050000D02*
X29700000Y16950000D01*
G75*
G02*
X30600000Y17850000I900000J0D01*
G01*
X32400000Y17850000D01*
G75*
G02*
X33300000Y16950000I0J-900000D01*
G01*
X33300000Y14050000D01*
G75*
G02*
X32400000Y13150000I-900000J0D01*
G01*
X30600000Y13150000D01*
G75*
G02*
X29700000Y14050000I0J900000D01*
G01*
G37*
G36*
G01*
X24700000Y14050000D02*
X24700000Y16950000D01*
G75*
G02*
X25600000Y17850000I900000J0D01*
G01*
X27400000Y17850000D01*
G75*
G02*
X28300000Y16950000I0J-900000D01*
G01*
X28300000Y14050000D01*
G75*
G02*
X27400000Y13150000I-900000J0D01*
G01*
X25600000Y13150000D01*
G75*
G02*
X24700000Y14050000I0J900000D01*
G01*
G37*
G36*
G01*
X19700000Y14050000D02*
X19700000Y16950000D01*
G75*
G02*
X20600000Y17850000I900000J0D01*
G01*
X22400000Y17850000D01*
G75*
G02*
X23300000Y16950000I0J-900000D01*
G01*
X23300000Y14050000D01*
G75*
G02*
X22400000Y13150000I-900000J0D01*
G01*
X20600000Y13150000D01*
G75*
G02*
X19700000Y14050000I0J900000D01*
G01*
G37*
G36*
G01*
X27200000Y6550000D02*
X27200000Y9450000D01*
G75*
G02*
X28100000Y10350000I900000J0D01*
G01*
X29900000Y10350000D01*
G75*
G02*
X30800000Y9450000I0J-900000D01*
G01*
X30800000Y6550000D01*
G75*
G02*
X29900000Y5650000I-900000J0D01*
G01*
X28100000Y5650000D01*
G75*
G02*
X27200000Y6550000I0J900000D01*
G01*
G37*
%TD*%
%TO.C,J9*%
G36*
G01*
X144850000Y7425000D02*
X144850000Y4575000D01*
G75*
G02*
X144225000Y3950000I-625000J0D01*
G01*
X142975000Y3950000D01*
G75*
G02*
X142350000Y4575000I0J625000D01*
G01*
X142350000Y7425000D01*
G75*
G02*
X142975000Y8050000I625000J0D01*
G01*
X144225000Y8050000D01*
G75*
G02*
X144850000Y7425000I0J-625000D01*
G01*
G37*
G36*
G01*
X135650000Y7075000D02*
X135650000Y9925000D01*
G75*
G02*
X136275000Y10550000I625000J0D01*
G01*
X137525000Y10550000D01*
G75*
G02*
X138150000Y9925000I0J-625000D01*
G01*
X138150000Y7075000D01*
G75*
G02*
X137525000Y6450000I-625000J0D01*
G01*
X136275000Y6450000D01*
G75*
G02*
X135650000Y7075000I0J625000D01*
G01*
G37*
G36*
G01*
X132400000Y8100000D02*
X132400000Y10900000D01*
G75*
G02*
X133050000Y11550000I650000J0D01*
G01*
X134350000Y11550000D01*
G75*
G02*
X135000000Y10900000I0J-650000D01*
G01*
X135000000Y8100000D01*
G75*
G02*
X134350000Y7450000I-650000J0D01*
G01*
X133050000Y7450000D01*
G75*
G02*
X132400000Y8100000I0J650000D01*
G01*
G37*
G36*
G01*
X141875000Y14250000D02*
X144725000Y14250000D01*
G75*
G02*
X145350000Y13625000I0J-625000D01*
G01*
X145350000Y12375000D01*
G75*
G02*
X144725000Y11750000I-625000J0D01*
G01*
X141875000Y11750000D01*
G75*
G02*
X141250000Y12375000I0J625000D01*
G01*
X141250000Y13625000D01*
G75*
G02*
X141875000Y14250000I625000J0D01*
G01*
G37*
G36*
G01*
X140425000Y650000D02*
X137575000Y650000D01*
G75*
G02*
X136950000Y1275000I0J625000D01*
G01*
X136950000Y2525000D01*
G75*
G02*
X137575000Y3150000I625000J0D01*
G01*
X140425000Y3150000D01*
G75*
G02*
X141050000Y2525000I0J-625000D01*
G01*
X141050000Y1275000D01*
G75*
G02*
X140425000Y650000I-625000J0D01*
G01*
G37*
%TD*%
D14*
%TO.C,REF\u002A\u002A*%
X4000000Y88500000D03*
%TD*%
%TO.C,REF\u002A\u002A*%
X4000000Y27000000D03*
%TD*%
%TO.C,REF\u002A\u002A*%
X41000000Y30000000D03*
%TD*%
%TO.C,REF\u002A\u002A*%
X144000000Y27000000D03*
%TD*%
%TO.C,REF\u002A\u002A*%
X144000000Y88500000D03*
%TD*%
D10*
%TO.C,R5*%
X122300000Y35700000D03*
X129920000Y35700000D03*
%TD*%
D12*
%TO.C,U2*%
X84180000Y59705000D03*
X86720000Y59705000D03*
X89260000Y59705000D03*
X91800000Y59705000D03*
X94340000Y59705000D03*
X96880000Y59705000D03*
X99420000Y59705000D03*
X101960000Y59705000D03*
X104500000Y59705000D03*
X107040000Y59705000D03*
X109580000Y59705000D03*
X112120000Y59705000D03*
X114660000Y59705000D03*
X117200000Y59705000D03*
X84180000Y43195000D03*
X86720000Y43195000D03*
X89260000Y43195000D03*
X91800000Y43195000D03*
X94340000Y43195000D03*
X96880000Y43195000D03*
X99420000Y43195000D03*
X101960000Y43195000D03*
D11*
X104500000Y43830000D03*
X107040000Y43830000D03*
D12*
X109580000Y43195000D03*
X112120000Y43195000D03*
X114660000Y43195000D03*
X119740000Y59705000D03*
X122280000Y59705000D03*
X124820000Y59705000D03*
X127360000Y59705000D03*
X129900000Y59705000D03*
X132440000Y59705000D03*
X134980000Y59705000D03*
X137520000Y59705000D03*
X140060000Y59705000D03*
X142600000Y59705000D03*
X142600000Y43195000D03*
X140060000Y43195000D03*
X137520000Y43195000D03*
X134980000Y43195000D03*
X117200000Y43195000D03*
X119740000Y43195000D03*
X122280000Y43195000D03*
X132440000Y43195000D03*
X129900000Y43195000D03*
X127360000Y43195000D03*
X124820000Y43195000D03*
%TD*%
D10*
%TO.C,C1*%
X63100000Y65000000D03*
X63100000Y61200000D03*
%TD*%
D15*
%TO.C,C2*%
X92700000Y67600000D03*
X90400000Y67600000D03*
%TD*%
D10*
%TO.C,J1*%
X111400000Y77400000D03*
X113940000Y77400000D03*
X116480000Y77400000D03*
X119020000Y77400000D03*
X121560000Y77400000D03*
X124100000Y77400000D03*
%TD*%
%TO.C,J2*%
X130600000Y77400000D03*
X133140000Y77400000D03*
X135680000Y77400000D03*
X138220000Y77400000D03*
X140760000Y77400000D03*
%TD*%
%TO.C,J3*%
X117200000Y34500000D03*
X114660000Y34500000D03*
X112120000Y34500000D03*
X109580000Y34500000D03*
X107040000Y34500000D03*
X104500000Y34500000D03*
X101960000Y34500000D03*
X99420000Y34500000D03*
%TD*%
%TO.C,J4*%
X58220000Y71500000D03*
X60760000Y71500000D03*
X63300000Y71500000D03*
X65840000Y71500000D03*
X68380000Y71500000D03*
X70920000Y71500000D03*
X73460000Y71500000D03*
X76000000Y71500000D03*
%TD*%
%TO.C,J5*%
X90300000Y75500000D03*
X92840000Y75500000D03*
%TD*%
%TO.C,J6*%
X21540000Y75500000D03*
X19000000Y75500000D03*
%TD*%
%TO.C,J8*%
X6000000Y75500000D03*
X8540000Y75500000D03*
%TD*%
%TO.C,Q1*%
X31540000Y74950000D03*
X34080000Y74950000D03*
X29000000Y74950000D03*
%TD*%
%TO.C,R1*%
X130380000Y70500000D03*
X138000000Y70500000D03*
%TD*%
%TO.C,R2*%
X130380000Y67500000D03*
X138000000Y67500000D03*
%TD*%
%TO.C,R3*%
X52700000Y67400000D03*
X45080000Y67400000D03*
%TD*%
%TO.C,J16*%
X66700000Y36700000D03*
X64160000Y36700000D03*
X61620000Y36700000D03*
X59080000Y36700000D03*
X56540000Y36700000D03*
X54000000Y36700000D03*
X51460000Y36700000D03*
X48920000Y36700000D03*
%TD*%
%TO.C,R4*%
X140100000Y47800000D03*
X132480000Y47800000D03*
%TD*%
%TO.C,R11*%
X103500000Y79000000D03*
X103500000Y86620000D03*
%TD*%
%TO.C,J15*%
G36*
G01*
X6800000Y12775000D02*
X6800000Y11225000D01*
G75*
G02*
X6025000Y10450000I-775000J0D01*
G01*
X3975000Y10450000D01*
G75*
G02*
X3200000Y11225000I0J775000D01*
G01*
X3200000Y12775000D01*
G75*
G02*
X3975000Y13550000I775000J0D01*
G01*
X6025000Y13550000D01*
G75*
G02*
X6800000Y12775000I0J-775000D01*
G01*
G37*
G36*
G01*
X12800000Y12775000D02*
X12800000Y11225000D01*
G75*
G02*
X12025000Y10450000I-775000J0D01*
G01*
X9975000Y10450000D01*
G75*
G02*
X9200000Y11225000I0J775000D01*
G01*
X9200000Y12775000D01*
G75*
G02*
X9975000Y13550000I775000J0D01*
G01*
X12025000Y13550000D01*
G75*
G02*
X12800000Y12775000I0J-775000D01*
G01*
G37*
G36*
G01*
X7225000Y19300000D02*
X8775000Y19300000D01*
G75*
G02*
X9550000Y18525000I0J-775000D01*
G01*
X9550000Y16475000D01*
G75*
G02*
X8775000Y15700000I-775000J0D01*
G01*
X7225000Y15700000D01*
G75*
G02*
X6450000Y16475000I0J775000D01*
G01*
X6450000Y18525000D01*
G75*
G02*
X7225000Y19300000I775000J0D01*
G01*
G37*
%TD*%
M02*
