%TF.GenerationSoftware,KiCad,Pcbnew,(5.1.6)-1*%
%TF.CreationDate,2025-03-18T13:11:02-05:00*%
%TF.ProjectId,mother_board_pcbway,6d6f7468-6572-45f6-926f-6172645f7063,rev?*%
%TF.SameCoordinates,PX3d09000PY907b4e0*%
%TF.FileFunction,Legend,Top*%
%TF.FilePolarity,Positive*%
%FSLAX46Y46*%
G04 Gerber Fmt 4.6, Leading zero omitted, Abs format (unit mm)*
G04 Created by KiCad (PCBNEW (5.1.6)-1) date 2025-03-18 13:11:02*
%MOMM*%
%LPD*%
G01*
G04 APERTURE LIST*
%ADD10C,0.300000*%
%ADD11C,0.200000*%
%ADD12C,0.150000*%
%ADD13C,0.120000*%
%ADD14C,0.100000*%
%ADD15C,0.127000*%
%ADD16C,0.101600*%
G04 APERTURE END LIST*
D10*
X96238095Y66928572D02*
X96238095Y65309524D01*
X96142857Y65119048D01*
X96047619Y65023810D01*
X95857142Y64928572D01*
X95571428Y64928572D01*
X95380952Y65023810D01*
X96238095Y65690477D02*
X96047619Y65595239D01*
X95666666Y65595239D01*
X95476190Y65690477D01*
X95380952Y65785715D01*
X95285714Y65976191D01*
X95285714Y66547620D01*
X95380952Y66738096D01*
X95476190Y66833334D01*
X95666666Y66928572D01*
X96047619Y66928572D01*
X96238095Y66833334D01*
X97190476Y65595239D02*
X97190476Y66928572D01*
X97190476Y67595239D02*
X97095238Y67500000D01*
X97190476Y67404762D01*
X97285714Y67500000D01*
X97190476Y67595239D01*
X97190476Y67404762D01*
X97857142Y66928572D02*
X98619047Y66928572D01*
X98142857Y67595239D02*
X98142857Y65880953D01*
X98238095Y65690477D01*
X98428571Y65595239D01*
X98619047Y65595239D01*
X99285714Y65595239D02*
X99285714Y67595239D01*
X99285714Y66642858D02*
X100428571Y66642858D01*
X100428571Y65595239D02*
X100428571Y67595239D01*
X102238095Y66928572D02*
X102238095Y65595239D01*
X101380952Y66928572D02*
X101380952Y65880953D01*
X101476190Y65690477D01*
X101666666Y65595239D01*
X101952380Y65595239D01*
X102142857Y65690477D01*
X102238095Y65785715D01*
X103190476Y65595239D02*
X103190476Y67595239D01*
X103190476Y66833334D02*
X103380952Y66928572D01*
X103761904Y66928572D01*
X103952380Y66833334D01*
X104047619Y66738096D01*
X104142857Y66547620D01*
X104142857Y65976191D01*
X104047619Y65785715D01*
X103952380Y65690477D01*
X103761904Y65595239D01*
X103380952Y65595239D01*
X103190476Y65690477D01*
X105000000Y65785715D02*
X105095238Y65690477D01*
X105000000Y65595239D01*
X104904761Y65690477D01*
X105000000Y65785715D01*
X105000000Y65595239D01*
X106809523Y65690477D02*
X106619047Y65595239D01*
X106238095Y65595239D01*
X106047619Y65690477D01*
X105952380Y65785715D01*
X105857142Y65976191D01*
X105857142Y66547620D01*
X105952380Y66738096D01*
X106047619Y66833334D01*
X106238095Y66928572D01*
X106619047Y66928572D01*
X106809523Y66833334D01*
X107952380Y65595239D02*
X107761904Y65690477D01*
X107666666Y65785715D01*
X107571428Y65976191D01*
X107571428Y66547620D01*
X107666666Y66738096D01*
X107761904Y66833334D01*
X107952380Y66928572D01*
X108238095Y66928572D01*
X108428571Y66833334D01*
X108523809Y66738096D01*
X108619047Y66547620D01*
X108619047Y65976191D01*
X108523809Y65785715D01*
X108428571Y65690477D01*
X108238095Y65595239D01*
X107952380Y65595239D01*
X109476190Y65595239D02*
X109476190Y66928572D01*
X109476190Y66738096D02*
X109571428Y66833334D01*
X109761904Y66928572D01*
X110047619Y66928572D01*
X110238095Y66833334D01*
X110333333Y66642858D01*
X110333333Y65595239D01*
X110333333Y66642858D02*
X110428571Y66833334D01*
X110619047Y66928572D01*
X110904761Y66928572D01*
X111095238Y66833334D01*
X111190476Y66642858D01*
X111190476Y65595239D01*
X113571428Y67690477D02*
X111857142Y65119048D01*
X114238095Y66928572D02*
X114238095Y64928572D01*
X114238095Y66833334D02*
X114428571Y66928572D01*
X114809523Y66928572D01*
X115000000Y66833334D01*
X115095238Y66738096D01*
X115190476Y66547620D01*
X115190476Y65976191D01*
X115095238Y65785715D01*
X115000000Y65690477D01*
X114809523Y65595239D01*
X114428571Y65595239D01*
X114238095Y65690477D01*
X116047619Y65595239D02*
X116047619Y67595239D01*
X116904761Y65595239D02*
X116904761Y66642858D01*
X116809523Y66833334D01*
X116619047Y66928572D01*
X116333333Y66928572D01*
X116142857Y66833334D01*
X116047619Y66738096D01*
X118142857Y65595239D02*
X117952380Y65690477D01*
X117857142Y65785715D01*
X117761904Y65976191D01*
X117761904Y66547620D01*
X117857142Y66738096D01*
X117952380Y66833334D01*
X118142857Y66928572D01*
X118428571Y66928572D01*
X118619047Y66833334D01*
X118714285Y66738096D01*
X118809523Y66547620D01*
X118809523Y65976191D01*
X118714285Y65785715D01*
X118619047Y65690477D01*
X118428571Y65595239D01*
X118142857Y65595239D01*
X119666666Y65595239D02*
X119666666Y66928572D01*
X119666666Y66547620D02*
X119761904Y66738096D01*
X119857142Y66833334D01*
X120047619Y66928572D01*
X120238095Y66928572D01*
X120619047Y66928572D02*
X121380952Y66928572D01*
X120904761Y67595239D02*
X120904761Y65880953D01*
X121000000Y65690477D01*
X121190476Y65595239D01*
X121380952Y65595239D01*
X122333333Y65595239D02*
X122142857Y65690477D01*
X122047619Y65785715D01*
X121952380Y65976191D01*
X121952380Y66547620D01*
X122047619Y66738096D01*
X122142857Y66833334D01*
X122333333Y66928572D01*
X122619047Y66928572D01*
X122809523Y66833334D01*
X122904761Y66738096D01*
X123000000Y66547620D01*
X123000000Y65976191D01*
X122904761Y65785715D01*
X122809523Y65690477D01*
X122619047Y65595239D01*
X122333333Y65595239D01*
X123857142Y66928572D02*
X123857142Y65595239D01*
X123857142Y66738096D02*
X123952380Y66833334D01*
X124142857Y66928572D01*
X124428571Y66928572D01*
X124619047Y66833334D01*
X124714285Y66642858D01*
X124714285Y65595239D01*
X126714285Y65595239D02*
X125571428Y65595239D01*
X126142857Y65595239D02*
X126142857Y67595239D01*
X125952380Y67309524D01*
X125761904Y67119048D01*
X125571428Y67023810D01*
X117595238Y87595239D02*
X117595238Y89595239D01*
X118357142Y89595239D01*
X118547619Y89500000D01*
X118642857Y89404762D01*
X118738095Y89214286D01*
X118738095Y88928572D01*
X118642857Y88738096D01*
X118547619Y88642858D01*
X118357142Y88547620D01*
X117595238Y88547620D01*
X120738095Y87785715D02*
X120642857Y87690477D01*
X120357142Y87595239D01*
X120166666Y87595239D01*
X119880952Y87690477D01*
X119690476Y87880953D01*
X119595238Y88071429D01*
X119500000Y88452381D01*
X119500000Y88738096D01*
X119595238Y89119048D01*
X119690476Y89309524D01*
X119880952Y89500000D01*
X120166666Y89595239D01*
X120357142Y89595239D01*
X120642857Y89500000D01*
X120738095Y89404762D01*
X122261904Y88642858D02*
X122547619Y88547620D01*
X122642857Y88452381D01*
X122738095Y88261905D01*
X122738095Y87976191D01*
X122642857Y87785715D01*
X122547619Y87690477D01*
X122357142Y87595239D01*
X121595238Y87595239D01*
X121595238Y89595239D01*
X122261904Y89595239D01*
X122452380Y89500000D01*
X122547619Y89404762D01*
X122642857Y89214286D01*
X122642857Y89023810D01*
X122547619Y88833334D01*
X122452380Y88738096D01*
X122261904Y88642858D01*
X121595238Y88642858D01*
X123404761Y89595239D02*
X123880952Y87595239D01*
X124261904Y89023810D01*
X124642857Y87595239D01*
X125119047Y89595239D01*
X126738095Y87595239D02*
X126738095Y88642858D01*
X126642857Y88833334D01*
X126452380Y88928572D01*
X126071428Y88928572D01*
X125880952Y88833334D01*
X126738095Y87690477D02*
X126547619Y87595239D01*
X126071428Y87595239D01*
X125880952Y87690477D01*
X125785714Y87880953D01*
X125785714Y88071429D01*
X125880952Y88261905D01*
X126071428Y88357143D01*
X126547619Y88357143D01*
X126738095Y88452381D01*
X127500000Y88928572D02*
X127976190Y87595239D01*
X128452380Y88928572D02*
X127976190Y87595239D01*
X127785714Y87119048D01*
X127690476Y87023810D01*
X127500000Y86928572D01*
X129214285Y87785715D02*
X129309523Y87690477D01*
X129214285Y87595239D01*
X129119047Y87690477D01*
X129214285Y87785715D01*
X129214285Y87595239D01*
X131023809Y87690477D02*
X130833333Y87595239D01*
X130452380Y87595239D01*
X130261904Y87690477D01*
X130166666Y87785715D01*
X130071428Y87976191D01*
X130071428Y88547620D01*
X130166666Y88738096D01*
X130261904Y88833334D01*
X130452380Y88928572D01*
X130833333Y88928572D01*
X131023809Y88833334D01*
X132166666Y87595239D02*
X131976190Y87690477D01*
X131880952Y87785715D01*
X131785714Y87976191D01*
X131785714Y88547620D01*
X131880952Y88738096D01*
X131976190Y88833334D01*
X132166666Y88928572D01*
X132452380Y88928572D01*
X132642857Y88833334D01*
X132738095Y88738096D01*
X132833333Y88547620D01*
X132833333Y87976191D01*
X132738095Y87785715D01*
X132642857Y87690477D01*
X132452380Y87595239D01*
X132166666Y87595239D01*
X133690476Y87595239D02*
X133690476Y88928572D01*
X133690476Y88738096D02*
X133785714Y88833334D01*
X133976190Y88928572D01*
X134261904Y88928572D01*
X134452380Y88833334D01*
X134547619Y88642858D01*
X134547619Y87595239D01*
X134547619Y88642858D02*
X134642857Y88833334D01*
X134833333Y88928572D01*
X135119047Y88928572D01*
X135309523Y88833334D01*
X135404761Y88642858D01*
X135404761Y87595239D01*
D11*
X106095238Y89714286D02*
X106095238Y88714286D01*
X106095238Y89666667D02*
X106190476Y89714286D01*
X106380952Y89714286D01*
X106476190Y89666667D01*
X106523809Y89619048D01*
X106571428Y89523810D01*
X106571428Y89238096D01*
X106523809Y89142858D01*
X106476190Y89095239D01*
X106380952Y89047620D01*
X106190476Y89047620D01*
X106095238Y89095239D01*
X107000000Y89047620D02*
X107000000Y89714286D01*
X107000000Y89523810D02*
X107047619Y89619048D01*
X107095238Y89666667D01*
X107190476Y89714286D01*
X107285714Y89714286D01*
X107761904Y89047620D02*
X107666666Y89095239D01*
X107619047Y89142858D01*
X107571428Y89238096D01*
X107571428Y89523810D01*
X107619047Y89619048D01*
X107666666Y89666667D01*
X107761904Y89714286D01*
X107904761Y89714286D01*
X108000000Y89666667D01*
X108047619Y89619048D01*
X108095238Y89523810D01*
X108095238Y89238096D01*
X108047619Y89142858D01*
X108000000Y89095239D01*
X107904761Y89047620D01*
X107761904Y89047620D01*
X108952380Y89047620D02*
X108952380Y90047620D01*
X108952380Y89095239D02*
X108857142Y89047620D01*
X108666666Y89047620D01*
X108571428Y89095239D01*
X108523809Y89142858D01*
X108476190Y89238096D01*
X108476190Y89523810D01*
X108523809Y89619048D01*
X108571428Y89666667D01*
X108666666Y89714286D01*
X108857142Y89714286D01*
X108952380Y89666667D01*
X109857142Y89714286D02*
X109857142Y89047620D01*
X109428571Y89714286D02*
X109428571Y89190477D01*
X109476190Y89095239D01*
X109571428Y89047620D01*
X109714285Y89047620D01*
X109809523Y89095239D01*
X109857142Y89142858D01*
X110761904Y89095239D02*
X110666666Y89047620D01*
X110476190Y89047620D01*
X110380952Y89095239D01*
X110333333Y89142858D01*
X110285714Y89238096D01*
X110285714Y89523810D01*
X110333333Y89619048D01*
X110380952Y89666667D01*
X110476190Y89714286D01*
X110666666Y89714286D01*
X110761904Y89666667D01*
X111571428Y89095239D02*
X111476190Y89047620D01*
X111285714Y89047620D01*
X111190476Y89095239D01*
X111142857Y89190477D01*
X111142857Y89571429D01*
X111190476Y89666667D01*
X111285714Y89714286D01*
X111476190Y89714286D01*
X111571428Y89666667D01*
X111619047Y89571429D01*
X111619047Y89476191D01*
X111142857Y89380953D01*
X112476190Y89047620D02*
X112476190Y90047620D01*
X112476190Y89095239D02*
X112380952Y89047620D01*
X112190476Y89047620D01*
X112095238Y89095239D01*
X112047619Y89142858D01*
X112000000Y89238096D01*
X112000000Y89523810D01*
X112047619Y89619048D01*
X112095238Y89666667D01*
X112190476Y89714286D01*
X112380952Y89714286D01*
X112476190Y89666667D01*
X113714285Y89047620D02*
X113714285Y90047620D01*
X113714285Y89666667D02*
X113809523Y89714286D01*
X114000000Y89714286D01*
X114095238Y89666667D01*
X114142857Y89619048D01*
X114190476Y89523810D01*
X114190476Y89238096D01*
X114142857Y89142858D01*
X114095238Y89095239D01*
X114000000Y89047620D01*
X113809523Y89047620D01*
X113714285Y89095239D01*
X114523809Y89714286D02*
X114761904Y89047620D01*
X115000000Y89714286D02*
X114761904Y89047620D01*
X114666666Y88809524D01*
X114619047Y88761905D01*
X114523809Y88714286D01*
D10*
X10142857Y87178572D02*
X10214285Y87250000D01*
X10357142Y87321429D01*
X10714285Y87321429D01*
X10857142Y87250000D01*
X10928571Y87178572D01*
X11000000Y87035715D01*
X11000000Y86892858D01*
X10928571Y86678572D01*
X10071428Y85821429D01*
X11000000Y85821429D01*
X11928571Y87321429D02*
X12071428Y87321429D01*
X12214285Y87250000D01*
X12285714Y87178572D01*
X12357142Y87035715D01*
X12428571Y86750000D01*
X12428571Y86392858D01*
X12357142Y86107143D01*
X12285714Y85964286D01*
X12214285Y85892858D01*
X12071428Y85821429D01*
X11928571Y85821429D01*
X11785714Y85892858D01*
X11714285Y85964286D01*
X11642857Y86107143D01*
X11571428Y86392858D01*
X11571428Y86750000D01*
X11642857Y87035715D01*
X11714285Y87178572D01*
X11785714Y87250000D01*
X11928571Y87321429D01*
X13000000Y87178572D02*
X13071428Y87250000D01*
X13214285Y87321429D01*
X13571428Y87321429D01*
X13714285Y87250000D01*
X13785714Y87178572D01*
X13857142Y87035715D01*
X13857142Y86892858D01*
X13785714Y86678572D01*
X12928571Y85821429D01*
X13857142Y85821429D01*
X15214285Y87321429D02*
X14500000Y87321429D01*
X14428571Y86607143D01*
X14500000Y86678572D01*
X14642857Y86750000D01*
X15000000Y86750000D01*
X15142857Y86678572D01*
X15214285Y86607143D01*
X15285714Y86464286D01*
X15285714Y86107143D01*
X15214285Y85964286D01*
X15142857Y85892858D01*
X15000000Y85821429D01*
X14642857Y85821429D01*
X14500000Y85892858D01*
X14428571Y85964286D01*
X15928571Y86392858D02*
X17071428Y86392858D01*
X18071428Y87321429D02*
X18214285Y87321429D01*
X18357142Y87250000D01*
X18428571Y87178572D01*
X18500000Y87035715D01*
X18571428Y86750000D01*
X18571428Y86392858D01*
X18500000Y86107143D01*
X18428571Y85964286D01*
X18357142Y85892858D01*
X18214285Y85821429D01*
X18071428Y85821429D01*
X17928571Y85892858D01*
X17857142Y85964286D01*
X17785714Y86107143D01*
X17714285Y86392858D01*
X17714285Y86750000D01*
X17785714Y87035715D01*
X17857142Y87178572D01*
X17928571Y87250000D01*
X18071428Y87321429D01*
X19071428Y87321429D02*
X20000000Y87321429D01*
X19500000Y86750000D01*
X19714285Y86750000D01*
X19857142Y86678572D01*
X19928571Y86607143D01*
X20000000Y86464286D01*
X20000000Y86107143D01*
X19928571Y85964286D01*
X19857142Y85892858D01*
X19714285Y85821429D01*
X19285714Y85821429D01*
X19142857Y85892858D01*
X19071428Y85964286D01*
X20642857Y86392858D02*
X21785714Y86392858D01*
X23285714Y85821429D02*
X22428571Y85821429D01*
X22857142Y85821429D02*
X22857142Y87321429D01*
X22714285Y87107143D01*
X22571428Y86964286D01*
X22428571Y86892858D01*
X24142857Y86678572D02*
X24000000Y86750000D01*
X23928571Y86821429D01*
X23857142Y86964286D01*
X23857142Y87035715D01*
X23928571Y87178572D01*
X24000000Y87250000D01*
X24142857Y87321429D01*
X24428571Y87321429D01*
X24571428Y87250000D01*
X24642857Y87178572D01*
X24714285Y87035715D01*
X24714285Y86964286D01*
X24642857Y86821429D01*
X24571428Y86750000D01*
X24428571Y86678572D01*
X24142857Y86678572D01*
X24000000Y86607143D01*
X23928571Y86535715D01*
X23857142Y86392858D01*
X23857142Y86107143D01*
X23928571Y85964286D01*
X24000000Y85892858D01*
X24142857Y85821429D01*
X24428571Y85821429D01*
X24571428Y85892858D01*
X24642857Y85964286D01*
X24714285Y86107143D01*
X24714285Y86392858D01*
X24642857Y86535715D01*
X24571428Y86607143D01*
X24428571Y86678572D01*
X28642857Y86821429D02*
X29000000Y85821429D01*
X29357142Y86821429D01*
X30714285Y85821429D02*
X29857142Y85821429D01*
X30285714Y85821429D02*
X30285714Y87321429D01*
X30142857Y87107143D01*
X30000000Y86964286D01*
X29857142Y86892858D01*
X31357142Y85964286D02*
X31428571Y85892858D01*
X31357142Y85821429D01*
X31285714Y85892858D01*
X31357142Y85964286D01*
X31357142Y85821429D01*
X32357142Y87321429D02*
X32500000Y87321429D01*
X32642857Y87250000D01*
X32714285Y87178572D01*
X32785714Y87035715D01*
X32857142Y86750000D01*
X32857142Y86392858D01*
X32785714Y86107143D01*
X32714285Y85964286D01*
X32642857Y85892858D01*
X32500000Y85821429D01*
X32357142Y85821429D01*
X32214285Y85892858D01*
X32142857Y85964286D01*
X32071428Y86107143D01*
X32000000Y86392858D01*
X32000000Y86750000D01*
X32071428Y87035715D01*
X32142857Y87178572D01*
X32214285Y87250000D01*
X32357142Y87321429D01*
X9795267Y90428572D02*
X10480982Y90428572D01*
X10135744Y91095239D02*
X9921458Y89380953D01*
X9983363Y89190477D01*
X10142886Y89095239D01*
X10314315Y89095239D01*
X11611934Y89190477D02*
X11428601Y89095239D01*
X11085744Y89095239D01*
X10926220Y89190477D01*
X10864315Y89380953D01*
X10959553Y90142858D01*
X11069077Y90333334D01*
X11252410Y90428572D01*
X11595267Y90428572D01*
X11754791Y90333334D01*
X11816696Y90142858D01*
X11792886Y89952381D01*
X10911934Y89761905D01*
X13154791Y89190477D02*
X12971458Y89095239D01*
X12628601Y89095239D01*
X12469077Y89190477D01*
X12407172Y89380953D01*
X12502410Y90142858D01*
X12611934Y90333334D01*
X12795267Y90428572D01*
X13138125Y90428572D01*
X13297648Y90333334D01*
X13359553Y90142858D01*
X13335744Y89952381D01*
X12454791Y89761905D01*
X14166696Y90428572D02*
X14000029Y89095239D01*
X14142886Y90238096D02*
X14240505Y90333334D01*
X14423839Y90428572D01*
X14680982Y90428572D01*
X14840505Y90333334D01*
X14902410Y90142858D01*
X14771458Y89095239D01*
X15554791Y89190477D02*
X15714315Y89095239D01*
X16057172Y89095239D01*
X16240505Y89190477D01*
X16350029Y89380953D01*
X16361934Y89476191D01*
X16300029Y89666667D01*
X16140505Y89761905D01*
X15883363Y89761905D01*
X15723839Y89857143D01*
X15661934Y90047620D01*
X15673839Y90142858D01*
X15783363Y90333334D01*
X15966696Y90428572D01*
X16223839Y90428572D01*
X16383363Y90333334D01*
X17080982Y90428572D02*
X17342886Y89095239D01*
X17938125Y90428572D02*
X17342886Y89095239D01*
X17111934Y88619048D01*
X17014315Y88523810D01*
X16830982Y88428572D01*
X18588125Y90142858D02*
X19188125Y90142858D01*
X19314315Y89095239D02*
X18457172Y89095239D01*
X18707172Y91095239D01*
X19564315Y91095239D01*
X19914315Y89095239D02*
X21023839Y90428572D01*
X20080982Y90428572D02*
X20857172Y89095239D01*
X21709553Y90428572D02*
X21459553Y88428572D01*
X21697648Y90333334D02*
X21880982Y90428572D01*
X22223839Y90428572D01*
X22383363Y90333334D01*
X22457172Y90238096D01*
X22519077Y90047620D01*
X22447648Y89476191D01*
X22338125Y89285715D01*
X22240505Y89190477D01*
X22057172Y89095239D01*
X21714315Y89095239D01*
X21554791Y89190477D01*
X23171458Y89095239D02*
X23338125Y90428572D01*
X23290505Y90047620D02*
X23400029Y90238096D01*
X23497648Y90333334D01*
X23680982Y90428572D01*
X23852410Y90428572D01*
X24983363Y89190477D02*
X24800029Y89095239D01*
X24457172Y89095239D01*
X24297648Y89190477D01*
X24235744Y89380953D01*
X24330982Y90142858D01*
X24440505Y90333334D01*
X24623839Y90428572D01*
X24966696Y90428572D01*
X25126220Y90333334D01*
X25188125Y90142858D01*
X25164315Y89952381D01*
X24283363Y89761905D01*
X25754791Y89190477D02*
X25914315Y89095239D01*
X26257172Y89095239D01*
X26440505Y89190477D01*
X26550029Y89380953D01*
X26561934Y89476191D01*
X26500029Y89666667D01*
X26340505Y89761905D01*
X26083363Y89761905D01*
X25923839Y89857143D01*
X25861934Y90047620D01*
X25873839Y90142858D01*
X25983363Y90333334D01*
X26166696Y90428572D01*
X26423839Y90428572D01*
X26583363Y90333334D01*
X27211934Y89190477D02*
X27371458Y89095239D01*
X27714315Y89095239D01*
X27897648Y89190477D01*
X28007172Y89380953D01*
X28019077Y89476191D01*
X27957172Y89666667D01*
X27797648Y89761905D01*
X27540505Y89761905D01*
X27380982Y89857143D01*
X27319077Y90047620D01*
X27330982Y90142858D01*
X27440505Y90333334D01*
X27623839Y90428572D01*
X27880982Y90428572D01*
X28040505Y90333334D01*
X28742886Y89095239D02*
X28909553Y90428572D01*
X28992886Y91095239D02*
X28895267Y91000000D01*
X28969077Y90904762D01*
X29066696Y91000000D01*
X28992886Y91095239D01*
X28969077Y90904762D01*
X29857172Y89095239D02*
X29697648Y89190477D01*
X29623839Y89285715D01*
X29561934Y89476191D01*
X29633363Y90047620D01*
X29742886Y90238096D01*
X29840505Y90333334D01*
X30023839Y90428572D01*
X30280982Y90428572D01*
X30440505Y90333334D01*
X30514315Y90238096D01*
X30576220Y90047620D01*
X30504791Y89476191D01*
X30395267Y89285715D01*
X30297648Y89190477D01*
X30114315Y89095239D01*
X29857172Y89095239D01*
X31395267Y90428572D02*
X31228601Y89095239D01*
X31371458Y90238096D02*
X31469077Y90333334D01*
X31652410Y90428572D01*
X31909553Y90428572D01*
X32069077Y90333334D01*
X32130982Y90142858D01*
X32000029Y89095239D01*
X32935744Y91095239D02*
X34050029Y91095239D01*
X33354791Y90333334D01*
X33611934Y90333334D01*
X33771458Y90238096D01*
X33845267Y90142858D01*
X33907172Y89952381D01*
X33847648Y89476191D01*
X33738125Y89285715D01*
X33640505Y89190477D01*
X33457172Y89095239D01*
X32942886Y89095239D01*
X32783363Y89190477D01*
X32709553Y89285715D01*
D12*
X136857142Y15547620D02*
X136857142Y16547620D01*
X137095238Y16547620D01*
X137238095Y16500000D01*
X137333333Y16404762D01*
X137380952Y16309524D01*
X137428571Y16119048D01*
X137428571Y15976191D01*
X137380952Y15785715D01*
X137333333Y15690477D01*
X137238095Y15595239D01*
X137095238Y15547620D01*
X136857142Y15547620D01*
X138190476Y16071429D02*
X138333333Y16023810D01*
X138380952Y15976191D01*
X138428571Y15880953D01*
X138428571Y15738096D01*
X138380952Y15642858D01*
X138333333Y15595239D01*
X138238095Y15547620D01*
X137857142Y15547620D01*
X137857142Y16547620D01*
X138190476Y16547620D01*
X138285714Y16500000D01*
X138333333Y16452381D01*
X138380952Y16357143D01*
X138380952Y16261905D01*
X138333333Y16166667D01*
X138285714Y16119048D01*
X138190476Y16071429D01*
X137857142Y16071429D01*
X139380952Y16500000D02*
X139285714Y16547620D01*
X139142857Y16547620D01*
X139000000Y16500000D01*
X138904761Y16404762D01*
X138857142Y16309524D01*
X138809523Y16119048D01*
X138809523Y15976191D01*
X138857142Y15785715D01*
X138904761Y15690477D01*
X139000000Y15595239D01*
X139142857Y15547620D01*
X139238095Y15547620D01*
X139380952Y15595239D01*
X139428571Y15642858D01*
X139428571Y15976191D01*
X139238095Y15976191D01*
X139619047Y15452381D02*
X140380952Y15452381D01*
X140571428Y15595239D02*
X140714285Y15547620D01*
X140952380Y15547620D01*
X141047619Y15595239D01*
X141095238Y15642858D01*
X141142857Y15738096D01*
X141142857Y15833334D01*
X141095238Y15928572D01*
X141047619Y15976191D01*
X140952380Y16023810D01*
X140761904Y16071429D01*
X140666666Y16119048D01*
X140619047Y16166667D01*
X140571428Y16261905D01*
X140571428Y16357143D01*
X140619047Y16452381D01*
X140666666Y16500000D01*
X140761904Y16547620D01*
X141000000Y16547620D01*
X141142857Y16500000D01*
X141571428Y16071429D02*
X141904761Y16071429D01*
X142047619Y15547620D02*
X141571428Y15547620D01*
X141571428Y16547620D01*
X142047619Y16547620D01*
X143047619Y15547620D02*
X142714285Y16023810D01*
X142476190Y15547620D02*
X142476190Y16547620D01*
X142857142Y16547620D01*
X142952380Y16500000D01*
X143000000Y16452381D01*
X143047619Y16357143D01*
X143047619Y16214286D01*
X143000000Y16119048D01*
X142952380Y16071429D01*
X142857142Y16023810D01*
X142476190Y16023810D01*
X143476190Y15547620D02*
X143476190Y16547620D01*
X143904761Y15833334D02*
X144380952Y15833334D01*
X143809523Y15547620D02*
X144142857Y16547620D01*
X144476190Y15547620D01*
X145285714Y15547620D02*
X144809523Y15547620D01*
X144809523Y16547620D01*
X122547619Y56047620D02*
X123119047Y56047620D01*
X122833333Y55047620D02*
X122833333Y56047620D01*
X123833333Y55095239D02*
X123738095Y55047620D01*
X123547619Y55047620D01*
X123452380Y55095239D01*
X123404761Y55190477D01*
X123404761Y55571429D01*
X123452380Y55666667D01*
X123547619Y55714286D01*
X123738095Y55714286D01*
X123833333Y55666667D01*
X123880952Y55571429D01*
X123880952Y55476191D01*
X123404761Y55380953D01*
X124690476Y55095239D02*
X124595238Y55047620D01*
X124404761Y55047620D01*
X124309523Y55095239D01*
X124261904Y55190477D01*
X124261904Y55571429D01*
X124309523Y55666667D01*
X124404761Y55714286D01*
X124595238Y55714286D01*
X124690476Y55666667D01*
X124738095Y55571429D01*
X124738095Y55476191D01*
X124261904Y55380953D01*
X125166666Y55714286D02*
X125166666Y55047620D01*
X125166666Y55619048D02*
X125214285Y55666667D01*
X125309523Y55714286D01*
X125452380Y55714286D01*
X125547619Y55666667D01*
X125595238Y55571429D01*
X125595238Y55047620D01*
X126023809Y55095239D02*
X126119047Y55047620D01*
X126309523Y55047620D01*
X126404761Y55095239D01*
X126452380Y55190477D01*
X126452380Y55238096D01*
X126404761Y55333334D01*
X126309523Y55380953D01*
X126166666Y55380953D01*
X126071428Y55428572D01*
X126023809Y55523810D01*
X126023809Y55571429D01*
X126071428Y55666667D01*
X126166666Y55714286D01*
X126309523Y55714286D01*
X126404761Y55666667D01*
X126785714Y55714286D02*
X127023809Y55047620D01*
X127261904Y55714286D02*
X127023809Y55047620D01*
X126928571Y54809524D01*
X126880952Y54761905D01*
X126785714Y54714286D01*
X128833333Y55714286D02*
X128833333Y55047620D01*
X128595238Y56095239D02*
X128357142Y55380953D01*
X128976190Y55380953D01*
X129357142Y55142858D02*
X129404761Y55095239D01*
X129357142Y55047620D01*
X129309523Y55095239D01*
X129357142Y55142858D01*
X129357142Y55047620D01*
X130357142Y55047620D02*
X129785714Y55047620D01*
X130071428Y55047620D02*
X130071428Y56047620D01*
X129976190Y55904762D01*
X129880952Y55809524D01*
X129785714Y55761905D01*
X59273809Y88797620D02*
X58940476Y89273810D01*
X58702380Y88797620D02*
X58702380Y89797620D01*
X59083333Y89797620D01*
X59178571Y89750000D01*
X59226190Y89702381D01*
X59273809Y89607143D01*
X59273809Y89464286D01*
X59226190Y89369048D01*
X59178571Y89321429D01*
X59083333Y89273810D01*
X58702380Y89273810D01*
X60130952Y88797620D02*
X60130952Y89321429D01*
X60083333Y89416667D01*
X59988095Y89464286D01*
X59797619Y89464286D01*
X59702380Y89416667D01*
X60130952Y88845239D02*
X60035714Y88797620D01*
X59797619Y88797620D01*
X59702380Y88845239D01*
X59654761Y88940477D01*
X59654761Y89035715D01*
X59702380Y89130953D01*
X59797619Y89178572D01*
X60035714Y89178572D01*
X60130952Y89226191D01*
X60559523Y88845239D02*
X60654761Y88797620D01*
X60845238Y88797620D01*
X60940476Y88845239D01*
X60988095Y88940477D01*
X60988095Y88988096D01*
X60940476Y89083334D01*
X60845238Y89130953D01*
X60702380Y89130953D01*
X60607142Y89178572D01*
X60559523Y89273810D01*
X60559523Y89321429D01*
X60607142Y89416667D01*
X60702380Y89464286D01*
X60845238Y89464286D01*
X60940476Y89416667D01*
X61416666Y89464286D02*
X61416666Y88464286D01*
X61416666Y89416667D02*
X61511904Y89464286D01*
X61702380Y89464286D01*
X61797619Y89416667D01*
X61845238Y89369048D01*
X61892857Y89273810D01*
X61892857Y88988096D01*
X61845238Y88892858D01*
X61797619Y88845239D01*
X61702380Y88797620D01*
X61511904Y88797620D01*
X61416666Y88845239D01*
X62321428Y88797620D02*
X62321428Y89797620D01*
X62321428Y89416667D02*
X62416666Y89464286D01*
X62607142Y89464286D01*
X62702380Y89416667D01*
X62750000Y89369048D01*
X62797619Y89273810D01*
X62797619Y88988096D01*
X62750000Y88892858D01*
X62702380Y88845239D01*
X62607142Y88797620D01*
X62416666Y88797620D01*
X62321428Y88845239D01*
X63607142Y88845239D02*
X63511904Y88797620D01*
X63321428Y88797620D01*
X63226190Y88845239D01*
X63178571Y88940477D01*
X63178571Y89321429D01*
X63226190Y89416667D01*
X63321428Y89464286D01*
X63511904Y89464286D01*
X63607142Y89416667D01*
X63654761Y89321429D01*
X63654761Y89226191D01*
X63178571Y89130953D01*
X64083333Y88797620D02*
X64083333Y89464286D01*
X64083333Y89273810D02*
X64130952Y89369048D01*
X64178571Y89416667D01*
X64273809Y89464286D01*
X64369047Y89464286D01*
X64702380Y88797620D02*
X64702380Y89464286D01*
X64702380Y89273810D02*
X64750000Y89369048D01*
X64797619Y89416667D01*
X64892857Y89464286D01*
X64988095Y89464286D01*
X65226190Y89464286D02*
X65464285Y88797620D01*
X65702380Y89464286D02*
X65464285Y88797620D01*
X65369047Y88559524D01*
X65321428Y88511905D01*
X65226190Y88464286D01*
X66845238Y88797620D02*
X66845238Y89797620D01*
X67226190Y89797620D01*
X67321428Y89750000D01*
X67369047Y89702381D01*
X67416666Y89607143D01*
X67416666Y89464286D01*
X67369047Y89369048D01*
X67321428Y89321429D01*
X67226190Y89273810D01*
X66845238Y89273810D01*
X67845238Y88797620D02*
X67845238Y89797620D01*
X68988095Y89797620D02*
X69654761Y89797620D01*
X68988095Y88797620D01*
X69654761Y88797620D01*
X70416666Y88845239D02*
X70321428Y88797620D01*
X70130952Y88797620D01*
X70035714Y88845239D01*
X69988095Y88940477D01*
X69988095Y89321429D01*
X70035714Y89416667D01*
X70130952Y89464286D01*
X70321428Y89464286D01*
X70416666Y89416667D01*
X70464285Y89321429D01*
X70464285Y89226191D01*
X69988095Y89130953D01*
X70892857Y88797620D02*
X70892857Y89464286D01*
X70892857Y89273810D02*
X70940476Y89369048D01*
X70988095Y89416667D01*
X71083333Y89464286D01*
X71178571Y89464286D01*
X71654761Y88797620D02*
X71559523Y88845239D01*
X71511904Y88892858D01*
X71464285Y88988096D01*
X71464285Y89273810D01*
X71511904Y89369048D01*
X71559523Y89416667D01*
X71654761Y89464286D01*
X71797619Y89464286D01*
X71892857Y89416667D01*
X71940476Y89369048D01*
X71988095Y89273810D01*
X71988095Y88988096D01*
X71940476Y88892858D01*
X71892857Y88845239D01*
X71797619Y88797620D01*
X71654761Y88797620D01*
X73130952Y89702381D02*
X73178571Y89750000D01*
X73273809Y89797620D01*
X73511904Y89797620D01*
X73607142Y89750000D01*
X73654761Y89702381D01*
X73702380Y89607143D01*
X73702380Y89511905D01*
X73654761Y89369048D01*
X73083333Y88797620D01*
X73702380Y88797620D01*
X74035714Y89797620D02*
X74273809Y88797620D01*
X74464285Y89511905D01*
X74654761Y88797620D01*
X74892857Y89797620D01*
%TO.C,U1*%
X38270000Y57270000D02*
X2710000Y57270000D01*
X2710000Y57270000D02*
X2710000Y39490000D01*
X2710000Y39490000D02*
X38270000Y39490000D01*
X38270000Y39490000D02*
X38270000Y57270000D01*
X38270000Y31870000D02*
X2710000Y31870000D01*
X2710000Y31870000D02*
X2710000Y68700000D01*
X2710000Y68700000D02*
X38270000Y68700000D01*
X38270000Y68700000D02*
X38270000Y31870000D01*
X38267460Y60564380D02*
X22941100Y60564380D01*
X22941100Y60564380D02*
X22941100Y66553700D01*
X22941100Y66553700D02*
X38267460Y66553700D01*
D13*
X40810000Y45840000D02*
X30650000Y45840000D01*
X30650000Y45840000D02*
X30650000Y52190000D01*
X30650000Y52190000D02*
X40810000Y52190000D01*
X40810000Y52190000D02*
X40810000Y45840000D01*
%TO.C,J10*%
X44000000Y500000D02*
X62000000Y500000D01*
X62000000Y500000D02*
X62000000Y28500000D01*
X62000000Y28500000D02*
X44000000Y28500000D01*
X44000000Y28500000D02*
X44000000Y500000D01*
X47000000Y500000D02*
X47000000Y-4500000D01*
X47000000Y-4500000D02*
X59000000Y-4500000D01*
X59000000Y-4500000D02*
X59000000Y500000D01*
X48000000Y-4500000D02*
X48000000Y-8000000D01*
X48000000Y-8000000D02*
X58000000Y-8000000D01*
X58000000Y-8000000D02*
X58000000Y-4500000D01*
%TO.C,J11*%
X67000000Y500000D02*
X85000000Y500000D01*
X85000000Y500000D02*
X85000000Y28500000D01*
X85000000Y28500000D02*
X67000000Y28500000D01*
X67000000Y28500000D02*
X67000000Y500000D01*
X70000000Y500000D02*
X70000000Y-4500000D01*
X70000000Y-4500000D02*
X82000000Y-4500000D01*
X82000000Y-4500000D02*
X82000000Y500000D01*
X71000000Y-4500000D02*
X71000000Y-8000000D01*
X71000000Y-8000000D02*
X81000000Y-8000000D01*
X81000000Y-8000000D02*
X81000000Y-4500000D01*
%TO.C,J12*%
X90000000Y500000D02*
X108000000Y500000D01*
X108000000Y500000D02*
X108000000Y28500000D01*
X108000000Y28500000D02*
X90000000Y28500000D01*
X90000000Y28500000D02*
X90000000Y500000D01*
X93000000Y500000D02*
X93000000Y-4500000D01*
X93000000Y-4500000D02*
X105000000Y-4500000D01*
X105000000Y-4500000D02*
X105000000Y500000D01*
X94000000Y-4500000D02*
X94000000Y-8000000D01*
X94000000Y-8000000D02*
X104000000Y-8000000D01*
X104000000Y-8000000D02*
X104000000Y-4500000D01*
%TO.C,J13*%
X113000000Y500000D02*
X131000000Y500000D01*
X131000000Y500000D02*
X131000000Y28500000D01*
X131000000Y28500000D02*
X113000000Y28500000D01*
X113000000Y28500000D02*
X113000000Y500000D01*
X116000000Y500000D02*
X116000000Y-4500000D01*
X116000000Y-4500000D02*
X128000000Y-4500000D01*
X128000000Y-4500000D02*
X128000000Y500000D01*
X117000000Y-4500000D02*
X117000000Y-8000000D01*
X117000000Y-8000000D02*
X127000000Y-8000000D01*
X127000000Y-8000000D02*
X127000000Y-4500000D01*
%TO.C,J14*%
X20000000Y500000D02*
X38000000Y500000D01*
X38000000Y500000D02*
X38000000Y28500000D01*
X38000000Y28500000D02*
X20000000Y28500000D01*
X20000000Y28500000D02*
X20000000Y500000D01*
X23000000Y500000D02*
X23000000Y-4500000D01*
X23000000Y-4500000D02*
X35000000Y-4500000D01*
X35000000Y-4500000D02*
X35000000Y500000D01*
X24000000Y-4500000D02*
X24000000Y-8000000D01*
X24000000Y-8000000D02*
X34000000Y-8000000D01*
X34000000Y-8000000D02*
X34000000Y-4500000D01*
%TO.C,J9*%
X133000000Y0D02*
X145000000Y0D01*
X145000000Y0D02*
X145000000Y14000000D01*
X145000000Y14000000D02*
X133000000Y14000000D01*
X133000000Y14000000D02*
X133000000Y0D01*
X136000000Y0D02*
X136000000Y-3000000D01*
X136000000Y-3000000D02*
X142000000Y-3000000D01*
X142000000Y-3000000D02*
X142000000Y0D01*
D12*
%TO.C,REF\u002A\u002A*%
X7200000Y88500000D02*
G75*
G03*
X7200000Y88500000I-3200000J0D01*
G01*
X7200000Y27000000D02*
G75*
G03*
X7200000Y27000000I-3200000J0D01*
G01*
X44200000Y30000000D02*
G75*
G03*
X44200000Y30000000I-3200000J0D01*
G01*
X147200000Y27000000D02*
G75*
G03*
X147200000Y27000000I-3200000J0D01*
G01*
X147200000Y88500000D02*
G75*
G03*
X147200000Y88500000I-3200000J0D01*
G01*
D13*
%TO.C,R5*%
X122840000Y36740000D02*
X122840000Y37070000D01*
X122840000Y37070000D02*
X129380000Y37070000D01*
X129380000Y37070000D02*
X129380000Y36740000D01*
X122840000Y34660000D02*
X122840000Y34330000D01*
X122840000Y34330000D02*
X129380000Y34330000D01*
X129380000Y34330000D02*
X129380000Y34660000D01*
D12*
%TO.C,U2*%
X126353026Y51450000D02*
G75*
G03*
X126353026Y51450000I-898026J0D01*
G01*
X105770000Y57800000D02*
X105770000Y45100000D01*
X118470000Y57800000D02*
X105770000Y57800000D01*
X118470000Y45100000D02*
X118470000Y57800000D01*
X105770000Y45100000D02*
X118470000Y45100000D01*
X96140000Y57801600D02*
X96140000Y57551600D01*
X100140000Y57801600D02*
X96140000Y57801600D01*
X100140000Y51551600D02*
X100140000Y57801600D01*
X96140000Y51551600D02*
X100140000Y51551600D01*
X96140000Y57551600D02*
X96140000Y51551600D01*
X91749200Y48150800D02*
X91749200Y45610800D01*
X89209200Y48150800D02*
X91749200Y48150800D01*
X89209200Y45610800D02*
X89209200Y48150800D01*
X101909200Y45610800D02*
X89209200Y45610800D01*
X101909200Y48150800D02*
X101909200Y45610800D01*
X89209200Y48150800D02*
X101909200Y48150800D01*
X123550000Y52720000D02*
X127360000Y52720000D01*
X123550000Y50180000D02*
X123550000Y52720000D01*
X127360000Y50180000D02*
X123550000Y50180000D01*
X127360000Y52720000D02*
X127360000Y50180000D01*
X142600000Y46370000D02*
X143870000Y46370000D01*
X142600000Y56530000D02*
X142600000Y46370000D01*
X143870000Y56530000D02*
X142600000Y56530000D01*
X131170000Y45100000D02*
X143870000Y45100000D01*
X131170000Y57800000D02*
X131170000Y45100000D01*
X143870000Y57800000D02*
X131170000Y57800000D01*
X82910000Y47640000D02*
X81640000Y47640000D01*
X81640000Y47640000D02*
X81640000Y55260000D01*
X81640000Y55260000D02*
X82910000Y55260000D01*
X87990000Y47640000D02*
X87990000Y55260000D01*
X87990000Y55260000D02*
X82910000Y55260000D01*
X87990000Y47640000D02*
X82910000Y47640000D01*
X82910000Y60340000D02*
X143870000Y60340000D01*
X143870000Y60340000D02*
X143870000Y42560000D01*
X143870000Y42560000D02*
X82910000Y42560000D01*
X82910000Y42560000D02*
X82910000Y60340000D01*
D14*
G36*
X115825000Y50995000D02*
G01*
X115571000Y50741000D01*
X115317000Y51122000D01*
X115571000Y51376000D01*
X115825000Y50995000D01*
G37*
X115825000Y50995000D02*
X115571000Y50741000D01*
X115317000Y51122000D01*
X115571000Y51376000D01*
X115825000Y50995000D01*
G36*
X115444000Y51503000D02*
G01*
X115190000Y51249000D01*
X114936000Y51630000D01*
X115190000Y51884000D01*
X115444000Y51503000D01*
G37*
X115444000Y51503000D02*
X115190000Y51249000D01*
X114936000Y51630000D01*
X115190000Y51884000D01*
X115444000Y51503000D01*
G36*
X115063000Y52011000D02*
G01*
X114809000Y51757000D01*
X114555000Y52138000D01*
X114809000Y52392000D01*
X115063000Y52011000D01*
G37*
X115063000Y52011000D02*
X114809000Y51757000D01*
X114555000Y52138000D01*
X114809000Y52392000D01*
X115063000Y52011000D01*
G36*
X115063000Y51122000D02*
G01*
X114809000Y50868000D01*
X114555000Y51249000D01*
X114809000Y51503000D01*
X115063000Y51122000D01*
G37*
X115063000Y51122000D02*
X114809000Y50868000D01*
X114555000Y51249000D01*
X114809000Y51503000D01*
X115063000Y51122000D01*
G36*
X114682000Y51630000D02*
G01*
X114428000Y51376000D01*
X114174000Y51757000D01*
X114428000Y52011000D01*
X114682000Y51630000D01*
G37*
X114682000Y51630000D02*
X114428000Y51376000D01*
X114174000Y51757000D01*
X114428000Y52011000D01*
X114682000Y51630000D01*
G36*
X114301000Y52138000D02*
G01*
X114047000Y51884000D01*
X113793000Y52265000D01*
X114047000Y52519000D01*
X114301000Y52138000D01*
G37*
X114301000Y52138000D02*
X114047000Y51884000D01*
X113793000Y52265000D01*
X114047000Y52519000D01*
X114301000Y52138000D01*
G36*
X116206000Y51376000D02*
G01*
X115952000Y51122000D01*
X115698000Y51503000D01*
X115952000Y51757000D01*
X116206000Y51376000D01*
G37*
X116206000Y51376000D02*
X115952000Y51122000D01*
X115698000Y51503000D01*
X115952000Y51757000D01*
X116206000Y51376000D01*
G36*
X116587000Y51757000D02*
G01*
X116333000Y51503000D01*
X116079000Y51884000D01*
X116333000Y52138000D01*
X116587000Y51757000D01*
G37*
X116587000Y51757000D02*
X116333000Y51503000D01*
X116079000Y51884000D01*
X116333000Y52138000D01*
X116587000Y51757000D01*
D13*
%TO.C,C1*%
X67220000Y63100000D02*
G75*
G03*
X67220000Y63100000I-4120000J0D01*
G01*
X67180000Y63100000D02*
X59020000Y63100000D01*
X67180000Y63060000D02*
X59020000Y63060000D01*
X67180000Y63020000D02*
X59020000Y63020000D01*
X67179000Y62980000D02*
X59021000Y62980000D01*
X67177000Y62940000D02*
X59023000Y62940000D01*
X67176000Y62900000D02*
X59024000Y62900000D01*
X67174000Y62860000D02*
X59026000Y62860000D01*
X67171000Y62820000D02*
X59029000Y62820000D01*
X67168000Y62780000D02*
X59032000Y62780000D01*
X67165000Y62740000D02*
X59035000Y62740000D01*
X67161000Y62700000D02*
X59039000Y62700000D01*
X67157000Y62660000D02*
X59043000Y62660000D01*
X67152000Y62620000D02*
X59048000Y62620000D01*
X67148000Y62580000D02*
X59052000Y62580000D01*
X67142000Y62540000D02*
X59058000Y62540000D01*
X67137000Y62500000D02*
X59063000Y62500000D01*
X67130000Y62460000D02*
X59070000Y62460000D01*
X67124000Y62420000D02*
X59076000Y62420000D01*
X67117000Y62379000D02*
X59083000Y62379000D01*
X67110000Y62339000D02*
X59090000Y62339000D01*
X67102000Y62299000D02*
X59098000Y62299000D01*
X67094000Y62259000D02*
X59106000Y62259000D01*
X67085000Y62219000D02*
X64140000Y62219000D01*
X62060000Y62219000D02*
X59115000Y62219000D01*
X67076000Y62179000D02*
X64140000Y62179000D01*
X62060000Y62179000D02*
X59124000Y62179000D01*
X67067000Y62139000D02*
X64140000Y62139000D01*
X62060000Y62139000D02*
X59133000Y62139000D01*
X67057000Y62099000D02*
X64140000Y62099000D01*
X62060000Y62099000D02*
X59143000Y62099000D01*
X67047000Y62059000D02*
X64140000Y62059000D01*
X62060000Y62059000D02*
X59153000Y62059000D01*
X67036000Y62019000D02*
X64140000Y62019000D01*
X62060000Y62019000D02*
X59164000Y62019000D01*
X67025000Y61979000D02*
X64140000Y61979000D01*
X62060000Y61979000D02*
X59175000Y61979000D01*
X67014000Y61939000D02*
X64140000Y61939000D01*
X62060000Y61939000D02*
X59186000Y61939000D01*
X67002000Y61899000D02*
X64140000Y61899000D01*
X62060000Y61899000D02*
X59198000Y61899000D01*
X66989000Y61859000D02*
X64140000Y61859000D01*
X62060000Y61859000D02*
X59211000Y61859000D01*
X66977000Y61819000D02*
X64140000Y61819000D01*
X62060000Y61819000D02*
X59223000Y61819000D01*
X66963000Y61779000D02*
X64140000Y61779000D01*
X62060000Y61779000D02*
X59237000Y61779000D01*
X66950000Y61739000D02*
X64140000Y61739000D01*
X62060000Y61739000D02*
X59250000Y61739000D01*
X66935000Y61699000D02*
X64140000Y61699000D01*
X62060000Y61699000D02*
X59265000Y61699000D01*
X66921000Y61659000D02*
X64140000Y61659000D01*
X62060000Y61659000D02*
X59279000Y61659000D01*
X66905000Y61619000D02*
X64140000Y61619000D01*
X62060000Y61619000D02*
X59295000Y61619000D01*
X66890000Y61579000D02*
X64140000Y61579000D01*
X62060000Y61579000D02*
X59310000Y61579000D01*
X66874000Y61539000D02*
X64140000Y61539000D01*
X62060000Y61539000D02*
X59326000Y61539000D01*
X66857000Y61499000D02*
X64140000Y61499000D01*
X62060000Y61499000D02*
X59343000Y61499000D01*
X66840000Y61459000D02*
X64140000Y61459000D01*
X62060000Y61459000D02*
X59360000Y61459000D01*
X66822000Y61419000D02*
X64140000Y61419000D01*
X62060000Y61419000D02*
X59378000Y61419000D01*
X66804000Y61379000D02*
X64140000Y61379000D01*
X62060000Y61379000D02*
X59396000Y61379000D01*
X66786000Y61339000D02*
X64140000Y61339000D01*
X62060000Y61339000D02*
X59414000Y61339000D01*
X66766000Y61299000D02*
X64140000Y61299000D01*
X62060000Y61299000D02*
X59434000Y61299000D01*
X66747000Y61259000D02*
X64140000Y61259000D01*
X62060000Y61259000D02*
X59453000Y61259000D01*
X66727000Y61219000D02*
X64140000Y61219000D01*
X62060000Y61219000D02*
X59473000Y61219000D01*
X66706000Y61179000D02*
X64140000Y61179000D01*
X62060000Y61179000D02*
X59494000Y61179000D01*
X66684000Y61139000D02*
X64140000Y61139000D01*
X62060000Y61139000D02*
X59516000Y61139000D01*
X66662000Y61099000D02*
X64140000Y61099000D01*
X62060000Y61099000D02*
X59538000Y61099000D01*
X66640000Y61059000D02*
X64140000Y61059000D01*
X62060000Y61059000D02*
X59560000Y61059000D01*
X66617000Y61019000D02*
X64140000Y61019000D01*
X62060000Y61019000D02*
X59583000Y61019000D01*
X66593000Y60979000D02*
X64140000Y60979000D01*
X62060000Y60979000D02*
X59607000Y60979000D01*
X66569000Y60939000D02*
X64140000Y60939000D01*
X62060000Y60939000D02*
X59631000Y60939000D01*
X66544000Y60899000D02*
X64140000Y60899000D01*
X62060000Y60899000D02*
X59656000Y60899000D01*
X66518000Y60859000D02*
X64140000Y60859000D01*
X62060000Y60859000D02*
X59682000Y60859000D01*
X66492000Y60819000D02*
X64140000Y60819000D01*
X62060000Y60819000D02*
X59708000Y60819000D01*
X66465000Y60779000D02*
X64140000Y60779000D01*
X62060000Y60779000D02*
X59735000Y60779000D01*
X66438000Y60739000D02*
X64140000Y60739000D01*
X62060000Y60739000D02*
X59762000Y60739000D01*
X66409000Y60699000D02*
X64140000Y60699000D01*
X62060000Y60699000D02*
X59791000Y60699000D01*
X66380000Y60659000D02*
X64140000Y60659000D01*
X62060000Y60659000D02*
X59820000Y60659000D01*
X66350000Y60619000D02*
X64140000Y60619000D01*
X62060000Y60619000D02*
X59850000Y60619000D01*
X66320000Y60579000D02*
X64140000Y60579000D01*
X62060000Y60579000D02*
X59880000Y60579000D01*
X66289000Y60539000D02*
X64140000Y60539000D01*
X62060000Y60539000D02*
X59911000Y60539000D01*
X66256000Y60499000D02*
X64140000Y60499000D01*
X62060000Y60499000D02*
X59944000Y60499000D01*
X66224000Y60459000D02*
X64140000Y60459000D01*
X62060000Y60459000D02*
X59976000Y60459000D01*
X66190000Y60419000D02*
X64140000Y60419000D01*
X62060000Y60419000D02*
X60010000Y60419000D01*
X66155000Y60379000D02*
X64140000Y60379000D01*
X62060000Y60379000D02*
X60045000Y60379000D01*
X66119000Y60339000D02*
X64140000Y60339000D01*
X62060000Y60339000D02*
X60081000Y60339000D01*
X66083000Y60299000D02*
X64140000Y60299000D01*
X62060000Y60299000D02*
X60117000Y60299000D01*
X66045000Y60259000D02*
X64140000Y60259000D01*
X62060000Y60259000D02*
X60155000Y60259000D01*
X66007000Y60219000D02*
X64140000Y60219000D01*
X62060000Y60219000D02*
X60193000Y60219000D01*
X65967000Y60179000D02*
X64140000Y60179000D01*
X62060000Y60179000D02*
X60233000Y60179000D01*
X65926000Y60139000D02*
X60274000Y60139000D01*
X65884000Y60099000D02*
X60316000Y60099000D01*
X65841000Y60059000D02*
X60359000Y60059000D01*
X65797000Y60019000D02*
X60403000Y60019000D01*
X65751000Y59979000D02*
X60449000Y59979000D01*
X65704000Y59939000D02*
X60496000Y59939000D01*
X65656000Y59899000D02*
X60544000Y59899000D01*
X65605000Y59859000D02*
X60595000Y59859000D01*
X65554000Y59819000D02*
X60646000Y59819000D01*
X65500000Y59779000D02*
X60700000Y59779000D01*
X65445000Y59739000D02*
X60755000Y59739000D01*
X65387000Y59699000D02*
X60813000Y59699000D01*
X65328000Y59659000D02*
X60872000Y59659000D01*
X65266000Y59619000D02*
X60934000Y59619000D01*
X65202000Y59579000D02*
X60998000Y59579000D01*
X65134000Y59539000D02*
X61066000Y59539000D01*
X65064000Y59499000D02*
X61136000Y59499000D01*
X64990000Y59459000D02*
X61210000Y59459000D01*
X64913000Y59419000D02*
X61287000Y59419000D01*
X64831000Y59379000D02*
X61369000Y59379000D01*
X64745000Y59339000D02*
X61455000Y59339000D01*
X64652000Y59299000D02*
X61548000Y59299000D01*
X64553000Y59259000D02*
X61647000Y59259000D01*
X64446000Y59219000D02*
X61754000Y59219000D01*
X64329000Y59179000D02*
X61871000Y59179000D01*
X64198000Y59139000D02*
X62002000Y59139000D01*
X64048000Y59099000D02*
X62152000Y59099000D01*
X63868000Y59059000D02*
X62332000Y59059000D01*
X63633000Y59019000D02*
X62567000Y59019000D01*
X65415000Y67509698D02*
X65415000Y66709698D01*
X65815000Y67109698D02*
X65015000Y67109698D01*
%TO.C,C2*%
X93669801Y66205000D02*
X93669801Y66605000D01*
X93869801Y66405000D02*
X93469801Y66405000D01*
X89519000Y67230000D02*
X89519000Y67970000D01*
X89559000Y67063000D02*
X89559000Y68137000D01*
X89599000Y66936000D02*
X89599000Y68264000D01*
X89639000Y66832000D02*
X89639000Y68368000D01*
X89679000Y66741000D02*
X89679000Y68459000D01*
X89719000Y66660000D02*
X89719000Y68540000D01*
X89759000Y66587000D02*
X89759000Y68613000D01*
X89799000Y68440000D02*
X89799000Y68680000D01*
X89799000Y66520000D02*
X89799000Y66760000D01*
X89839000Y68440000D02*
X89839000Y68742000D01*
X89839000Y66458000D02*
X89839000Y66760000D01*
X89879000Y68440000D02*
X89879000Y68800000D01*
X89879000Y66400000D02*
X89879000Y66760000D01*
X89919000Y68440000D02*
X89919000Y68854000D01*
X89919000Y66346000D02*
X89919000Y66760000D01*
X89959000Y68440000D02*
X89959000Y68904000D01*
X89959000Y66296000D02*
X89959000Y66760000D01*
X89999000Y68440000D02*
X89999000Y68951000D01*
X89999000Y66249000D02*
X89999000Y66760000D01*
X90039000Y68440000D02*
X90039000Y68996000D01*
X90039000Y66204000D02*
X90039000Y66760000D01*
X90079000Y68440000D02*
X90079000Y69038000D01*
X90079000Y66162000D02*
X90079000Y66760000D01*
X90119000Y68440000D02*
X90119000Y69078000D01*
X90119000Y66122000D02*
X90119000Y66760000D01*
X90159000Y68440000D02*
X90159000Y69116000D01*
X90159000Y66084000D02*
X90159000Y66760000D01*
X90199000Y68440000D02*
X90199000Y69152000D01*
X90199000Y66048000D02*
X90199000Y66760000D01*
X90239000Y68440000D02*
X90239000Y69187000D01*
X90239000Y66013000D02*
X90239000Y66760000D01*
X90279000Y68440000D02*
X90279000Y69219000D01*
X90279000Y65981000D02*
X90279000Y66760000D01*
X90319000Y68440000D02*
X90319000Y69250000D01*
X90319000Y65950000D02*
X90319000Y66760000D01*
X90359000Y68440000D02*
X90359000Y69280000D01*
X90359000Y65920000D02*
X90359000Y66760000D01*
X90399000Y68440000D02*
X90399000Y69308000D01*
X90399000Y65892000D02*
X90399000Y66760000D01*
X90439000Y68440000D02*
X90439000Y69335000D01*
X90439000Y65865000D02*
X90439000Y66760000D01*
X90479000Y68440000D02*
X90479000Y69360000D01*
X90479000Y65840000D02*
X90479000Y66760000D01*
X90519000Y68440000D02*
X90519000Y69385000D01*
X90519000Y65815000D02*
X90519000Y66760000D01*
X90559000Y68440000D02*
X90559000Y69408000D01*
X90559000Y65792000D02*
X90559000Y66760000D01*
X90599000Y68440000D02*
X90599000Y69430000D01*
X90599000Y65770000D02*
X90599000Y66760000D01*
X90639000Y68440000D02*
X90639000Y69451000D01*
X90639000Y65749000D02*
X90639000Y66760000D01*
X90679000Y68440000D02*
X90679000Y69470000D01*
X90679000Y65730000D02*
X90679000Y66760000D01*
X90719000Y68440000D02*
X90719000Y69489000D01*
X90719000Y65711000D02*
X90719000Y66760000D01*
X90759000Y68440000D02*
X90759000Y69507000D01*
X90759000Y65693000D02*
X90759000Y66760000D01*
X90799000Y68440000D02*
X90799000Y69524000D01*
X90799000Y65676000D02*
X90799000Y66760000D01*
X90839000Y68440000D02*
X90839000Y69540000D01*
X90839000Y65660000D02*
X90839000Y66760000D01*
X90879000Y68440000D02*
X90879000Y69554000D01*
X90879000Y65646000D02*
X90879000Y66760000D01*
X90920000Y68440000D02*
X90920000Y69568000D01*
X90920000Y65632000D02*
X90920000Y66760000D01*
X90960000Y68440000D02*
X90960000Y69582000D01*
X90960000Y65618000D02*
X90960000Y66760000D01*
X91000000Y68440000D02*
X91000000Y69594000D01*
X91000000Y65606000D02*
X91000000Y66760000D01*
X91040000Y68440000D02*
X91040000Y69605000D01*
X91040000Y65595000D02*
X91040000Y66760000D01*
X91080000Y68440000D02*
X91080000Y69616000D01*
X91080000Y65584000D02*
X91080000Y66760000D01*
X91120000Y68440000D02*
X91120000Y69625000D01*
X91120000Y65575000D02*
X91120000Y66760000D01*
X91160000Y68440000D02*
X91160000Y69634000D01*
X91160000Y65566000D02*
X91160000Y66760000D01*
X91200000Y68440000D02*
X91200000Y69642000D01*
X91200000Y65558000D02*
X91200000Y66760000D01*
X91240000Y68440000D02*
X91240000Y69650000D01*
X91240000Y65550000D02*
X91240000Y66760000D01*
X91280000Y68440000D02*
X91280000Y69656000D01*
X91280000Y65544000D02*
X91280000Y66760000D01*
X91320000Y68440000D02*
X91320000Y69662000D01*
X91320000Y65538000D02*
X91320000Y66760000D01*
X91360000Y68440000D02*
X91360000Y69667000D01*
X91360000Y65533000D02*
X91360000Y66760000D01*
X91400000Y68440000D02*
X91400000Y69671000D01*
X91400000Y65529000D02*
X91400000Y66760000D01*
X91440000Y65526000D02*
X91440000Y69674000D01*
X91480000Y65523000D02*
X91480000Y69677000D01*
X91520000Y65521000D02*
X91520000Y69679000D01*
X91560000Y65520000D02*
X91560000Y69680000D01*
X91600000Y65520000D02*
X91600000Y69680000D01*
X93720000Y67600000D02*
G75*
G03*
X93720000Y67600000I-2120000J0D01*
G01*
%TO.C,J1*%
X108550000Y80150000D02*
X108550000Y78900000D01*
X109800000Y80150000D02*
X108550000Y80150000D01*
X125700000Y74650000D02*
X117650000Y74650000D01*
X125700000Y77600000D02*
X125700000Y74650000D01*
X126450000Y77600000D02*
X125700000Y77600000D01*
X109600000Y74650000D02*
X117650000Y74650000D01*
X109600000Y77600000D02*
X109600000Y74650000D01*
X108850000Y77600000D02*
X109600000Y77600000D01*
X126450000Y79850000D02*
X124650000Y79850000D01*
X126450000Y79100000D02*
X126450000Y79850000D01*
X124650000Y79100000D02*
X126450000Y79100000D01*
X124650000Y79850000D02*
X124650000Y79100000D01*
X110650000Y79850000D02*
X108850000Y79850000D01*
X110650000Y79100000D02*
X110650000Y79850000D01*
X108850000Y79100000D02*
X110650000Y79100000D01*
X108850000Y79850000D02*
X108850000Y79100000D01*
X123150000Y79850000D02*
X112150000Y79850000D01*
X123150000Y79100000D02*
X123150000Y79850000D01*
X112150000Y79100000D02*
X123150000Y79100000D01*
X112150000Y79850000D02*
X112150000Y79100000D01*
X126460000Y79860000D02*
X108840000Y79860000D01*
X126460000Y73890000D02*
X126460000Y79860000D01*
X108840000Y73890000D02*
X126460000Y73890000D01*
X108840000Y79860000D02*
X108840000Y73890000D01*
%TO.C,J2*%
X127750000Y80150000D02*
X127750000Y78900000D01*
X129000000Y80150000D02*
X127750000Y80150000D01*
X142400000Y74650000D02*
X135600000Y74650000D01*
X142400000Y77600000D02*
X142400000Y74650000D01*
X143150000Y77600000D02*
X142400000Y77600000D01*
X128800000Y74650000D02*
X135600000Y74650000D01*
X128800000Y77600000D02*
X128800000Y74650000D01*
X128050000Y77600000D02*
X128800000Y77600000D01*
X143150000Y79850000D02*
X141350000Y79850000D01*
X143150000Y79100000D02*
X143150000Y79850000D01*
X141350000Y79100000D02*
X143150000Y79100000D01*
X141350000Y79850000D02*
X141350000Y79100000D01*
X129850000Y79850000D02*
X128050000Y79850000D01*
X129850000Y79100000D02*
X129850000Y79850000D01*
X128050000Y79100000D02*
X129850000Y79100000D01*
X128050000Y79850000D02*
X128050000Y79100000D01*
X139850000Y79850000D02*
X131350000Y79850000D01*
X139850000Y79100000D02*
X139850000Y79850000D01*
X131350000Y79100000D02*
X139850000Y79100000D01*
X131350000Y79850000D02*
X131350000Y79100000D01*
X143160000Y79860000D02*
X128040000Y79860000D01*
X143160000Y73890000D02*
X143160000Y79860000D01*
X128040000Y73890000D02*
X143160000Y73890000D01*
X128040000Y79860000D02*
X128040000Y73890000D01*
%TO.C,J3*%
X120050000Y31750000D02*
X120050000Y33000000D01*
X118800000Y31750000D02*
X120050000Y31750000D01*
X97900000Y37250000D02*
X108450000Y37250000D01*
X97900000Y34300000D02*
X97900000Y37250000D01*
X97150000Y34300000D02*
X97900000Y34300000D01*
X119000000Y37250000D02*
X108450000Y37250000D01*
X119000000Y34300000D02*
X119000000Y37250000D01*
X119750000Y34300000D02*
X119000000Y34300000D01*
X97150000Y32050000D02*
X98950000Y32050000D01*
X97150000Y32800000D02*
X97150000Y32050000D01*
X98950000Y32800000D02*
X97150000Y32800000D01*
X98950000Y32050000D02*
X98950000Y32800000D01*
X117950000Y32050000D02*
X119750000Y32050000D01*
X117950000Y32800000D02*
X117950000Y32050000D01*
X119750000Y32800000D02*
X117950000Y32800000D01*
X119750000Y32050000D02*
X119750000Y32800000D01*
X100450000Y32050000D02*
X116450000Y32050000D01*
X100450000Y32800000D02*
X100450000Y32050000D01*
X116450000Y32800000D02*
X100450000Y32800000D01*
X116450000Y32050000D02*
X116450000Y32800000D01*
X97140000Y32040000D02*
X119760000Y32040000D01*
X97140000Y38010000D02*
X97140000Y32040000D01*
X119760000Y38010000D02*
X97140000Y38010000D01*
X119760000Y32040000D02*
X119760000Y38010000D01*
%TO.C,J4*%
X78560000Y69040000D02*
X78560000Y75010000D01*
X78560000Y75010000D02*
X55940000Y75010000D01*
X55940000Y75010000D02*
X55940000Y69040000D01*
X55940000Y69040000D02*
X78560000Y69040000D01*
X75250000Y69050000D02*
X75250000Y69800000D01*
X75250000Y69800000D02*
X59250000Y69800000D01*
X59250000Y69800000D02*
X59250000Y69050000D01*
X59250000Y69050000D02*
X75250000Y69050000D01*
X78550000Y69050000D02*
X78550000Y69800000D01*
X78550000Y69800000D02*
X76750000Y69800000D01*
X76750000Y69800000D02*
X76750000Y69050000D01*
X76750000Y69050000D02*
X78550000Y69050000D01*
X57750000Y69050000D02*
X57750000Y69800000D01*
X57750000Y69800000D02*
X55950000Y69800000D01*
X55950000Y69800000D02*
X55950000Y69050000D01*
X55950000Y69050000D02*
X57750000Y69050000D01*
X78550000Y71300000D02*
X77800000Y71300000D01*
X77800000Y71300000D02*
X77800000Y74250000D01*
X77800000Y74250000D02*
X67250000Y74250000D01*
X55950000Y71300000D02*
X56700000Y71300000D01*
X56700000Y71300000D02*
X56700000Y74250000D01*
X56700000Y74250000D02*
X67250000Y74250000D01*
X77600000Y68750000D02*
X78850000Y68750000D01*
X78850000Y68750000D02*
X78850000Y70000000D01*
%TO.C,J5*%
X87450000Y78250000D02*
X87450000Y77000000D01*
X88700000Y78250000D02*
X87450000Y78250000D01*
X94600000Y72750000D02*
X91550000Y72750000D01*
X94600000Y75700000D02*
X94600000Y72750000D01*
X95350000Y75700000D02*
X94600000Y75700000D01*
X88500000Y72750000D02*
X91550000Y72750000D01*
X88500000Y75700000D02*
X88500000Y72750000D01*
X87750000Y75700000D02*
X88500000Y75700000D01*
X95350000Y77950000D02*
X93550000Y77950000D01*
X95350000Y77200000D02*
X95350000Y77950000D01*
X93550000Y77200000D02*
X95350000Y77200000D01*
X93550000Y77950000D02*
X93550000Y77200000D01*
X89550000Y77950000D02*
X87750000Y77950000D01*
X89550000Y77200000D02*
X89550000Y77950000D01*
X87750000Y77200000D02*
X89550000Y77200000D01*
X87750000Y77950000D02*
X87750000Y77200000D01*
X92050000Y77950000D02*
X91050000Y77950000D01*
X92050000Y77200000D02*
X92050000Y77950000D01*
X91050000Y77200000D02*
X92050000Y77200000D01*
X91050000Y77950000D02*
X91050000Y77200000D01*
X95360000Y77960000D02*
X87740000Y77960000D01*
X95360000Y71990000D02*
X95360000Y77960000D01*
X87740000Y71990000D02*
X95360000Y71990000D01*
X87740000Y77960000D02*
X87740000Y71990000D01*
%TO.C,J6*%
X16440000Y77960000D02*
X16440000Y71990000D01*
X16440000Y71990000D02*
X24060000Y71990000D01*
X24060000Y71990000D02*
X24060000Y77960000D01*
X24060000Y77960000D02*
X16440000Y77960000D01*
X19750000Y77950000D02*
X19750000Y77200000D01*
X19750000Y77200000D02*
X20750000Y77200000D01*
X20750000Y77200000D02*
X20750000Y77950000D01*
X20750000Y77950000D02*
X19750000Y77950000D01*
X16450000Y77950000D02*
X16450000Y77200000D01*
X16450000Y77200000D02*
X18250000Y77200000D01*
X18250000Y77200000D02*
X18250000Y77950000D01*
X18250000Y77950000D02*
X16450000Y77950000D01*
X22250000Y77950000D02*
X22250000Y77200000D01*
X22250000Y77200000D02*
X24050000Y77200000D01*
X24050000Y77200000D02*
X24050000Y77950000D01*
X24050000Y77950000D02*
X22250000Y77950000D01*
X16450000Y75700000D02*
X17200000Y75700000D01*
X17200000Y75700000D02*
X17200000Y72750000D01*
X17200000Y72750000D02*
X20250000Y72750000D01*
X24050000Y75700000D02*
X23300000Y75700000D01*
X23300000Y75700000D02*
X23300000Y72750000D01*
X23300000Y72750000D02*
X20250000Y72750000D01*
X17400000Y78250000D02*
X16150000Y78250000D01*
X16150000Y78250000D02*
X16150000Y77000000D01*
%TO.C,J8*%
X3150000Y78250000D02*
X3150000Y77000000D01*
X4400000Y78250000D02*
X3150000Y78250000D01*
X10300000Y72750000D02*
X7250000Y72750000D01*
X10300000Y75700000D02*
X10300000Y72750000D01*
X11050000Y75700000D02*
X10300000Y75700000D01*
X4200000Y72750000D02*
X7250000Y72750000D01*
X4200000Y75700000D02*
X4200000Y72750000D01*
X3450000Y75700000D02*
X4200000Y75700000D01*
X11050000Y77950000D02*
X9250000Y77950000D01*
X11050000Y77200000D02*
X11050000Y77950000D01*
X9250000Y77200000D02*
X11050000Y77200000D01*
X9250000Y77950000D02*
X9250000Y77200000D01*
X5250000Y77950000D02*
X3450000Y77950000D01*
X5250000Y77200000D02*
X5250000Y77950000D01*
X3450000Y77200000D02*
X5250000Y77200000D01*
X3450000Y77950000D02*
X3450000Y77200000D01*
X7750000Y77950000D02*
X6750000Y77950000D01*
X7750000Y77200000D02*
X7750000Y77950000D01*
X6750000Y77200000D02*
X7750000Y77200000D01*
X6750000Y77950000D02*
X6750000Y77200000D01*
X11060000Y77960000D02*
X3440000Y77960000D01*
X11060000Y71990000D02*
X11060000Y77960000D01*
X3440000Y71990000D02*
X11060000Y71990000D01*
X3440000Y77960000D02*
X3440000Y71990000D01*
%TO.C,Q1*%
X29520000Y73250000D02*
X33370000Y73250000D01*
X33408611Y73259878D02*
G75*
G03*
X29520000Y73250000I-1948611J1690122D01*
G01*
%TO.C,R1*%
X130920000Y71870000D02*
X130920000Y71540000D01*
X137460000Y71870000D02*
X130920000Y71870000D01*
X137460000Y71540000D02*
X137460000Y71870000D01*
X130920000Y69130000D02*
X130920000Y69460000D01*
X137460000Y69130000D02*
X130920000Y69130000D01*
X137460000Y69460000D02*
X137460000Y69130000D01*
%TO.C,R2*%
X130920000Y68870000D02*
X130920000Y68540000D01*
X137460000Y68870000D02*
X130920000Y68870000D01*
X137460000Y68540000D02*
X137460000Y68870000D01*
X130920000Y66130000D02*
X130920000Y66460000D01*
X137460000Y66130000D02*
X130920000Y66130000D01*
X137460000Y66460000D02*
X137460000Y66130000D01*
%TO.C,R3*%
X52160000Y66360000D02*
X52160000Y66030000D01*
X52160000Y66030000D02*
X45620000Y66030000D01*
X45620000Y66030000D02*
X45620000Y66360000D01*
X52160000Y68440000D02*
X52160000Y68770000D01*
X52160000Y68770000D02*
X45620000Y68770000D01*
X45620000Y68770000D02*
X45620000Y68440000D01*
%TO.C,J16*%
X69260000Y34240000D02*
X69260000Y40210000D01*
X69260000Y40210000D02*
X46640000Y40210000D01*
X46640000Y40210000D02*
X46640000Y34240000D01*
X46640000Y34240000D02*
X69260000Y34240000D01*
X65950000Y34250000D02*
X65950000Y35000000D01*
X65950000Y35000000D02*
X49950000Y35000000D01*
X49950000Y35000000D02*
X49950000Y34250000D01*
X49950000Y34250000D02*
X65950000Y34250000D01*
X69250000Y34250000D02*
X69250000Y35000000D01*
X69250000Y35000000D02*
X67450000Y35000000D01*
X67450000Y35000000D02*
X67450000Y34250000D01*
X67450000Y34250000D02*
X69250000Y34250000D01*
X48450000Y34250000D02*
X48450000Y35000000D01*
X48450000Y35000000D02*
X46650000Y35000000D01*
X46650000Y35000000D02*
X46650000Y34250000D01*
X46650000Y34250000D02*
X48450000Y34250000D01*
X69250000Y36500000D02*
X68500000Y36500000D01*
X68500000Y36500000D02*
X68500000Y39450000D01*
X68500000Y39450000D02*
X57950000Y39450000D01*
X46650000Y36500000D02*
X47400000Y36500000D01*
X47400000Y36500000D02*
X47400000Y39450000D01*
X47400000Y39450000D02*
X57950000Y39450000D01*
X68300000Y33950000D02*
X69550000Y33950000D01*
X69550000Y33950000D02*
X69550000Y35200000D01*
%TO.C,R4*%
X139560000Y46760000D02*
X139560000Y46430000D01*
X139560000Y46430000D02*
X133020000Y46430000D01*
X133020000Y46430000D02*
X133020000Y46760000D01*
X139560000Y48840000D02*
X139560000Y49170000D01*
X139560000Y49170000D02*
X133020000Y49170000D01*
X133020000Y49170000D02*
X133020000Y48840000D01*
%TO.C,R11*%
X102460000Y79540000D02*
X102130000Y79540000D01*
X102130000Y79540000D02*
X102130000Y86080000D01*
X102130000Y86080000D02*
X102460000Y86080000D01*
X104540000Y79540000D02*
X104870000Y79540000D01*
X104870000Y79540000D02*
X104870000Y86080000D01*
X104870000Y86080000D02*
X104540000Y86080000D01*
%TO.C,J15*%
X1000000Y2000000D02*
X15000000Y2000000D01*
X15000000Y2000000D02*
X15000000Y500000D01*
X15000000Y500000D02*
X1000000Y500000D01*
X1000000Y500000D02*
X1000000Y2000000D01*
X4000000Y500000D02*
X4000000Y-6500000D01*
X4000000Y-6500000D02*
X12000000Y-6500000D01*
X12000000Y-6500000D02*
X12000000Y500000D01*
X5000000Y2000000D02*
X5000000Y5500000D01*
X5000000Y5500000D02*
X11000000Y5500000D01*
X11000000Y5500000D02*
X11000000Y2000000D01*
X2500000Y500000D02*
X2500000Y12000000D01*
X2500000Y12000000D02*
X13500000Y12000000D01*
X13500000Y12000000D02*
X13500000Y500000D01*
X1000000Y500000D02*
X-2000000Y500000D01*
X-2000000Y500000D02*
X-2000000Y7500000D01*
X-2000000Y7500000D02*
X2500000Y7500000D01*
X15000000Y500000D02*
X18000000Y500000D01*
X18000000Y500000D02*
X18000000Y7500000D01*
X18000000Y7500000D02*
X13500000Y7500000D01*
X7500000Y12500000D02*
X7500000Y18500000D01*
X8500000Y18500000D02*
X8500000Y12500000D01*
%TO.C,J7*%
X34670000Y81270000D02*
X99670000Y81270000D01*
X99670000Y107770000D02*
X99670000Y84770000D01*
X34670000Y111270000D02*
X99670000Y111270000D01*
X34670000Y107770000D02*
X34670000Y111270000D01*
X99670000Y107770000D02*
X99670000Y111270000D01*
X99670000Y84770000D02*
X99670000Y81270000D01*
X34670000Y84770000D02*
X34670000Y81270000D01*
X34670000Y107770000D02*
X34670000Y84770000D01*
X38170000Y107770000D02*
X38170000Y111270000D01*
X38170000Y107770000D02*
X34670000Y107770000D01*
X96170000Y107770000D02*
X96170000Y111270000D01*
X96170000Y107770000D02*
X99670000Y107770000D01*
X97824237Y107770000D02*
G75*
G03*
X97824237Y107770000I-1654237J0D01*
G01*
X39824237Y107770000D02*
G75*
G03*
X39824237Y107770000I-1654237J0D01*
G01*
X38170000Y84770000D02*
X38170000Y107770000D01*
X96170000Y84770000D02*
X96170000Y107770000D01*
X38170000Y84770000D02*
X34670000Y84770000D01*
X96170000Y84770000D02*
X99670000Y84770000D01*
X96170000Y84770000D02*
X96170000Y81270000D01*
X38170000Y84770000D02*
X38170000Y81270000D01*
X39824237Y84770000D02*
G75*
G03*
X39824237Y84770000I-1654237J0D01*
G01*
X43040000Y84770000D02*
X38170000Y84770000D01*
X98120205Y84770000D02*
G75*
G03*
X98120205Y84770000I-1950205J0D01*
G01*
X91300000Y84770000D02*
X96170000Y84770000D01*
X98800000Y88000000D02*
X98800000Y101000000D01*
X98800000Y101000000D02*
X87300000Y101000000D01*
X87300000Y101000000D02*
X87300000Y88000000D01*
X87300000Y88000000D02*
X98800000Y88000000D01*
X98800000Y101000000D02*
X97300000Y99500000D01*
X97300000Y99500000D02*
X97300000Y89500000D01*
X97300000Y89500000D02*
X98800000Y88000000D01*
X97300000Y90500000D02*
X98800000Y90500000D01*
X97300000Y92000000D02*
X98800000Y92000000D01*
X97300000Y93500000D02*
X98800000Y93500000D01*
X97300000Y95000000D02*
X98800000Y95000000D01*
X97300000Y96500000D02*
X98800000Y96500000D01*
X97300000Y98000000D02*
X98800000Y98000000D01*
X92800000Y111500000D02*
X92800000Y103500000D01*
X92800000Y103500000D02*
X82300000Y103500000D01*
X82300000Y103500000D02*
X82300000Y111500000D01*
X82300000Y111500000D02*
X92800000Y111500000D01*
X42800000Y111500000D02*
X42800000Y105500000D01*
X42800000Y105500000D02*
X51800000Y105500000D01*
X51800000Y105500000D02*
X51800000Y111500000D01*
X51800000Y111500000D02*
X42800000Y111500000D01*
X55800000Y111500000D02*
X55800000Y105500000D01*
X55800000Y105500000D02*
X64800000Y105500000D01*
X64800000Y105500000D02*
X64800000Y111500000D01*
X64800000Y111500000D02*
X55800000Y111500000D01*
%TO.C,U1*%
D12*
X8928571Y49214286D02*
X9309523Y49214286D01*
X9071428Y49547620D02*
X9071428Y48690477D01*
X9119047Y48595239D01*
X9214285Y48547620D01*
X9309523Y48547620D01*
X10023809Y48595239D02*
X9928571Y48547620D01*
X9738095Y48547620D01*
X9642857Y48595239D01*
X9595238Y48690477D01*
X9595238Y49071429D01*
X9642857Y49166667D01*
X9738095Y49214286D01*
X9928571Y49214286D01*
X10023809Y49166667D01*
X10071428Y49071429D01*
X10071428Y48976191D01*
X9595238Y48880953D01*
X10880952Y48595239D02*
X10785714Y48547620D01*
X10595238Y48547620D01*
X10500000Y48595239D01*
X10452380Y48690477D01*
X10452380Y49071429D01*
X10500000Y49166667D01*
X10595238Y49214286D01*
X10785714Y49214286D01*
X10880952Y49166667D01*
X10928571Y49071429D01*
X10928571Y48976191D01*
X10452380Y48880953D01*
X11357142Y49214286D02*
X11357142Y48547620D01*
X11357142Y49119048D02*
X11404761Y49166667D01*
X11500000Y49214286D01*
X11642857Y49214286D01*
X11738095Y49166667D01*
X11785714Y49071429D01*
X11785714Y48547620D01*
X12214285Y48595239D02*
X12309523Y48547620D01*
X12500000Y48547620D01*
X12595238Y48595239D01*
X12642857Y48690477D01*
X12642857Y48738096D01*
X12595238Y48833334D01*
X12500000Y48880953D01*
X12357142Y48880953D01*
X12261904Y48928572D01*
X12214285Y49023810D01*
X12214285Y49071429D01*
X12261904Y49166667D01*
X12357142Y49214286D01*
X12500000Y49214286D01*
X12595238Y49166667D01*
X12976190Y49214286D02*
X13214285Y48547620D01*
X13452380Y49214286D02*
X13214285Y48547620D01*
X13119047Y48309524D01*
X13071428Y48261905D01*
X12976190Y48214286D01*
X13785714Y48833334D02*
X14261904Y48833334D01*
X13690476Y48547620D02*
X14023809Y49547620D01*
X14357142Y48547620D01*
X15119047Y49214286D02*
X15119047Y48547620D01*
X14690476Y49214286D02*
X14690476Y48690477D01*
X14738095Y48595239D01*
X14833333Y48547620D01*
X14976190Y48547620D01*
X15071428Y48595239D01*
X15119047Y48642858D01*
X16023809Y48547620D02*
X16023809Y49547620D01*
X16023809Y48595239D02*
X15928571Y48547620D01*
X15738095Y48547620D01*
X15642857Y48595239D01*
X15595238Y48642858D01*
X15547619Y48738096D01*
X15547619Y49023810D01*
X15595238Y49119048D01*
X15642857Y49166667D01*
X15738095Y49214286D01*
X15928571Y49214286D01*
X16023809Y49166667D01*
X16500000Y48547620D02*
X16500000Y49214286D01*
X16500000Y49547620D02*
X16452380Y49500000D01*
X16500000Y49452381D01*
X16547619Y49500000D01*
X16500000Y49547620D01*
X16500000Y49452381D01*
X17119047Y48547620D02*
X17023809Y48595239D01*
X16976190Y48642858D01*
X16928571Y48738096D01*
X16928571Y49023810D01*
X16976190Y49119048D01*
X17023809Y49166667D01*
X17119047Y49214286D01*
X17261904Y49214286D01*
X17357142Y49166667D01*
X17404761Y49119048D01*
X17452380Y49023810D01*
X17452380Y48738096D01*
X17404761Y48642858D01*
X17357142Y48595239D01*
X17261904Y48547620D01*
X17119047Y48547620D01*
X18452380Y48547620D02*
X18119047Y49023810D01*
X17880952Y48547620D02*
X17880952Y49547620D01*
X18261904Y49547620D01*
X18357142Y49500000D01*
X18404761Y49452381D01*
X18452380Y49357143D01*
X18452380Y49214286D01*
X18404761Y49119048D01*
X18357142Y49071429D01*
X18261904Y49023810D01*
X17880952Y49023810D01*
X19261904Y48595239D02*
X19166666Y48547620D01*
X18976190Y48547620D01*
X18880952Y48595239D01*
X18833333Y48690477D01*
X18833333Y49071429D01*
X18880952Y49166667D01*
X18976190Y49214286D01*
X19166666Y49214286D01*
X19261904Y49166667D01*
X19309523Y49071429D01*
X19309523Y48976191D01*
X18833333Y48880953D01*
X19642857Y49214286D02*
X19880952Y48547620D01*
X20119047Y49214286D01*
X20500000Y48547620D02*
X20500000Y49547620D01*
X20738095Y49547620D01*
X20880952Y49500000D01*
X20976190Y49404762D01*
X21023809Y49309524D01*
X21071428Y49119048D01*
X21071428Y48976191D01*
X21023809Y48785715D01*
X20976190Y48690477D01*
X20880952Y48595239D01*
X20738095Y48547620D01*
X20500000Y48547620D01*
X21261904Y48452381D02*
X22023809Y48452381D01*
X22166666Y49547620D02*
X22404761Y48547620D01*
X22595238Y49261905D01*
X22785714Y48547620D01*
X23023809Y49547620D01*
X23404761Y48547620D02*
X23404761Y49214286D01*
X23404761Y49547620D02*
X23357142Y49500000D01*
X23404761Y49452381D01*
X23452380Y49500000D01*
X23404761Y49547620D01*
X23404761Y49452381D01*
X23738095Y49214286D02*
X24119047Y49214286D01*
X23880952Y49547620D02*
X23880952Y48690477D01*
X23928571Y48595239D01*
X24023809Y48547620D01*
X24119047Y48547620D01*
X24452380Y48547620D02*
X24452380Y49547620D01*
X24880952Y48547620D02*
X24880952Y49071429D01*
X24833333Y49166667D01*
X24738095Y49214286D01*
X24595238Y49214286D01*
X24500000Y49166667D01*
X24452380Y49119048D01*
X25309523Y48833334D02*
X25785714Y48833334D01*
X25214285Y48547620D02*
X25547619Y49547620D01*
X25880952Y48547620D01*
X26642857Y49214286D02*
X26642857Y48547620D01*
X26214285Y49214286D02*
X26214285Y48690477D01*
X26261904Y48595239D01*
X26357142Y48547620D01*
X26500000Y48547620D01*
X26595238Y48595239D01*
X26642857Y48642858D01*
X27547619Y48547620D02*
X27547619Y49547620D01*
X27547619Y48595239D02*
X27452380Y48547620D01*
X27261904Y48547620D01*
X27166666Y48595239D01*
X27119047Y48642858D01*
X27071428Y48738096D01*
X27071428Y49023810D01*
X27119047Y49119048D01*
X27166666Y49166667D01*
X27261904Y49214286D01*
X27452380Y49214286D01*
X27547619Y49166667D01*
X28023809Y48547620D02*
X28023809Y49214286D01*
X28023809Y49547620D02*
X27976190Y49500000D01*
X28023809Y49452381D01*
X28071428Y49500000D01*
X28023809Y49547620D01*
X28023809Y49452381D01*
X28642857Y48547620D02*
X28547619Y48595239D01*
X28500000Y48642858D01*
X28452380Y48738096D01*
X28452380Y49023810D01*
X28500000Y49119048D01*
X28547619Y49166667D01*
X28642857Y49214286D01*
X28785714Y49214286D01*
X28880952Y49166667D01*
X28928571Y49119048D01*
X28976190Y49023810D01*
X28976190Y48738096D01*
X28928571Y48642858D01*
X28880952Y48595239D01*
X28785714Y48547620D01*
X28642857Y48547620D01*
D15*
X26495285Y42257693D02*
X26459000Y42293979D01*
X26422714Y42366550D01*
X26422714Y42547979D01*
X26459000Y42620550D01*
X26495285Y42656836D01*
X26567857Y42693122D01*
X26640428Y42693122D01*
X26749285Y42656836D01*
X27184714Y42221408D01*
X27184714Y42693122D01*
X26495285Y42983408D02*
X26459000Y43019693D01*
X26422714Y43092265D01*
X26422714Y43273693D01*
X26459000Y43346265D01*
X26495285Y43382550D01*
X26567857Y43418836D01*
X26640428Y43418836D01*
X26749285Y43382550D01*
X27184714Y42947122D01*
X27184714Y43418836D01*
X11944714Y54139450D02*
X11944714Y54284593D01*
X11908428Y54357165D01*
X11872142Y54393450D01*
X11763285Y54466022D01*
X11618142Y54502308D01*
X11327857Y54502308D01*
X11255285Y54466022D01*
X11219000Y54429736D01*
X11182714Y54357165D01*
X11182714Y54212022D01*
X11219000Y54139450D01*
X11255285Y54103165D01*
X11327857Y54066879D01*
X11509285Y54066879D01*
X11581857Y54103165D01*
X11618142Y54139450D01*
X11654428Y54212022D01*
X11654428Y54357165D01*
X11618142Y54429736D01*
X11581857Y54466022D01*
X11509285Y54502308D01*
X21342714Y54466022D02*
X21342714Y54103165D01*
X21705571Y54066879D01*
X21669285Y54103165D01*
X21633000Y54175736D01*
X21633000Y54357165D01*
X21669285Y54429736D01*
X21705571Y54466022D01*
X21778142Y54502308D01*
X21959571Y54502308D01*
X22032142Y54466022D01*
X22068428Y54429736D01*
X22104714Y54357165D01*
X22104714Y54175736D01*
X22068428Y54103165D01*
X22032142Y54066879D01*
X24136714Y54429736D02*
X24644714Y54429736D01*
X23846428Y54248308D02*
X24390714Y54066879D01*
X24390714Y54538593D01*
X26422714Y54030593D02*
X26422714Y54502308D01*
X26713000Y54248308D01*
X26713000Y54357165D01*
X26749285Y54429736D01*
X26785571Y54466022D01*
X26858142Y54502308D01*
X27039571Y54502308D01*
X27112142Y54466022D01*
X27148428Y54429736D01*
X27184714Y54357165D01*
X27184714Y54139450D01*
X27148428Y54066879D01*
X27112142Y54030593D01*
X29035285Y54066879D02*
X28999000Y54103165D01*
X28962714Y54175736D01*
X28962714Y54357165D01*
X28999000Y54429736D01*
X29035285Y54466022D01*
X29107857Y54502308D01*
X29180428Y54502308D01*
X29289285Y54466022D01*
X29724714Y54030593D01*
X29724714Y54502308D01*
X31502714Y52688022D02*
X31502714Y53123450D01*
X32264714Y52905736D02*
X31502714Y52905736D01*
X31502714Y53304879D02*
X32264714Y53812879D01*
X31502714Y53812879D02*
X32264714Y53304879D01*
X32264714Y54502308D02*
X32264714Y54066879D01*
X32264714Y54284593D02*
X31502714Y54284593D01*
X31611571Y54212022D01*
X31684142Y54139450D01*
X31720428Y54066879D01*
X34804714Y53050879D02*
X34441857Y52796879D01*
X34804714Y52615450D02*
X34042714Y52615450D01*
X34042714Y52905736D01*
X34079000Y52978308D01*
X34115285Y53014593D01*
X34187857Y53050879D01*
X34296714Y53050879D01*
X34369285Y53014593D01*
X34405571Y52978308D01*
X34441857Y52905736D01*
X34441857Y52615450D01*
X34042714Y53304879D02*
X34804714Y53812879D01*
X34042714Y53812879D02*
X34804714Y53304879D01*
X34804714Y54502308D02*
X34804714Y54066879D01*
X34804714Y54284593D02*
X34042714Y54284593D01*
X34151571Y54212022D01*
X34224142Y54139450D01*
X34260428Y54066879D01*
X6864714Y52071165D02*
X6102714Y52071165D01*
X6647000Y52325165D01*
X6102714Y52579165D01*
X6864714Y52579165D01*
X6102714Y53087165D02*
X6102714Y53232308D01*
X6139000Y53304879D01*
X6211571Y53377450D01*
X6356714Y53413736D01*
X6610714Y53413736D01*
X6755857Y53377450D01*
X6828428Y53304879D01*
X6864714Y53232308D01*
X6864714Y53087165D01*
X6828428Y53014593D01*
X6755857Y52942022D01*
X6610714Y52905736D01*
X6356714Y52905736D01*
X6211571Y52942022D01*
X6139000Y53014593D01*
X6102714Y53087165D01*
X6828428Y53704022D02*
X6864714Y53812879D01*
X6864714Y53994308D01*
X6828428Y54066879D01*
X6792142Y54103165D01*
X6719571Y54139450D01*
X6647000Y54139450D01*
X6574428Y54103165D01*
X6538142Y54066879D01*
X6501857Y53994308D01*
X6465571Y53849165D01*
X6429285Y53776593D01*
X6393000Y53740308D01*
X6320428Y53704022D01*
X6247857Y53704022D01*
X6175285Y53740308D01*
X6139000Y53776593D01*
X6102714Y53849165D01*
X6102714Y54030593D01*
X6139000Y54139450D01*
X6864714Y54466022D02*
X6102714Y54466022D01*
X4324714Y52071165D02*
X3562714Y52071165D01*
X4107000Y52325165D01*
X3562714Y52579165D01*
X4324714Y52579165D01*
X4324714Y52942022D02*
X3562714Y52942022D01*
X4288428Y53268593D02*
X4324714Y53377450D01*
X4324714Y53558879D01*
X4288428Y53631450D01*
X4252142Y53667736D01*
X4179571Y53704022D01*
X4107000Y53704022D01*
X4034428Y53667736D01*
X3998142Y53631450D01*
X3961857Y53558879D01*
X3925571Y53413736D01*
X3889285Y53341165D01*
X3853000Y53304879D01*
X3780428Y53268593D01*
X3707857Y53268593D01*
X3635285Y53304879D01*
X3599000Y53341165D01*
X3562714Y53413736D01*
X3562714Y53595165D01*
X3599000Y53704022D01*
X3562714Y54175736D02*
X3562714Y54320879D01*
X3599000Y54393450D01*
X3671571Y54466022D01*
X3816714Y54502308D01*
X4070714Y54502308D01*
X4215857Y54466022D01*
X4288428Y54393450D01*
X4324714Y54320879D01*
X4324714Y54175736D01*
X4288428Y54103165D01*
X4215857Y54030593D01*
X4070714Y53994308D01*
X3816714Y53994308D01*
X3671571Y54030593D01*
X3599000Y54103165D01*
X3562714Y54175736D01*
X4324714Y42656836D02*
X4324714Y42293979D01*
X3562714Y42293979D01*
X3925571Y42910836D02*
X3925571Y43164836D01*
X4324714Y43273693D02*
X4324714Y42910836D01*
X3562714Y42910836D01*
X3562714Y43273693D01*
X4324714Y43600265D02*
X3562714Y43600265D01*
X3562714Y43781693D01*
X3599000Y43890550D01*
X3671571Y43963122D01*
X3744142Y43999408D01*
X3889285Y44035693D01*
X3998142Y44035693D01*
X4143285Y43999408D01*
X4215857Y43963122D01*
X4288428Y43890550D01*
X4324714Y43781693D01*
X4324714Y43600265D01*
X4397285Y44180836D02*
X4397285Y44761408D01*
X4288428Y44906550D02*
X4324714Y45015408D01*
X4324714Y45196836D01*
X4288428Y45269408D01*
X4252142Y45305693D01*
X4179571Y45341979D01*
X4107000Y45341979D01*
X4034428Y45305693D01*
X3998142Y45269408D01*
X3961857Y45196836D01*
X3925571Y45051693D01*
X3889285Y44979122D01*
X3853000Y44942836D01*
X3780428Y44906550D01*
X3707857Y44906550D01*
X3635285Y44942836D01*
X3599000Y44979122D01*
X3562714Y45051693D01*
X3562714Y45233122D01*
X3599000Y45341979D01*
X4252142Y46103979D02*
X4288428Y46067693D01*
X4324714Y45958836D01*
X4324714Y45886265D01*
X4288428Y45777408D01*
X4215857Y45704836D01*
X4143285Y45668550D01*
X3998142Y45632265D01*
X3889285Y45632265D01*
X3744142Y45668550D01*
X3671571Y45704836D01*
X3599000Y45777408D01*
X3562714Y45886265D01*
X3562714Y45958836D01*
X3599000Y46067693D01*
X3635285Y46103979D01*
X4324714Y46430550D02*
X3562714Y46430550D01*
X4324714Y46865979D02*
X3889285Y46539408D01*
X3562714Y46865979D02*
X3998142Y46430550D01*
X4397285Y47011122D02*
X4397285Y47591693D01*
X4324714Y48172265D02*
X4324714Y47736836D01*
X4324714Y47954550D02*
X3562714Y47954550D01*
X3671571Y47881979D01*
X3744142Y47809408D01*
X3780428Y47736836D01*
X3562714Y48426265D02*
X3562714Y48897979D01*
X3853000Y48643979D01*
X3853000Y48752836D01*
X3889285Y48825408D01*
X3925571Y48861693D01*
X3998142Y48897979D01*
X4179571Y48897979D01*
X4252142Y48861693D01*
X4288428Y48825408D01*
X4324714Y48752836D01*
X4324714Y48535122D01*
X4288428Y48462550D01*
X4252142Y48426265D01*
X6102714Y42185122D02*
X6102714Y42620550D01*
X6864714Y42402836D02*
X6102714Y42402836D01*
X6102714Y42801979D02*
X6864714Y43309979D01*
X6102714Y43309979D02*
X6864714Y42801979D01*
X6102714Y43527693D02*
X6102714Y43999408D01*
X6393000Y43745408D01*
X6393000Y43854265D01*
X6429285Y43926836D01*
X6465571Y43963122D01*
X6538142Y43999408D01*
X6719571Y43999408D01*
X6792142Y43963122D01*
X6828428Y43926836D01*
X6864714Y43854265D01*
X6864714Y43636550D01*
X6828428Y43563979D01*
X6792142Y43527693D01*
X9404714Y42729408D02*
X9041857Y42475408D01*
X9404714Y42293979D02*
X8642714Y42293979D01*
X8642714Y42584265D01*
X8679000Y42656836D01*
X8715285Y42693122D01*
X8787857Y42729408D01*
X8896714Y42729408D01*
X8969285Y42693122D01*
X9005571Y42656836D01*
X9041857Y42584265D01*
X9041857Y42293979D01*
X8642714Y42983408D02*
X9404714Y43491408D01*
X8642714Y43491408D02*
X9404714Y42983408D01*
X8642714Y43709122D02*
X8642714Y44180836D01*
X8933000Y43926836D01*
X8933000Y44035693D01*
X8969285Y44108265D01*
X9005571Y44144550D01*
X9078142Y44180836D01*
X9259571Y44180836D01*
X9332142Y44144550D01*
X9368428Y44108265D01*
X9404714Y44035693D01*
X9404714Y43817979D01*
X9368428Y43745408D01*
X9332142Y43709122D01*
X11944714Y42729408D02*
X11581857Y42475408D01*
X11944714Y42293979D02*
X11182714Y42293979D01*
X11182714Y42584265D01*
X11219000Y42656836D01*
X11255285Y42693122D01*
X11327857Y42729408D01*
X11436714Y42729408D01*
X11509285Y42693122D01*
X11545571Y42656836D01*
X11581857Y42584265D01*
X11581857Y42293979D01*
X11182714Y42983408D02*
X11944714Y43491408D01*
X11182714Y43491408D02*
X11944714Y42983408D01*
X11436714Y44108265D02*
X11944714Y44108265D01*
X11146428Y43926836D02*
X11690714Y43745408D01*
X11690714Y44217122D01*
X13722714Y42185122D02*
X13722714Y42620550D01*
X14484714Y42402836D02*
X13722714Y42402836D01*
X13722714Y42801979D02*
X14484714Y43309979D01*
X13722714Y43309979D02*
X14484714Y42801979D01*
X13976714Y43926836D02*
X14484714Y43926836D01*
X13686428Y43745408D02*
X14230714Y43563979D01*
X14230714Y44035693D01*
X19564714Y50365736D02*
X18802714Y50365736D01*
X18875285Y50692308D02*
X18839000Y50728593D01*
X18802714Y50801165D01*
X18802714Y50982593D01*
X18839000Y51055165D01*
X18875285Y51091450D01*
X18947857Y51127736D01*
X19020428Y51127736D01*
X19129285Y51091450D01*
X19564714Y50656022D01*
X19564714Y51127736D01*
X19528428Y51418022D02*
X19564714Y51526879D01*
X19564714Y51708308D01*
X19528428Y51780879D01*
X19492142Y51817165D01*
X19419571Y51853450D01*
X19347000Y51853450D01*
X19274428Y51817165D01*
X19238142Y51780879D01*
X19201857Y51708308D01*
X19165571Y51563165D01*
X19129285Y51490593D01*
X19093000Y51454308D01*
X19020428Y51418022D01*
X18947857Y51418022D01*
X18875285Y51454308D01*
X18839000Y51490593D01*
X18802714Y51563165D01*
X18802714Y51744593D01*
X18839000Y51853450D01*
X19637285Y51998593D02*
X19637285Y52579165D01*
X18802714Y52651736D02*
X18802714Y53087165D01*
X19564714Y52869450D02*
X18802714Y52869450D01*
X18802714Y53268593D02*
X19564714Y53776593D01*
X18802714Y53776593D02*
X19564714Y53268593D01*
X19165571Y54320879D02*
X19201857Y54429736D01*
X19238142Y54466022D01*
X19310714Y54502308D01*
X19419571Y54502308D01*
X19492142Y54466022D01*
X19528428Y54429736D01*
X19564714Y54357165D01*
X19564714Y54066879D01*
X18802714Y54066879D01*
X18802714Y54320879D01*
X18839000Y54393450D01*
X18875285Y54429736D01*
X18947857Y54466022D01*
X19020428Y54466022D01*
X19093000Y54429736D01*
X19129285Y54393450D01*
X19165571Y54320879D01*
X19165571Y54066879D01*
X36496354Y42410577D02*
X37258354Y42664577D01*
X36496354Y42918577D01*
X37258354Y43172577D02*
X36496354Y43172577D01*
X37258354Y43535434D02*
X36496354Y43535434D01*
X37258354Y43970863D01*
X36496354Y43970863D01*
X36532640Y52824577D02*
X36496354Y52752006D01*
X36496354Y52643148D01*
X36532640Y52534291D01*
X36605211Y52461720D01*
X36677782Y52425434D01*
X36822925Y52389148D01*
X36931782Y52389148D01*
X37076925Y52425434D01*
X37149497Y52461720D01*
X37222068Y52534291D01*
X37258354Y52643148D01*
X37258354Y52715720D01*
X37222068Y52824577D01*
X37185782Y52860863D01*
X36931782Y52860863D01*
X36931782Y52715720D01*
X37258354Y53187434D02*
X36496354Y53187434D01*
X37258354Y53622863D01*
X36496354Y53622863D01*
X37258354Y53985720D02*
X36496354Y53985720D01*
X36496354Y54167148D01*
X36532640Y54276006D01*
X36605211Y54348577D01*
X36677782Y54384863D01*
X36822925Y54421148D01*
X36931782Y54421148D01*
X37076925Y54384863D01*
X37149497Y54348577D01*
X37222068Y54276006D01*
X37258354Y54167148D01*
X37258354Y53985720D01*
X29724714Y42293979D02*
X28962714Y42293979D01*
X29035285Y42620550D02*
X28999000Y42656836D01*
X28962714Y42729408D01*
X28962714Y42910836D01*
X28999000Y42983408D01*
X29035285Y43019693D01*
X29107857Y43055979D01*
X29180428Y43055979D01*
X29289285Y43019693D01*
X29724714Y42584265D01*
X29724714Y43055979D01*
X29688428Y43346265D02*
X29724714Y43455122D01*
X29724714Y43636550D01*
X29688428Y43709122D01*
X29652142Y43745408D01*
X29579571Y43781693D01*
X29507000Y43781693D01*
X29434428Y43745408D01*
X29398142Y43709122D01*
X29361857Y43636550D01*
X29325571Y43491408D01*
X29289285Y43418836D01*
X29253000Y43382550D01*
X29180428Y43346265D01*
X29107857Y43346265D01*
X29035285Y43382550D01*
X28999000Y43418836D01*
X28962714Y43491408D01*
X28962714Y43672836D01*
X28999000Y43781693D01*
X29797285Y43926836D02*
X29797285Y44507408D01*
X29724714Y44688836D02*
X28962714Y44688836D01*
X29507000Y44942836D01*
X28962714Y45196836D01*
X29724714Y45196836D01*
X29652142Y45995122D02*
X29688428Y45958836D01*
X29724714Y45849979D01*
X29724714Y45777408D01*
X29688428Y45668550D01*
X29615857Y45595979D01*
X29543285Y45559693D01*
X29398142Y45523408D01*
X29289285Y45523408D01*
X29144142Y45559693D01*
X29071571Y45595979D01*
X28999000Y45668550D01*
X28962714Y45777408D01*
X28962714Y45849979D01*
X28999000Y45958836D01*
X29035285Y45995122D01*
X29724714Y46684550D02*
X29724714Y46321693D01*
X28962714Y46321693D01*
X29724714Y46938550D02*
X28962714Y46938550D01*
X29724714Y47373979D02*
X29289285Y47047408D01*
X28962714Y47373979D02*
X29398142Y46938550D01*
X31230571Y35335286D02*
X30867714Y35335286D01*
X30867714Y36097286D01*
X31484571Y35335286D02*
X31484571Y36097286D01*
X31847428Y35335286D02*
X31847428Y36097286D01*
X32282857Y35335286D01*
X32282857Y36097286D01*
X32645714Y35734429D02*
X32899714Y35734429D01*
X33008571Y35335286D02*
X32645714Y35335286D01*
X32645714Y36097286D01*
X33008571Y36097286D01*
D16*
X25461868Y64792271D02*
X25461868Y65300271D01*
X25582820Y65300271D01*
X25655392Y65276080D01*
X25703773Y65227700D01*
X25727963Y65179319D01*
X25752154Y65082557D01*
X25752154Y65009985D01*
X25727963Y64913223D01*
X25703773Y64864842D01*
X25655392Y64816461D01*
X25582820Y64792271D01*
X25461868Y64792271D01*
X26066630Y65300271D02*
X26163392Y65300271D01*
X26211773Y65276080D01*
X26260154Y65227700D01*
X26284344Y65130938D01*
X26284344Y64961604D01*
X26260154Y64864842D01*
X26211773Y64816461D01*
X26163392Y64792271D01*
X26066630Y64792271D01*
X26018249Y64816461D01*
X25969868Y64864842D01*
X25945678Y64961604D01*
X25945678Y65130938D01*
X25969868Y65227700D01*
X26018249Y65276080D01*
X26066630Y65300271D01*
X26889106Y64792271D02*
X26889106Y65300271D01*
X27179392Y64792271D01*
X27179392Y65300271D01*
X27518059Y65300271D02*
X27614820Y65300271D01*
X27663201Y65276080D01*
X27711582Y65227700D01*
X27735773Y65130938D01*
X27735773Y64961604D01*
X27711582Y64864842D01*
X27663201Y64816461D01*
X27614820Y64792271D01*
X27518059Y64792271D01*
X27469678Y64816461D01*
X27421297Y64864842D01*
X27397106Y64961604D01*
X27397106Y65130938D01*
X27421297Y65227700D01*
X27469678Y65276080D01*
X27518059Y65300271D01*
X27880916Y65300271D02*
X28171201Y65300271D01*
X28026059Y64792271D02*
X28026059Y65300271D01*
X28703392Y64816461D02*
X28775963Y64792271D01*
X28896916Y64792271D01*
X28945297Y64816461D01*
X28969487Y64840652D01*
X28993678Y64889033D01*
X28993678Y64937414D01*
X28969487Y64985795D01*
X28945297Y65009985D01*
X28896916Y65034176D01*
X28800154Y65058366D01*
X28751773Y65082557D01*
X28727582Y65106747D01*
X28703392Y65155128D01*
X28703392Y65203509D01*
X28727582Y65251890D01*
X28751773Y65276080D01*
X28800154Y65300271D01*
X28921106Y65300271D01*
X28993678Y65276080D01*
X29211392Y64792271D02*
X29211392Y65300271D01*
X29211392Y65058366D02*
X29501678Y65058366D01*
X29501678Y64792271D02*
X29501678Y65300271D01*
X29840344Y65300271D02*
X29937106Y65300271D01*
X29985487Y65276080D01*
X30033868Y65227700D01*
X30058059Y65130938D01*
X30058059Y64961604D01*
X30033868Y64864842D01*
X29985487Y64816461D01*
X29937106Y64792271D01*
X29840344Y64792271D01*
X29791963Y64816461D01*
X29743582Y64864842D01*
X29719392Y64961604D01*
X29719392Y65130938D01*
X29743582Y65227700D01*
X29791963Y65276080D01*
X29840344Y65300271D01*
X30566059Y64792271D02*
X30396725Y65034176D01*
X30275773Y64792271D02*
X30275773Y65300271D01*
X30469297Y65300271D01*
X30517678Y65276080D01*
X30541868Y65251890D01*
X30566059Y65203509D01*
X30566059Y65130938D01*
X30541868Y65082557D01*
X30517678Y65058366D01*
X30469297Y65034176D01*
X30275773Y65034176D01*
X30711201Y65300271D02*
X31001487Y65300271D01*
X30856344Y64792271D02*
X30856344Y65300271D01*
X31485297Y65300271D02*
X31654630Y64792271D01*
X31823963Y65300271D01*
X32259392Y65276080D02*
X32211011Y65300271D01*
X32138440Y65300271D01*
X32065868Y65276080D01*
X32017487Y65227700D01*
X31993297Y65179319D01*
X31969106Y65082557D01*
X31969106Y65009985D01*
X31993297Y64913223D01*
X32017487Y64864842D01*
X32065868Y64816461D01*
X32138440Y64792271D01*
X32186820Y64792271D01*
X32259392Y64816461D01*
X32283582Y64840652D01*
X32283582Y65009985D01*
X32186820Y65009985D01*
X32501297Y64792271D02*
X32501297Y65300271D01*
X32791582Y64792271D01*
X32791582Y65300271D01*
X33033487Y64792271D02*
X33033487Y65300271D01*
X33154440Y65300271D01*
X33227011Y65276080D01*
X33275392Y65227700D01*
X33299582Y65179319D01*
X33323773Y65082557D01*
X33323773Y65009985D01*
X33299582Y64913223D01*
X33275392Y64864842D01*
X33227011Y64816461D01*
X33154440Y64792271D01*
X33033487Y64792271D01*
X33855963Y65300271D02*
X34146249Y65300271D01*
X34001106Y64792271D02*
X34001106Y65300271D01*
X34412344Y65300271D02*
X34509106Y65300271D01*
X34557487Y65276080D01*
X34605868Y65227700D01*
X34630059Y65130938D01*
X34630059Y64961604D01*
X34605868Y64864842D01*
X34557487Y64816461D01*
X34509106Y64792271D01*
X34412344Y64792271D01*
X34363963Y64816461D01*
X34315582Y64864842D01*
X34291392Y64961604D01*
X34291392Y65130938D01*
X34315582Y65227700D01*
X34363963Y65276080D01*
X34412344Y65300271D01*
X35500916Y65276080D02*
X35452535Y65300271D01*
X35379963Y65300271D01*
X35307392Y65276080D01*
X35259011Y65227700D01*
X35234820Y65179319D01*
X35210630Y65082557D01*
X35210630Y65009985D01*
X35234820Y64913223D01*
X35259011Y64864842D01*
X35307392Y64816461D01*
X35379963Y64792271D01*
X35428344Y64792271D01*
X35500916Y64816461D01*
X35525106Y64840652D01*
X35525106Y65009985D01*
X35428344Y65009985D01*
X35742820Y64792271D02*
X35742820Y65300271D01*
X36033106Y64792271D01*
X36033106Y65300271D01*
X36275011Y64792271D02*
X36275011Y65300271D01*
X36395963Y65300271D01*
X36468535Y65276080D01*
X36516916Y65227700D01*
X36541106Y65179319D01*
X36565297Y65082557D01*
X36565297Y65009985D01*
X36541106Y64913223D01*
X36516916Y64864842D01*
X36468535Y64816461D01*
X36395963Y64792271D01*
X36275011Y64792271D01*
X36783011Y64840652D02*
X36807201Y64816461D01*
X36783011Y64792271D01*
X36758820Y64816461D01*
X36783011Y64840652D01*
X36783011Y64792271D01*
X36783011Y64985795D02*
X36758820Y65276080D01*
X36783011Y65300271D01*
X36807201Y65276080D01*
X36783011Y64985795D01*
X36783011Y65300271D01*
D15*
X27210840Y62541226D02*
X27210840Y63303226D01*
X27210840Y62940369D02*
X27646268Y62940369D01*
X27646268Y62541226D02*
X27646268Y63303226D01*
X28009125Y62940369D02*
X28263125Y62940369D01*
X28371982Y62541226D02*
X28009125Y62541226D01*
X28009125Y63303226D01*
X28371982Y63303226D01*
X28662268Y62758940D02*
X29025125Y62758940D01*
X28589697Y62541226D02*
X28843697Y63303226D01*
X29097697Y62541226D01*
X29351697Y62541226D02*
X29351697Y63303226D01*
X29533125Y63303226D01*
X29641982Y63266940D01*
X29714554Y63194369D01*
X29750840Y63121798D01*
X29787125Y62976655D01*
X29787125Y62867798D01*
X29750840Y62722655D01*
X29714554Y62650083D01*
X29641982Y62577512D01*
X29533125Y62541226D01*
X29351697Y62541226D01*
X30113697Y62541226D02*
X30113697Y63303226D01*
X30403982Y63303226D01*
X30476554Y63266940D01*
X30512840Y63230655D01*
X30549125Y63158083D01*
X30549125Y63049226D01*
X30512840Y62976655D01*
X30476554Y62940369D01*
X30403982Y62904083D01*
X30113697Y62904083D01*
X30875697Y62541226D02*
X30875697Y63303226D01*
X30875697Y62940369D02*
X31311125Y62940369D01*
X31311125Y62541226D02*
X31311125Y63303226D01*
X31819125Y63303226D02*
X31964268Y63303226D01*
X32036840Y63266940D01*
X32109411Y63194369D01*
X32145697Y63049226D01*
X32145697Y62795226D01*
X32109411Y62650083D01*
X32036840Y62577512D01*
X31964268Y62541226D01*
X31819125Y62541226D01*
X31746554Y62577512D01*
X31673982Y62650083D01*
X31637697Y62795226D01*
X31637697Y63049226D01*
X31673982Y63194369D01*
X31746554Y63266940D01*
X31819125Y63303226D01*
X32472268Y62541226D02*
X32472268Y63303226D01*
X32907697Y62541226D01*
X32907697Y63303226D01*
X33270554Y62940369D02*
X33524554Y62940369D01*
X33633411Y62541226D02*
X33270554Y62541226D01*
X33270554Y63303226D01*
X33633411Y63303226D01*
X33923697Y62577512D02*
X34032554Y62541226D01*
X34213982Y62541226D01*
X34286554Y62577512D01*
X34322840Y62613798D01*
X34359125Y62686369D01*
X34359125Y62758940D01*
X34322840Y62831512D01*
X34286554Y62867798D01*
X34213982Y62904083D01*
X34068840Y62940369D01*
X33996268Y62976655D01*
X33959982Y63012940D01*
X33923697Y63085512D01*
X33923697Y63158083D01*
X33959982Y63230655D01*
X33996268Y63266940D01*
X34068840Y63303226D01*
X34250268Y63303226D01*
X34359125Y63266940D01*
X14484714Y50293165D02*
X13722714Y50293165D01*
X13795285Y50619736D02*
X13759000Y50656022D01*
X13722714Y50728593D01*
X13722714Y50910022D01*
X13759000Y50982593D01*
X13795285Y51018879D01*
X13867857Y51055165D01*
X13940428Y51055165D01*
X14049285Y51018879D01*
X14484714Y50583450D01*
X14484714Y51055165D01*
X14448428Y51345450D02*
X14484714Y51454308D01*
X14484714Y51635736D01*
X14448428Y51708308D01*
X14412142Y51744593D01*
X14339571Y51780879D01*
X14267000Y51780879D01*
X14194428Y51744593D01*
X14158142Y51708308D01*
X14121857Y51635736D01*
X14085571Y51490593D01*
X14049285Y51418022D01*
X14013000Y51381736D01*
X13940428Y51345450D01*
X13867857Y51345450D01*
X13795285Y51381736D01*
X13759000Y51418022D01*
X13722714Y51490593D01*
X13722714Y51672022D01*
X13759000Y51780879D01*
X14557285Y51926022D02*
X14557285Y52506593D01*
X14484714Y53123450D02*
X14121857Y52869450D01*
X14484714Y52688022D02*
X13722714Y52688022D01*
X13722714Y52978308D01*
X13759000Y53050879D01*
X13795285Y53087165D01*
X13867857Y53123450D01*
X13976714Y53123450D01*
X14049285Y53087165D01*
X14085571Y53050879D01*
X14121857Y52978308D01*
X14121857Y52688022D01*
X13722714Y53377450D02*
X14484714Y53885450D01*
X13722714Y53885450D02*
X14484714Y53377450D01*
X14267000Y54139450D02*
X14267000Y54502308D01*
X14484714Y54066879D02*
X13722714Y54320879D01*
X14484714Y54574879D01*
X17024714Y50474593D02*
X16262714Y50474593D01*
X16335285Y50801165D02*
X16299000Y50837450D01*
X16262714Y50910022D01*
X16262714Y51091450D01*
X16299000Y51164022D01*
X16335285Y51200308D01*
X16407857Y51236593D01*
X16480428Y51236593D01*
X16589285Y51200308D01*
X17024714Y50764879D01*
X17024714Y51236593D01*
X16988428Y51526879D02*
X17024714Y51635736D01*
X17024714Y51817165D01*
X16988428Y51889736D01*
X16952142Y51926022D01*
X16879571Y51962308D01*
X16807000Y51962308D01*
X16734428Y51926022D01*
X16698142Y51889736D01*
X16661857Y51817165D01*
X16625571Y51672022D01*
X16589285Y51599450D01*
X16553000Y51563165D01*
X16480428Y51526879D01*
X16407857Y51526879D01*
X16335285Y51563165D01*
X16299000Y51599450D01*
X16262714Y51672022D01*
X16262714Y51853450D01*
X16299000Y51962308D01*
X17097285Y52107450D02*
X17097285Y52688022D01*
X16262714Y52760593D02*
X16262714Y53196022D01*
X17024714Y52978308D02*
X16262714Y52978308D01*
X16262714Y53377450D02*
X17024714Y53885450D01*
X16262714Y53885450D02*
X17024714Y53377450D01*
X16807000Y54139450D02*
X16807000Y54502308D01*
X17024714Y54066879D02*
X16262714Y54320879D01*
X17024714Y54574879D01*
X16988428Y42257693D02*
X17024714Y42366550D01*
X17024714Y42547979D01*
X16988428Y42620550D01*
X16952142Y42656836D01*
X16879571Y42693122D01*
X16807000Y42693122D01*
X16734428Y42656836D01*
X16698142Y42620550D01*
X16661857Y42547979D01*
X16625571Y42402836D01*
X16589285Y42330265D01*
X16553000Y42293979D01*
X16480428Y42257693D01*
X16407857Y42257693D01*
X16335285Y42293979D01*
X16299000Y42330265D01*
X16262714Y42402836D01*
X16262714Y42584265D01*
X16299000Y42693122D01*
X17024714Y43019693D02*
X16262714Y43019693D01*
X16262714Y43201122D01*
X16299000Y43309979D01*
X16371571Y43382550D01*
X16444142Y43418836D01*
X16589285Y43455122D01*
X16698142Y43455122D01*
X16843285Y43418836D01*
X16915857Y43382550D01*
X16988428Y43309979D01*
X17024714Y43201122D01*
X17024714Y43019693D01*
X16807000Y43745408D02*
X16807000Y44108265D01*
X17024714Y43672836D02*
X16262714Y43926836D01*
X17024714Y44180836D01*
X19442068Y42257693D02*
X19478354Y42366550D01*
X19478354Y42547979D01*
X19442068Y42620550D01*
X19405782Y42656836D01*
X19333211Y42693122D01*
X19260640Y42693122D01*
X19188068Y42656836D01*
X19151782Y42620550D01*
X19115497Y42547979D01*
X19079211Y42402836D01*
X19042925Y42330265D01*
X19006640Y42293979D01*
X18934068Y42257693D01*
X18861497Y42257693D01*
X18788925Y42293979D01*
X18752640Y42330265D01*
X18716354Y42402836D01*
X18716354Y42584265D01*
X18752640Y42693122D01*
X19405782Y43455122D02*
X19442068Y43418836D01*
X19478354Y43309979D01*
X19478354Y43237408D01*
X19442068Y43128550D01*
X19369497Y43055979D01*
X19296925Y43019693D01*
X19151782Y42983408D01*
X19042925Y42983408D01*
X18897782Y43019693D01*
X18825211Y43055979D01*
X18752640Y43128550D01*
X18716354Y43237408D01*
X18716354Y43309979D01*
X18752640Y43418836D01*
X18788925Y43455122D01*
X19478354Y44144550D02*
X19478354Y43781693D01*
X18716354Y43781693D01*
X24644714Y42293979D02*
X23882714Y42293979D01*
X23955285Y42620550D02*
X23919000Y42656836D01*
X23882714Y42729408D01*
X23882714Y42910836D01*
X23919000Y42983408D01*
X23955285Y43019693D01*
X24027857Y43055979D01*
X24100428Y43055979D01*
X24209285Y43019693D01*
X24644714Y42584265D01*
X24644714Y43055979D01*
X24608428Y43346265D02*
X24644714Y43455122D01*
X24644714Y43636550D01*
X24608428Y43709122D01*
X24572142Y43745408D01*
X24499571Y43781693D01*
X24427000Y43781693D01*
X24354428Y43745408D01*
X24318142Y43709122D01*
X24281857Y43636550D01*
X24245571Y43491408D01*
X24209285Y43418836D01*
X24173000Y43382550D01*
X24100428Y43346265D01*
X24027857Y43346265D01*
X23955285Y43382550D01*
X23919000Y43418836D01*
X23882714Y43491408D01*
X23882714Y43672836D01*
X23919000Y43781693D01*
X24717285Y43926836D02*
X24717285Y44507408D01*
X24245571Y44942836D02*
X24281857Y45051693D01*
X24318142Y45087979D01*
X24390714Y45124265D01*
X24499571Y45124265D01*
X24572142Y45087979D01*
X24608428Y45051693D01*
X24644714Y44979122D01*
X24644714Y44688836D01*
X23882714Y44688836D01*
X23882714Y44942836D01*
X23919000Y45015408D01*
X23955285Y45051693D01*
X24027857Y45087979D01*
X24100428Y45087979D01*
X24173000Y45051693D01*
X24209285Y45015408D01*
X24245571Y44942836D01*
X24245571Y44688836D01*
X24572142Y45886265D02*
X24608428Y45849979D01*
X24644714Y45741122D01*
X24644714Y45668550D01*
X24608428Y45559693D01*
X24535857Y45487122D01*
X24463285Y45450836D01*
X24318142Y45414550D01*
X24209285Y45414550D01*
X24064142Y45450836D01*
X23991571Y45487122D01*
X23919000Y45559693D01*
X23882714Y45668550D01*
X23882714Y45741122D01*
X23919000Y45849979D01*
X23955285Y45886265D01*
X24644714Y46575693D02*
X24644714Y46212836D01*
X23882714Y46212836D01*
X24644714Y46829693D02*
X23882714Y46829693D01*
X24644714Y47265122D02*
X24209285Y46938550D01*
X23882714Y47265122D02*
X24318142Y46829693D01*
X22104714Y42293979D02*
X21342714Y42293979D01*
X21415285Y42620550D02*
X21379000Y42656836D01*
X21342714Y42729408D01*
X21342714Y42910836D01*
X21379000Y42983408D01*
X21415285Y43019693D01*
X21487857Y43055979D01*
X21560428Y43055979D01*
X21669285Y43019693D01*
X22104714Y42584265D01*
X22104714Y43055979D01*
X22068428Y43346265D02*
X22104714Y43455122D01*
X22104714Y43636550D01*
X22068428Y43709122D01*
X22032142Y43745408D01*
X21959571Y43781693D01*
X21887000Y43781693D01*
X21814428Y43745408D01*
X21778142Y43709122D01*
X21741857Y43636550D01*
X21705571Y43491408D01*
X21669285Y43418836D01*
X21633000Y43382550D01*
X21560428Y43346265D01*
X21487857Y43346265D01*
X21415285Y43382550D01*
X21379000Y43418836D01*
X21342714Y43491408D01*
X21342714Y43672836D01*
X21379000Y43781693D01*
X22177285Y43926836D02*
X22177285Y44507408D01*
X21705571Y44942836D02*
X21705571Y44688836D01*
X22104714Y44688836D02*
X21342714Y44688836D01*
X21342714Y45051693D01*
X22032142Y45777408D02*
X22068428Y45741122D01*
X22104714Y45632265D01*
X22104714Y45559693D01*
X22068428Y45450836D01*
X21995857Y45378265D01*
X21923285Y45341979D01*
X21778142Y45305693D01*
X21669285Y45305693D01*
X21524142Y45341979D01*
X21451571Y45378265D01*
X21379000Y45450836D01*
X21342714Y45559693D01*
X21342714Y45632265D01*
X21379000Y45741122D01*
X21415285Y45777408D01*
X22104714Y46466836D02*
X22104714Y46103979D01*
X21342714Y46103979D01*
X22104714Y46720836D02*
X21342714Y46720836D01*
X22104714Y47156265D02*
X21669285Y46829693D01*
X21342714Y47156265D02*
X21778142Y46720836D01*
X31373174Y42164621D02*
X31373174Y42636335D01*
X31663460Y42382335D01*
X31663460Y42491192D01*
X31699745Y42563764D01*
X31736031Y42600050D01*
X31808602Y42636335D01*
X31990031Y42636335D01*
X32062602Y42600050D01*
X32098888Y42563764D01*
X32135174Y42491192D01*
X32135174Y42273478D01*
X32098888Y42200907D01*
X32062602Y42164621D01*
X31373174Y42854050D02*
X32135174Y43108050D01*
X31373174Y43362050D01*
X32609428Y48761000D02*
X32536857Y48797286D01*
X32428000Y48797286D01*
X32319142Y48761000D01*
X32246571Y48688429D01*
X32210285Y48615858D01*
X32174000Y48470715D01*
X32174000Y48361858D01*
X32210285Y48216715D01*
X32246571Y48144143D01*
X32319142Y48071572D01*
X32428000Y48035286D01*
X32500571Y48035286D01*
X32609428Y48071572D01*
X32645714Y48107858D01*
X32645714Y48361858D01*
X32500571Y48361858D01*
X32972285Y48035286D02*
X32972285Y48797286D01*
X33407714Y48035286D01*
X33407714Y48797286D01*
X33770571Y48035286D02*
X33770571Y48797286D01*
X33952000Y48797286D01*
X34060857Y48761000D01*
X34133428Y48688429D01*
X34169714Y48615858D01*
X34206000Y48470715D01*
X34206000Y48361858D01*
X34169714Y48216715D01*
X34133428Y48144143D01*
X34060857Y48071572D01*
X33952000Y48035286D01*
X33770571Y48035286D01*
X32373571Y45495286D02*
X32373571Y46257286D01*
X32627571Y45713000D01*
X32881571Y46257286D01*
X32881571Y45495286D01*
X33244428Y45495286D02*
X33244428Y46257286D01*
X34042714Y45567858D02*
X34006428Y45531572D01*
X33897571Y45495286D01*
X33825000Y45495286D01*
X33716142Y45531572D01*
X33643571Y45604143D01*
X33607285Y45676715D01*
X33571000Y45821858D01*
X33571000Y45930715D01*
X33607285Y46075858D01*
X33643571Y46148429D01*
X33716142Y46221000D01*
X33825000Y46257286D01*
X33897571Y46257286D01*
X34006428Y46221000D01*
X34042714Y46184715D01*
X36532640Y52824577D02*
X36496354Y52752006D01*
X36496354Y52643148D01*
X36532640Y52534291D01*
X36605211Y52461720D01*
X36677782Y52425434D01*
X36822925Y52389148D01*
X36931782Y52389148D01*
X37076925Y52425434D01*
X37149497Y52461720D01*
X37222068Y52534291D01*
X37258354Y52643148D01*
X37258354Y52715720D01*
X37222068Y52824577D01*
X37185782Y52860863D01*
X36931782Y52860863D01*
X36931782Y52715720D01*
X37258354Y53187434D02*
X36496354Y53187434D01*
X37258354Y53622863D01*
X36496354Y53622863D01*
X37258354Y53985720D02*
X36496354Y53985720D01*
X36496354Y54167148D01*
X36532640Y54276006D01*
X36605211Y54348577D01*
X36677782Y54384863D01*
X36822925Y54421148D01*
X36931782Y54421148D01*
X37076925Y54384863D01*
X37149497Y54348577D01*
X37222068Y54276006D01*
X37258354Y54167148D01*
X37258354Y53985720D01*
X27482257Y35345446D02*
X27482257Y36107446D01*
X27845114Y35345446D02*
X27845114Y36107446D01*
X28280542Y35345446D01*
X28280542Y36107446D01*
X11777800Y36104906D02*
X11922942Y36104906D01*
X11995514Y36068620D01*
X12068085Y35996049D01*
X12104371Y35850906D01*
X12104371Y35596906D01*
X12068085Y35451763D01*
X11995514Y35379192D01*
X11922942Y35342906D01*
X11777800Y35342906D01*
X11705228Y35379192D01*
X11632657Y35451763D01*
X11596371Y35596906D01*
X11596371Y35850906D01*
X11632657Y35996049D01*
X11705228Y36068620D01*
X11777800Y36104906D01*
X12430942Y36104906D02*
X12430942Y35488049D01*
X12467228Y35415478D01*
X12503514Y35379192D01*
X12576085Y35342906D01*
X12721228Y35342906D01*
X12793800Y35379192D01*
X12830085Y35415478D01*
X12866371Y35488049D01*
X12866371Y36104906D01*
X13120371Y36104906D02*
X13555800Y36104906D01*
X13338085Y35342906D02*
X13338085Y36104906D01*
X15945857Y33240286D02*
X15583000Y33240286D01*
X15583000Y34002286D01*
X21025857Y33240286D02*
X20771857Y33603143D01*
X20590428Y33240286D02*
X20590428Y34002286D01*
X20880714Y34002286D01*
X20953285Y33966000D01*
X20989571Y33929715D01*
X21025857Y33857143D01*
X21025857Y33748286D01*
X20989571Y33675715D01*
X20953285Y33639429D01*
X20880714Y33603143D01*
X20590428Y33603143D01*
X21025857Y33240286D02*
X20771857Y33603143D01*
X20590428Y33240286D02*
X20590428Y34002286D01*
X20880714Y34002286D01*
X20953285Y33966000D01*
X20989571Y33929715D01*
X21025857Y33857143D01*
X21025857Y33748286D01*
X20989571Y33675715D01*
X20953285Y33639429D01*
X20880714Y33603143D01*
X20590428Y33603143D01*
X18149571Y33401000D02*
X18077000Y33437286D01*
X17968142Y33437286D01*
X17859285Y33401000D01*
X17786714Y33328429D01*
X17750428Y33255858D01*
X17714142Y33110715D01*
X17714142Y33001858D01*
X17750428Y32856715D01*
X17786714Y32784143D01*
X17859285Y32711572D01*
X17968142Y32675286D01*
X18040714Y32675286D01*
X18149571Y32711572D01*
X18185857Y32747858D01*
X18185857Y33001858D01*
X18040714Y33001858D01*
X15945857Y33240286D02*
X15583000Y33240286D01*
X15583000Y34002286D01*
%TO.C,J10*%
D12*
X48190476Y3047620D02*
X48190476Y2333334D01*
X48142857Y2190477D01*
X48047619Y2095239D01*
X47904761Y2047620D01*
X47809523Y2047620D01*
X49190476Y2047620D02*
X48619047Y2047620D01*
X48904761Y2047620D02*
X48904761Y3047620D01*
X48809523Y2904762D01*
X48714285Y2809524D01*
X48619047Y2761905D01*
X49809523Y3047620D02*
X49904761Y3047620D01*
X50000000Y3000000D01*
X50047619Y2952381D01*
X50095238Y2857143D01*
X50142857Y2666667D01*
X50142857Y2428572D01*
X50095238Y2238096D01*
X50047619Y2142858D01*
X50000000Y2095239D01*
X49904761Y2047620D01*
X49809523Y2047620D01*
X49714285Y2095239D01*
X49666666Y2142858D01*
X49619047Y2238096D01*
X49571428Y2428572D01*
X49571428Y2666667D01*
X49619047Y2857143D01*
X49666666Y2952381D01*
X49714285Y3000000D01*
X49809523Y3047620D01*
X52476190Y2047620D02*
X52476190Y3047620D01*
X52857142Y3047620D01*
X52952380Y3000000D01*
X53000000Y2952381D01*
X53047619Y2857143D01*
X53047619Y2714286D01*
X53000000Y2619048D01*
X52952380Y2571429D01*
X52857142Y2523810D01*
X52476190Y2523810D01*
X53476190Y2571429D02*
X53809523Y2571429D01*
X53952380Y2047620D02*
X53476190Y2047620D01*
X53476190Y3047620D01*
X53952380Y3047620D01*
X54380952Y2047620D02*
X54380952Y3047620D01*
X54619047Y3047620D01*
X54761904Y3000000D01*
X54857142Y2904762D01*
X54904761Y2809524D01*
X54952380Y2619048D01*
X54952380Y2476191D01*
X54904761Y2285715D01*
X54857142Y2190477D01*
X54761904Y2095239D01*
X54619047Y2047620D01*
X54380952Y2047620D01*
X55333333Y2333334D02*
X55809523Y2333334D01*
X55238095Y2047620D02*
X55571428Y3047620D01*
X55904761Y2047620D01*
X56714285Y2047620D02*
X56238095Y2047620D01*
X56238095Y3047620D01*
X57571428Y2047620D02*
X57000000Y2047620D01*
X57285714Y2047620D02*
X57285714Y3047620D01*
X57190476Y2904762D01*
X57095238Y2809524D01*
X57000000Y2761905D01*
X55809523Y20047620D02*
X55476190Y20523810D01*
X55238095Y20047620D02*
X55238095Y21047620D01*
X55619047Y21047620D01*
X55714285Y21000000D01*
X55761904Y20952381D01*
X55809523Y20857143D01*
X55809523Y20714286D01*
X55761904Y20619048D01*
X55714285Y20571429D01*
X55619047Y20523810D01*
X55238095Y20523810D01*
X50214285Y21047620D02*
X50785714Y21047620D01*
X50500000Y20047620D02*
X50500000Y21047620D01*
X52714285Y10595239D02*
X52857142Y10547620D01*
X53095238Y10547620D01*
X53190476Y10595239D01*
X53238095Y10642858D01*
X53285714Y10738096D01*
X53285714Y10833334D01*
X53238095Y10928572D01*
X53190476Y10976191D01*
X53095238Y11023810D01*
X52904761Y11071429D01*
X52809523Y11119048D01*
X52761904Y11166667D01*
X52714285Y11261905D01*
X52714285Y11357143D01*
X52761904Y11452381D01*
X52809523Y11500000D01*
X52904761Y11547620D01*
X53142857Y11547620D01*
X53285714Y11500000D01*
%TO.C,J11*%
X71190476Y3047620D02*
X71190476Y2333334D01*
X71142857Y2190477D01*
X71047619Y2095239D01*
X70904761Y2047620D01*
X70809523Y2047620D01*
X72190476Y2047620D02*
X71619047Y2047620D01*
X71904761Y2047620D02*
X71904761Y3047620D01*
X71809523Y2904762D01*
X71714285Y2809524D01*
X71619047Y2761905D01*
X73142857Y2047620D02*
X72571428Y2047620D01*
X72857142Y2047620D02*
X72857142Y3047620D01*
X72761904Y2904762D01*
X72666666Y2809524D01*
X72571428Y2761905D01*
X75476190Y2047620D02*
X75476190Y3047620D01*
X75857142Y3047620D01*
X75952380Y3000000D01*
X76000000Y2952381D01*
X76047619Y2857143D01*
X76047619Y2714286D01*
X76000000Y2619048D01*
X75952380Y2571429D01*
X75857142Y2523810D01*
X75476190Y2523810D01*
X76476190Y2571429D02*
X76809523Y2571429D01*
X76952380Y2047620D02*
X76476190Y2047620D01*
X76476190Y3047620D01*
X76952380Y3047620D01*
X77380952Y2047620D02*
X77380952Y3047620D01*
X77619047Y3047620D01*
X77761904Y3000000D01*
X77857142Y2904762D01*
X77904761Y2809524D01*
X77952380Y2619048D01*
X77952380Y2476191D01*
X77904761Y2285715D01*
X77857142Y2190477D01*
X77761904Y2095239D01*
X77619047Y2047620D01*
X77380952Y2047620D01*
X78333333Y2333334D02*
X78809523Y2333334D01*
X78238095Y2047620D02*
X78571428Y3047620D01*
X78904761Y2047620D01*
X79714285Y2047620D02*
X79238095Y2047620D01*
X79238095Y3047620D01*
X80000000Y2952381D02*
X80047619Y3000000D01*
X80142857Y3047620D01*
X80380952Y3047620D01*
X80476190Y3000000D01*
X80523809Y2952381D01*
X80571428Y2857143D01*
X80571428Y2761905D01*
X80523809Y2619048D01*
X79952380Y2047620D01*
X80571428Y2047620D01*
X78809523Y20047620D02*
X78476190Y20523810D01*
X78238095Y20047620D02*
X78238095Y21047620D01*
X78619047Y21047620D01*
X78714285Y21000000D01*
X78761904Y20952381D01*
X78809523Y20857143D01*
X78809523Y20714286D01*
X78761904Y20619048D01*
X78714285Y20571429D01*
X78619047Y20523810D01*
X78238095Y20523810D01*
X73214285Y21047620D02*
X73785714Y21047620D01*
X73500000Y20047620D02*
X73500000Y21047620D01*
X75714285Y10595239D02*
X75857142Y10547620D01*
X76095238Y10547620D01*
X76190476Y10595239D01*
X76238095Y10642858D01*
X76285714Y10738096D01*
X76285714Y10833334D01*
X76238095Y10928572D01*
X76190476Y10976191D01*
X76095238Y11023810D01*
X75904761Y11071429D01*
X75809523Y11119048D01*
X75761904Y11166667D01*
X75714285Y11261905D01*
X75714285Y11357143D01*
X75761904Y11452381D01*
X75809523Y11500000D01*
X75904761Y11547620D01*
X76142857Y11547620D01*
X76285714Y11500000D01*
%TO.C,J12*%
X94190476Y3047620D02*
X94190476Y2333334D01*
X94142857Y2190477D01*
X94047619Y2095239D01*
X93904761Y2047620D01*
X93809523Y2047620D01*
X95190476Y2047620D02*
X94619047Y2047620D01*
X94904761Y2047620D02*
X94904761Y3047620D01*
X94809523Y2904762D01*
X94714285Y2809524D01*
X94619047Y2761905D01*
X95571428Y2952381D02*
X95619047Y3000000D01*
X95714285Y3047620D01*
X95952380Y3047620D01*
X96047619Y3000000D01*
X96095238Y2952381D01*
X96142857Y2857143D01*
X96142857Y2761905D01*
X96095238Y2619048D01*
X95523809Y2047620D01*
X96142857Y2047620D01*
X98476190Y2047620D02*
X98476190Y3047620D01*
X98857142Y3047620D01*
X98952380Y3000000D01*
X99000000Y2952381D01*
X99047619Y2857143D01*
X99047619Y2714286D01*
X99000000Y2619048D01*
X98952380Y2571429D01*
X98857142Y2523810D01*
X98476190Y2523810D01*
X99476190Y2571429D02*
X99809523Y2571429D01*
X99952380Y2047620D02*
X99476190Y2047620D01*
X99476190Y3047620D01*
X99952380Y3047620D01*
X100380952Y2047620D02*
X100380952Y3047620D01*
X100619047Y3047620D01*
X100761904Y3000000D01*
X100857142Y2904762D01*
X100904761Y2809524D01*
X100952380Y2619048D01*
X100952380Y2476191D01*
X100904761Y2285715D01*
X100857142Y2190477D01*
X100761904Y2095239D01*
X100619047Y2047620D01*
X100380952Y2047620D01*
X101333333Y2333334D02*
X101809523Y2333334D01*
X101238095Y2047620D02*
X101571428Y3047620D01*
X101904761Y2047620D01*
X102714285Y2047620D02*
X102238095Y2047620D01*
X102238095Y3047620D01*
X102952380Y3047620D02*
X103571428Y3047620D01*
X103238095Y2666667D01*
X103380952Y2666667D01*
X103476190Y2619048D01*
X103523809Y2571429D01*
X103571428Y2476191D01*
X103571428Y2238096D01*
X103523809Y2142858D01*
X103476190Y2095239D01*
X103380952Y2047620D01*
X103095238Y2047620D01*
X103000000Y2095239D01*
X102952380Y2142858D01*
X101809523Y20047620D02*
X101476190Y20523810D01*
X101238095Y20047620D02*
X101238095Y21047620D01*
X101619047Y21047620D01*
X101714285Y21000000D01*
X101761904Y20952381D01*
X101809523Y20857143D01*
X101809523Y20714286D01*
X101761904Y20619048D01*
X101714285Y20571429D01*
X101619047Y20523810D01*
X101238095Y20523810D01*
X96214285Y21047620D02*
X96785714Y21047620D01*
X96500000Y20047620D02*
X96500000Y21047620D01*
X98714285Y10595239D02*
X98857142Y10547620D01*
X99095238Y10547620D01*
X99190476Y10595239D01*
X99238095Y10642858D01*
X99285714Y10738096D01*
X99285714Y10833334D01*
X99238095Y10928572D01*
X99190476Y10976191D01*
X99095238Y11023810D01*
X98904761Y11071429D01*
X98809523Y11119048D01*
X98761904Y11166667D01*
X98714285Y11261905D01*
X98714285Y11357143D01*
X98761904Y11452381D01*
X98809523Y11500000D01*
X98904761Y11547620D01*
X99142857Y11547620D01*
X99285714Y11500000D01*
%TO.C,J13*%
X117190476Y3047620D02*
X117190476Y2333334D01*
X117142857Y2190477D01*
X117047619Y2095239D01*
X116904761Y2047620D01*
X116809523Y2047620D01*
X118190476Y2047620D02*
X117619047Y2047620D01*
X117904761Y2047620D02*
X117904761Y3047620D01*
X117809523Y2904762D01*
X117714285Y2809524D01*
X117619047Y2761905D01*
X118523809Y3047620D02*
X119142857Y3047620D01*
X118809523Y2666667D01*
X118952380Y2666667D01*
X119047619Y2619048D01*
X119095238Y2571429D01*
X119142857Y2476191D01*
X119142857Y2238096D01*
X119095238Y2142858D01*
X119047619Y2095239D01*
X118952380Y2047620D01*
X118666666Y2047620D01*
X118571428Y2095239D01*
X118523809Y2142858D01*
X121476190Y2047620D02*
X121476190Y3047620D01*
X121857142Y3047620D01*
X121952380Y3000000D01*
X122000000Y2952381D01*
X122047619Y2857143D01*
X122047619Y2714286D01*
X122000000Y2619048D01*
X121952380Y2571429D01*
X121857142Y2523810D01*
X121476190Y2523810D01*
X122476190Y2571429D02*
X122809523Y2571429D01*
X122952380Y2047620D02*
X122476190Y2047620D01*
X122476190Y3047620D01*
X122952380Y3047620D01*
X123380952Y2047620D02*
X123380952Y3047620D01*
X123619047Y3047620D01*
X123761904Y3000000D01*
X123857142Y2904762D01*
X123904761Y2809524D01*
X123952380Y2619048D01*
X123952380Y2476191D01*
X123904761Y2285715D01*
X123857142Y2190477D01*
X123761904Y2095239D01*
X123619047Y2047620D01*
X123380952Y2047620D01*
X124333333Y2333334D02*
X124809523Y2333334D01*
X124238095Y2047620D02*
X124571428Y3047620D01*
X124904761Y2047620D01*
X125714285Y2047620D02*
X125238095Y2047620D01*
X125238095Y3047620D01*
X126476190Y2714286D02*
X126476190Y2047620D01*
X126238095Y3095239D02*
X126000000Y2380953D01*
X126619047Y2380953D01*
X124809523Y20047620D02*
X124476190Y20523810D01*
X124238095Y20047620D02*
X124238095Y21047620D01*
X124619047Y21047620D01*
X124714285Y21000000D01*
X124761904Y20952381D01*
X124809523Y20857143D01*
X124809523Y20714286D01*
X124761904Y20619048D01*
X124714285Y20571429D01*
X124619047Y20523810D01*
X124238095Y20523810D01*
X119214285Y21047620D02*
X119785714Y21047620D01*
X119500000Y20047620D02*
X119500000Y21047620D01*
X121714285Y10595239D02*
X121857142Y10547620D01*
X122095238Y10547620D01*
X122190476Y10595239D01*
X122238095Y10642858D01*
X122285714Y10738096D01*
X122285714Y10833334D01*
X122238095Y10928572D01*
X122190476Y10976191D01*
X122095238Y11023810D01*
X121904761Y11071429D01*
X121809523Y11119048D01*
X121761904Y11166667D01*
X121714285Y11261905D01*
X121714285Y11357143D01*
X121761904Y11452381D01*
X121809523Y11500000D01*
X121904761Y11547620D01*
X122142857Y11547620D01*
X122285714Y11500000D01*
%TO.C,J14*%
X24190476Y2547620D02*
X24190476Y1833334D01*
X24142857Y1690477D01*
X24047619Y1595239D01*
X23904761Y1547620D01*
X23809523Y1547620D01*
X25190476Y1547620D02*
X24619047Y1547620D01*
X24904761Y1547620D02*
X24904761Y2547620D01*
X24809523Y2404762D01*
X24714285Y2309524D01*
X24619047Y2261905D01*
X26047619Y2214286D02*
X26047619Y1547620D01*
X25809523Y2595239D02*
X25571428Y1880953D01*
X26190476Y1880953D01*
X28547619Y2500000D02*
X28452380Y2547620D01*
X28309523Y2547620D01*
X28166666Y2500000D01*
X28071428Y2404762D01*
X28023809Y2309524D01*
X27976190Y2119048D01*
X27976190Y1976191D01*
X28023809Y1785715D01*
X28071428Y1690477D01*
X28166666Y1595239D01*
X28309523Y1547620D01*
X28404761Y1547620D01*
X28547619Y1595239D01*
X28595238Y1642858D01*
X28595238Y1976191D01*
X28404761Y1976191D01*
X29023809Y2547620D02*
X29023809Y1738096D01*
X29071428Y1642858D01*
X29119047Y1595239D01*
X29214285Y1547620D01*
X29404761Y1547620D01*
X29500000Y1595239D01*
X29547619Y1642858D01*
X29595238Y1738096D01*
X29595238Y2547620D01*
X30071428Y1547620D02*
X30071428Y2547620D01*
X30404761Y2547620D02*
X30976190Y2547620D01*
X30690476Y1547620D02*
X30690476Y2547620D01*
X31261904Y1833334D02*
X31738095Y1833334D01*
X31166666Y1547620D02*
X31500000Y2547620D01*
X31833333Y1547620D01*
X32738095Y1547620D02*
X32404761Y2023810D01*
X32166666Y1547620D02*
X32166666Y2547620D01*
X32547619Y2547620D01*
X32642857Y2500000D01*
X32690476Y2452381D01*
X32738095Y2357143D01*
X32738095Y2214286D01*
X32690476Y2119048D01*
X32642857Y2071429D01*
X32547619Y2023810D01*
X32166666Y2023810D01*
X32928571Y1452381D02*
X33690476Y1452381D01*
X33928571Y1547620D02*
X33928571Y2547620D01*
X34404761Y1547620D02*
X34404761Y2547620D01*
X34976190Y1547620D01*
X34976190Y2547620D01*
X31809523Y20047620D02*
X31476190Y20523810D01*
X31238095Y20047620D02*
X31238095Y21047620D01*
X31619047Y21047620D01*
X31714285Y21000000D01*
X31761904Y20952381D01*
X31809523Y20857143D01*
X31809523Y20714286D01*
X31761904Y20619048D01*
X31714285Y20571429D01*
X31619047Y20523810D01*
X31238095Y20523810D01*
X26214285Y21047620D02*
X26785714Y21047620D01*
X26500000Y20047620D02*
X26500000Y21047620D01*
X28714285Y10595239D02*
X28857142Y10547620D01*
X29095238Y10547620D01*
X29190476Y10595239D01*
X29238095Y10642858D01*
X29285714Y10738096D01*
X29285714Y10833334D01*
X29238095Y10928572D01*
X29190476Y10976191D01*
X29095238Y11023810D01*
X28904761Y11071429D01*
X28809523Y11119048D01*
X28761904Y11166667D01*
X28714285Y11261905D01*
X28714285Y11357143D01*
X28761904Y11452381D01*
X28809523Y11500000D01*
X28904761Y11547620D01*
X29142857Y11547620D01*
X29285714Y11500000D01*
%TO.C,J9*%
X134166666Y16547620D02*
X134166666Y15833334D01*
X134119047Y15690477D01*
X134023809Y15595239D01*
X133880952Y15547620D01*
X133785714Y15547620D01*
X134690476Y15547620D02*
X134880952Y15547620D01*
X134976190Y15595239D01*
X135023809Y15642858D01*
X135119047Y15785715D01*
X135166666Y15976191D01*
X135166666Y16357143D01*
X135119047Y16452381D01*
X135071428Y16500000D01*
X134976190Y16547620D01*
X134785714Y16547620D01*
X134690476Y16500000D01*
X134642857Y16452381D01*
X134595238Y16357143D01*
X134595238Y16119048D01*
X134642857Y16023810D01*
X134690476Y15976191D01*
X134785714Y15928572D01*
X134976190Y15928572D01*
X135071428Y15976191D01*
X135119047Y16023810D01*
X135166666Y16119048D01*
%TO.C,R5*%
X124871904Y36152381D02*
X124919523Y36200000D01*
X125014761Y36247620D01*
X125252857Y36247620D01*
X125348095Y36200000D01*
X125395714Y36152381D01*
X125443333Y36057143D01*
X125443333Y35961905D01*
X125395714Y35819048D01*
X124824285Y35247620D01*
X125443333Y35247620D01*
X125824285Y36152381D02*
X125871904Y36200000D01*
X125967142Y36247620D01*
X126205238Y36247620D01*
X126300476Y36200000D01*
X126348095Y36152381D01*
X126395714Y36057143D01*
X126395714Y35961905D01*
X126348095Y35819048D01*
X125776666Y35247620D01*
X126395714Y35247620D01*
X127014761Y36247620D02*
X127110000Y36247620D01*
X127205238Y36200000D01*
X127252857Y36152381D01*
X127300476Y36057143D01*
X127348095Y35866667D01*
X127348095Y35628572D01*
X127300476Y35438096D01*
X127252857Y35342858D01*
X127205238Y35295239D01*
X127110000Y35247620D01*
X127014761Y35247620D01*
X126919523Y35295239D01*
X126871904Y35342858D01*
X126824285Y35438096D01*
X126776666Y35628572D01*
X126776666Y35866667D01*
X126824285Y36057143D01*
X126871904Y36152381D01*
X126919523Y36200000D01*
X127014761Y36247620D01*
%TO.C,U2*%
X111166666Y50246667D02*
X110466666Y50246667D01*
X110466666Y50413334D01*
X110500000Y50513334D01*
X110566666Y50580000D01*
X110633333Y50613334D01*
X110766666Y50646667D01*
X110866666Y50646667D01*
X111000000Y50613334D01*
X111066666Y50580000D01*
X111133333Y50513334D01*
X111166666Y50413334D01*
X111166666Y50246667D01*
X110466666Y50846667D02*
X111166666Y51080000D01*
X110466666Y51313334D01*
X110466666Y51746667D02*
X110966666Y51746667D01*
X111066666Y51713334D01*
X111133333Y51646667D01*
X111166666Y51546667D01*
X111166666Y51480000D01*
X110466666Y52380000D02*
X110466666Y52246667D01*
X110500000Y52180000D01*
X110533333Y52146667D01*
X110633333Y52080000D01*
X110766666Y52046667D01*
X111033333Y52046667D01*
X111100000Y52080000D01*
X111133333Y52113334D01*
X111166666Y52180000D01*
X111166666Y52313334D01*
X111133333Y52380000D01*
X111100000Y52413334D01*
X111033333Y52446667D01*
X110866666Y52446667D01*
X110800000Y52413334D01*
X110766666Y52380000D01*
X110733333Y52313334D01*
X110733333Y52180000D01*
X110766666Y52113334D01*
X110800000Y52080000D01*
X110866666Y52046667D01*
X110966666Y52713334D02*
X110966666Y53046667D01*
X111166666Y52646667D02*
X110466666Y52880000D01*
X111166666Y53113334D01*
X112436666Y48366667D02*
X111736666Y48366667D01*
X112236666Y48600000D01*
X111736666Y48833334D01*
X112436666Y48833334D01*
X112436666Y49166667D02*
X111736666Y49166667D01*
X112436666Y49500000D02*
X111736666Y49500000D01*
X112236666Y49733334D01*
X111736666Y49966667D01*
X112436666Y49966667D01*
X111736666Y50233334D02*
X112436666Y50700000D01*
X111736666Y50700000D02*
X112436666Y50233334D01*
X112436666Y51366667D02*
X112103333Y51133334D01*
X112436666Y50966667D02*
X111736666Y50966667D01*
X111736666Y51233334D01*
X111770000Y51300000D01*
X111803333Y51333334D01*
X111870000Y51366667D01*
X111970000Y51366667D01*
X112036666Y51333334D01*
X112070000Y51300000D01*
X112103333Y51233334D01*
X112103333Y50966667D01*
X111736666Y51566667D02*
X111736666Y51966667D01*
X112436666Y51766667D02*
X111736666Y51766667D01*
X112436666Y52566667D02*
X112436666Y52166667D01*
X112436666Y52366667D02*
X111736666Y52366667D01*
X111836666Y52300000D01*
X111903333Y52233334D01*
X111936666Y52166667D01*
X111736666Y53000000D02*
X111736666Y53066667D01*
X111770000Y53133334D01*
X111803333Y53166667D01*
X111870000Y53200000D01*
X112003333Y53233334D01*
X112170000Y53233334D01*
X112303333Y53200000D01*
X112370000Y53166667D01*
X112403333Y53133334D01*
X112436666Y53066667D01*
X112436666Y53000000D01*
X112403333Y52933334D01*
X112370000Y52900000D01*
X112303333Y52866667D01*
X112170000Y52833334D01*
X112003333Y52833334D01*
X111870000Y52866667D01*
X111803333Y52900000D01*
X111770000Y52933334D01*
X111736666Y53000000D01*
X111736666Y53833334D02*
X111736666Y53700000D01*
X111770000Y53633334D01*
X111803333Y53600000D01*
X111903333Y53533334D01*
X112036666Y53500000D01*
X112303333Y53500000D01*
X112370000Y53533334D01*
X112403333Y53566667D01*
X112436666Y53633334D01*
X112436666Y53766667D01*
X112403333Y53833334D01*
X112370000Y53866667D01*
X112303333Y53900000D01*
X112136666Y53900000D01*
X112070000Y53866667D01*
X112036666Y53833334D01*
X112003333Y53766667D01*
X112003333Y53633334D01*
X112036666Y53566667D01*
X112070000Y53533334D01*
X112136666Y53500000D01*
X111803333Y54166667D02*
X111770000Y54200000D01*
X111736666Y54266667D01*
X111736666Y54433334D01*
X111770000Y54500000D01*
X111803333Y54533334D01*
X111870000Y54566667D01*
X111936666Y54566667D01*
X112036666Y54533334D01*
X112436666Y54133334D01*
X112436666Y54566667D01*
X134400952Y50997620D02*
X134400952Y51997620D01*
X134734285Y51283334D01*
X135067619Y51997620D01*
X135067619Y50997620D01*
X135543809Y50997620D02*
X135543809Y51664286D01*
X135543809Y51997620D02*
X135496190Y51950000D01*
X135543809Y51902381D01*
X135591428Y51950000D01*
X135543809Y51997620D01*
X135543809Y51902381D01*
X136448571Y51045239D02*
X136353333Y50997620D01*
X136162857Y50997620D01*
X136067619Y51045239D01*
X136020000Y51092858D01*
X135972380Y51188096D01*
X135972380Y51473810D01*
X136020000Y51569048D01*
X136067619Y51616667D01*
X136162857Y51664286D01*
X136353333Y51664286D01*
X136448571Y51616667D01*
X136877142Y50997620D02*
X136877142Y51664286D01*
X136877142Y51473810D02*
X136924761Y51569048D01*
X136972380Y51616667D01*
X137067619Y51664286D01*
X137162857Y51664286D01*
X137639047Y50997620D02*
X137543809Y51045239D01*
X137496190Y51092858D01*
X137448571Y51188096D01*
X137448571Y51473810D01*
X137496190Y51569048D01*
X137543809Y51616667D01*
X137639047Y51664286D01*
X137781904Y51664286D01*
X137877142Y51616667D01*
X137924761Y51569048D01*
X137972380Y51473810D01*
X137972380Y51188096D01*
X137924761Y51092858D01*
X137877142Y51045239D01*
X137781904Y50997620D01*
X137639047Y50997620D01*
X139115238Y51045239D02*
X139258095Y50997620D01*
X139496190Y50997620D01*
X139591428Y51045239D01*
X139639047Y51092858D01*
X139686666Y51188096D01*
X139686666Y51283334D01*
X139639047Y51378572D01*
X139591428Y51426191D01*
X139496190Y51473810D01*
X139305714Y51521429D01*
X139210476Y51569048D01*
X139162857Y51616667D01*
X139115238Y51711905D01*
X139115238Y51807143D01*
X139162857Y51902381D01*
X139210476Y51950000D01*
X139305714Y51997620D01*
X139543809Y51997620D01*
X139686666Y51950000D01*
X140115238Y50997620D02*
X140115238Y51997620D01*
X140353333Y51997620D01*
X140496190Y51950000D01*
X140591428Y51854762D01*
X140639047Y51759524D01*
X140686666Y51569048D01*
X140686666Y51426191D01*
X140639047Y51235715D01*
X140591428Y51140477D01*
X140496190Y51045239D01*
X140353333Y50997620D01*
X140115238Y50997620D01*
X86172380Y50188096D02*
X86981904Y50188096D01*
X87077142Y50235715D01*
X87124761Y50283334D01*
X87172380Y50378572D01*
X87172380Y50569048D01*
X87124761Y50664286D01*
X87077142Y50711905D01*
X86981904Y50759524D01*
X86172380Y50759524D01*
X87124761Y51188096D02*
X87172380Y51330953D01*
X87172380Y51569048D01*
X87124761Y51664286D01*
X87077142Y51711905D01*
X86981904Y51759524D01*
X86886666Y51759524D01*
X86791428Y51711905D01*
X86743809Y51664286D01*
X86696190Y51569048D01*
X86648571Y51378572D01*
X86600952Y51283334D01*
X86553333Y51235715D01*
X86458095Y51188096D01*
X86362857Y51188096D01*
X86267619Y51235715D01*
X86220000Y51283334D01*
X86172380Y51378572D01*
X86172380Y51616667D01*
X86220000Y51759524D01*
X86648571Y52521429D02*
X86696190Y52664286D01*
X86743809Y52711905D01*
X86839047Y52759524D01*
X86981904Y52759524D01*
X87077142Y52711905D01*
X87124761Y52664286D01*
X87172380Y52569048D01*
X87172380Y52188096D01*
X86172380Y52188096D01*
X86172380Y52521429D01*
X86220000Y52616667D01*
X86267619Y52664286D01*
X86362857Y52711905D01*
X86458095Y52711905D01*
X86553333Y52664286D01*
X86600952Y52616667D01*
X86648571Y52521429D01*
X86648571Y52188096D01*
X101253571Y51869458D02*
X101253571Y52202791D01*
X101777380Y52345648D02*
X101777380Y51869458D01*
X100777380Y51869458D01*
X100777380Y52345648D01*
X101110714Y52631362D02*
X101110714Y53012315D01*
X100777380Y52774220D02*
X101634523Y52774220D01*
X101729761Y52821839D01*
X101777380Y52917077D01*
X101777380Y53012315D01*
X101777380Y53345648D02*
X100777380Y53345648D01*
X101777380Y53774220D02*
X101253571Y53774220D01*
X101158333Y53726600D01*
X101110714Y53631362D01*
X101110714Y53488505D01*
X101158333Y53393267D01*
X101205952Y53345648D01*
X101729761Y54631362D02*
X101777380Y54536124D01*
X101777380Y54345648D01*
X101729761Y54250410D01*
X101634523Y54202791D01*
X101253571Y54202791D01*
X101158333Y54250410D01*
X101110714Y54345648D01*
X101110714Y54536124D01*
X101158333Y54631362D01*
X101253571Y54678981D01*
X101348809Y54678981D01*
X101444047Y54202791D01*
X101777380Y55107553D02*
X101110714Y55107553D01*
X101301190Y55107553D02*
X101205952Y55155172D01*
X101158333Y55202791D01*
X101110714Y55298029D01*
X101110714Y55393267D01*
X101110714Y55726600D02*
X101777380Y55726600D01*
X101205952Y55726600D02*
X101158333Y55774220D01*
X101110714Y55869458D01*
X101110714Y56012315D01*
X101158333Y56107553D01*
X101253571Y56155172D01*
X101777380Y56155172D01*
X101729761Y57012315D02*
X101777380Y56917077D01*
X101777380Y56726600D01*
X101729761Y56631362D01*
X101634523Y56583743D01*
X101253571Y56583743D01*
X101158333Y56631362D01*
X101110714Y56726600D01*
X101110714Y56917077D01*
X101158333Y57012315D01*
X101253571Y57059934D01*
X101348809Y57059934D01*
X101444047Y56583743D01*
X101110714Y57345648D02*
X101110714Y57726600D01*
X100777380Y57488505D02*
X101634523Y57488505D01*
X101729761Y57536124D01*
X101777380Y57631362D01*
X101777380Y57726600D01*
X91614676Y49508420D02*
X91614676Y48698896D01*
X91662295Y48603658D01*
X91709914Y48556039D01*
X91805152Y48508420D01*
X91995628Y48508420D01*
X92090866Y48556039D01*
X92138485Y48603658D01*
X92186104Y48698896D01*
X92186104Y49508420D01*
X92614676Y48556039D02*
X92757533Y48508420D01*
X92995628Y48508420D01*
X93090866Y48556039D01*
X93138485Y48603658D01*
X93186104Y48698896D01*
X93186104Y48794134D01*
X93138485Y48889372D01*
X93090866Y48936991D01*
X92995628Y48984610D01*
X92805152Y49032229D01*
X92709914Y49079848D01*
X92662295Y49127467D01*
X92614676Y49222705D01*
X92614676Y49317943D01*
X92662295Y49413181D01*
X92709914Y49460800D01*
X92805152Y49508420D01*
X93043247Y49508420D01*
X93186104Y49460800D01*
X93948009Y49032229D02*
X94090866Y48984610D01*
X94138485Y48936991D01*
X94186104Y48841753D01*
X94186104Y48698896D01*
X94138485Y48603658D01*
X94090866Y48556039D01*
X93995628Y48508420D01*
X93614676Y48508420D01*
X93614676Y49508420D01*
X93948009Y49508420D01*
X94043247Y49460800D01*
X94090866Y49413181D01*
X94138485Y49317943D01*
X94138485Y49222705D01*
X94090866Y49127467D01*
X94043247Y49079848D01*
X93948009Y49032229D01*
X93614676Y49032229D01*
X95376580Y48508420D02*
X95376580Y49508420D01*
X95376580Y49032229D02*
X95948009Y49032229D01*
X95948009Y48508420D02*
X95948009Y49508420D01*
X96567057Y48508420D02*
X96471819Y48556039D01*
X96424200Y48603658D01*
X96376580Y48698896D01*
X96376580Y48984610D01*
X96424200Y49079848D01*
X96471819Y49127467D01*
X96567057Y49175086D01*
X96709914Y49175086D01*
X96805152Y49127467D01*
X96852771Y49079848D01*
X96900390Y48984610D01*
X96900390Y48698896D01*
X96852771Y48603658D01*
X96805152Y48556039D01*
X96709914Y48508420D01*
X96567057Y48508420D01*
X97281342Y48556039D02*
X97376580Y48508420D01*
X97567057Y48508420D01*
X97662295Y48556039D01*
X97709914Y48651277D01*
X97709914Y48698896D01*
X97662295Y48794134D01*
X97567057Y48841753D01*
X97424200Y48841753D01*
X97328961Y48889372D01*
X97281342Y48984610D01*
X97281342Y49032229D01*
X97328961Y49127467D01*
X97424200Y49175086D01*
X97567057Y49175086D01*
X97662295Y49127467D01*
X97995628Y49175086D02*
X98376580Y49175086D01*
X98138485Y49508420D02*
X98138485Y48651277D01*
X98186104Y48556039D01*
X98281342Y48508420D01*
X98376580Y48508420D01*
%TO.C,C1*%
X55095238Y60047620D02*
X54523809Y60047620D01*
X54809523Y60047620D02*
X54809523Y61047620D01*
X54714285Y60904762D01*
X54619047Y60809524D01*
X54523809Y60761905D01*
X55714285Y61047620D02*
X55809523Y61047620D01*
X55904761Y61000000D01*
X55952380Y60952381D01*
X56000000Y60857143D01*
X56047619Y60666667D01*
X56047619Y60428572D01*
X56000000Y60238096D01*
X55952380Y60142858D01*
X55904761Y60095239D01*
X55809523Y60047620D01*
X55714285Y60047620D01*
X55619047Y60095239D01*
X55571428Y60142858D01*
X55523809Y60238096D01*
X55476190Y60428572D01*
X55476190Y60666667D01*
X55523809Y60857143D01*
X55571428Y60952381D01*
X55619047Y61000000D01*
X55714285Y61047620D01*
X56666666Y61047620D02*
X56761904Y61047620D01*
X56857142Y61000000D01*
X56904761Y60952381D01*
X56952380Y60857143D01*
X57000000Y60666667D01*
X57000000Y60428572D01*
X56952380Y60238096D01*
X56904761Y60142858D01*
X56857142Y60095239D01*
X56761904Y60047620D01*
X56666666Y60047620D01*
X56571428Y60095239D01*
X56523809Y60142858D01*
X56476190Y60238096D01*
X56428571Y60428572D01*
X56428571Y60666667D01*
X56476190Y60857143D01*
X56523809Y60952381D01*
X56571428Y61000000D01*
X56666666Y61047620D01*
X57857142Y60714286D02*
X57857142Y60047620D01*
X57428571Y60714286D02*
X57428571Y60190477D01*
X57476190Y60095239D01*
X57571428Y60047620D01*
X57714285Y60047620D01*
X57809523Y60095239D01*
X57857142Y60142858D01*
X58190476Y60714286D02*
X58571428Y60714286D01*
X58333333Y60047620D02*
X58333333Y60904762D01*
X58380952Y61000000D01*
X58476190Y61047620D01*
X58571428Y61047620D01*
%TO.C,C2*%
X85976190Y67814286D02*
X85976190Y67147620D01*
X85738095Y68195239D02*
X85500000Y67480953D01*
X86119047Y67480953D01*
X86404761Y68147620D02*
X87071428Y68147620D01*
X86642857Y67147620D01*
X87880952Y67814286D02*
X87880952Y67147620D01*
X87452380Y67814286D02*
X87452380Y67290477D01*
X87500000Y67195239D01*
X87595238Y67147620D01*
X87738095Y67147620D01*
X87833333Y67195239D01*
X87880952Y67242858D01*
X88214285Y67814286D02*
X88595238Y67814286D01*
X88357142Y67147620D02*
X88357142Y68004762D01*
X88404761Y68100000D01*
X88500000Y68147620D01*
X88595238Y68147620D01*
%TO.C,J1*%
X108666666Y82047620D02*
X108666666Y81333334D01*
X108619047Y81190477D01*
X108523809Y81095239D01*
X108380952Y81047620D01*
X108285714Y81047620D01*
X109666666Y81047620D02*
X109095238Y81047620D01*
X109380952Y81047620D02*
X109380952Y82047620D01*
X109285714Y81904762D01*
X109190476Y81809524D01*
X109095238Y81761905D01*
X114404761Y84047620D02*
X114071428Y84523810D01*
X113833333Y84047620D02*
X113833333Y85047620D01*
X114214285Y85047620D01*
X114309523Y85000000D01*
X114357142Y84952381D01*
X114404761Y84857143D01*
X114404761Y84714286D01*
X114357142Y84619048D01*
X114309523Y84571429D01*
X114214285Y84523810D01*
X113833333Y84523810D01*
X115023809Y85047620D02*
X115214285Y85047620D01*
X115309523Y85000000D01*
X115404761Y84904762D01*
X115452380Y84714286D01*
X115452380Y84380953D01*
X115404761Y84190477D01*
X115309523Y84095239D01*
X115214285Y84047620D01*
X115023809Y84047620D01*
X114928571Y84095239D01*
X114833333Y84190477D01*
X114785714Y84380953D01*
X114785714Y84714286D01*
X114833333Y84904762D01*
X114928571Y85000000D01*
X115023809Y85047620D01*
X115785714Y85047620D02*
X116023809Y84047620D01*
X116214285Y84761905D01*
X116404761Y84047620D01*
X116642857Y85047620D01*
X116785714Y83952381D02*
X117547619Y83952381D01*
X118119047Y84571429D02*
X118261904Y84523810D01*
X118309523Y84476191D01*
X118357142Y84380953D01*
X118357142Y84238096D01*
X118309523Y84142858D01*
X118261904Y84095239D01*
X118166666Y84047620D01*
X117785714Y84047620D01*
X117785714Y85047620D01*
X118119047Y85047620D01*
X118214285Y85000000D01*
X118261904Y84952381D01*
X118309523Y84857143D01*
X118309523Y84761905D01*
X118261904Y84666667D01*
X118214285Y84619048D01*
X118119047Y84571429D01*
X117785714Y84571429D01*
X118976190Y85047620D02*
X119166666Y85047620D01*
X119261904Y85000000D01*
X119357142Y84904762D01*
X119404761Y84714286D01*
X119404761Y84380953D01*
X119357142Y84190477D01*
X119261904Y84095239D01*
X119166666Y84047620D01*
X118976190Y84047620D01*
X118880952Y84095239D01*
X118785714Y84190477D01*
X118738095Y84380953D01*
X118738095Y84714286D01*
X118785714Y84904762D01*
X118880952Y85000000D01*
X118976190Y85047620D01*
X119785714Y84333334D02*
X120261904Y84333334D01*
X119690476Y84047620D02*
X120023809Y85047620D01*
X120357142Y84047620D01*
X121261904Y84047620D02*
X120928571Y84523810D01*
X120690476Y84047620D02*
X120690476Y85047620D01*
X121071428Y85047620D01*
X121166666Y85000000D01*
X121214285Y84952381D01*
X121261904Y84857143D01*
X121261904Y84714286D01*
X121214285Y84619048D01*
X121166666Y84571429D01*
X121071428Y84523810D01*
X120690476Y84523810D01*
X121690476Y84047620D02*
X121690476Y85047620D01*
X121928571Y85047620D01*
X122071428Y85000000D01*
X122166666Y84904762D01*
X122214285Y84809524D01*
X122261904Y84619048D01*
X122261904Y84476191D01*
X122214285Y84285715D01*
X122166666Y84190477D01*
X122071428Y84095239D01*
X121928571Y84047620D01*
X121690476Y84047620D01*
X122642857Y84095239D02*
X122785714Y84047620D01*
X123023809Y84047620D01*
X123119047Y84095239D01*
X123166666Y84142858D01*
X123214285Y84238096D01*
X123214285Y84333334D01*
X123166666Y84428572D01*
X123119047Y84476191D01*
X123023809Y84523810D01*
X122833333Y84571429D01*
X122738095Y84619048D01*
X122690476Y84666667D01*
X122642857Y84761905D01*
X122642857Y84857143D01*
X122690476Y84952381D01*
X122738095Y85000000D01*
X122833333Y85047620D01*
X123071428Y85047620D01*
X123214285Y85000000D01*
%TO.C,J2*%
X130966666Y82047620D02*
X130966666Y81333334D01*
X130919047Y81190477D01*
X130823809Y81095239D01*
X130680952Y81047620D01*
X130585714Y81047620D01*
X131395238Y81952381D02*
X131442857Y82000000D01*
X131538095Y82047620D01*
X131776190Y82047620D01*
X131871428Y82000000D01*
X131919047Y81952381D01*
X131966666Y81857143D01*
X131966666Y81761905D01*
X131919047Y81619048D01*
X131347619Y81047620D01*
X131966666Y81047620D01*
X132609523Y84047620D02*
X132276190Y84523810D01*
X132038095Y84047620D02*
X132038095Y85047620D01*
X132419047Y85047620D01*
X132514285Y85000000D01*
X132561904Y84952381D01*
X132609523Y84857143D01*
X132609523Y84714286D01*
X132561904Y84619048D01*
X132514285Y84571429D01*
X132419047Y84523810D01*
X132038095Y84523810D01*
X133228571Y85047620D02*
X133419047Y85047620D01*
X133514285Y85000000D01*
X133609523Y84904762D01*
X133657142Y84714286D01*
X133657142Y84380953D01*
X133609523Y84190477D01*
X133514285Y84095239D01*
X133419047Y84047620D01*
X133228571Y84047620D01*
X133133333Y84095239D01*
X133038095Y84190477D01*
X132990476Y84380953D01*
X132990476Y84714286D01*
X133038095Y84904762D01*
X133133333Y85000000D01*
X133228571Y85047620D01*
X133942857Y85047620D02*
X134514285Y85047620D01*
X134228571Y84047620D02*
X134228571Y85047620D01*
X134800000Y84333334D02*
X135276190Y84333334D01*
X134704761Y84047620D02*
X135038095Y85047620D01*
X135371428Y84047620D01*
X136276190Y84047620D02*
X135942857Y84523810D01*
X135704761Y84047620D02*
X135704761Y85047620D01*
X136085714Y85047620D01*
X136180952Y85000000D01*
X136228571Y84952381D01*
X136276190Y84857143D01*
X136276190Y84714286D01*
X136228571Y84619048D01*
X136180952Y84571429D01*
X136085714Y84523810D01*
X135704761Y84523810D01*
X136704761Y84047620D02*
X136704761Y85047620D01*
X137180952Y84571429D02*
X137514285Y84571429D01*
X137657142Y84047620D02*
X137180952Y84047620D01*
X137180952Y85047620D01*
X137657142Y85047620D01*
X138038095Y84095239D02*
X138180952Y84047620D01*
X138419047Y84047620D01*
X138514285Y84095239D01*
X138561904Y84142858D01*
X138609523Y84238096D01*
X138609523Y84333334D01*
X138561904Y84428572D01*
X138514285Y84476191D01*
X138419047Y84523810D01*
X138228571Y84571429D01*
X138133333Y84619048D01*
X138085714Y84666667D01*
X138038095Y84761905D01*
X138038095Y84857143D01*
X138085714Y84952381D01*
X138133333Y85000000D01*
X138228571Y85047620D01*
X138466666Y85047620D01*
X138609523Y85000000D01*
%TO.C,J3*%
X102166666Y31047620D02*
X102166666Y30333334D01*
X102119047Y30190477D01*
X102023809Y30095239D01*
X101880952Y30047620D01*
X101785714Y30047620D01*
X102547619Y31047620D02*
X103166666Y31047620D01*
X102833333Y30666667D01*
X102976190Y30666667D01*
X103071428Y30619048D01*
X103119047Y30571429D01*
X103166666Y30476191D01*
X103166666Y30238096D01*
X103119047Y30142858D01*
X103071428Y30095239D01*
X102976190Y30047620D01*
X102690476Y30047620D01*
X102595238Y30095239D01*
X102547619Y30142858D01*
X106904761Y31047620D02*
X107476190Y31047620D01*
X107190476Y30047620D02*
X107190476Y31047620D01*
X107809523Y30571429D02*
X108142857Y30571429D01*
X108285714Y30047620D02*
X107809523Y30047620D01*
X107809523Y31047620D01*
X108285714Y31047620D01*
X108476190Y29952381D02*
X109238095Y29952381D01*
X109476190Y30047620D02*
X109476190Y31047620D01*
X109714285Y31047620D01*
X109857142Y31000000D01*
X109952380Y30904762D01*
X110000000Y30809524D01*
X110047619Y30619048D01*
X110047619Y30476191D01*
X110000000Y30285715D01*
X109952380Y30190477D01*
X109857142Y30095239D01*
X109714285Y30047620D01*
X109476190Y30047620D01*
X110476190Y30047620D02*
X110476190Y31047620D01*
X110904761Y30095239D02*
X111047619Y30047620D01*
X111285714Y30047620D01*
X111380952Y30095239D01*
X111428571Y30142858D01*
X111476190Y30238096D01*
X111476190Y30333334D01*
X111428571Y30428572D01*
X111380952Y30476191D01*
X111285714Y30523810D01*
X111095238Y30571429D01*
X111000000Y30619048D01*
X110952380Y30666667D01*
X110904761Y30761905D01*
X110904761Y30857143D01*
X110952380Y30952381D01*
X111000000Y31000000D01*
X111095238Y31047620D01*
X111333333Y31047620D01*
X111476190Y31000000D01*
X111904761Y30047620D02*
X111904761Y31047620D01*
X112285714Y31047620D01*
X112380952Y31000000D01*
X112428571Y30952381D01*
X112476190Y30857143D01*
X112476190Y30714286D01*
X112428571Y30619048D01*
X112380952Y30571429D01*
X112285714Y30523810D01*
X111904761Y30523810D01*
X113380952Y30047620D02*
X112904761Y30047620D01*
X112904761Y31047620D01*
X113666666Y30333334D02*
X114142857Y30333334D01*
X113571428Y30047620D02*
X113904761Y31047620D01*
X114238095Y30047620D01*
X114761904Y30523810D02*
X114761904Y30047620D01*
X114428571Y31047620D02*
X114761904Y30523810D01*
X115095238Y31047620D01*
%TO.C,J4*%
X53666666Y75047620D02*
X53666666Y74333334D01*
X53619047Y74190477D01*
X53523809Y74095239D01*
X53380952Y74047620D01*
X53285714Y74047620D01*
X54571428Y74714286D02*
X54571428Y74047620D01*
X54333333Y75095239D02*
X54095238Y74380953D01*
X54714285Y74380953D01*
X53814285Y76047620D02*
X53480952Y76523810D01*
X53242857Y76047620D02*
X53242857Y77047620D01*
X53623809Y77047620D01*
X53719047Y77000000D01*
X53766666Y76952381D01*
X53814285Y76857143D01*
X53814285Y76714286D01*
X53766666Y76619048D01*
X53719047Y76571429D01*
X53623809Y76523810D01*
X53242857Y76523810D01*
X54242857Y76047620D02*
X54242857Y77047620D01*
X54623809Y77047620D01*
X54719047Y77000000D01*
X54766666Y76952381D01*
X54814285Y76857143D01*
X54814285Y76714286D01*
X54766666Y76619048D01*
X54719047Y76571429D01*
X54623809Y76523810D01*
X54242857Y76523810D01*
X55242857Y76047620D02*
X55242857Y77047620D01*
X55480952Y75952381D02*
X56242857Y75952381D01*
X56480952Y76047620D02*
X56480952Y77047620D01*
X56719047Y77047620D01*
X56861904Y77000000D01*
X56957142Y76904762D01*
X57004761Y76809524D01*
X57052380Y76619048D01*
X57052380Y76476191D01*
X57004761Y76285715D01*
X56957142Y76190477D01*
X56861904Y76095239D01*
X56719047Y76047620D01*
X56480952Y76047620D01*
X57480952Y76047620D02*
X57480952Y77047620D01*
X57909523Y76095239D02*
X58052380Y76047620D01*
X58290476Y76047620D01*
X58385714Y76095239D01*
X58433333Y76142858D01*
X58480952Y76238096D01*
X58480952Y76333334D01*
X58433333Y76428572D01*
X58385714Y76476191D01*
X58290476Y76523810D01*
X58100000Y76571429D01*
X58004761Y76619048D01*
X57957142Y76666667D01*
X57909523Y76761905D01*
X57909523Y76857143D01*
X57957142Y76952381D01*
X58004761Y77000000D01*
X58100000Y77047620D01*
X58338095Y77047620D01*
X58480952Y77000000D01*
X58909523Y76047620D02*
X58909523Y77047620D01*
X59290476Y77047620D01*
X59385714Y77000000D01*
X59433333Y76952381D01*
X59480952Y76857143D01*
X59480952Y76714286D01*
X59433333Y76619048D01*
X59385714Y76571429D01*
X59290476Y76523810D01*
X58909523Y76523810D01*
X60385714Y76047620D02*
X59909523Y76047620D01*
X59909523Y77047620D01*
X60671428Y76333334D02*
X61147619Y76333334D01*
X60576190Y76047620D02*
X60909523Y77047620D01*
X61242857Y76047620D01*
X61766666Y76523810D02*
X61766666Y76047620D01*
X61433333Y77047620D02*
X61766666Y76523810D01*
X62100000Y77047620D01*
%TO.C,J5*%
X85666666Y75047620D02*
X85666666Y74333334D01*
X85619047Y74190477D01*
X85523809Y74095239D01*
X85380952Y74047620D01*
X85285714Y74047620D01*
X86619047Y75047620D02*
X86142857Y75047620D01*
X86095238Y74571429D01*
X86142857Y74619048D01*
X86238095Y74666667D01*
X86476190Y74666667D01*
X86571428Y74619048D01*
X86619047Y74571429D01*
X86666666Y74476191D01*
X86666666Y74238096D01*
X86619047Y74142858D01*
X86571428Y74095239D01*
X86476190Y74047620D01*
X86238095Y74047620D01*
X86142857Y74095239D01*
X86095238Y74142858D01*
X82404761Y75547620D02*
X82404761Y76214286D01*
X82404761Y76023810D02*
X82452380Y76119048D01*
X82500000Y76166667D01*
X82595238Y76214286D01*
X82690476Y76214286D01*
X83023809Y75547620D02*
X83023809Y76547620D01*
X83404761Y76547620D01*
X83500000Y76500000D01*
X83547619Y76452381D01*
X83595238Y76357143D01*
X83595238Y76214286D01*
X83547619Y76119048D01*
X83500000Y76071429D01*
X83404761Y76023810D01*
X83023809Y76023810D01*
X84023809Y75547620D02*
X84023809Y76214286D01*
X84023809Y76547620D02*
X83976190Y76500000D01*
X84023809Y76452381D01*
X84071428Y76500000D01*
X84023809Y76547620D01*
X84023809Y76452381D01*
X84261904Y75452381D02*
X85023809Y75452381D01*
X85738095Y76547620D02*
X85261904Y76547620D01*
X85214285Y76071429D01*
X85261904Y76119048D01*
X85357142Y76166667D01*
X85595238Y76166667D01*
X85690476Y76119048D01*
X85738095Y76071429D01*
X85785714Y75976191D01*
X85785714Y75738096D01*
X85738095Y75642858D01*
X85690476Y75595239D01*
X85595238Y75547620D01*
X85357142Y75547620D01*
X85261904Y75595239D01*
X85214285Y75642858D01*
X86071428Y76547620D02*
X86404761Y75547620D01*
X86738095Y76547620D01*
%TO.C,J6*%
X20166666Y80047620D02*
X20166666Y79333334D01*
X20119047Y79190477D01*
X20023809Y79095239D01*
X19880952Y79047620D01*
X19785714Y79047620D01*
X21071428Y80047620D02*
X20880952Y80047620D01*
X20785714Y80000000D01*
X20738095Y79952381D01*
X20642857Y79809524D01*
X20595238Y79619048D01*
X20595238Y79238096D01*
X20642857Y79142858D01*
X20690476Y79095239D01*
X20785714Y79047620D01*
X20976190Y79047620D01*
X21071428Y79095239D01*
X21119047Y79142858D01*
X21166666Y79238096D01*
X21166666Y79476191D01*
X21119047Y79571429D01*
X21071428Y79619048D01*
X20976190Y79666667D01*
X20785714Y79666667D01*
X20690476Y79619048D01*
X20642857Y79571429D01*
X20595238Y79476191D01*
X17892857Y70147620D02*
X17559523Y70623810D01*
X17321428Y70147620D02*
X17321428Y71147620D01*
X17702380Y71147620D01*
X17797619Y71100000D01*
X17845238Y71052381D01*
X17892857Y70957143D01*
X17892857Y70814286D01*
X17845238Y70719048D01*
X17797619Y70671429D01*
X17702380Y70623810D01*
X17321428Y70623810D01*
X18321428Y70147620D02*
X18321428Y71147620D01*
X18702380Y71147620D01*
X18797619Y71100000D01*
X18845238Y71052381D01*
X18892857Y70957143D01*
X18892857Y70814286D01*
X18845238Y70719048D01*
X18797619Y70671429D01*
X18702380Y70623810D01*
X18321428Y70623810D01*
X19321428Y70147620D02*
X19321428Y71147620D01*
X19559523Y70052381D02*
X20321428Y70052381D01*
X21130952Y70147620D02*
X20797619Y70623810D01*
X20559523Y70147620D02*
X20559523Y71147620D01*
X20940476Y71147620D01*
X21035714Y71100000D01*
X21083333Y71052381D01*
X21130952Y70957143D01*
X21130952Y70814286D01*
X21083333Y70719048D01*
X21035714Y70671429D01*
X20940476Y70623810D01*
X20559523Y70623810D01*
X21559523Y71147620D02*
X21559523Y70338096D01*
X21607142Y70242858D01*
X21654761Y70195239D01*
X21750000Y70147620D01*
X21940476Y70147620D01*
X22035714Y70195239D01*
X22083333Y70242858D01*
X22130952Y70338096D01*
X22130952Y71147620D01*
X22607142Y70147620D02*
X22607142Y71147620D01*
X23178571Y70147620D01*
X23178571Y71147620D01*
%TO.C,J8*%
X6916666Y80047620D02*
X6916666Y79333334D01*
X6869047Y79190477D01*
X6773809Y79095239D01*
X6630952Y79047620D01*
X6535714Y79047620D01*
X7535714Y79619048D02*
X7440476Y79666667D01*
X7392857Y79714286D01*
X7345238Y79809524D01*
X7345238Y79857143D01*
X7392857Y79952381D01*
X7440476Y80000000D01*
X7535714Y80047620D01*
X7726190Y80047620D01*
X7821428Y80000000D01*
X7869047Y79952381D01*
X7916666Y79857143D01*
X7916666Y79809524D01*
X7869047Y79714286D01*
X7821428Y79666667D01*
X7726190Y79619048D01*
X7535714Y79619048D01*
X7440476Y79571429D01*
X7392857Y79523810D01*
X7345238Y79428572D01*
X7345238Y79238096D01*
X7392857Y79142858D01*
X7440476Y79095239D01*
X7535714Y79047620D01*
X7726190Y79047620D01*
X7821428Y79095239D01*
X7869047Y79142858D01*
X7916666Y79238096D01*
X7916666Y79428572D01*
X7869047Y79523810D01*
X7821428Y79571429D01*
X7726190Y79619048D01*
X4559523Y70147620D02*
X4559523Y71147620D01*
X4988095Y71052381D02*
X5035714Y71100000D01*
X5130952Y71147620D01*
X5369047Y71147620D01*
X5464285Y71100000D01*
X5511904Y71052381D01*
X5559523Y70957143D01*
X5559523Y70861905D01*
X5511904Y70719048D01*
X4940476Y70147620D01*
X5559523Y70147620D01*
X5940476Y70195239D02*
X6083333Y70147620D01*
X6321428Y70147620D01*
X6416666Y70195239D01*
X6464285Y70242858D01*
X6511904Y70338096D01*
X6511904Y70433334D01*
X6464285Y70528572D01*
X6416666Y70576191D01*
X6321428Y70623810D01*
X6130952Y70671429D01*
X6035714Y70719048D01*
X5988095Y70766667D01*
X5940476Y70861905D01*
X5940476Y70957143D01*
X5988095Y71052381D01*
X6035714Y71100000D01*
X6130952Y71147620D01*
X6369047Y71147620D01*
X6511904Y71100000D01*
X6702380Y70052381D02*
X7464285Y70052381D01*
X7559523Y71147620D02*
X8130952Y71147620D01*
X7845238Y70147620D02*
X7845238Y71147620D01*
X8369047Y71147620D02*
X9035714Y70147620D01*
X9035714Y71147620D02*
X8369047Y70147620D01*
X9750000Y70671429D02*
X9892857Y70623810D01*
X9940476Y70576191D01*
X9988095Y70480953D01*
X9988095Y70338096D01*
X9940476Y70242858D01*
X9892857Y70195239D01*
X9797619Y70147620D01*
X9416666Y70147620D01*
X9416666Y71147620D01*
X9750000Y71147620D01*
X9845238Y71100000D01*
X9892857Y71052381D01*
X9940476Y70957143D01*
X9940476Y70861905D01*
X9892857Y70766667D01*
X9845238Y70719048D01*
X9750000Y70671429D01*
X9416666Y70671429D01*
%TO.C,Q1*%
X29602857Y72231429D02*
X29745714Y72183810D01*
X29793333Y72136191D01*
X29840952Y72040953D01*
X29840952Y71898096D01*
X29793333Y71802858D01*
X29745714Y71755239D01*
X29650476Y71707620D01*
X29269523Y71707620D01*
X29269523Y72707620D01*
X29602857Y72707620D01*
X29698095Y72660000D01*
X29745714Y72612381D01*
X29793333Y72517143D01*
X29793333Y72421905D01*
X29745714Y72326667D01*
X29698095Y72279048D01*
X29602857Y72231429D01*
X29269523Y72231429D01*
X30840952Y71802858D02*
X30793333Y71755239D01*
X30650476Y71707620D01*
X30555238Y71707620D01*
X30412380Y71755239D01*
X30317142Y71850477D01*
X30269523Y71945715D01*
X30221904Y72136191D01*
X30221904Y72279048D01*
X30269523Y72469524D01*
X30317142Y72564762D01*
X30412380Y72660000D01*
X30555238Y72707620D01*
X30650476Y72707620D01*
X30793333Y72660000D01*
X30840952Y72612381D01*
X31745714Y72707620D02*
X31269523Y72707620D01*
X31221904Y72231429D01*
X31269523Y72279048D01*
X31364761Y72326667D01*
X31602857Y72326667D01*
X31698095Y72279048D01*
X31745714Y72231429D01*
X31793333Y72136191D01*
X31793333Y71898096D01*
X31745714Y71802858D01*
X31698095Y71755239D01*
X31602857Y71707620D01*
X31364761Y71707620D01*
X31269523Y71755239D01*
X31221904Y71802858D01*
X32650476Y72374286D02*
X32650476Y71707620D01*
X32412380Y72755239D02*
X32174285Y72040953D01*
X32793333Y72040953D01*
X33079047Y72707620D02*
X33745714Y72707620D01*
X33317142Y71707620D01*
%TO.C,R1*%
X133975714Y70032619D02*
X133404285Y70032619D01*
X133690000Y70032619D02*
X133690000Y71032619D01*
X133594761Y70889761D01*
X133499523Y70794523D01*
X133404285Y70746904D01*
X134404285Y70032619D02*
X134404285Y71032619D01*
X134975714Y70032619D02*
X134547142Y70604047D01*
X134975714Y71032619D02*
X134404285Y70461190D01*
%TO.C,R2*%
X133975714Y66982619D02*
X133404285Y66982619D01*
X133690000Y66982619D02*
X133690000Y67982619D01*
X133594761Y67839761D01*
X133499523Y67744523D01*
X133404285Y67696904D01*
X134404285Y66982619D02*
X134404285Y67982619D01*
X134975714Y66982619D02*
X134547142Y67554047D01*
X134975714Y67982619D02*
X134404285Y67411190D01*
%TO.C,R3*%
X47651904Y67852381D02*
X47699523Y67900000D01*
X47794761Y67947620D01*
X48032857Y67947620D01*
X48128095Y67900000D01*
X48175714Y67852381D01*
X48223333Y67757143D01*
X48223333Y67661905D01*
X48175714Y67519048D01*
X47604285Y66947620D01*
X48223333Y66947620D01*
X48604285Y67852381D02*
X48651904Y67900000D01*
X48747142Y67947620D01*
X48985238Y67947620D01*
X49080476Y67900000D01*
X49128095Y67852381D01*
X49175714Y67757143D01*
X49175714Y67661905D01*
X49128095Y67519048D01*
X48556666Y66947620D01*
X49175714Y66947620D01*
X49794761Y67947620D02*
X49890000Y67947620D01*
X49985238Y67900000D01*
X50032857Y67852381D01*
X50080476Y67757143D01*
X50128095Y67566667D01*
X50128095Y67328572D01*
X50080476Y67138096D01*
X50032857Y67042858D01*
X49985238Y66995239D01*
X49890000Y66947620D01*
X49794761Y66947620D01*
X49699523Y66995239D01*
X49651904Y67042858D01*
X49604285Y67138096D01*
X49556666Y67328572D01*
X49556666Y67566667D01*
X49604285Y67757143D01*
X49651904Y67852381D01*
X49699523Y67900000D01*
X49794761Y67947620D01*
%TO.C,J16*%
X60380952Y32047620D02*
X59904761Y32047620D01*
X59904761Y33047620D01*
X60714285Y32571429D02*
X61047619Y32571429D01*
X61190476Y32047620D02*
X60714285Y32047620D01*
X60714285Y33047620D01*
X61190476Y33047620D01*
X61619047Y32047620D02*
X61619047Y33047620D01*
X61857142Y33047620D01*
X62000000Y33000000D01*
X62095238Y32904762D01*
X62142857Y32809524D01*
X62190476Y32619048D01*
X62190476Y32476191D01*
X62142857Y32285715D01*
X62095238Y32190477D01*
X62000000Y32095239D01*
X61857142Y32047620D01*
X61619047Y32047620D01*
X62571428Y32095239D02*
X62714285Y32047620D01*
X62952380Y32047620D01*
X63047619Y32095239D01*
X63095238Y32142858D01*
X63142857Y32238096D01*
X63142857Y32333334D01*
X63095238Y32428572D01*
X63047619Y32476191D01*
X62952380Y32523810D01*
X62761904Y32571429D01*
X62666666Y32619048D01*
X62619047Y32666667D01*
X62571428Y32761905D01*
X62571428Y32857143D01*
X62619047Y32952381D01*
X62666666Y33000000D01*
X62761904Y33047620D01*
X63000000Y33047620D01*
X63142857Y33000000D01*
X54190476Y33047620D02*
X54190476Y32333334D01*
X54142857Y32190477D01*
X54047619Y32095239D01*
X53904761Y32047620D01*
X53809523Y32047620D01*
X55190476Y32047620D02*
X54619047Y32047620D01*
X54904761Y32047620D02*
X54904761Y33047620D01*
X54809523Y32904762D01*
X54714285Y32809524D01*
X54619047Y32761905D01*
X56047619Y33047620D02*
X55857142Y33047620D01*
X55761904Y33000000D01*
X55714285Y32952381D01*
X55619047Y32809524D01*
X55571428Y32619048D01*
X55571428Y32238096D01*
X55619047Y32142858D01*
X55666666Y32095239D01*
X55761904Y32047620D01*
X55952380Y32047620D01*
X56047619Y32095239D01*
X56095238Y32142858D01*
X56142857Y32238096D01*
X56142857Y32476191D01*
X56095238Y32571429D01*
X56047619Y32619048D01*
X55952380Y32666667D01*
X55761904Y32666667D01*
X55666666Y32619048D01*
X55619047Y32571429D01*
X55571428Y32476191D01*
%TO.C,R4*%
X136185714Y47447620D02*
X135614285Y47447620D01*
X135900000Y47447620D02*
X135900000Y48447620D01*
X135804761Y48304762D01*
X135709523Y48209524D01*
X135614285Y48161905D01*
X136614285Y47447620D02*
X136614285Y48447620D01*
X137185714Y47447620D02*
X136757142Y48019048D01*
X137185714Y48447620D02*
X136614285Y47876191D01*
%TO.C,R11*%
X103952380Y82309524D02*
X103952380Y81738096D01*
X103952380Y82023810D02*
X102952380Y82023810D01*
X103095238Y81928572D01*
X103190476Y81833334D01*
X103238095Y81738096D01*
X102952380Y82928572D02*
X102952380Y83023810D01*
X103000000Y83119048D01*
X103047619Y83166667D01*
X103142857Y83214286D01*
X103333333Y83261905D01*
X103571428Y83261905D01*
X103761904Y83214286D01*
X103857142Y83166667D01*
X103904761Y83119048D01*
X103952380Y83023810D01*
X103952380Y82928572D01*
X103904761Y82833334D01*
X103857142Y82785715D01*
X103761904Y82738096D01*
X103571428Y82690477D01*
X103333333Y82690477D01*
X103142857Y82738096D01*
X103047619Y82785715D01*
X103000000Y82833334D01*
X102952380Y82928572D01*
X103952380Y83690477D02*
X102952380Y83690477D01*
X103952380Y84261905D02*
X103380952Y83833334D01*
X102952380Y84261905D02*
X103523809Y83690477D01*
%TO.C,J15*%
X6690476Y9547620D02*
X6690476Y8833334D01*
X6642857Y8690477D01*
X6547619Y8595239D01*
X6404761Y8547620D01*
X6309523Y8547620D01*
X7690476Y8547620D02*
X7119047Y8547620D01*
X7404761Y8547620D02*
X7404761Y9547620D01*
X7309523Y9404762D01*
X7214285Y9309524D01*
X7119047Y9261905D01*
X8595238Y9547620D02*
X8119047Y9547620D01*
X8071428Y9071429D01*
X8119047Y9119048D01*
X8214285Y9166667D01*
X8452380Y9166667D01*
X8547619Y9119048D01*
X8595238Y9071429D01*
X8642857Y8976191D01*
X8642857Y8738096D01*
X8595238Y8642858D01*
X8547619Y8595239D01*
X8452380Y8547620D01*
X8214285Y8547620D01*
X8119047Y8595239D01*
X8071428Y8642858D01*
X5285714Y6547620D02*
X4809523Y6547620D01*
X4809523Y7547620D01*
X5619047Y6547620D02*
X5619047Y7547620D01*
X6095238Y6547620D02*
X6095238Y7547620D01*
X6666666Y6547620D01*
X6666666Y7547620D01*
X7142857Y7071429D02*
X7476190Y7071429D01*
X7619047Y6547620D02*
X7142857Y6547620D01*
X7142857Y7547620D01*
X7619047Y7547620D01*
X7809523Y6452381D02*
X8571428Y6452381D01*
X9000000Y7547620D02*
X9190476Y7547620D01*
X9285714Y7500000D01*
X9380952Y7404762D01*
X9428571Y7214286D01*
X9428571Y6880953D01*
X9380952Y6690477D01*
X9285714Y6595239D01*
X9190476Y6547620D01*
X9000000Y6547620D01*
X8904761Y6595239D01*
X8809523Y6690477D01*
X8761904Y6880953D01*
X8761904Y7214286D01*
X8809523Y7404762D01*
X8904761Y7500000D01*
X9000000Y7547620D01*
X9857142Y7547620D02*
X9857142Y6738096D01*
X9904761Y6642858D01*
X9952380Y6595239D01*
X10047619Y6547620D01*
X10238095Y6547620D01*
X10333333Y6595239D01*
X10380952Y6642858D01*
X10428571Y6738096D01*
X10428571Y7547620D01*
X10761904Y7547620D02*
X11333333Y7547620D01*
X11047619Y6547620D02*
X11047619Y7547620D01*
%TO.C,J7*%
X65566666Y94207620D02*
X65566666Y93493334D01*
X65519047Y93350477D01*
X65423809Y93255239D01*
X65280952Y93207620D01*
X65185714Y93207620D01*
X65947619Y94207620D02*
X66614285Y94207620D01*
X66185714Y93207620D01*
X85704761Y107047620D02*
X85704761Y108047620D01*
X85704761Y107571429D02*
X86276190Y107571429D01*
X86276190Y107047620D02*
X86276190Y108047620D01*
X86752380Y107047620D02*
X86752380Y108047620D01*
X86990476Y108047620D01*
X87133333Y108000000D01*
X87228571Y107904762D01*
X87276190Y107809524D01*
X87323809Y107619048D01*
X87323809Y107476191D01*
X87276190Y107285715D01*
X87228571Y107190477D01*
X87133333Y107095239D01*
X86990476Y107047620D01*
X86752380Y107047620D01*
X87752380Y107047620D02*
X87752380Y108047620D01*
X88085714Y107333334D01*
X88419047Y108047620D01*
X88419047Y107047620D01*
X88895238Y107047620D02*
X88895238Y108047620D01*
X58538095Y109047620D02*
X58538095Y108238096D01*
X58585714Y108142858D01*
X58633333Y108095239D01*
X58728571Y108047620D01*
X58919047Y108047620D01*
X59014285Y108095239D01*
X59061904Y108142858D01*
X59109523Y108238096D01*
X59109523Y109047620D01*
X59538095Y108095239D02*
X59680952Y108047620D01*
X59919047Y108047620D01*
X60014285Y108095239D01*
X60061904Y108142858D01*
X60109523Y108238096D01*
X60109523Y108333334D01*
X60061904Y108428572D01*
X60014285Y108476191D01*
X59919047Y108523810D01*
X59728571Y108571429D01*
X59633333Y108619048D01*
X59585714Y108666667D01*
X59538095Y108761905D01*
X59538095Y108857143D01*
X59585714Y108952381D01*
X59633333Y109000000D01*
X59728571Y109047620D01*
X59966666Y109047620D01*
X60109523Y109000000D01*
X60871428Y108571429D02*
X61014285Y108523810D01*
X61061904Y108476191D01*
X61109523Y108380953D01*
X61109523Y108238096D01*
X61061904Y108142858D01*
X61014285Y108095239D01*
X60919047Y108047620D01*
X60538095Y108047620D01*
X60538095Y109047620D01*
X60871428Y109047620D01*
X60966666Y109000000D01*
X61014285Y108952381D01*
X61061904Y108857143D01*
X61061904Y108761905D01*
X61014285Y108666667D01*
X60966666Y108619048D01*
X60871428Y108571429D01*
X60538095Y108571429D01*
X45966666Y108047620D02*
X45966666Y109047620D01*
X46347619Y109047620D01*
X46442857Y109000000D01*
X46490476Y108952381D01*
X46538095Y108857143D01*
X46538095Y108714286D01*
X46490476Y108619048D01*
X46442857Y108571429D01*
X46347619Y108523810D01*
X45966666Y108523810D01*
X46871428Y109047620D02*
X47109523Y108047620D01*
X47300000Y108761905D01*
X47490476Y108047620D01*
X47728571Y109047620D01*
X48680952Y108047620D02*
X48347619Y108523810D01*
X48109523Y108047620D02*
X48109523Y109047620D01*
X48490476Y109047620D01*
X48585714Y109000000D01*
X48633333Y108952381D01*
X48680952Y108857143D01*
X48680952Y108714286D01*
X48633333Y108619048D01*
X48585714Y108571429D01*
X48490476Y108523810D01*
X48109523Y108523810D01*
%TD*%
M02*
