%TF.GenerationSoftware,KiCad,Pcbnew,(5.1.6)-1*%
%TF.CreationDate,2025-03-18T13:11:02-05:00*%
%TF.ProjectId,mother_board_pcbway,6d6f7468-6572-45f6-926f-6172645f7063,rev?*%
%TF.SameCoordinates,PX3d09000PY907b4e0*%
%TF.FileFunction,Other,Fab,Top*%
%FSLAX46Y46*%
G04 Gerber Fmt 4.6, Leading zero omitted, Abs format (unit mm)*
G04 Created by KiCad (PCBNEW (5.1.6)-1) date 2025-03-18 13:11:02*
%MOMM*%
%LPD*%
G01*
G04 APERTURE LIST*
%ADD10C,0.100000*%
%ADD11C,0.150000*%
G04 APERTURE END LIST*
D10*
%TO.C,R5*%
X122960000Y36950000D02*
X122960000Y34450000D01*
X122960000Y34450000D02*
X129260000Y34450000D01*
X129260000Y34450000D02*
X129260000Y36950000D01*
X129260000Y36950000D02*
X122960000Y36950000D01*
X122300000Y35700000D02*
X122960000Y35700000D01*
X129920000Y35700000D02*
X129260000Y35700000D01*
%TO.C,C1*%
X67100000Y63100000D02*
G75*
G03*
X67100000Y63100000I-4000000J0D01*
G01*
X64847500Y66526759D02*
X64847500Y65726759D01*
X65247500Y66126759D02*
X64447500Y66126759D01*
%TO.C,C2*%
X93102554Y66532500D02*
X93102554Y66932500D01*
X93302554Y66732500D02*
X92902554Y66732500D01*
X93600000Y67600000D02*
G75*
G03*
X93600000Y67600000I-2000000J0D01*
G01*
%TO.C,J1*%
X111400000Y78750000D02*
X112025000Y79750000D01*
X110775000Y79750000D02*
X111400000Y78750000D01*
X126350000Y79750000D02*
X108950000Y79750000D01*
X126350000Y74000000D02*
X126350000Y79750000D01*
X108950000Y74000000D02*
X126350000Y74000000D01*
X108950000Y79750000D02*
X108950000Y74000000D01*
%TO.C,J2*%
X130600000Y78750000D02*
X131225000Y79750000D01*
X129975000Y79750000D02*
X130600000Y78750000D01*
X143050000Y79750000D02*
X128150000Y79750000D01*
X143050000Y74000000D02*
X143050000Y79750000D01*
X128150000Y74000000D02*
X143050000Y74000000D01*
X128150000Y79750000D02*
X128150000Y74000000D01*
%TO.C,J3*%
X117200000Y33150000D02*
X116575000Y32150000D01*
X117825000Y32150000D02*
X117200000Y33150000D01*
X97250000Y32150000D02*
X119650000Y32150000D01*
X97250000Y37900000D02*
X97250000Y32150000D01*
X119650000Y37900000D02*
X97250000Y37900000D01*
X119650000Y32150000D02*
X119650000Y37900000D01*
%TO.C,J4*%
X78450000Y69150000D02*
X78450000Y74900000D01*
X78450000Y74900000D02*
X56050000Y74900000D01*
X56050000Y74900000D02*
X56050000Y69150000D01*
X56050000Y69150000D02*
X78450000Y69150000D01*
X76625000Y69150000D02*
X76000000Y70150000D01*
X76000000Y70150000D02*
X75375000Y69150000D01*
%TO.C,J5*%
X90300000Y76850000D02*
X90925000Y77850000D01*
X89675000Y77850000D02*
X90300000Y76850000D01*
X95250000Y77850000D02*
X87850000Y77850000D01*
X95250000Y72100000D02*
X95250000Y77850000D01*
X87850000Y72100000D02*
X95250000Y72100000D01*
X87850000Y77850000D02*
X87850000Y72100000D01*
%TO.C,J6*%
X16550000Y77850000D02*
X16550000Y72100000D01*
X16550000Y72100000D02*
X23950000Y72100000D01*
X23950000Y72100000D02*
X23950000Y77850000D01*
X23950000Y77850000D02*
X16550000Y77850000D01*
X18375000Y77850000D02*
X19000000Y76850000D01*
X19000000Y76850000D02*
X19625000Y77850000D01*
%TO.C,J8*%
X6000000Y76850000D02*
X6625000Y77850000D01*
X5375000Y77850000D02*
X6000000Y76850000D01*
X10950000Y77850000D02*
X3550000Y77850000D01*
X10950000Y72100000D02*
X10950000Y77850000D01*
X3550000Y72100000D02*
X10950000Y72100000D01*
X3550000Y77850000D02*
X3550000Y72100000D01*
%TO.C,Q1*%
X29570000Y73350000D02*
X33320000Y73350000D01*
X33361103Y73357453D02*
G75*
G03*
X31460000Y77430000I-1901103J1592547D01*
G01*
X29567182Y73347615D02*
G75*
G02*
X31460000Y77430000I1892818J1602385D01*
G01*
%TO.C,R1*%
X130380000Y70500000D02*
X131040000Y70500000D01*
X138000000Y70500000D02*
X137340000Y70500000D01*
X131040000Y69250000D02*
X137340000Y69250000D01*
X131040000Y71750000D02*
X131040000Y69250000D01*
X137340000Y71750000D02*
X131040000Y71750000D01*
X137340000Y69250000D02*
X137340000Y71750000D01*
%TO.C,R2*%
X130380000Y67500000D02*
X131040000Y67500000D01*
X138000000Y67500000D02*
X137340000Y67500000D01*
X131040000Y66250000D02*
X137340000Y66250000D01*
X131040000Y68750000D02*
X131040000Y66250000D01*
X137340000Y68750000D02*
X131040000Y68750000D01*
X137340000Y66250000D02*
X137340000Y68750000D01*
%TO.C,R3*%
X52040000Y66150000D02*
X52040000Y68650000D01*
X52040000Y68650000D02*
X45740000Y68650000D01*
X45740000Y68650000D02*
X45740000Y66150000D01*
X45740000Y66150000D02*
X52040000Y66150000D01*
X52700000Y67400000D02*
X52040000Y67400000D01*
X45080000Y67400000D02*
X45740000Y67400000D01*
%TO.C,J16*%
X69150000Y34350000D02*
X69150000Y40100000D01*
X69150000Y40100000D02*
X46750000Y40100000D01*
X46750000Y40100000D02*
X46750000Y34350000D01*
X46750000Y34350000D02*
X69150000Y34350000D01*
X67325000Y34350000D02*
X66700000Y35350000D01*
X66700000Y35350000D02*
X66075000Y34350000D01*
%TO.C,R4*%
X139440000Y46550000D02*
X139440000Y49050000D01*
X139440000Y49050000D02*
X133140000Y49050000D01*
X133140000Y49050000D02*
X133140000Y46550000D01*
X133140000Y46550000D02*
X139440000Y46550000D01*
X140100000Y47800000D02*
X139440000Y47800000D01*
X132480000Y47800000D02*
X133140000Y47800000D01*
%TO.C,R11*%
X102250000Y79660000D02*
X104750000Y79660000D01*
X104750000Y79660000D02*
X104750000Y85960000D01*
X104750000Y85960000D02*
X102250000Y85960000D01*
X102250000Y85960000D02*
X102250000Y79660000D01*
X103500000Y79000000D02*
X103500000Y79660000D01*
X103500000Y86620000D02*
X103500000Y85960000D01*
%TD*%
%TO.C,J7*%
D11*
X61066666Y97017620D02*
X61066666Y97684286D01*
X61066666Y97493810D02*
X61114285Y97589048D01*
X61161904Y97636667D01*
X61257142Y97684286D01*
X61352380Y97684286D01*
X61685714Y97684286D02*
X61685714Y96684286D01*
X61685714Y97636667D02*
X61780952Y97684286D01*
X61971428Y97684286D01*
X62066666Y97636667D01*
X62114285Y97589048D01*
X62161904Y97493810D01*
X62161904Y97208096D01*
X62114285Y97112858D01*
X62066666Y97065239D01*
X61971428Y97017620D01*
X61780952Y97017620D01*
X61685714Y97065239D01*
X62590476Y97017620D02*
X62590476Y97684286D01*
X62590476Y98017620D02*
X62542857Y97970000D01*
X62590476Y97922381D01*
X62638095Y97970000D01*
X62590476Y98017620D01*
X62590476Y97922381D01*
X62828571Y96922381D02*
X63590476Y96922381D01*
X64257142Y97065239D02*
X64161904Y97017620D01*
X63971428Y97017620D01*
X63876190Y97065239D01*
X63828571Y97112858D01*
X63780952Y97208096D01*
X63780952Y97493810D01*
X63828571Y97589048D01*
X63876190Y97636667D01*
X63971428Y97684286D01*
X64161904Y97684286D01*
X64257142Y97636667D01*
X64828571Y97017620D02*
X64733333Y97065239D01*
X64685714Y97112858D01*
X64638095Y97208096D01*
X64638095Y97493810D01*
X64685714Y97589048D01*
X64733333Y97636667D01*
X64828571Y97684286D01*
X64971428Y97684286D01*
X65066666Y97636667D01*
X65114285Y97589048D01*
X65161904Y97493810D01*
X65161904Y97208096D01*
X65114285Y97112858D01*
X65066666Y97065239D01*
X64971428Y97017620D01*
X64828571Y97017620D01*
X65590476Y97684286D02*
X65590476Y97017620D01*
X65590476Y97589048D02*
X65638095Y97636667D01*
X65733333Y97684286D01*
X65876190Y97684286D01*
X65971428Y97636667D01*
X66019047Y97541429D01*
X66019047Y97017620D01*
X66495238Y97684286D02*
X66495238Y97017620D01*
X66495238Y97589048D02*
X66542857Y97636667D01*
X66638095Y97684286D01*
X66780952Y97684286D01*
X66876190Y97636667D01*
X66923809Y97541429D01*
X66923809Y97017620D01*
X67780952Y97065239D02*
X67685714Y97017620D01*
X67495238Y97017620D01*
X67400000Y97065239D01*
X67352380Y97160477D01*
X67352380Y97541429D01*
X67400000Y97636667D01*
X67495238Y97684286D01*
X67685714Y97684286D01*
X67780952Y97636667D01*
X67828571Y97541429D01*
X67828571Y97446191D01*
X67352380Y97350953D01*
X68685714Y97065239D02*
X68590476Y97017620D01*
X68400000Y97017620D01*
X68304761Y97065239D01*
X68257142Y97112858D01*
X68209523Y97208096D01*
X68209523Y97493810D01*
X68257142Y97589048D01*
X68304761Y97636667D01*
X68400000Y97684286D01*
X68590476Y97684286D01*
X68685714Y97636667D01*
X68971428Y97684286D02*
X69352380Y97684286D01*
X69114285Y98017620D02*
X69114285Y97160477D01*
X69161904Y97065239D01*
X69257142Y97017620D01*
X69352380Y97017620D01*
X69828571Y97017620D02*
X69733333Y97065239D01*
X69685714Y97112858D01*
X69638095Y97208096D01*
X69638095Y97493810D01*
X69685714Y97589048D01*
X69733333Y97636667D01*
X69828571Y97684286D01*
X69971428Y97684286D01*
X70066666Y97636667D01*
X70114285Y97589048D01*
X70161904Y97493810D01*
X70161904Y97208096D01*
X70114285Y97112858D01*
X70066666Y97065239D01*
X69971428Y97017620D01*
X69828571Y97017620D01*
X70590476Y97017620D02*
X70590476Y97684286D01*
X70590476Y97493810D02*
X70638095Y97589048D01*
X70685714Y97636667D01*
X70780952Y97684286D01*
X70876190Y97684286D01*
%TD*%
M02*
