  0
SECTION
  2
HEADER
  9
$ANGBASE
  50
0.0
  9
$ANGDIR
  70
1
  9
$MEASUREMENT
  70
1
  0
ENDSEC
  0
SECTION
  2
TABLES
  0
TABLE
  2
LTYPE
  70
4
  0
LTYPE
  5
40F
  2
CONTINUOUS
  70
0
  3
Solid line
  72
65
  73
0
  40
0.0
  0
LTYPE
  5
410
  2
DASHDOT
 70
0
  3
Dash Dot ____ _ ____ _
 72
65
 73
4
 40
2.0
 49
1.25
 49
-0.25
 49
0.25
 49
-0.25
  0
LTYPE
  5
411
  2
DASHED
 70
0
  3
Dashed __ __ __ __ __
 72
65
 73
2
 40
0.75
 49
0.5
 49
-0.25
  0
LTYPE
  5
43B
  2
DOTTED
 70
0
  3
Dotted .  .  .  .
 72
65
 73
2
 40
0.2
 49
0.0
 49
-0.2
  0
ENDTAB
  0
TABLE
  2
STYLE
  70
4
  0
STYLE
  2
KICAD
  70
0
  40
0
  41
1
  42
1
  50
0
  71
0
  3
isocp.shx
  0
STYLE
  2
KICADB
  70
0
  40
0
  41
1
  42
1
  50
0
  71
0
  3
isocp.shx
  0
STYLE
  2
KICADI
  70
0
  40
0
  41
1
  42
1
  50
15
  71
0
  3
isocp.shx
  0
STYLE
  2
KICADBI
  70
0
  40
0
  41
1
  42
1
  50
15
  71
0
  3
isocp.shx
  0
ENDTAB
  0
TABLE
  2
LAYER
  70
1
  0
LAYER
  2
BLACK
  70
0
  62
7
  6
CONTINUOUS
  0
ENDTAB
  0
ENDSEC
  0
SECTION
  2
ENTITIES
0
LINE
8
BLACK
6
CONTINUOUS
10
80.2993
20
-87.1526
11
80.3251
21
-87.1605
0
LINE
8
BLACK
6
CONTINUOUS
10
80.3251
20
-87.1605
11
80.3489
21
-87.1732
0
LINE
8
BLACK
6
CONTINUOUS
10
80.3489
20
-87.1732
11
80.3697
21
-87.1903
0
LINE
8
BLACK
6
CONTINUOUS
10
80.3697
20
-87.1903
11
80.3868
21
-87.2111
0
LINE
8
BLACK
6
CONTINUOUS
10
80.3868
20
-87.2111
11
80.3995
21
-87.2349
0
LINE
8
BLACK
6
CONTINUOUS
10
80.3995
20
-87.2349
11
80.4074
21
-87.2607
0
LINE
8
BLACK
6
CONTINUOUS
10
80.4074
20
-87.2607
11
80.41
21
-87.2875
0
LINE
8
BLACK
6
CONTINUOUS
10
80.41
20
-87.2875
11
80.41
21
-88.6125
0
LINE
8
BLACK
6
CONTINUOUS
10
80.41
20
-88.6125
11
80.4074
21
-88.6393
0
LINE
8
BLACK
6
CONTINUOUS
10
80.4074
20
-88.6393
11
80.3995
21
-88.6651
0
LINE
8
BLACK
6
CONTINUOUS
10
80.3995
20
-88.6651
11
80.3868
21
-88.6889
0
LINE
8
BLACK
6
CONTINUOUS
10
80.3868
20
-88.6889
11
80.3697
21
-88.7097
0
LINE
8
BLACK
6
CONTINUOUS
10
80.3697
20
-88.7097
11
80.3489
21
-88.7268
0
LINE
8
BLACK
6
CONTINUOUS
10
80.3489
20
-88.7268
11
80.3251
21
-88.7395
0
LINE
8
BLACK
6
CONTINUOUS
10
80.3251
20
-88.7395
11
80.2993
21
-88.7474
0
LINE
8
BLACK
6
CONTINUOUS
10
80.2993
20
-88.7474
11
80.2725
21
-88.75
0
LINE
8
BLACK
6
CONTINUOUS
10
80.2725
20
-88.75
11
79.9975
21
-88.75
0
LINE
8
BLACK
6
CONTINUOUS
10
79.9975
20
-88.75
11
79.9707
21
-88.7474
0
LINE
8
BLACK
6
CONTINUOUS
10
79.9707
20
-88.7474
11
79.9449
21
-88.7395
0
LINE
8
BLACK
6
CONTINUOUS
10
79.9449
20
-88.7395
11
79.9211
21
-88.7268
0
LINE
8
BLACK
6
CONTINUOUS
10
79.9211
20
-88.7268
11
79.9003
21
-88.7097
0
LINE
8
BLACK
6
CONTINUOUS
10
79.9003
20
-88.7097
11
79.8832
21
-88.6889
0
LINE
8
BLACK
6
CONTINUOUS
10
79.8832
20
-88.6889
11
79.8705
21
-88.6651
0
LINE
8
BLACK
6
CONTINUOUS
10
79.8705
20
-88.6651
11
79.8626
21
-88.6393
0
LINE
8
BLACK
6
CONTINUOUS
10
79.8626
20
-88.6393
11
79.86
21
-88.6125
0
LINE
8
BLACK
6
CONTINUOUS
10
79.86
20
-88.6125
11
79.86
21
-87.2875
0
LINE
8
BLACK
6
CONTINUOUS
10
79.86
20
-87.2875
11
79.8626
21
-87.2607
0
LINE
8
BLACK
6
CONTINUOUS
10
79.8626
20
-87.2607
11
79.8705
21
-87.2349
0
LINE
8
BLACK
6
CONTINUOUS
10
79.8705
20
-87.2349
11
79.8832
21
-87.2111
0
LINE
8
BLACK
6
CONTINUOUS
10
79.8832
20
-87.2111
11
79.9003
21
-87.1903
0
LINE
8
BLACK
6
CONTINUOUS
10
79.9003
20
-87.1903
11
79.9211
21
-87.1732
0
LINE
8
BLACK
6
CONTINUOUS
10
79.9211
20
-87.1732
11
79.9449
21
-87.1605
0
LINE
8
BLACK
6
CONTINUOUS
10
79.9449
20
-87.1605
11
79.9707
21
-87.1526
0
LINE
8
BLACK
6
CONTINUOUS
10
79.9707
20
-87.1526
11
79.9975
21
-87.15
0
LINE
8
BLACK
6
CONTINUOUS
10
79.9975
20
-87.15
11
80.2725
21
-87.15
0
LINE
8
BLACK
6
CONTINUOUS
10
80.2725
20
-87.15
11
80.2993
21
-87.1526
0
LINE
8
BLACK
6
CONTINUOUS
10
75.2193
20
-87.1526
11
75.2451
21
-87.1605
0
LINE
8
BLACK
6
CONTINUOUS
10
75.2451
20
-87.1605
11
75.2689
21
-87.1732
0
LINE
8
BLACK
6
CONTINUOUS
10
75.2689
20
-87.1732
11
75.2897
21
-87.1903
0
LINE
8
BLACK
6
CONTINUOUS
10
75.2897
20
-87.1903
11
75.3068
21
-87.2111
0
LINE
8
BLACK
6
CONTINUOUS
10
75.3068
20
-87.2111
11
75.3195
21
-87.2349
0
LINE
8
BLACK
6
CONTINUOUS
10
75.3195
20
-87.2349
11
75.3274
21
-87.2607
0
LINE
8
BLACK
6
CONTINUOUS
10
75.3274
20
-87.2607
11
75.33
21
-87.2875
0
LINE
8
BLACK
6
CONTINUOUS
10
75.33
20
-87.2875
11
75.33
21
-88.6125
0
LINE
8
BLACK
6
CONTINUOUS
10
75.33
20
-88.6125
11
75.3274
21
-88.6393
0
LINE
8
BLACK
6
CONTINUOUS
10
75.3274
20
-88.6393
11
75.3195
21
-88.6651
0
LINE
8
BLACK
6
CONTINUOUS
10
75.3195
20
-88.6651
11
75.3068
21
-88.6889
0
LINE
8
BLACK
6
CONTINUOUS
10
75.3068
20
-88.6889
11
75.2897
21
-88.7097
0
LINE
8
BLACK
6
CONTINUOUS
10
75.2897
20
-88.7097
11
75.2689
21
-88.7268
0
LINE
8
BLACK
6
CONTINUOUS
10
75.2689
20
-88.7268
11
75.2451
21
-88.7395
0
LINE
8
BLACK
6
CONTINUOUS
10
75.2451
20
-88.7395
11
75.2193
21
-88.7474
0
LINE
8
BLACK
6
CONTINUOUS
10
75.2193
20
-88.7474
11
75.1925
21
-88.75
0
LINE
8
BLACK
6
CONTINUOUS
10
75.1925
20
-88.75
11
74.9175
21
-88.75
0
LINE
8
BLACK
6
CONTINUOUS
10
74.9175
20
-88.75
11
74.8907
21
-88.7474
0
LINE
8
BLACK
6
CONTINUOUS
10
74.8907
20
-88.7474
11
74.8649
21
-88.7395
0
LINE
8
BLACK
6
CONTINUOUS
10
74.8649
20
-88.7395
11
74.8411
21
-88.7268
0
LINE
8
BLACK
6
CONTINUOUS
10
74.8411
20
-88.7268
11
74.8203
21
-88.7097
0
LINE
8
BLACK
6
CONTINUOUS
10
74.8203
20
-88.7097
11
74.8032
21
-88.6889
0
LINE
8
BLACK
6
CONTINUOUS
10
74.8032
20
-88.6889
11
74.7905
21
-88.6651
0
LINE
8
BLACK
6
CONTINUOUS
10
74.7905
20
-88.6651
11
74.7826
21
-88.6393
0
LINE
8
BLACK
6
CONTINUOUS
10
74.7826
20
-88.6393
11
74.78
21
-88.6125
0
LINE
8
BLACK
6
CONTINUOUS
10
74.78
20
-88.6125
11
74.78
21
-87.2875
0
LINE
8
BLACK
6
CONTINUOUS
10
74.78
20
-87.2875
11
74.7826
21
-87.2607
0
LINE
8
BLACK
6
CONTINUOUS
10
74.7826
20
-87.2607
11
74.7905
21
-87.2349
0
LINE
8
BLACK
6
CONTINUOUS
10
74.7905
20
-87.2349
11
74.8032
21
-87.2111
0
LINE
8
BLACK
6
CONTINUOUS
10
74.8032
20
-87.2111
11
74.8203
21
-87.1903
0
LINE
8
BLACK
6
CONTINUOUS
10
74.8203
20
-87.1903
11
74.8411
21
-87.1732
0
LINE
8
BLACK
6
CONTINUOUS
10
74.8411
20
-87.1732
11
74.8649
21
-87.1605
0
LINE
8
BLACK
6
CONTINUOUS
10
74.8649
20
-87.1605
11
74.8907
21
-87.1526
0
LINE
8
BLACK
6
CONTINUOUS
10
74.8907
20
-87.1526
11
74.9175
21
-87.15
0
LINE
8
BLACK
6
CONTINUOUS
10
74.9175
20
-87.15
11
75.1925
21
-87.15
0
LINE
8
BLACK
6
CONTINUOUS
10
75.1925
20
-87.15
11
75.2193
21
-87.1526
0
LINE
8
BLACK
6
CONTINUOUS
10
76.4893
20
-87.1526
11
76.5151
21
-87.1605
0
LINE
8
BLACK
6
CONTINUOUS
10
76.5151
20
-87.1605
11
76.5389
21
-87.1732
0
LINE
8
BLACK
6
CONTINUOUS
10
76.5389
20
-87.1732
11
76.5597
21
-87.1903
0
LINE
8
BLACK
6
CONTINUOUS
10
76.5597
20
-87.1903
11
76.5768
21
-87.2111
0
LINE
8
BLACK
6
CONTINUOUS
10
76.5768
20
-87.2111
11
76.5895
21
-87.2349
0
LINE
8
BLACK
6
CONTINUOUS
10
76.5895
20
-87.2349
11
76.5974
21
-87.2607
0
LINE
8
BLACK
6
CONTINUOUS
10
76.5974
20
-87.2607
11
76.6
21
-87.2875
0
LINE
8
BLACK
6
CONTINUOUS
10
76.6
20
-87.2875
11
76.6
21
-88.6125
0
LINE
8
BLACK
6
CONTINUOUS
10
76.6
20
-88.6125
11
76.5974
21
-88.6393
0
LINE
8
BLACK
6
CONTINUOUS
10
76.5974
20
-88.6393
11
76.5895
21
-88.6651
0
LINE
8
BLACK
6
CONTINUOUS
10
76.5895
20
-88.6651
11
76.5768
21
-88.6889
0
LINE
8
BLACK
6
CONTINUOUS
10
76.5768
20
-88.6889
11
76.5597
21
-88.7097
0
LINE
8
BLACK
6
CONTINUOUS
10
76.5597
20
-88.7097
11
76.5389
21
-88.7268
0
LINE
8
BLACK
6
CONTINUOUS
10
76.5389
20
-88.7268
11
76.5151
21
-88.7395
0
LINE
8
BLACK
6
CONTINUOUS
10
76.5151
20
-88.7395
11
76.4893
21
-88.7474
0
LINE
8
BLACK
6
CONTINUOUS
10
76.4893
20
-88.7474
11
76.4625
21
-88.75
0
LINE
8
BLACK
6
CONTINUOUS
10
76.4625
20
-88.75
11
76.1875
21
-88.75
0
LINE
8
BLACK
6
CONTINUOUS
10
76.1875
20
-88.75
11
76.1607
21
-88.7474
0
LINE
8
BLACK
6
CONTINUOUS
10
76.1607
20
-88.7474
11
76.1349
21
-88.7395
0
LINE
8
BLACK
6
CONTINUOUS
10
76.1349
20
-88.7395
11
76.1111
21
-88.7268
0
LINE
8
BLACK
6
CONTINUOUS
10
76.1111
20
-88.7268
11
76.0903
21
-88.7097
0
LINE
8
BLACK
6
CONTINUOUS
10
76.0903
20
-88.7097
11
76.0732
21
-88.6889
0
LINE
8
BLACK
6
CONTINUOUS
10
76.0732
20
-88.6889
11
76.0605
21
-88.6651
0
LINE
8
BLACK
6
CONTINUOUS
10
76.0605
20
-88.6651
11
76.0526
21
-88.6393
0
LINE
8
BLACK
6
CONTINUOUS
10
76.0526
20
-88.6393
11
76.05
21
-88.6125
0
LINE
8
BLACK
6
CONTINUOUS
10
76.05
20
-88.6125
11
76.05
21
-87.2875
0
LINE
8
BLACK
6
CONTINUOUS
10
76.05
20
-87.2875
11
76.0526
21
-87.2607
0
LINE
8
BLACK
6
CONTINUOUS
10
76.0526
20
-87.2607
11
76.0605
21
-87.2349
0
LINE
8
BLACK
6
CONTINUOUS
10
76.0605
20
-87.2349
11
76.0732
21
-87.2111
0
LINE
8
BLACK
6
CONTINUOUS
10
76.0732
20
-87.2111
11
76.0903
21
-87.1903
0
LINE
8
BLACK
6
CONTINUOUS
10
76.0903
20
-87.1903
11
76.1111
21
-87.1732
0
LINE
8
BLACK
6
CONTINUOUS
10
76.1111
20
-87.1732
11
76.1349
21
-87.1605
0
LINE
8
BLACK
6
CONTINUOUS
10
76.1349
20
-87.1605
11
76.1607
21
-87.1526
0
LINE
8
BLACK
6
CONTINUOUS
10
76.1607
20
-87.1526
11
76.1875
21
-87.15
0
LINE
8
BLACK
6
CONTINUOUS
10
76.1875
20
-87.15
11
76.4625
21
-87.15
0
LINE
8
BLACK
6
CONTINUOUS
10
76.4625
20
-87.15
11
76.4893
21
-87.1526
0
LINE
8
BLACK
6
CONTINUOUS
10
77.7593
20
-87.1526
11
77.7851
21
-87.1605
0
LINE
8
BLACK
6
CONTINUOUS
10
77.7851
20
-87.1605
11
77.8089
21
-87.1732
0
LINE
8
BLACK
6
CONTINUOUS
10
77.8089
20
-87.1732
11
77.8297
21
-87.1903
0
LINE
8
BLACK
6
CONTINUOUS
10
77.8297
20
-87.1903
11
77.8468
21
-87.2111
0
LINE
8
BLACK
6
CONTINUOUS
10
77.8468
20
-87.2111
11
77.8595
21
-87.2349
0
LINE
8
BLACK
6
CONTINUOUS
10
77.8595
20
-87.2349
11
77.8674
21
-87.2607
0
LINE
8
BLACK
6
CONTINUOUS
10
77.8674
20
-87.2607
11
77.87
21
-87.2875
0
LINE
8
BLACK
6
CONTINUOUS
10
77.87
20
-87.2875
11
77.87
21
-88.6125
0
LINE
8
BLACK
6
CONTINUOUS
10
77.87
20
-88.6125
11
77.8674
21
-88.6393
0
LINE
8
BLACK
6
CONTINUOUS
10
77.8674
20
-88.6393
11
77.8595
21
-88.6651
0
LINE
8
BLACK
6
CONTINUOUS
10
77.8595
20
-88.6651
11
77.8468
21
-88.6889
0
LINE
8
BLACK
6
CONTINUOUS
10
77.8468
20
-88.6889
11
77.8297
21
-88.7097
0
LINE
8
BLACK
6
CONTINUOUS
10
77.8297
20
-88.7097
11
77.8089
21
-88.7268
0
LINE
8
BLACK
6
CONTINUOUS
10
77.8089
20
-88.7268
11
77.7851
21
-88.7395
0
LINE
8
BLACK
6
CONTINUOUS
10
77.7851
20
-88.7395
11
77.7593
21
-88.7474
0
LINE
8
BLACK
6
CONTINUOUS
10
77.7593
20
-88.7474
11
77.7325
21
-88.75
0
LINE
8
BLACK
6
CONTINUOUS
10
77.7325
20
-88.75
11
77.4575
21
-88.75
0
LINE
8
BLACK
6
CONTINUOUS
10
77.4575
20
-88.75
11
77.4307
21
-88.7474
0
LINE
8
BLACK
6
CONTINUOUS
10
77.4307
20
-88.7474
11
77.4049
21
-88.7395
0
LINE
8
BLACK
6
CONTINUOUS
10
77.4049
20
-88.7395
11
77.3811
21
-88.7268
0
LINE
8
BLACK
6
CONTINUOUS
10
77.3811
20
-88.7268
11
77.3603
21
-88.7097
0
LINE
8
BLACK
6
CONTINUOUS
10
77.3603
20
-88.7097
11
77.3432
21
-88.6889
0
LINE
8
BLACK
6
CONTINUOUS
10
77.3432
20
-88.6889
11
77.3305
21
-88.6651
0
LINE
8
BLACK
6
CONTINUOUS
10
77.3305
20
-88.6651
11
77.3226
21
-88.6393
0
LINE
8
BLACK
6
CONTINUOUS
10
77.3226
20
-88.6393
11
77.32
21
-88.6125
0
LINE
8
BLACK
6
CONTINUOUS
10
77.32
20
-88.6125
11
77.32
21
-87.2875
0
LINE
8
BLACK
6
CONTINUOUS
10
77.32
20
-87.2875
11
77.3226
21
-87.2607
0
LINE
8
BLACK
6
CONTINUOUS
10
77.3226
20
-87.2607
11
77.3305
21
-87.2349
0
LINE
8
BLACK
6
CONTINUOUS
10
77.3305
20
-87.2349
11
77.3432
21
-87.2111
0
LINE
8
BLACK
6
CONTINUOUS
10
77.3432
20
-87.2111
11
77.3603
21
-87.1903
0
LINE
8
BLACK
6
CONTINUOUS
10
77.3603
20
-87.1903
11
77.3811
21
-87.1732
0
LINE
8
BLACK
6
CONTINUOUS
10
77.3811
20
-87.1732
11
77.4049
21
-87.1605
0
LINE
8
BLACK
6
CONTINUOUS
10
77.4049
20
-87.1605
11
77.4307
21
-87.1526
0
LINE
8
BLACK
6
CONTINUOUS
10
77.4307
20
-87.1526
11
77.4575
21
-87.15
0
LINE
8
BLACK
6
CONTINUOUS
10
77.4575
20
-87.15
11
77.7325
21
-87.15
0
LINE
8
BLACK
6
CONTINUOUS
10
77.7325
20
-87.15
11
77.7593
21
-87.1526
0
LINE
8
BLACK
6
CONTINUOUS
10
79.0293
20
-87.1526
11
79.0551
21
-87.1605
0
LINE
8
BLACK
6
CONTINUOUS
10
79.0551
20
-87.1605
11
79.0789
21
-87.1732
0
LINE
8
BLACK
6
CONTINUOUS
10
79.0789
20
-87.1732
11
79.0997
21
-87.1903
0
LINE
8
BLACK
6
CONTINUOUS
10
79.0997
20
-87.1903
11
79.1168
21
-87.2111
0
LINE
8
BLACK
6
CONTINUOUS
10
79.1168
20
-87.2111
11
79.1295
21
-87.2349
0
LINE
8
BLACK
6
CONTINUOUS
10
79.1295
20
-87.2349
11
79.1374
21
-87.2607
0
LINE
8
BLACK
6
CONTINUOUS
10
79.1374
20
-87.2607
11
79.14
21
-87.2875
0
LINE
8
BLACK
6
CONTINUOUS
10
79.14
20
-87.2875
11
79.14
21
-88.6125
0
LINE
8
BLACK
6
CONTINUOUS
10
79.14
20
-88.6125
11
79.1374
21
-88.6393
0
LINE
8
BLACK
6
CONTINUOUS
10
79.1374
20
-88.6393
11
79.1295
21
-88.6651
0
LINE
8
BLACK
6
CONTINUOUS
10
79.1295
20
-88.6651
11
79.1168
21
-88.6889
0
LINE
8
BLACK
6
CONTINUOUS
10
79.1168
20
-88.6889
11
79.0997
21
-88.7097
0
LINE
8
BLACK
6
CONTINUOUS
10
79.0997
20
-88.7097
11
79.0789
21
-88.7268
0
LINE
8
BLACK
6
CONTINUOUS
10
79.0789
20
-88.7268
11
79.0551
21
-88.7395
0
LINE
8
BLACK
6
CONTINUOUS
10
79.0551
20
-88.7395
11
79.0293
21
-88.7474
0
LINE
8
BLACK
6
CONTINUOUS
10
79.0293
20
-88.7474
11
79.0025
21
-88.75
0
LINE
8
BLACK
6
CONTINUOUS
10
79.0025
20
-88.75
11
78.7275
21
-88.75
0
LINE
8
BLACK
6
CONTINUOUS
10
78.7275
20
-88.75
11
78.7007
21
-88.7474
0
LINE
8
BLACK
6
CONTINUOUS
10
78.7007
20
-88.7474
11
78.6749
21
-88.7395
0
LINE
8
BLACK
6
CONTINUOUS
10
78.6749
20
-88.7395
11
78.6511
21
-88.7268
0
LINE
8
BLACK
6
CONTINUOUS
10
78.6511
20
-88.7268
11
78.6303
21
-88.7097
0
LINE
8
BLACK
6
CONTINUOUS
10
78.6303
20
-88.7097
11
78.6132
21
-88.6889
0
LINE
8
BLACK
6
CONTINUOUS
10
78.6132
20
-88.6889
11
78.6005
21
-88.6651
0
LINE
8
BLACK
6
CONTINUOUS
10
78.6005
20
-88.6651
11
78.5926
21
-88.6393
0
LINE
8
BLACK
6
CONTINUOUS
10
78.5926
20
-88.6393
11
78.59
21
-88.6125
0
LINE
8
BLACK
6
CONTINUOUS
10
78.59
20
-88.6125
11
78.59
21
-87.2875
0
LINE
8
BLACK
6
CONTINUOUS
10
78.59
20
-87.2875
11
78.5926
21
-87.2607
0
LINE
8
BLACK
6
CONTINUOUS
10
78.5926
20
-87.2607
11
78.6005
21
-87.2349
0
LINE
8
BLACK
6
CONTINUOUS
10
78.6005
20
-87.2349
11
78.6132
21
-87.2111
0
LINE
8
BLACK
6
CONTINUOUS
10
78.6132
20
-87.2111
11
78.6303
21
-87.1903
0
LINE
8
BLACK
6
CONTINUOUS
10
78.6303
20
-87.1903
11
78.6511
21
-87.1732
0
LINE
8
BLACK
6
CONTINUOUS
10
78.6511
20
-87.1732
11
78.6749
21
-87.1605
0
LINE
8
BLACK
6
CONTINUOUS
10
78.6749
20
-87.1605
11
78.7007
21
-87.1526
0
LINE
8
BLACK
6
CONTINUOUS
10
78.7007
20
-87.1526
11
78.7275
21
-87.15
0
LINE
8
BLACK
6
CONTINUOUS
10
78.7275
20
-87.15
11
79.0025
21
-87.15
0
LINE
8
BLACK
6
CONTINUOUS
10
79.0025
20
-87.15
11
79.0293
21
-87.1526
0
LINE
8
BLACK
6
CONTINUOUS
10
81.5693
20
-87.1526
11
81.5951
21
-87.1605
0
LINE
8
BLACK
6
CONTINUOUS
10
81.5951
20
-87.1605
11
81.6189
21
-87.1732
0
LINE
8
BLACK
6
CONTINUOUS
10
81.6189
20
-87.1732
11
81.6397
21
-87.1903
0
LINE
8
BLACK
6
CONTINUOUS
10
81.6397
20
-87.1903
11
81.6568
21
-87.2111
0
LINE
8
BLACK
6
CONTINUOUS
10
81.6568
20
-87.2111
11
81.6695
21
-87.2349
0
LINE
8
BLACK
6
CONTINUOUS
10
81.6695
20
-87.2349
11
81.6774
21
-87.2607
0
LINE
8
BLACK
6
CONTINUOUS
10
81.6774
20
-87.2607
11
81.68
21
-87.2875
0
LINE
8
BLACK
6
CONTINUOUS
10
81.68
20
-87.2875
11
81.68
21
-88.6125
0
LINE
8
BLACK
6
CONTINUOUS
10
81.68
20
-88.6125
11
81.6774
21
-88.6393
0
LINE
8
BLACK
6
CONTINUOUS
10
81.6774
20
-88.6393
11
81.6695
21
-88.6651
0
LINE
8
BLACK
6
CONTINUOUS
10
81.6695
20
-88.6651
11
81.6568
21
-88.6889
0
LINE
8
BLACK
6
CONTINUOUS
10
81.6568
20
-88.6889
11
81.6397
21
-88.7097
0
LINE
8
BLACK
6
CONTINUOUS
10
81.6397
20
-88.7097
11
81.6189
21
-88.7268
0
LINE
8
BLACK
6
CONTINUOUS
10
81.6189
20
-88.7268
11
81.5951
21
-88.7395
0
LINE
8
BLACK
6
CONTINUOUS
10
81.5951
20
-88.7395
11
81.5693
21
-88.7474
0
LINE
8
BLACK
6
CONTINUOUS
10
81.5693
20
-88.7474
11
81.5425
21
-88.75
0
LINE
8
BLACK
6
CONTINUOUS
10
81.5425
20
-88.75
11
81.2675
21
-88.75
0
LINE
8
BLACK
6
CONTINUOUS
10
81.2675
20
-88.75
11
81.2407
21
-88.7474
0
LINE
8
BLACK
6
CONTINUOUS
10
81.2407
20
-88.7474
11
81.2149
21
-88.7395
0
LINE
8
BLACK
6
CONTINUOUS
10
81.2149
20
-88.7395
11
81.1911
21
-88.7268
0
LINE
8
BLACK
6
CONTINUOUS
10
81.1911
20
-88.7268
11
81.1703
21
-88.7097
0
LINE
8
BLACK
6
CONTINUOUS
10
81.1703
20
-88.7097
11
81.1532
21
-88.6889
0
LINE
8
BLACK
6
CONTINUOUS
10
81.1532
20
-88.6889
11
81.1405
21
-88.6651
0
LINE
8
BLACK
6
CONTINUOUS
10
81.1405
20
-88.6651
11
81.1326
21
-88.6393
0
LINE
8
BLACK
6
CONTINUOUS
10
81.1326
20
-88.6393
11
81.13
21
-88.6125
0
LINE
8
BLACK
6
CONTINUOUS
10
81.13
20
-88.6125
11
81.13
21
-87.2875
0
LINE
8
BLACK
6
CONTINUOUS
10
81.13
20
-87.2875
11
81.1326
21
-87.2607
0
LINE
8
BLACK
6
CONTINUOUS
10
81.1326
20
-87.2607
11
81.1405
21
-87.2349
0
LINE
8
BLACK
6
CONTINUOUS
10
81.1405
20
-87.2349
11
81.1532
21
-87.2111
0
LINE
8
BLACK
6
CONTINUOUS
10
81.1532
20
-87.2111
11
81.1703
21
-87.1903
0
LINE
8
BLACK
6
CONTINUOUS
10
81.1703
20
-87.1903
11
81.1911
21
-87.1732
0
LINE
8
BLACK
6
CONTINUOUS
10
81.1911
20
-87.1732
11
81.2149
21
-87.1605
0
LINE
8
BLACK
6
CONTINUOUS
10
81.2149
20
-87.1605
11
81.2407
21
-87.1526
0
LINE
8
BLACK
6
CONTINUOUS
10
81.2407
20
-87.1526
11
81.2675
21
-87.15
0
LINE
8
BLACK
6
CONTINUOUS
10
81.2675
20
-87.15
11
81.5425
21
-87.15
0
LINE
8
BLACK
6
CONTINUOUS
10
81.5425
20
-87.15
11
81.5693
21
-87.1526
0
LINE
8
BLACK
6
CONTINUOUS
10
82.8393
20
-87.1526
11
82.8651
21
-87.1605
0
LINE
8
BLACK
6
CONTINUOUS
10
82.8651
20
-87.1605
11
82.8889
21
-87.1732
0
LINE
8
BLACK
6
CONTINUOUS
10
82.8889
20
-87.1732
11
82.9097
21
-87.1903
0
LINE
8
BLACK
6
CONTINUOUS
10
82.9097
20
-87.1903
11
82.9268
21
-87.2111
0
LINE
8
BLACK
6
CONTINUOUS
10
82.9268
20
-87.2111
11
82.9395
21
-87.2349
0
LINE
8
BLACK
6
CONTINUOUS
10
82.9395
20
-87.2349
11
82.9474
21
-87.2607
0
LINE
8
BLACK
6
CONTINUOUS
10
82.9474
20
-87.2607
11
82.95
21
-87.2875
0
LINE
8
BLACK
6
CONTINUOUS
10
82.95
20
-87.2875
11
82.95
21
-88.6125
0
LINE
8
BLACK
6
CONTINUOUS
10
82.95
20
-88.6125
11
82.9474
21
-88.6393
0
LINE
8
BLACK
6
CONTINUOUS
10
82.9474
20
-88.6393
11
82.9395
21
-88.6651
0
LINE
8
BLACK
6
CONTINUOUS
10
82.9395
20
-88.6651
11
82.9268
21
-88.6889
0
LINE
8
BLACK
6
CONTINUOUS
10
82.9268
20
-88.6889
11
82.9097
21
-88.7097
0
LINE
8
BLACK
6
CONTINUOUS
10
82.9097
20
-88.7097
11
82.8889
21
-88.7268
0
LINE
8
BLACK
6
CONTINUOUS
10
82.8889
20
-88.7268
11
82.8651
21
-88.7395
0
LINE
8
BLACK
6
CONTINUOUS
10
82.8651
20
-88.7395
11
82.8393
21
-88.7474
0
LINE
8
BLACK
6
CONTINUOUS
10
82.8393
20
-88.7474
11
82.8125
21
-88.75
0
LINE
8
BLACK
6
CONTINUOUS
10
82.8125
20
-88.75
11
82.5375
21
-88.75
0
LINE
8
BLACK
6
CONTINUOUS
10
82.5375
20
-88.75
11
82.5107
21
-88.7474
0
LINE
8
BLACK
6
CONTINUOUS
10
82.5107
20
-88.7474
11
82.4849
21
-88.7395
0
LINE
8
BLACK
6
CONTINUOUS
10
82.4849
20
-88.7395
11
82.4611
21
-88.7268
0
LINE
8
BLACK
6
CONTINUOUS
10
82.4611
20
-88.7268
11
82.4403
21
-88.7097
0
LINE
8
BLACK
6
CONTINUOUS
10
82.4403
20
-88.7097
11
82.4232
21
-88.6889
0
LINE
8
BLACK
6
CONTINUOUS
10
82.4232
20
-88.6889
11
82.4105
21
-88.6651
0
LINE
8
BLACK
6
CONTINUOUS
10
82.4105
20
-88.6651
11
82.4026
21
-88.6393
0
LINE
8
BLACK
6
CONTINUOUS
10
82.4026
20
-88.6393
11
82.4
21
-88.6125
0
LINE
8
BLACK
6
CONTINUOUS
10
82.4
20
-88.6125
11
82.4
21
-87.2875
0
LINE
8
BLACK
6
CONTINUOUS
10
82.4
20
-87.2875
11
82.4026
21
-87.2607
0
LINE
8
BLACK
6
CONTINUOUS
10
82.4026
20
-87.2607
11
82.4105
21
-87.2349
0
LINE
8
BLACK
6
CONTINUOUS
10
82.4105
20
-87.2349
11
82.4232
21
-87.2111
0
LINE
8
BLACK
6
CONTINUOUS
10
82.4232
20
-87.2111
11
82.4403
21
-87.1903
0
LINE
8
BLACK
6
CONTINUOUS
10
82.4403
20
-87.1903
11
82.4611
21
-87.1732
0
LINE
8
BLACK
6
CONTINUOUS
10
82.4611
20
-87.1732
11
82.4849
21
-87.1605
0
LINE
8
BLACK
6
CONTINUOUS
10
82.4849
20
-87.1605
11
82.5107
21
-87.1526
0
LINE
8
BLACK
6
CONTINUOUS
10
82.5107
20
-87.1526
11
82.5375
21
-87.15
0
LINE
8
BLACK
6
CONTINUOUS
10
82.5375
20
-87.15
11
82.8125
21
-87.15
0
LINE
8
BLACK
6
CONTINUOUS
10
82.8125
20
-87.15
11
82.8393
21
-87.1526
0
LINE
8
BLACK
6
CONTINUOUS
10
84.1093
20
-87.1526
11
84.1351
21
-87.1605
0
LINE
8
BLACK
6
CONTINUOUS
10
84.1351
20
-87.1605
11
84.1589
21
-87.1732
0
LINE
8
BLACK
6
CONTINUOUS
10
84.1589
20
-87.1732
11
84.1797
21
-87.1903
0
LINE
8
BLACK
6
CONTINUOUS
10
84.1797
20
-87.1903
11
84.1968
21
-87.2111
0
LINE
8
BLACK
6
CONTINUOUS
10
84.1968
20
-87.2111
11
84.2095
21
-87.2349
0
LINE
8
BLACK
6
CONTINUOUS
10
84.2095
20
-87.2349
11
84.2174
21
-87.2607
0
LINE
8
BLACK
6
CONTINUOUS
10
84.2174
20
-87.2607
11
84.22
21
-87.2875
0
LINE
8
BLACK
6
CONTINUOUS
10
84.22
20
-87.2875
11
84.22
21
-88.6125
0
LINE
8
BLACK
6
CONTINUOUS
10
84.22
20
-88.6125
11
84.2174
21
-88.6393
0
LINE
8
BLACK
6
CONTINUOUS
10
84.2174
20
-88.6393
11
84.2095
21
-88.6651
0
LINE
8
BLACK
6
CONTINUOUS
10
84.2095
20
-88.6651
11
84.1968
21
-88.6889
0
LINE
8
BLACK
6
CONTINUOUS
10
84.1968
20
-88.6889
11
84.1797
21
-88.7097
0
LINE
8
BLACK
6
CONTINUOUS
10
84.1797
20
-88.7097
11
84.1589
21
-88.7268
0
LINE
8
BLACK
6
CONTINUOUS
10
84.1589
20
-88.7268
11
84.1351
21
-88.7395
0
LINE
8
BLACK
6
CONTINUOUS
10
84.1351
20
-88.7395
11
84.1093
21
-88.7474
0
LINE
8
BLACK
6
CONTINUOUS
10
84.1093
20
-88.7474
11
84.0825
21
-88.75
0
LINE
8
BLACK
6
CONTINUOUS
10
84.0825
20
-88.75
11
83.8075
21
-88.75
0
LINE
8
BLACK
6
CONTINUOUS
10
83.8075
20
-88.75
11
83.7807
21
-88.7474
0
LINE
8
BLACK
6
CONTINUOUS
10
83.7807
20
-88.7474
11
83.7549
21
-88.7395
0
LINE
8
BLACK
6
CONTINUOUS
10
83.7549
20
-88.7395
11
83.7311
21
-88.7268
0
LINE
8
BLACK
6
CONTINUOUS
10
83.7311
20
-88.7268
11
83.7103
21
-88.7097
0
LINE
8
BLACK
6
CONTINUOUS
10
83.7103
20
-88.7097
11
83.6932
21
-88.6889
0
LINE
8
BLACK
6
CONTINUOUS
10
83.6932
20
-88.6889
11
83.6805
21
-88.6651
0
LINE
8
BLACK
6
CONTINUOUS
10
83.6805
20
-88.6651
11
83.6726
21
-88.6393
0
LINE
8
BLACK
6
CONTINUOUS
10
83.6726
20
-88.6393
11
83.67
21
-88.6125
0
LINE
8
BLACK
6
CONTINUOUS
10
83.67
20
-88.6125
11
83.67
21
-87.2875
0
LINE
8
BLACK
6
CONTINUOUS
10
83.67
20
-87.2875
11
83.6726
21
-87.2607
0
LINE
8
BLACK
6
CONTINUOUS
10
83.6726
20
-87.2607
11
83.6805
21
-87.2349
0
LINE
8
BLACK
6
CONTINUOUS
10
83.6805
20
-87.2349
11
83.6932
21
-87.2111
0
LINE
8
BLACK
6
CONTINUOUS
10
83.6932
20
-87.2111
11
83.7103
21
-87.1903
0
LINE
8
BLACK
6
CONTINUOUS
10
83.7103
20
-87.1903
11
83.7311
21
-87.1732
0
LINE
8
BLACK
6
CONTINUOUS
10
83.7311
20
-87.1732
11
83.7549
21
-87.1605
0
LINE
8
BLACK
6
CONTINUOUS
10
83.7549
20
-87.1605
11
83.7807
21
-87.1526
0
LINE
8
BLACK
6
CONTINUOUS
10
83.7807
20
-87.1526
11
83.8075
21
-87.15
0
LINE
8
BLACK
6
CONTINUOUS
10
83.8075
20
-87.15
11
84.0825
21
-87.15
0
LINE
8
BLACK
6
CONTINUOUS
10
84.0825
20
-87.15
11
84.1093
21
-87.1526
0
LINE
8
BLACK
6
CONTINUOUS
10
73.7738
20
-84.9798
11
73.8207
21
-84.994
0
LINE
8
BLACK
6
CONTINUOUS
10
73.8207
20
-84.994
11
73.8639
21
-85.0171
0
LINE
8
BLACK
6
CONTINUOUS
10
73.8639
20
-85.0171
11
73.9018
21
-85.0482
0
LINE
8
BLACK
6
CONTINUOUS
10
73.9018
20
-85.0482
11
73.9329
21
-85.0861
0
LINE
8
BLACK
6
CONTINUOUS
10
73.9329
20
-85.0861
11
73.956
21
-85.1293
0
LINE
8
BLACK
6
CONTINUOUS
10
73.956
20
-85.1293
11
73.9702
21
-85.1762
0
LINE
8
BLACK
6
CONTINUOUS
10
73.9702
20
-85.1762
11
73.975
21
-85.225
0
LINE
8
BLACK
6
CONTINUOUS
10
73.975
20
-85.225
11
73.975
21
-86.15
0
LINE
8
BLACK
6
CONTINUOUS
10
73.975
20
-86.15
11
73.9702
21
-86.1988
0
LINE
8
BLACK
6
CONTINUOUS
10
73.9702
20
-86.1988
11
73.956
21
-86.2457
0
LINE
8
BLACK
6
CONTINUOUS
10
73.956
20
-86.2457
11
73.9329
21
-86.2889
0
LINE
8
BLACK
6
CONTINUOUS
10
73.9329
20
-86.2889
11
73.9018
21
-86.3268
0
LINE
8
BLACK
6
CONTINUOUS
10
73.9018
20
-86.3268
11
73.8639
21
-86.3579
0
LINE
8
BLACK
6
CONTINUOUS
10
73.8639
20
-86.3579
11
73.8207
21
-86.381
0
LINE
8
BLACK
6
CONTINUOUS
10
73.8207
20
-86.381
11
73.7738
21
-86.3952
0
LINE
8
BLACK
6
CONTINUOUS
10
73.7738
20
-86.3952
11
73.725
21
-86.4
0
LINE
8
BLACK
6
CONTINUOUS
10
73.725
20
-86.4
11
72.475
21
-86.4
0
LINE
8
BLACK
6
CONTINUOUS
10
72.475
20
-86.4
11
72.4262
21
-86.3952
0
LINE
8
BLACK
6
CONTINUOUS
10
72.4262
20
-86.3952
11
72.3793
21
-86.381
0
LINE
8
BLACK
6
CONTINUOUS
10
72.3793
20
-86.381
11
72.3361
21
-86.3579
0
LINE
8
BLACK
6
CONTINUOUS
10
72.3361
20
-86.3579
11
72.2982
21
-86.3268
0
LINE
8
BLACK
6
CONTINUOUS
10
72.2982
20
-86.3268
11
72.2671
21
-86.2889
0
LINE
8
BLACK
6
CONTINUOUS
10
72.2671
20
-86.2889
11
72.244
21
-86.2457
0
LINE
8
BLACK
6
CONTINUOUS
10
72.244
20
-86.2457
11
72.2298
21
-86.1988
0
LINE
8
BLACK
6
CONTINUOUS
10
72.2298
20
-86.1988
11
72.225
21
-86.15
0
LINE
8
BLACK
6
CONTINUOUS
10
72.225
20
-86.15
11
72.225
21
-85.225
0
LINE
8
BLACK
6
CONTINUOUS
10
72.225
20
-85.225
11
72.2298
21
-85.1762
0
LINE
8
BLACK
6
CONTINUOUS
10
72.2298
20
-85.1762
11
72.244
21
-85.1293
0
LINE
8
BLACK
6
CONTINUOUS
10
72.244
20
-85.1293
11
72.2671
21
-85.0861
0
LINE
8
BLACK
6
CONTINUOUS
10
72.2671
20
-85.0861
11
72.2982
21
-85.0482
0
LINE
8
BLACK
6
CONTINUOUS
10
72.2982
20
-85.0482
11
72.3361
21
-85.0171
0
LINE
8
BLACK
6
CONTINUOUS
10
72.3361
20
-85.0171
11
72.3793
21
-84.994
0
LINE
8
BLACK
6
CONTINUOUS
10
72.3793
20
-84.994
11
72.4262
21
-84.9798
0
LINE
8
BLACK
6
CONTINUOUS
10
72.4262
20
-84.9798
11
72.475
21
-84.975
0
LINE
8
BLACK
6
CONTINUOUS
10
72.475
20
-84.975
11
73.725
21
-84.975
0
LINE
8
BLACK
6
CONTINUOUS
10
73.725
20
-84.975
11
73.7738
21
-84.9798
0
LINE
8
BLACK
6
CONTINUOUS
10
196.999
20
-84.1298
11
197.046
21
-84.144
0
LINE
8
BLACK
6
CONTINUOUS
10
197.046
20
-84.144
11
197.089
21
-84.1671
0
LINE
8
BLACK
6
CONTINUOUS
10
197.089
20
-84.1671
11
197.127
21
-84.1982
0
LINE
8
BLACK
6
CONTINUOUS
10
197.127
20
-84.1982
11
197.158
21
-84.2361
0
LINE
8
BLACK
6
CONTINUOUS
10
197.158
20
-84.2361
11
197.181
21
-84.2793
0
LINE
8
BLACK
6
CONTINUOUS
10
197.181
20
-84.2793
11
197.195
21
-84.3262
0
LINE
8
BLACK
6
CONTINUOUS
10
197.195
20
-84.3262
11
197.2
21
-84.375
0
LINE
8
BLACK
6
CONTINUOUS
10
197.2
20
-84.375
11
197.2
21
-85.625
0
LINE
8
BLACK
6
CONTINUOUS
10
197.2
20
-85.625
11
197.195
21
-85.6738
0
LINE
8
BLACK
6
CONTINUOUS
10
197.195
20
-85.6738
11
197.181
21
-85.7207
0
LINE
8
BLACK
6
CONTINUOUS
10
197.181
20
-85.7207
11
197.158
21
-85.7639
0
LINE
8
BLACK
6
CONTINUOUS
10
197.158
20
-85.7639
11
197.127
21
-85.8018
0
LINE
8
BLACK
6
CONTINUOUS
10
197.127
20
-85.8018
11
197.089
21
-85.8329
0
LINE
8
BLACK
6
CONTINUOUS
10
197.089
20
-85.8329
11
197.046
21
-85.856
0
LINE
8
BLACK
6
CONTINUOUS
10
197.046
20
-85.856
11
196.999
21
-85.8702
0
LINE
8
BLACK
6
CONTINUOUS
10
196.999
20
-85.8702
11
196.95
21
-85.875
0
LINE
8
BLACK
6
CONTINUOUS
10
196.95
20
-85.875
11
196.025
21
-85.875
0
LINE
8
BLACK
6
CONTINUOUS
10
196.025
20
-85.875
11
195.976
21
-85.8702
0
LINE
8
BLACK
6
CONTINUOUS
10
195.976
20
-85.8702
11
195.929
21
-85.856
0
LINE
8
BLACK
6
CONTINUOUS
10
195.929
20
-85.856
11
195.886
21
-85.8329
0
LINE
8
BLACK
6
CONTINUOUS
10
195.886
20
-85.8329
11
195.848
21
-85.8018
0
LINE
8
BLACK
6
CONTINUOUS
10
195.848
20
-85.8018
11
195.817
21
-85.7639
0
LINE
8
BLACK
6
CONTINUOUS
10
195.817
20
-85.7639
11
195.794
21
-85.7207
0
LINE
8
BLACK
6
CONTINUOUS
10
195.794
20
-85.7207
11
195.78
21
-85.6738
0
LINE
8
BLACK
6
CONTINUOUS
10
195.78
20
-85.6738
11
195.775
21
-85.625
0
LINE
8
BLACK
6
CONTINUOUS
10
195.775
20
-85.625
11
195.775
21
-84.375
0
LINE
8
BLACK
6
CONTINUOUS
10
195.775
20
-84.375
11
195.78
21
-84.3262
0
LINE
8
BLACK
6
CONTINUOUS
10
195.78
20
-84.3262
11
195.794
21
-84.2793
0
LINE
8
BLACK
6
CONTINUOUS
10
195.794
20
-84.2793
11
195.817
21
-84.2361
0
LINE
8
BLACK
6
CONTINUOUS
10
195.817
20
-84.2361
11
195.848
21
-84.1982
0
LINE
8
BLACK
6
CONTINUOUS
10
195.848
20
-84.1982
11
195.886
21
-84.1671
0
LINE
8
BLACK
6
CONTINUOUS
10
195.886
20
-84.1671
11
195.929
21
-84.144
0
LINE
8
BLACK
6
CONTINUOUS
10
195.929
20
-84.144
11
195.976
21
-84.1298
0
LINE
8
BLACK
6
CONTINUOUS
10
195.976
20
-84.1298
11
196.025
21
-84.125
0
LINE
8
BLACK
6
CONTINUOUS
10
196.025
20
-84.125
11
196.95
21
-84.125
0
LINE
8
BLACK
6
CONTINUOUS
10
196.95
20
-84.125
11
196.999
21
-84.1298
0
LINE
8
BLACK
6
CONTINUOUS
10
149.024
20
-84.1298
11
149.071
21
-84.144
0
LINE
8
BLACK
6
CONTINUOUS
10
149.071
20
-84.144
11
149.114
21
-84.1671
0
LINE
8
BLACK
6
CONTINUOUS
10
149.114
20
-84.1671
11
149.152
21
-84.1982
0
LINE
8
BLACK
6
CONTINUOUS
10
149.152
20
-84.1982
11
149.183
21
-84.2361
0
LINE
8
BLACK
6
CONTINUOUS
10
149.183
20
-84.2361
11
149.206
21
-84.2793
0
LINE
8
BLACK
6
CONTINUOUS
10
149.206
20
-84.2793
11
149.22
21
-84.3262
0
LINE
8
BLACK
6
CONTINUOUS
10
149.22
20
-84.3262
11
149.225
21
-84.375
0
LINE
8
BLACK
6
CONTINUOUS
10
149.225
20
-84.375
11
149.225
21
-85.625
0
LINE
8
BLACK
6
CONTINUOUS
10
149.225
20
-85.625
11
149.22
21
-85.6738
0
LINE
8
BLACK
6
CONTINUOUS
10
149.22
20
-85.6738
11
149.206
21
-85.7207
0
LINE
8
BLACK
6
CONTINUOUS
10
149.206
20
-85.7207
11
149.183
21
-85.7639
0
LINE
8
BLACK
6
CONTINUOUS
10
149.183
20
-85.7639
11
149.152
21
-85.8018
0
LINE
8
BLACK
6
CONTINUOUS
10
149.152
20
-85.8018
11
149.114
21
-85.8329
0
LINE
8
BLACK
6
CONTINUOUS
10
149.114
20
-85.8329
11
149.071
21
-85.856
0
LINE
8
BLACK
6
CONTINUOUS
10
149.071
20
-85.856
11
149.024
21
-85.8702
0
LINE
8
BLACK
6
CONTINUOUS
10
149.024
20
-85.8702
11
148.975
21
-85.875
0
LINE
8
BLACK
6
CONTINUOUS
10
148.975
20
-85.875
11
148.05
21
-85.875
0
LINE
8
BLACK
6
CONTINUOUS
10
148.05
20
-85.875
11
148.001
21
-85.8702
0
LINE
8
BLACK
6
CONTINUOUS
10
148.001
20
-85.8702
11
147.954
21
-85.856
0
LINE
8
BLACK
6
CONTINUOUS
10
147.954
20
-85.856
11
147.911
21
-85.8329
0
LINE
8
BLACK
6
CONTINUOUS
10
147.911
20
-85.8329
11
147.873
21
-85.8018
0
LINE
8
BLACK
6
CONTINUOUS
10
147.873
20
-85.8018
11
147.842
21
-85.7639
0
LINE
8
BLACK
6
CONTINUOUS
10
147.842
20
-85.7639
11
147.819
21
-85.7207
0
LINE
8
BLACK
6
CONTINUOUS
10
147.819
20
-85.7207
11
147.805
21
-85.6738
0
LINE
8
BLACK
6
CONTINUOUS
10
147.805
20
-85.6738
11
147.8
21
-85.625
0
LINE
8
BLACK
6
CONTINUOUS
10
147.8
20
-85.625
11
147.8
21
-84.375
0
LINE
8
BLACK
6
CONTINUOUS
10
147.8
20
-84.375
11
147.805
21
-84.3262
0
LINE
8
BLACK
6
CONTINUOUS
10
147.805
20
-84.3262
11
147.819
21
-84.2793
0
LINE
8
BLACK
6
CONTINUOUS
10
147.819
20
-84.2793
11
147.842
21
-84.2361
0
LINE
8
BLACK
6
CONTINUOUS
10
147.842
20
-84.2361
11
147.873
21
-84.1982
0
LINE
8
BLACK
6
CONTINUOUS
10
147.873
20
-84.1982
11
147.911
21
-84.1671
0
LINE
8
BLACK
6
CONTINUOUS
10
147.911
20
-84.1671
11
147.954
21
-84.144
0
LINE
8
BLACK
6
CONTINUOUS
10
147.954
20
-84.144
11
148.001
21
-84.1298
0
LINE
8
BLACK
6
CONTINUOUS
10
148.001
20
-84.1298
11
148.05
21
-84.125
0
LINE
8
BLACK
6
CONTINUOUS
10
148.05
20
-84.125
11
148.975
21
-84.125
0
LINE
8
BLACK
6
CONTINUOUS
10
148.975
20
-84.125
11
149.024
21
-84.1298
0
LINE
8
BLACK
6
CONTINUOUS
10
59.0238
20
-84.1298
11
59.0707
21
-84.144
0
LINE
8
BLACK
6
CONTINUOUS
10
59.0707
20
-84.144
11
59.1139
21
-84.1671
0
LINE
8
BLACK
6
CONTINUOUS
10
59.1139
20
-84.1671
11
59.1518
21
-84.1982
0
LINE
8
BLACK
6
CONTINUOUS
10
59.1518
20
-84.1982
11
59.1829
21
-84.2361
0
LINE
8
BLACK
6
CONTINUOUS
10
59.1829
20
-84.2361
11
59.206
21
-84.2793
0
LINE
8
BLACK
6
CONTINUOUS
10
59.206
20
-84.2793
11
59.2202
21
-84.3262
0
LINE
8
BLACK
6
CONTINUOUS
10
59.2202
20
-84.3262
11
59.225
21
-84.375
0
LINE
8
BLACK
6
CONTINUOUS
10
59.225
20
-84.375
11
59.225
21
-85.625
0
LINE
8
BLACK
6
CONTINUOUS
10
59.225
20
-85.625
11
59.2202
21
-85.6738
0
LINE
8
BLACK
6
CONTINUOUS
10
59.2202
20
-85.6738
11
59.206
21
-85.7207
0
LINE
8
BLACK
6
CONTINUOUS
10
59.206
20
-85.7207
11
59.1829
21
-85.7639
0
LINE
8
BLACK
6
CONTINUOUS
10
59.1829
20
-85.7639
11
59.1518
21
-85.8018
0
LINE
8
BLACK
6
CONTINUOUS
10
59.1518
20
-85.8018
11
59.1139
21
-85.8329
0
LINE
8
BLACK
6
CONTINUOUS
10
59.1139
20
-85.8329
11
59.0707
21
-85.856
0
LINE
8
BLACK
6
CONTINUOUS
10
59.0707
20
-85.856
11
59.0238
21
-85.8702
0
LINE
8
BLACK
6
CONTINUOUS
10
59.0238
20
-85.8702
11
58.975
21
-85.875
0
LINE
8
BLACK
6
CONTINUOUS
10
58.975
20
-85.875
11
58.05
21
-85.875
0
LINE
8
BLACK
6
CONTINUOUS
10
58.05
20
-85.875
11
58.0012
21
-85.8702
0
LINE
8
BLACK
6
CONTINUOUS
10
58.0012
20
-85.8702
11
57.9543
21
-85.856
0
LINE
8
BLACK
6
CONTINUOUS
10
57.9543
20
-85.856
11
57.9111
21
-85.8329
0
LINE
8
BLACK
6
CONTINUOUS
10
57.9111
20
-85.8329
11
57.8732
21
-85.8018
0
LINE
8
BLACK
6
CONTINUOUS
10
57.8732
20
-85.8018
11
57.8421
21
-85.7639
0
LINE
8
BLACK
6
CONTINUOUS
10
57.8421
20
-85.7639
11
57.819
21
-85.7207
0
LINE
8
BLACK
6
CONTINUOUS
10
57.819
20
-85.7207
11
57.8048
21
-85.6738
0
LINE
8
BLACK
6
CONTINUOUS
10
57.8048
20
-85.6738
11
57.8
21
-85.625
0
LINE
8
BLACK
6
CONTINUOUS
10
57.8
20
-85.625
11
57.8
21
-84.375
0
LINE
8
BLACK
6
CONTINUOUS
10
57.8
20
-84.375
11
57.8048
21
-84.3262
0
LINE
8
BLACK
6
CONTINUOUS
10
57.8048
20
-84.3262
11
57.819
21
-84.2793
0
LINE
8
BLACK
6
CONTINUOUS
10
57.819
20
-84.2793
11
57.8421
21
-84.2361
0
LINE
8
BLACK
6
CONTINUOUS
10
57.8421
20
-84.2361
11
57.8732
21
-84.1982
0
LINE
8
BLACK
6
CONTINUOUS
10
57.8732
20
-84.1982
11
57.9111
21
-84.1671
0
LINE
8
BLACK
6
CONTINUOUS
10
57.9111
20
-84.1671
11
57.9543
21
-84.144
0
LINE
8
BLACK
6
CONTINUOUS
10
57.9543
20
-84.144
11
58.0012
21
-84.1298
0
LINE
8
BLACK
6
CONTINUOUS
10
58.0012
20
-84.1298
11
58.05
21
-84.125
0
LINE
8
BLACK
6
CONTINUOUS
10
58.05
20
-84.125
11
58.975
21
-84.125
0
LINE
8
BLACK
6
CONTINUOUS
10
58.975
20
-84.125
11
59.0238
21
-84.1298
0
LINE
8
BLACK
6
CONTINUOUS
10
151.999
20
-84.1298
11
152.046
21
-84.144
0
LINE
8
BLACK
6
CONTINUOUS
10
152.046
20
-84.144
11
152.089
21
-84.1671
0
LINE
8
BLACK
6
CONTINUOUS
10
152.089
20
-84.1671
11
152.127
21
-84.1982
0
LINE
8
BLACK
6
CONTINUOUS
10
152.127
20
-84.1982
11
152.158
21
-84.2361
0
LINE
8
BLACK
6
CONTINUOUS
10
152.158
20
-84.2361
11
152.181
21
-84.2793
0
LINE
8
BLACK
6
CONTINUOUS
10
152.181
20
-84.2793
11
152.195
21
-84.3262
0
LINE
8
BLACK
6
CONTINUOUS
10
152.195
20
-84.3262
11
152.2
21
-84.375
0
LINE
8
BLACK
6
CONTINUOUS
10
152.2
20
-84.375
11
152.2
21
-85.625
0
LINE
8
BLACK
6
CONTINUOUS
10
152.2
20
-85.625
11
152.195
21
-85.6738
0
LINE
8
BLACK
6
CONTINUOUS
10
152.195
20
-85.6738
11
152.181
21
-85.7207
0
LINE
8
BLACK
6
CONTINUOUS
10
152.181
20
-85.7207
11
152.158
21
-85.7639
0
LINE
8
BLACK
6
CONTINUOUS
10
152.158
20
-85.7639
11
152.127
21
-85.8018
0
LINE
8
BLACK
6
CONTINUOUS
10
152.127
20
-85.8018
11
152.089
21
-85.8329
0
LINE
8
BLACK
6
CONTINUOUS
10
152.089
20
-85.8329
11
152.046
21
-85.856
0
LINE
8
BLACK
6
CONTINUOUS
10
152.046
20
-85.856
11
151.999
21
-85.8702
0
LINE
8
BLACK
6
CONTINUOUS
10
151.999
20
-85.8702
11
151.95
21
-85.875
0
LINE
8
BLACK
6
CONTINUOUS
10
151.95
20
-85.875
11
151.025
21
-85.875
0
LINE
8
BLACK
6
CONTINUOUS
10
151.025
20
-85.875
11
150.976
21
-85.8702
0
LINE
8
BLACK
6
CONTINUOUS
10
150.976
20
-85.8702
11
150.929
21
-85.856
0
LINE
8
BLACK
6
CONTINUOUS
10
150.929
20
-85.856
11
150.886
21
-85.8329
0
LINE
8
BLACK
6
CONTINUOUS
10
150.886
20
-85.8329
11
150.848
21
-85.8018
0
LINE
8
BLACK
6
CONTINUOUS
10
150.848
20
-85.8018
11
150.817
21
-85.7639
0
LINE
8
BLACK
6
CONTINUOUS
10
150.817
20
-85.7639
11
150.794
21
-85.7207
0
LINE
8
BLACK
6
CONTINUOUS
10
150.794
20
-85.7207
11
150.78
21
-85.6738
0
LINE
8
BLACK
6
CONTINUOUS
10
150.78
20
-85.6738
11
150.775
21
-85.625
0
LINE
8
BLACK
6
CONTINUOUS
10
150.775
20
-85.625
11
150.775
21
-84.375
0
LINE
8
BLACK
6
CONTINUOUS
10
150.775
20
-84.375
11
150.78
21
-84.3262
0
LINE
8
BLACK
6
CONTINUOUS
10
150.78
20
-84.3262
11
150.794
21
-84.2793
0
LINE
8
BLACK
6
CONTINUOUS
10
150.794
20
-84.2793
11
150.817
21
-84.2361
0
LINE
8
BLACK
6
CONTINUOUS
10
150.817
20
-84.2361
11
150.848
21
-84.1982
0
LINE
8
BLACK
6
CONTINUOUS
10
150.848
20
-84.1982
11
150.886
21
-84.1671
0
LINE
8
BLACK
6
CONTINUOUS
10
150.886
20
-84.1671
11
150.929
21
-84.144
0
LINE
8
BLACK
6
CONTINUOUS
10
150.929
20
-84.144
11
150.976
21
-84.1298
0
LINE
8
BLACK
6
CONTINUOUS
10
150.976
20
-84.1298
11
151.025
21
-84.125
0
LINE
8
BLACK
6
CONTINUOUS
10
151.025
20
-84.125
11
151.95
21
-84.125
0
LINE
8
BLACK
6
CONTINUOUS
10
151.95
20
-84.125
11
151.999
21
-84.1298
0
LINE
8
BLACK
6
CONTINUOUS
10
61.9988
20
-84.1298
11
62.0457
21
-84.144
0
LINE
8
BLACK
6
CONTINUOUS
10
62.0457
20
-84.144
11
62.0889
21
-84.1671
0
LINE
8
BLACK
6
CONTINUOUS
10
62.0889
20
-84.1671
11
62.1268
21
-84.1982
0
LINE
8
BLACK
6
CONTINUOUS
10
62.1268
20
-84.1982
11
62.1579
21
-84.2361
0
LINE
8
BLACK
6
CONTINUOUS
10
62.1579
20
-84.2361
11
62.181
21
-84.2793
0
LINE
8
BLACK
6
CONTINUOUS
10
62.181
20
-84.2793
11
62.1952
21
-84.3262
0
LINE
8
BLACK
6
CONTINUOUS
10
62.1952
20
-84.3262
11
62.2
21
-84.375
0
LINE
8
BLACK
6
CONTINUOUS
10
62.2
20
-84.375
11
62.2
21
-85.625
0
LINE
8
BLACK
6
CONTINUOUS
10
62.2
20
-85.625
11
62.1952
21
-85.6738
0
LINE
8
BLACK
6
CONTINUOUS
10
62.1952
20
-85.6738
11
62.181
21
-85.7207
0
LINE
8
BLACK
6
CONTINUOUS
10
62.181
20
-85.7207
11
62.1579
21
-85.7639
0
LINE
8
BLACK
6
CONTINUOUS
10
62.1579
20
-85.7639
11
62.1268
21
-85.8018
0
LINE
8
BLACK
6
CONTINUOUS
10
62.1268
20
-85.8018
11
62.0889
21
-85.8329
0
LINE
8
BLACK
6
CONTINUOUS
10
62.0889
20
-85.8329
11
62.0457
21
-85.856
0
LINE
8
BLACK
6
CONTINUOUS
10
62.0457
20
-85.856
11
61.9988
21
-85.8702
0
LINE
8
BLACK
6
CONTINUOUS
10
61.9988
20
-85.8702
11
61.95
21
-85.875
0
LINE
8
BLACK
6
CONTINUOUS
10
61.95
20
-85.875
11
61.025
21
-85.875
0
LINE
8
BLACK
6
CONTINUOUS
10
61.025
20
-85.875
11
60.9762
21
-85.8702
0
LINE
8
BLACK
6
CONTINUOUS
10
60.9762
20
-85.8702
11
60.9293
21
-85.856
0
LINE
8
BLACK
6
CONTINUOUS
10
60.9293
20
-85.856
11
60.8861
21
-85.8329
0
LINE
8
BLACK
6
CONTINUOUS
10
60.8861
20
-85.8329
11
60.8482
21
-85.8018
0
LINE
8
BLACK
6
CONTINUOUS
10
60.8482
20
-85.8018
11
60.8171
21
-85.7639
0
LINE
8
BLACK
6
CONTINUOUS
10
60.8171
20
-85.7639
11
60.794
21
-85.7207
0
LINE
8
BLACK
6
CONTINUOUS
10
60.794
20
-85.7207
11
60.7798
21
-85.6738
0
LINE
8
BLACK
6
CONTINUOUS
10
60.7798
20
-85.6738
11
60.775
21
-85.625
0
LINE
8
BLACK
6
CONTINUOUS
10
60.775
20
-85.625
11
60.775
21
-84.375
0
LINE
8
BLACK
6
CONTINUOUS
10
60.775
20
-84.375
11
60.7798
21
-84.3262
0
LINE
8
BLACK
6
CONTINUOUS
10
60.7798
20
-84.3262
11
60.794
21
-84.2793
0
LINE
8
BLACK
6
CONTINUOUS
10
60.794
20
-84.2793
11
60.8171
21
-84.2361
0
LINE
8
BLACK
6
CONTINUOUS
10
60.8171
20
-84.2361
11
60.8482
21
-84.1982
0
LINE
8
BLACK
6
CONTINUOUS
10
60.8482
20
-84.1982
11
60.8861
21
-84.1671
0
LINE
8
BLACK
6
CONTINUOUS
10
60.8861
20
-84.1671
11
60.9293
21
-84.144
0
LINE
8
BLACK
6
CONTINUOUS
10
60.9293
20
-84.144
11
60.9762
21
-84.1298
0
LINE
8
BLACK
6
CONTINUOUS
10
60.9762
20
-84.1298
11
61.025
21
-84.125
0
LINE
8
BLACK
6
CONTINUOUS
10
61.025
20
-84.125
11
61.95
21
-84.125
0
LINE
8
BLACK
6
CONTINUOUS
10
61.95
20
-84.125
11
61.9988
21
-84.1298
0
LINE
8
BLACK
6
CONTINUOUS
10
241.999
20
-84.1298
11
242.046
21
-84.144
0
LINE
8
BLACK
6
CONTINUOUS
10
242.046
20
-84.144
11
242.089
21
-84.1671
0
LINE
8
BLACK
6
CONTINUOUS
10
242.089
20
-84.1671
11
242.127
21
-84.1982
0
LINE
8
BLACK
6
CONTINUOUS
10
242.127
20
-84.1982
11
242.158
21
-84.2361
0
LINE
8
BLACK
6
CONTINUOUS
10
242.158
20
-84.2361
11
242.181
21
-84.2793
0
LINE
8
BLACK
6
CONTINUOUS
10
242.181
20
-84.2793
11
242.195
21
-84.3262
0
LINE
8
BLACK
6
CONTINUOUS
10
242.195
20
-84.3262
11
242.2
21
-84.375
0
LINE
8
BLACK
6
CONTINUOUS
10
242.2
20
-84.375
11
242.2
21
-85.625
0
LINE
8
BLACK
6
CONTINUOUS
10
242.2
20
-85.625
11
242.195
21
-85.6738
0
LINE
8
BLACK
6
CONTINUOUS
10
242.195
20
-85.6738
11
242.181
21
-85.7207
0
LINE
8
BLACK
6
CONTINUOUS
10
242.181
20
-85.7207
11
242.158
21
-85.7639
0
LINE
8
BLACK
6
CONTINUOUS
10
242.158
20
-85.7639
11
242.127
21
-85.8018
0
LINE
8
BLACK
6
CONTINUOUS
10
242.127
20
-85.8018
11
242.089
21
-85.8329
0
LINE
8
BLACK
6
CONTINUOUS
10
242.089
20
-85.8329
11
242.046
21
-85.856
0
LINE
8
BLACK
6
CONTINUOUS
10
242.046
20
-85.856
11
241.999
21
-85.8702
0
LINE
8
BLACK
6
CONTINUOUS
10
241.999
20
-85.8702
11
241.95
21
-85.875
0
LINE
8
BLACK
6
CONTINUOUS
10
241.95
20
-85.875
11
241.025
21
-85.875
0
LINE
8
BLACK
6
CONTINUOUS
10
241.025
20
-85.875
11
240.976
21
-85.8702
0
LINE
8
BLACK
6
CONTINUOUS
10
240.976
20
-85.8702
11
240.929
21
-85.856
0
LINE
8
BLACK
6
CONTINUOUS
10
240.929
20
-85.856
11
240.886
21
-85.8329
0
LINE
8
BLACK
6
CONTINUOUS
10
240.886
20
-85.8329
11
240.848
21
-85.8018
0
LINE
8
BLACK
6
CONTINUOUS
10
240.848
20
-85.8018
11
240.817
21
-85.7639
0
LINE
8
BLACK
6
CONTINUOUS
10
240.817
20
-85.7639
11
240.794
21
-85.7207
0
LINE
8
BLACK
6
CONTINUOUS
10
240.794
20
-85.7207
11
240.78
21
-85.6738
0
LINE
8
BLACK
6
CONTINUOUS
10
240.78
20
-85.6738
11
240.775
21
-85.625
0
LINE
8
BLACK
6
CONTINUOUS
10
240.775
20
-85.625
11
240.775
21
-84.375
0
LINE
8
BLACK
6
CONTINUOUS
10
240.775
20
-84.375
11
240.78
21
-84.3262
0
LINE
8
BLACK
6
CONTINUOUS
10
240.78
20
-84.3262
11
240.794
21
-84.2793
0
LINE
8
BLACK
6
CONTINUOUS
10
240.794
20
-84.2793
11
240.817
21
-84.2361
0
LINE
8
BLACK
6
CONTINUOUS
10
240.817
20
-84.2361
11
240.848
21
-84.1982
0
LINE
8
BLACK
6
CONTINUOUS
10
240.848
20
-84.1982
11
240.886
21
-84.1671
0
LINE
8
BLACK
6
CONTINUOUS
10
240.886
20
-84.1671
11
240.929
21
-84.144
0
LINE
8
BLACK
6
CONTINUOUS
10
240.929
20
-84.144
11
240.976
21
-84.1298
0
LINE
8
BLACK
6
CONTINUOUS
10
240.976
20
-84.1298
11
241.025
21
-84.125
0
LINE
8
BLACK
6
CONTINUOUS
10
241.025
20
-84.125
11
241.95
21
-84.125
0
LINE
8
BLACK
6
CONTINUOUS
10
241.95
20
-84.125
11
241.999
21
-84.1298
0
LINE
8
BLACK
6
CONTINUOUS
10
239.024
20
-84.1298
11
239.071
21
-84.144
0
LINE
8
BLACK
6
CONTINUOUS
10
239.071
20
-84.144
11
239.114
21
-84.1671
0
LINE
8
BLACK
6
CONTINUOUS
10
239.114
20
-84.1671
11
239.152
21
-84.1982
0
LINE
8
BLACK
6
CONTINUOUS
10
239.152
20
-84.1982
11
239.183
21
-84.2361
0
LINE
8
BLACK
6
CONTINUOUS
10
239.183
20
-84.2361
11
239.206
21
-84.2793
0
LINE
8
BLACK
6
CONTINUOUS
10
239.206
20
-84.2793
11
239.22
21
-84.3262
0
LINE
8
BLACK
6
CONTINUOUS
10
239.22
20
-84.3262
11
239.225
21
-84.375
0
LINE
8
BLACK
6
CONTINUOUS
10
239.225
20
-84.375
11
239.225
21
-85.625
0
LINE
8
BLACK
6
CONTINUOUS
10
239.225
20
-85.625
11
239.22
21
-85.6738
0
LINE
8
BLACK
6
CONTINUOUS
10
239.22
20
-85.6738
11
239.206
21
-85.7207
0
LINE
8
BLACK
6
CONTINUOUS
10
239.206
20
-85.7207
11
239.183
21
-85.7639
0
LINE
8
BLACK
6
CONTINUOUS
10
239.183
20
-85.7639
11
239.152
21
-85.8018
0
LINE
8
BLACK
6
CONTINUOUS
10
239.152
20
-85.8018
11
239.114
21
-85.8329
0
LINE
8
BLACK
6
CONTINUOUS
10
239.114
20
-85.8329
11
239.071
21
-85.856
0
LINE
8
BLACK
6
CONTINUOUS
10
239.071
20
-85.856
11
239.024
21
-85.8702
0
LINE
8
BLACK
6
CONTINUOUS
10
239.024
20
-85.8702
11
238.975
21
-85.875
0
LINE
8
BLACK
6
CONTINUOUS
10
238.975
20
-85.875
11
238.05
21
-85.875
0
LINE
8
BLACK
6
CONTINUOUS
10
238.05
20
-85.875
11
238.001
21
-85.8702
0
LINE
8
BLACK
6
CONTINUOUS
10
238.001
20
-85.8702
11
237.954
21
-85.856
0
LINE
8
BLACK
6
CONTINUOUS
10
237.954
20
-85.856
11
237.911
21
-85.8329
0
LINE
8
BLACK
6
CONTINUOUS
10
237.911
20
-85.8329
11
237.873
21
-85.8018
0
LINE
8
BLACK
6
CONTINUOUS
10
237.873
20
-85.8018
11
237.842
21
-85.7639
0
LINE
8
BLACK
6
CONTINUOUS
10
237.842
20
-85.7639
11
237.819
21
-85.7207
0
LINE
8
BLACK
6
CONTINUOUS
10
237.819
20
-85.7207
11
237.805
21
-85.6738
0
LINE
8
BLACK
6
CONTINUOUS
10
237.805
20
-85.6738
11
237.8
21
-85.625
0
LINE
8
BLACK
6
CONTINUOUS
10
237.8
20
-85.625
11
237.8
21
-84.375
0
LINE
8
BLACK
6
CONTINUOUS
10
237.8
20
-84.375
11
237.805
21
-84.3262
0
LINE
8
BLACK
6
CONTINUOUS
10
237.805
20
-84.3262
11
237.819
21
-84.2793
0
LINE
8
BLACK
6
CONTINUOUS
10
237.819
20
-84.2793
11
237.842
21
-84.2361
0
LINE
8
BLACK
6
CONTINUOUS
10
237.842
20
-84.2361
11
237.873
21
-84.1982
0
LINE
8
BLACK
6
CONTINUOUS
10
237.873
20
-84.1982
11
237.911
21
-84.1671
0
LINE
8
BLACK
6
CONTINUOUS
10
237.911
20
-84.1671
11
237.954
21
-84.144
0
LINE
8
BLACK
6
CONTINUOUS
10
237.954
20
-84.144
11
238.001
21
-84.1298
0
LINE
8
BLACK
6
CONTINUOUS
10
238.001
20
-84.1298
11
238.05
21
-84.125
0
LINE
8
BLACK
6
CONTINUOUS
10
238.05
20
-84.125
11
238.975
21
-84.125
0
LINE
8
BLACK
6
CONTINUOUS
10
238.975
20
-84.125
11
239.024
21
-84.1298
0
LINE
8
BLACK
6
CONTINUOUS
10
194.024
20
-84.1298
11
194.071
21
-84.144
0
LINE
8
BLACK
6
CONTINUOUS
10
194.071
20
-84.144
11
194.114
21
-84.1671
0
LINE
8
BLACK
6
CONTINUOUS
10
194.114
20
-84.1671
11
194.152
21
-84.1982
0
LINE
8
BLACK
6
CONTINUOUS
10
194.152
20
-84.1982
11
194.183
21
-84.2361
0
LINE
8
BLACK
6
CONTINUOUS
10
194.183
20
-84.2361
11
194.206
21
-84.2793
0
LINE
8
BLACK
6
CONTINUOUS
10
194.206
20
-84.2793
11
194.22
21
-84.3262
0
LINE
8
BLACK
6
CONTINUOUS
10
194.22
20
-84.3262
11
194.225
21
-84.375
0
LINE
8
BLACK
6
CONTINUOUS
10
194.225
20
-84.375
11
194.225
21
-85.625
0
LINE
8
BLACK
6
CONTINUOUS
10
194.225
20
-85.625
11
194.22
21
-85.6738
0
LINE
8
BLACK
6
CONTINUOUS
10
194.22
20
-85.6738
11
194.206
21
-85.7207
0
LINE
8
BLACK
6
CONTINUOUS
10
194.206
20
-85.7207
11
194.183
21
-85.7639
0
LINE
8
BLACK
6
CONTINUOUS
10
194.183
20
-85.7639
11
194.152
21
-85.8018
0
LINE
8
BLACK
6
CONTINUOUS
10
194.152
20
-85.8018
11
194.114
21
-85.8329
0
LINE
8
BLACK
6
CONTINUOUS
10
194.114
20
-85.8329
11
194.071
21
-85.856
0
LINE
8
BLACK
6
CONTINUOUS
10
194.071
20
-85.856
11
194.024
21
-85.8702
0
LINE
8
BLACK
6
CONTINUOUS
10
194.024
20
-85.8702
11
193.975
21
-85.875
0
LINE
8
BLACK
6
CONTINUOUS
10
193.975
20
-85.875
11
193.05
21
-85.875
0
LINE
8
BLACK
6
CONTINUOUS
10
193.05
20
-85.875
11
193.001
21
-85.8702
0
LINE
8
BLACK
6
CONTINUOUS
10
193.001
20
-85.8702
11
192.954
21
-85.856
0
LINE
8
BLACK
6
CONTINUOUS
10
192.954
20
-85.856
11
192.911
21
-85.8329
0
LINE
8
BLACK
6
CONTINUOUS
10
192.911
20
-85.8329
11
192.873
21
-85.8018
0
LINE
8
BLACK
6
CONTINUOUS
10
192.873
20
-85.8018
11
192.842
21
-85.7639
0
LINE
8
BLACK
6
CONTINUOUS
10
192.842
20
-85.7639
11
192.819
21
-85.7207
0
LINE
8
BLACK
6
CONTINUOUS
10
192.819
20
-85.7207
11
192.805
21
-85.6738
0
LINE
8
BLACK
6
CONTINUOUS
10
192.805
20
-85.6738
11
192.8
21
-85.625
0
LINE
8
BLACK
6
CONTINUOUS
10
192.8
20
-85.625
11
192.8
21
-84.375
0
LINE
8
BLACK
6
CONTINUOUS
10
192.8
20
-84.375
11
192.805
21
-84.3262
0
LINE
8
BLACK
6
CONTINUOUS
10
192.805
20
-84.3262
11
192.819
21
-84.2793
0
LINE
8
BLACK
6
CONTINUOUS
10
192.819
20
-84.2793
11
192.842
21
-84.2361
0
LINE
8
BLACK
6
CONTINUOUS
10
192.842
20
-84.2361
11
192.873
21
-84.1982
0
LINE
8
BLACK
6
CONTINUOUS
10
192.873
20
-84.1982
11
192.911
21
-84.1671
0
LINE
8
BLACK
6
CONTINUOUS
10
192.911
20
-84.1671
11
192.954
21
-84.144
0
LINE
8
BLACK
6
CONTINUOUS
10
192.954
20
-84.144
11
193.001
21
-84.1298
0
LINE
8
BLACK
6
CONTINUOUS
10
193.001
20
-84.1298
11
193.05
21
-84.125
0
LINE
8
BLACK
6
CONTINUOUS
10
193.05
20
-84.125
11
193.975
21
-84.125
0
LINE
8
BLACK
6
CONTINUOUS
10
193.975
20
-84.125
11
194.024
21
-84.1298
0
LINE
8
BLACK
6
CONTINUOUS
10
73.7738
20
-82.0048
11
73.8207
21
-82.019
0
LINE
8
BLACK
6
CONTINUOUS
10
73.8207
20
-82.019
11
73.8639
21
-82.0421
0
LINE
8
BLACK
6
CONTINUOUS
10
73.8639
20
-82.0421
11
73.9018
21
-82.0732
0
LINE
8
BLACK
6
CONTINUOUS
10
73.9018
20
-82.0732
11
73.9329
21
-82.1111
0
LINE
8
BLACK
6
CONTINUOUS
10
73.9329
20
-82.1111
11
73.956
21
-82.1543
0
LINE
8
BLACK
6
CONTINUOUS
10
73.956
20
-82.1543
11
73.9702
21
-82.2012
0
LINE
8
BLACK
6
CONTINUOUS
10
73.9702
20
-82.2012
11
73.975
21
-82.25
0
LINE
8
BLACK
6
CONTINUOUS
10
73.975
20
-82.25
11
73.975
21
-83.175
0
LINE
8
BLACK
6
CONTINUOUS
10
73.975
20
-83.175
11
73.9702
21
-83.2238
0
LINE
8
BLACK
6
CONTINUOUS
10
73.9702
20
-83.2238
11
73.956
21
-83.2707
0
LINE
8
BLACK
6
CONTINUOUS
10
73.956
20
-83.2707
11
73.9329
21
-83.3139
0
LINE
8
BLACK
6
CONTINUOUS
10
73.9329
20
-83.3139
11
73.9018
21
-83.3518
0
LINE
8
BLACK
6
CONTINUOUS
10
73.9018
20
-83.3518
11
73.8639
21
-83.3829
0
LINE
8
BLACK
6
CONTINUOUS
10
73.8639
20
-83.3829
11
73.8207
21
-83.406
0
LINE
8
BLACK
6
CONTINUOUS
10
73.8207
20
-83.406
11
73.7738
21
-83.4202
0
LINE
8
BLACK
6
CONTINUOUS
10
73.7738
20
-83.4202
11
73.725
21
-83.425
0
LINE
8
BLACK
6
CONTINUOUS
10
73.725
20
-83.425
11
72.475
21
-83.425
0
LINE
8
BLACK
6
CONTINUOUS
10
72.475
20
-83.425
11
72.4262
21
-83.4202
0
LINE
8
BLACK
6
CONTINUOUS
10
72.4262
20
-83.4202
11
72.3793
21
-83.406
0
LINE
8
BLACK
6
CONTINUOUS
10
72.3793
20
-83.406
11
72.3361
21
-83.3829
0
LINE
8
BLACK
6
CONTINUOUS
10
72.3361
20
-83.3829
11
72.2982
21
-83.3518
0
LINE
8
BLACK
6
CONTINUOUS
10
72.2982
20
-83.3518
11
72.2671
21
-83.3139
0
LINE
8
BLACK
6
CONTINUOUS
10
72.2671
20
-83.3139
11
72.244
21
-83.2707
0
LINE
8
BLACK
6
CONTINUOUS
10
72.244
20
-83.2707
11
72.2298
21
-83.2238
0
LINE
8
BLACK
6
CONTINUOUS
10
72.2298
20
-83.2238
11
72.225
21
-83.175
0
LINE
8
BLACK
6
CONTINUOUS
10
72.225
20
-83.175
11
72.225
21
-82.25
0
LINE
8
BLACK
6
CONTINUOUS
10
72.225
20
-82.25
11
72.2298
21
-82.2012
0
LINE
8
BLACK
6
CONTINUOUS
10
72.2298
20
-82.2012
11
72.244
21
-82.1543
0
LINE
8
BLACK
6
CONTINUOUS
10
72.244
20
-82.1543
11
72.2671
21
-82.1111
0
LINE
8
BLACK
6
CONTINUOUS
10
72.2671
20
-82.1111
11
72.2982
21
-82.0732
0
LINE
8
BLACK
6
CONTINUOUS
10
72.2982
20
-82.0732
11
72.3361
21
-82.0421
0
LINE
8
BLACK
6
CONTINUOUS
10
72.3361
20
-82.0421
11
72.3793
21
-82.019
0
LINE
8
BLACK
6
CONTINUOUS
10
72.3793
20
-82.019
11
72.4262
21
-82.0048
0
LINE
8
BLACK
6
CONTINUOUS
10
72.4262
20
-82.0048
11
72.475
21
-82
0
LINE
8
BLACK
6
CONTINUOUS
10
72.475
20
-82
11
73.725
21
-82
0
LINE
8
BLACK
6
CONTINUOUS
10
73.725
20
-82
11
73.7738
21
-82.0048
0
LINE
8
BLACK
6
CONTINUOUS
10
193.55
20
-82.85
11
190.55
21
-82.85
0
LINE
8
BLACK
6
CONTINUOUS
10
190.55
20
-82.85
11
190.55
21
-81.35
0
LINE
8
BLACK
6
CONTINUOUS
10
190.55
20
-81.35
11
193.55
21
-81.35
0
LINE
8
BLACK
6
CONTINUOUS
10
193.55
20
-81.35
11
193.55
21
-82.85
0
LINE
8
BLACK
6
CONTINUOUS
10
238.55
20
-82.85
11
235.55
21
-82.85
0
LINE
8
BLACK
6
CONTINUOUS
10
235.55
20
-82.85
11
235.55
21
-81.35
0
LINE
8
BLACK
6
CONTINUOUS
10
235.55
20
-81.35
11
238.55
21
-81.35
0
LINE
8
BLACK
6
CONTINUOUS
10
238.55
20
-81.35
11
238.55
21
-82.85
0
LINE
8
BLACK
6
CONTINUOUS
10
199.45
20
-82.85
11
196.45
21
-82.85
0
LINE
8
BLACK
6
CONTINUOUS
10
196.45
20
-82.85
11
196.45
21
-81.35
0
LINE
8
BLACK
6
CONTINUOUS
10
196.45
20
-81.35
11
199.45
21
-81.35
0
LINE
8
BLACK
6
CONTINUOUS
10
199.45
20
-81.35
11
199.45
21
-82.85
0
LINE
8
BLACK
6
CONTINUOUS
10
244.45
20
-82.85
11
241.45
21
-82.85
0
LINE
8
BLACK
6
CONTINUOUS
10
241.45
20
-82.85
11
241.45
21
-81.35
0
LINE
8
BLACK
6
CONTINUOUS
10
241.45
20
-81.35
11
244.45
21
-81.35
0
LINE
8
BLACK
6
CONTINUOUS
10
244.45
20
-81.35
11
244.45
21
-82.85
0
LINE
8
BLACK
6
CONTINUOUS
10
154.45
20
-82.85
11
151.45
21
-82.85
0
LINE
8
BLACK
6
CONTINUOUS
10
151.45
20
-82.85
11
151.45
21
-81.35
0
LINE
8
BLACK
6
CONTINUOUS
10
151.45
20
-81.35
11
154.45
21
-81.35
0
LINE
8
BLACK
6
CONTINUOUS
10
154.45
20
-81.35
11
154.45
21
-82.85
0
LINE
8
BLACK
6
CONTINUOUS
10
148.55
20
-82.85
11
145.55
21
-82.85
0
LINE
8
BLACK
6
CONTINUOUS
10
145.55
20
-82.85
11
145.55
21
-81.35
0
LINE
8
BLACK
6
CONTINUOUS
10
145.55
20
-81.35
11
148.55
21
-81.35
0
LINE
8
BLACK
6
CONTINUOUS
10
148.55
20
-81.35
11
148.55
21
-82.85
0
LINE
8
BLACK
6
CONTINUOUS
10
103.55
20
-82.85
11
100.55
21
-82.85
0
LINE
8
BLACK
6
CONTINUOUS
10
100.55
20
-82.85
11
100.55
21
-81.35
0
LINE
8
BLACK
6
CONTINUOUS
10
100.55
20
-81.35
11
103.55
21
-81.35
0
LINE
8
BLACK
6
CONTINUOUS
10
103.55
20
-81.35
11
103.55
21
-82.85
0
LINE
8
BLACK
6
CONTINUOUS
10
109.45
20
-82.85
11
106.45
21
-82.85
0
LINE
8
BLACK
6
CONTINUOUS
10
106.45
20
-82.85
11
106.45
21
-81.35
0
LINE
8
BLACK
6
CONTINUOUS
10
106.45
20
-81.35
11
109.45
21
-81.35
0
LINE
8
BLACK
6
CONTINUOUS
10
109.45
20
-81.35
11
109.45
21
-82.85
0
LINE
8
BLACK
6
CONTINUOUS
10
64.45
20
-82.85
11
61.45
21
-82.85
0
LINE
8
BLACK
6
CONTINUOUS
10
61.45
20
-82.85
11
61.45
21
-81.35
0
LINE
8
BLACK
6
CONTINUOUS
10
61.45
20
-81.35
11
64.45
21
-81.35
0
LINE
8
BLACK
6
CONTINUOUS
10
64.45
20
-81.35
11
64.45
21
-82.85
0
LINE
8
BLACK
6
CONTINUOUS
10
58.55
20
-82.85
11
55.55
21
-82.85
0
LINE
8
BLACK
6
CONTINUOUS
10
55.55
20
-82.85
11
55.55
21
-81.35
0
LINE
8
BLACK
6
CONTINUOUS
10
55.55
20
-81.35
11
58.55
21
-81.35
0
LINE
8
BLACK
6
CONTINUOUS
10
58.55
20
-81.35
11
58.55
21
-82.85
0
LINE
8
BLACK
6
CONTINUOUS
10
114.736
20
-81.0998
11
114.783
21
-81.114
0
LINE
8
BLACK
6
CONTINUOUS
10
114.783
20
-81.114
11
114.826
21
-81.1371
0
LINE
8
BLACK
6
CONTINUOUS
10
114.826
20
-81.1371
11
114.864
21
-81.1682
0
LINE
8
BLACK
6
CONTINUOUS
10
114.864
20
-81.1682
11
114.895
21
-81.2061
0
LINE
8
BLACK
6
CONTINUOUS
10
114.895
20
-81.2061
11
114.918
21
-81.2493
0
LINE
8
BLACK
6
CONTINUOUS
10
114.918
20
-81.2493
11
114.933
21
-81.2962
0
LINE
8
BLACK
6
CONTINUOUS
10
114.933
20
-81.2962
11
114.938
21
-81.345
0
LINE
8
BLACK
6
CONTINUOUS
10
114.938
20
-81.345
11
114.938
21
-82.595
0
LINE
8
BLACK
6
CONTINUOUS
10
114.938
20
-82.595
11
114.933
21
-82.6438
0
LINE
8
BLACK
6
CONTINUOUS
10
114.933
20
-82.6438
11
114.918
21
-82.6907
0
LINE
8
BLACK
6
CONTINUOUS
10
114.918
20
-82.6907
11
114.895
21
-82.7339
0
LINE
8
BLACK
6
CONTINUOUS
10
114.895
20
-82.7339
11
114.864
21
-82.7718
0
LINE
8
BLACK
6
CONTINUOUS
10
114.864
20
-82.7718
11
114.826
21
-82.8029
0
LINE
8
BLACK
6
CONTINUOUS
10
114.826
20
-82.8029
11
114.783
21
-82.826
0
LINE
8
BLACK
6
CONTINUOUS
10
114.783
20
-82.826
11
114.736
21
-82.8402
0
LINE
8
BLACK
6
CONTINUOUS
10
114.736
20
-82.8402
11
114.688
21
-82.845
0
LINE
8
BLACK
6
CONTINUOUS
10
114.688
20
-82.845
11
113.762
21
-82.845
0
LINE
8
BLACK
6
CONTINUOUS
10
113.762
20
-82.845
11
113.714
21
-82.8402
0
LINE
8
BLACK
6
CONTINUOUS
10
113.714
20
-82.8402
11
113.667
21
-82.826
0
LINE
8
BLACK
6
CONTINUOUS
10
113.667
20
-82.826
11
113.624
21
-82.8029
0
LINE
8
BLACK
6
CONTINUOUS
10
113.624
20
-82.8029
11
113.586
21
-82.7718
0
LINE
8
BLACK
6
CONTINUOUS
10
113.586
20
-82.7718
11
113.555
21
-82.7339
0
LINE
8
BLACK
6
CONTINUOUS
10
113.555
20
-82.7339
11
113.532
21
-82.6907
0
LINE
8
BLACK
6
CONTINUOUS
10
113.532
20
-82.6907
11
113.517
21
-82.6438
0
LINE
8
BLACK
6
CONTINUOUS
10
113.517
20
-82.6438
11
113.512
21
-82.595
0
LINE
8
BLACK
6
CONTINUOUS
10
113.512
20
-82.595
11
113.512
21
-81.345
0
LINE
8
BLACK
6
CONTINUOUS
10
113.512
20
-81.345
11
113.517
21
-81.2962
0
LINE
8
BLACK
6
CONTINUOUS
10
113.517
20
-81.2962
11
113.532
21
-81.2493
0
LINE
8
BLACK
6
CONTINUOUS
10
113.532
20
-81.2493
11
113.555
21
-81.2061
0
LINE
8
BLACK
6
CONTINUOUS
10
113.555
20
-81.2061
11
113.586
21
-81.1682
0
LINE
8
BLACK
6
CONTINUOUS
10
113.586
20
-81.1682
11
113.624
21
-81.1371
0
LINE
8
BLACK
6
CONTINUOUS
10
113.624
20
-81.1371
11
113.667
21
-81.114
0
LINE
8
BLACK
6
CONTINUOUS
10
113.667
20
-81.114
11
113.714
21
-81.0998
0
LINE
8
BLACK
6
CONTINUOUS
10
113.714
20
-81.0998
11
113.762
21
-81.095
0
LINE
8
BLACK
6
CONTINUOUS
10
113.762
20
-81.095
11
114.688
21
-81.095
0
LINE
8
BLACK
6
CONTINUOUS
10
114.688
20
-81.095
11
114.736
21
-81.0998
0
LINE
8
BLACK
6
CONTINUOUS
10
111.761
20
-81.0998
11
111.808
21
-81.114
0
LINE
8
BLACK
6
CONTINUOUS
10
111.808
20
-81.114
11
111.851
21
-81.1371
0
LINE
8
BLACK
6
CONTINUOUS
10
111.851
20
-81.1371
11
111.889
21
-81.1682
0
LINE
8
BLACK
6
CONTINUOUS
10
111.889
20
-81.1682
11
111.92
21
-81.2061
0
LINE
8
BLACK
6
CONTINUOUS
10
111.92
20
-81.2061
11
111.943
21
-81.2493
0
LINE
8
BLACK
6
CONTINUOUS
10
111.943
20
-81.2493
11
111.958
21
-81.2962
0
LINE
8
BLACK
6
CONTINUOUS
10
111.958
20
-81.2962
11
111.962
21
-81.345
0
LINE
8
BLACK
6
CONTINUOUS
10
111.962
20
-81.345
11
111.962
21
-82.595
0
LINE
8
BLACK
6
CONTINUOUS
10
111.962
20
-82.595
11
111.958
21
-82.6438
0
LINE
8
BLACK
6
CONTINUOUS
10
111.958
20
-82.6438
11
111.943
21
-82.6907
0
LINE
8
BLACK
6
CONTINUOUS
10
111.943
20
-82.6907
11
111.92
21
-82.7339
0
LINE
8
BLACK
6
CONTINUOUS
10
111.92
20
-82.7339
11
111.889
21
-82.7718
0
LINE
8
BLACK
6
CONTINUOUS
10
111.889
20
-82.7718
11
111.851
21
-82.8029
0
LINE
8
BLACK
6
CONTINUOUS
10
111.851
20
-82.8029
11
111.808
21
-82.826
0
LINE
8
BLACK
6
CONTINUOUS
10
111.808
20
-82.826
11
111.761
21
-82.8402
0
LINE
8
BLACK
6
CONTINUOUS
10
111.761
20
-82.8402
11
111.712
21
-82.845
0
LINE
8
BLACK
6
CONTINUOUS
10
111.712
20
-82.845
11
110.787
21
-82.845
0
LINE
8
BLACK
6
CONTINUOUS
10
110.787
20
-82.845
11
110.739
21
-82.8402
0
LINE
8
BLACK
6
CONTINUOUS
10
110.739
20
-82.8402
11
110.692
21
-82.826
0
LINE
8
BLACK
6
CONTINUOUS
10
110.692
20
-82.826
11
110.649
21
-82.8029
0
LINE
8
BLACK
6
CONTINUOUS
10
110.649
20
-82.8029
11
110.611
21
-82.7718
0
LINE
8
BLACK
6
CONTINUOUS
10
110.611
20
-82.7718
11
110.58
21
-82.7339
0
LINE
8
BLACK
6
CONTINUOUS
10
110.58
20
-82.7339
11
110.557
21
-82.6907
0
LINE
8
BLACK
6
CONTINUOUS
10
110.557
20
-82.6907
11
110.542
21
-82.6438
0
LINE
8
BLACK
6
CONTINUOUS
10
110.542
20
-82.6438
11
110.537
21
-82.595
0
LINE
8
BLACK
6
CONTINUOUS
10
110.537
20
-82.595
11
110.537
21
-81.345
0
LINE
8
BLACK
6
CONTINUOUS
10
110.537
20
-81.345
11
110.542
21
-81.2962
0
LINE
8
BLACK
6
CONTINUOUS
10
110.542
20
-81.2962
11
110.557
21
-81.2493
0
LINE
8
BLACK
6
CONTINUOUS
10
110.557
20
-81.2493
11
110.58
21
-81.2061
0
LINE
8
BLACK
6
CONTINUOUS
10
110.58
20
-81.2061
11
110.611
21
-81.1682
0
LINE
8
BLACK
6
CONTINUOUS
10
110.611
20
-81.1682
11
110.649
21
-81.1371
0
LINE
8
BLACK
6
CONTINUOUS
10
110.649
20
-81.1371
11
110.692
21
-81.114
0
LINE
8
BLACK
6
CONTINUOUS
10
110.692
20
-81.114
11
110.739
21
-81.0998
0
LINE
8
BLACK
6
CONTINUOUS
10
110.739
20
-81.0998
11
110.787
21
-81.095
0
LINE
8
BLACK
6
CONTINUOUS
10
110.787
20
-81.095
11
111.712
21
-81.095
0
LINE
8
BLACK
6
CONTINUOUS
10
111.712
20
-81.095
11
111.761
21
-81.0998
0
LINE
8
BLACK
6
CONTINUOUS
10
75.2193
20
-80.6526
11
75.2451
21
-80.6605
0
LINE
8
BLACK
6
CONTINUOUS
10
75.2451
20
-80.6605
11
75.2689
21
-80.6732
0
LINE
8
BLACK
6
CONTINUOUS
10
75.2689
20
-80.6732
11
75.2897
21
-80.6903
0
LINE
8
BLACK
6
CONTINUOUS
10
75.2897
20
-80.6903
11
75.3068
21
-80.7111
0
LINE
8
BLACK
6
CONTINUOUS
10
75.3068
20
-80.7111
11
75.3195
21
-80.7349
0
LINE
8
BLACK
6
CONTINUOUS
10
75.3195
20
-80.7349
11
75.3274
21
-80.7607
0
LINE
8
BLACK
6
CONTINUOUS
10
75.3274
20
-80.7607
11
75.33
21
-80.7875
0
LINE
8
BLACK
6
CONTINUOUS
10
75.33
20
-80.7875
11
75.33
21
-82.1125
0
LINE
8
BLACK
6
CONTINUOUS
10
75.33
20
-82.1125
11
75.3274
21
-82.1393
0
LINE
8
BLACK
6
CONTINUOUS
10
75.3274
20
-82.1393
11
75.3195
21
-82.1651
0
LINE
8
BLACK
6
CONTINUOUS
10
75.3195
20
-82.1651
11
75.3068
21
-82.1889
0
LINE
8
BLACK
6
CONTINUOUS
10
75.3068
20
-82.1889
11
75.2897
21
-82.2097
0
LINE
8
BLACK
6
CONTINUOUS
10
75.2897
20
-82.2097
11
75.2689
21
-82.2268
0
LINE
8
BLACK
6
CONTINUOUS
10
75.2689
20
-82.2268
11
75.2451
21
-82.2395
0
LINE
8
BLACK
6
CONTINUOUS
10
75.2451
20
-82.2395
11
75.2193
21
-82.2474
0
LINE
8
BLACK
6
CONTINUOUS
10
75.2193
20
-82.2474
11
75.1925
21
-82.25
0
LINE
8
BLACK
6
CONTINUOUS
10
75.1925
20
-82.25
11
74.9175
21
-82.25
0
LINE
8
BLACK
6
CONTINUOUS
10
74.9175
20
-82.25
11
74.8907
21
-82.2474
0
LINE
8
BLACK
6
CONTINUOUS
10
74.8907
20
-82.2474
11
74.8649
21
-82.2395
0
LINE
8
BLACK
6
CONTINUOUS
10
74.8649
20
-82.2395
11
74.8411
21
-82.2268
0
LINE
8
BLACK
6
CONTINUOUS
10
74.8411
20
-82.2268
11
74.8203
21
-82.2097
0
LINE
8
BLACK
6
CONTINUOUS
10
74.8203
20
-82.2097
11
74.8032
21
-82.1889
0
LINE
8
BLACK
6
CONTINUOUS
10
74.8032
20
-82.1889
11
74.7905
21
-82.1651
0
LINE
8
BLACK
6
CONTINUOUS
10
74.7905
20
-82.1651
11
74.7826
21
-82.1393
0
LINE
8
BLACK
6
CONTINUOUS
10
74.7826
20
-82.1393
11
74.78
21
-82.1125
0
LINE
8
BLACK
6
CONTINUOUS
10
74.78
20
-82.1125
11
74.78
21
-80.7875
0
LINE
8
BLACK
6
CONTINUOUS
10
74.78
20
-80.7875
11
74.7826
21
-80.7607
0
LINE
8
BLACK
6
CONTINUOUS
10
74.7826
20
-80.7607
11
74.7905
21
-80.7349
0
LINE
8
BLACK
6
CONTINUOUS
10
74.7905
20
-80.7349
11
74.8032
21
-80.7111
0
LINE
8
BLACK
6
CONTINUOUS
10
74.8032
20
-80.7111
11
74.8203
21
-80.6903
0
LINE
8
BLACK
6
CONTINUOUS
10
74.8203
20
-80.6903
11
74.8411
21
-80.6732
0
LINE
8
BLACK
6
CONTINUOUS
10
74.8411
20
-80.6732
11
74.8649
21
-80.6605
0
LINE
8
BLACK
6
CONTINUOUS
10
74.8649
20
-80.6605
11
74.8907
21
-80.6526
0
LINE
8
BLACK
6
CONTINUOUS
10
74.8907
20
-80.6526
11
74.9175
21
-80.65
0
LINE
8
BLACK
6
CONTINUOUS
10
74.9175
20
-80.65
11
75.1925
21
-80.65
0
LINE
8
BLACK
6
CONTINUOUS
10
75.1925
20
-80.65
11
75.2193
21
-80.6526
0
LINE
8
BLACK
6
CONTINUOUS
10
76.4893
20
-80.6526
11
76.5151
21
-80.6605
0
LINE
8
BLACK
6
CONTINUOUS
10
76.5151
20
-80.6605
11
76.5389
21
-80.6732
0
LINE
8
BLACK
6
CONTINUOUS
10
76.5389
20
-80.6732
11
76.5597
21
-80.6903
0
LINE
8
BLACK
6
CONTINUOUS
10
76.5597
20
-80.6903
11
76.5768
21
-80.7111
0
LINE
8
BLACK
6
CONTINUOUS
10
76.5768
20
-80.7111
11
76.5895
21
-80.7349
0
LINE
8
BLACK
6
CONTINUOUS
10
76.5895
20
-80.7349
11
76.5974
21
-80.7607
0
LINE
8
BLACK
6
CONTINUOUS
10
76.5974
20
-80.7607
11
76.6
21
-80.7875
0
LINE
8
BLACK
6
CONTINUOUS
10
76.6
20
-80.7875
11
76.6
21
-82.1125
0
LINE
8
BLACK
6
CONTINUOUS
10
76.6
20
-82.1125
11
76.5974
21
-82.1393
0
LINE
8
BLACK
6
CONTINUOUS
10
76.5974
20
-82.1393
11
76.5895
21
-82.1651
0
LINE
8
BLACK
6
CONTINUOUS
10
76.5895
20
-82.1651
11
76.5768
21
-82.1889
0
LINE
8
BLACK
6
CONTINUOUS
10
76.5768
20
-82.1889
11
76.5597
21
-82.2097
0
LINE
8
BLACK
6
CONTINUOUS
10
76.5597
20
-82.2097
11
76.5389
21
-82.2268
0
LINE
8
BLACK
6
CONTINUOUS
10
76.5389
20
-82.2268
11
76.5151
21
-82.2395
0
LINE
8
BLACK
6
CONTINUOUS
10
76.5151
20
-82.2395
11
76.4893
21
-82.2474
0
LINE
8
BLACK
6
CONTINUOUS
10
76.4893
20
-82.2474
11
76.4625
21
-82.25
0
LINE
8
BLACK
6
CONTINUOUS
10
76.4625
20
-82.25
11
76.1875
21
-82.25
0
LINE
8
BLACK
6
CONTINUOUS
10
76.1875
20
-82.25
11
76.1607
21
-82.2474
0
LINE
8
BLACK
6
CONTINUOUS
10
76.1607
20
-82.2474
11
76.1349
21
-82.2395
0
LINE
8
BLACK
6
CONTINUOUS
10
76.1349
20
-82.2395
11
76.1111
21
-82.2268
0
LINE
8
BLACK
6
CONTINUOUS
10
76.1111
20
-82.2268
11
76.0903
21
-82.2097
0
LINE
8
BLACK
6
CONTINUOUS
10
76.0903
20
-82.2097
11
76.0732
21
-82.1889
0
LINE
8
BLACK
6
CONTINUOUS
10
76.0732
20
-82.1889
11
76.0605
21
-82.1651
0
LINE
8
BLACK
6
CONTINUOUS
10
76.0605
20
-82.1651
11
76.0526
21
-82.1393
0
LINE
8
BLACK
6
CONTINUOUS
10
76.0526
20
-82.1393
11
76.05
21
-82.1125
0
LINE
8
BLACK
6
CONTINUOUS
10
76.05
20
-82.1125
11
76.05
21
-80.7875
0
LINE
8
BLACK
6
CONTINUOUS
10
76.05
20
-80.7875
11
76.0526
21
-80.7607
0
LINE
8
BLACK
6
CONTINUOUS
10
76.0526
20
-80.7607
11
76.0605
21
-80.7349
0
LINE
8
BLACK
6
CONTINUOUS
10
76.0605
20
-80.7349
11
76.0732
21
-80.7111
0
LINE
8
BLACK
6
CONTINUOUS
10
76.0732
20
-80.7111
11
76.0903
21
-80.6903
0
LINE
8
BLACK
6
CONTINUOUS
10
76.0903
20
-80.6903
11
76.1111
21
-80.6732
0
LINE
8
BLACK
6
CONTINUOUS
10
76.1111
20
-80.6732
11
76.1349
21
-80.6605
0
LINE
8
BLACK
6
CONTINUOUS
10
76.1349
20
-80.6605
11
76.1607
21
-80.6526
0
LINE
8
BLACK
6
CONTINUOUS
10
76.1607
20
-80.6526
11
76.1875
21
-80.65
0
LINE
8
BLACK
6
CONTINUOUS
10
76.1875
20
-80.65
11
76.4625
21
-80.65
0
LINE
8
BLACK
6
CONTINUOUS
10
76.4625
20
-80.65
11
76.4893
21
-80.6526
0
LINE
8
BLACK
6
CONTINUOUS
10
77.7593
20
-80.6526
11
77.7851
21
-80.6605
0
LINE
8
BLACK
6
CONTINUOUS
10
77.7851
20
-80.6605
11
77.8089
21
-80.6732
0
LINE
8
BLACK
6
CONTINUOUS
10
77.8089
20
-80.6732
11
77.8297
21
-80.6903
0
LINE
8
BLACK
6
CONTINUOUS
10
77.8297
20
-80.6903
11
77.8468
21
-80.7111
0
LINE
8
BLACK
6
CONTINUOUS
10
77.8468
20
-80.7111
11
77.8595
21
-80.7349
0
LINE
8
BLACK
6
CONTINUOUS
10
77.8595
20
-80.7349
11
77.8674
21
-80.7607
0
LINE
8
BLACK
6
CONTINUOUS
10
77.8674
20
-80.7607
11
77.87
21
-80.7875
0
LINE
8
BLACK
6
CONTINUOUS
10
77.87
20
-80.7875
11
77.87
21
-82.1125
0
LINE
8
BLACK
6
CONTINUOUS
10
77.87
20
-82.1125
11
77.8674
21
-82.1393
0
LINE
8
BLACK
6
CONTINUOUS
10
77.8674
20
-82.1393
11
77.8595
21
-82.1651
0
LINE
8
BLACK
6
CONTINUOUS
10
77.8595
20
-82.1651
11
77.8468
21
-82.1889
0
LINE
8
BLACK
6
CONTINUOUS
10
77.8468
20
-82.1889
11
77.8297
21
-82.2097
0
LINE
8
BLACK
6
CONTINUOUS
10
77.8297
20
-82.2097
11
77.8089
21
-82.2268
0
LINE
8
BLACK
6
CONTINUOUS
10
77.8089
20
-82.2268
11
77.7851
21
-82.2395
0
LINE
8
BLACK
6
CONTINUOUS
10
77.7851
20
-82.2395
11
77.7593
21
-82.2474
0
LINE
8
BLACK
6
CONTINUOUS
10
77.7593
20
-82.2474
11
77.7325
21
-82.25
0
LINE
8
BLACK
6
CONTINUOUS
10
77.7325
20
-82.25
11
77.4575
21
-82.25
0
LINE
8
BLACK
6
CONTINUOUS
10
77.4575
20
-82.25
11
77.4307
21
-82.2474
0
LINE
8
BLACK
6
CONTINUOUS
10
77.4307
20
-82.2474
11
77.4049
21
-82.2395
0
LINE
8
BLACK
6
CONTINUOUS
10
77.4049
20
-82.2395
11
77.3811
21
-82.2268
0
LINE
8
BLACK
6
CONTINUOUS
10
77.3811
20
-82.2268
11
77.3603
21
-82.2097
0
LINE
8
BLACK
6
CONTINUOUS
10
77.3603
20
-82.2097
11
77.3432
21
-82.1889
0
LINE
8
BLACK
6
CONTINUOUS
10
77.3432
20
-82.1889
11
77.3305
21
-82.1651
0
LINE
8
BLACK
6
CONTINUOUS
10
77.3305
20
-82.1651
11
77.3226
21
-82.1393
0
LINE
8
BLACK
6
CONTINUOUS
10
77.3226
20
-82.1393
11
77.32
21
-82.1125
0
LINE
8
BLACK
6
CONTINUOUS
10
77.32
20
-82.1125
11
77.32
21
-80.7875
0
LINE
8
BLACK
6
CONTINUOUS
10
77.32
20
-80.7875
11
77.3226
21
-80.7607
0
LINE
8
BLACK
6
CONTINUOUS
10
77.3226
20
-80.7607
11
77.3305
21
-80.7349
0
LINE
8
BLACK
6
CONTINUOUS
10
77.3305
20
-80.7349
11
77.3432
21
-80.7111
0
LINE
8
BLACK
6
CONTINUOUS
10
77.3432
20
-80.7111
11
77.3603
21
-80.6903
0
LINE
8
BLACK
6
CONTINUOUS
10
77.3603
20
-80.6903
11
77.3811
21
-80.6732
0
LINE
8
BLACK
6
CONTINUOUS
10
77.3811
20
-80.6732
11
77.4049
21
-80.6605
0
LINE
8
BLACK
6
CONTINUOUS
10
77.4049
20
-80.6605
11
77.4307
21
-80.6526
0
LINE
8
BLACK
6
CONTINUOUS
10
77.4307
20
-80.6526
11
77.4575
21
-80.65
0
LINE
8
BLACK
6
CONTINUOUS
10
77.4575
20
-80.65
11
77.7325
21
-80.65
0
LINE
8
BLACK
6
CONTINUOUS
10
77.7325
20
-80.65
11
77.7593
21
-80.6526
0
LINE
8
BLACK
6
CONTINUOUS
10
79.0293
20
-80.6526
11
79.0551
21
-80.6605
0
LINE
8
BLACK
6
CONTINUOUS
10
79.0551
20
-80.6605
11
79.0789
21
-80.6732
0
LINE
8
BLACK
6
CONTINUOUS
10
79.0789
20
-80.6732
11
79.0997
21
-80.6903
0
LINE
8
BLACK
6
CONTINUOUS
10
79.0997
20
-80.6903
11
79.1168
21
-80.7111
0
LINE
8
BLACK
6
CONTINUOUS
10
79.1168
20
-80.7111
11
79.1295
21
-80.7349
0
LINE
8
BLACK
6
CONTINUOUS
10
79.1295
20
-80.7349
11
79.1374
21
-80.7607
0
LINE
8
BLACK
6
CONTINUOUS
10
79.1374
20
-80.7607
11
79.14
21
-80.7875
0
LINE
8
BLACK
6
CONTINUOUS
10
79.14
20
-80.7875
11
79.14
21
-82.1125
0
LINE
8
BLACK
6
CONTINUOUS
10
79.14
20
-82.1125
11
79.1374
21
-82.1393
0
LINE
8
BLACK
6
CONTINUOUS
10
79.1374
20
-82.1393
11
79.1295
21
-82.1651
0
LINE
8
BLACK
6
CONTINUOUS
10
79.1295
20
-82.1651
11
79.1168
21
-82.1889
0
LINE
8
BLACK
6
CONTINUOUS
10
79.1168
20
-82.1889
11
79.0997
21
-82.2097
0
LINE
8
BLACK
6
CONTINUOUS
10
79.0997
20
-82.2097
11
79.0789
21
-82.2268
0
LINE
8
BLACK
6
CONTINUOUS
10
79.0789
20
-82.2268
11
79.0551
21
-82.2395
0
LINE
8
BLACK
6
CONTINUOUS
10
79.0551
20
-82.2395
11
79.0293
21
-82.2474
0
LINE
8
BLACK
6
CONTINUOUS
10
79.0293
20
-82.2474
11
79.0025
21
-82.25
0
LINE
8
BLACK
6
CONTINUOUS
10
79.0025
20
-82.25
11
78.7275
21
-82.25
0
LINE
8
BLACK
6
CONTINUOUS
10
78.7275
20
-82.25
11
78.7007
21
-82.2474
0
LINE
8
BLACK
6
CONTINUOUS
10
78.7007
20
-82.2474
11
78.6749
21
-82.2395
0
LINE
8
BLACK
6
CONTINUOUS
10
78.6749
20
-82.2395
11
78.6511
21
-82.2268
0
LINE
8
BLACK
6
CONTINUOUS
10
78.6511
20
-82.2268
11
78.6303
21
-82.2097
0
LINE
8
BLACK
6
CONTINUOUS
10
78.6303
20
-82.2097
11
78.6132
21
-82.1889
0
LINE
8
BLACK
6
CONTINUOUS
10
78.6132
20
-82.1889
11
78.6005
21
-82.1651
0
LINE
8
BLACK
6
CONTINUOUS
10
78.6005
20
-82.1651
11
78.5926
21
-82.1393
0
LINE
8
BLACK
6
CONTINUOUS
10
78.5926
20
-82.1393
11
78.59
21
-82.1125
0
LINE
8
BLACK
6
CONTINUOUS
10
78.59
20
-82.1125
11
78.59
21
-80.7875
0
LINE
8
BLACK
6
CONTINUOUS
10
78.59
20
-80.7875
11
78.5926
21
-80.7607
0
LINE
8
BLACK
6
CONTINUOUS
10
78.5926
20
-80.7607
11
78.6005
21
-80.7349
0
LINE
8
BLACK
6
CONTINUOUS
10
78.6005
20
-80.7349
11
78.6132
21
-80.7111
0
LINE
8
BLACK
6
CONTINUOUS
10
78.6132
20
-80.7111
11
78.6303
21
-80.6903
0
LINE
8
BLACK
6
CONTINUOUS
10
78.6303
20
-80.6903
11
78.6511
21
-80.6732
0
LINE
8
BLACK
6
CONTINUOUS
10
78.6511
20
-80.6732
11
78.6749
21
-80.6605
0
LINE
8
BLACK
6
CONTINUOUS
10
78.6749
20
-80.6605
11
78.7007
21
-80.6526
0
LINE
8
BLACK
6
CONTINUOUS
10
78.7007
20
-80.6526
11
78.7275
21
-80.65
0
LINE
8
BLACK
6
CONTINUOUS
10
78.7275
20
-80.65
11
79.0025
21
-80.65
0
LINE
8
BLACK
6
CONTINUOUS
10
79.0025
20
-80.65
11
79.0293
21
-80.6526
0
LINE
8
BLACK
6
CONTINUOUS
10
80.2993
20
-80.6526
11
80.3251
21
-80.6605
0
LINE
8
BLACK
6
CONTINUOUS
10
80.3251
20
-80.6605
11
80.3489
21
-80.6732
0
LINE
8
BLACK
6
CONTINUOUS
10
80.3489
20
-80.6732
11
80.3697
21
-80.6903
0
LINE
8
BLACK
6
CONTINUOUS
10
80.3697
20
-80.6903
11
80.3868
21
-80.7111
0
LINE
8
BLACK
6
CONTINUOUS
10
80.3868
20
-80.7111
11
80.3995
21
-80.7349
0
LINE
8
BLACK
6
CONTINUOUS
10
80.3995
20
-80.7349
11
80.4074
21
-80.7607
0
LINE
8
BLACK
6
CONTINUOUS
10
80.4074
20
-80.7607
11
80.41
21
-80.7875
0
LINE
8
BLACK
6
CONTINUOUS
10
80.41
20
-80.7875
11
80.41
21
-82.1125
0
LINE
8
BLACK
6
CONTINUOUS
10
80.41
20
-82.1125
11
80.4074
21
-82.1393
0
LINE
8
BLACK
6
CONTINUOUS
10
80.4074
20
-82.1393
11
80.3995
21
-82.1651
0
LINE
8
BLACK
6
CONTINUOUS
10
80.3995
20
-82.1651
11
80.3868
21
-82.1889
0
LINE
8
BLACK
6
CONTINUOUS
10
80.3868
20
-82.1889
11
80.3697
21
-82.2097
0
LINE
8
BLACK
6
CONTINUOUS
10
80.3697
20
-82.2097
11
80.3489
21
-82.2268
0
LINE
8
BLACK
6
CONTINUOUS
10
80.3489
20
-82.2268
11
80.3251
21
-82.2395
0
LINE
8
BLACK
6
CONTINUOUS
10
80.3251
20
-82.2395
11
80.2993
21
-82.2474
0
LINE
8
BLACK
6
CONTINUOUS
10
80.2993
20
-82.2474
11
80.2725
21
-82.25
0
LINE
8
BLACK
6
CONTINUOUS
10
80.2725
20
-82.25
11
79.9975
21
-82.25
0
LINE
8
BLACK
6
CONTINUOUS
10
79.9975
20
-82.25
11
79.9707
21
-82.2474
0
LINE
8
BLACK
6
CONTINUOUS
10
79.9707
20
-82.2474
11
79.9449
21
-82.2395
0
LINE
8
BLACK
6
CONTINUOUS
10
79.9449
20
-82.2395
11
79.9211
21
-82.2268
0
LINE
8
BLACK
6
CONTINUOUS
10
79.9211
20
-82.2268
11
79.9003
21
-82.2097
0
LINE
8
BLACK
6
CONTINUOUS
10
79.9003
20
-82.2097
11
79.8832
21
-82.1889
0
LINE
8
BLACK
6
CONTINUOUS
10
79.8832
20
-82.1889
11
79.8705
21
-82.1651
0
LINE
8
BLACK
6
CONTINUOUS
10
79.8705
20
-82.1651
11
79.8626
21
-82.1393
0
LINE
8
BLACK
6
CONTINUOUS
10
79.8626
20
-82.1393
11
79.86
21
-82.1125
0
LINE
8
BLACK
6
CONTINUOUS
10
79.86
20
-82.1125
11
79.86
21
-80.7875
0
LINE
8
BLACK
6
CONTINUOUS
10
79.86
20
-80.7875
11
79.8626
21
-80.7607
0
LINE
8
BLACK
6
CONTINUOUS
10
79.8626
20
-80.7607
11
79.8705
21
-80.7349
0
LINE
8
BLACK
6
CONTINUOUS
10
79.8705
20
-80.7349
11
79.8832
21
-80.7111
0
LINE
8
BLACK
6
CONTINUOUS
10
79.8832
20
-80.7111
11
79.9003
21
-80.6903
0
LINE
8
BLACK
6
CONTINUOUS
10
79.9003
20
-80.6903
11
79.9211
21
-80.6732
0
LINE
8
BLACK
6
CONTINUOUS
10
79.9211
20
-80.6732
11
79.9449
21
-80.6605
0
LINE
8
BLACK
6
CONTINUOUS
10
79.9449
20
-80.6605
11
79.9707
21
-80.6526
0
LINE
8
BLACK
6
CONTINUOUS
10
79.9707
20
-80.6526
11
79.9975
21
-80.65
0
LINE
8
BLACK
6
CONTINUOUS
10
79.9975
20
-80.65
11
80.2725
21
-80.65
0
LINE
8
BLACK
6
CONTINUOUS
10
80.2725
20
-80.65
11
80.2993
21
-80.6526
0
LINE
8
BLACK
6
CONTINUOUS
10
81.5693
20
-80.6526
11
81.5951
21
-80.6605
0
LINE
8
BLACK
6
CONTINUOUS
10
81.5951
20
-80.6605
11
81.6189
21
-80.6732
0
LINE
8
BLACK
6
CONTINUOUS
10
81.6189
20
-80.6732
11
81.6397
21
-80.6903
0
LINE
8
BLACK
6
CONTINUOUS
10
81.6397
20
-80.6903
11
81.6568
21
-80.7111
0
LINE
8
BLACK
6
CONTINUOUS
10
81.6568
20
-80.7111
11
81.6695
21
-80.7349
0
LINE
8
BLACK
6
CONTINUOUS
10
81.6695
20
-80.7349
11
81.6774
21
-80.7607
0
LINE
8
BLACK
6
CONTINUOUS
10
81.6774
20
-80.7607
11
81.68
21
-80.7875
0
LINE
8
BLACK
6
CONTINUOUS
10
81.68
20
-80.7875
11
81.68
21
-82.1125
0
LINE
8
BLACK
6
CONTINUOUS
10
81.68
20
-82.1125
11
81.6774
21
-82.1393
0
LINE
8
BLACK
6
CONTINUOUS
10
81.6774
20
-82.1393
11
81.6695
21
-82.1651
0
LINE
8
BLACK
6
CONTINUOUS
10
81.6695
20
-82.1651
11
81.6568
21
-82.1889
0
LINE
8
BLACK
6
CONTINUOUS
10
81.6568
20
-82.1889
11
81.6397
21
-82.2097
0
LINE
8
BLACK
6
CONTINUOUS
10
81.6397
20
-82.2097
11
81.6189
21
-82.2268
0
LINE
8
BLACK
6
CONTINUOUS
10
81.6189
20
-82.2268
11
81.5951
21
-82.2395
0
LINE
8
BLACK
6
CONTINUOUS
10
81.5951
20
-82.2395
11
81.5693
21
-82.2474
0
LINE
8
BLACK
6
CONTINUOUS
10
81.5693
20
-82.2474
11
81.5425
21
-82.25
0
LINE
8
BLACK
6
CONTINUOUS
10
81.5425
20
-82.25
11
81.2675
21
-82.25
0
LINE
8
BLACK
6
CONTINUOUS
10
81.2675
20
-82.25
11
81.2407
21
-82.2474
0
LINE
8
BLACK
6
CONTINUOUS
10
81.2407
20
-82.2474
11
81.2149
21
-82.2395
0
LINE
8
BLACK
6
CONTINUOUS
10
81.2149
20
-82.2395
11
81.1911
21
-82.2268
0
LINE
8
BLACK
6
CONTINUOUS
10
81.1911
20
-82.2268
11
81.1703
21
-82.2097
0
LINE
8
BLACK
6
CONTINUOUS
10
81.1703
20
-82.2097
11
81.1532
21
-82.1889
0
LINE
8
BLACK
6
CONTINUOUS
10
81.1532
20
-82.1889
11
81.1405
21
-82.1651
0
LINE
8
BLACK
6
CONTINUOUS
10
81.1405
20
-82.1651
11
81.1326
21
-82.1393
0
LINE
8
BLACK
6
CONTINUOUS
10
81.1326
20
-82.1393
11
81.13
21
-82.1125
0
LINE
8
BLACK
6
CONTINUOUS
10
81.13
20
-82.1125
11
81.13
21
-80.7875
0
LINE
8
BLACK
6
CONTINUOUS
10
81.13
20
-80.7875
11
81.1326
21
-80.7607
0
LINE
8
BLACK
6
CONTINUOUS
10
81.1326
20
-80.7607
11
81.1405
21
-80.7349
0
LINE
8
BLACK
6
CONTINUOUS
10
81.1405
20
-80.7349
11
81.1532
21
-80.7111
0
LINE
8
BLACK
6
CONTINUOUS
10
81.1532
20
-80.7111
11
81.1703
21
-80.6903
0
LINE
8
BLACK
6
CONTINUOUS
10
81.1703
20
-80.6903
11
81.1911
21
-80.6732
0
LINE
8
BLACK
6
CONTINUOUS
10
81.1911
20
-80.6732
11
81.2149
21
-80.6605
0
LINE
8
BLACK
6
CONTINUOUS
10
81.2149
20
-80.6605
11
81.2407
21
-80.6526
0
LINE
8
BLACK
6
CONTINUOUS
10
81.2407
20
-80.6526
11
81.2675
21
-80.65
0
LINE
8
BLACK
6
CONTINUOUS
10
81.2675
20
-80.65
11
81.5425
21
-80.65
0
LINE
8
BLACK
6
CONTINUOUS
10
81.5425
20
-80.65
11
81.5693
21
-80.6526
0
LINE
8
BLACK
6
CONTINUOUS
10
82.8393
20
-80.6526
11
82.8651
21
-80.6605
0
LINE
8
BLACK
6
CONTINUOUS
10
82.8651
20
-80.6605
11
82.8889
21
-80.6732
0
LINE
8
BLACK
6
CONTINUOUS
10
82.8889
20
-80.6732
11
82.9097
21
-80.6903
0
LINE
8
BLACK
6
CONTINUOUS
10
82.9097
20
-80.6903
11
82.9268
21
-80.7111
0
LINE
8
BLACK
6
CONTINUOUS
10
82.9268
20
-80.7111
11
82.9395
21
-80.7349
0
LINE
8
BLACK
6
CONTINUOUS
10
82.9395
20
-80.7349
11
82.9474
21
-80.7607
0
LINE
8
BLACK
6
CONTINUOUS
10
82.9474
20
-80.7607
11
82.95
21
-80.7875
0
LINE
8
BLACK
6
CONTINUOUS
10
82.95
20
-80.7875
11
82.95
21
-82.1125
0
LINE
8
BLACK
6
CONTINUOUS
10
82.95
20
-82.1125
11
82.9474
21
-82.1393
0
LINE
8
BLACK
6
CONTINUOUS
10
82.9474
20
-82.1393
11
82.9395
21
-82.1651
0
LINE
8
BLACK
6
CONTINUOUS
10
82.9395
20
-82.1651
11
82.9268
21
-82.1889
0
LINE
8
BLACK
6
CONTINUOUS
10
82.9268
20
-82.1889
11
82.9097
21
-82.2097
0
LINE
8
BLACK
6
CONTINUOUS
10
82.9097
20
-82.2097
11
82.8889
21
-82.2268
0
LINE
8
BLACK
6
CONTINUOUS
10
82.8889
20
-82.2268
11
82.8651
21
-82.2395
0
LINE
8
BLACK
6
CONTINUOUS
10
82.8651
20
-82.2395
11
82.8393
21
-82.2474
0
LINE
8
BLACK
6
CONTINUOUS
10
82.8393
20
-82.2474
11
82.8125
21
-82.25
0
LINE
8
BLACK
6
CONTINUOUS
10
82.8125
20
-82.25
11
82.5375
21
-82.25
0
LINE
8
BLACK
6
CONTINUOUS
10
82.5375
20
-82.25
11
82.5107
21
-82.2474
0
LINE
8
BLACK
6
CONTINUOUS
10
82.5107
20
-82.2474
11
82.4849
21
-82.2395
0
LINE
8
BLACK
6
CONTINUOUS
10
82.4849
20
-82.2395
11
82.4611
21
-82.2268
0
LINE
8
BLACK
6
CONTINUOUS
10
82.4611
20
-82.2268
11
82.4403
21
-82.2097
0
LINE
8
BLACK
6
CONTINUOUS
10
82.4403
20
-82.2097
11
82.4232
21
-82.1889
0
LINE
8
BLACK
6
CONTINUOUS
10
82.4232
20
-82.1889
11
82.4105
21
-82.1651
0
LINE
8
BLACK
6
CONTINUOUS
10
82.4105
20
-82.1651
11
82.4026
21
-82.1393
0
LINE
8
BLACK
6
CONTINUOUS
10
82.4026
20
-82.1393
11
82.4
21
-82.1125
0
LINE
8
BLACK
6
CONTINUOUS
10
82.4
20
-82.1125
11
82.4
21
-80.7875
0
LINE
8
BLACK
6
CONTINUOUS
10
82.4
20
-80.7875
11
82.4026
21
-80.7607
0
LINE
8
BLACK
6
CONTINUOUS
10
82.4026
20
-80.7607
11
82.4105
21
-80.7349
0
LINE
8
BLACK
6
CONTINUOUS
10
82.4105
20
-80.7349
11
82.4232
21
-80.7111
0
LINE
8
BLACK
6
CONTINUOUS
10
82.4232
20
-80.7111
11
82.4403
21
-80.6903
0
LINE
8
BLACK
6
CONTINUOUS
10
82.4403
20
-80.6903
11
82.4611
21
-80.6732
0
LINE
8
BLACK
6
CONTINUOUS
10
82.4611
20
-80.6732
11
82.4849
21
-80.6605
0
LINE
8
BLACK
6
CONTINUOUS
10
82.4849
20
-80.6605
11
82.5107
21
-80.6526
0
LINE
8
BLACK
6
CONTINUOUS
10
82.5107
20
-80.6526
11
82.5375
21
-80.65
0
LINE
8
BLACK
6
CONTINUOUS
10
82.5375
20
-80.65
11
82.8125
21
-80.65
0
LINE
8
BLACK
6
CONTINUOUS
10
82.8125
20
-80.65
11
82.8393
21
-80.6526
0
LINE
8
BLACK
6
CONTINUOUS
10
84.1093
20
-80.6526
11
84.1351
21
-80.6605
0
LINE
8
BLACK
6
CONTINUOUS
10
84.1351
20
-80.6605
11
84.1589
21
-80.6732
0
LINE
8
BLACK
6
CONTINUOUS
10
84.1589
20
-80.6732
11
84.1797
21
-80.6903
0
LINE
8
BLACK
6
CONTINUOUS
10
84.1797
20
-80.6903
11
84.1968
21
-80.7111
0
LINE
8
BLACK
6
CONTINUOUS
10
84.1968
20
-80.7111
11
84.2095
21
-80.7349
0
LINE
8
BLACK
6
CONTINUOUS
10
84.2095
20
-80.7349
11
84.2174
21
-80.7607
0
LINE
8
BLACK
6
CONTINUOUS
10
84.2174
20
-80.7607
11
84.22
21
-80.7875
0
LINE
8
BLACK
6
CONTINUOUS
10
84.22
20
-80.7875
11
84.22
21
-82.1125
0
LINE
8
BLACK
6
CONTINUOUS
10
84.22
20
-82.1125
11
84.2174
21
-82.1393
0
LINE
8
BLACK
6
CONTINUOUS
10
84.2174
20
-82.1393
11
84.2095
21
-82.1651
0
LINE
8
BLACK
6
CONTINUOUS
10
84.2095
20
-82.1651
11
84.1968
21
-82.1889
0
LINE
8
BLACK
6
CONTINUOUS
10
84.1968
20
-82.1889
11
84.1797
21
-82.2097
0
LINE
8
BLACK
6
CONTINUOUS
10
84.1797
20
-82.2097
11
84.1589
21
-82.2268
0
LINE
8
BLACK
6
CONTINUOUS
10
84.1589
20
-82.2268
11
84.1351
21
-82.2395
0
LINE
8
BLACK
6
CONTINUOUS
10
84.1351
20
-82.2395
11
84.1093
21
-82.2474
0
LINE
8
BLACK
6
CONTINUOUS
10
84.1093
20
-82.2474
11
84.0825
21
-82.25
0
LINE
8
BLACK
6
CONTINUOUS
10
84.0825
20
-82.25
11
83.8075
21
-82.25
0
LINE
8
BLACK
6
CONTINUOUS
10
83.8075
20
-82.25
11
83.7807
21
-82.2474
0
LINE
8
BLACK
6
CONTINUOUS
10
83.7807
20
-82.2474
11
83.7549
21
-82.2395
0
LINE
8
BLACK
6
CONTINUOUS
10
83.7549
20
-82.2395
11
83.7311
21
-82.2268
0
LINE
8
BLACK
6
CONTINUOUS
10
83.7311
20
-82.2268
11
83.7103
21
-82.2097
0
LINE
8
BLACK
6
CONTINUOUS
10
83.7103
20
-82.2097
11
83.6932
21
-82.1889
0
LINE
8
BLACK
6
CONTINUOUS
10
83.6932
20
-82.1889
11
83.6805
21
-82.1651
0
LINE
8
BLACK
6
CONTINUOUS
10
83.6805
20
-82.1651
11
83.6726
21
-82.1393
0
LINE
8
BLACK
6
CONTINUOUS
10
83.6726
20
-82.1393
11
83.67
21
-82.1125
0
LINE
8
BLACK
6
CONTINUOUS
10
83.67
20
-82.1125
11
83.67
21
-80.7875
0
LINE
8
BLACK
6
CONTINUOUS
10
83.67
20
-80.7875
11
83.6726
21
-80.7607
0
LINE
8
BLACK
6
CONTINUOUS
10
83.6726
20
-80.7607
11
83.6805
21
-80.7349
0
LINE
8
BLACK
6
CONTINUOUS
10
83.6805
20
-80.7349
11
83.6932
21
-80.7111
0
LINE
8
BLACK
6
CONTINUOUS
10
83.6932
20
-80.7111
11
83.7103
21
-80.6903
0
LINE
8
BLACK
6
CONTINUOUS
10
83.7103
20
-80.6903
11
83.7311
21
-80.6732
0
LINE
8
BLACK
6
CONTINUOUS
10
83.7311
20
-80.6732
11
83.7549
21
-80.6605
0
LINE
8
BLACK
6
CONTINUOUS
10
83.7549
20
-80.6605
11
83.7807
21
-80.6526
0
LINE
8
BLACK
6
CONTINUOUS
10
83.7807
20
-80.6526
11
83.8075
21
-80.65
0
LINE
8
BLACK
6
CONTINUOUS
10
83.8075
20
-80.65
11
84.0825
21
-80.65
0
LINE
8
BLACK
6
CONTINUOUS
10
84.0825
20
-80.65
11
84.1093
21
-80.6526
0
LINE
8
BLACK
6
CONTINUOUS
10
64.45
20
-79.65
11
61.45
21
-79.65
0
LINE
8
BLACK
6
CONTINUOUS
10
61.45
20
-79.65
11
61.45
21
-78.15
0
LINE
8
BLACK
6
CONTINUOUS
10
61.45
20
-78.15
11
64.45
21
-78.15
0
LINE
8
BLACK
6
CONTINUOUS
10
64.45
20
-78.15
11
64.45
21
-79.65
0
LINE
8
BLACK
6
CONTINUOUS
10
58.55
20
-79.65
11
55.55
21
-79.65
0
LINE
8
BLACK
6
CONTINUOUS
10
55.55
20
-79.65
11
55.55
21
-78.15
0
LINE
8
BLACK
6
CONTINUOUS
10
55.55
20
-78.15
11
58.55
21
-78.15
0
LINE
8
BLACK
6
CONTINUOUS
10
58.55
20
-78.15
11
58.55
21
-79.65
0
LINE
8
BLACK
6
CONTINUOUS
10
109.45
20
-79.65
11
106.45
21
-79.65
0
LINE
8
BLACK
6
CONTINUOUS
10
106.45
20
-79.65
11
106.45
21
-78.15
0
LINE
8
BLACK
6
CONTINUOUS
10
106.45
20
-78.15
11
109.45
21
-78.15
0
LINE
8
BLACK
6
CONTINUOUS
10
109.45
20
-78.15
11
109.45
21
-79.65
0
LINE
8
BLACK
6
CONTINUOUS
10
103.55
20
-79.65
11
100.55
21
-79.65
0
LINE
8
BLACK
6
CONTINUOUS
10
100.55
20
-79.65
11
100.55
21
-78.15
0
LINE
8
BLACK
6
CONTINUOUS
10
100.55
20
-78.15
11
103.55
21
-78.15
0
LINE
8
BLACK
6
CONTINUOUS
10
103.55
20
-78.15
11
103.55
21
-79.65
0
LINE
8
BLACK
6
CONTINUOUS
10
148.55
20
-79.65
11
145.55
21
-79.65
0
LINE
8
BLACK
6
CONTINUOUS
10
145.55
20
-79.65
11
145.55
21
-78.15
0
LINE
8
BLACK
6
CONTINUOUS
10
145.55
20
-78.15
11
148.55
21
-78.15
0
LINE
8
BLACK
6
CONTINUOUS
10
148.55
20
-78.15
11
148.55
21
-79.65
0
LINE
8
BLACK
6
CONTINUOUS
10
154.45
20
-79.65
11
151.45
21
-79.65
0
LINE
8
BLACK
6
CONTINUOUS
10
151.45
20
-79.65
11
151.45
21
-78.15
0
LINE
8
BLACK
6
CONTINUOUS
10
151.45
20
-78.15
11
154.45
21
-78.15
0
LINE
8
BLACK
6
CONTINUOUS
10
154.45
20
-78.15
11
154.45
21
-79.65
0
LINE
8
BLACK
6
CONTINUOUS
10
199.45
20
-79.65
11
196.45
21
-79.65
0
LINE
8
BLACK
6
CONTINUOUS
10
196.45
20
-79.65
11
196.45
21
-78.15
0
LINE
8
BLACK
6
CONTINUOUS
10
196.45
20
-78.15
11
199.45
21
-78.15
0
LINE
8
BLACK
6
CONTINUOUS
10
199.45
20
-78.15
11
199.45
21
-79.65
0
LINE
8
BLACK
6
CONTINUOUS
10
193.55
20
-79.65
11
190.55
21
-79.65
0
LINE
8
BLACK
6
CONTINUOUS
10
190.55
20
-79.65
11
190.55
21
-78.15
0
LINE
8
BLACK
6
CONTINUOUS
10
190.55
20
-78.15
11
193.55
21
-78.15
0
LINE
8
BLACK
6
CONTINUOUS
10
193.55
20
-78.15
11
193.55
21
-79.65
0
LINE
8
BLACK
6
CONTINUOUS
10
238.55
20
-79.65
11
235.55
21
-79.65
0
LINE
8
BLACK
6
CONTINUOUS
10
235.55
20
-79.65
11
235.55
21
-78.15
0
LINE
8
BLACK
6
CONTINUOUS
10
235.55
20
-78.15
11
238.55
21
-78.15
0
LINE
8
BLACK
6
CONTINUOUS
10
238.55
20
-78.15
11
238.55
21
-79.65
0
LINE
8
BLACK
6
CONTINUOUS
10
244.45
20
-79.65
11
241.45
21
-79.65
0
LINE
8
BLACK
6
CONTINUOUS
10
241.45
20
-79.65
11
241.45
21
-78.15
0
LINE
8
BLACK
6
CONTINUOUS
10
241.45
20
-78.15
11
244.45
21
-78.15
0
LINE
8
BLACK
6
CONTINUOUS
10
244.45
20
-78.15
11
244.45
21
-79.65
  0
ENDSEC
  0
EOF
