M48
FMAT,2
METRIC
T1C0.800
T2C1.000
T3C1.800
T4C3.200
%
G90
G05
T1
X22.15Y2.9
X24.69Y2.9
X27.23Y2.9
X29.77Y2.9
X32.31Y2.9
X34.85Y2.9
X45.3Y3.5
X184.69Y3.66
X192.31Y3.66
X4.69Y3.66
X12.31Y3.66
X94.69Y3.66
X102.31Y3.66
X139.69Y3.66
X147.31Y3.66
X49.69Y3.66
X57.31Y3.66
X45.28Y5.9
X22.1Y6.1
X16.9Y6.2
X24.7Y8.1
X37.7Y8.1
X40.7Y8.1
X43.0Y8.1
X57.31Y8.74
X49.69Y8.74
X147.31Y8.74
X139.69Y8.74
X102.31Y8.74
X94.69Y8.74
X12.31Y8.74
X4.69Y8.74
X192.31Y8.74
X184.69Y8.74
X45.3Y18.175
X43.0Y18.2
X40.7Y18.2
X18.8Y19.8
X47.3Y19.8
X17.03Y22.09
T2
X22.5Y22.0
X25.04Y22.0
X27.58Y22.0
X30.12Y22.0
X32.66Y22.0
X35.2Y22.0
T3
X3.0Y14.0
T4
X76.0Y12.0
X121.0Y12.0
X166.0Y12.0
G05
T0
M30
