%TF.GenerationSoftware,KiCad,Pcbnew,(5.1.6)-1*%
%TF.CreationDate,2025-02-24T10:59:57-05:00*%
%TF.ProjectId,row_board,726f775f-626f-4617-9264-2e6b69636164,rev?*%
%TF.SameCoordinates,PX311d3e0PY5f5e100*%
%TF.FileFunction,Copper,L1,Top*%
%TF.FilePolarity,Positive*%
%FSLAX46Y46*%
G04 Gerber Fmt 4.6, Leading zero omitted, Abs format (unit mm)*
G04 Created by KiCad (PCBNEW (5.1.6)-1) date 2025-02-24 10:59:57*
%MOMM*%
%LPD*%
G01*
G04 APERTURE LIST*
%TA.AperFunction,ComponentPad*%
%ADD10C,2.200000*%
%TD*%
%TA.AperFunction,WasherPad*%
%ADD11C,2.000000*%
%TD*%
%TA.AperFunction,SMDPad,CuDef*%
%ADD12R,3.000000X1.500000*%
%TD*%
%TA.AperFunction,ComponentPad*%
%ADD13O,3.470000X2.200000*%
%TD*%
%TA.AperFunction,ViaPad*%
%ADD14C,2.000000*%
%TD*%
%TA.AperFunction,Conductor*%
%ADD15C,0.800000*%
%TD*%
%TA.AperFunction,Conductor*%
%ADD16C,1.500000*%
%TD*%
%TA.AperFunction,Conductor*%
%ADD17C,1.000000*%
%TD*%
%TA.AperFunction,Conductor*%
%ADD18C,0.900000*%
%TD*%
%TA.AperFunction,Conductor*%
%ADD19C,1.200000*%
%TD*%
%TA.AperFunction,Conductor*%
%ADD20C,0.100000*%
%TD*%
G04 APERTURE END LIST*
D10*
%TO.P,J1,6*%
%TO.N,+5V*%
X35200000Y22000000D03*
%TO.P,J1,5*%
%TO.N,BTN_CLK*%
X32660000Y22000000D03*
%TO.P,J1,4*%
%TO.N,GND*%
X30120000Y22000000D03*
%TO.P,J1,3*%
%TO.N,BTN_DIN*%
X27580000Y22000000D03*
%TO.P,J1,2*%
%TO.N,LED_DIN*%
X25040000Y22000000D03*
%TO.P,J1,1*%
%TO.N,BTN_SENSE*%
X22500000Y22000000D03*
%TD*%
D11*
%TO.P,REF\u002A\u002A,*%
%TO.N,*%
X3000000Y14000000D03*
%TD*%
%TO.P,C6,2*%
%TO.N,GND*%
%TA.AperFunction,SMDPad,CuDef*%
G36*
G01*
X20975000Y15025000D02*
X22225000Y15025000D01*
G75*
G02*
X22475000Y14775000I0J-250000D01*
G01*
X22475000Y13850000D01*
G75*
G02*
X22225000Y13600000I-250000J0D01*
G01*
X20975000Y13600000D01*
G75*
G02*
X20725000Y13850000I0J250000D01*
G01*
X20725000Y14775000D01*
G75*
G02*
X20975000Y15025000I250000J0D01*
G01*
G37*
%TD.AperFunction*%
%TO.P,C6,1*%
%TO.N,+5V*%
%TA.AperFunction,SMDPad,CuDef*%
G36*
G01*
X20975000Y18000000D02*
X22225000Y18000000D01*
G75*
G02*
X22475000Y17750000I0J-250000D01*
G01*
X22475000Y16825000D01*
G75*
G02*
X22225000Y16575000I-250000J0D01*
G01*
X20975000Y16575000D01*
G75*
G02*
X20725000Y16825000I0J250000D01*
G01*
X20725000Y17750000D01*
G75*
G02*
X20975000Y18000000I250000J0D01*
G01*
G37*
%TD.AperFunction*%
%TD*%
D12*
%TO.P,D1,3*%
%TO.N,GND*%
X5550000Y21100000D03*
%TO.P,D1,4*%
%TO.N,LED_DIN*%
X5550000Y17900000D03*
%TO.P,D1,2*%
%TO.N,Net-(D1-Pad2)*%
X11450000Y21100000D03*
%TO.P,D1,1*%
%TO.N,+5V*%
X11450000Y17900000D03*
%TD*%
%TO.P,D2,1*%
%TO.N,+5V*%
X56450000Y17900000D03*
%TO.P,D2,2*%
%TO.N,Net-(D2-Pad2)*%
X56450000Y21100000D03*
%TO.P,D2,4*%
%TO.N,Net-(D1-Pad2)*%
X50550000Y17900000D03*
%TO.P,D2,3*%
%TO.N,GND*%
X50550000Y21100000D03*
%TD*%
%TO.P,D3,3*%
%TO.N,GND*%
X95550000Y21100000D03*
%TO.P,D3,4*%
%TO.N,Net-(D2-Pad2)*%
X95550000Y17900000D03*
%TO.P,D3,2*%
%TO.N,Net-(D3-Pad2)*%
X101450000Y21100000D03*
%TO.P,D3,1*%
%TO.N,+5V*%
X101450000Y17900000D03*
%TD*%
%TO.P,D4,1*%
%TO.N,+5V*%
X146450000Y17900000D03*
%TO.P,D4,2*%
%TO.N,Net-(D4-Pad2)*%
X146450000Y21100000D03*
%TO.P,D4,4*%
%TO.N,Net-(D3-Pad2)*%
X140550000Y17900000D03*
%TO.P,D4,3*%
%TO.N,GND*%
X140550000Y21100000D03*
%TD*%
%TO.P,D5,3*%
%TO.N,GND*%
X185550000Y21100000D03*
%TO.P,D5,4*%
%TO.N,Net-(D4-Pad2)*%
X185550000Y17900000D03*
%TO.P,D5,2*%
%TO.N,LED_DOUT*%
X191450000Y21100000D03*
%TO.P,D5,1*%
%TO.N,+5V*%
X191450000Y17900000D03*
%TD*%
%TO.P,C1,1*%
%TO.N,+5V*%
%TA.AperFunction,SMDPad,CuDef*%
G36*
G01*
X10700000Y15625000D02*
X10700000Y14375000D01*
G75*
G02*
X10450000Y14125000I-250000J0D01*
G01*
X9525000Y14125000D01*
G75*
G02*
X9275000Y14375000I0J250000D01*
G01*
X9275000Y15625000D01*
G75*
G02*
X9525000Y15875000I250000J0D01*
G01*
X10450000Y15875000D01*
G75*
G02*
X10700000Y15625000I0J-250000D01*
G01*
G37*
%TD.AperFunction*%
%TO.P,C1,2*%
%TO.N,GND*%
%TA.AperFunction,SMDPad,CuDef*%
G36*
G01*
X7725000Y15625000D02*
X7725000Y14375000D01*
G75*
G02*
X7475000Y14125000I-250000J0D01*
G01*
X6550000Y14125000D01*
G75*
G02*
X6300000Y14375000I0J250000D01*
G01*
X6300000Y15625000D01*
G75*
G02*
X6550000Y15875000I250000J0D01*
G01*
X7475000Y15875000D01*
G75*
G02*
X7725000Y15625000I0J-250000D01*
G01*
G37*
%TD.AperFunction*%
%TD*%
%TO.P,C2,2*%
%TO.N,GND*%
%TA.AperFunction,SMDPad,CuDef*%
G36*
G01*
X62012500Y17405000D02*
X62012500Y18655000D01*
G75*
G02*
X62262500Y18905000I250000J0D01*
G01*
X63187500Y18905000D01*
G75*
G02*
X63437500Y18655000I0J-250000D01*
G01*
X63437500Y17405000D01*
G75*
G02*
X63187500Y17155000I-250000J0D01*
G01*
X62262500Y17155000D01*
G75*
G02*
X62012500Y17405000I0J250000D01*
G01*
G37*
%TD.AperFunction*%
%TO.P,C2,1*%
%TO.N,+5V*%
%TA.AperFunction,SMDPad,CuDef*%
G36*
G01*
X59037500Y17405000D02*
X59037500Y18655000D01*
G75*
G02*
X59287500Y18905000I250000J0D01*
G01*
X60212500Y18905000D01*
G75*
G02*
X60462500Y18655000I0J-250000D01*
G01*
X60462500Y17405000D01*
G75*
G02*
X60212500Y17155000I-250000J0D01*
G01*
X59287500Y17155000D01*
G75*
G02*
X59037500Y17405000I0J250000D01*
G01*
G37*
%TD.AperFunction*%
%TD*%
%TO.P,C3,2*%
%TO.N,GND*%
%TA.AperFunction,SMDPad,CuDef*%
G36*
G01*
X97725000Y15625000D02*
X97725000Y14375000D01*
G75*
G02*
X97475000Y14125000I-250000J0D01*
G01*
X96550000Y14125000D01*
G75*
G02*
X96300000Y14375000I0J250000D01*
G01*
X96300000Y15625000D01*
G75*
G02*
X96550000Y15875000I250000J0D01*
G01*
X97475000Y15875000D01*
G75*
G02*
X97725000Y15625000I0J-250000D01*
G01*
G37*
%TD.AperFunction*%
%TO.P,C3,1*%
%TO.N,+5V*%
%TA.AperFunction,SMDPad,CuDef*%
G36*
G01*
X100700000Y15625000D02*
X100700000Y14375000D01*
G75*
G02*
X100450000Y14125000I-250000J0D01*
G01*
X99525000Y14125000D01*
G75*
G02*
X99275000Y14375000I0J250000D01*
G01*
X99275000Y15625000D01*
G75*
G02*
X99525000Y15875000I250000J0D01*
G01*
X100450000Y15875000D01*
G75*
G02*
X100700000Y15625000I0J-250000D01*
G01*
G37*
%TD.AperFunction*%
%TD*%
%TO.P,C4,2*%
%TO.N,GND*%
%TA.AperFunction,SMDPad,CuDef*%
G36*
G01*
X142725000Y15625000D02*
X142725000Y14375000D01*
G75*
G02*
X142475000Y14125000I-250000J0D01*
G01*
X141550000Y14125000D01*
G75*
G02*
X141300000Y14375000I0J250000D01*
G01*
X141300000Y15625000D01*
G75*
G02*
X141550000Y15875000I250000J0D01*
G01*
X142475000Y15875000D01*
G75*
G02*
X142725000Y15625000I0J-250000D01*
G01*
G37*
%TD.AperFunction*%
%TO.P,C4,1*%
%TO.N,+5V*%
%TA.AperFunction,SMDPad,CuDef*%
G36*
G01*
X145700000Y15625000D02*
X145700000Y14375000D01*
G75*
G02*
X145450000Y14125000I-250000J0D01*
G01*
X144525000Y14125000D01*
G75*
G02*
X144275000Y14375000I0J250000D01*
G01*
X144275000Y15625000D01*
G75*
G02*
X144525000Y15875000I250000J0D01*
G01*
X145450000Y15875000D01*
G75*
G02*
X145700000Y15625000I0J-250000D01*
G01*
G37*
%TD.AperFunction*%
%TD*%
%TO.P,C5,1*%
%TO.N,+5V*%
%TA.AperFunction,SMDPad,CuDef*%
G36*
G01*
X190700000Y15625000D02*
X190700000Y14375000D01*
G75*
G02*
X190450000Y14125000I-250000J0D01*
G01*
X189525000Y14125000D01*
G75*
G02*
X189275000Y14375000I0J250000D01*
G01*
X189275000Y15625000D01*
G75*
G02*
X189525000Y15875000I250000J0D01*
G01*
X190450000Y15875000D01*
G75*
G02*
X190700000Y15625000I0J-250000D01*
G01*
G37*
%TD.AperFunction*%
%TO.P,C5,2*%
%TO.N,GND*%
%TA.AperFunction,SMDPad,CuDef*%
G36*
G01*
X187725000Y15625000D02*
X187725000Y14375000D01*
G75*
G02*
X187475000Y14125000I-250000J0D01*
G01*
X186550000Y14125000D01*
G75*
G02*
X186300000Y14375000I0J250000D01*
G01*
X186300000Y15625000D01*
G75*
G02*
X186550000Y15875000I250000J0D01*
G01*
X187475000Y15875000D01*
G75*
G02*
X187725000Y15625000I0J-250000D01*
G01*
G37*
%TD.AperFunction*%
%TD*%
D13*
%TO.P,SW1,2*%
%TO.N,BTN_SENSE*%
X12960000Y3660000D03*
%TO.P,SW1,1*%
%TO.N,Net-(SW1-Pad1)*%
X12960000Y8740000D03*
%TO.P,SW1,2*%
%TO.N,BTN_SENSE*%
X4040000Y3660000D03*
%TO.P,SW1,1*%
%TO.N,Net-(SW1-Pad1)*%
X4040000Y8740000D03*
%TD*%
%TO.P,SW2,1*%
%TO.N,Net-(SW2-Pad1)*%
X49040000Y8740000D03*
%TO.P,SW2,2*%
%TO.N,BTN_SENSE*%
X49040000Y3660000D03*
%TO.P,SW2,1*%
%TO.N,Net-(SW2-Pad1)*%
X57960000Y8740000D03*
%TO.P,SW2,2*%
%TO.N,BTN_SENSE*%
X57960000Y3660000D03*
%TD*%
%TO.P,SW3,2*%
%TO.N,BTN_SENSE*%
X102960000Y3660000D03*
%TO.P,SW3,1*%
%TO.N,Net-(SW3-Pad1)*%
X102960000Y8740000D03*
%TO.P,SW3,2*%
%TO.N,BTN_SENSE*%
X94040000Y3660000D03*
%TO.P,SW3,1*%
%TO.N,Net-(SW3-Pad1)*%
X94040000Y8740000D03*
%TD*%
%TO.P,SW4,1*%
%TO.N,Net-(SW4-Pad1)*%
X139040000Y8740000D03*
%TO.P,SW4,2*%
%TO.N,BTN_SENSE*%
X139040000Y3660000D03*
%TO.P,SW4,1*%
%TO.N,Net-(SW4-Pad1)*%
X147960000Y8740000D03*
%TO.P,SW4,2*%
%TO.N,BTN_SENSE*%
X147960000Y3660000D03*
%TD*%
%TO.P,U1,1*%
%TO.N,Net-(SW1-Pad1)*%
%TA.AperFunction,SMDPad,CuDef*%
G36*
G01*
X23692500Y11250000D02*
X23417500Y11250000D01*
G75*
G02*
X23280000Y11387500I0J137500D01*
G01*
X23280000Y12712500D01*
G75*
G02*
X23417500Y12850000I137500J0D01*
G01*
X23692500Y12850000D01*
G75*
G02*
X23830000Y12712500I0J-137500D01*
G01*
X23830000Y11387500D01*
G75*
G02*
X23692500Y11250000I-137500J0D01*
G01*
G37*
%TD.AperFunction*%
%TO.P,U1,2*%
%TO.N,Net-(SW2-Pad1)*%
%TA.AperFunction,SMDPad,CuDef*%
G36*
G01*
X24962500Y11250000D02*
X24687500Y11250000D01*
G75*
G02*
X24550000Y11387500I0J137500D01*
G01*
X24550000Y12712500D01*
G75*
G02*
X24687500Y12850000I137500J0D01*
G01*
X24962500Y12850000D01*
G75*
G02*
X25100000Y12712500I0J-137500D01*
G01*
X25100000Y11387500D01*
G75*
G02*
X24962500Y11250000I-137500J0D01*
G01*
G37*
%TD.AperFunction*%
%TO.P,U1,3*%
%TO.N,Net-(SW3-Pad1)*%
%TA.AperFunction,SMDPad,CuDef*%
G36*
G01*
X26232500Y11250000D02*
X25957500Y11250000D01*
G75*
G02*
X25820000Y11387500I0J137500D01*
G01*
X25820000Y12712500D01*
G75*
G02*
X25957500Y12850000I137500J0D01*
G01*
X26232500Y12850000D01*
G75*
G02*
X26370000Y12712500I0J-137500D01*
G01*
X26370000Y11387500D01*
G75*
G02*
X26232500Y11250000I-137500J0D01*
G01*
G37*
%TD.AperFunction*%
%TO.P,U1,4*%
%TO.N,Net-(SW4-Pad1)*%
%TA.AperFunction,SMDPad,CuDef*%
G36*
G01*
X27502500Y11250000D02*
X27227500Y11250000D01*
G75*
G02*
X27090000Y11387500I0J137500D01*
G01*
X27090000Y12712500D01*
G75*
G02*
X27227500Y12850000I137500J0D01*
G01*
X27502500Y12850000D01*
G75*
G02*
X27640000Y12712500I0J-137500D01*
G01*
X27640000Y11387500D01*
G75*
G02*
X27502500Y11250000I-137500J0D01*
G01*
G37*
%TD.AperFunction*%
%TO.P,U1,5*%
%TO.N,Net-(SW5-Pad1)*%
%TA.AperFunction,SMDPad,CuDef*%
G36*
G01*
X28772500Y11250000D02*
X28497500Y11250000D01*
G75*
G02*
X28360000Y11387500I0J137500D01*
G01*
X28360000Y12712500D01*
G75*
G02*
X28497500Y12850000I137500J0D01*
G01*
X28772500Y12850000D01*
G75*
G02*
X28910000Y12712500I0J-137500D01*
G01*
X28910000Y11387500D01*
G75*
G02*
X28772500Y11250000I-137500J0D01*
G01*
G37*
%TD.AperFunction*%
%TO.P,U1,6*%
%TO.N,Net-(U1-Pad6)*%
%TA.AperFunction,SMDPad,CuDef*%
G36*
G01*
X30042500Y11250000D02*
X29767500Y11250000D01*
G75*
G02*
X29630000Y11387500I0J137500D01*
G01*
X29630000Y12712500D01*
G75*
G02*
X29767500Y12850000I137500J0D01*
G01*
X30042500Y12850000D01*
G75*
G02*
X30180000Y12712500I0J-137500D01*
G01*
X30180000Y11387500D01*
G75*
G02*
X30042500Y11250000I-137500J0D01*
G01*
G37*
%TD.AperFunction*%
%TO.P,U1,7*%
%TO.N,Net-(U1-Pad7)*%
%TA.AperFunction,SMDPad,CuDef*%
G36*
G01*
X31312500Y11250000D02*
X31037500Y11250000D01*
G75*
G02*
X30900000Y11387500I0J137500D01*
G01*
X30900000Y12712500D01*
G75*
G02*
X31037500Y12850000I137500J0D01*
G01*
X31312500Y12850000D01*
G75*
G02*
X31450000Y12712500I0J-137500D01*
G01*
X31450000Y11387500D01*
G75*
G02*
X31312500Y11250000I-137500J0D01*
G01*
G37*
%TD.AperFunction*%
%TO.P,U1,8*%
%TO.N,GND*%
%TA.AperFunction,SMDPad,CuDef*%
G36*
G01*
X32582500Y11250000D02*
X32307500Y11250000D01*
G75*
G02*
X32170000Y11387500I0J137500D01*
G01*
X32170000Y12712500D01*
G75*
G02*
X32307500Y12850000I137500J0D01*
G01*
X32582500Y12850000D01*
G75*
G02*
X32720000Y12712500I0J-137500D01*
G01*
X32720000Y11387500D01*
G75*
G02*
X32582500Y11250000I-137500J0D01*
G01*
G37*
%TD.AperFunction*%
%TO.P,U1,9*%
%TO.N,BTN_DOUT*%
%TA.AperFunction,SMDPad,CuDef*%
G36*
G01*
X32582500Y17750000D02*
X32307500Y17750000D01*
G75*
G02*
X32170000Y17887500I0J137500D01*
G01*
X32170000Y19212500D01*
G75*
G02*
X32307500Y19350000I137500J0D01*
G01*
X32582500Y19350000D01*
G75*
G02*
X32720000Y19212500I0J-137500D01*
G01*
X32720000Y17887500D01*
G75*
G02*
X32582500Y17750000I-137500J0D01*
G01*
G37*
%TD.AperFunction*%
%TO.P,U1,10*%
%TO.N,+5V*%
%TA.AperFunction,SMDPad,CuDef*%
G36*
G01*
X31312500Y17750000D02*
X31037500Y17750000D01*
G75*
G02*
X30900000Y17887500I0J137500D01*
G01*
X30900000Y19212500D01*
G75*
G02*
X31037500Y19350000I137500J0D01*
G01*
X31312500Y19350000D01*
G75*
G02*
X31450000Y19212500I0J-137500D01*
G01*
X31450000Y17887500D01*
G75*
G02*
X31312500Y17750000I-137500J0D01*
G01*
G37*
%TD.AperFunction*%
%TO.P,U1,11*%
%TO.N,BTN_CLK*%
%TA.AperFunction,SMDPad,CuDef*%
G36*
G01*
X30042500Y17750000D02*
X29767500Y17750000D01*
G75*
G02*
X29630000Y17887500I0J137500D01*
G01*
X29630000Y19212500D01*
G75*
G02*
X29767500Y19350000I137500J0D01*
G01*
X30042500Y19350000D01*
G75*
G02*
X30180000Y19212500I0J-137500D01*
G01*
X30180000Y17887500D01*
G75*
G02*
X30042500Y17750000I-137500J0D01*
G01*
G37*
%TD.AperFunction*%
%TO.P,U1,12*%
%TA.AperFunction,SMDPad,CuDef*%
G36*
G01*
X28772500Y17750000D02*
X28497500Y17750000D01*
G75*
G02*
X28360000Y17887500I0J137500D01*
G01*
X28360000Y19212500D01*
G75*
G02*
X28497500Y19350000I137500J0D01*
G01*
X28772500Y19350000D01*
G75*
G02*
X28910000Y19212500I0J-137500D01*
G01*
X28910000Y17887500D01*
G75*
G02*
X28772500Y17750000I-137500J0D01*
G01*
G37*
%TD.AperFunction*%
%TO.P,U1,13*%
%TO.N,GND*%
%TA.AperFunction,SMDPad,CuDef*%
G36*
G01*
X27502500Y17750000D02*
X27227500Y17750000D01*
G75*
G02*
X27090000Y17887500I0J137500D01*
G01*
X27090000Y19212500D01*
G75*
G02*
X27227500Y19350000I137500J0D01*
G01*
X27502500Y19350000D01*
G75*
G02*
X27640000Y19212500I0J-137500D01*
G01*
X27640000Y17887500D01*
G75*
G02*
X27502500Y17750000I-137500J0D01*
G01*
G37*
%TD.AperFunction*%
%TO.P,U1,14*%
%TO.N,BTN_DIN*%
%TA.AperFunction,SMDPad,CuDef*%
G36*
G01*
X26232500Y17750000D02*
X25957500Y17750000D01*
G75*
G02*
X25820000Y17887500I0J137500D01*
G01*
X25820000Y19212500D01*
G75*
G02*
X25957500Y19350000I137500J0D01*
G01*
X26232500Y19350000D01*
G75*
G02*
X26370000Y19212500I0J-137500D01*
G01*
X26370000Y17887500D01*
G75*
G02*
X26232500Y17750000I-137500J0D01*
G01*
G37*
%TD.AperFunction*%
%TO.P,U1,15*%
%TO.N,Net-(U1-Pad15)*%
%TA.AperFunction,SMDPad,CuDef*%
G36*
G01*
X24962500Y17750000D02*
X24687500Y17750000D01*
G75*
G02*
X24550000Y17887500I0J137500D01*
G01*
X24550000Y19212500D01*
G75*
G02*
X24687500Y19350000I137500J0D01*
G01*
X24962500Y19350000D01*
G75*
G02*
X25100000Y19212500I0J-137500D01*
G01*
X25100000Y17887500D01*
G75*
G02*
X24962500Y17750000I-137500J0D01*
G01*
G37*
%TD.AperFunction*%
%TO.P,U1,16*%
%TO.N,+5V*%
%TA.AperFunction,SMDPad,CuDef*%
G36*
G01*
X23692500Y17750000D02*
X23417500Y17750000D01*
G75*
G02*
X23280000Y17887500I0J137500D01*
G01*
X23280000Y19212500D01*
G75*
G02*
X23417500Y19350000I137500J0D01*
G01*
X23692500Y19350000D01*
G75*
G02*
X23830000Y19212500I0J-137500D01*
G01*
X23830000Y17887500D01*
G75*
G02*
X23692500Y17750000I-137500J0D01*
G01*
G37*
%TD.AperFunction*%
%TD*%
%TO.P,SW5,1*%
%TO.N,Net-(SW5-Pad1)*%
X184040000Y8740000D03*
%TO.P,SW5,2*%
%TO.N,BTN_SENSE*%
X184040000Y3660000D03*
%TO.P,SW5,1*%
%TO.N,Net-(SW5-Pad1)*%
X192960000Y8740000D03*
%TO.P,SW5,2*%
%TO.N,BTN_SENSE*%
X192960000Y3660000D03*
%TD*%
D10*
%TO.P,J2,1*%
%TO.N,+5V*%
X34850000Y2900000D03*
%TO.P,J2,2*%
%TO.N,BTN_CLK*%
X32310000Y2900000D03*
%TO.P,J2,3*%
%TO.N,GND*%
X29770000Y2900000D03*
%TO.P,J2,4*%
%TO.N,BTN_DOUT*%
X27230000Y2900000D03*
%TO.P,J2,5*%
%TO.N,LED_DOUT*%
X24690000Y2900000D03*
%TO.P,J2,6*%
%TO.N,BTN_SENSE*%
X22150000Y2900000D03*
%TD*%
D14*
%TO.N,+5V*%
X45280000Y5900000D03*
X45300000Y18175010D03*
%TO.N,Net-(D1-Pad2)*%
X18800000Y19800000D03*
X47300000Y19800000D03*
%TO.N,LED_DOUT*%
X37700000Y8100000D03*
X24700000Y8100000D03*
%TO.N,BTN_CLK*%
X43000000Y8100000D03*
X43000000Y18200000D03*
%TO.N,BTN_SENSE*%
X16900000Y6200000D03*
X45300000Y3500000D03*
X22100000Y6100000D03*
X17030000Y22090000D03*
%TO.N,BTN_DOUT*%
X40700000Y8100000D03*
X40700000Y18200000D03*
%TD*%
D15*
%TO.N,+5V*%
X23500000Y17500000D02*
X23500000Y18400000D01*
X23500000Y17500000D02*
X23500000Y19030000D01*
X31140001Y16099999D02*
X31140001Y19130001D01*
D16*
X35400000Y22000000D02*
X35550000Y21850000D01*
X35200000Y22000000D02*
X35400000Y22000000D01*
X35200000Y22000000D02*
X35200000Y21810000D01*
D15*
X192549991Y17850009D02*
X192500000Y17900000D01*
D17*
X192300000Y17900000D02*
X192449991Y17750008D01*
X191450000Y17900000D02*
X192300000Y17900000D01*
X192449991Y17750008D02*
X192449991Y16728539D01*
X192449991Y16728539D02*
X192449619Y16728539D01*
X190721080Y15000000D02*
X191060540Y15339460D01*
X189987500Y15000000D02*
X190721080Y15000000D01*
X192449619Y16728539D02*
X191060540Y15339460D01*
X181418490Y11800000D02*
X187521080Y11800000D01*
X179593501Y13624990D02*
X181418490Y11800000D01*
X171613501Y13624990D02*
X179593501Y13624990D01*
X167938481Y17300010D02*
X171613501Y13624990D01*
X164061520Y17300010D02*
X167938481Y17300010D01*
X160086500Y13324990D02*
X164061520Y17300010D01*
X187521080Y11800000D02*
X191060540Y15339460D01*
X145275010Y13324990D02*
X145275010Y16375010D01*
X145275010Y13324990D02*
X160086500Y13324990D01*
X137375010Y13324990D02*
X145275010Y13324990D01*
X145275010Y16375010D02*
X146800000Y17900000D01*
X137375010Y13324990D02*
X126913500Y13324990D01*
X126913500Y13324990D02*
X123138481Y17100010D01*
X123138481Y17100010D02*
X119400000Y17100010D01*
X99987500Y13612480D02*
X100274990Y13324990D01*
X99987500Y15000000D02*
X99987500Y13612480D01*
X119400000Y17100010D02*
X118629990Y17100010D01*
X118501520Y17100010D02*
X118629990Y17100010D01*
X101140000Y13310000D02*
X114711510Y13310000D01*
X114711510Y13310000D02*
X118501520Y17100010D01*
X100274990Y13324990D02*
X101125010Y13324990D01*
X101125010Y13324990D02*
X101140000Y13310000D01*
X99987500Y15000000D02*
X99987500Y15957500D01*
X99987500Y15957500D02*
X101890000Y17860000D01*
X56450000Y17900000D02*
X55910000Y17900000D01*
X56450000Y17900000D02*
X56900000Y17900000D01*
X87165010Y13324990D02*
X100274990Y13324990D01*
X73066500Y16354990D02*
X73851520Y17140010D01*
X77958481Y17140010D02*
X81773500Y13324990D01*
X73851520Y17140010D02*
X77958481Y17140010D01*
X81773500Y13324990D02*
X87165010Y13324990D01*
X73066500Y16354990D02*
X73046499Y16354990D01*
X63622432Y16354990D02*
X73046499Y16354990D01*
X63617441Y16349999D02*
X63622432Y16354990D01*
D15*
X23500000Y16700000D02*
X23500000Y17500000D01*
X23400011Y16799989D02*
X23500000Y16700000D01*
D17*
X45300000Y18175010D02*
X45300000Y16400000D01*
X46625011Y16349999D02*
X45249999Y16349999D01*
X45300000Y16400000D02*
X45249999Y16349999D01*
X56930000Y17830000D02*
X59730000Y17830000D01*
X56450000Y17900000D02*
X56450000Y16850000D01*
X56450000Y16850000D02*
X56950001Y16349999D01*
X46625011Y16349999D02*
X56950001Y16349999D01*
X56950001Y16349999D02*
X63617441Y16349999D01*
D16*
X34900000Y2900000D02*
X35249990Y3249990D01*
X34850000Y2900000D02*
X34900000Y2900000D01*
X43356047Y5900000D02*
X45280000Y5900000D01*
X40706037Y3249990D02*
X43356047Y5900000D01*
X35249990Y3249990D02*
X40706037Y3249990D01*
D17*
X24600000Y15600000D02*
X23500000Y16700000D01*
X23400011Y16799989D02*
X23130011Y16529989D01*
X13470011Y16529989D02*
X12200000Y17800000D01*
X21600000Y16700000D02*
X21429989Y16529989D01*
X21600000Y17287500D02*
X21600000Y16700000D01*
X23130011Y16529989D02*
X21429989Y16529989D01*
X21429989Y16529989D02*
X13470011Y16529989D01*
X11940022Y15000000D02*
X13470011Y16529989D01*
X9987500Y15000000D02*
X11940022Y15000000D01*
D16*
X35200000Y21600000D02*
X35249989Y21550011D01*
X35200000Y22000000D02*
X35200000Y21600000D01*
X45300000Y18934002D02*
X45300000Y18175010D01*
X42683991Y21550011D02*
X45300000Y18934002D01*
X35249989Y21550011D02*
X42683991Y21550011D01*
D17*
X33000000Y15600000D02*
X24600000Y15600000D01*
X33700000Y15600000D02*
X33000000Y15600000D01*
X34000038Y15600000D02*
X33000000Y15600000D01*
X41550001Y16349999D02*
X40849999Y16349999D01*
X45249999Y16349999D02*
X41550001Y16349999D01*
X39949999Y16349999D02*
X39885999Y16349999D01*
X38836017Y17399981D02*
X35738489Y17399981D01*
X34738500Y16338462D02*
X34000038Y15600000D01*
X34738500Y16399992D02*
X34738500Y16338462D01*
X35738489Y17399981D02*
X34738500Y16399992D01*
X39885999Y16349999D02*
X40550001Y16349999D01*
X38836017Y17399981D02*
X39885999Y16349999D01*
X41550001Y16349999D02*
X40550001Y16349999D01*
X40550001Y16349999D02*
X39949999Y16349999D01*
D15*
%TO.N,GND*%
X27365000Y18550000D02*
X27365000Y19075000D01*
X27365000Y19075000D02*
X27360000Y19070000D01*
X27360000Y19070000D02*
X27360000Y18030000D01*
X27365000Y19420649D02*
X28244351Y20300000D01*
X27365000Y18550000D02*
X27365000Y19420649D01*
X28244351Y20300000D02*
X28700000Y20300000D01*
X28700000Y20300000D02*
X30000000Y21600000D01*
D17*
%TO.N,Net-(D1-Pad2)*%
X15008481Y20800010D02*
X12110000Y20800010D01*
X16228491Y19580000D02*
X15008481Y20800010D01*
X18760000Y19580000D02*
X16728491Y19580000D01*
X18760000Y19580000D02*
X16228491Y19580000D01*
X49200000Y17900000D02*
X47300000Y19800000D01*
X50550000Y17900000D02*
X49200000Y17900000D01*
%TO.N,Net-(D2-Pad2)*%
X63500000Y21080000D02*
X56560000Y21080000D01*
X72528019Y17655000D02*
X66925000Y17655000D01*
X73313039Y18440020D02*
X72528019Y17655000D01*
X78496962Y18440020D02*
X73313039Y18440020D01*
X82311981Y14625000D02*
X78496962Y18440020D01*
X92115000Y14625000D02*
X82311981Y14625000D01*
X95390000Y17900000D02*
X92115000Y14625000D01*
X66925000Y17655000D02*
X63500000Y21080000D01*
X95550000Y17900000D02*
X95390000Y17900000D01*
%TO.N,Net-(D3-Pad2)*%
X103540000Y21040000D02*
X102080000Y21040000D01*
X114173030Y14610010D02*
X109969990Y14610010D01*
X117963039Y18400020D02*
X114173030Y14610010D01*
X140550000Y17900000D02*
X136400000Y17900000D01*
X136400000Y17900000D02*
X133125000Y14625000D01*
X109969990Y14610010D02*
X103540000Y21040000D01*
X133125000Y14625000D02*
X127451981Y14625000D01*
X127451981Y14625000D02*
X123676962Y18400020D01*
X123676962Y18400020D02*
X117963039Y18400020D01*
%TO.N,Net-(D4-Pad2)*%
X153575000Y14625000D02*
X147400000Y20800000D01*
X159548020Y14625000D02*
X153575000Y14625000D01*
X163523039Y18600020D02*
X159548020Y14625000D01*
X182175000Y17900000D02*
X179200000Y14925000D01*
X185550000Y17900000D02*
X182175000Y17900000D01*
X179200000Y14925000D02*
X172151981Y14925000D01*
X168476962Y18600020D02*
X163523039Y18600020D01*
X172151981Y14925000D02*
X168476962Y18600020D01*
D15*
%TO.N,Net-(SW1-Pad1)*%
X12310000Y8740000D02*
X12310000Y9110000D01*
D17*
X16890000Y11440000D02*
X16740000Y11440000D01*
X16740000Y11440000D02*
X13900000Y8600000D01*
D15*
X23555000Y12050000D02*
X23555000Y11455000D01*
X23555000Y12485000D02*
X23560000Y12480000D01*
X23555000Y12050000D02*
X23555000Y12485000D01*
D17*
X16890000Y11440000D02*
X23490000Y11440000D01*
%TO.N,Net-(SW2-Pad1)*%
X49690000Y8740000D02*
X48360000Y8740000D01*
X49420000Y8740000D02*
X47010041Y11149959D01*
X49690000Y8740000D02*
X49420000Y8740000D01*
X47010041Y11149959D02*
X38980000Y11149959D01*
X38980000Y11149959D02*
X38705451Y11149959D01*
D15*
X34316905Y7249960D02*
X34961276Y7894332D01*
X27968093Y7249960D02*
X34316905Y7249960D01*
X24825000Y12050000D02*
X24825000Y10393054D01*
X24825000Y10393054D02*
X27968093Y7249960D01*
X34961276Y7894332D02*
X38283472Y11216528D01*
X24825000Y12050000D02*
X24825000Y12575000D01*
D17*
%TO.N,Net-(SW3-Pad1)*%
X94690000Y8740000D02*
X93820000Y8740000D01*
X102310000Y8740000D02*
X101780000Y8740000D01*
X102110000Y8740000D02*
X102310000Y8740000D01*
X95930000Y8740000D02*
X95270010Y9399990D01*
X102310000Y8740000D02*
X95930000Y8740000D01*
X95270010Y9399990D02*
X82890000Y9399990D01*
X77938481Y6859990D02*
X73531520Y6859990D01*
X82890000Y9399990D02*
X80478480Y9399990D01*
X80478480Y9399990D02*
X77938481Y6859990D01*
X73531520Y6859990D02*
X69965755Y10425755D01*
X69965755Y10425755D02*
X67941542Y12449969D01*
X67941542Y12449969D02*
X48320000Y12449969D01*
X48320000Y12449969D02*
X38244109Y12449969D01*
D15*
X33861266Y8349970D02*
X37961265Y12449969D01*
X37961265Y12449969D02*
X38244109Y12449969D01*
X28423732Y8349970D02*
X33861266Y8349970D01*
X26095000Y12050000D02*
X26095000Y10678702D01*
X26095000Y10678702D02*
X28423732Y8349970D01*
X26095000Y12050000D02*
X26095000Y12595000D01*
D17*
%TO.N,Net-(SW4-Pad1)*%
X147310000Y9390000D02*
X147275040Y9424960D01*
X147310000Y8740000D02*
X147310000Y9390000D01*
X147275040Y9424960D02*
X139200000Y9424960D01*
X122700000Y8300000D02*
X119200000Y8300000D01*
X139690000Y8740000D02*
X137860000Y8740000D01*
X137860000Y8740000D02*
X135900000Y10700000D01*
X125100000Y10700000D02*
X124850000Y10450000D01*
X135900000Y10700000D02*
X125100000Y10700000D01*
X124850000Y10450000D02*
X122700000Y8300000D01*
X119200000Y8300000D02*
X119200000Y8360000D01*
X116930000Y10630000D02*
X117635000Y9925000D01*
X119200000Y8360000D02*
X117635000Y9925000D01*
X79940000Y10700000D02*
X116920000Y10700000D01*
X74070000Y8160000D02*
X77400000Y8160000D01*
X77400000Y8160000D02*
X79940000Y10700000D01*
X68480023Y13749979D02*
X74070000Y8160000D01*
X48240000Y13749979D02*
X68480023Y13749979D01*
X48240000Y13749979D02*
X37847049Y13749979D01*
D18*
X37776338Y13749979D02*
X37847049Y13749979D01*
D15*
X33405629Y9449980D02*
X34050000Y10094352D01*
X28879371Y9449980D02*
X33405629Y9449980D01*
X27365000Y12050000D02*
X27365000Y10964351D01*
X27365000Y10964351D02*
X28879371Y9449980D01*
X34050000Y10094352D02*
X37805627Y13849979D01*
X27365000Y12050000D02*
X27365000Y12565000D01*
D17*
%TO.N,Net-(SW5-Pad1)*%
X183840000Y8740000D02*
X183240000Y8140000D01*
X184690000Y8740000D02*
X183840000Y8740000D01*
X184690000Y8740000D02*
X182640000Y8740000D01*
X182640000Y8740000D02*
X179055020Y12324980D01*
X179055020Y12324980D02*
X178422050Y12324980D01*
X171375018Y12324982D02*
X171375020Y12324980D01*
X171075019Y12324982D02*
X171375018Y12324982D01*
X169800000Y13600000D02*
X171075019Y12324982D01*
X170875020Y12524980D02*
X169800000Y13600000D01*
X171975018Y12324982D02*
X171975020Y12324980D01*
X171975020Y12324980D02*
X179055020Y12324980D01*
X171075019Y12324982D02*
X171975018Y12324982D01*
X167400000Y16000000D02*
X169800000Y13600000D01*
X164600000Y16000000D02*
X167400000Y16000000D01*
X160624980Y12024980D02*
X164600000Y16000000D01*
X122600000Y15800000D02*
X126375020Y12024980D01*
X119040000Y15800000D02*
X122600000Y15800000D01*
X126375020Y12024980D02*
X160624980Y12024980D01*
X119040000Y15800000D02*
X115249991Y12009990D01*
X100465020Y12024980D02*
X99275020Y12024980D01*
X100480010Y12009990D02*
X100465020Y12024980D01*
X115249991Y12009990D02*
X100480010Y12009990D01*
X99275020Y12024980D02*
X99835020Y12024980D01*
X81235020Y12024980D02*
X77420000Y15840000D01*
X99275020Y12024980D02*
X81235020Y12024980D01*
X74390000Y15840000D02*
X73604981Y15054980D01*
X73604981Y15054980D02*
X73584980Y15054980D01*
X73599989Y15049989D02*
X64155922Y15049989D01*
X74390000Y15840000D02*
X73599989Y15049989D01*
X75510000Y15840000D02*
X74390000Y15840000D01*
X77420000Y15840000D02*
X75510000Y15840000D01*
X64155922Y15049989D02*
X48240000Y15049989D01*
D15*
X29335010Y10549990D02*
X32949990Y10549990D01*
X32949990Y10549990D02*
X37449989Y15049989D01*
X28635000Y11250000D02*
X29335010Y10549990D01*
X28635000Y12050000D02*
X28635000Y11250000D01*
D17*
X48240000Y15049989D02*
X37549989Y15049989D01*
D15*
X28635000Y12050000D02*
X28635000Y12565000D01*
%TO.N,Net-(U1-Pad6)*%
X29905000Y12050000D02*
X29905000Y12595000D01*
X29905000Y12050000D02*
X29905000Y11650000D01*
%TO.N,Net-(U1-Pad7)*%
X31175000Y12050000D02*
X31175000Y12575000D01*
X31175000Y12050000D02*
X31175000Y11650000D01*
X31175000Y11650000D02*
X31160000Y11650000D01*
%TO.N,Net-(U1-Pad15)*%
X24825000Y18550000D02*
X24825000Y19025000D01*
X24825000Y19025000D02*
X24830000Y19020000D01*
X24825000Y18550000D02*
X24825000Y17925000D01*
%TO.N,LED_DIN*%
X5900000Y18000000D02*
X7400000Y19500000D01*
D17*
X14470000Y19500000D02*
X7094362Y19500000D01*
X14511706Y19393934D02*
X14505639Y19400001D01*
X7130001Y19400001D02*
X5940000Y18210000D01*
X16075641Y17829999D02*
X15452820Y18452820D01*
X15452820Y18452820D02*
X14511706Y19393934D01*
X20520012Y18750010D02*
X19600001Y17829999D01*
X21593651Y18750010D02*
X20520012Y18750010D01*
X23370010Y20180010D02*
X23023651Y20180010D01*
X24350001Y21310001D02*
X24350001Y21160001D01*
X25040000Y22000000D02*
X24350001Y21310001D01*
X24350001Y21160001D02*
X23370010Y20180010D01*
X23023651Y20180010D02*
X21593651Y18750010D01*
X19600001Y17829999D02*
X16075641Y17829999D01*
X19600001Y17829999D02*
X16575641Y17829999D01*
D15*
%TO.N,LED_DOUT*%
X191450000Y21100000D02*
X191580002Y21100000D01*
D17*
X105495010Y7952991D02*
X105495010Y7974930D01*
X106942009Y9399990D02*
X105495010Y7952991D01*
X117690000Y8031510D02*
X116321520Y9399990D01*
X117690000Y7971509D02*
X117690000Y8031510D01*
X118661519Y6999990D02*
X117690000Y7971509D01*
X181300000Y8157981D02*
X181300000Y8241510D01*
X190379971Y12820029D02*
X190379599Y12820029D01*
X191940002Y21100000D02*
X193750001Y19290001D01*
X161875030Y10724970D02*
X153986479Y10724970D01*
X188511010Y9888990D02*
X185462009Y6839990D01*
X190379599Y12820029D02*
X188511010Y10951440D01*
X185462009Y6839990D02*
X182617991Y6839990D01*
X193750000Y16190058D02*
X190379971Y12820029D01*
X188511010Y10951440D02*
X188511010Y9888990D01*
X191450000Y21100000D02*
X191940002Y21100000D01*
X170324970Y11024970D02*
X167200000Y7900000D01*
X182617991Y6839990D02*
X181300000Y8157981D01*
X164700000Y7900000D02*
X161875030Y10724970D01*
X181300000Y8241510D02*
X178516540Y11024970D01*
X123238481Y6999990D02*
X118661519Y6999990D01*
X116321520Y9399990D02*
X106942009Y9399990D01*
X178516540Y11024970D02*
X170324970Y11024970D01*
X193750001Y19290001D02*
X193750000Y16190058D01*
X167200000Y7900000D02*
X164700000Y7900000D01*
X153986479Y10724970D02*
X150101499Y6839990D01*
X150101499Y6839990D02*
X137617991Y6839990D01*
X137617991Y6839990D02*
X135057991Y9399990D01*
X135057991Y9399990D02*
X125638480Y9399990D01*
X125638480Y9399990D02*
X123238481Y6999990D01*
X44608032Y9849949D02*
X38613963Y9849949D01*
X47617991Y6839990D02*
X44608032Y9849949D01*
X51379990Y6839990D02*
X47617991Y6839990D01*
X92580010Y6839990D02*
X91320020Y8099980D01*
X81016962Y8099980D02*
X78476962Y5559980D01*
X67849990Y10640010D02*
X67340041Y11149959D01*
X37700000Y8935986D02*
X37700000Y8100000D01*
X67340041Y11149959D02*
X55689959Y11149959D01*
X105495010Y7952991D02*
X104382009Y6839990D01*
X67913010Y10640010D02*
X67849990Y10640010D01*
X104382009Y6839990D02*
X92580010Y6839990D01*
X78476962Y5559980D02*
X72993039Y5559980D01*
X38613963Y9849949D02*
X37700000Y8935986D01*
X72993039Y5559980D02*
X67913010Y10640010D01*
X91320020Y8099980D02*
X81016962Y8099980D01*
X55689959Y11149959D02*
X51379990Y6839990D01*
D16*
X24690000Y8090000D02*
X24700000Y8100000D01*
X24690000Y2900000D02*
X24690000Y8090000D01*
D17*
%TO.N,BTN_DIN*%
X27580000Y22000000D02*
X27580000Y21410000D01*
D15*
X27580000Y21191298D02*
X26095000Y19706298D01*
X27580000Y22000000D02*
X27580000Y21191298D01*
X26095000Y19925000D02*
X26095000Y19295000D01*
X26095000Y19706298D02*
X26095000Y19295000D01*
X26095000Y19295000D02*
X26095000Y17895000D01*
D17*
%TO.N,BTN_CLK*%
X43000000Y18400000D02*
X43000000Y18200000D01*
X32660000Y22000000D02*
X32660000Y21460000D01*
D15*
X28640000Y19140000D02*
X28640000Y17960000D01*
X28650000Y17950000D02*
X29875000Y17950000D01*
X29860000Y18550000D02*
X29870000Y18540000D01*
X28655000Y19150000D02*
X29890000Y19150000D01*
X28635000Y18550000D02*
X29860000Y18550000D01*
D17*
X43000000Y7824798D02*
X43000000Y8100000D01*
X43000000Y7735998D02*
X43000000Y8100000D01*
D15*
X32310000Y2900000D02*
X32800000Y2900000D01*
X29880000Y19425649D02*
X29880000Y19390000D01*
X29880000Y19425649D02*
X29880000Y17940000D01*
X30670011Y20230011D02*
X30670011Y20215660D01*
X30670011Y20215660D02*
X29880000Y19425649D01*
X32660000Y20444366D02*
X32445645Y20230011D01*
X32445645Y20230011D02*
X30670011Y20230011D01*
X32310000Y2900000D02*
X32310000Y3010000D01*
D16*
X32660000Y22000000D02*
X32660000Y21505998D01*
D17*
X43000000Y8000000D02*
X42500001Y8000000D01*
X42500001Y7600001D02*
X43000000Y8100000D01*
X42500001Y7235999D02*
X42500001Y7600001D01*
X32310000Y3010000D02*
X32949999Y3649999D01*
X32949999Y3649999D02*
X32949999Y3812001D01*
X40064002Y4800000D02*
X42500001Y7235999D01*
X32949999Y3812001D02*
X33937998Y4800000D01*
X33937998Y4800000D02*
X40064002Y4800000D01*
X32660000Y21727998D02*
X32660000Y20444366D01*
X32660000Y22000000D02*
X32660000Y21727998D01*
X41564001Y20000001D02*
X43000000Y18564002D01*
X34387997Y20000001D02*
X41564001Y20000001D01*
X33943632Y20444366D02*
X34387997Y20000001D01*
X43000000Y18564002D02*
X43000000Y18200000D01*
X32660000Y20444366D02*
X33943632Y20444366D01*
X33299999Y21087999D02*
X33299999Y21200001D01*
X33943632Y20444366D02*
X33299999Y21087999D01*
D19*
X43000000Y18200000D02*
X43000000Y18900536D01*
X43000000Y18900536D02*
X42000535Y19900001D01*
D15*
%TO.N,BTN_SENSE*%
X139690000Y3660000D02*
X137640000Y3660000D01*
X12310000Y3660000D02*
X13360000Y3660000D01*
X139690000Y3660000D02*
X139666597Y3660000D01*
X94690000Y3660000D02*
X94640000Y3660000D01*
X22500000Y22000000D02*
X22500000Y21850000D01*
D16*
X16900000Y6150000D02*
X15170000Y6150000D01*
X15170000Y6150000D02*
X12720000Y3700000D01*
D15*
X184666597Y3660000D02*
X184690000Y3660000D01*
X184690000Y3660000D02*
X183340000Y3660000D01*
D17*
X180000000Y7619491D02*
X180000000Y7703020D01*
X184690000Y3660000D02*
X183959491Y3660000D01*
X183959491Y3660000D02*
X180000000Y7619491D01*
X180000000Y7703020D02*
X177978060Y9724960D01*
X177978060Y9724960D02*
X171063450Y9724960D01*
X171063450Y9724960D02*
X170863450Y9724960D01*
X164161519Y6599990D02*
X162400000Y8361510D01*
X170863450Y9724960D02*
X167738481Y6599990D01*
X167738481Y6599990D02*
X164161519Y6599990D01*
X162400000Y8361510D02*
X161336550Y9424960D01*
X161336550Y9424960D02*
X154900000Y9424960D01*
X154900000Y9424960D02*
X154524960Y9424960D01*
X154524960Y9424960D02*
X148800000Y3700000D01*
X139690000Y3660000D02*
X138640000Y3660000D01*
X138819491Y3800000D02*
X139100000Y3800000D01*
X139690000Y3660000D02*
X138959491Y3660000D01*
X134519511Y8099980D02*
X133618471Y8099980D01*
X138959491Y3660000D02*
X134519511Y8099980D01*
X126176962Y8099980D02*
X123776962Y5699980D01*
X133618471Y8099980D02*
X126176962Y8099980D01*
X123776962Y5699980D02*
X119650000Y5699980D01*
X116390000Y7433018D02*
X116390000Y7493020D01*
X119650000Y5699980D02*
X118123038Y5699980D01*
X118123038Y5699980D02*
X116390000Y7433018D01*
X116390000Y7493020D02*
X115783040Y8099980D01*
X107480489Y8099980D02*
X103170509Y3790000D01*
X115783040Y8099980D02*
X107480489Y8099980D01*
X103170509Y3790000D02*
X101970000Y3790000D01*
X94690000Y3660000D02*
X93879726Y3660000D01*
D16*
X17120000Y22000000D02*
X17030000Y22090000D01*
X22500000Y22000000D02*
X17120000Y22000000D01*
D17*
X81555442Y6799970D02*
X90740755Y6799970D01*
X93880725Y3660000D02*
X94690000Y3660000D01*
X90740755Y6799970D02*
X93880725Y3660000D01*
X62500000Y7800000D02*
X64549949Y9849949D01*
X79015444Y4259972D02*
X81555442Y6799970D01*
X64549949Y9849949D02*
X66801560Y9849949D01*
X66801560Y9849949D02*
X72391539Y4259970D01*
X72391539Y4259970D02*
X79015443Y4259970D01*
X79015443Y4259970D02*
X79015444Y4259972D01*
X62500000Y7800000D02*
X57900000Y3200000D01*
D16*
X22150000Y6050000D02*
X22100000Y6100000D01*
X22150000Y2900000D02*
X22150000Y6050000D01*
X15220000Y6100000D02*
X15170000Y6150000D01*
X22100000Y6100000D02*
X15220000Y6100000D01*
X45460000Y3660000D02*
X45300000Y3500000D01*
X49690000Y3660000D02*
X45460000Y3660000D01*
D15*
%TO.N,BTN_DOUT*%
X40800000Y18000000D02*
X40800000Y18000000D01*
X40700000Y18700000D02*
X40600010Y18799990D01*
X40700000Y18200000D02*
X40700000Y18700000D01*
X40700000Y8100000D02*
X40700000Y8080000D01*
D18*
X28874316Y6099950D02*
X39089952Y6099950D01*
X40700000Y7709998D02*
X40700000Y8000000D01*
X27230000Y4455634D02*
X28874316Y6099950D01*
X27230000Y2900000D02*
X27230000Y4455634D01*
D17*
X40700000Y18200000D02*
X40700000Y18100000D01*
X39525522Y6100010D02*
X34864025Y6100010D01*
X40700000Y8100000D02*
X40700000Y7274488D01*
X40700000Y7274488D02*
X39525522Y6100010D01*
X28824316Y6049950D02*
X33349457Y6049950D01*
X27230000Y4455634D02*
X28824316Y6049950D01*
X27230000Y4455634D02*
X27230000Y2730000D01*
D15*
X32510000Y19120000D02*
X32510000Y17770000D01*
X32580000Y17700000D02*
X34200018Y17700000D01*
X32510000Y17770000D02*
X32580000Y17700000D01*
D17*
X40700000Y18300000D02*
X40300009Y18699991D01*
X40700000Y18200000D02*
X40700000Y18300000D01*
X35200009Y18699991D02*
X34200018Y17700000D01*
X40300009Y18699991D02*
X35200009Y18699991D01*
%TD*%
D20*
%TO.N,GND*%
G36*
X196815000Y185000D02*
G01*
X185000Y185000D01*
X185000Y3660000D01*
X1947985Y3660000D01*
X1975981Y3375750D01*
X2058894Y3102424D01*
X2193536Y2850526D01*
X2374735Y2629735D01*
X2595526Y2448536D01*
X2847424Y2313894D01*
X3120750Y2230981D01*
X3333775Y2210000D01*
X4746225Y2210000D01*
X4959250Y2230981D01*
X5232576Y2313894D01*
X5484474Y2448536D01*
X5705265Y2629735D01*
X5886464Y2850526D01*
X6021106Y3102424D01*
X6104019Y3375750D01*
X6132015Y3660000D01*
X6104019Y3944250D01*
X6021106Y4217576D01*
X5886464Y4469474D01*
X5705265Y4690265D01*
X5484474Y4871464D01*
X5232576Y5006106D01*
X4959250Y5089019D01*
X4746225Y5110000D01*
X3333775Y5110000D01*
X3120750Y5089019D01*
X2847424Y5006106D01*
X2595526Y4871464D01*
X2374735Y4690265D01*
X2193536Y4469474D01*
X2058894Y4217576D01*
X1975981Y3944250D01*
X1947985Y3660000D01*
X185000Y3660000D01*
X185000Y8740000D01*
X1947985Y8740000D01*
X1975981Y8455750D01*
X2058894Y8182424D01*
X2193536Y7930526D01*
X2374735Y7709735D01*
X2595526Y7528536D01*
X2847424Y7393894D01*
X3120750Y7310981D01*
X3333775Y7290000D01*
X4746225Y7290000D01*
X4959250Y7310981D01*
X5232576Y7393894D01*
X5484474Y7528536D01*
X5705265Y7709735D01*
X5886464Y7930526D01*
X6021106Y8182424D01*
X6104019Y8455750D01*
X6132015Y8740000D01*
X6104019Y9024250D01*
X6021106Y9297576D01*
X5886464Y9549474D01*
X5705265Y9770265D01*
X5484474Y9951464D01*
X5232576Y10086106D01*
X4959250Y10169019D01*
X4746225Y10190000D01*
X3333775Y10190000D01*
X3120750Y10169019D01*
X2847424Y10086106D01*
X2595526Y9951464D01*
X2374735Y9770265D01*
X2193536Y9549474D01*
X2058894Y9297576D01*
X1975981Y9024250D01*
X1947985Y8740000D01*
X185000Y8740000D01*
X185000Y14132963D01*
X1650000Y14132963D01*
X1650000Y13867037D01*
X1701880Y13606220D01*
X1803646Y13360535D01*
X1951387Y13139425D01*
X2139425Y12951387D01*
X2360535Y12803646D01*
X2606220Y12701880D01*
X2867037Y12650000D01*
X3132963Y12650000D01*
X3393780Y12701880D01*
X3639465Y12803646D01*
X3860575Y12951387D01*
X4048613Y13139425D01*
X4196354Y13360535D01*
X4298120Y13606220D01*
X4350000Y13867037D01*
X4350000Y14132963D01*
X4298120Y14393780D01*
X4196354Y14639465D01*
X4048613Y14860575D01*
X3860575Y15048613D01*
X3639465Y15196354D01*
X3393780Y15298120D01*
X3132963Y15350000D01*
X2867037Y15350000D01*
X2606220Y15298120D01*
X2360535Y15196354D01*
X2139425Y15048613D01*
X1951387Y14860575D01*
X1803646Y14639465D01*
X1701880Y14393780D01*
X1650000Y14132963D01*
X185000Y14132963D01*
X185000Y18650000D01*
X3698307Y18650000D01*
X3698307Y17150000D01*
X3705065Y17081388D01*
X3725078Y17015413D01*
X3757578Y16954610D01*
X3801315Y16901315D01*
X3854610Y16857578D01*
X3915413Y16825078D01*
X3981388Y16805065D01*
X4050000Y16798307D01*
X7050000Y16798307D01*
X7118612Y16805065D01*
X7184587Y16825078D01*
X7245390Y16857578D01*
X7298685Y16901315D01*
X7342422Y16954610D01*
X7374922Y17015413D01*
X7394935Y17081388D01*
X7401693Y17150000D01*
X7401693Y18441033D01*
X7610661Y18650000D01*
X9598307Y18650000D01*
X9598307Y17150000D01*
X9605065Y17081388D01*
X9625078Y17015413D01*
X9657578Y16954610D01*
X9701315Y16901315D01*
X9754610Y16857578D01*
X9815413Y16825078D01*
X9881388Y16805065D01*
X9950000Y16798307D01*
X11999613Y16798307D01*
X12267930Y16529989D01*
X11587942Y15850000D01*
X11007487Y15850000D01*
X11005892Y15855258D01*
X10950289Y15959283D01*
X10875461Y16050461D01*
X10784283Y16125289D01*
X10680258Y16180892D01*
X10567384Y16215132D01*
X10450000Y16226693D01*
X9525000Y16226693D01*
X9407616Y16215132D01*
X9294742Y16180892D01*
X9190717Y16125289D01*
X9099539Y16050461D01*
X9024711Y15959283D01*
X8969108Y15855258D01*
X8934868Y15742384D01*
X8923307Y15625000D01*
X8923307Y14375000D01*
X8934868Y14257616D01*
X8969108Y14144742D01*
X9024711Y14040717D01*
X9099539Y13949539D01*
X9190717Y13874711D01*
X9294742Y13819108D01*
X9407616Y13784868D01*
X9525000Y13773307D01*
X10450000Y13773307D01*
X10567384Y13784868D01*
X10680258Y13819108D01*
X10784283Y13874711D01*
X10875461Y13949539D01*
X10950289Y14040717D01*
X11005892Y14144742D01*
X11007487Y14150000D01*
X11898281Y14150000D01*
X11940022Y14145889D01*
X11981763Y14150000D01*
X11981771Y14150000D01*
X12106651Y14162300D01*
X12266877Y14210903D01*
X12414541Y14289832D01*
X12543970Y14396052D01*
X12570588Y14428486D01*
X13822092Y15679989D01*
X21388248Y15679989D01*
X21429989Y15675878D01*
X21471730Y15679989D01*
X23088270Y15679989D01*
X23130011Y15675878D01*
X23171752Y15679989D01*
X23171760Y15679989D01*
X23296640Y15692289D01*
X23303538Y15694381D01*
X23969438Y15028481D01*
X23996052Y14996052D01*
X24125481Y14889832D01*
X24273145Y14810903D01*
X24433371Y14762300D01*
X24558251Y14750000D01*
X24558259Y14750000D01*
X24600000Y14745889D01*
X24641741Y14750000D01*
X33958297Y14750000D01*
X34000038Y14745889D01*
X34041779Y14750000D01*
X34041787Y14750000D01*
X34166667Y14762300D01*
X34326893Y14810903D01*
X34474557Y14889832D01*
X34603986Y14996052D01*
X34630604Y15028486D01*
X35310019Y15707900D01*
X35342448Y15734514D01*
X35448668Y15863943D01*
X35499350Y15958762D01*
X36090570Y16549981D01*
X38483937Y16549981D01*
X39133928Y15899989D01*
X37508240Y15899989D01*
X37383360Y15887689D01*
X37223134Y15839086D01*
X37075470Y15760157D01*
X36946041Y15653937D01*
X36839821Y15524508D01*
X36812231Y15472891D01*
X32639331Y11299990D01*
X32042813Y11299990D01*
X32050000Y13599844D01*
X32048935Y13610266D01*
X32045992Y13619616D01*
X32041281Y13628211D01*
X32034984Y13635723D01*
X32027343Y13641861D01*
X32018651Y13646391D01*
X32009242Y13649138D01*
X31999478Y13649997D01*
X22424478Y13549997D01*
X22415859Y13549157D01*
X22406445Y13546430D01*
X22397743Y13541917D01*
X22390089Y13535794D01*
X22383777Y13528296D01*
X22379049Y13519710D01*
X22376086Y13510367D01*
X22375004Y13500625D01*
X22359871Y12290000D01*
X16781741Y12290000D01*
X16740000Y12294111D01*
X16698259Y12290000D01*
X16698251Y12290000D01*
X16573371Y12277700D01*
X16413145Y12229097D01*
X16265481Y12150168D01*
X16168480Y12070562D01*
X16168475Y12070557D01*
X16136052Y12043948D01*
X16109443Y12011525D01*
X14173071Y10075151D01*
X14152576Y10086106D01*
X13879250Y10169019D01*
X13666225Y10190000D01*
X12253775Y10190000D01*
X12040750Y10169019D01*
X11767424Y10086106D01*
X11515526Y9951464D01*
X11294735Y9770265D01*
X11113536Y9549474D01*
X10978894Y9297576D01*
X10895981Y9024250D01*
X10867985Y8740000D01*
X10895981Y8455750D01*
X10978894Y8182424D01*
X11113536Y7930526D01*
X11294735Y7709735D01*
X11515526Y7528536D01*
X11767424Y7393894D01*
X12040750Y7310981D01*
X12253775Y7290000D01*
X13666225Y7290000D01*
X13879250Y7310981D01*
X14152576Y7393894D01*
X14404474Y7528536D01*
X14625265Y7709735D01*
X14806464Y7930526D01*
X14941106Y8182424D01*
X15024019Y8455750D01*
X15031250Y8529170D01*
X17092082Y10590000D01*
X22338621Y10590000D01*
X22325004Y9500625D01*
X22326065Y9489736D01*
X22329008Y9480386D01*
X22333718Y9471791D01*
X22340014Y9464279D01*
X22347655Y9458140D01*
X22356347Y9453609D01*
X22365756Y9450862D01*
X22375520Y9450003D01*
X24683383Y9474012D01*
X24707395Y9450000D01*
X24567037Y9450000D01*
X24306220Y9398120D01*
X24060535Y9296354D01*
X23839425Y9148613D01*
X23651387Y8960575D01*
X23503646Y8739465D01*
X23401880Y8493780D01*
X23350000Y8232963D01*
X23350000Y7967037D01*
X23401880Y7706220D01*
X23503646Y7460535D01*
X23590001Y7331296D01*
X23590000Y3850610D01*
X23563711Y3824321D01*
X23420000Y3609242D01*
X23276289Y3824321D01*
X23250000Y3850610D01*
X23250000Y5391161D01*
X23296354Y5460535D01*
X23398120Y5706220D01*
X23450000Y5967037D01*
X23450000Y6232963D01*
X23398120Y6493780D01*
X23296354Y6739465D01*
X23148613Y6960575D01*
X22960575Y7148613D01*
X22739465Y7296354D01*
X22493780Y7398120D01*
X22232963Y7450000D01*
X21967037Y7450000D01*
X21706220Y7398120D01*
X21460535Y7296354D01*
X21316331Y7200000D01*
X17809188Y7200000D01*
X17760575Y7248613D01*
X17539465Y7396354D01*
X17293780Y7498120D01*
X17032963Y7550000D01*
X16767037Y7550000D01*
X16506220Y7498120D01*
X16260535Y7396354D01*
X16041501Y7250000D01*
X15224034Y7250000D01*
X15170000Y7255322D01*
X15169999Y7255322D01*
X15115965Y7250000D01*
X15115964Y7250000D01*
X14954362Y7234084D01*
X14747012Y7171184D01*
X14677602Y7134084D01*
X14555915Y7069042D01*
X14490727Y7015543D01*
X14388419Y6931581D01*
X14353971Y6889606D01*
X12574366Y5110000D01*
X12253775Y5110000D01*
X12040750Y5089019D01*
X11767424Y5006106D01*
X11515526Y4871464D01*
X11294735Y4690265D01*
X11113536Y4469474D01*
X10978894Y4217576D01*
X10895981Y3944250D01*
X10867985Y3660000D01*
X10895981Y3375750D01*
X10978894Y3102424D01*
X11113536Y2850526D01*
X11294735Y2629735D01*
X11515526Y2448536D01*
X11767424Y2313894D01*
X12040750Y2230981D01*
X12253775Y2210000D01*
X13666225Y2210000D01*
X13879250Y2230981D01*
X14152576Y2313894D01*
X14404474Y2448536D01*
X14625265Y2629735D01*
X14806464Y2850526D01*
X14941106Y3102424D01*
X15024019Y3375750D01*
X15052015Y3660000D01*
X15024019Y3944250D01*
X14941106Y4217576D01*
X14889590Y4313956D01*
X15575635Y5000000D01*
X16269337Y5000000D01*
X16506220Y4901880D01*
X16767037Y4850000D01*
X17032963Y4850000D01*
X17293780Y4901880D01*
X17530663Y5000000D01*
X21050001Y5000000D01*
X21050000Y3850610D01*
X21023711Y3824321D01*
X20865027Y3586833D01*
X20755723Y3322949D01*
X20700000Y3042813D01*
X20700000Y2757187D01*
X20755723Y2477051D01*
X20865027Y2213167D01*
X21023711Y1975679D01*
X21225679Y1773711D01*
X21463167Y1615027D01*
X21727051Y1505723D01*
X22007187Y1450000D01*
X22292813Y1450000D01*
X22572949Y1505723D01*
X22836833Y1615027D01*
X23074321Y1773711D01*
X23276289Y1975679D01*
X23420000Y2190758D01*
X23563711Y1975679D01*
X23765679Y1773711D01*
X24003167Y1615027D01*
X24267051Y1505723D01*
X24547187Y1450000D01*
X24832813Y1450000D01*
X25112949Y1505723D01*
X25376833Y1615027D01*
X25614321Y1773711D01*
X25816289Y1975679D01*
X25960000Y2190758D01*
X26103711Y1975679D01*
X26305679Y1773711D01*
X26543167Y1615027D01*
X26807051Y1505723D01*
X27087187Y1450000D01*
X27372813Y1450000D01*
X27652949Y1505723D01*
X27916833Y1615027D01*
X28154321Y1773711D01*
X28356289Y1975679D01*
X28514973Y2213167D01*
X28624277Y2477051D01*
X28680000Y2757187D01*
X28680000Y3042813D01*
X28624277Y3322949D01*
X28514973Y3586833D01*
X28356289Y3824321D01*
X28154321Y4026289D01*
X28080000Y4075949D01*
X28080000Y4103554D01*
X29176397Y5199950D01*
X33135866Y5199950D01*
X32378483Y4442565D01*
X32346051Y4415949D01*
X32291928Y4350000D01*
X32167187Y4350000D01*
X31887051Y4294277D01*
X31623167Y4184973D01*
X31385679Y4026289D01*
X31183711Y3824321D01*
X31025027Y3586833D01*
X30915723Y3322949D01*
X30860000Y3042813D01*
X30860000Y2757187D01*
X30915723Y2477051D01*
X31025027Y2213167D01*
X31183711Y1975679D01*
X31385679Y1773711D01*
X31623167Y1615027D01*
X31887051Y1505723D01*
X32167187Y1450000D01*
X32452813Y1450000D01*
X32732949Y1505723D01*
X32996833Y1615027D01*
X33234321Y1773711D01*
X33436289Y1975679D01*
X33580000Y2190758D01*
X33723711Y1975679D01*
X33925679Y1773711D01*
X34163167Y1615027D01*
X34427051Y1505723D01*
X34707187Y1450000D01*
X34992813Y1450000D01*
X35272949Y1505723D01*
X35536833Y1615027D01*
X35774321Y1773711D01*
X35976289Y1975679D01*
X36092760Y2149990D01*
X40652003Y2149990D01*
X40706037Y2144668D01*
X40760071Y2149990D01*
X40760073Y2149990D01*
X40921675Y2165906D01*
X41129025Y2228806D01*
X41320121Y2330948D01*
X41487618Y2468409D01*
X41522070Y2510389D01*
X43811682Y4800000D01*
X44496331Y4800000D01*
X44640535Y4703646D01*
X44659618Y4695741D01*
X44439425Y4548613D01*
X44251387Y4360575D01*
X44103646Y4139465D01*
X44001880Y3893780D01*
X43950000Y3632963D01*
X43950000Y3367037D01*
X44001880Y3106220D01*
X44103646Y2860535D01*
X44251387Y2639425D01*
X44439425Y2451387D01*
X44660535Y2303646D01*
X44906220Y2201880D01*
X45167037Y2150000D01*
X45432963Y2150000D01*
X45693780Y2201880D01*
X45939465Y2303646D01*
X46160575Y2451387D01*
X46269188Y2560000D01*
X47459707Y2560000D01*
X47595526Y2448536D01*
X47847424Y2313894D01*
X48120750Y2230981D01*
X48333775Y2210000D01*
X49746225Y2210000D01*
X49959250Y2230981D01*
X50232576Y2313894D01*
X50484474Y2448536D01*
X50705265Y2629735D01*
X50886464Y2850526D01*
X51021106Y3102424D01*
X51104019Y3375750D01*
X51132015Y3660000D01*
X51104019Y3944250D01*
X51021106Y4217576D01*
X50886464Y4469474D01*
X50705265Y4690265D01*
X50484474Y4871464D01*
X50232576Y5006106D01*
X49959250Y5089019D01*
X49746225Y5110000D01*
X48333775Y5110000D01*
X48120750Y5089019D01*
X47847424Y5006106D01*
X47595526Y4871464D01*
X47459707Y4760000D01*
X46003805Y4760000D01*
X46140575Y4851387D01*
X46328613Y5039425D01*
X46476354Y5260535D01*
X46578120Y5506220D01*
X46630000Y5767037D01*
X46630000Y6032963D01*
X46578120Y6293780D01*
X46476354Y6539465D01*
X46328613Y6760575D01*
X46140575Y6948613D01*
X45919465Y7096354D01*
X45673780Y7198120D01*
X45412963Y7250000D01*
X45147037Y7250000D01*
X44886220Y7198120D01*
X44640535Y7096354D01*
X44496331Y7000000D01*
X43783669Y7000000D01*
X43860575Y7051387D01*
X44048613Y7239425D01*
X44196354Y7460535D01*
X44298120Y7706220D01*
X44350000Y7967037D01*
X44350000Y8232963D01*
X44298120Y8493780D01*
X44196354Y8739465D01*
X44048613Y8960575D01*
X44009239Y8999949D01*
X44255952Y8999949D01*
X46987430Y6268470D01*
X47014043Y6236042D01*
X47143472Y6129822D01*
X47291136Y6050893D01*
X47451362Y6002290D01*
X47576242Y5989990D01*
X47576250Y5989990D01*
X47617991Y5985879D01*
X47659732Y5989990D01*
X51338249Y5989990D01*
X51379990Y5985879D01*
X51421731Y5989990D01*
X51421739Y5989990D01*
X51546619Y6002290D01*
X51706845Y6050893D01*
X51854509Y6129822D01*
X51983938Y6236042D01*
X52010556Y6268476D01*
X54482081Y8740000D01*
X55867985Y8740000D01*
X55895981Y8455750D01*
X55978894Y8182424D01*
X56113536Y7930526D01*
X56294735Y7709735D01*
X56515526Y7528536D01*
X56767424Y7393894D01*
X57040750Y7310981D01*
X57253775Y7290000D01*
X58666225Y7290000D01*
X58879250Y7310981D01*
X59152576Y7393894D01*
X59404474Y7528536D01*
X59625265Y7709735D01*
X59806464Y7930526D01*
X59941106Y8182424D01*
X60024019Y8455750D01*
X60052015Y8740000D01*
X60024019Y9024250D01*
X59941106Y9297576D01*
X59806464Y9549474D01*
X59625265Y9770265D01*
X59404474Y9951464D01*
X59152576Y10086106D01*
X58879250Y10169019D01*
X58666225Y10190000D01*
X57253775Y10190000D01*
X57040750Y10169019D01*
X56767424Y10086106D01*
X56515526Y9951464D01*
X56294735Y9770265D01*
X56113536Y9549474D01*
X55978894Y9297576D01*
X55895981Y9024250D01*
X55867985Y8740000D01*
X54482081Y8740000D01*
X56042041Y10299959D01*
X63797878Y10299959D01*
X61928490Y8430570D01*
X61928479Y8430561D01*
X58607919Y5110000D01*
X57253775Y5110000D01*
X57040750Y5089019D01*
X56767424Y5006106D01*
X56515526Y4871464D01*
X56294735Y4690265D01*
X56113536Y4469474D01*
X55978894Y4217576D01*
X55895981Y3944250D01*
X55867985Y3660000D01*
X55895981Y3375750D01*
X55978894Y3102424D01*
X56113536Y2850526D01*
X56294735Y2629735D01*
X56515526Y2448536D01*
X56767424Y2313894D01*
X57040750Y2230981D01*
X57253775Y2210000D01*
X58666225Y2210000D01*
X58879250Y2230981D01*
X59152576Y2313894D01*
X59404474Y2448536D01*
X59625265Y2629735D01*
X59806464Y2850526D01*
X59941106Y3102424D01*
X60024019Y3375750D01*
X60052015Y3660000D01*
X60024019Y3944250D01*
X59982663Y4080582D01*
X63130561Y7228479D01*
X63130570Y7228490D01*
X64902030Y8999949D01*
X66449480Y8999949D01*
X71760978Y3688450D01*
X71787591Y3656022D01*
X71917020Y3549802D01*
X72041302Y3483371D01*
X72064684Y3470873D01*
X72224909Y3422270D01*
X72240552Y3420729D01*
X72349790Y3409970D01*
X72349797Y3409970D01*
X72391538Y3405859D01*
X72433279Y3409970D01*
X78943401Y3409970D01*
X78954897Y3408007D01*
X78985258Y3408834D01*
X79015444Y3405861D01*
X79057165Y3409970D01*
X79057192Y3409970D01*
X79068748Y3411108D01*
X79122268Y3412566D01*
X79151859Y3419294D01*
X79182072Y3422270D01*
X79233331Y3437819D01*
X79285536Y3449689D01*
X79313242Y3462059D01*
X79342298Y3470873D01*
X79389541Y3496125D01*
X79438425Y3517951D01*
X79463189Y3535492D01*
X79489962Y3549802D01*
X79531362Y3583778D01*
X79575058Y3614728D01*
X79595927Y3636765D01*
X79619391Y3656022D01*
X79646013Y3688461D01*
X81907524Y5949970D01*
X90388675Y5949970D01*
X92080551Y4258093D01*
X92058894Y4217576D01*
X91975981Y3944250D01*
X91947985Y3660000D01*
X91975981Y3375750D01*
X92058894Y3102424D01*
X92193536Y2850526D01*
X92374735Y2629735D01*
X92595526Y2448536D01*
X92847424Y2313894D01*
X93120750Y2230981D01*
X93333775Y2210000D01*
X94746225Y2210000D01*
X94959250Y2230981D01*
X95232576Y2313894D01*
X95484474Y2448536D01*
X95705265Y2629735D01*
X95886464Y2850526D01*
X96021106Y3102424D01*
X96104019Y3375750D01*
X96132015Y3660000D01*
X96104019Y3944250D01*
X96021106Y4217576D01*
X95886464Y4469474D01*
X95705265Y4690265D01*
X95484474Y4871464D01*
X95232576Y5006106D01*
X94959250Y5089019D01*
X94746225Y5110000D01*
X93632806Y5110000D01*
X92752815Y5989990D01*
X104168419Y5989990D01*
X103288429Y5110000D01*
X102253775Y5110000D01*
X102040750Y5089019D01*
X101767424Y5006106D01*
X101515526Y4871464D01*
X101294735Y4690265D01*
X101113536Y4469474D01*
X100978894Y4217576D01*
X100895981Y3944250D01*
X100867985Y3660000D01*
X100895981Y3375750D01*
X100978894Y3102424D01*
X101113536Y2850526D01*
X101294735Y2629735D01*
X101515526Y2448536D01*
X101767424Y2313894D01*
X102040750Y2230981D01*
X102253775Y2210000D01*
X103666225Y2210000D01*
X103879250Y2230981D01*
X104152576Y2313894D01*
X104404474Y2448536D01*
X104625265Y2629735D01*
X104806464Y2850526D01*
X104941106Y3102424D01*
X105024019Y3375750D01*
X105052015Y3660000D01*
X105024019Y3944250D01*
X104941106Y4217576D01*
X104892013Y4309423D01*
X107832570Y7249980D01*
X115430960Y7249980D01*
X115630906Y7050034D01*
X115679832Y6958500D01*
X115786052Y6829070D01*
X115818486Y6802452D01*
X117492476Y5128461D01*
X117519090Y5096032D01*
X117648519Y4989812D01*
X117796183Y4910883D01*
X117956409Y4862280D01*
X118081289Y4849980D01*
X118081297Y4849980D01*
X118123038Y4845869D01*
X118164779Y4849980D01*
X123735221Y4849980D01*
X123776962Y4845869D01*
X123818703Y4849980D01*
X123818711Y4849980D01*
X123943591Y4862280D01*
X124103817Y4910883D01*
X124251481Y4989812D01*
X124380910Y5096032D01*
X124407528Y5128466D01*
X126529044Y7249980D01*
X134167431Y7249980D01*
X137107987Y4309423D01*
X137058894Y4217576D01*
X137018748Y4085232D01*
X137013381Y4078693D01*
X136943739Y3948401D01*
X136900853Y3807026D01*
X136886372Y3660000D01*
X136900853Y3512974D01*
X136943739Y3371599D01*
X137013381Y3241307D01*
X137018748Y3234768D01*
X137058894Y3102424D01*
X137193536Y2850526D01*
X137374735Y2629735D01*
X137595526Y2448536D01*
X137847424Y2313894D01*
X138120750Y2230981D01*
X138333775Y2210000D01*
X139746225Y2210000D01*
X139959250Y2230981D01*
X140232576Y2313894D01*
X140484474Y2448536D01*
X140705265Y2629735D01*
X140886464Y2850526D01*
X141021106Y3102424D01*
X141104019Y3375750D01*
X141132015Y3660000D01*
X141104019Y3944250D01*
X141021106Y4217576D01*
X140886464Y4469474D01*
X140705265Y4690265D01*
X140484474Y4871464D01*
X140232576Y5006106D01*
X139959250Y5089019D01*
X139746225Y5110000D01*
X138711572Y5110000D01*
X137831582Y5989990D01*
X149887910Y5989990D01*
X148961875Y5063955D01*
X148879250Y5089019D01*
X148666225Y5110000D01*
X147253775Y5110000D01*
X147040750Y5089019D01*
X146767424Y5006106D01*
X146515526Y4871464D01*
X146294735Y4690265D01*
X146113536Y4469474D01*
X145978894Y4217576D01*
X145895981Y3944250D01*
X145867985Y3660000D01*
X145895981Y3375750D01*
X145978894Y3102424D01*
X146113536Y2850526D01*
X146294735Y2629735D01*
X146515526Y2448536D01*
X146767424Y2313894D01*
X147040750Y2230981D01*
X147253775Y2210000D01*
X148666225Y2210000D01*
X148879250Y2230981D01*
X149152576Y2313894D01*
X149404474Y2448536D01*
X149625265Y2629735D01*
X149806464Y2850526D01*
X149941106Y3102424D01*
X150024019Y3375750D01*
X150052015Y3660000D01*
X150043951Y3741871D01*
X154877041Y8574960D01*
X160984470Y8574960D01*
X161828479Y7730949D01*
X161828490Y7730940D01*
X163530957Y6028471D01*
X163557571Y5996042D01*
X163687000Y5889822D01*
X163834664Y5810893D01*
X163994889Y5762290D01*
X164010532Y5760749D01*
X164119770Y5749990D01*
X164119777Y5749990D01*
X164161518Y5745879D01*
X164203259Y5749990D01*
X167696740Y5749990D01*
X167738481Y5745879D01*
X167780222Y5749990D01*
X167780230Y5749990D01*
X167905110Y5762290D01*
X168065336Y5810893D01*
X168213000Y5889822D01*
X168342429Y5996042D01*
X168369047Y6028476D01*
X171215531Y8874960D01*
X177625980Y8874960D01*
X179213890Y7287049D01*
X179289832Y7144973D01*
X179396052Y7015543D01*
X179428486Y6988925D01*
X182107987Y4309423D01*
X182058894Y4217576D01*
X181975981Y3944250D01*
X181947985Y3660000D01*
X181975981Y3375750D01*
X182058894Y3102424D01*
X182193536Y2850526D01*
X182374735Y2629735D01*
X182595526Y2448536D01*
X182847424Y2313894D01*
X183120750Y2230981D01*
X183333775Y2210000D01*
X184746225Y2210000D01*
X184959250Y2230981D01*
X185232576Y2313894D01*
X185484474Y2448536D01*
X185705265Y2629735D01*
X185886464Y2850526D01*
X186021106Y3102424D01*
X186104019Y3375750D01*
X186132015Y3660000D01*
X190867985Y3660000D01*
X190895981Y3375750D01*
X190978894Y3102424D01*
X191113536Y2850526D01*
X191294735Y2629735D01*
X191515526Y2448536D01*
X191767424Y2313894D01*
X192040750Y2230981D01*
X192253775Y2210000D01*
X193666225Y2210000D01*
X193879250Y2230981D01*
X194152576Y2313894D01*
X194404474Y2448536D01*
X194625265Y2629735D01*
X194806464Y2850526D01*
X194941106Y3102424D01*
X195024019Y3375750D01*
X195052015Y3660000D01*
X195024019Y3944250D01*
X194941106Y4217576D01*
X194806464Y4469474D01*
X194625265Y4690265D01*
X194404474Y4871464D01*
X194152576Y5006106D01*
X193879250Y5089019D01*
X193666225Y5110000D01*
X192253775Y5110000D01*
X192040750Y5089019D01*
X191767424Y5006106D01*
X191515526Y4871464D01*
X191294735Y4690265D01*
X191113536Y4469474D01*
X190978894Y4217576D01*
X190895981Y3944250D01*
X190867985Y3660000D01*
X186132015Y3660000D01*
X186104019Y3944250D01*
X186021106Y4217576D01*
X185886464Y4469474D01*
X185705265Y4690265D01*
X185484474Y4871464D01*
X185232576Y5006106D01*
X184959250Y5089019D01*
X184746225Y5110000D01*
X183711572Y5110000D01*
X182831582Y5989990D01*
X185420268Y5989990D01*
X185462009Y5985879D01*
X185503750Y5989990D01*
X185503758Y5989990D01*
X185628638Y6002290D01*
X185788864Y6050893D01*
X185936528Y6129822D01*
X186065957Y6236042D01*
X186092575Y6268476D01*
X188564100Y8740000D01*
X190867985Y8740000D01*
X190895981Y8455750D01*
X190978894Y8182424D01*
X191113536Y7930526D01*
X191294735Y7709735D01*
X191515526Y7528536D01*
X191767424Y7393894D01*
X192040750Y7310981D01*
X192253775Y7290000D01*
X193666225Y7290000D01*
X193879250Y7310981D01*
X194152576Y7393894D01*
X194404474Y7528536D01*
X194625265Y7709735D01*
X194806464Y7930526D01*
X194941106Y8182424D01*
X195024019Y8455750D01*
X195052015Y8740000D01*
X195024019Y9024250D01*
X194941106Y9297576D01*
X194806464Y9549474D01*
X194625265Y9770265D01*
X194404474Y9951464D01*
X194152576Y10086106D01*
X193879250Y10169019D01*
X193666225Y10190000D01*
X192253775Y10190000D01*
X192040750Y10169019D01*
X191767424Y10086106D01*
X191515526Y9951464D01*
X191294735Y9770265D01*
X191113536Y9549474D01*
X190978894Y9297576D01*
X190895981Y9024250D01*
X190867985Y8740000D01*
X188564100Y8740000D01*
X189082529Y9258428D01*
X189114958Y9285042D01*
X189221178Y9414471D01*
X189300107Y9562135D01*
X189303127Y9572092D01*
X189348710Y9722360D01*
X189355373Y9790010D01*
X189361010Y9847241D01*
X189361010Y9847248D01*
X189365121Y9888989D01*
X189361010Y9930730D01*
X189361010Y10599360D01*
X190949416Y12187765D01*
X190983919Y12216081D01*
X191010537Y12248515D01*
X194321524Y15559501D01*
X194353947Y15586110D01*
X194380556Y15618533D01*
X194380561Y15618538D01*
X194460168Y15715539D01*
X194539097Y15863203D01*
X194587700Y16023429D01*
X194604111Y16190058D01*
X194599999Y16231809D01*
X194600001Y19248260D01*
X194604112Y19290002D01*
X194600001Y19331743D01*
X194600001Y19331749D01*
X194589564Y19437719D01*
X194587701Y19456631D01*
X194539098Y19616856D01*
X194491721Y19705490D01*
X194460169Y19764519D01*
X194433539Y19796968D01*
X194380562Y19861521D01*
X194380558Y19861525D01*
X194353949Y19893948D01*
X194321526Y19920557D01*
X193301693Y20940389D01*
X193301693Y21850000D01*
X193294935Y21918612D01*
X193274922Y21984587D01*
X193242422Y22045390D01*
X193198685Y22098685D01*
X193145390Y22142422D01*
X193084587Y22174922D01*
X193018612Y22194935D01*
X192950000Y22201693D01*
X189950000Y22201693D01*
X189881388Y22194935D01*
X189815413Y22174922D01*
X189754610Y22142422D01*
X189701315Y22098685D01*
X189657578Y22045390D01*
X189625078Y21984587D01*
X189605065Y21918612D01*
X189598307Y21850000D01*
X189598307Y20350000D01*
X189605065Y20281388D01*
X189625078Y20215413D01*
X189657578Y20154610D01*
X189701315Y20101315D01*
X189754610Y20057578D01*
X189815413Y20025078D01*
X189881388Y20005065D01*
X189950000Y19998307D01*
X191839615Y19998307D01*
X192836228Y19001693D01*
X189950000Y19001693D01*
X189881388Y18994935D01*
X189815413Y18974922D01*
X189754610Y18942422D01*
X189701315Y18898685D01*
X189657578Y18845390D01*
X189625078Y18784587D01*
X189605065Y18718612D01*
X189598307Y18650000D01*
X189598307Y17150000D01*
X189605065Y17081388D01*
X189625078Y17015413D01*
X189657578Y16954610D01*
X189701315Y16901315D01*
X189754610Y16857578D01*
X189815413Y16825078D01*
X189881388Y16805065D01*
X189950000Y16798307D01*
X191317306Y16798307D01*
X190693053Y16174053D01*
X190680258Y16180892D01*
X190567384Y16215132D01*
X190450000Y16226693D01*
X189525000Y16226693D01*
X189407616Y16215132D01*
X189294742Y16180892D01*
X189190717Y16125289D01*
X189099539Y16050461D01*
X189024711Y15959283D01*
X188969108Y15855258D01*
X188934868Y15742384D01*
X188923307Y15625000D01*
X188923307Y14404308D01*
X187169000Y12650000D01*
X181770571Y12650000D01*
X180224067Y14196504D01*
X180197449Y14228938D01*
X180068020Y14335158D01*
X179920356Y14414087D01*
X179897961Y14420880D01*
X182527082Y17050000D01*
X183714586Y17050000D01*
X183725078Y17015413D01*
X183757578Y16954610D01*
X183801315Y16901315D01*
X183854610Y16857578D01*
X183915413Y16825078D01*
X183981388Y16805065D01*
X184050000Y16798307D01*
X187050000Y16798307D01*
X187118612Y16805065D01*
X187184587Y16825078D01*
X187245390Y16857578D01*
X187298685Y16901315D01*
X187342422Y16954610D01*
X187374922Y17015413D01*
X187394935Y17081388D01*
X187401693Y17150000D01*
X187401693Y18650000D01*
X187394935Y18718612D01*
X187374922Y18784587D01*
X187342422Y18845390D01*
X187298685Y18898685D01*
X187245390Y18942422D01*
X187184587Y18974922D01*
X187118612Y18994935D01*
X187050000Y19001693D01*
X184050000Y19001693D01*
X183981388Y18994935D01*
X183915413Y18974922D01*
X183854610Y18942422D01*
X183801315Y18898685D01*
X183757578Y18845390D01*
X183725078Y18784587D01*
X183714586Y18750000D01*
X182216737Y18750000D01*
X182174999Y18754111D01*
X182133261Y18750000D01*
X182133251Y18750000D01*
X182008371Y18737700D01*
X181848145Y18689097D01*
X181700481Y18610168D01*
X181686555Y18598739D01*
X181603479Y18530561D01*
X181603477Y18530559D01*
X181571052Y18503948D01*
X181544443Y18471525D01*
X178847920Y15775000D01*
X172504062Y15775000D01*
X169107528Y19171534D01*
X169080910Y19203968D01*
X168951481Y19310188D01*
X168803817Y19389117D01*
X168643591Y19437720D01*
X168518711Y19450020D01*
X168518703Y19450020D01*
X168476962Y19454131D01*
X168435221Y19450020D01*
X163564776Y19450020D01*
X163523038Y19454131D01*
X163481300Y19450020D01*
X163481290Y19450020D01*
X163356410Y19437720D01*
X163196184Y19389117D01*
X163048520Y19310188D01*
X163036106Y19300000D01*
X162951518Y19230581D01*
X162951514Y19230577D01*
X162919091Y19203968D01*
X162892482Y19171545D01*
X159195940Y15475000D01*
X153927081Y15475000D01*
X148301693Y21100387D01*
X148301693Y21850000D01*
X148294935Y21918612D01*
X148274922Y21984587D01*
X148242422Y22045390D01*
X148198685Y22098685D01*
X148145390Y22142422D01*
X148084587Y22174922D01*
X148018612Y22194935D01*
X147950000Y22201693D01*
X144950000Y22201693D01*
X144881388Y22194935D01*
X144815413Y22174922D01*
X144754610Y22142422D01*
X144701315Y22098685D01*
X144657578Y22045390D01*
X144625078Y21984587D01*
X144605065Y21918612D01*
X144598307Y21850000D01*
X144598307Y20350000D01*
X144605065Y20281388D01*
X144625078Y20215413D01*
X144657578Y20154610D01*
X144701315Y20101315D01*
X144754610Y20057578D01*
X144815413Y20025078D01*
X144881388Y20005065D01*
X144950000Y19998307D01*
X146999613Y19998307D01*
X148001277Y18996642D01*
X147950000Y19001693D01*
X144950000Y19001693D01*
X144881388Y18994935D01*
X144815413Y18974922D01*
X144754610Y18942422D01*
X144701315Y18898685D01*
X144657578Y18845390D01*
X144625078Y18784587D01*
X144605065Y18718612D01*
X144598307Y18650000D01*
X144598307Y17150000D01*
X144605065Y17081388D01*
X144625078Y17015413D01*
X144655015Y16959404D01*
X144564843Y16849529D01*
X144535803Y16795200D01*
X144485913Y16701864D01*
X144437310Y16541639D01*
X144420899Y16375010D01*
X144425011Y16333259D01*
X144425011Y16216845D01*
X144407616Y16215132D01*
X144294742Y16180892D01*
X144190717Y16125289D01*
X144099539Y16050461D01*
X144024711Y15959283D01*
X143969108Y15855258D01*
X143934868Y15742384D01*
X143923307Y15625000D01*
X143923307Y14375000D01*
X143934868Y14257616D01*
X143959932Y14174990D01*
X133877070Y14174990D01*
X136752082Y17050000D01*
X138714586Y17050000D01*
X138725078Y17015413D01*
X138757578Y16954610D01*
X138801315Y16901315D01*
X138854610Y16857578D01*
X138915413Y16825078D01*
X138981388Y16805065D01*
X139050000Y16798307D01*
X142050000Y16798307D01*
X142118612Y16805065D01*
X142184587Y16825078D01*
X142245390Y16857578D01*
X142298685Y16901315D01*
X142342422Y16954610D01*
X142374922Y17015413D01*
X142394935Y17081388D01*
X142401693Y17150000D01*
X142401693Y18650000D01*
X142394935Y18718612D01*
X142374922Y18784587D01*
X142342422Y18845390D01*
X142298685Y18898685D01*
X142245390Y18942422D01*
X142184587Y18974922D01*
X142118612Y18994935D01*
X142050000Y19001693D01*
X139050000Y19001693D01*
X138981388Y18994935D01*
X138915413Y18974922D01*
X138854610Y18942422D01*
X138801315Y18898685D01*
X138757578Y18845390D01*
X138725078Y18784587D01*
X138714586Y18750000D01*
X136441737Y18750000D01*
X136399999Y18754111D01*
X136358261Y18750000D01*
X136358251Y18750000D01*
X136233371Y18737700D01*
X136073145Y18689097D01*
X135925481Y18610168D01*
X135911555Y18598739D01*
X135828479Y18530561D01*
X135828477Y18530559D01*
X135796052Y18503948D01*
X135769443Y18471525D01*
X132772920Y15475000D01*
X127804062Y15475000D01*
X124307528Y18971534D01*
X124280910Y19003968D01*
X124151481Y19110188D01*
X124003817Y19189117D01*
X123843591Y19237720D01*
X123718711Y19250020D01*
X123718703Y19250020D01*
X123676962Y19254131D01*
X123635221Y19250020D01*
X118004780Y19250020D01*
X117963039Y19254131D01*
X117921298Y19250020D01*
X117921290Y19250020D01*
X117810710Y19239128D01*
X117796409Y19237720D01*
X117685142Y19203968D01*
X117636184Y19189117D01*
X117488520Y19110188D01*
X117359091Y19003968D01*
X117332478Y18971539D01*
X113820950Y15460010D01*
X110322071Y15460010D01*
X104170566Y21611514D01*
X104143948Y21643948D01*
X104014519Y21750168D01*
X103866855Y21829097D01*
X103706629Y21877700D01*
X103581749Y21890000D01*
X103581741Y21890000D01*
X103540000Y21894111D01*
X103498259Y21890000D01*
X103297753Y21890000D01*
X103294935Y21918612D01*
X103274922Y21984587D01*
X103242422Y22045390D01*
X103198685Y22098685D01*
X103145390Y22142422D01*
X103084587Y22174922D01*
X103018612Y22194935D01*
X102950000Y22201693D01*
X99950000Y22201693D01*
X99881388Y22194935D01*
X99815413Y22174922D01*
X99754610Y22142422D01*
X99701315Y22098685D01*
X99657578Y22045390D01*
X99625078Y21984587D01*
X99605065Y21918612D01*
X99598307Y21850000D01*
X99598307Y20350000D01*
X99605065Y20281388D01*
X99625078Y20215413D01*
X99657578Y20154610D01*
X99701315Y20101315D01*
X99754610Y20057578D01*
X99815413Y20025078D01*
X99881388Y20005065D01*
X99950000Y19998307D01*
X102950000Y19998307D01*
X103018612Y20005065D01*
X103084587Y20025078D01*
X103145390Y20057578D01*
X103198685Y20101315D01*
X103233807Y20144113D01*
X109217919Y14160000D01*
X101300507Y14160000D01*
X101291639Y14162690D01*
X101166759Y14174990D01*
X101166751Y14174990D01*
X101125010Y14179101D01*
X101083269Y14174990D01*
X101015068Y14174990D01*
X101040132Y14257616D01*
X101051693Y14375000D01*
X101051693Y15625000D01*
X101040132Y15742384D01*
X101024848Y15792768D01*
X102030388Y16798307D01*
X102950000Y16798307D01*
X103018612Y16805065D01*
X103084587Y16825078D01*
X103145390Y16857578D01*
X103198685Y16901315D01*
X103242422Y16954610D01*
X103274922Y17015413D01*
X103294935Y17081388D01*
X103301693Y17150000D01*
X103301693Y18650000D01*
X103294935Y18718612D01*
X103274922Y18784587D01*
X103242422Y18845390D01*
X103198685Y18898685D01*
X103145390Y18942422D01*
X103084587Y18974922D01*
X103018612Y18994935D01*
X102950000Y19001693D01*
X99950000Y19001693D01*
X99881388Y18994935D01*
X99815413Y18974922D01*
X99754610Y18942422D01*
X99701315Y18898685D01*
X99657578Y18845390D01*
X99625078Y18784587D01*
X99605065Y18718612D01*
X99598307Y18650000D01*
X99598307Y17150000D01*
X99605065Y17081388D01*
X99625078Y17015413D01*
X99657578Y16954610D01*
X99701315Y16901315D01*
X99716650Y16888730D01*
X99415981Y16588061D01*
X99383553Y16561448D01*
X99277333Y16432019D01*
X99246861Y16375010D01*
X99198403Y16284354D01*
X99149800Y16124129D01*
X99146326Y16088858D01*
X99099539Y16050461D01*
X99024711Y15959283D01*
X98969108Y15855258D01*
X98934868Y15742384D01*
X98923307Y15625000D01*
X98923307Y14375000D01*
X98934868Y14257616D01*
X98959932Y14174990D01*
X92867070Y14174990D01*
X95490389Y16798307D01*
X97050000Y16798307D01*
X97118612Y16805065D01*
X97184587Y16825078D01*
X97245390Y16857578D01*
X97298685Y16901315D01*
X97342422Y16954610D01*
X97374922Y17015413D01*
X97394935Y17081388D01*
X97401693Y17150000D01*
X97401693Y18650000D01*
X97394935Y18718612D01*
X97374922Y18784587D01*
X97342422Y18845390D01*
X97298685Y18898685D01*
X97245390Y18942422D01*
X97184587Y18974922D01*
X97118612Y18994935D01*
X97050000Y19001693D01*
X94050000Y19001693D01*
X93981388Y18994935D01*
X93915413Y18974922D01*
X93854610Y18942422D01*
X93801315Y18898685D01*
X93757578Y18845390D01*
X93725078Y18784587D01*
X93705065Y18718612D01*
X93698307Y18650000D01*
X93698307Y17410388D01*
X91762920Y15475000D01*
X82664062Y15475000D01*
X79127528Y19011534D01*
X79100910Y19043968D01*
X78971481Y19150188D01*
X78823817Y19229117D01*
X78663591Y19277720D01*
X78538711Y19290020D01*
X78538703Y19290020D01*
X78496962Y19294131D01*
X78455221Y19290020D01*
X73354780Y19290020D01*
X73313039Y19294131D01*
X73271298Y19290020D01*
X73271290Y19290020D01*
X73146410Y19277720D01*
X72986184Y19229117D01*
X72838520Y19150188D01*
X72709091Y19043968D01*
X72682477Y19011539D01*
X72175939Y18505000D01*
X67277082Y18505000D01*
X64130566Y21651514D01*
X64103948Y21683948D01*
X63974519Y21790168D01*
X63826855Y21869097D01*
X63666629Y21917700D01*
X63541749Y21930000D01*
X63541741Y21930000D01*
X63500000Y21934111D01*
X63458259Y21930000D01*
X58291481Y21930000D01*
X58274922Y21984587D01*
X58242422Y22045390D01*
X58198685Y22098685D01*
X58145390Y22142422D01*
X58084587Y22174922D01*
X58018612Y22194935D01*
X57950000Y22201693D01*
X54950000Y22201693D01*
X54881388Y22194935D01*
X54815413Y22174922D01*
X54754610Y22142422D01*
X54701315Y22098685D01*
X54657578Y22045390D01*
X54625078Y21984587D01*
X54605065Y21918612D01*
X54598307Y21850000D01*
X54598307Y20350000D01*
X54605065Y20281388D01*
X54625078Y20215413D01*
X54657578Y20154610D01*
X54701315Y20101315D01*
X54754610Y20057578D01*
X54815413Y20025078D01*
X54881388Y20005065D01*
X54950000Y19998307D01*
X57950000Y19998307D01*
X58018612Y20005065D01*
X58084587Y20025078D01*
X58145390Y20057578D01*
X58198685Y20101315D01*
X58242422Y20154610D01*
X58274922Y20215413D01*
X58279347Y20230000D01*
X63147920Y20230000D01*
X66172928Y17204990D01*
X63664169Y17204990D01*
X63622431Y17209101D01*
X63580693Y17204990D01*
X63580683Y17204990D01*
X63530010Y17199999D01*
X60776054Y17199999D01*
X60802632Y17287616D01*
X60814193Y17405000D01*
X60814193Y18655000D01*
X60802632Y18772384D01*
X60768392Y18885258D01*
X60712789Y18989283D01*
X60637961Y19080461D01*
X60546783Y19155289D01*
X60442758Y19210892D01*
X60329884Y19245132D01*
X60212500Y19256693D01*
X59287500Y19256693D01*
X59170116Y19245132D01*
X59057242Y19210892D01*
X58953217Y19155289D01*
X58862039Y19080461D01*
X58787211Y18989283D01*
X58731608Y18885258D01*
X58697368Y18772384D01*
X58688269Y18680000D01*
X58298738Y18680000D01*
X58294935Y18718612D01*
X58274922Y18784587D01*
X58242422Y18845390D01*
X58198685Y18898685D01*
X58145390Y18942422D01*
X58084587Y18974922D01*
X58018612Y18994935D01*
X57950000Y19001693D01*
X54950000Y19001693D01*
X54881388Y18994935D01*
X54815413Y18974922D01*
X54754610Y18942422D01*
X54701315Y18898685D01*
X54657578Y18845390D01*
X54625078Y18784587D01*
X54605065Y18718612D01*
X54598307Y18650000D01*
X54598307Y17199999D01*
X52401693Y17199999D01*
X52401693Y18650000D01*
X52394935Y18718612D01*
X52374922Y18784587D01*
X52342422Y18845390D01*
X52298685Y18898685D01*
X52245390Y18942422D01*
X52184587Y18974922D01*
X52118612Y18994935D01*
X52050000Y19001693D01*
X49300388Y19001693D01*
X48647519Y19654562D01*
X48650000Y19667037D01*
X48650000Y19932963D01*
X48598120Y20193780D01*
X48496354Y20439465D01*
X48348613Y20660575D01*
X48160575Y20848613D01*
X47939465Y20996354D01*
X47693780Y21098120D01*
X47432963Y21150000D01*
X47167037Y21150000D01*
X46906220Y21098120D01*
X46660535Y20996354D01*
X46439425Y20848613D01*
X46251387Y20660575D01*
X46103646Y20439465D01*
X46001880Y20193780D01*
X45950000Y19932963D01*
X45950000Y19839637D01*
X43500024Y22289612D01*
X43465572Y22331592D01*
X43298075Y22469053D01*
X43106979Y22571195D01*
X42899629Y22634095D01*
X42738027Y22650011D01*
X42738025Y22650011D01*
X42683991Y22655333D01*
X42629957Y22650011D01*
X36500225Y22650011D01*
X36484973Y22686833D01*
X36326289Y22924321D01*
X36124321Y23126289D01*
X35886833Y23284973D01*
X35622949Y23394277D01*
X35342813Y23450000D01*
X35057187Y23450000D01*
X34777051Y23394277D01*
X34513167Y23284973D01*
X34275679Y23126289D01*
X34073711Y22924321D01*
X33930000Y22709242D01*
X33786289Y22924321D01*
X33584321Y23126289D01*
X33346833Y23284973D01*
X33082949Y23394277D01*
X32802813Y23450000D01*
X32517187Y23450000D01*
X32237051Y23394277D01*
X31973167Y23284973D01*
X31735679Y23126289D01*
X31533711Y22924321D01*
X31375027Y22686833D01*
X31265723Y22422949D01*
X31210000Y22142813D01*
X31210000Y21878663D01*
X29030000Y21859198D01*
X29030000Y22142813D01*
X28974277Y22422949D01*
X28864973Y22686833D01*
X28706289Y22924321D01*
X28504321Y23126289D01*
X28266833Y23284973D01*
X28002949Y23394277D01*
X27722813Y23450000D01*
X27437187Y23450000D01*
X27157051Y23394277D01*
X26893167Y23284973D01*
X26655679Y23126289D01*
X26453711Y22924321D01*
X26310000Y22709242D01*
X26166289Y22924321D01*
X25964321Y23126289D01*
X25726833Y23284973D01*
X25462949Y23394277D01*
X25182813Y23450000D01*
X24897187Y23450000D01*
X24617051Y23394277D01*
X24353167Y23284973D01*
X24115679Y23126289D01*
X23913711Y22924321D01*
X23770000Y22709242D01*
X23626289Y22924321D01*
X23424321Y23126289D01*
X23186833Y23284973D01*
X22922949Y23394277D01*
X22642813Y23450000D01*
X22357187Y23450000D01*
X22077051Y23394277D01*
X21813167Y23284973D01*
X21575679Y23126289D01*
X21549390Y23100000D01*
X17929188Y23100000D01*
X17890575Y23138613D01*
X17669465Y23286354D01*
X17423780Y23388120D01*
X17162963Y23440000D01*
X16897037Y23440000D01*
X16636220Y23388120D01*
X16390535Y23286354D01*
X16169425Y23138613D01*
X15981387Y22950575D01*
X15833646Y22729465D01*
X15731880Y22483780D01*
X15680000Y22222963D01*
X15680000Y21957037D01*
X15731880Y21696220D01*
X15833646Y21450535D01*
X15981387Y21229425D01*
X16169425Y21041387D01*
X16390535Y20893646D01*
X16636220Y20791880D01*
X16897037Y20740000D01*
X17162963Y20740000D01*
X17423780Y20791880D01*
X17669465Y20893646D01*
X17678974Y20900000D01*
X18016331Y20900000D01*
X17939425Y20848613D01*
X17751387Y20660575D01*
X17603646Y20439465D01*
X17599725Y20430000D01*
X16580572Y20430000D01*
X15639047Y21371524D01*
X15612429Y21403958D01*
X15483000Y21510178D01*
X15335336Y21589107D01*
X15175110Y21637710D01*
X15050230Y21650010D01*
X15050222Y21650010D01*
X15008481Y21654121D01*
X14966740Y21650010D01*
X13301693Y21650010D01*
X13301693Y21850000D01*
X13294935Y21918612D01*
X13274922Y21984587D01*
X13242422Y22045390D01*
X13198685Y22098685D01*
X13145390Y22142422D01*
X13084587Y22174922D01*
X13018612Y22194935D01*
X12950000Y22201693D01*
X9950000Y22201693D01*
X9881388Y22194935D01*
X9815413Y22174922D01*
X9754610Y22142422D01*
X9701315Y22098685D01*
X9657578Y22045390D01*
X9625078Y21984587D01*
X9605065Y21918612D01*
X9598307Y21850000D01*
X9598307Y20350000D01*
X7052613Y20350000D01*
X6927733Y20337700D01*
X6767507Y20289097D01*
X6619843Y20210168D01*
X6490414Y20103948D01*
X6384194Y19974519D01*
X6305265Y19826855D01*
X6283708Y19755790D01*
X5529613Y19001693D01*
X4050000Y19001693D01*
X3981388Y18994935D01*
X3915413Y18974922D01*
X3854610Y18942422D01*
X3801315Y18898685D01*
X3757578Y18845390D01*
X3725078Y18784587D01*
X3705065Y18718612D01*
X3698307Y18650000D01*
X185000Y18650000D01*
X185000Y24815000D01*
X196815001Y24815000D01*
X196815000Y185000D01*
G37*
X196815000Y185000D02*
X185000Y185000D01*
X185000Y3660000D01*
X1947985Y3660000D01*
X1975981Y3375750D01*
X2058894Y3102424D01*
X2193536Y2850526D01*
X2374735Y2629735D01*
X2595526Y2448536D01*
X2847424Y2313894D01*
X3120750Y2230981D01*
X3333775Y2210000D01*
X4746225Y2210000D01*
X4959250Y2230981D01*
X5232576Y2313894D01*
X5484474Y2448536D01*
X5705265Y2629735D01*
X5886464Y2850526D01*
X6021106Y3102424D01*
X6104019Y3375750D01*
X6132015Y3660000D01*
X6104019Y3944250D01*
X6021106Y4217576D01*
X5886464Y4469474D01*
X5705265Y4690265D01*
X5484474Y4871464D01*
X5232576Y5006106D01*
X4959250Y5089019D01*
X4746225Y5110000D01*
X3333775Y5110000D01*
X3120750Y5089019D01*
X2847424Y5006106D01*
X2595526Y4871464D01*
X2374735Y4690265D01*
X2193536Y4469474D01*
X2058894Y4217576D01*
X1975981Y3944250D01*
X1947985Y3660000D01*
X185000Y3660000D01*
X185000Y8740000D01*
X1947985Y8740000D01*
X1975981Y8455750D01*
X2058894Y8182424D01*
X2193536Y7930526D01*
X2374735Y7709735D01*
X2595526Y7528536D01*
X2847424Y7393894D01*
X3120750Y7310981D01*
X3333775Y7290000D01*
X4746225Y7290000D01*
X4959250Y7310981D01*
X5232576Y7393894D01*
X5484474Y7528536D01*
X5705265Y7709735D01*
X5886464Y7930526D01*
X6021106Y8182424D01*
X6104019Y8455750D01*
X6132015Y8740000D01*
X6104019Y9024250D01*
X6021106Y9297576D01*
X5886464Y9549474D01*
X5705265Y9770265D01*
X5484474Y9951464D01*
X5232576Y10086106D01*
X4959250Y10169019D01*
X4746225Y10190000D01*
X3333775Y10190000D01*
X3120750Y10169019D01*
X2847424Y10086106D01*
X2595526Y9951464D01*
X2374735Y9770265D01*
X2193536Y9549474D01*
X2058894Y9297576D01*
X1975981Y9024250D01*
X1947985Y8740000D01*
X185000Y8740000D01*
X185000Y14132963D01*
X1650000Y14132963D01*
X1650000Y13867037D01*
X1701880Y13606220D01*
X1803646Y13360535D01*
X1951387Y13139425D01*
X2139425Y12951387D01*
X2360535Y12803646D01*
X2606220Y12701880D01*
X2867037Y12650000D01*
X3132963Y12650000D01*
X3393780Y12701880D01*
X3639465Y12803646D01*
X3860575Y12951387D01*
X4048613Y13139425D01*
X4196354Y13360535D01*
X4298120Y13606220D01*
X4350000Y13867037D01*
X4350000Y14132963D01*
X4298120Y14393780D01*
X4196354Y14639465D01*
X4048613Y14860575D01*
X3860575Y15048613D01*
X3639465Y15196354D01*
X3393780Y15298120D01*
X3132963Y15350000D01*
X2867037Y15350000D01*
X2606220Y15298120D01*
X2360535Y15196354D01*
X2139425Y15048613D01*
X1951387Y14860575D01*
X1803646Y14639465D01*
X1701880Y14393780D01*
X1650000Y14132963D01*
X185000Y14132963D01*
X185000Y18650000D01*
X3698307Y18650000D01*
X3698307Y17150000D01*
X3705065Y17081388D01*
X3725078Y17015413D01*
X3757578Y16954610D01*
X3801315Y16901315D01*
X3854610Y16857578D01*
X3915413Y16825078D01*
X3981388Y16805065D01*
X4050000Y16798307D01*
X7050000Y16798307D01*
X7118612Y16805065D01*
X7184587Y16825078D01*
X7245390Y16857578D01*
X7298685Y16901315D01*
X7342422Y16954610D01*
X7374922Y17015413D01*
X7394935Y17081388D01*
X7401693Y17150000D01*
X7401693Y18441033D01*
X7610661Y18650000D01*
X9598307Y18650000D01*
X9598307Y17150000D01*
X9605065Y17081388D01*
X9625078Y17015413D01*
X9657578Y16954610D01*
X9701315Y16901315D01*
X9754610Y16857578D01*
X9815413Y16825078D01*
X9881388Y16805065D01*
X9950000Y16798307D01*
X11999613Y16798307D01*
X12267930Y16529989D01*
X11587942Y15850000D01*
X11007487Y15850000D01*
X11005892Y15855258D01*
X10950289Y15959283D01*
X10875461Y16050461D01*
X10784283Y16125289D01*
X10680258Y16180892D01*
X10567384Y16215132D01*
X10450000Y16226693D01*
X9525000Y16226693D01*
X9407616Y16215132D01*
X9294742Y16180892D01*
X9190717Y16125289D01*
X9099539Y16050461D01*
X9024711Y15959283D01*
X8969108Y15855258D01*
X8934868Y15742384D01*
X8923307Y15625000D01*
X8923307Y14375000D01*
X8934868Y14257616D01*
X8969108Y14144742D01*
X9024711Y14040717D01*
X9099539Y13949539D01*
X9190717Y13874711D01*
X9294742Y13819108D01*
X9407616Y13784868D01*
X9525000Y13773307D01*
X10450000Y13773307D01*
X10567384Y13784868D01*
X10680258Y13819108D01*
X10784283Y13874711D01*
X10875461Y13949539D01*
X10950289Y14040717D01*
X11005892Y14144742D01*
X11007487Y14150000D01*
X11898281Y14150000D01*
X11940022Y14145889D01*
X11981763Y14150000D01*
X11981771Y14150000D01*
X12106651Y14162300D01*
X12266877Y14210903D01*
X12414541Y14289832D01*
X12543970Y14396052D01*
X12570588Y14428486D01*
X13822092Y15679989D01*
X21388248Y15679989D01*
X21429989Y15675878D01*
X21471730Y15679989D01*
X23088270Y15679989D01*
X23130011Y15675878D01*
X23171752Y15679989D01*
X23171760Y15679989D01*
X23296640Y15692289D01*
X23303538Y15694381D01*
X23969438Y15028481D01*
X23996052Y14996052D01*
X24125481Y14889832D01*
X24273145Y14810903D01*
X24433371Y14762300D01*
X24558251Y14750000D01*
X24558259Y14750000D01*
X24600000Y14745889D01*
X24641741Y14750000D01*
X33958297Y14750000D01*
X34000038Y14745889D01*
X34041779Y14750000D01*
X34041787Y14750000D01*
X34166667Y14762300D01*
X34326893Y14810903D01*
X34474557Y14889832D01*
X34603986Y14996052D01*
X34630604Y15028486D01*
X35310019Y15707900D01*
X35342448Y15734514D01*
X35448668Y15863943D01*
X35499350Y15958762D01*
X36090570Y16549981D01*
X38483937Y16549981D01*
X39133928Y15899989D01*
X37508240Y15899989D01*
X37383360Y15887689D01*
X37223134Y15839086D01*
X37075470Y15760157D01*
X36946041Y15653937D01*
X36839821Y15524508D01*
X36812231Y15472891D01*
X32639331Y11299990D01*
X32042813Y11299990D01*
X32050000Y13599844D01*
X32048935Y13610266D01*
X32045992Y13619616D01*
X32041281Y13628211D01*
X32034984Y13635723D01*
X32027343Y13641861D01*
X32018651Y13646391D01*
X32009242Y13649138D01*
X31999478Y13649997D01*
X22424478Y13549997D01*
X22415859Y13549157D01*
X22406445Y13546430D01*
X22397743Y13541917D01*
X22390089Y13535794D01*
X22383777Y13528296D01*
X22379049Y13519710D01*
X22376086Y13510367D01*
X22375004Y13500625D01*
X22359871Y12290000D01*
X16781741Y12290000D01*
X16740000Y12294111D01*
X16698259Y12290000D01*
X16698251Y12290000D01*
X16573371Y12277700D01*
X16413145Y12229097D01*
X16265481Y12150168D01*
X16168480Y12070562D01*
X16168475Y12070557D01*
X16136052Y12043948D01*
X16109443Y12011525D01*
X14173071Y10075151D01*
X14152576Y10086106D01*
X13879250Y10169019D01*
X13666225Y10190000D01*
X12253775Y10190000D01*
X12040750Y10169019D01*
X11767424Y10086106D01*
X11515526Y9951464D01*
X11294735Y9770265D01*
X11113536Y9549474D01*
X10978894Y9297576D01*
X10895981Y9024250D01*
X10867985Y8740000D01*
X10895981Y8455750D01*
X10978894Y8182424D01*
X11113536Y7930526D01*
X11294735Y7709735D01*
X11515526Y7528536D01*
X11767424Y7393894D01*
X12040750Y7310981D01*
X12253775Y7290000D01*
X13666225Y7290000D01*
X13879250Y7310981D01*
X14152576Y7393894D01*
X14404474Y7528536D01*
X14625265Y7709735D01*
X14806464Y7930526D01*
X14941106Y8182424D01*
X15024019Y8455750D01*
X15031250Y8529170D01*
X17092082Y10590000D01*
X22338621Y10590000D01*
X22325004Y9500625D01*
X22326065Y9489736D01*
X22329008Y9480386D01*
X22333718Y9471791D01*
X22340014Y9464279D01*
X22347655Y9458140D01*
X22356347Y9453609D01*
X22365756Y9450862D01*
X22375520Y9450003D01*
X24683383Y9474012D01*
X24707395Y9450000D01*
X24567037Y9450000D01*
X24306220Y9398120D01*
X24060535Y9296354D01*
X23839425Y9148613D01*
X23651387Y8960575D01*
X23503646Y8739465D01*
X23401880Y8493780D01*
X23350000Y8232963D01*
X23350000Y7967037D01*
X23401880Y7706220D01*
X23503646Y7460535D01*
X23590001Y7331296D01*
X23590000Y3850610D01*
X23563711Y3824321D01*
X23420000Y3609242D01*
X23276289Y3824321D01*
X23250000Y3850610D01*
X23250000Y5391161D01*
X23296354Y5460535D01*
X23398120Y5706220D01*
X23450000Y5967037D01*
X23450000Y6232963D01*
X23398120Y6493780D01*
X23296354Y6739465D01*
X23148613Y6960575D01*
X22960575Y7148613D01*
X22739465Y7296354D01*
X22493780Y7398120D01*
X22232963Y7450000D01*
X21967037Y7450000D01*
X21706220Y7398120D01*
X21460535Y7296354D01*
X21316331Y7200000D01*
X17809188Y7200000D01*
X17760575Y7248613D01*
X17539465Y7396354D01*
X17293780Y7498120D01*
X17032963Y7550000D01*
X16767037Y7550000D01*
X16506220Y7498120D01*
X16260535Y7396354D01*
X16041501Y7250000D01*
X15224034Y7250000D01*
X15170000Y7255322D01*
X15169999Y7255322D01*
X15115965Y7250000D01*
X15115964Y7250000D01*
X14954362Y7234084D01*
X14747012Y7171184D01*
X14677602Y7134084D01*
X14555915Y7069042D01*
X14490727Y7015543D01*
X14388419Y6931581D01*
X14353971Y6889606D01*
X12574366Y5110000D01*
X12253775Y5110000D01*
X12040750Y5089019D01*
X11767424Y5006106D01*
X11515526Y4871464D01*
X11294735Y4690265D01*
X11113536Y4469474D01*
X10978894Y4217576D01*
X10895981Y3944250D01*
X10867985Y3660000D01*
X10895981Y3375750D01*
X10978894Y3102424D01*
X11113536Y2850526D01*
X11294735Y2629735D01*
X11515526Y2448536D01*
X11767424Y2313894D01*
X12040750Y2230981D01*
X12253775Y2210000D01*
X13666225Y2210000D01*
X13879250Y2230981D01*
X14152576Y2313894D01*
X14404474Y2448536D01*
X14625265Y2629735D01*
X14806464Y2850526D01*
X14941106Y3102424D01*
X15024019Y3375750D01*
X15052015Y3660000D01*
X15024019Y3944250D01*
X14941106Y4217576D01*
X14889590Y4313956D01*
X15575635Y5000000D01*
X16269337Y5000000D01*
X16506220Y4901880D01*
X16767037Y4850000D01*
X17032963Y4850000D01*
X17293780Y4901880D01*
X17530663Y5000000D01*
X21050001Y5000000D01*
X21050000Y3850610D01*
X21023711Y3824321D01*
X20865027Y3586833D01*
X20755723Y3322949D01*
X20700000Y3042813D01*
X20700000Y2757187D01*
X20755723Y2477051D01*
X20865027Y2213167D01*
X21023711Y1975679D01*
X21225679Y1773711D01*
X21463167Y1615027D01*
X21727051Y1505723D01*
X22007187Y1450000D01*
X22292813Y1450000D01*
X22572949Y1505723D01*
X22836833Y1615027D01*
X23074321Y1773711D01*
X23276289Y1975679D01*
X23420000Y2190758D01*
X23563711Y1975679D01*
X23765679Y1773711D01*
X24003167Y1615027D01*
X24267051Y1505723D01*
X24547187Y1450000D01*
X24832813Y1450000D01*
X25112949Y1505723D01*
X25376833Y1615027D01*
X25614321Y1773711D01*
X25816289Y1975679D01*
X25960000Y2190758D01*
X26103711Y1975679D01*
X26305679Y1773711D01*
X26543167Y1615027D01*
X26807051Y1505723D01*
X27087187Y1450000D01*
X27372813Y1450000D01*
X27652949Y1505723D01*
X27916833Y1615027D01*
X28154321Y1773711D01*
X28356289Y1975679D01*
X28514973Y2213167D01*
X28624277Y2477051D01*
X28680000Y2757187D01*
X28680000Y3042813D01*
X28624277Y3322949D01*
X28514973Y3586833D01*
X28356289Y3824321D01*
X28154321Y4026289D01*
X28080000Y4075949D01*
X28080000Y4103554D01*
X29176397Y5199950D01*
X33135866Y5199950D01*
X32378483Y4442565D01*
X32346051Y4415949D01*
X32291928Y4350000D01*
X32167187Y4350000D01*
X31887051Y4294277D01*
X31623167Y4184973D01*
X31385679Y4026289D01*
X31183711Y3824321D01*
X31025027Y3586833D01*
X30915723Y3322949D01*
X30860000Y3042813D01*
X30860000Y2757187D01*
X30915723Y2477051D01*
X31025027Y2213167D01*
X31183711Y1975679D01*
X31385679Y1773711D01*
X31623167Y1615027D01*
X31887051Y1505723D01*
X32167187Y1450000D01*
X32452813Y1450000D01*
X32732949Y1505723D01*
X32996833Y1615027D01*
X33234321Y1773711D01*
X33436289Y1975679D01*
X33580000Y2190758D01*
X33723711Y1975679D01*
X33925679Y1773711D01*
X34163167Y1615027D01*
X34427051Y1505723D01*
X34707187Y1450000D01*
X34992813Y1450000D01*
X35272949Y1505723D01*
X35536833Y1615027D01*
X35774321Y1773711D01*
X35976289Y1975679D01*
X36092760Y2149990D01*
X40652003Y2149990D01*
X40706037Y2144668D01*
X40760071Y2149990D01*
X40760073Y2149990D01*
X40921675Y2165906D01*
X41129025Y2228806D01*
X41320121Y2330948D01*
X41487618Y2468409D01*
X41522070Y2510389D01*
X43811682Y4800000D01*
X44496331Y4800000D01*
X44640535Y4703646D01*
X44659618Y4695741D01*
X44439425Y4548613D01*
X44251387Y4360575D01*
X44103646Y4139465D01*
X44001880Y3893780D01*
X43950000Y3632963D01*
X43950000Y3367037D01*
X44001880Y3106220D01*
X44103646Y2860535D01*
X44251387Y2639425D01*
X44439425Y2451387D01*
X44660535Y2303646D01*
X44906220Y2201880D01*
X45167037Y2150000D01*
X45432963Y2150000D01*
X45693780Y2201880D01*
X45939465Y2303646D01*
X46160575Y2451387D01*
X46269188Y2560000D01*
X47459707Y2560000D01*
X47595526Y2448536D01*
X47847424Y2313894D01*
X48120750Y2230981D01*
X48333775Y2210000D01*
X49746225Y2210000D01*
X49959250Y2230981D01*
X50232576Y2313894D01*
X50484474Y2448536D01*
X50705265Y2629735D01*
X50886464Y2850526D01*
X51021106Y3102424D01*
X51104019Y3375750D01*
X51132015Y3660000D01*
X51104019Y3944250D01*
X51021106Y4217576D01*
X50886464Y4469474D01*
X50705265Y4690265D01*
X50484474Y4871464D01*
X50232576Y5006106D01*
X49959250Y5089019D01*
X49746225Y5110000D01*
X48333775Y5110000D01*
X48120750Y5089019D01*
X47847424Y5006106D01*
X47595526Y4871464D01*
X47459707Y4760000D01*
X46003805Y4760000D01*
X46140575Y4851387D01*
X46328613Y5039425D01*
X46476354Y5260535D01*
X46578120Y5506220D01*
X46630000Y5767037D01*
X46630000Y6032963D01*
X46578120Y6293780D01*
X46476354Y6539465D01*
X46328613Y6760575D01*
X46140575Y6948613D01*
X45919465Y7096354D01*
X45673780Y7198120D01*
X45412963Y7250000D01*
X45147037Y7250000D01*
X44886220Y7198120D01*
X44640535Y7096354D01*
X44496331Y7000000D01*
X43783669Y7000000D01*
X43860575Y7051387D01*
X44048613Y7239425D01*
X44196354Y7460535D01*
X44298120Y7706220D01*
X44350000Y7967037D01*
X44350000Y8232963D01*
X44298120Y8493780D01*
X44196354Y8739465D01*
X44048613Y8960575D01*
X44009239Y8999949D01*
X44255952Y8999949D01*
X46987430Y6268470D01*
X47014043Y6236042D01*
X47143472Y6129822D01*
X47291136Y6050893D01*
X47451362Y6002290D01*
X47576242Y5989990D01*
X47576250Y5989990D01*
X47617991Y5985879D01*
X47659732Y5989990D01*
X51338249Y5989990D01*
X51379990Y5985879D01*
X51421731Y5989990D01*
X51421739Y5989990D01*
X51546619Y6002290D01*
X51706845Y6050893D01*
X51854509Y6129822D01*
X51983938Y6236042D01*
X52010556Y6268476D01*
X54482081Y8740000D01*
X55867985Y8740000D01*
X55895981Y8455750D01*
X55978894Y8182424D01*
X56113536Y7930526D01*
X56294735Y7709735D01*
X56515526Y7528536D01*
X56767424Y7393894D01*
X57040750Y7310981D01*
X57253775Y7290000D01*
X58666225Y7290000D01*
X58879250Y7310981D01*
X59152576Y7393894D01*
X59404474Y7528536D01*
X59625265Y7709735D01*
X59806464Y7930526D01*
X59941106Y8182424D01*
X60024019Y8455750D01*
X60052015Y8740000D01*
X60024019Y9024250D01*
X59941106Y9297576D01*
X59806464Y9549474D01*
X59625265Y9770265D01*
X59404474Y9951464D01*
X59152576Y10086106D01*
X58879250Y10169019D01*
X58666225Y10190000D01*
X57253775Y10190000D01*
X57040750Y10169019D01*
X56767424Y10086106D01*
X56515526Y9951464D01*
X56294735Y9770265D01*
X56113536Y9549474D01*
X55978894Y9297576D01*
X55895981Y9024250D01*
X55867985Y8740000D01*
X54482081Y8740000D01*
X56042041Y10299959D01*
X63797878Y10299959D01*
X61928490Y8430570D01*
X61928479Y8430561D01*
X58607919Y5110000D01*
X57253775Y5110000D01*
X57040750Y5089019D01*
X56767424Y5006106D01*
X56515526Y4871464D01*
X56294735Y4690265D01*
X56113536Y4469474D01*
X55978894Y4217576D01*
X55895981Y3944250D01*
X55867985Y3660000D01*
X55895981Y3375750D01*
X55978894Y3102424D01*
X56113536Y2850526D01*
X56294735Y2629735D01*
X56515526Y2448536D01*
X56767424Y2313894D01*
X57040750Y2230981D01*
X57253775Y2210000D01*
X58666225Y2210000D01*
X58879250Y2230981D01*
X59152576Y2313894D01*
X59404474Y2448536D01*
X59625265Y2629735D01*
X59806464Y2850526D01*
X59941106Y3102424D01*
X60024019Y3375750D01*
X60052015Y3660000D01*
X60024019Y3944250D01*
X59982663Y4080582D01*
X63130561Y7228479D01*
X63130570Y7228490D01*
X64902030Y8999949D01*
X66449480Y8999949D01*
X71760978Y3688450D01*
X71787591Y3656022D01*
X71917020Y3549802D01*
X72041302Y3483371D01*
X72064684Y3470873D01*
X72224909Y3422270D01*
X72240552Y3420729D01*
X72349790Y3409970D01*
X72349797Y3409970D01*
X72391538Y3405859D01*
X72433279Y3409970D01*
X78943401Y3409970D01*
X78954897Y3408007D01*
X78985258Y3408834D01*
X79015444Y3405861D01*
X79057165Y3409970D01*
X79057192Y3409970D01*
X79068748Y3411108D01*
X79122268Y3412566D01*
X79151859Y3419294D01*
X79182072Y3422270D01*
X79233331Y3437819D01*
X79285536Y3449689D01*
X79313242Y3462059D01*
X79342298Y3470873D01*
X79389541Y3496125D01*
X79438425Y3517951D01*
X79463189Y3535492D01*
X79489962Y3549802D01*
X79531362Y3583778D01*
X79575058Y3614728D01*
X79595927Y3636765D01*
X79619391Y3656022D01*
X79646013Y3688461D01*
X81907524Y5949970D01*
X90388675Y5949970D01*
X92080551Y4258093D01*
X92058894Y4217576D01*
X91975981Y3944250D01*
X91947985Y3660000D01*
X91975981Y3375750D01*
X92058894Y3102424D01*
X92193536Y2850526D01*
X92374735Y2629735D01*
X92595526Y2448536D01*
X92847424Y2313894D01*
X93120750Y2230981D01*
X93333775Y2210000D01*
X94746225Y2210000D01*
X94959250Y2230981D01*
X95232576Y2313894D01*
X95484474Y2448536D01*
X95705265Y2629735D01*
X95886464Y2850526D01*
X96021106Y3102424D01*
X96104019Y3375750D01*
X96132015Y3660000D01*
X96104019Y3944250D01*
X96021106Y4217576D01*
X95886464Y4469474D01*
X95705265Y4690265D01*
X95484474Y4871464D01*
X95232576Y5006106D01*
X94959250Y5089019D01*
X94746225Y5110000D01*
X93632806Y5110000D01*
X92752815Y5989990D01*
X104168419Y5989990D01*
X103288429Y5110000D01*
X102253775Y5110000D01*
X102040750Y5089019D01*
X101767424Y5006106D01*
X101515526Y4871464D01*
X101294735Y4690265D01*
X101113536Y4469474D01*
X100978894Y4217576D01*
X100895981Y3944250D01*
X100867985Y3660000D01*
X100895981Y3375750D01*
X100978894Y3102424D01*
X101113536Y2850526D01*
X101294735Y2629735D01*
X101515526Y2448536D01*
X101767424Y2313894D01*
X102040750Y2230981D01*
X102253775Y2210000D01*
X103666225Y2210000D01*
X103879250Y2230981D01*
X104152576Y2313894D01*
X104404474Y2448536D01*
X104625265Y2629735D01*
X104806464Y2850526D01*
X104941106Y3102424D01*
X105024019Y3375750D01*
X105052015Y3660000D01*
X105024019Y3944250D01*
X104941106Y4217576D01*
X104892013Y4309423D01*
X107832570Y7249980D01*
X115430960Y7249980D01*
X115630906Y7050034D01*
X115679832Y6958500D01*
X115786052Y6829070D01*
X115818486Y6802452D01*
X117492476Y5128461D01*
X117519090Y5096032D01*
X117648519Y4989812D01*
X117796183Y4910883D01*
X117956409Y4862280D01*
X118081289Y4849980D01*
X118081297Y4849980D01*
X118123038Y4845869D01*
X118164779Y4849980D01*
X123735221Y4849980D01*
X123776962Y4845869D01*
X123818703Y4849980D01*
X123818711Y4849980D01*
X123943591Y4862280D01*
X124103817Y4910883D01*
X124251481Y4989812D01*
X124380910Y5096032D01*
X124407528Y5128466D01*
X126529044Y7249980D01*
X134167431Y7249980D01*
X137107987Y4309423D01*
X137058894Y4217576D01*
X137018748Y4085232D01*
X137013381Y4078693D01*
X136943739Y3948401D01*
X136900853Y3807026D01*
X136886372Y3660000D01*
X136900853Y3512974D01*
X136943739Y3371599D01*
X137013381Y3241307D01*
X137018748Y3234768D01*
X137058894Y3102424D01*
X137193536Y2850526D01*
X137374735Y2629735D01*
X137595526Y2448536D01*
X137847424Y2313894D01*
X138120750Y2230981D01*
X138333775Y2210000D01*
X139746225Y2210000D01*
X139959250Y2230981D01*
X140232576Y2313894D01*
X140484474Y2448536D01*
X140705265Y2629735D01*
X140886464Y2850526D01*
X141021106Y3102424D01*
X141104019Y3375750D01*
X141132015Y3660000D01*
X141104019Y3944250D01*
X141021106Y4217576D01*
X140886464Y4469474D01*
X140705265Y4690265D01*
X140484474Y4871464D01*
X140232576Y5006106D01*
X139959250Y5089019D01*
X139746225Y5110000D01*
X138711572Y5110000D01*
X137831582Y5989990D01*
X149887910Y5989990D01*
X148961875Y5063955D01*
X148879250Y5089019D01*
X148666225Y5110000D01*
X147253775Y5110000D01*
X147040750Y5089019D01*
X146767424Y5006106D01*
X146515526Y4871464D01*
X146294735Y4690265D01*
X146113536Y4469474D01*
X145978894Y4217576D01*
X145895981Y3944250D01*
X145867985Y3660000D01*
X145895981Y3375750D01*
X145978894Y3102424D01*
X146113536Y2850526D01*
X146294735Y2629735D01*
X146515526Y2448536D01*
X146767424Y2313894D01*
X147040750Y2230981D01*
X147253775Y2210000D01*
X148666225Y2210000D01*
X148879250Y2230981D01*
X149152576Y2313894D01*
X149404474Y2448536D01*
X149625265Y2629735D01*
X149806464Y2850526D01*
X149941106Y3102424D01*
X150024019Y3375750D01*
X150052015Y3660000D01*
X150043951Y3741871D01*
X154877041Y8574960D01*
X160984470Y8574960D01*
X161828479Y7730949D01*
X161828490Y7730940D01*
X163530957Y6028471D01*
X163557571Y5996042D01*
X163687000Y5889822D01*
X163834664Y5810893D01*
X163994889Y5762290D01*
X164010532Y5760749D01*
X164119770Y5749990D01*
X164119777Y5749990D01*
X164161518Y5745879D01*
X164203259Y5749990D01*
X167696740Y5749990D01*
X167738481Y5745879D01*
X167780222Y5749990D01*
X167780230Y5749990D01*
X167905110Y5762290D01*
X168065336Y5810893D01*
X168213000Y5889822D01*
X168342429Y5996042D01*
X168369047Y6028476D01*
X171215531Y8874960D01*
X177625980Y8874960D01*
X179213890Y7287049D01*
X179289832Y7144973D01*
X179396052Y7015543D01*
X179428486Y6988925D01*
X182107987Y4309423D01*
X182058894Y4217576D01*
X181975981Y3944250D01*
X181947985Y3660000D01*
X181975981Y3375750D01*
X182058894Y3102424D01*
X182193536Y2850526D01*
X182374735Y2629735D01*
X182595526Y2448536D01*
X182847424Y2313894D01*
X183120750Y2230981D01*
X183333775Y2210000D01*
X184746225Y2210000D01*
X184959250Y2230981D01*
X185232576Y2313894D01*
X185484474Y2448536D01*
X185705265Y2629735D01*
X185886464Y2850526D01*
X186021106Y3102424D01*
X186104019Y3375750D01*
X186132015Y3660000D01*
X190867985Y3660000D01*
X190895981Y3375750D01*
X190978894Y3102424D01*
X191113536Y2850526D01*
X191294735Y2629735D01*
X191515526Y2448536D01*
X191767424Y2313894D01*
X192040750Y2230981D01*
X192253775Y2210000D01*
X193666225Y2210000D01*
X193879250Y2230981D01*
X194152576Y2313894D01*
X194404474Y2448536D01*
X194625265Y2629735D01*
X194806464Y2850526D01*
X194941106Y3102424D01*
X195024019Y3375750D01*
X195052015Y3660000D01*
X195024019Y3944250D01*
X194941106Y4217576D01*
X194806464Y4469474D01*
X194625265Y4690265D01*
X194404474Y4871464D01*
X194152576Y5006106D01*
X193879250Y5089019D01*
X193666225Y5110000D01*
X192253775Y5110000D01*
X192040750Y5089019D01*
X191767424Y5006106D01*
X191515526Y4871464D01*
X191294735Y4690265D01*
X191113536Y4469474D01*
X190978894Y4217576D01*
X190895981Y3944250D01*
X190867985Y3660000D01*
X186132015Y3660000D01*
X186104019Y3944250D01*
X186021106Y4217576D01*
X185886464Y4469474D01*
X185705265Y4690265D01*
X185484474Y4871464D01*
X185232576Y5006106D01*
X184959250Y5089019D01*
X184746225Y5110000D01*
X183711572Y5110000D01*
X182831582Y5989990D01*
X185420268Y5989990D01*
X185462009Y5985879D01*
X185503750Y5989990D01*
X185503758Y5989990D01*
X185628638Y6002290D01*
X185788864Y6050893D01*
X185936528Y6129822D01*
X186065957Y6236042D01*
X186092575Y6268476D01*
X188564100Y8740000D01*
X190867985Y8740000D01*
X190895981Y8455750D01*
X190978894Y8182424D01*
X191113536Y7930526D01*
X191294735Y7709735D01*
X191515526Y7528536D01*
X191767424Y7393894D01*
X192040750Y7310981D01*
X192253775Y7290000D01*
X193666225Y7290000D01*
X193879250Y7310981D01*
X194152576Y7393894D01*
X194404474Y7528536D01*
X194625265Y7709735D01*
X194806464Y7930526D01*
X194941106Y8182424D01*
X195024019Y8455750D01*
X195052015Y8740000D01*
X195024019Y9024250D01*
X194941106Y9297576D01*
X194806464Y9549474D01*
X194625265Y9770265D01*
X194404474Y9951464D01*
X194152576Y10086106D01*
X193879250Y10169019D01*
X193666225Y10190000D01*
X192253775Y10190000D01*
X192040750Y10169019D01*
X191767424Y10086106D01*
X191515526Y9951464D01*
X191294735Y9770265D01*
X191113536Y9549474D01*
X190978894Y9297576D01*
X190895981Y9024250D01*
X190867985Y8740000D01*
X188564100Y8740000D01*
X189082529Y9258428D01*
X189114958Y9285042D01*
X189221178Y9414471D01*
X189300107Y9562135D01*
X189303127Y9572092D01*
X189348710Y9722360D01*
X189355373Y9790010D01*
X189361010Y9847241D01*
X189361010Y9847248D01*
X189365121Y9888989D01*
X189361010Y9930730D01*
X189361010Y10599360D01*
X190949416Y12187765D01*
X190983919Y12216081D01*
X191010537Y12248515D01*
X194321524Y15559501D01*
X194353947Y15586110D01*
X194380556Y15618533D01*
X194380561Y15618538D01*
X194460168Y15715539D01*
X194539097Y15863203D01*
X194587700Y16023429D01*
X194604111Y16190058D01*
X194599999Y16231809D01*
X194600001Y19248260D01*
X194604112Y19290002D01*
X194600001Y19331743D01*
X194600001Y19331749D01*
X194589564Y19437719D01*
X194587701Y19456631D01*
X194539098Y19616856D01*
X194491721Y19705490D01*
X194460169Y19764519D01*
X194433539Y19796968D01*
X194380562Y19861521D01*
X194380558Y19861525D01*
X194353949Y19893948D01*
X194321526Y19920557D01*
X193301693Y20940389D01*
X193301693Y21850000D01*
X193294935Y21918612D01*
X193274922Y21984587D01*
X193242422Y22045390D01*
X193198685Y22098685D01*
X193145390Y22142422D01*
X193084587Y22174922D01*
X193018612Y22194935D01*
X192950000Y22201693D01*
X189950000Y22201693D01*
X189881388Y22194935D01*
X189815413Y22174922D01*
X189754610Y22142422D01*
X189701315Y22098685D01*
X189657578Y22045390D01*
X189625078Y21984587D01*
X189605065Y21918612D01*
X189598307Y21850000D01*
X189598307Y20350000D01*
X189605065Y20281388D01*
X189625078Y20215413D01*
X189657578Y20154610D01*
X189701315Y20101315D01*
X189754610Y20057578D01*
X189815413Y20025078D01*
X189881388Y20005065D01*
X189950000Y19998307D01*
X191839615Y19998307D01*
X192836228Y19001693D01*
X189950000Y19001693D01*
X189881388Y18994935D01*
X189815413Y18974922D01*
X189754610Y18942422D01*
X189701315Y18898685D01*
X189657578Y18845390D01*
X189625078Y18784587D01*
X189605065Y18718612D01*
X189598307Y18650000D01*
X189598307Y17150000D01*
X189605065Y17081388D01*
X189625078Y17015413D01*
X189657578Y16954610D01*
X189701315Y16901315D01*
X189754610Y16857578D01*
X189815413Y16825078D01*
X189881388Y16805065D01*
X189950000Y16798307D01*
X191317306Y16798307D01*
X190693053Y16174053D01*
X190680258Y16180892D01*
X190567384Y16215132D01*
X190450000Y16226693D01*
X189525000Y16226693D01*
X189407616Y16215132D01*
X189294742Y16180892D01*
X189190717Y16125289D01*
X189099539Y16050461D01*
X189024711Y15959283D01*
X188969108Y15855258D01*
X188934868Y15742384D01*
X188923307Y15625000D01*
X188923307Y14404308D01*
X187169000Y12650000D01*
X181770571Y12650000D01*
X180224067Y14196504D01*
X180197449Y14228938D01*
X180068020Y14335158D01*
X179920356Y14414087D01*
X179897961Y14420880D01*
X182527082Y17050000D01*
X183714586Y17050000D01*
X183725078Y17015413D01*
X183757578Y16954610D01*
X183801315Y16901315D01*
X183854610Y16857578D01*
X183915413Y16825078D01*
X183981388Y16805065D01*
X184050000Y16798307D01*
X187050000Y16798307D01*
X187118612Y16805065D01*
X187184587Y16825078D01*
X187245390Y16857578D01*
X187298685Y16901315D01*
X187342422Y16954610D01*
X187374922Y17015413D01*
X187394935Y17081388D01*
X187401693Y17150000D01*
X187401693Y18650000D01*
X187394935Y18718612D01*
X187374922Y18784587D01*
X187342422Y18845390D01*
X187298685Y18898685D01*
X187245390Y18942422D01*
X187184587Y18974922D01*
X187118612Y18994935D01*
X187050000Y19001693D01*
X184050000Y19001693D01*
X183981388Y18994935D01*
X183915413Y18974922D01*
X183854610Y18942422D01*
X183801315Y18898685D01*
X183757578Y18845390D01*
X183725078Y18784587D01*
X183714586Y18750000D01*
X182216737Y18750000D01*
X182174999Y18754111D01*
X182133261Y18750000D01*
X182133251Y18750000D01*
X182008371Y18737700D01*
X181848145Y18689097D01*
X181700481Y18610168D01*
X181686555Y18598739D01*
X181603479Y18530561D01*
X181603477Y18530559D01*
X181571052Y18503948D01*
X181544443Y18471525D01*
X178847920Y15775000D01*
X172504062Y15775000D01*
X169107528Y19171534D01*
X169080910Y19203968D01*
X168951481Y19310188D01*
X168803817Y19389117D01*
X168643591Y19437720D01*
X168518711Y19450020D01*
X168518703Y19450020D01*
X168476962Y19454131D01*
X168435221Y19450020D01*
X163564776Y19450020D01*
X163523038Y19454131D01*
X163481300Y19450020D01*
X163481290Y19450020D01*
X163356410Y19437720D01*
X163196184Y19389117D01*
X163048520Y19310188D01*
X163036106Y19300000D01*
X162951518Y19230581D01*
X162951514Y19230577D01*
X162919091Y19203968D01*
X162892482Y19171545D01*
X159195940Y15475000D01*
X153927081Y15475000D01*
X148301693Y21100387D01*
X148301693Y21850000D01*
X148294935Y21918612D01*
X148274922Y21984587D01*
X148242422Y22045390D01*
X148198685Y22098685D01*
X148145390Y22142422D01*
X148084587Y22174922D01*
X148018612Y22194935D01*
X147950000Y22201693D01*
X144950000Y22201693D01*
X144881388Y22194935D01*
X144815413Y22174922D01*
X144754610Y22142422D01*
X144701315Y22098685D01*
X144657578Y22045390D01*
X144625078Y21984587D01*
X144605065Y21918612D01*
X144598307Y21850000D01*
X144598307Y20350000D01*
X144605065Y20281388D01*
X144625078Y20215413D01*
X144657578Y20154610D01*
X144701315Y20101315D01*
X144754610Y20057578D01*
X144815413Y20025078D01*
X144881388Y20005065D01*
X144950000Y19998307D01*
X146999613Y19998307D01*
X148001277Y18996642D01*
X147950000Y19001693D01*
X144950000Y19001693D01*
X144881388Y18994935D01*
X144815413Y18974922D01*
X144754610Y18942422D01*
X144701315Y18898685D01*
X144657578Y18845390D01*
X144625078Y18784587D01*
X144605065Y18718612D01*
X144598307Y18650000D01*
X144598307Y17150000D01*
X144605065Y17081388D01*
X144625078Y17015413D01*
X144655015Y16959404D01*
X144564843Y16849529D01*
X144535803Y16795200D01*
X144485913Y16701864D01*
X144437310Y16541639D01*
X144420899Y16375010D01*
X144425011Y16333259D01*
X144425011Y16216845D01*
X144407616Y16215132D01*
X144294742Y16180892D01*
X144190717Y16125289D01*
X144099539Y16050461D01*
X144024711Y15959283D01*
X143969108Y15855258D01*
X143934868Y15742384D01*
X143923307Y15625000D01*
X143923307Y14375000D01*
X143934868Y14257616D01*
X143959932Y14174990D01*
X133877070Y14174990D01*
X136752082Y17050000D01*
X138714586Y17050000D01*
X138725078Y17015413D01*
X138757578Y16954610D01*
X138801315Y16901315D01*
X138854610Y16857578D01*
X138915413Y16825078D01*
X138981388Y16805065D01*
X139050000Y16798307D01*
X142050000Y16798307D01*
X142118612Y16805065D01*
X142184587Y16825078D01*
X142245390Y16857578D01*
X142298685Y16901315D01*
X142342422Y16954610D01*
X142374922Y17015413D01*
X142394935Y17081388D01*
X142401693Y17150000D01*
X142401693Y18650000D01*
X142394935Y18718612D01*
X142374922Y18784587D01*
X142342422Y18845390D01*
X142298685Y18898685D01*
X142245390Y18942422D01*
X142184587Y18974922D01*
X142118612Y18994935D01*
X142050000Y19001693D01*
X139050000Y19001693D01*
X138981388Y18994935D01*
X138915413Y18974922D01*
X138854610Y18942422D01*
X138801315Y18898685D01*
X138757578Y18845390D01*
X138725078Y18784587D01*
X138714586Y18750000D01*
X136441737Y18750000D01*
X136399999Y18754111D01*
X136358261Y18750000D01*
X136358251Y18750000D01*
X136233371Y18737700D01*
X136073145Y18689097D01*
X135925481Y18610168D01*
X135911555Y18598739D01*
X135828479Y18530561D01*
X135828477Y18530559D01*
X135796052Y18503948D01*
X135769443Y18471525D01*
X132772920Y15475000D01*
X127804062Y15475000D01*
X124307528Y18971534D01*
X124280910Y19003968D01*
X124151481Y19110188D01*
X124003817Y19189117D01*
X123843591Y19237720D01*
X123718711Y19250020D01*
X123718703Y19250020D01*
X123676962Y19254131D01*
X123635221Y19250020D01*
X118004780Y19250020D01*
X117963039Y19254131D01*
X117921298Y19250020D01*
X117921290Y19250020D01*
X117810710Y19239128D01*
X117796409Y19237720D01*
X117685142Y19203968D01*
X117636184Y19189117D01*
X117488520Y19110188D01*
X117359091Y19003968D01*
X117332478Y18971539D01*
X113820950Y15460010D01*
X110322071Y15460010D01*
X104170566Y21611514D01*
X104143948Y21643948D01*
X104014519Y21750168D01*
X103866855Y21829097D01*
X103706629Y21877700D01*
X103581749Y21890000D01*
X103581741Y21890000D01*
X103540000Y21894111D01*
X103498259Y21890000D01*
X103297753Y21890000D01*
X103294935Y21918612D01*
X103274922Y21984587D01*
X103242422Y22045390D01*
X103198685Y22098685D01*
X103145390Y22142422D01*
X103084587Y22174922D01*
X103018612Y22194935D01*
X102950000Y22201693D01*
X99950000Y22201693D01*
X99881388Y22194935D01*
X99815413Y22174922D01*
X99754610Y22142422D01*
X99701315Y22098685D01*
X99657578Y22045390D01*
X99625078Y21984587D01*
X99605065Y21918612D01*
X99598307Y21850000D01*
X99598307Y20350000D01*
X99605065Y20281388D01*
X99625078Y20215413D01*
X99657578Y20154610D01*
X99701315Y20101315D01*
X99754610Y20057578D01*
X99815413Y20025078D01*
X99881388Y20005065D01*
X99950000Y19998307D01*
X102950000Y19998307D01*
X103018612Y20005065D01*
X103084587Y20025078D01*
X103145390Y20057578D01*
X103198685Y20101315D01*
X103233807Y20144113D01*
X109217919Y14160000D01*
X101300507Y14160000D01*
X101291639Y14162690D01*
X101166759Y14174990D01*
X101166751Y14174990D01*
X101125010Y14179101D01*
X101083269Y14174990D01*
X101015068Y14174990D01*
X101040132Y14257616D01*
X101051693Y14375000D01*
X101051693Y15625000D01*
X101040132Y15742384D01*
X101024848Y15792768D01*
X102030388Y16798307D01*
X102950000Y16798307D01*
X103018612Y16805065D01*
X103084587Y16825078D01*
X103145390Y16857578D01*
X103198685Y16901315D01*
X103242422Y16954610D01*
X103274922Y17015413D01*
X103294935Y17081388D01*
X103301693Y17150000D01*
X103301693Y18650000D01*
X103294935Y18718612D01*
X103274922Y18784587D01*
X103242422Y18845390D01*
X103198685Y18898685D01*
X103145390Y18942422D01*
X103084587Y18974922D01*
X103018612Y18994935D01*
X102950000Y19001693D01*
X99950000Y19001693D01*
X99881388Y18994935D01*
X99815413Y18974922D01*
X99754610Y18942422D01*
X99701315Y18898685D01*
X99657578Y18845390D01*
X99625078Y18784587D01*
X99605065Y18718612D01*
X99598307Y18650000D01*
X99598307Y17150000D01*
X99605065Y17081388D01*
X99625078Y17015413D01*
X99657578Y16954610D01*
X99701315Y16901315D01*
X99716650Y16888730D01*
X99415981Y16588061D01*
X99383553Y16561448D01*
X99277333Y16432019D01*
X99246861Y16375010D01*
X99198403Y16284354D01*
X99149800Y16124129D01*
X99146326Y16088858D01*
X99099539Y16050461D01*
X99024711Y15959283D01*
X98969108Y15855258D01*
X98934868Y15742384D01*
X98923307Y15625000D01*
X98923307Y14375000D01*
X98934868Y14257616D01*
X98959932Y14174990D01*
X92867070Y14174990D01*
X95490389Y16798307D01*
X97050000Y16798307D01*
X97118612Y16805065D01*
X97184587Y16825078D01*
X97245390Y16857578D01*
X97298685Y16901315D01*
X97342422Y16954610D01*
X97374922Y17015413D01*
X97394935Y17081388D01*
X97401693Y17150000D01*
X97401693Y18650000D01*
X97394935Y18718612D01*
X97374922Y18784587D01*
X97342422Y18845390D01*
X97298685Y18898685D01*
X97245390Y18942422D01*
X97184587Y18974922D01*
X97118612Y18994935D01*
X97050000Y19001693D01*
X94050000Y19001693D01*
X93981388Y18994935D01*
X93915413Y18974922D01*
X93854610Y18942422D01*
X93801315Y18898685D01*
X93757578Y18845390D01*
X93725078Y18784587D01*
X93705065Y18718612D01*
X93698307Y18650000D01*
X93698307Y17410388D01*
X91762920Y15475000D01*
X82664062Y15475000D01*
X79127528Y19011534D01*
X79100910Y19043968D01*
X78971481Y19150188D01*
X78823817Y19229117D01*
X78663591Y19277720D01*
X78538711Y19290020D01*
X78538703Y19290020D01*
X78496962Y19294131D01*
X78455221Y19290020D01*
X73354780Y19290020D01*
X73313039Y19294131D01*
X73271298Y19290020D01*
X73271290Y19290020D01*
X73146410Y19277720D01*
X72986184Y19229117D01*
X72838520Y19150188D01*
X72709091Y19043968D01*
X72682477Y19011539D01*
X72175939Y18505000D01*
X67277082Y18505000D01*
X64130566Y21651514D01*
X64103948Y21683948D01*
X63974519Y21790168D01*
X63826855Y21869097D01*
X63666629Y21917700D01*
X63541749Y21930000D01*
X63541741Y21930000D01*
X63500000Y21934111D01*
X63458259Y21930000D01*
X58291481Y21930000D01*
X58274922Y21984587D01*
X58242422Y22045390D01*
X58198685Y22098685D01*
X58145390Y22142422D01*
X58084587Y22174922D01*
X58018612Y22194935D01*
X57950000Y22201693D01*
X54950000Y22201693D01*
X54881388Y22194935D01*
X54815413Y22174922D01*
X54754610Y22142422D01*
X54701315Y22098685D01*
X54657578Y22045390D01*
X54625078Y21984587D01*
X54605065Y21918612D01*
X54598307Y21850000D01*
X54598307Y20350000D01*
X54605065Y20281388D01*
X54625078Y20215413D01*
X54657578Y20154610D01*
X54701315Y20101315D01*
X54754610Y20057578D01*
X54815413Y20025078D01*
X54881388Y20005065D01*
X54950000Y19998307D01*
X57950000Y19998307D01*
X58018612Y20005065D01*
X58084587Y20025078D01*
X58145390Y20057578D01*
X58198685Y20101315D01*
X58242422Y20154610D01*
X58274922Y20215413D01*
X58279347Y20230000D01*
X63147920Y20230000D01*
X66172928Y17204990D01*
X63664169Y17204990D01*
X63622431Y17209101D01*
X63580693Y17204990D01*
X63580683Y17204990D01*
X63530010Y17199999D01*
X60776054Y17199999D01*
X60802632Y17287616D01*
X60814193Y17405000D01*
X60814193Y18655000D01*
X60802632Y18772384D01*
X60768392Y18885258D01*
X60712789Y18989283D01*
X60637961Y19080461D01*
X60546783Y19155289D01*
X60442758Y19210892D01*
X60329884Y19245132D01*
X60212500Y19256693D01*
X59287500Y19256693D01*
X59170116Y19245132D01*
X59057242Y19210892D01*
X58953217Y19155289D01*
X58862039Y19080461D01*
X58787211Y18989283D01*
X58731608Y18885258D01*
X58697368Y18772384D01*
X58688269Y18680000D01*
X58298738Y18680000D01*
X58294935Y18718612D01*
X58274922Y18784587D01*
X58242422Y18845390D01*
X58198685Y18898685D01*
X58145390Y18942422D01*
X58084587Y18974922D01*
X58018612Y18994935D01*
X57950000Y19001693D01*
X54950000Y19001693D01*
X54881388Y18994935D01*
X54815413Y18974922D01*
X54754610Y18942422D01*
X54701315Y18898685D01*
X54657578Y18845390D01*
X54625078Y18784587D01*
X54605065Y18718612D01*
X54598307Y18650000D01*
X54598307Y17199999D01*
X52401693Y17199999D01*
X52401693Y18650000D01*
X52394935Y18718612D01*
X52374922Y18784587D01*
X52342422Y18845390D01*
X52298685Y18898685D01*
X52245390Y18942422D01*
X52184587Y18974922D01*
X52118612Y18994935D01*
X52050000Y19001693D01*
X49300388Y19001693D01*
X48647519Y19654562D01*
X48650000Y19667037D01*
X48650000Y19932963D01*
X48598120Y20193780D01*
X48496354Y20439465D01*
X48348613Y20660575D01*
X48160575Y20848613D01*
X47939465Y20996354D01*
X47693780Y21098120D01*
X47432963Y21150000D01*
X47167037Y21150000D01*
X46906220Y21098120D01*
X46660535Y20996354D01*
X46439425Y20848613D01*
X46251387Y20660575D01*
X46103646Y20439465D01*
X46001880Y20193780D01*
X45950000Y19932963D01*
X45950000Y19839637D01*
X43500024Y22289612D01*
X43465572Y22331592D01*
X43298075Y22469053D01*
X43106979Y22571195D01*
X42899629Y22634095D01*
X42738027Y22650011D01*
X42738025Y22650011D01*
X42683991Y22655333D01*
X42629957Y22650011D01*
X36500225Y22650011D01*
X36484973Y22686833D01*
X36326289Y22924321D01*
X36124321Y23126289D01*
X35886833Y23284973D01*
X35622949Y23394277D01*
X35342813Y23450000D01*
X35057187Y23450000D01*
X34777051Y23394277D01*
X34513167Y23284973D01*
X34275679Y23126289D01*
X34073711Y22924321D01*
X33930000Y22709242D01*
X33786289Y22924321D01*
X33584321Y23126289D01*
X33346833Y23284973D01*
X33082949Y23394277D01*
X32802813Y23450000D01*
X32517187Y23450000D01*
X32237051Y23394277D01*
X31973167Y23284973D01*
X31735679Y23126289D01*
X31533711Y22924321D01*
X31375027Y22686833D01*
X31265723Y22422949D01*
X31210000Y22142813D01*
X31210000Y21878663D01*
X29030000Y21859198D01*
X29030000Y22142813D01*
X28974277Y22422949D01*
X28864973Y22686833D01*
X28706289Y22924321D01*
X28504321Y23126289D01*
X28266833Y23284973D01*
X28002949Y23394277D01*
X27722813Y23450000D01*
X27437187Y23450000D01*
X27157051Y23394277D01*
X26893167Y23284973D01*
X26655679Y23126289D01*
X26453711Y22924321D01*
X26310000Y22709242D01*
X26166289Y22924321D01*
X25964321Y23126289D01*
X25726833Y23284973D01*
X25462949Y23394277D01*
X25182813Y23450000D01*
X24897187Y23450000D01*
X24617051Y23394277D01*
X24353167Y23284973D01*
X24115679Y23126289D01*
X23913711Y22924321D01*
X23770000Y22709242D01*
X23626289Y22924321D01*
X23424321Y23126289D01*
X23186833Y23284973D01*
X22922949Y23394277D01*
X22642813Y23450000D01*
X22357187Y23450000D01*
X22077051Y23394277D01*
X21813167Y23284973D01*
X21575679Y23126289D01*
X21549390Y23100000D01*
X17929188Y23100000D01*
X17890575Y23138613D01*
X17669465Y23286354D01*
X17423780Y23388120D01*
X17162963Y23440000D01*
X16897037Y23440000D01*
X16636220Y23388120D01*
X16390535Y23286354D01*
X16169425Y23138613D01*
X15981387Y22950575D01*
X15833646Y22729465D01*
X15731880Y22483780D01*
X15680000Y22222963D01*
X15680000Y21957037D01*
X15731880Y21696220D01*
X15833646Y21450535D01*
X15981387Y21229425D01*
X16169425Y21041387D01*
X16390535Y20893646D01*
X16636220Y20791880D01*
X16897037Y20740000D01*
X17162963Y20740000D01*
X17423780Y20791880D01*
X17669465Y20893646D01*
X17678974Y20900000D01*
X18016331Y20900000D01*
X17939425Y20848613D01*
X17751387Y20660575D01*
X17603646Y20439465D01*
X17599725Y20430000D01*
X16580572Y20430000D01*
X15639047Y21371524D01*
X15612429Y21403958D01*
X15483000Y21510178D01*
X15335336Y21589107D01*
X15175110Y21637710D01*
X15050230Y21650010D01*
X15050222Y21650010D01*
X15008481Y21654121D01*
X14966740Y21650010D01*
X13301693Y21650010D01*
X13301693Y21850000D01*
X13294935Y21918612D01*
X13274922Y21984587D01*
X13242422Y22045390D01*
X13198685Y22098685D01*
X13145390Y22142422D01*
X13084587Y22174922D01*
X13018612Y22194935D01*
X12950000Y22201693D01*
X9950000Y22201693D01*
X9881388Y22194935D01*
X9815413Y22174922D01*
X9754610Y22142422D01*
X9701315Y22098685D01*
X9657578Y22045390D01*
X9625078Y21984587D01*
X9605065Y21918612D01*
X9598307Y21850000D01*
X9598307Y20350000D01*
X7052613Y20350000D01*
X6927733Y20337700D01*
X6767507Y20289097D01*
X6619843Y20210168D01*
X6490414Y20103948D01*
X6384194Y19974519D01*
X6305265Y19826855D01*
X6283708Y19755790D01*
X5529613Y19001693D01*
X4050000Y19001693D01*
X3981388Y18994935D01*
X3915413Y18974922D01*
X3854610Y18942422D01*
X3801315Y18898685D01*
X3757578Y18845390D01*
X3725078Y18784587D01*
X3705065Y18718612D01*
X3698307Y18650000D01*
X185000Y18650000D01*
X185000Y24815000D01*
X196815001Y24815000D01*
X196815000Y185000D01*
%TD*%
M02*
