%TF.GenerationSoftware,KiCad,Pcbnew,(5.1.6)-1*%
%TF.CreationDate,2025-02-24T10:59:57-05:00*%
%TF.ProjectId,row_board,726f775f-626f-4617-9264-2e6b69636164,rev?*%
%TF.SameCoordinates,PX311d3e0PY5f5e100*%
%TF.FileFunction,Soldermask,Top*%
%TF.FilePolarity,Negative*%
%FSLAX46Y46*%
G04 Gerber Fmt 4.6, Leading zero omitted, Abs format (unit mm)*
G04 Created by KiCad (PCBNEW (5.1.6)-1) date 2025-02-24 10:59:57*
%MOMM*%
%LPD*%
G01*
G04 APERTURE LIST*
%ADD10C,2.300000*%
%ADD11C,2.100000*%
%ADD12C,3.300000*%
%ADD13R,3.100000X1.600000*%
%ADD14O,3.570000X2.300000*%
G04 APERTURE END LIST*
D10*
%TO.C,J1*%
X35200000Y22000000D03*
X32660000Y22000000D03*
X30120000Y22000000D03*
X27580000Y22000000D03*
X25040000Y22000000D03*
X22500000Y22000000D03*
%TD*%
D11*
%TO.C,REF\u002A\u002A*%
X3000000Y14000000D03*
%TD*%
D12*
%TO.C,REF\u002A\u002A*%
X166000000Y12000000D03*
%TD*%
%TO.C,REF\u002A\u002A*%
X121000000Y12000000D03*
%TD*%
%TO.C,REF\u002A\u002A*%
X76000000Y12000000D03*
%TD*%
%TO.C,C6*%
G36*
G01*
X20942544Y15075000D02*
X22257456Y15075000D01*
G75*
G02*
X22525000Y14807456I0J-267544D01*
G01*
X22525000Y13817544D01*
G75*
G02*
X22257456Y13550000I-267544J0D01*
G01*
X20942544Y13550000D01*
G75*
G02*
X20675000Y13817544I0J267544D01*
G01*
X20675000Y14807456D01*
G75*
G02*
X20942544Y15075000I267544J0D01*
G01*
G37*
G36*
G01*
X20942544Y18050000D02*
X22257456Y18050000D01*
G75*
G02*
X22525000Y17782456I0J-267544D01*
G01*
X22525000Y16792544D01*
G75*
G02*
X22257456Y16525000I-267544J0D01*
G01*
X20942544Y16525000D01*
G75*
G02*
X20675000Y16792544I0J267544D01*
G01*
X20675000Y17782456D01*
G75*
G02*
X20942544Y18050000I267544J0D01*
G01*
G37*
%TD*%
D13*
%TO.C,D1*%
X5550000Y21100000D03*
X5550000Y17900000D03*
X11450000Y21100000D03*
X11450000Y17900000D03*
%TD*%
%TO.C,D2*%
X56450000Y17900000D03*
X56450000Y21100000D03*
X50550000Y17900000D03*
X50550000Y21100000D03*
%TD*%
%TO.C,D3*%
X95550000Y21100000D03*
X95550000Y17900000D03*
X101450000Y21100000D03*
X101450000Y17900000D03*
%TD*%
%TO.C,D4*%
X146450000Y17900000D03*
X146450000Y21100000D03*
X140550000Y17900000D03*
X140550000Y21100000D03*
%TD*%
%TO.C,D5*%
X185550000Y21100000D03*
X185550000Y17900000D03*
X191450000Y21100000D03*
X191450000Y17900000D03*
%TD*%
%TO.C,C1*%
G36*
G01*
X10750000Y15657456D02*
X10750000Y14342544D01*
G75*
G02*
X10482456Y14075000I-267544J0D01*
G01*
X9492544Y14075000D01*
G75*
G02*
X9225000Y14342544I0J267544D01*
G01*
X9225000Y15657456D01*
G75*
G02*
X9492544Y15925000I267544J0D01*
G01*
X10482456Y15925000D01*
G75*
G02*
X10750000Y15657456I0J-267544D01*
G01*
G37*
G36*
G01*
X7775000Y15657456D02*
X7775000Y14342544D01*
G75*
G02*
X7507456Y14075000I-267544J0D01*
G01*
X6517544Y14075000D01*
G75*
G02*
X6250000Y14342544I0J267544D01*
G01*
X6250000Y15657456D01*
G75*
G02*
X6517544Y15925000I267544J0D01*
G01*
X7507456Y15925000D01*
G75*
G02*
X7775000Y15657456I0J-267544D01*
G01*
G37*
%TD*%
%TO.C,C2*%
G36*
G01*
X61962500Y17372544D02*
X61962500Y18687456D01*
G75*
G02*
X62230044Y18955000I267544J0D01*
G01*
X63219956Y18955000D01*
G75*
G02*
X63487500Y18687456I0J-267544D01*
G01*
X63487500Y17372544D01*
G75*
G02*
X63219956Y17105000I-267544J0D01*
G01*
X62230044Y17105000D01*
G75*
G02*
X61962500Y17372544I0J267544D01*
G01*
G37*
G36*
G01*
X58987500Y17372544D02*
X58987500Y18687456D01*
G75*
G02*
X59255044Y18955000I267544J0D01*
G01*
X60244956Y18955000D01*
G75*
G02*
X60512500Y18687456I0J-267544D01*
G01*
X60512500Y17372544D01*
G75*
G02*
X60244956Y17105000I-267544J0D01*
G01*
X59255044Y17105000D01*
G75*
G02*
X58987500Y17372544I0J267544D01*
G01*
G37*
%TD*%
%TO.C,C3*%
G36*
G01*
X97775000Y15657456D02*
X97775000Y14342544D01*
G75*
G02*
X97507456Y14075000I-267544J0D01*
G01*
X96517544Y14075000D01*
G75*
G02*
X96250000Y14342544I0J267544D01*
G01*
X96250000Y15657456D01*
G75*
G02*
X96517544Y15925000I267544J0D01*
G01*
X97507456Y15925000D01*
G75*
G02*
X97775000Y15657456I0J-267544D01*
G01*
G37*
G36*
G01*
X100750000Y15657456D02*
X100750000Y14342544D01*
G75*
G02*
X100482456Y14075000I-267544J0D01*
G01*
X99492544Y14075000D01*
G75*
G02*
X99225000Y14342544I0J267544D01*
G01*
X99225000Y15657456D01*
G75*
G02*
X99492544Y15925000I267544J0D01*
G01*
X100482456Y15925000D01*
G75*
G02*
X100750000Y15657456I0J-267544D01*
G01*
G37*
%TD*%
%TO.C,C4*%
G36*
G01*
X142775000Y15657456D02*
X142775000Y14342544D01*
G75*
G02*
X142507456Y14075000I-267544J0D01*
G01*
X141517544Y14075000D01*
G75*
G02*
X141250000Y14342544I0J267544D01*
G01*
X141250000Y15657456D01*
G75*
G02*
X141517544Y15925000I267544J0D01*
G01*
X142507456Y15925000D01*
G75*
G02*
X142775000Y15657456I0J-267544D01*
G01*
G37*
G36*
G01*
X145750000Y15657456D02*
X145750000Y14342544D01*
G75*
G02*
X145482456Y14075000I-267544J0D01*
G01*
X144492544Y14075000D01*
G75*
G02*
X144225000Y14342544I0J267544D01*
G01*
X144225000Y15657456D01*
G75*
G02*
X144492544Y15925000I267544J0D01*
G01*
X145482456Y15925000D01*
G75*
G02*
X145750000Y15657456I0J-267544D01*
G01*
G37*
%TD*%
%TO.C,C5*%
G36*
G01*
X190750000Y15657456D02*
X190750000Y14342544D01*
G75*
G02*
X190482456Y14075000I-267544J0D01*
G01*
X189492544Y14075000D01*
G75*
G02*
X189225000Y14342544I0J267544D01*
G01*
X189225000Y15657456D01*
G75*
G02*
X189492544Y15925000I267544J0D01*
G01*
X190482456Y15925000D01*
G75*
G02*
X190750000Y15657456I0J-267544D01*
G01*
G37*
G36*
G01*
X187775000Y15657456D02*
X187775000Y14342544D01*
G75*
G02*
X187507456Y14075000I-267544J0D01*
G01*
X186517544Y14075000D01*
G75*
G02*
X186250000Y14342544I0J267544D01*
G01*
X186250000Y15657456D01*
G75*
G02*
X186517544Y15925000I267544J0D01*
G01*
X187507456Y15925000D01*
G75*
G02*
X187775000Y15657456I0J-267544D01*
G01*
G37*
%TD*%
D14*
%TO.C,SW1*%
X12960000Y3660000D03*
X12960000Y8740000D03*
X4040000Y3660000D03*
X4040000Y8740000D03*
%TD*%
%TO.C,SW2*%
X49040000Y8740000D03*
X49040000Y3660000D03*
X57960000Y8740000D03*
X57960000Y3660000D03*
%TD*%
%TO.C,SW3*%
X102960000Y3660000D03*
X102960000Y8740000D03*
X94040000Y3660000D03*
X94040000Y8740000D03*
%TD*%
%TO.C,SW4*%
X139040000Y8740000D03*
X139040000Y3660000D03*
X147960000Y8740000D03*
X147960000Y3660000D03*
%TD*%
%TO.C,U1*%
G36*
G01*
X23717500Y11200000D02*
X23392500Y11200000D01*
G75*
G02*
X23230000Y11362500I0J162500D01*
G01*
X23230000Y12737500D01*
G75*
G02*
X23392500Y12900000I162500J0D01*
G01*
X23717500Y12900000D01*
G75*
G02*
X23880000Y12737500I0J-162500D01*
G01*
X23880000Y11362500D01*
G75*
G02*
X23717500Y11200000I-162500J0D01*
G01*
G37*
G36*
G01*
X24987500Y11200000D02*
X24662500Y11200000D01*
G75*
G02*
X24500000Y11362500I0J162500D01*
G01*
X24500000Y12737500D01*
G75*
G02*
X24662500Y12900000I162500J0D01*
G01*
X24987500Y12900000D01*
G75*
G02*
X25150000Y12737500I0J-162500D01*
G01*
X25150000Y11362500D01*
G75*
G02*
X24987500Y11200000I-162500J0D01*
G01*
G37*
G36*
G01*
X26257500Y11200000D02*
X25932500Y11200000D01*
G75*
G02*
X25770000Y11362500I0J162500D01*
G01*
X25770000Y12737500D01*
G75*
G02*
X25932500Y12900000I162500J0D01*
G01*
X26257500Y12900000D01*
G75*
G02*
X26420000Y12737500I0J-162500D01*
G01*
X26420000Y11362500D01*
G75*
G02*
X26257500Y11200000I-162500J0D01*
G01*
G37*
G36*
G01*
X27527500Y11200000D02*
X27202500Y11200000D01*
G75*
G02*
X27040000Y11362500I0J162500D01*
G01*
X27040000Y12737500D01*
G75*
G02*
X27202500Y12900000I162500J0D01*
G01*
X27527500Y12900000D01*
G75*
G02*
X27690000Y12737500I0J-162500D01*
G01*
X27690000Y11362500D01*
G75*
G02*
X27527500Y11200000I-162500J0D01*
G01*
G37*
G36*
G01*
X28797500Y11200000D02*
X28472500Y11200000D01*
G75*
G02*
X28310000Y11362500I0J162500D01*
G01*
X28310000Y12737500D01*
G75*
G02*
X28472500Y12900000I162500J0D01*
G01*
X28797500Y12900000D01*
G75*
G02*
X28960000Y12737500I0J-162500D01*
G01*
X28960000Y11362500D01*
G75*
G02*
X28797500Y11200000I-162500J0D01*
G01*
G37*
G36*
G01*
X30067500Y11200000D02*
X29742500Y11200000D01*
G75*
G02*
X29580000Y11362500I0J162500D01*
G01*
X29580000Y12737500D01*
G75*
G02*
X29742500Y12900000I162500J0D01*
G01*
X30067500Y12900000D01*
G75*
G02*
X30230000Y12737500I0J-162500D01*
G01*
X30230000Y11362500D01*
G75*
G02*
X30067500Y11200000I-162500J0D01*
G01*
G37*
G36*
G01*
X31337500Y11200000D02*
X31012500Y11200000D01*
G75*
G02*
X30850000Y11362500I0J162500D01*
G01*
X30850000Y12737500D01*
G75*
G02*
X31012500Y12900000I162500J0D01*
G01*
X31337500Y12900000D01*
G75*
G02*
X31500000Y12737500I0J-162500D01*
G01*
X31500000Y11362500D01*
G75*
G02*
X31337500Y11200000I-162500J0D01*
G01*
G37*
G36*
G01*
X32607500Y11200000D02*
X32282500Y11200000D01*
G75*
G02*
X32120000Y11362500I0J162500D01*
G01*
X32120000Y12737500D01*
G75*
G02*
X32282500Y12900000I162500J0D01*
G01*
X32607500Y12900000D01*
G75*
G02*
X32770000Y12737500I0J-162500D01*
G01*
X32770000Y11362500D01*
G75*
G02*
X32607500Y11200000I-162500J0D01*
G01*
G37*
G36*
G01*
X32607500Y17700000D02*
X32282500Y17700000D01*
G75*
G02*
X32120000Y17862500I0J162500D01*
G01*
X32120000Y19237500D01*
G75*
G02*
X32282500Y19400000I162500J0D01*
G01*
X32607500Y19400000D01*
G75*
G02*
X32770000Y19237500I0J-162500D01*
G01*
X32770000Y17862500D01*
G75*
G02*
X32607500Y17700000I-162500J0D01*
G01*
G37*
G36*
G01*
X31337500Y17700000D02*
X31012500Y17700000D01*
G75*
G02*
X30850000Y17862500I0J162500D01*
G01*
X30850000Y19237500D01*
G75*
G02*
X31012500Y19400000I162500J0D01*
G01*
X31337500Y19400000D01*
G75*
G02*
X31500000Y19237500I0J-162500D01*
G01*
X31500000Y17862500D01*
G75*
G02*
X31337500Y17700000I-162500J0D01*
G01*
G37*
G36*
G01*
X30067500Y17700000D02*
X29742500Y17700000D01*
G75*
G02*
X29580000Y17862500I0J162500D01*
G01*
X29580000Y19237500D01*
G75*
G02*
X29742500Y19400000I162500J0D01*
G01*
X30067500Y19400000D01*
G75*
G02*
X30230000Y19237500I0J-162500D01*
G01*
X30230000Y17862500D01*
G75*
G02*
X30067500Y17700000I-162500J0D01*
G01*
G37*
G36*
G01*
X28797500Y17700000D02*
X28472500Y17700000D01*
G75*
G02*
X28310000Y17862500I0J162500D01*
G01*
X28310000Y19237500D01*
G75*
G02*
X28472500Y19400000I162500J0D01*
G01*
X28797500Y19400000D01*
G75*
G02*
X28960000Y19237500I0J-162500D01*
G01*
X28960000Y17862500D01*
G75*
G02*
X28797500Y17700000I-162500J0D01*
G01*
G37*
G36*
G01*
X27527500Y17700000D02*
X27202500Y17700000D01*
G75*
G02*
X27040000Y17862500I0J162500D01*
G01*
X27040000Y19237500D01*
G75*
G02*
X27202500Y19400000I162500J0D01*
G01*
X27527500Y19400000D01*
G75*
G02*
X27690000Y19237500I0J-162500D01*
G01*
X27690000Y17862500D01*
G75*
G02*
X27527500Y17700000I-162500J0D01*
G01*
G37*
G36*
G01*
X26257500Y17700000D02*
X25932500Y17700000D01*
G75*
G02*
X25770000Y17862500I0J162500D01*
G01*
X25770000Y19237500D01*
G75*
G02*
X25932500Y19400000I162500J0D01*
G01*
X26257500Y19400000D01*
G75*
G02*
X26420000Y19237500I0J-162500D01*
G01*
X26420000Y17862500D01*
G75*
G02*
X26257500Y17700000I-162500J0D01*
G01*
G37*
G36*
G01*
X24987500Y17700000D02*
X24662500Y17700000D01*
G75*
G02*
X24500000Y17862500I0J162500D01*
G01*
X24500000Y19237500D01*
G75*
G02*
X24662500Y19400000I162500J0D01*
G01*
X24987500Y19400000D01*
G75*
G02*
X25150000Y19237500I0J-162500D01*
G01*
X25150000Y17862500D01*
G75*
G02*
X24987500Y17700000I-162500J0D01*
G01*
G37*
G36*
G01*
X23717500Y17700000D02*
X23392500Y17700000D01*
G75*
G02*
X23230000Y17862500I0J162500D01*
G01*
X23230000Y19237500D01*
G75*
G02*
X23392500Y19400000I162500J0D01*
G01*
X23717500Y19400000D01*
G75*
G02*
X23880000Y19237500I0J-162500D01*
G01*
X23880000Y17862500D01*
G75*
G02*
X23717500Y17700000I-162500J0D01*
G01*
G37*
%TD*%
%TO.C,SW5*%
X184040000Y8740000D03*
X184040000Y3660000D03*
X192960000Y8740000D03*
X192960000Y3660000D03*
%TD*%
D10*
%TO.C,J2*%
X34850000Y2900000D03*
X32310000Y2900000D03*
X29770000Y2900000D03*
X27230000Y2900000D03*
X24690000Y2900000D03*
X22150000Y2900000D03*
%TD*%
D11*
X45280000Y5900000D03*
X45300000Y18175010D03*
X18800000Y19800000D03*
X47300000Y19800000D03*
X37700000Y8100000D03*
X24700000Y8100000D03*
X43000000Y8100000D03*
X43000000Y18200000D03*
X16900000Y6200000D03*
X45300000Y3500000D03*
X22100000Y6100000D03*
X17030000Y22090000D03*
X40700000Y8100000D03*
X40700000Y18200000D03*
M02*
