M48
; DRILL file {KiCad (5.1.6)-1} date 02/23/25 10:18:14
; FORMAT={-:-/ absolute / metric / decimal}
; #@! TF.CreationDate,2025-02-23T10:18:14-05:00
; #@! TF.GenerationSoftware,Kicad,Pcbnew,(5.1.6)-1
FMAT,2
METRIC
T1C0.400
T2C0.800
T3C1.000
T4C1.800
T5C3.200
%
G90
G05
T1
X156.325Y40.525
X156.325Y12.525
X156.325Y41.525
X156.325Y13.525
T2
X16.9Y34.15
X16.9Y6.15
X17.0Y48.9
X17.0Y20.9
X19.1Y47.1
X19.1Y19.1
X21.65Y34.15
X21.65Y6.15
X24.43Y35.92
X24.43Y7.92
X37.1Y35.9
X37.1Y7.9
X39.2Y45.2
X39.2Y17.2
X39.3Y34.8
X39.3Y6.8
X41.5Y45.2
X41.5Y17.2
X41.6Y34.8
X41.6Y6.8
X43.8Y45.175
X43.8Y17.175
X43.9Y34.8
X43.9Y6.8
X44.0Y31.7
X44.0Y3.7
X46.6Y47.1
X46.6Y19.1
X49.69Y36.74
X49.69Y31.66
X57.31Y36.74
X57.31Y31.66
X139.69Y36.74
X139.69Y31.66
X147.31Y36.74
X147.31Y31.66
X94.69Y36.74
X94.69Y31.66
X102.31Y36.74
X102.31Y31.66
X139.69Y8.74
X139.69Y3.66
X147.31Y8.74
X147.31Y3.66
X184.69Y36.74
X184.69Y31.66
X192.31Y36.74
X192.31Y31.66
X49.69Y8.74
X49.69Y3.66
X57.31Y8.74
X57.31Y3.66
X22.15Y3.5
X24.69Y3.5
X27.23Y3.5
X29.77Y3.5
X32.31Y3.5
X34.85Y3.5
X94.69Y8.74
X94.69Y3.66
X102.31Y8.74
X102.31Y3.66
X22.15Y31.5
X24.69Y31.5
X27.23Y31.5
X29.77Y31.5
X32.31Y31.5
X34.85Y31.5
X4.69Y36.74
X4.69Y31.66
X12.31Y36.74
X12.31Y31.66
X184.69Y8.74
X184.69Y3.66
X192.31Y8.74
X192.31Y3.66
X4.69Y8.74
X4.69Y3.66
X12.31Y8.74
X12.31Y3.66
T3
X22.5Y49.5
X25.04Y49.5
X27.58Y49.5
X30.12Y49.5
X32.66Y49.5
X35.2Y49.5
X22.5Y21.5
X25.04Y21.5
X27.58Y21.5
X30.12Y21.5
X32.66Y21.5
X35.2Y21.5
T4
X3.0Y42.0
X3.0Y14.0
T5
X121.0Y12.0
X166.0Y12.0
X76.0Y40.0
X121.0Y40.0
X166.0Y40.0
X76.0Y12.0
T0
M30
