%TF.GenerationSoftware,KiCad,Pcbnew,(5.1.6)-1*%
%TF.CreationDate,2025-01-26T05:21:37-05:00*%
%TF.ProjectId,test,74657374-2e6b-4696-9361-645f70636258,rev?*%
%TF.SameCoordinates,PX88601c0PY5f5e100*%
%TF.FileFunction,Soldermask,Top*%
%TF.FilePolarity,Negative*%
%FSLAX46Y46*%
G04 Gerber Fmt 4.6, Leading zero omitted, Abs format (unit mm)*
G04 Created by KiCad (PCBNEW (5.1.6)-1) date 2025-01-26 05:21:37*
%MOMM*%
%LPD*%
G01*
G04 APERTURE LIST*
%ADD10R,3.100000X1.600000*%
%ADD11C,2.300000*%
%ADD12C,2.100000*%
G04 APERTURE END LIST*
%TO.C,C6*%
G36*
G01*
X22242544Y14575000D02*
X23557456Y14575000D01*
G75*
G02*
X23825000Y14307456I0J-267544D01*
G01*
X23825000Y13317544D01*
G75*
G02*
X23557456Y13050000I-267544J0D01*
G01*
X22242544Y13050000D01*
G75*
G02*
X21975000Y13317544I0J267544D01*
G01*
X21975000Y14307456D01*
G75*
G02*
X22242544Y14575000I267544J0D01*
G01*
G37*
G36*
G01*
X22242544Y17550000D02*
X23557456Y17550000D01*
G75*
G02*
X23825000Y17282456I0J-267544D01*
G01*
X23825000Y16292544D01*
G75*
G02*
X23557456Y16025000I-267544J0D01*
G01*
X22242544Y16025000D01*
G75*
G02*
X21975000Y16292544I0J267544D01*
G01*
X21975000Y17282456D01*
G75*
G02*
X22242544Y17550000I267544J0D01*
G01*
G37*
%TD*%
D10*
%TO.C,D3*%
X4050000Y19600000D03*
X4050000Y16400000D03*
X9950000Y19600000D03*
X9950000Y16400000D03*
%TD*%
%TO.C,D4*%
X54950000Y16400000D03*
X54950000Y19600000D03*
X49050000Y16400000D03*
X49050000Y19600000D03*
%TD*%
D11*
%TO.C,J1*%
X23150000Y21700000D03*
X25690000Y21700000D03*
X28230000Y21700000D03*
X30770000Y21700000D03*
X33310000Y21700000D03*
X35850000Y21700000D03*
%TD*%
%TO.C,J2*%
X35950000Y3300000D03*
X33410000Y3300000D03*
X30870000Y3300000D03*
X28330000Y3300000D03*
X25790000Y3300000D03*
X23250000Y3300000D03*
%TD*%
%TO.C,C3*%
G36*
G01*
X6275000Y14157456D02*
X6275000Y12842544D01*
G75*
G02*
X6007456Y12575000I-267544J0D01*
G01*
X5017544Y12575000D01*
G75*
G02*
X4750000Y12842544I0J267544D01*
G01*
X4750000Y14157456D01*
G75*
G02*
X5017544Y14425000I267544J0D01*
G01*
X6007456Y14425000D01*
G75*
G02*
X6275000Y14157456I0J-267544D01*
G01*
G37*
G36*
G01*
X9250000Y14157456D02*
X9250000Y12842544D01*
G75*
G02*
X8982456Y12575000I-267544J0D01*
G01*
X7992544Y12575000D01*
G75*
G02*
X7725000Y12842544I0J267544D01*
G01*
X7725000Y14157456D01*
G75*
G02*
X7992544Y14425000I267544J0D01*
G01*
X8982456Y14425000D01*
G75*
G02*
X9250000Y14157456I0J-267544D01*
G01*
G37*
%TD*%
%TO.C,C4*%
G36*
G01*
X51275000Y14157456D02*
X51275000Y12842544D01*
G75*
G02*
X51007456Y12575000I-267544J0D01*
G01*
X50017544Y12575000D01*
G75*
G02*
X49750000Y12842544I0J267544D01*
G01*
X49750000Y14157456D01*
G75*
G02*
X50017544Y14425000I267544J0D01*
G01*
X51007456Y14425000D01*
G75*
G02*
X51275000Y14157456I0J-267544D01*
G01*
G37*
G36*
G01*
X54250000Y14157456D02*
X54250000Y12842544D01*
G75*
G02*
X53982456Y12575000I-267544J0D01*
G01*
X52992544Y12575000D01*
G75*
G02*
X52725000Y12842544I0J267544D01*
G01*
X52725000Y14157456D01*
G75*
G02*
X52992544Y14425000I267544J0D01*
G01*
X53982456Y14425000D01*
G75*
G02*
X54250000Y14157456I0J-267544D01*
G01*
G37*
%TD*%
%TO.C,U1*%
G36*
G01*
X25230000Y11700000D02*
X24880000Y11700000D01*
G75*
G02*
X24705000Y11875000I0J175000D01*
G01*
X24705000Y13575000D01*
G75*
G02*
X24880000Y13750000I175000J0D01*
G01*
X25230000Y13750000D01*
G75*
G02*
X25405000Y13575000I0J-175000D01*
G01*
X25405000Y11875000D01*
G75*
G02*
X25230000Y11700000I-175000J0D01*
G01*
G37*
G36*
G01*
X26500000Y11700000D02*
X26150000Y11700000D01*
G75*
G02*
X25975000Y11875000I0J175000D01*
G01*
X25975000Y13575000D01*
G75*
G02*
X26150000Y13750000I175000J0D01*
G01*
X26500000Y13750000D01*
G75*
G02*
X26675000Y13575000I0J-175000D01*
G01*
X26675000Y11875000D01*
G75*
G02*
X26500000Y11700000I-175000J0D01*
G01*
G37*
G36*
G01*
X27770000Y11700000D02*
X27420000Y11700000D01*
G75*
G02*
X27245000Y11875000I0J175000D01*
G01*
X27245000Y13575000D01*
G75*
G02*
X27420000Y13750000I175000J0D01*
G01*
X27770000Y13750000D01*
G75*
G02*
X27945000Y13575000I0J-175000D01*
G01*
X27945000Y11875000D01*
G75*
G02*
X27770000Y11700000I-175000J0D01*
G01*
G37*
G36*
G01*
X29040000Y11700000D02*
X28690000Y11700000D01*
G75*
G02*
X28515000Y11875000I0J175000D01*
G01*
X28515000Y13575000D01*
G75*
G02*
X28690000Y13750000I175000J0D01*
G01*
X29040000Y13750000D01*
G75*
G02*
X29215000Y13575000I0J-175000D01*
G01*
X29215000Y11875000D01*
G75*
G02*
X29040000Y11700000I-175000J0D01*
G01*
G37*
G36*
G01*
X30310000Y11700000D02*
X29960000Y11700000D01*
G75*
G02*
X29785000Y11875000I0J175000D01*
G01*
X29785000Y13575000D01*
G75*
G02*
X29960000Y13750000I175000J0D01*
G01*
X30310000Y13750000D01*
G75*
G02*
X30485000Y13575000I0J-175000D01*
G01*
X30485000Y11875000D01*
G75*
G02*
X30310000Y11700000I-175000J0D01*
G01*
G37*
G36*
G01*
X31580000Y11700000D02*
X31230000Y11700000D01*
G75*
G02*
X31055000Y11875000I0J175000D01*
G01*
X31055000Y13575000D01*
G75*
G02*
X31230000Y13750000I175000J0D01*
G01*
X31580000Y13750000D01*
G75*
G02*
X31755000Y13575000I0J-175000D01*
G01*
X31755000Y11875000D01*
G75*
G02*
X31580000Y11700000I-175000J0D01*
G01*
G37*
G36*
G01*
X32850000Y11700000D02*
X32500000Y11700000D01*
G75*
G02*
X32325000Y11875000I0J175000D01*
G01*
X32325000Y13575000D01*
G75*
G02*
X32500000Y13750000I175000J0D01*
G01*
X32850000Y13750000D01*
G75*
G02*
X33025000Y13575000I0J-175000D01*
G01*
X33025000Y11875000D01*
G75*
G02*
X32850000Y11700000I-175000J0D01*
G01*
G37*
G36*
G01*
X34120000Y11700000D02*
X33770000Y11700000D01*
G75*
G02*
X33595000Y11875000I0J175000D01*
G01*
X33595000Y13575000D01*
G75*
G02*
X33770000Y13750000I175000J0D01*
G01*
X34120000Y13750000D01*
G75*
G02*
X34295000Y13575000I0J-175000D01*
G01*
X34295000Y11875000D01*
G75*
G02*
X34120000Y11700000I-175000J0D01*
G01*
G37*
G36*
G01*
X34120000Y16650000D02*
X33770000Y16650000D01*
G75*
G02*
X33595000Y16825000I0J175000D01*
G01*
X33595000Y18525000D01*
G75*
G02*
X33770000Y18700000I175000J0D01*
G01*
X34120000Y18700000D01*
G75*
G02*
X34295000Y18525000I0J-175000D01*
G01*
X34295000Y16825000D01*
G75*
G02*
X34120000Y16650000I-175000J0D01*
G01*
G37*
G36*
G01*
X32850000Y16650000D02*
X32500000Y16650000D01*
G75*
G02*
X32325000Y16825000I0J175000D01*
G01*
X32325000Y18525000D01*
G75*
G02*
X32500000Y18700000I175000J0D01*
G01*
X32850000Y18700000D01*
G75*
G02*
X33025000Y18525000I0J-175000D01*
G01*
X33025000Y16825000D01*
G75*
G02*
X32850000Y16650000I-175000J0D01*
G01*
G37*
G36*
G01*
X31580000Y16650000D02*
X31230000Y16650000D01*
G75*
G02*
X31055000Y16825000I0J175000D01*
G01*
X31055000Y18525000D01*
G75*
G02*
X31230000Y18700000I175000J0D01*
G01*
X31580000Y18700000D01*
G75*
G02*
X31755000Y18525000I0J-175000D01*
G01*
X31755000Y16825000D01*
G75*
G02*
X31580000Y16650000I-175000J0D01*
G01*
G37*
G36*
G01*
X30310000Y16650000D02*
X29960000Y16650000D01*
G75*
G02*
X29785000Y16825000I0J175000D01*
G01*
X29785000Y18525000D01*
G75*
G02*
X29960000Y18700000I175000J0D01*
G01*
X30310000Y18700000D01*
G75*
G02*
X30485000Y18525000I0J-175000D01*
G01*
X30485000Y16825000D01*
G75*
G02*
X30310000Y16650000I-175000J0D01*
G01*
G37*
G36*
G01*
X29040000Y16650000D02*
X28690000Y16650000D01*
G75*
G02*
X28515000Y16825000I0J175000D01*
G01*
X28515000Y18525000D01*
G75*
G02*
X28690000Y18700000I175000J0D01*
G01*
X29040000Y18700000D01*
G75*
G02*
X29215000Y18525000I0J-175000D01*
G01*
X29215000Y16825000D01*
G75*
G02*
X29040000Y16650000I-175000J0D01*
G01*
G37*
G36*
G01*
X27770000Y16650000D02*
X27420000Y16650000D01*
G75*
G02*
X27245000Y16825000I0J175000D01*
G01*
X27245000Y18525000D01*
G75*
G02*
X27420000Y18700000I175000J0D01*
G01*
X27770000Y18700000D01*
G75*
G02*
X27945000Y18525000I0J-175000D01*
G01*
X27945000Y16825000D01*
G75*
G02*
X27770000Y16650000I-175000J0D01*
G01*
G37*
G36*
G01*
X26500000Y16650000D02*
X26150000Y16650000D01*
G75*
G02*
X25975000Y16825000I0J175000D01*
G01*
X25975000Y18525000D01*
G75*
G02*
X26150000Y18700000I175000J0D01*
G01*
X26500000Y18700000D01*
G75*
G02*
X26675000Y18525000I0J-175000D01*
G01*
X26675000Y16825000D01*
G75*
G02*
X26500000Y16650000I-175000J0D01*
G01*
G37*
G36*
G01*
X25230000Y16650000D02*
X24880000Y16650000D01*
G75*
G02*
X24705000Y16825000I0J175000D01*
G01*
X24705000Y18525000D01*
G75*
G02*
X24880000Y18700000I175000J0D01*
G01*
X25230000Y18700000D01*
G75*
G02*
X25405000Y18525000I0J-175000D01*
G01*
X25405000Y16825000D01*
G75*
G02*
X25230000Y16650000I-175000J0D01*
G01*
G37*
%TD*%
D10*
%TO.C,SW3*%
X4000000Y3460000D03*
X4000000Y8540000D03*
X10000000Y3460000D03*
X10000000Y8500000D03*
%TD*%
%TO.C,SW4*%
X55000000Y8500000D03*
X55000000Y3460000D03*
X49000000Y8540000D03*
X49000000Y3460000D03*
%TD*%
D12*
X38900000Y17000000D03*
X38900000Y3400000D03*
X18560000Y16570000D03*
X18560000Y12770000D03*
X14800000Y4000000D03*
X14800000Y13200000D03*
X38900000Y19700000D03*
X18800000Y19650000D03*
X20800000Y12900000D03*
X20800000Y18400000D03*
X45700000Y4200000D03*
X45700000Y12600000D03*
X41200000Y4600000D03*
X41200000Y15400000D03*
X16800000Y21000000D03*
X16800000Y5200000D03*
X43500000Y4800000D03*
X43500000Y15400000D03*
M02*
