%TF.GenerationSoftware,KiCad,Pcbnew,(5.1.6)-1*%
%TF.CreationDate,2025-01-26T05:21:37-05:00*%
%TF.ProjectId,test,74657374-2e6b-4696-9361-645f70636258,rev?*%
%TF.SameCoordinates,PX88601c0PY5f5e100*%
%TF.FileFunction,Copper,L1,Top*%
%TF.FilePolarity,Positive*%
%FSLAX46Y46*%
G04 Gerber Fmt 4.6, Leading zero omitted, Abs format (unit mm)*
G04 Created by KiCad (PCBNEW (5.1.6)-1) date 2025-01-26 05:21:37*
%MOMM*%
%LPD*%
G01*
G04 APERTURE LIST*
%TA.AperFunction,SMDPad,CuDef*%
%ADD10R,3.000000X1.500000*%
%TD*%
%TA.AperFunction,ComponentPad*%
%ADD11C,2.200000*%
%TD*%
%TA.AperFunction,ViaPad*%
%ADD12C,2.000000*%
%TD*%
%TA.AperFunction,Conductor*%
%ADD13C,1.000000*%
%TD*%
%TA.AperFunction,Conductor*%
%ADD14C,0.200000*%
%TD*%
G04 APERTURE END LIST*
%TO.P,C6,2*%
%TO.N,GND*%
%TA.AperFunction,SMDPad,CuDef*%
G36*
G01*
X22275000Y14525000D02*
X23525000Y14525000D01*
G75*
G02*
X23775000Y14275000I0J-250000D01*
G01*
X23775000Y13350000D01*
G75*
G02*
X23525000Y13100000I-250000J0D01*
G01*
X22275000Y13100000D01*
G75*
G02*
X22025000Y13350000I0J250000D01*
G01*
X22025000Y14275000D01*
G75*
G02*
X22275000Y14525000I250000J0D01*
G01*
G37*
%TD.AperFunction*%
%TO.P,C6,1*%
%TO.N,+5V*%
%TA.AperFunction,SMDPad,CuDef*%
G36*
G01*
X22275000Y17500000D02*
X23525000Y17500000D01*
G75*
G02*
X23775000Y17250000I0J-250000D01*
G01*
X23775000Y16325000D01*
G75*
G02*
X23525000Y16075000I-250000J0D01*
G01*
X22275000Y16075000D01*
G75*
G02*
X22025000Y16325000I0J250000D01*
G01*
X22025000Y17250000D01*
G75*
G02*
X22275000Y17500000I250000J0D01*
G01*
G37*
%TD.AperFunction*%
%TD*%
D10*
%TO.P,D3,3*%
%TO.N,GND*%
X4050000Y19600000D03*
%TO.P,D3,4*%
%TO.N,LED_DIN*%
X4050000Y16400000D03*
%TO.P,D3,2*%
%TO.N,Net-(D3-Pad2)*%
X9950000Y19600000D03*
%TO.P,D3,1*%
%TO.N,+5V*%
X9950000Y16400000D03*
%TD*%
%TO.P,D4,1*%
%TO.N,+5V*%
X54950000Y16400000D03*
%TO.P,D4,2*%
%TO.N,LED_DOUT*%
X54950000Y19600000D03*
%TO.P,D4,4*%
%TO.N,Net-(D3-Pad2)*%
X49050000Y16400000D03*
%TO.P,D4,3*%
%TO.N,GND*%
X49050000Y19600000D03*
%TD*%
D11*
%TO.P,J1,1*%
%TO.N,BTN_SENSE*%
X23150000Y21700000D03*
%TO.P,J1,2*%
%TO.N,LED_DIN*%
X25690000Y21700000D03*
%TO.P,J1,3*%
%TO.N,BTN_DIN*%
X28230000Y21700000D03*
%TO.P,J1,4*%
%TO.N,GND*%
X30770000Y21700000D03*
%TO.P,J1,5*%
%TO.N,BTN_CLK*%
X33310000Y21700000D03*
%TO.P,J1,6*%
%TO.N,+5V*%
X35850000Y21700000D03*
%TD*%
%TO.P,J2,6*%
%TO.N,+5V*%
X35950000Y3300000D03*
%TO.P,J2,5*%
%TO.N,BTN_CLK*%
X33410000Y3300000D03*
%TO.P,J2,4*%
%TO.N,GND*%
X30870000Y3300000D03*
%TO.P,J2,3*%
%TO.N,BTN_DOUT*%
X28330000Y3300000D03*
%TO.P,J2,2*%
%TO.N,LED_DOUT*%
X25790000Y3300000D03*
%TO.P,J2,1*%
%TO.N,BTN_SENSE*%
X23250000Y3300000D03*
%TD*%
%TO.P,C3,2*%
%TO.N,GND*%
%TA.AperFunction,SMDPad,CuDef*%
G36*
G01*
X6225000Y14125000D02*
X6225000Y12875000D01*
G75*
G02*
X5975000Y12625000I-250000J0D01*
G01*
X5050000Y12625000D01*
G75*
G02*
X4800000Y12875000I0J250000D01*
G01*
X4800000Y14125000D01*
G75*
G02*
X5050000Y14375000I250000J0D01*
G01*
X5975000Y14375000D01*
G75*
G02*
X6225000Y14125000I0J-250000D01*
G01*
G37*
%TD.AperFunction*%
%TO.P,C3,1*%
%TO.N,+5V*%
%TA.AperFunction,SMDPad,CuDef*%
G36*
G01*
X9200000Y14125000D02*
X9200000Y12875000D01*
G75*
G02*
X8950000Y12625000I-250000J0D01*
G01*
X8025000Y12625000D01*
G75*
G02*
X7775000Y12875000I0J250000D01*
G01*
X7775000Y14125000D01*
G75*
G02*
X8025000Y14375000I250000J0D01*
G01*
X8950000Y14375000D01*
G75*
G02*
X9200000Y14125000I0J-250000D01*
G01*
G37*
%TD.AperFunction*%
%TD*%
%TO.P,C4,2*%
%TO.N,GND*%
%TA.AperFunction,SMDPad,CuDef*%
G36*
G01*
X51225000Y14125000D02*
X51225000Y12875000D01*
G75*
G02*
X50975000Y12625000I-250000J0D01*
G01*
X50050000Y12625000D01*
G75*
G02*
X49800000Y12875000I0J250000D01*
G01*
X49800000Y14125000D01*
G75*
G02*
X50050000Y14375000I250000J0D01*
G01*
X50975000Y14375000D01*
G75*
G02*
X51225000Y14125000I0J-250000D01*
G01*
G37*
%TD.AperFunction*%
%TO.P,C4,1*%
%TO.N,+5V*%
%TA.AperFunction,SMDPad,CuDef*%
G36*
G01*
X54200000Y14125000D02*
X54200000Y12875000D01*
G75*
G02*
X53950000Y12625000I-250000J0D01*
G01*
X53025000Y12625000D01*
G75*
G02*
X52775000Y12875000I0J250000D01*
G01*
X52775000Y14125000D01*
G75*
G02*
X53025000Y14375000I250000J0D01*
G01*
X53950000Y14375000D01*
G75*
G02*
X54200000Y14125000I0J-250000D01*
G01*
G37*
%TD.AperFunction*%
%TD*%
%TO.P,U1,1*%
%TO.N,Net-(SW3-Pad1)*%
%TA.AperFunction,SMDPad,CuDef*%
G36*
G01*
X25205000Y11750000D02*
X24905000Y11750000D01*
G75*
G02*
X24755000Y11900000I0J150000D01*
G01*
X24755000Y13550000D01*
G75*
G02*
X24905000Y13700000I150000J0D01*
G01*
X25205000Y13700000D01*
G75*
G02*
X25355000Y13550000I0J-150000D01*
G01*
X25355000Y11900000D01*
G75*
G02*
X25205000Y11750000I-150000J0D01*
G01*
G37*
%TD.AperFunction*%
%TO.P,U1,2*%
%TO.N,Net-(SW2-Pad1)*%
%TA.AperFunction,SMDPad,CuDef*%
G36*
G01*
X26475000Y11750000D02*
X26175000Y11750000D01*
G75*
G02*
X26025000Y11900000I0J150000D01*
G01*
X26025000Y13550000D01*
G75*
G02*
X26175000Y13700000I150000J0D01*
G01*
X26475000Y13700000D01*
G75*
G02*
X26625000Y13550000I0J-150000D01*
G01*
X26625000Y11900000D01*
G75*
G02*
X26475000Y11750000I-150000J0D01*
G01*
G37*
%TD.AperFunction*%
%TO.P,U1,3*%
%TO.N,Net-(SW1-Pad1)*%
%TA.AperFunction,SMDPad,CuDef*%
G36*
G01*
X27745000Y11750000D02*
X27445000Y11750000D01*
G75*
G02*
X27295000Y11900000I0J150000D01*
G01*
X27295000Y13550000D01*
G75*
G02*
X27445000Y13700000I150000J0D01*
G01*
X27745000Y13700000D01*
G75*
G02*
X27895000Y13550000I0J-150000D01*
G01*
X27895000Y11900000D01*
G75*
G02*
X27745000Y11750000I-150000J0D01*
G01*
G37*
%TD.AperFunction*%
%TO.P,U1,4*%
%TO.N,Net-(SW5-Pad1)*%
%TA.AperFunction,SMDPad,CuDef*%
G36*
G01*
X29015000Y11750000D02*
X28715000Y11750000D01*
G75*
G02*
X28565000Y11900000I0J150000D01*
G01*
X28565000Y13550000D01*
G75*
G02*
X28715000Y13700000I150000J0D01*
G01*
X29015000Y13700000D01*
G75*
G02*
X29165000Y13550000I0J-150000D01*
G01*
X29165000Y11900000D01*
G75*
G02*
X29015000Y11750000I-150000J0D01*
G01*
G37*
%TD.AperFunction*%
%TO.P,U1,5*%
%TO.N,Net-(SW4-Pad1)*%
%TA.AperFunction,SMDPad,CuDef*%
G36*
G01*
X30285000Y11750000D02*
X29985000Y11750000D01*
G75*
G02*
X29835000Y11900000I0J150000D01*
G01*
X29835000Y13550000D01*
G75*
G02*
X29985000Y13700000I150000J0D01*
G01*
X30285000Y13700000D01*
G75*
G02*
X30435000Y13550000I0J-150000D01*
G01*
X30435000Y11900000D01*
G75*
G02*
X30285000Y11750000I-150000J0D01*
G01*
G37*
%TD.AperFunction*%
%TO.P,U1,6*%
%TO.N,Net-(U1-Pad6)*%
%TA.AperFunction,SMDPad,CuDef*%
G36*
G01*
X31555000Y11750000D02*
X31255000Y11750000D01*
G75*
G02*
X31105000Y11900000I0J150000D01*
G01*
X31105000Y13550000D01*
G75*
G02*
X31255000Y13700000I150000J0D01*
G01*
X31555000Y13700000D01*
G75*
G02*
X31705000Y13550000I0J-150000D01*
G01*
X31705000Y11900000D01*
G75*
G02*
X31555000Y11750000I-150000J0D01*
G01*
G37*
%TD.AperFunction*%
%TO.P,U1,7*%
%TO.N,Net-(U1-Pad7)*%
%TA.AperFunction,SMDPad,CuDef*%
G36*
G01*
X32825000Y11750000D02*
X32525000Y11750000D01*
G75*
G02*
X32375000Y11900000I0J150000D01*
G01*
X32375000Y13550000D01*
G75*
G02*
X32525000Y13700000I150000J0D01*
G01*
X32825000Y13700000D01*
G75*
G02*
X32975000Y13550000I0J-150000D01*
G01*
X32975000Y11900000D01*
G75*
G02*
X32825000Y11750000I-150000J0D01*
G01*
G37*
%TD.AperFunction*%
%TO.P,U1,8*%
%TO.N,GND*%
%TA.AperFunction,SMDPad,CuDef*%
G36*
G01*
X34095000Y11750000D02*
X33795000Y11750000D01*
G75*
G02*
X33645000Y11900000I0J150000D01*
G01*
X33645000Y13550000D01*
G75*
G02*
X33795000Y13700000I150000J0D01*
G01*
X34095000Y13700000D01*
G75*
G02*
X34245000Y13550000I0J-150000D01*
G01*
X34245000Y11900000D01*
G75*
G02*
X34095000Y11750000I-150000J0D01*
G01*
G37*
%TD.AperFunction*%
%TO.P,U1,9*%
%TO.N,BTN_DOUT*%
%TA.AperFunction,SMDPad,CuDef*%
G36*
G01*
X34095000Y16700000D02*
X33795000Y16700000D01*
G75*
G02*
X33645000Y16850000I0J150000D01*
G01*
X33645000Y18500000D01*
G75*
G02*
X33795000Y18650000I150000J0D01*
G01*
X34095000Y18650000D01*
G75*
G02*
X34245000Y18500000I0J-150000D01*
G01*
X34245000Y16850000D01*
G75*
G02*
X34095000Y16700000I-150000J0D01*
G01*
G37*
%TD.AperFunction*%
%TO.P,U1,10*%
%TO.N,+5V*%
%TA.AperFunction,SMDPad,CuDef*%
G36*
G01*
X32825000Y16700000D02*
X32525000Y16700000D01*
G75*
G02*
X32375000Y16850000I0J150000D01*
G01*
X32375000Y18500000D01*
G75*
G02*
X32525000Y18650000I150000J0D01*
G01*
X32825000Y18650000D01*
G75*
G02*
X32975000Y18500000I0J-150000D01*
G01*
X32975000Y16850000D01*
G75*
G02*
X32825000Y16700000I-150000J0D01*
G01*
G37*
%TD.AperFunction*%
%TO.P,U1,11*%
%TO.N,BTN_CLK*%
%TA.AperFunction,SMDPad,CuDef*%
G36*
G01*
X31555000Y16700000D02*
X31255000Y16700000D01*
G75*
G02*
X31105000Y16850000I0J150000D01*
G01*
X31105000Y18500000D01*
G75*
G02*
X31255000Y18650000I150000J0D01*
G01*
X31555000Y18650000D01*
G75*
G02*
X31705000Y18500000I0J-150000D01*
G01*
X31705000Y16850000D01*
G75*
G02*
X31555000Y16700000I-150000J0D01*
G01*
G37*
%TD.AperFunction*%
%TO.P,U1,12*%
%TA.AperFunction,SMDPad,CuDef*%
G36*
G01*
X30285000Y16700000D02*
X29985000Y16700000D01*
G75*
G02*
X29835000Y16850000I0J150000D01*
G01*
X29835000Y18500000D01*
G75*
G02*
X29985000Y18650000I150000J0D01*
G01*
X30285000Y18650000D01*
G75*
G02*
X30435000Y18500000I0J-150000D01*
G01*
X30435000Y16850000D01*
G75*
G02*
X30285000Y16700000I-150000J0D01*
G01*
G37*
%TD.AperFunction*%
%TO.P,U1,13*%
%TO.N,GND*%
%TA.AperFunction,SMDPad,CuDef*%
G36*
G01*
X29015000Y16700000D02*
X28715000Y16700000D01*
G75*
G02*
X28565000Y16850000I0J150000D01*
G01*
X28565000Y18500000D01*
G75*
G02*
X28715000Y18650000I150000J0D01*
G01*
X29015000Y18650000D01*
G75*
G02*
X29165000Y18500000I0J-150000D01*
G01*
X29165000Y16850000D01*
G75*
G02*
X29015000Y16700000I-150000J0D01*
G01*
G37*
%TD.AperFunction*%
%TO.P,U1,14*%
%TO.N,BTN_DIN*%
%TA.AperFunction,SMDPad,CuDef*%
G36*
G01*
X27745000Y16700000D02*
X27445000Y16700000D01*
G75*
G02*
X27295000Y16850000I0J150000D01*
G01*
X27295000Y18500000D01*
G75*
G02*
X27445000Y18650000I150000J0D01*
G01*
X27745000Y18650000D01*
G75*
G02*
X27895000Y18500000I0J-150000D01*
G01*
X27895000Y16850000D01*
G75*
G02*
X27745000Y16700000I-150000J0D01*
G01*
G37*
%TD.AperFunction*%
%TO.P,U1,15*%
%TO.N,Net-(U1-Pad15)*%
%TA.AperFunction,SMDPad,CuDef*%
G36*
G01*
X26475000Y16700000D02*
X26175000Y16700000D01*
G75*
G02*
X26025000Y16850000I0J150000D01*
G01*
X26025000Y18500000D01*
G75*
G02*
X26175000Y18650000I150000J0D01*
G01*
X26475000Y18650000D01*
G75*
G02*
X26625000Y18500000I0J-150000D01*
G01*
X26625000Y16850000D01*
G75*
G02*
X26475000Y16700000I-150000J0D01*
G01*
G37*
%TD.AperFunction*%
%TO.P,U1,16*%
%TO.N,+5V*%
%TA.AperFunction,SMDPad,CuDef*%
G36*
G01*
X25205000Y16700000D02*
X24905000Y16700000D01*
G75*
G02*
X24755000Y16850000I0J150000D01*
G01*
X24755000Y18500000D01*
G75*
G02*
X24905000Y18650000I150000J0D01*
G01*
X25205000Y18650000D01*
G75*
G02*
X25355000Y18500000I0J-150000D01*
G01*
X25355000Y16850000D01*
G75*
G02*
X25205000Y16700000I-150000J0D01*
G01*
G37*
%TD.AperFunction*%
%TD*%
D10*
%TO.P,SW3,2*%
%TO.N,BTN_SENSE*%
X4000000Y3460000D03*
%TO.P,SW3,1*%
%TO.N,Net-(SW3-Pad1)*%
X4000000Y8540000D03*
%TO.P,SW3,2*%
%TO.N,BTN_SENSE*%
X10000000Y3460000D03*
%TO.P,SW3,1*%
%TO.N,Net-(SW3-Pad1)*%
X10000000Y8500000D03*
%TD*%
%TO.P,SW4,1*%
%TO.N,Net-(SW4-Pad1)*%
X55000000Y8500000D03*
%TO.P,SW4,2*%
%TO.N,BTN_SENSE*%
X55000000Y3460000D03*
%TO.P,SW4,1*%
%TO.N,Net-(SW4-Pad1)*%
X49000000Y8540000D03*
%TO.P,SW4,2*%
%TO.N,BTN_SENSE*%
X49000000Y3460000D03*
%TD*%
D12*
%TO.N,+5V*%
X38900000Y17000000D03*
X38900000Y3400000D03*
X18560000Y16570000D03*
X18560000Y12770000D03*
%TO.N,GND*%
X14800000Y4000000D03*
X14800000Y13200000D03*
%TO.N,Net-(D3-Pad2)*%
X38900000Y19700000D03*
X18800000Y19650000D03*
%TO.N,LED_DIN*%
X20800000Y12900000D03*
X20800000Y18400000D03*
%TO.N,LED_DOUT*%
X45700000Y4200000D03*
X45700000Y12600000D03*
%TO.N,BTN_CLK*%
X41200000Y4600000D03*
X41200000Y15400000D03*
%TO.N,BTN_SENSE*%
X16800000Y21000000D03*
X16800000Y5200000D03*
%TO.N,BTN_DOUT*%
X43500000Y4800000D03*
X43500000Y15400000D03*
%TD*%
D13*
%TO.N,+5V*%
X8487500Y13500000D02*
X8487500Y13267522D01*
X8487500Y13500000D02*
X8600000Y13500000D01*
X52462510Y11600010D02*
X51600010Y11600010D01*
X25055000Y16700000D02*
X25755010Y15999990D01*
X36400000Y3100000D02*
X36400000Y3100000D01*
X9950000Y16400000D02*
X10102940Y16400000D01*
X10000000Y16300000D02*
X9900000Y16300000D01*
X9900000Y16300000D02*
X8500000Y14900000D01*
X8500000Y14900000D02*
X8500000Y13400000D01*
X18260000Y12270000D02*
X18260000Y12970000D01*
X18260000Y12970000D02*
X18260000Y13070000D01*
X19600000Y16700000D02*
X25055000Y16700000D01*
X25755010Y15999990D02*
X32699990Y15999990D01*
X52462510Y11600010D02*
X48797060Y11600010D01*
X48797060Y11600010D02*
X47500001Y12897069D01*
X34000010Y15999990D02*
X37749979Y12250021D01*
X32699990Y15999990D02*
X34000010Y15999990D01*
X37749979Y12250021D02*
X42834019Y12250021D01*
X47500001Y13316001D02*
X46516001Y14300001D01*
X47500001Y12897069D02*
X47500001Y13316001D01*
X46516001Y14300001D02*
X44883999Y14300001D01*
X42834019Y12250021D02*
X44883999Y14300001D01*
X38800000Y3300000D02*
X38900000Y3400000D01*
X35950000Y3300000D02*
X38800000Y3300000D01*
X17430011Y11540011D02*
X18760000Y12870000D01*
X8487500Y11757500D02*
X8270011Y11540011D01*
X8487500Y13500000D02*
X8487500Y11757500D01*
X8270011Y11540011D02*
X17430011Y11540011D01*
X25055000Y17675000D02*
X25055000Y16700000D01*
X32675000Y16024980D02*
X32699990Y15999990D01*
X32675000Y17675000D02*
X32675000Y16024980D01*
X35850000Y21700000D02*
X35850000Y21350000D01*
X44316001Y17100001D02*
X39000001Y17100001D01*
X39000001Y17100001D02*
X38900000Y17000000D01*
X45200001Y16216001D02*
X44316001Y17100001D01*
X45200001Y15500001D02*
X45200001Y16216001D01*
X45200001Y14616003D02*
X45200001Y15500001D01*
X35850000Y21700000D02*
X35850000Y19950000D01*
X38800000Y17000000D02*
X38900000Y17000000D01*
X35850000Y19950000D02*
X38800000Y17000000D01*
X55681250Y14818750D02*
X55949991Y15087491D01*
X55949991Y15087491D02*
X55949991Y16000000D01*
X53487500Y13012500D02*
X53681250Y12818750D01*
X53487500Y13500000D02*
X53487500Y13012500D01*
X52462510Y11600010D02*
X53681250Y12818750D01*
X53681250Y12818750D02*
X55681250Y14818750D01*
X19470000Y16570000D02*
X19600000Y16700000D01*
X18560000Y16570000D02*
X19470000Y16570000D01*
%TO.N,Net-(D3-Pad2)*%
X49050000Y16400000D02*
X48300000Y16400000D01*
X10881480Y19600000D02*
X9950000Y19600000D01*
X18619999Y19299999D02*
X18970000Y19650000D01*
X15900021Y19299999D02*
X18619999Y19299999D01*
X49050000Y16400000D02*
X46800000Y16400000D01*
X45513072Y17600000D02*
X44813061Y18300011D01*
X46800000Y16400000D02*
X45600000Y17600000D01*
X45600000Y17600000D02*
X45513072Y17600000D01*
X38900000Y19516002D02*
X38900000Y19700000D01*
X40115991Y18300011D02*
X38900000Y19516002D01*
X44813061Y18300011D02*
X40115991Y18300011D01*
X15900021Y19299999D02*
X10100001Y19299999D01*
%TO.N,Net-(SW1-Pad1)*%
X26199990Y9900010D02*
X27600000Y11300020D01*
X27600000Y11300020D02*
X27600000Y12500000D01*
X24505870Y9900010D02*
X26199990Y9900010D01*
X11460011Y5639989D02*
X12126350Y5639989D01*
X21602930Y6997070D02*
X24505870Y9900010D01*
X21445831Y6839971D02*
X21602930Y6997070D01*
X11460011Y5639989D02*
X12312688Y5639989D01*
X12312688Y5639989D02*
X13512669Y6839971D01*
X13512669Y6839971D02*
X21445831Y6839971D01*
%TO.N,Net-(SW2-Pad1)*%
X26300000Y11700000D02*
X26300000Y12000000D01*
X25650020Y11050020D02*
X26300000Y11700000D01*
X24029522Y11050020D02*
X25650020Y11050020D01*
X11836339Y6789999D02*
X13036321Y7989981D01*
X11510001Y6789999D02*
X11836339Y6789999D01*
X20969483Y7989981D02*
X24029522Y11050020D01*
X13036321Y7989981D02*
X20969483Y7989981D01*
%TO.N,Net-(SW3-Pad1)*%
X3190000Y8790000D02*
X3190000Y8540000D01*
X23553174Y12200030D02*
X25000000Y12200030D01*
X20493135Y9139991D02*
X23553174Y12200030D01*
X20493135Y9139991D02*
X20197060Y9139991D01*
X10000000Y8900000D02*
X9760009Y9139991D01*
X10000000Y8500000D02*
X10000000Y8900000D01*
X20197060Y9139991D02*
X9760009Y9139991D01*
X9760009Y9139991D02*
X3000000Y9139991D01*
%TO.N,Net-(SW4-Pad1)*%
X48190000Y8540000D02*
X48190000Y8610000D01*
X55810000Y8540000D02*
X55760000Y8540000D01*
X30135000Y11817902D02*
X30135000Y12725000D01*
X30902912Y11049990D02*
X30135000Y11817902D01*
X34623691Y11050010D02*
X44849990Y11050010D01*
X30902912Y11049990D02*
X34623671Y11049990D01*
X34623671Y11049990D02*
X34623691Y11050010D01*
X44849990Y11050010D02*
X47400000Y8500000D01*
X47400000Y8500000D02*
X48500000Y8500000D01*
X49000000Y8540000D02*
X49000000Y8500000D01*
X49360000Y8540000D02*
X49649991Y8250009D01*
X49000000Y8540000D02*
X49360000Y8540000D01*
X49649991Y8250009D02*
X54850009Y8250009D01*
%TO.N,Net-(SW5-Pad1)*%
X28900000Y11426543D02*
X28900000Y12700000D01*
X30426563Y9899980D02*
X28900000Y11426543D01*
X35100020Y9899980D02*
X30426563Y9899980D01*
X35100040Y9900000D02*
X35100020Y9899980D01*
X44200000Y9900000D02*
X35100040Y9900000D01*
X47000001Y7099999D02*
X44200000Y9900000D01*
%TO.N,LED_DIN*%
X22000000Y18400000D02*
X23130000Y19530000D01*
X23130000Y19530000D02*
X24760000Y19530000D01*
X24760000Y19530000D02*
X25680000Y20450000D01*
X25680000Y20450000D02*
X25680000Y21490000D01*
X20800000Y18400000D02*
X22000000Y18400000D01*
X20800000Y11143926D02*
X20800000Y12900000D01*
X19996075Y10340001D02*
X20800000Y11143926D01*
X4050000Y12531480D02*
X6241479Y10340001D01*
X4050000Y16400000D02*
X4050000Y12531480D01*
X6241479Y10340001D02*
X7340001Y10340001D01*
X7340001Y10340001D02*
X19996075Y10340001D01*
%TO.N,LED_DOUT*%
X43205880Y7499980D02*
X45700000Y5005860D01*
X42540142Y7570000D02*
X43130000Y7570000D01*
X25790000Y5790000D02*
X27499960Y7499960D01*
X45700000Y5005860D02*
X45700000Y4200000D01*
X27499960Y7569960D02*
X40099960Y7569960D01*
X25790000Y3300000D02*
X25790000Y5790000D01*
X40099990Y7569990D02*
X42616012Y7569990D01*
X55260002Y19600000D02*
X57150001Y17710001D01*
X57150001Y17710001D02*
X57150001Y14590431D01*
X54950000Y19600000D02*
X55260002Y19600000D01*
X57150001Y14590431D02*
X52959571Y10400001D01*
X48300000Y10400000D02*
X45800000Y12900000D01*
X52959571Y10400001D02*
X48300000Y10400000D01*
%TO.N,BTN_DIN*%
X28230000Y21700000D02*
X28230000Y20450000D01*
X28230000Y20450000D02*
X27580000Y19800000D01*
X27580000Y19800000D02*
X27580000Y17740000D01*
%TO.N,BTN_CLK*%
X33310000Y3200000D02*
X33310000Y3324002D01*
X33310000Y21900000D02*
X33310000Y21775998D01*
X30700000Y18100000D02*
X31200000Y17600000D01*
X30700000Y18100000D02*
X30200000Y17600000D01*
X30700000Y18900020D02*
X30700000Y18100000D01*
X40450040Y14650040D02*
X38744100Y14650040D01*
X35148549Y18245591D02*
X35148549Y18648549D01*
X41200000Y15400000D02*
X40450040Y14650040D01*
X38744100Y14650040D02*
X35148549Y18245591D01*
X31149990Y19350010D02*
X30700000Y18900020D01*
X35148549Y18648549D02*
X34447088Y19350010D01*
X33410000Y3300000D02*
X33410000Y3610000D01*
X33410000Y3300000D02*
X33410000Y3440000D01*
X40699999Y5100001D02*
X41200000Y4600000D01*
X35070001Y5100001D02*
X40699999Y5100001D01*
X33410000Y3440000D02*
X35070001Y5100001D01*
X33310000Y19620000D02*
X33579990Y19350010D01*
X33310000Y21700000D02*
X33310000Y19620000D01*
X34447088Y19350010D02*
X33579990Y19350010D01*
X33579990Y19350010D02*
X31149990Y19350010D01*
%TO.N,BTN_SENSE*%
X10810000Y3460000D02*
X10810000Y3990000D01*
X10810000Y4310000D02*
X10939979Y4439979D01*
X10810000Y3460000D02*
X10810000Y4310000D01*
X12809746Y4439979D02*
X14009728Y5639961D01*
X10939979Y4439979D02*
X12809746Y4439979D01*
X14009728Y5639961D02*
X19257109Y5639961D01*
X20550000Y5550000D02*
X20460039Y5639961D01*
X19257109Y5639961D02*
X20460039Y5639961D01*
X25002898Y8699968D02*
X21942891Y5639961D01*
X46812940Y5589990D02*
X43702940Y8699990D01*
X43692950Y8750000D02*
X39090000Y8750000D01*
X21942891Y5639961D02*
X20460039Y5639961D01*
X39097070Y8750000D02*
X25000000Y8750000D01*
X20910039Y5639961D02*
X20460039Y5639961D01*
X23250000Y3300000D02*
X20910039Y5639961D01*
X17700000Y21700000D02*
X17000000Y21000000D01*
X23150000Y21700000D02*
X17700000Y21700000D01*
X46812940Y5589990D02*
X46812940Y5587060D01*
X46812940Y5587060D02*
X48900000Y3500000D01*
X49000000Y3460000D02*
X55140000Y3460000D01*
X4000000Y3460000D02*
X10140000Y3460000D01*
%TO.N,BTN_DOUT*%
X38249970Y13450030D02*
X42336958Y13450030D01*
X43500000Y14613072D02*
X43500000Y15400000D01*
X42336958Y13450030D02*
X43500000Y14613072D01*
X42336958Y13450030D02*
X38247040Y13450030D01*
X38247040Y13450030D02*
X33997070Y17700000D01*
X43500000Y5508790D02*
X43500000Y4800000D01*
X42708810Y6331190D02*
X43500000Y5540000D01*
X28330000Y4855634D02*
X29774316Y6299950D01*
X29790000Y6370000D02*
X40615634Y6370000D01*
X28330000Y3300000D02*
X28330000Y4855634D01*
X40550000Y6360000D02*
X42658830Y6360000D01*
%TD*%
D14*
%TO.N,GND*%
G36*
X59075000Y425000D02*
G01*
X425000Y425000D01*
X425000Y9139991D01*
X2095646Y9139991D01*
X2098065Y9115431D01*
X2098065Y7790000D01*
X2105788Y7711586D01*
X2128660Y7636186D01*
X2165803Y7566697D01*
X2215789Y7505789D01*
X2276697Y7455803D01*
X2346186Y7418660D01*
X2421586Y7395788D01*
X2500000Y7388065D01*
X5500000Y7388065D01*
X5578414Y7395788D01*
X5653814Y7418660D01*
X5723303Y7455803D01*
X5784211Y7505789D01*
X5834197Y7566697D01*
X5871340Y7636186D01*
X5894212Y7711586D01*
X5901935Y7790000D01*
X5901935Y8239991D01*
X8098065Y8239991D01*
X8098065Y7750000D01*
X8105788Y7671586D01*
X8128660Y7596186D01*
X8165803Y7526697D01*
X8215789Y7465789D01*
X8276697Y7415803D01*
X8346186Y7378660D01*
X8421586Y7355788D01*
X8500000Y7348065D01*
X10803716Y7348065D01*
X10758058Y7292431D01*
X10674487Y7136080D01*
X10623024Y6966430D01*
X10605647Y6789999D01*
X10623024Y6613568D01*
X10674487Y6443918D01*
X10758058Y6287567D01*
X10792622Y6245451D01*
X10708068Y6142421D01*
X10624497Y5986070D01*
X10573034Y5816420D01*
X10555657Y5639989D01*
X10573034Y5463558D01*
X10624497Y5293908D01*
X10628698Y5286049D01*
X10593898Y5275493D01*
X10437547Y5191922D01*
X10300504Y5079454D01*
X10272324Y5045116D01*
X10204861Y4977653D01*
X10170526Y4949475D01*
X10142348Y4915140D01*
X10142345Y4915137D01*
X10058057Y4812431D01*
X9974487Y4656081D01*
X9961095Y4611935D01*
X8500000Y4611935D01*
X8421586Y4604212D01*
X8346186Y4581340D01*
X8276697Y4544197D01*
X8215789Y4494211D01*
X8165803Y4433303D01*
X8128660Y4363814D01*
X8127503Y4360000D01*
X5872497Y4360000D01*
X5871340Y4363814D01*
X5834197Y4433303D01*
X5784211Y4494211D01*
X5723303Y4544197D01*
X5653814Y4581340D01*
X5578414Y4604212D01*
X5500000Y4611935D01*
X2500000Y4611935D01*
X2421586Y4604212D01*
X2346186Y4581340D01*
X2276697Y4544197D01*
X2215789Y4494211D01*
X2165803Y4433303D01*
X2128660Y4363814D01*
X2105788Y4288414D01*
X2098065Y4210000D01*
X2098065Y2710000D01*
X2105788Y2631586D01*
X2128660Y2556186D01*
X2165803Y2486697D01*
X2215789Y2425789D01*
X2276697Y2375803D01*
X2346186Y2338660D01*
X2421586Y2315788D01*
X2500000Y2308065D01*
X5500000Y2308065D01*
X5578414Y2315788D01*
X5653814Y2338660D01*
X5723303Y2375803D01*
X5784211Y2425789D01*
X5834197Y2486697D01*
X5871340Y2556186D01*
X5872497Y2560000D01*
X8127503Y2560000D01*
X8128660Y2556186D01*
X8165803Y2486697D01*
X8215789Y2425789D01*
X8276697Y2375803D01*
X8346186Y2338660D01*
X8421586Y2315788D01*
X8500000Y2308065D01*
X11500000Y2308065D01*
X11578414Y2315788D01*
X11653814Y2338660D01*
X11723303Y2375803D01*
X11784211Y2425789D01*
X11834197Y2486697D01*
X11871340Y2556186D01*
X11894212Y2631586D01*
X11901935Y2710000D01*
X11901935Y3539979D01*
X12765540Y3539979D01*
X12809746Y3535625D01*
X12853952Y3539979D01*
X12853953Y3539979D01*
X12986177Y3553002D01*
X13155827Y3604465D01*
X13312178Y3688036D01*
X13449221Y3800504D01*
X13477403Y3834844D01*
X14382520Y4739961D01*
X15475205Y4739961D01*
X15559336Y4536851D01*
X15712549Y4307552D01*
X15907552Y4112549D01*
X16136851Y3959336D01*
X16391635Y3853801D01*
X16662112Y3800000D01*
X16937888Y3800000D01*
X17208365Y3853801D01*
X17463149Y3959336D01*
X17692448Y4112549D01*
X17887451Y4307552D01*
X18040664Y4536851D01*
X18124795Y4739961D01*
X20156261Y4739961D01*
X20203919Y4714487D01*
X20373570Y4663023D01*
X20549999Y4645646D01*
X20624249Y4652959D01*
X21763185Y3514023D01*
X21750000Y3447737D01*
X21750000Y3152263D01*
X21807644Y2862466D01*
X21920717Y2589483D01*
X22084874Y2343806D01*
X22293806Y2134874D01*
X22539483Y1970717D01*
X22812466Y1857644D01*
X23102263Y1800000D01*
X23397737Y1800000D01*
X23687534Y1857644D01*
X23960517Y1970717D01*
X24206194Y2134874D01*
X24415126Y2343806D01*
X24520000Y2500760D01*
X24624874Y2343806D01*
X24833806Y2134874D01*
X25079483Y1970717D01*
X25352466Y1857644D01*
X25642263Y1800000D01*
X25937737Y1800000D01*
X26227534Y1857644D01*
X26500517Y1970717D01*
X26746194Y2134874D01*
X26955126Y2343806D01*
X27060000Y2500760D01*
X27164874Y2343806D01*
X27373806Y2134874D01*
X27619483Y1970717D01*
X27892466Y1857644D01*
X28182263Y1800000D01*
X28477737Y1800000D01*
X28767534Y1857644D01*
X29040517Y1970717D01*
X29286194Y2134874D01*
X29495126Y2343806D01*
X29659283Y2589483D01*
X29772356Y2862466D01*
X29830000Y3152263D01*
X29830000Y3447737D01*
X29772356Y3737534D01*
X29659283Y4010517D01*
X29495126Y4256194D01*
X29286194Y4465126D01*
X29241888Y4494730D01*
X30217158Y5470000D01*
X34167208Y5470000D01*
X33497208Y4800000D01*
X33262263Y4800000D01*
X32972466Y4742356D01*
X32699483Y4629283D01*
X32453806Y4465126D01*
X32244874Y4256194D01*
X32080717Y4010517D01*
X31967644Y3737534D01*
X31910000Y3447737D01*
X31910000Y3152263D01*
X31967644Y2862466D01*
X32080717Y2589483D01*
X32244874Y2343806D01*
X32453806Y2134874D01*
X32699483Y1970717D01*
X32972466Y1857644D01*
X33262263Y1800000D01*
X33557737Y1800000D01*
X33847534Y1857644D01*
X34120517Y1970717D01*
X34366194Y2134874D01*
X34575126Y2343806D01*
X34680000Y2500760D01*
X34784874Y2343806D01*
X34993806Y2134874D01*
X35239483Y1970717D01*
X35512466Y1857644D01*
X35802263Y1800000D01*
X36097737Y1800000D01*
X36387534Y1857644D01*
X36660517Y1970717D01*
X36906194Y2134874D01*
X37115126Y2343806D01*
X37152674Y2400000D01*
X37920101Y2400000D01*
X38007552Y2312549D01*
X38236851Y2159336D01*
X38491635Y2053801D01*
X38762112Y2000000D01*
X39037888Y2000000D01*
X39308365Y2053801D01*
X39563149Y2159336D01*
X39792448Y2312549D01*
X39987451Y2507552D01*
X40140664Y2736851D01*
X40246199Y2991635D01*
X40300000Y3262112D01*
X40300000Y3520101D01*
X40307552Y3512549D01*
X40536851Y3359336D01*
X40791635Y3253801D01*
X41062112Y3200000D01*
X41337888Y3200000D01*
X41608365Y3253801D01*
X41863149Y3359336D01*
X42092448Y3512549D01*
X42287451Y3707552D01*
X42417667Y3902434D01*
X42607552Y3712549D01*
X42836851Y3559336D01*
X43091635Y3453801D01*
X43362112Y3400000D01*
X43637888Y3400000D01*
X43908365Y3453801D01*
X44163149Y3559336D01*
X44387836Y3709467D01*
X44459336Y3536851D01*
X44612549Y3307552D01*
X44807552Y3112549D01*
X45036851Y2959336D01*
X45291635Y2853801D01*
X45562112Y2800000D01*
X45837888Y2800000D01*
X46108365Y2853801D01*
X46363149Y2959336D01*
X46592448Y3112549D01*
X46787451Y3307552D01*
X46940664Y3536851D01*
X47046199Y3791635D01*
X47094209Y4032999D01*
X47098065Y4029143D01*
X47098065Y2710000D01*
X47105788Y2631586D01*
X47128660Y2556186D01*
X47165803Y2486697D01*
X47215789Y2425789D01*
X47276697Y2375803D01*
X47346186Y2338660D01*
X47421586Y2315788D01*
X47500000Y2308065D01*
X50500000Y2308065D01*
X50578414Y2315788D01*
X50653814Y2338660D01*
X50723303Y2375803D01*
X50784211Y2425789D01*
X50834197Y2486697D01*
X50871340Y2556186D01*
X50872497Y2560000D01*
X53127503Y2560000D01*
X53128660Y2556186D01*
X53165803Y2486697D01*
X53215789Y2425789D01*
X53276697Y2375803D01*
X53346186Y2338660D01*
X53421586Y2315788D01*
X53500000Y2308065D01*
X56500000Y2308065D01*
X56578414Y2315788D01*
X56653814Y2338660D01*
X56723303Y2375803D01*
X56784211Y2425789D01*
X56834197Y2486697D01*
X56871340Y2556186D01*
X56894212Y2631586D01*
X56901935Y2710000D01*
X56901935Y4210000D01*
X56894212Y4288414D01*
X56871340Y4363814D01*
X56834197Y4433303D01*
X56784211Y4494211D01*
X56723303Y4544197D01*
X56653814Y4581340D01*
X56578414Y4604212D01*
X56500000Y4611935D01*
X53500000Y4611935D01*
X53421586Y4604212D01*
X53346186Y4581340D01*
X53276697Y4544197D01*
X53215789Y4494211D01*
X53165803Y4433303D01*
X53128660Y4363814D01*
X53127503Y4360000D01*
X50872497Y4360000D01*
X50871340Y4363814D01*
X50834197Y4433303D01*
X50784211Y4494211D01*
X50723303Y4544197D01*
X50653814Y4581340D01*
X50578414Y4604212D01*
X50500000Y4611935D01*
X49060857Y4611935D01*
X47494008Y6178784D01*
X47480595Y6195128D01*
X47480593Y6195130D01*
X47452415Y6229465D01*
X47418081Y6257642D01*
X47388542Y6287181D01*
X47502432Y6348057D01*
X47639475Y6460525D01*
X47751943Y6597568D01*
X47835514Y6753918D01*
X47886977Y6923569D01*
X47904354Y7100000D01*
X47886977Y7276431D01*
X47853113Y7388065D01*
X49391038Y7388065D01*
X49473560Y7363032D01*
X49605784Y7350009D01*
X49605786Y7350009D01*
X49649990Y7345655D01*
X49694194Y7350009D01*
X53480262Y7350009D01*
X53500000Y7348065D01*
X56500000Y7348065D01*
X56578414Y7355788D01*
X56653814Y7378660D01*
X56723303Y7415803D01*
X56784211Y7465789D01*
X56834197Y7526697D01*
X56871340Y7596186D01*
X56894212Y7671586D01*
X56901935Y7750000D01*
X56901935Y9250000D01*
X56894212Y9328414D01*
X56871340Y9403814D01*
X56834197Y9473303D01*
X56784211Y9534211D01*
X56723303Y9584197D01*
X56653814Y9621340D01*
X56578414Y9644212D01*
X56500000Y9651935D01*
X53500000Y9651935D01*
X53462188Y9648211D01*
X53564708Y9732346D01*
X53564711Y9732349D01*
X53599046Y9760527D01*
X53627224Y9794862D01*
X57755136Y13922774D01*
X57789476Y13950956D01*
X57901944Y14087999D01*
X57985515Y14244350D01*
X58036978Y14414000D01*
X58050001Y14546224D01*
X58054355Y14590431D01*
X58050001Y14634637D01*
X58050001Y17665798D01*
X58054355Y17710002D01*
X58049379Y17760526D01*
X58036978Y17886432D01*
X57985515Y18056082D01*
X57901944Y18212433D01*
X57849423Y18276430D01*
X57817656Y18315139D01*
X57817654Y18315141D01*
X57789476Y18349476D01*
X57755142Y18377653D01*
X56851935Y19280860D01*
X56851935Y20350000D01*
X56844212Y20428414D01*
X56821340Y20503814D01*
X56784197Y20573303D01*
X56734211Y20634211D01*
X56673303Y20684197D01*
X56603814Y20721340D01*
X56528414Y20744212D01*
X56450000Y20751935D01*
X53450000Y20751935D01*
X53371586Y20744212D01*
X53296186Y20721340D01*
X53226697Y20684197D01*
X53165789Y20634211D01*
X53115803Y20573303D01*
X53078660Y20503814D01*
X53055788Y20428414D01*
X53048065Y20350000D01*
X53048065Y18850000D01*
X53055788Y18771586D01*
X53078660Y18696186D01*
X53115803Y18626697D01*
X53165789Y18565789D01*
X53226697Y18515803D01*
X53296186Y18478660D01*
X53371586Y18455788D01*
X53450000Y18448065D01*
X55139145Y18448065D01*
X56035274Y17551935D01*
X53450000Y17551935D01*
X53371586Y17544212D01*
X53296186Y17521340D01*
X53226697Y17484197D01*
X53165789Y17434211D01*
X53115803Y17373303D01*
X53078660Y17303814D01*
X53055788Y17228414D01*
X53048065Y17150000D01*
X53048065Y15650000D01*
X53055788Y15571586D01*
X53078660Y15496186D01*
X53115803Y15426697D01*
X53165789Y15365789D01*
X53226697Y15315803D01*
X53296186Y15278660D01*
X53371586Y15255788D01*
X53450000Y15248065D01*
X54837772Y15248065D01*
X54276077Y14686370D01*
X54199485Y14727309D01*
X54077186Y14764408D01*
X53950000Y14776935D01*
X53025000Y14776935D01*
X52897814Y14764408D01*
X52775515Y14727309D01*
X52662804Y14667064D01*
X52564012Y14585988D01*
X52482936Y14487196D01*
X52422691Y14374485D01*
X52385592Y14252186D01*
X52373065Y14125000D01*
X52373065Y12875000D01*
X52381282Y12791574D01*
X52089718Y12500010D01*
X49169852Y12500010D01*
X48400001Y13269861D01*
X48400001Y13271798D01*
X48404355Y13316002D01*
X48396131Y13399500D01*
X48386978Y13492432D01*
X48335515Y13662082D01*
X48251944Y13818433D01*
X48180479Y13905514D01*
X48167656Y13921139D01*
X48167654Y13921141D01*
X48139476Y13955476D01*
X48105141Y13983654D01*
X47183658Y14905136D01*
X47155476Y14939476D01*
X47018433Y15051944D01*
X46862082Y15135515D01*
X46692432Y15186978D01*
X46560208Y15200001D01*
X46560207Y15200001D01*
X46516001Y15204355D01*
X46471795Y15200001D01*
X46100001Y15200001D01*
X46100001Y15827207D01*
X46132343Y15794865D01*
X46160525Y15760525D01*
X46297568Y15648057D01*
X46453919Y15564486D01*
X46623569Y15513023D01*
X46755793Y15500000D01*
X46755795Y15500000D01*
X46799999Y15495646D01*
X46844203Y15500000D01*
X47177503Y15500000D01*
X47178660Y15496186D01*
X47215803Y15426697D01*
X47265789Y15365789D01*
X47326697Y15315803D01*
X47396186Y15278660D01*
X47471586Y15255788D01*
X47550000Y15248065D01*
X50550000Y15248065D01*
X50628414Y15255788D01*
X50703814Y15278660D01*
X50773303Y15315803D01*
X50834211Y15365789D01*
X50884197Y15426697D01*
X50921340Y15496186D01*
X50944212Y15571586D01*
X50951935Y15650000D01*
X50951935Y17150000D01*
X50944212Y17228414D01*
X50921340Y17303814D01*
X50884197Y17373303D01*
X50834211Y17434211D01*
X50773303Y17484197D01*
X50703814Y17521340D01*
X50628414Y17544212D01*
X50550000Y17551935D01*
X47550000Y17551935D01*
X47471586Y17544212D01*
X47396186Y17521340D01*
X47326697Y17484197D01*
X47265789Y17434211D01*
X47215803Y17373303D01*
X47178660Y17303814D01*
X47177503Y17300000D01*
X47172792Y17300000D01*
X46267655Y18205137D01*
X46239475Y18239475D01*
X46102432Y18351943D01*
X45955253Y18430611D01*
X45480718Y18905146D01*
X45452536Y18939486D01*
X45315493Y19051954D01*
X45159142Y19135525D01*
X44989492Y19186988D01*
X44857268Y19200011D01*
X44857267Y19200011D01*
X44813061Y19204365D01*
X44768855Y19200011D01*
X40488784Y19200011D01*
X40271245Y19417550D01*
X40300000Y19562112D01*
X40300000Y19837888D01*
X40246199Y20108365D01*
X40140664Y20363149D01*
X39987451Y20592448D01*
X39792448Y20787451D01*
X39563149Y20940664D01*
X39308365Y21046199D01*
X39037888Y21100000D01*
X38762112Y21100000D01*
X38491635Y21046199D01*
X38236851Y20940664D01*
X38007552Y20787451D01*
X37812549Y20592448D01*
X37659336Y20363149D01*
X37553801Y20108365D01*
X37500000Y19837888D01*
X37500000Y19572792D01*
X36750000Y20322792D01*
X36750000Y20497326D01*
X36806194Y20534874D01*
X37015126Y20743806D01*
X37179283Y20989483D01*
X37292356Y21262466D01*
X37350000Y21552263D01*
X37350000Y21847737D01*
X37292356Y22137534D01*
X37179283Y22410517D01*
X37015126Y22656194D01*
X36806194Y22865126D01*
X36560517Y23029283D01*
X36287534Y23142356D01*
X35997737Y23200000D01*
X35702263Y23200000D01*
X35412466Y23142356D01*
X35139483Y23029283D01*
X34893806Y22865126D01*
X34684874Y22656194D01*
X34580000Y22499240D01*
X34475126Y22656194D01*
X34266194Y22865126D01*
X34020517Y23029283D01*
X33747534Y23142356D01*
X33457737Y23200000D01*
X33162263Y23200000D01*
X32872466Y23142356D01*
X32599483Y23029283D01*
X32353806Y22865126D01*
X32144874Y22656194D01*
X31980717Y22410517D01*
X31867644Y22137534D01*
X31810000Y21847737D01*
X31810000Y21552263D01*
X31867644Y21262466D01*
X31980717Y20989483D01*
X32144874Y20743806D01*
X32353806Y20534874D01*
X32410001Y20497326D01*
X32410001Y20250010D01*
X31194196Y20250010D01*
X31149990Y20254364D01*
X31105783Y20250010D01*
X30973559Y20236987D01*
X30803909Y20185524D01*
X30647558Y20101953D01*
X30510515Y19989485D01*
X30482334Y19955146D01*
X30094865Y19567677D01*
X30060525Y19539495D01*
X29948057Y19402451D01*
X29864486Y19246100D01*
X29825496Y19117568D01*
X29813023Y19076450D01*
X29807477Y19020142D01*
X29773784Y19009921D01*
X29678361Y18958917D01*
X29594723Y18890277D01*
X29526083Y18806639D01*
X29475079Y18711216D01*
X29443670Y18607677D01*
X29433065Y18500000D01*
X29433065Y18074383D01*
X29364487Y17946081D01*
X29313023Y17776430D01*
X29295646Y17600000D01*
X29313023Y17423570D01*
X29364487Y17253919D01*
X29433065Y17125617D01*
X29433065Y16899990D01*
X28296935Y16899990D01*
X28296935Y17194911D01*
X28331943Y17237568D01*
X28415514Y17393919D01*
X28466977Y17563569D01*
X28480000Y17695793D01*
X28480000Y19427208D01*
X28835135Y19782343D01*
X28869475Y19810525D01*
X28981943Y19947568D01*
X29065514Y20103919D01*
X29116977Y20273569D01*
X29130000Y20405793D01*
X29130000Y20405794D01*
X29134354Y20450000D01*
X29130000Y20494207D01*
X29130000Y20497326D01*
X29186194Y20534874D01*
X29395126Y20743806D01*
X29559283Y20989483D01*
X29672356Y21262466D01*
X29730000Y21552263D01*
X29730000Y21847737D01*
X29672356Y22137534D01*
X29559283Y22410517D01*
X29395126Y22656194D01*
X29186194Y22865126D01*
X28940517Y23029283D01*
X28667534Y23142356D01*
X28377737Y23200000D01*
X28082263Y23200000D01*
X27792466Y23142356D01*
X27519483Y23029283D01*
X27273806Y22865126D01*
X27064874Y22656194D01*
X26960000Y22499240D01*
X26855126Y22656194D01*
X26646194Y22865126D01*
X26400517Y23029283D01*
X26127534Y23142356D01*
X25837737Y23200000D01*
X25542263Y23200000D01*
X25252466Y23142356D01*
X24979483Y23029283D01*
X24733806Y22865126D01*
X24524874Y22656194D01*
X24420000Y22499240D01*
X24315126Y22656194D01*
X24106194Y22865126D01*
X23860517Y23029283D01*
X23587534Y23142356D01*
X23297737Y23200000D01*
X23002263Y23200000D01*
X22712466Y23142356D01*
X22439483Y23029283D01*
X22193806Y22865126D01*
X21984874Y22656194D01*
X21947326Y22600000D01*
X17744196Y22600000D01*
X17699999Y22604353D01*
X17655802Y22600000D01*
X17655793Y22600000D01*
X17523569Y22586977D01*
X17353919Y22535514D01*
X17197568Y22451943D01*
X17095962Y22368557D01*
X16937888Y22400000D01*
X16662112Y22400000D01*
X16391635Y22346199D01*
X16136851Y22240664D01*
X15907552Y22087451D01*
X15712549Y21892448D01*
X15559336Y21663149D01*
X15453801Y21408365D01*
X15400000Y21137888D01*
X15400000Y20862112D01*
X15453801Y20591635D01*
X15559336Y20336851D01*
X15650778Y20199999D01*
X11851935Y20199999D01*
X11851935Y20350000D01*
X11844212Y20428414D01*
X11821340Y20503814D01*
X11784197Y20573303D01*
X11734211Y20634211D01*
X11673303Y20684197D01*
X11603814Y20721340D01*
X11528414Y20744212D01*
X11450000Y20751935D01*
X8450000Y20751935D01*
X8371586Y20744212D01*
X8296186Y20721340D01*
X8226697Y20684197D01*
X8165789Y20634211D01*
X8115803Y20573303D01*
X8078660Y20503814D01*
X8055788Y20428414D01*
X8048065Y20350000D01*
X8048065Y18850000D01*
X8055788Y18771586D01*
X8078660Y18696186D01*
X8115803Y18626697D01*
X8165789Y18565789D01*
X8226697Y18515803D01*
X8296186Y18478660D01*
X8371586Y18455788D01*
X8450000Y18448065D01*
X9808049Y18448065D01*
X9923570Y18413022D01*
X10055794Y18399999D01*
X18159393Y18399999D01*
X18391635Y18303801D01*
X18662112Y18250000D01*
X18937888Y18250000D01*
X19208365Y18303801D01*
X19400000Y18383179D01*
X19400000Y18262112D01*
X19453801Y17991635D01*
X19559336Y17736851D01*
X19650777Y17600000D01*
X19644207Y17600000D01*
X19600000Y17604354D01*
X19555794Y17600000D01*
X19555793Y17600000D01*
X19514014Y17595885D01*
X19452448Y17657451D01*
X19223149Y17810664D01*
X18968365Y17916199D01*
X18697888Y17970000D01*
X18422112Y17970000D01*
X18151635Y17916199D01*
X17896851Y17810664D01*
X17667552Y17657451D01*
X17472549Y17462448D01*
X17319336Y17233149D01*
X17213801Y16978365D01*
X17160000Y16707888D01*
X17160000Y16432112D01*
X17213801Y16161635D01*
X17319336Y15906851D01*
X17472549Y15677552D01*
X17667552Y15482549D01*
X17896851Y15329336D01*
X18151635Y15223801D01*
X18422112Y15170000D01*
X18697888Y15170000D01*
X18968365Y15223801D01*
X19223149Y15329336D01*
X19452448Y15482549D01*
X19647451Y15677552D01*
X19652295Y15684802D01*
X19816081Y15734486D01*
X19938650Y15800000D01*
X21892011Y15800000D01*
X21912804Y15782936D01*
X22025515Y15722691D01*
X22147814Y15685592D01*
X22275000Y15673065D01*
X23525000Y15673065D01*
X23652186Y15685592D01*
X23774485Y15722691D01*
X23887196Y15782936D01*
X23907989Y15800000D01*
X24682208Y15800000D01*
X25087353Y15394855D01*
X25115535Y15360515D01*
X25235440Y15262112D01*
X25252578Y15248047D01*
X25408928Y15164476D01*
X25578579Y15113013D01*
X25755010Y15095636D01*
X25799217Y15099990D01*
X32655785Y15099990D01*
X32699989Y15095636D01*
X32744193Y15099990D01*
X33627218Y15099990D01*
X36777197Y11950010D01*
X34667894Y11950010D01*
X34623690Y11954364D01*
X34579486Y11950010D01*
X34579484Y11950010D01*
X34579281Y11949990D01*
X33376935Y11949990D01*
X33376935Y13550000D01*
X33366330Y13657677D01*
X33334921Y13761216D01*
X33283917Y13856639D01*
X33215277Y13940277D01*
X33131639Y14008917D01*
X33036216Y14059921D01*
X32932677Y14091330D01*
X32825000Y14101935D01*
X32525000Y14101935D01*
X32417323Y14091330D01*
X32313784Y14059921D01*
X32218361Y14008917D01*
X32134723Y13940277D01*
X32066083Y13856639D01*
X32040000Y13807841D01*
X32013917Y13856639D01*
X31945277Y13940277D01*
X31861639Y14008917D01*
X31766216Y14059921D01*
X31662677Y14091330D01*
X31555000Y14101935D01*
X31255000Y14101935D01*
X31147323Y14091330D01*
X31043784Y14059921D01*
X30948361Y14008917D01*
X30864723Y13940277D01*
X30796083Y13856639D01*
X30770000Y13807841D01*
X30743917Y13856639D01*
X30675277Y13940277D01*
X30591639Y14008917D01*
X30496216Y14059921D01*
X30392677Y14091330D01*
X30285000Y14101935D01*
X29985000Y14101935D01*
X29877323Y14091330D01*
X29773784Y14059921D01*
X29678361Y14008917D01*
X29594723Y13940277D01*
X29526083Y13856639D01*
X29500000Y13807841D01*
X29473917Y13856639D01*
X29405277Y13940277D01*
X29321639Y14008917D01*
X29226216Y14059921D01*
X29122677Y14091330D01*
X29015000Y14101935D01*
X28715000Y14101935D01*
X28607323Y14091330D01*
X28503784Y14059921D01*
X28408361Y14008917D01*
X28324723Y13940277D01*
X28256083Y13856639D01*
X28230000Y13807841D01*
X28203917Y13856639D01*
X28135277Y13940277D01*
X28051639Y14008917D01*
X27956216Y14059921D01*
X27852677Y14091330D01*
X27745000Y14101935D01*
X27445000Y14101935D01*
X27337323Y14091330D01*
X27233784Y14059921D01*
X27138361Y14008917D01*
X27054723Y13940277D01*
X26986083Y13856639D01*
X26960000Y13807841D01*
X26933917Y13856639D01*
X26865277Y13940277D01*
X26781639Y14008917D01*
X26686216Y14059921D01*
X26582677Y14091330D01*
X26475000Y14101935D01*
X26175000Y14101935D01*
X26067323Y14091330D01*
X25963784Y14059921D01*
X25868361Y14008917D01*
X25784723Y13940277D01*
X25716083Y13856639D01*
X25690000Y13807841D01*
X25663917Y13856639D01*
X25595277Y13940277D01*
X25511639Y14008917D01*
X25416216Y14059921D01*
X25312677Y14091330D01*
X25205000Y14101935D01*
X24905000Y14101935D01*
X24797323Y14091330D01*
X24693784Y14059921D01*
X24598361Y14008917D01*
X24514723Y13940277D01*
X24446083Y13856639D01*
X24395079Y13761216D01*
X24363670Y13657677D01*
X24353065Y13550000D01*
X24353065Y13100030D01*
X23597381Y13100030D01*
X23553174Y13104384D01*
X23508967Y13100030D01*
X23418208Y13091091D01*
X23376743Y13087007D01*
X23207092Y13035544D01*
X23081275Y12968293D01*
X23050742Y12951973D01*
X22913699Y12839505D01*
X22885517Y12805165D01*
X21700000Y11619648D01*
X21700000Y11820101D01*
X21887451Y12007552D01*
X22040664Y12236851D01*
X22146199Y12491635D01*
X22200000Y12762112D01*
X22200000Y13037888D01*
X22146199Y13308365D01*
X22040664Y13563149D01*
X21887451Y13792448D01*
X21692448Y13987451D01*
X21463149Y14140664D01*
X21208365Y14246199D01*
X20937888Y14300000D01*
X20662112Y14300000D01*
X20391635Y14246199D01*
X20136851Y14140664D01*
X19907552Y13987451D01*
X19712549Y13792448D01*
X19634404Y13675495D01*
X19452448Y13857451D01*
X19223149Y14010664D01*
X18968365Y14116199D01*
X18697888Y14170000D01*
X18422112Y14170000D01*
X18151635Y14116199D01*
X17896851Y14010664D01*
X17667552Y13857451D01*
X17472549Y13662448D01*
X17319336Y13433149D01*
X17213801Y13178365D01*
X17160000Y12907888D01*
X17160000Y12632112D01*
X17174819Y12557611D01*
X17057219Y12440011D01*
X9432325Y12440011D01*
X9492064Y12512804D01*
X9552309Y12625515D01*
X9589408Y12747814D01*
X9601935Y12875000D01*
X9601935Y14125000D01*
X9589408Y14252186D01*
X9552309Y14374485D01*
X9492064Y14487196D01*
X9432530Y14559738D01*
X10120858Y15248065D01*
X11450000Y15248065D01*
X11528414Y15255788D01*
X11603814Y15278660D01*
X11673303Y15315803D01*
X11734211Y15365789D01*
X11784197Y15426697D01*
X11821340Y15496186D01*
X11844212Y15571586D01*
X11851935Y15650000D01*
X11851935Y17150000D01*
X11844212Y17228414D01*
X11821340Y17303814D01*
X11784197Y17373303D01*
X11734211Y17434211D01*
X11673303Y17484197D01*
X11603814Y17521340D01*
X11528414Y17544212D01*
X11450000Y17551935D01*
X8450000Y17551935D01*
X8371586Y17544212D01*
X8296186Y17521340D01*
X8226697Y17484197D01*
X8165789Y17434211D01*
X8115803Y17373303D01*
X8078660Y17303814D01*
X8055788Y17228414D01*
X8048065Y17150000D01*
X8048065Y15720857D01*
X7894865Y15567657D01*
X7860525Y15539475D01*
X7748057Y15402431D01*
X7664486Y15246080D01*
X7620170Y15099990D01*
X7613023Y15076430D01*
X7595646Y14900000D01*
X7600000Y14855793D01*
X7600000Y14615523D01*
X7564012Y14585988D01*
X7482936Y14487196D01*
X7422691Y14374485D01*
X7385592Y14252186D01*
X7373065Y14125000D01*
X7373065Y12875000D01*
X7385592Y12747814D01*
X7422691Y12625515D01*
X7482936Y12512804D01*
X7564012Y12414012D01*
X7587501Y12394735D01*
X7587501Y12127047D01*
X7518068Y12042443D01*
X7434497Y11886092D01*
X7383034Y11716442D01*
X7365657Y11540011D01*
X7383034Y11363580D01*
X7420521Y11240001D01*
X6614271Y11240001D01*
X4950000Y12904272D01*
X4950000Y15248065D01*
X5550000Y15248065D01*
X5628414Y15255788D01*
X5703814Y15278660D01*
X5773303Y15315803D01*
X5834211Y15365789D01*
X5884197Y15426697D01*
X5921340Y15496186D01*
X5944212Y15571586D01*
X5951935Y15650000D01*
X5951935Y17150000D01*
X5944212Y17228414D01*
X5921340Y17303814D01*
X5884197Y17373303D01*
X5834211Y17434211D01*
X5773303Y17484197D01*
X5703814Y17521340D01*
X5628414Y17544212D01*
X5550000Y17551935D01*
X2550000Y17551935D01*
X2471586Y17544212D01*
X2396186Y17521340D01*
X2326697Y17484197D01*
X2265789Y17434211D01*
X2215803Y17373303D01*
X2178660Y17303814D01*
X2155788Y17228414D01*
X2148065Y17150000D01*
X2148065Y15650000D01*
X2155788Y15571586D01*
X2178660Y15496186D01*
X2215803Y15426697D01*
X2265789Y15365789D01*
X2326697Y15315803D01*
X2396186Y15278660D01*
X2471586Y15255788D01*
X2550000Y15248065D01*
X3150000Y15248065D01*
X3150001Y12575696D01*
X3145646Y12531480D01*
X3163023Y12355050D01*
X3214487Y12185399D01*
X3298057Y12029049D01*
X3382345Y11926343D01*
X3382348Y11926340D01*
X3410526Y11892005D01*
X3444861Y11863827D01*
X5268697Y10039991D01*
X2955793Y10039991D01*
X2823569Y10026968D01*
X2653919Y9975505D01*
X2497568Y9891934D01*
X2360525Y9779466D01*
X2248057Y9642423D01*
X2203767Y9559563D01*
X2165803Y9513303D01*
X2128660Y9443814D01*
X2105788Y9368414D01*
X2098065Y9290000D01*
X2098065Y9164551D01*
X2095646Y9139991D01*
X425000Y9139991D01*
X425000Y24575000D01*
X59075001Y24575000D01*
X59075000Y425000D01*
G37*
X59075000Y425000D02*
X425000Y425000D01*
X425000Y9139991D01*
X2095646Y9139991D01*
X2098065Y9115431D01*
X2098065Y7790000D01*
X2105788Y7711586D01*
X2128660Y7636186D01*
X2165803Y7566697D01*
X2215789Y7505789D01*
X2276697Y7455803D01*
X2346186Y7418660D01*
X2421586Y7395788D01*
X2500000Y7388065D01*
X5500000Y7388065D01*
X5578414Y7395788D01*
X5653814Y7418660D01*
X5723303Y7455803D01*
X5784211Y7505789D01*
X5834197Y7566697D01*
X5871340Y7636186D01*
X5894212Y7711586D01*
X5901935Y7790000D01*
X5901935Y8239991D01*
X8098065Y8239991D01*
X8098065Y7750000D01*
X8105788Y7671586D01*
X8128660Y7596186D01*
X8165803Y7526697D01*
X8215789Y7465789D01*
X8276697Y7415803D01*
X8346186Y7378660D01*
X8421586Y7355788D01*
X8500000Y7348065D01*
X10803716Y7348065D01*
X10758058Y7292431D01*
X10674487Y7136080D01*
X10623024Y6966430D01*
X10605647Y6789999D01*
X10623024Y6613568D01*
X10674487Y6443918D01*
X10758058Y6287567D01*
X10792622Y6245451D01*
X10708068Y6142421D01*
X10624497Y5986070D01*
X10573034Y5816420D01*
X10555657Y5639989D01*
X10573034Y5463558D01*
X10624497Y5293908D01*
X10628698Y5286049D01*
X10593898Y5275493D01*
X10437547Y5191922D01*
X10300504Y5079454D01*
X10272324Y5045116D01*
X10204861Y4977653D01*
X10170526Y4949475D01*
X10142348Y4915140D01*
X10142345Y4915137D01*
X10058057Y4812431D01*
X9974487Y4656081D01*
X9961095Y4611935D01*
X8500000Y4611935D01*
X8421586Y4604212D01*
X8346186Y4581340D01*
X8276697Y4544197D01*
X8215789Y4494211D01*
X8165803Y4433303D01*
X8128660Y4363814D01*
X8127503Y4360000D01*
X5872497Y4360000D01*
X5871340Y4363814D01*
X5834197Y4433303D01*
X5784211Y4494211D01*
X5723303Y4544197D01*
X5653814Y4581340D01*
X5578414Y4604212D01*
X5500000Y4611935D01*
X2500000Y4611935D01*
X2421586Y4604212D01*
X2346186Y4581340D01*
X2276697Y4544197D01*
X2215789Y4494211D01*
X2165803Y4433303D01*
X2128660Y4363814D01*
X2105788Y4288414D01*
X2098065Y4210000D01*
X2098065Y2710000D01*
X2105788Y2631586D01*
X2128660Y2556186D01*
X2165803Y2486697D01*
X2215789Y2425789D01*
X2276697Y2375803D01*
X2346186Y2338660D01*
X2421586Y2315788D01*
X2500000Y2308065D01*
X5500000Y2308065D01*
X5578414Y2315788D01*
X5653814Y2338660D01*
X5723303Y2375803D01*
X5784211Y2425789D01*
X5834197Y2486697D01*
X5871340Y2556186D01*
X5872497Y2560000D01*
X8127503Y2560000D01*
X8128660Y2556186D01*
X8165803Y2486697D01*
X8215789Y2425789D01*
X8276697Y2375803D01*
X8346186Y2338660D01*
X8421586Y2315788D01*
X8500000Y2308065D01*
X11500000Y2308065D01*
X11578414Y2315788D01*
X11653814Y2338660D01*
X11723303Y2375803D01*
X11784211Y2425789D01*
X11834197Y2486697D01*
X11871340Y2556186D01*
X11894212Y2631586D01*
X11901935Y2710000D01*
X11901935Y3539979D01*
X12765540Y3539979D01*
X12809746Y3535625D01*
X12853952Y3539979D01*
X12853953Y3539979D01*
X12986177Y3553002D01*
X13155827Y3604465D01*
X13312178Y3688036D01*
X13449221Y3800504D01*
X13477403Y3834844D01*
X14382520Y4739961D01*
X15475205Y4739961D01*
X15559336Y4536851D01*
X15712549Y4307552D01*
X15907552Y4112549D01*
X16136851Y3959336D01*
X16391635Y3853801D01*
X16662112Y3800000D01*
X16937888Y3800000D01*
X17208365Y3853801D01*
X17463149Y3959336D01*
X17692448Y4112549D01*
X17887451Y4307552D01*
X18040664Y4536851D01*
X18124795Y4739961D01*
X20156261Y4739961D01*
X20203919Y4714487D01*
X20373570Y4663023D01*
X20549999Y4645646D01*
X20624249Y4652959D01*
X21763185Y3514023D01*
X21750000Y3447737D01*
X21750000Y3152263D01*
X21807644Y2862466D01*
X21920717Y2589483D01*
X22084874Y2343806D01*
X22293806Y2134874D01*
X22539483Y1970717D01*
X22812466Y1857644D01*
X23102263Y1800000D01*
X23397737Y1800000D01*
X23687534Y1857644D01*
X23960517Y1970717D01*
X24206194Y2134874D01*
X24415126Y2343806D01*
X24520000Y2500760D01*
X24624874Y2343806D01*
X24833806Y2134874D01*
X25079483Y1970717D01*
X25352466Y1857644D01*
X25642263Y1800000D01*
X25937737Y1800000D01*
X26227534Y1857644D01*
X26500517Y1970717D01*
X26746194Y2134874D01*
X26955126Y2343806D01*
X27060000Y2500760D01*
X27164874Y2343806D01*
X27373806Y2134874D01*
X27619483Y1970717D01*
X27892466Y1857644D01*
X28182263Y1800000D01*
X28477737Y1800000D01*
X28767534Y1857644D01*
X29040517Y1970717D01*
X29286194Y2134874D01*
X29495126Y2343806D01*
X29659283Y2589483D01*
X29772356Y2862466D01*
X29830000Y3152263D01*
X29830000Y3447737D01*
X29772356Y3737534D01*
X29659283Y4010517D01*
X29495126Y4256194D01*
X29286194Y4465126D01*
X29241888Y4494730D01*
X30217158Y5470000D01*
X34167208Y5470000D01*
X33497208Y4800000D01*
X33262263Y4800000D01*
X32972466Y4742356D01*
X32699483Y4629283D01*
X32453806Y4465126D01*
X32244874Y4256194D01*
X32080717Y4010517D01*
X31967644Y3737534D01*
X31910000Y3447737D01*
X31910000Y3152263D01*
X31967644Y2862466D01*
X32080717Y2589483D01*
X32244874Y2343806D01*
X32453806Y2134874D01*
X32699483Y1970717D01*
X32972466Y1857644D01*
X33262263Y1800000D01*
X33557737Y1800000D01*
X33847534Y1857644D01*
X34120517Y1970717D01*
X34366194Y2134874D01*
X34575126Y2343806D01*
X34680000Y2500760D01*
X34784874Y2343806D01*
X34993806Y2134874D01*
X35239483Y1970717D01*
X35512466Y1857644D01*
X35802263Y1800000D01*
X36097737Y1800000D01*
X36387534Y1857644D01*
X36660517Y1970717D01*
X36906194Y2134874D01*
X37115126Y2343806D01*
X37152674Y2400000D01*
X37920101Y2400000D01*
X38007552Y2312549D01*
X38236851Y2159336D01*
X38491635Y2053801D01*
X38762112Y2000000D01*
X39037888Y2000000D01*
X39308365Y2053801D01*
X39563149Y2159336D01*
X39792448Y2312549D01*
X39987451Y2507552D01*
X40140664Y2736851D01*
X40246199Y2991635D01*
X40300000Y3262112D01*
X40300000Y3520101D01*
X40307552Y3512549D01*
X40536851Y3359336D01*
X40791635Y3253801D01*
X41062112Y3200000D01*
X41337888Y3200000D01*
X41608365Y3253801D01*
X41863149Y3359336D01*
X42092448Y3512549D01*
X42287451Y3707552D01*
X42417667Y3902434D01*
X42607552Y3712549D01*
X42836851Y3559336D01*
X43091635Y3453801D01*
X43362112Y3400000D01*
X43637888Y3400000D01*
X43908365Y3453801D01*
X44163149Y3559336D01*
X44387836Y3709467D01*
X44459336Y3536851D01*
X44612549Y3307552D01*
X44807552Y3112549D01*
X45036851Y2959336D01*
X45291635Y2853801D01*
X45562112Y2800000D01*
X45837888Y2800000D01*
X46108365Y2853801D01*
X46363149Y2959336D01*
X46592448Y3112549D01*
X46787451Y3307552D01*
X46940664Y3536851D01*
X47046199Y3791635D01*
X47094209Y4032999D01*
X47098065Y4029143D01*
X47098065Y2710000D01*
X47105788Y2631586D01*
X47128660Y2556186D01*
X47165803Y2486697D01*
X47215789Y2425789D01*
X47276697Y2375803D01*
X47346186Y2338660D01*
X47421586Y2315788D01*
X47500000Y2308065D01*
X50500000Y2308065D01*
X50578414Y2315788D01*
X50653814Y2338660D01*
X50723303Y2375803D01*
X50784211Y2425789D01*
X50834197Y2486697D01*
X50871340Y2556186D01*
X50872497Y2560000D01*
X53127503Y2560000D01*
X53128660Y2556186D01*
X53165803Y2486697D01*
X53215789Y2425789D01*
X53276697Y2375803D01*
X53346186Y2338660D01*
X53421586Y2315788D01*
X53500000Y2308065D01*
X56500000Y2308065D01*
X56578414Y2315788D01*
X56653814Y2338660D01*
X56723303Y2375803D01*
X56784211Y2425789D01*
X56834197Y2486697D01*
X56871340Y2556186D01*
X56894212Y2631586D01*
X56901935Y2710000D01*
X56901935Y4210000D01*
X56894212Y4288414D01*
X56871340Y4363814D01*
X56834197Y4433303D01*
X56784211Y4494211D01*
X56723303Y4544197D01*
X56653814Y4581340D01*
X56578414Y4604212D01*
X56500000Y4611935D01*
X53500000Y4611935D01*
X53421586Y4604212D01*
X53346186Y4581340D01*
X53276697Y4544197D01*
X53215789Y4494211D01*
X53165803Y4433303D01*
X53128660Y4363814D01*
X53127503Y4360000D01*
X50872497Y4360000D01*
X50871340Y4363814D01*
X50834197Y4433303D01*
X50784211Y4494211D01*
X50723303Y4544197D01*
X50653814Y4581340D01*
X50578414Y4604212D01*
X50500000Y4611935D01*
X49060857Y4611935D01*
X47494008Y6178784D01*
X47480595Y6195128D01*
X47480593Y6195130D01*
X47452415Y6229465D01*
X47418081Y6257642D01*
X47388542Y6287181D01*
X47502432Y6348057D01*
X47639475Y6460525D01*
X47751943Y6597568D01*
X47835514Y6753918D01*
X47886977Y6923569D01*
X47904354Y7100000D01*
X47886977Y7276431D01*
X47853113Y7388065D01*
X49391038Y7388065D01*
X49473560Y7363032D01*
X49605784Y7350009D01*
X49605786Y7350009D01*
X49649990Y7345655D01*
X49694194Y7350009D01*
X53480262Y7350009D01*
X53500000Y7348065D01*
X56500000Y7348065D01*
X56578414Y7355788D01*
X56653814Y7378660D01*
X56723303Y7415803D01*
X56784211Y7465789D01*
X56834197Y7526697D01*
X56871340Y7596186D01*
X56894212Y7671586D01*
X56901935Y7750000D01*
X56901935Y9250000D01*
X56894212Y9328414D01*
X56871340Y9403814D01*
X56834197Y9473303D01*
X56784211Y9534211D01*
X56723303Y9584197D01*
X56653814Y9621340D01*
X56578414Y9644212D01*
X56500000Y9651935D01*
X53500000Y9651935D01*
X53462188Y9648211D01*
X53564708Y9732346D01*
X53564711Y9732349D01*
X53599046Y9760527D01*
X53627224Y9794862D01*
X57755136Y13922774D01*
X57789476Y13950956D01*
X57901944Y14087999D01*
X57985515Y14244350D01*
X58036978Y14414000D01*
X58050001Y14546224D01*
X58054355Y14590431D01*
X58050001Y14634637D01*
X58050001Y17665798D01*
X58054355Y17710002D01*
X58049379Y17760526D01*
X58036978Y17886432D01*
X57985515Y18056082D01*
X57901944Y18212433D01*
X57849423Y18276430D01*
X57817656Y18315139D01*
X57817654Y18315141D01*
X57789476Y18349476D01*
X57755142Y18377653D01*
X56851935Y19280860D01*
X56851935Y20350000D01*
X56844212Y20428414D01*
X56821340Y20503814D01*
X56784197Y20573303D01*
X56734211Y20634211D01*
X56673303Y20684197D01*
X56603814Y20721340D01*
X56528414Y20744212D01*
X56450000Y20751935D01*
X53450000Y20751935D01*
X53371586Y20744212D01*
X53296186Y20721340D01*
X53226697Y20684197D01*
X53165789Y20634211D01*
X53115803Y20573303D01*
X53078660Y20503814D01*
X53055788Y20428414D01*
X53048065Y20350000D01*
X53048065Y18850000D01*
X53055788Y18771586D01*
X53078660Y18696186D01*
X53115803Y18626697D01*
X53165789Y18565789D01*
X53226697Y18515803D01*
X53296186Y18478660D01*
X53371586Y18455788D01*
X53450000Y18448065D01*
X55139145Y18448065D01*
X56035274Y17551935D01*
X53450000Y17551935D01*
X53371586Y17544212D01*
X53296186Y17521340D01*
X53226697Y17484197D01*
X53165789Y17434211D01*
X53115803Y17373303D01*
X53078660Y17303814D01*
X53055788Y17228414D01*
X53048065Y17150000D01*
X53048065Y15650000D01*
X53055788Y15571586D01*
X53078660Y15496186D01*
X53115803Y15426697D01*
X53165789Y15365789D01*
X53226697Y15315803D01*
X53296186Y15278660D01*
X53371586Y15255788D01*
X53450000Y15248065D01*
X54837772Y15248065D01*
X54276077Y14686370D01*
X54199485Y14727309D01*
X54077186Y14764408D01*
X53950000Y14776935D01*
X53025000Y14776935D01*
X52897814Y14764408D01*
X52775515Y14727309D01*
X52662804Y14667064D01*
X52564012Y14585988D01*
X52482936Y14487196D01*
X52422691Y14374485D01*
X52385592Y14252186D01*
X52373065Y14125000D01*
X52373065Y12875000D01*
X52381282Y12791574D01*
X52089718Y12500010D01*
X49169852Y12500010D01*
X48400001Y13269861D01*
X48400001Y13271798D01*
X48404355Y13316002D01*
X48396131Y13399500D01*
X48386978Y13492432D01*
X48335515Y13662082D01*
X48251944Y13818433D01*
X48180479Y13905514D01*
X48167656Y13921139D01*
X48167654Y13921141D01*
X48139476Y13955476D01*
X48105141Y13983654D01*
X47183658Y14905136D01*
X47155476Y14939476D01*
X47018433Y15051944D01*
X46862082Y15135515D01*
X46692432Y15186978D01*
X46560208Y15200001D01*
X46560207Y15200001D01*
X46516001Y15204355D01*
X46471795Y15200001D01*
X46100001Y15200001D01*
X46100001Y15827207D01*
X46132343Y15794865D01*
X46160525Y15760525D01*
X46297568Y15648057D01*
X46453919Y15564486D01*
X46623569Y15513023D01*
X46755793Y15500000D01*
X46755795Y15500000D01*
X46799999Y15495646D01*
X46844203Y15500000D01*
X47177503Y15500000D01*
X47178660Y15496186D01*
X47215803Y15426697D01*
X47265789Y15365789D01*
X47326697Y15315803D01*
X47396186Y15278660D01*
X47471586Y15255788D01*
X47550000Y15248065D01*
X50550000Y15248065D01*
X50628414Y15255788D01*
X50703814Y15278660D01*
X50773303Y15315803D01*
X50834211Y15365789D01*
X50884197Y15426697D01*
X50921340Y15496186D01*
X50944212Y15571586D01*
X50951935Y15650000D01*
X50951935Y17150000D01*
X50944212Y17228414D01*
X50921340Y17303814D01*
X50884197Y17373303D01*
X50834211Y17434211D01*
X50773303Y17484197D01*
X50703814Y17521340D01*
X50628414Y17544212D01*
X50550000Y17551935D01*
X47550000Y17551935D01*
X47471586Y17544212D01*
X47396186Y17521340D01*
X47326697Y17484197D01*
X47265789Y17434211D01*
X47215803Y17373303D01*
X47178660Y17303814D01*
X47177503Y17300000D01*
X47172792Y17300000D01*
X46267655Y18205137D01*
X46239475Y18239475D01*
X46102432Y18351943D01*
X45955253Y18430611D01*
X45480718Y18905146D01*
X45452536Y18939486D01*
X45315493Y19051954D01*
X45159142Y19135525D01*
X44989492Y19186988D01*
X44857268Y19200011D01*
X44857267Y19200011D01*
X44813061Y19204365D01*
X44768855Y19200011D01*
X40488784Y19200011D01*
X40271245Y19417550D01*
X40300000Y19562112D01*
X40300000Y19837888D01*
X40246199Y20108365D01*
X40140664Y20363149D01*
X39987451Y20592448D01*
X39792448Y20787451D01*
X39563149Y20940664D01*
X39308365Y21046199D01*
X39037888Y21100000D01*
X38762112Y21100000D01*
X38491635Y21046199D01*
X38236851Y20940664D01*
X38007552Y20787451D01*
X37812549Y20592448D01*
X37659336Y20363149D01*
X37553801Y20108365D01*
X37500000Y19837888D01*
X37500000Y19572792D01*
X36750000Y20322792D01*
X36750000Y20497326D01*
X36806194Y20534874D01*
X37015126Y20743806D01*
X37179283Y20989483D01*
X37292356Y21262466D01*
X37350000Y21552263D01*
X37350000Y21847737D01*
X37292356Y22137534D01*
X37179283Y22410517D01*
X37015126Y22656194D01*
X36806194Y22865126D01*
X36560517Y23029283D01*
X36287534Y23142356D01*
X35997737Y23200000D01*
X35702263Y23200000D01*
X35412466Y23142356D01*
X35139483Y23029283D01*
X34893806Y22865126D01*
X34684874Y22656194D01*
X34580000Y22499240D01*
X34475126Y22656194D01*
X34266194Y22865126D01*
X34020517Y23029283D01*
X33747534Y23142356D01*
X33457737Y23200000D01*
X33162263Y23200000D01*
X32872466Y23142356D01*
X32599483Y23029283D01*
X32353806Y22865126D01*
X32144874Y22656194D01*
X31980717Y22410517D01*
X31867644Y22137534D01*
X31810000Y21847737D01*
X31810000Y21552263D01*
X31867644Y21262466D01*
X31980717Y20989483D01*
X32144874Y20743806D01*
X32353806Y20534874D01*
X32410001Y20497326D01*
X32410001Y20250010D01*
X31194196Y20250010D01*
X31149990Y20254364D01*
X31105783Y20250010D01*
X30973559Y20236987D01*
X30803909Y20185524D01*
X30647558Y20101953D01*
X30510515Y19989485D01*
X30482334Y19955146D01*
X30094865Y19567677D01*
X30060525Y19539495D01*
X29948057Y19402451D01*
X29864486Y19246100D01*
X29825496Y19117568D01*
X29813023Y19076450D01*
X29807477Y19020142D01*
X29773784Y19009921D01*
X29678361Y18958917D01*
X29594723Y18890277D01*
X29526083Y18806639D01*
X29475079Y18711216D01*
X29443670Y18607677D01*
X29433065Y18500000D01*
X29433065Y18074383D01*
X29364487Y17946081D01*
X29313023Y17776430D01*
X29295646Y17600000D01*
X29313023Y17423570D01*
X29364487Y17253919D01*
X29433065Y17125617D01*
X29433065Y16899990D01*
X28296935Y16899990D01*
X28296935Y17194911D01*
X28331943Y17237568D01*
X28415514Y17393919D01*
X28466977Y17563569D01*
X28480000Y17695793D01*
X28480000Y19427208D01*
X28835135Y19782343D01*
X28869475Y19810525D01*
X28981943Y19947568D01*
X29065514Y20103919D01*
X29116977Y20273569D01*
X29130000Y20405793D01*
X29130000Y20405794D01*
X29134354Y20450000D01*
X29130000Y20494207D01*
X29130000Y20497326D01*
X29186194Y20534874D01*
X29395126Y20743806D01*
X29559283Y20989483D01*
X29672356Y21262466D01*
X29730000Y21552263D01*
X29730000Y21847737D01*
X29672356Y22137534D01*
X29559283Y22410517D01*
X29395126Y22656194D01*
X29186194Y22865126D01*
X28940517Y23029283D01*
X28667534Y23142356D01*
X28377737Y23200000D01*
X28082263Y23200000D01*
X27792466Y23142356D01*
X27519483Y23029283D01*
X27273806Y22865126D01*
X27064874Y22656194D01*
X26960000Y22499240D01*
X26855126Y22656194D01*
X26646194Y22865126D01*
X26400517Y23029283D01*
X26127534Y23142356D01*
X25837737Y23200000D01*
X25542263Y23200000D01*
X25252466Y23142356D01*
X24979483Y23029283D01*
X24733806Y22865126D01*
X24524874Y22656194D01*
X24420000Y22499240D01*
X24315126Y22656194D01*
X24106194Y22865126D01*
X23860517Y23029283D01*
X23587534Y23142356D01*
X23297737Y23200000D01*
X23002263Y23200000D01*
X22712466Y23142356D01*
X22439483Y23029283D01*
X22193806Y22865126D01*
X21984874Y22656194D01*
X21947326Y22600000D01*
X17744196Y22600000D01*
X17699999Y22604353D01*
X17655802Y22600000D01*
X17655793Y22600000D01*
X17523569Y22586977D01*
X17353919Y22535514D01*
X17197568Y22451943D01*
X17095962Y22368557D01*
X16937888Y22400000D01*
X16662112Y22400000D01*
X16391635Y22346199D01*
X16136851Y22240664D01*
X15907552Y22087451D01*
X15712549Y21892448D01*
X15559336Y21663149D01*
X15453801Y21408365D01*
X15400000Y21137888D01*
X15400000Y20862112D01*
X15453801Y20591635D01*
X15559336Y20336851D01*
X15650778Y20199999D01*
X11851935Y20199999D01*
X11851935Y20350000D01*
X11844212Y20428414D01*
X11821340Y20503814D01*
X11784197Y20573303D01*
X11734211Y20634211D01*
X11673303Y20684197D01*
X11603814Y20721340D01*
X11528414Y20744212D01*
X11450000Y20751935D01*
X8450000Y20751935D01*
X8371586Y20744212D01*
X8296186Y20721340D01*
X8226697Y20684197D01*
X8165789Y20634211D01*
X8115803Y20573303D01*
X8078660Y20503814D01*
X8055788Y20428414D01*
X8048065Y20350000D01*
X8048065Y18850000D01*
X8055788Y18771586D01*
X8078660Y18696186D01*
X8115803Y18626697D01*
X8165789Y18565789D01*
X8226697Y18515803D01*
X8296186Y18478660D01*
X8371586Y18455788D01*
X8450000Y18448065D01*
X9808049Y18448065D01*
X9923570Y18413022D01*
X10055794Y18399999D01*
X18159393Y18399999D01*
X18391635Y18303801D01*
X18662112Y18250000D01*
X18937888Y18250000D01*
X19208365Y18303801D01*
X19400000Y18383179D01*
X19400000Y18262112D01*
X19453801Y17991635D01*
X19559336Y17736851D01*
X19650777Y17600000D01*
X19644207Y17600000D01*
X19600000Y17604354D01*
X19555794Y17600000D01*
X19555793Y17600000D01*
X19514014Y17595885D01*
X19452448Y17657451D01*
X19223149Y17810664D01*
X18968365Y17916199D01*
X18697888Y17970000D01*
X18422112Y17970000D01*
X18151635Y17916199D01*
X17896851Y17810664D01*
X17667552Y17657451D01*
X17472549Y17462448D01*
X17319336Y17233149D01*
X17213801Y16978365D01*
X17160000Y16707888D01*
X17160000Y16432112D01*
X17213801Y16161635D01*
X17319336Y15906851D01*
X17472549Y15677552D01*
X17667552Y15482549D01*
X17896851Y15329336D01*
X18151635Y15223801D01*
X18422112Y15170000D01*
X18697888Y15170000D01*
X18968365Y15223801D01*
X19223149Y15329336D01*
X19452448Y15482549D01*
X19647451Y15677552D01*
X19652295Y15684802D01*
X19816081Y15734486D01*
X19938650Y15800000D01*
X21892011Y15800000D01*
X21912804Y15782936D01*
X22025515Y15722691D01*
X22147814Y15685592D01*
X22275000Y15673065D01*
X23525000Y15673065D01*
X23652186Y15685592D01*
X23774485Y15722691D01*
X23887196Y15782936D01*
X23907989Y15800000D01*
X24682208Y15800000D01*
X25087353Y15394855D01*
X25115535Y15360515D01*
X25235440Y15262112D01*
X25252578Y15248047D01*
X25408928Y15164476D01*
X25578579Y15113013D01*
X25755010Y15095636D01*
X25799217Y15099990D01*
X32655785Y15099990D01*
X32699989Y15095636D01*
X32744193Y15099990D01*
X33627218Y15099990D01*
X36777197Y11950010D01*
X34667894Y11950010D01*
X34623690Y11954364D01*
X34579486Y11950010D01*
X34579484Y11950010D01*
X34579281Y11949990D01*
X33376935Y11949990D01*
X33376935Y13550000D01*
X33366330Y13657677D01*
X33334921Y13761216D01*
X33283917Y13856639D01*
X33215277Y13940277D01*
X33131639Y14008917D01*
X33036216Y14059921D01*
X32932677Y14091330D01*
X32825000Y14101935D01*
X32525000Y14101935D01*
X32417323Y14091330D01*
X32313784Y14059921D01*
X32218361Y14008917D01*
X32134723Y13940277D01*
X32066083Y13856639D01*
X32040000Y13807841D01*
X32013917Y13856639D01*
X31945277Y13940277D01*
X31861639Y14008917D01*
X31766216Y14059921D01*
X31662677Y14091330D01*
X31555000Y14101935D01*
X31255000Y14101935D01*
X31147323Y14091330D01*
X31043784Y14059921D01*
X30948361Y14008917D01*
X30864723Y13940277D01*
X30796083Y13856639D01*
X30770000Y13807841D01*
X30743917Y13856639D01*
X30675277Y13940277D01*
X30591639Y14008917D01*
X30496216Y14059921D01*
X30392677Y14091330D01*
X30285000Y14101935D01*
X29985000Y14101935D01*
X29877323Y14091330D01*
X29773784Y14059921D01*
X29678361Y14008917D01*
X29594723Y13940277D01*
X29526083Y13856639D01*
X29500000Y13807841D01*
X29473917Y13856639D01*
X29405277Y13940277D01*
X29321639Y14008917D01*
X29226216Y14059921D01*
X29122677Y14091330D01*
X29015000Y14101935D01*
X28715000Y14101935D01*
X28607323Y14091330D01*
X28503784Y14059921D01*
X28408361Y14008917D01*
X28324723Y13940277D01*
X28256083Y13856639D01*
X28230000Y13807841D01*
X28203917Y13856639D01*
X28135277Y13940277D01*
X28051639Y14008917D01*
X27956216Y14059921D01*
X27852677Y14091330D01*
X27745000Y14101935D01*
X27445000Y14101935D01*
X27337323Y14091330D01*
X27233784Y14059921D01*
X27138361Y14008917D01*
X27054723Y13940277D01*
X26986083Y13856639D01*
X26960000Y13807841D01*
X26933917Y13856639D01*
X26865277Y13940277D01*
X26781639Y14008917D01*
X26686216Y14059921D01*
X26582677Y14091330D01*
X26475000Y14101935D01*
X26175000Y14101935D01*
X26067323Y14091330D01*
X25963784Y14059921D01*
X25868361Y14008917D01*
X25784723Y13940277D01*
X25716083Y13856639D01*
X25690000Y13807841D01*
X25663917Y13856639D01*
X25595277Y13940277D01*
X25511639Y14008917D01*
X25416216Y14059921D01*
X25312677Y14091330D01*
X25205000Y14101935D01*
X24905000Y14101935D01*
X24797323Y14091330D01*
X24693784Y14059921D01*
X24598361Y14008917D01*
X24514723Y13940277D01*
X24446083Y13856639D01*
X24395079Y13761216D01*
X24363670Y13657677D01*
X24353065Y13550000D01*
X24353065Y13100030D01*
X23597381Y13100030D01*
X23553174Y13104384D01*
X23508967Y13100030D01*
X23418208Y13091091D01*
X23376743Y13087007D01*
X23207092Y13035544D01*
X23081275Y12968293D01*
X23050742Y12951973D01*
X22913699Y12839505D01*
X22885517Y12805165D01*
X21700000Y11619648D01*
X21700000Y11820101D01*
X21887451Y12007552D01*
X22040664Y12236851D01*
X22146199Y12491635D01*
X22200000Y12762112D01*
X22200000Y13037888D01*
X22146199Y13308365D01*
X22040664Y13563149D01*
X21887451Y13792448D01*
X21692448Y13987451D01*
X21463149Y14140664D01*
X21208365Y14246199D01*
X20937888Y14300000D01*
X20662112Y14300000D01*
X20391635Y14246199D01*
X20136851Y14140664D01*
X19907552Y13987451D01*
X19712549Y13792448D01*
X19634404Y13675495D01*
X19452448Y13857451D01*
X19223149Y14010664D01*
X18968365Y14116199D01*
X18697888Y14170000D01*
X18422112Y14170000D01*
X18151635Y14116199D01*
X17896851Y14010664D01*
X17667552Y13857451D01*
X17472549Y13662448D01*
X17319336Y13433149D01*
X17213801Y13178365D01*
X17160000Y12907888D01*
X17160000Y12632112D01*
X17174819Y12557611D01*
X17057219Y12440011D01*
X9432325Y12440011D01*
X9492064Y12512804D01*
X9552309Y12625515D01*
X9589408Y12747814D01*
X9601935Y12875000D01*
X9601935Y14125000D01*
X9589408Y14252186D01*
X9552309Y14374485D01*
X9492064Y14487196D01*
X9432530Y14559738D01*
X10120858Y15248065D01*
X11450000Y15248065D01*
X11528414Y15255788D01*
X11603814Y15278660D01*
X11673303Y15315803D01*
X11734211Y15365789D01*
X11784197Y15426697D01*
X11821340Y15496186D01*
X11844212Y15571586D01*
X11851935Y15650000D01*
X11851935Y17150000D01*
X11844212Y17228414D01*
X11821340Y17303814D01*
X11784197Y17373303D01*
X11734211Y17434211D01*
X11673303Y17484197D01*
X11603814Y17521340D01*
X11528414Y17544212D01*
X11450000Y17551935D01*
X8450000Y17551935D01*
X8371586Y17544212D01*
X8296186Y17521340D01*
X8226697Y17484197D01*
X8165789Y17434211D01*
X8115803Y17373303D01*
X8078660Y17303814D01*
X8055788Y17228414D01*
X8048065Y17150000D01*
X8048065Y15720857D01*
X7894865Y15567657D01*
X7860525Y15539475D01*
X7748057Y15402431D01*
X7664486Y15246080D01*
X7620170Y15099990D01*
X7613023Y15076430D01*
X7595646Y14900000D01*
X7600000Y14855793D01*
X7600000Y14615523D01*
X7564012Y14585988D01*
X7482936Y14487196D01*
X7422691Y14374485D01*
X7385592Y14252186D01*
X7373065Y14125000D01*
X7373065Y12875000D01*
X7385592Y12747814D01*
X7422691Y12625515D01*
X7482936Y12512804D01*
X7564012Y12414012D01*
X7587501Y12394735D01*
X7587501Y12127047D01*
X7518068Y12042443D01*
X7434497Y11886092D01*
X7383034Y11716442D01*
X7365657Y11540011D01*
X7383034Y11363580D01*
X7420521Y11240001D01*
X6614271Y11240001D01*
X4950000Y12904272D01*
X4950000Y15248065D01*
X5550000Y15248065D01*
X5628414Y15255788D01*
X5703814Y15278660D01*
X5773303Y15315803D01*
X5834211Y15365789D01*
X5884197Y15426697D01*
X5921340Y15496186D01*
X5944212Y15571586D01*
X5951935Y15650000D01*
X5951935Y17150000D01*
X5944212Y17228414D01*
X5921340Y17303814D01*
X5884197Y17373303D01*
X5834211Y17434211D01*
X5773303Y17484197D01*
X5703814Y17521340D01*
X5628414Y17544212D01*
X5550000Y17551935D01*
X2550000Y17551935D01*
X2471586Y17544212D01*
X2396186Y17521340D01*
X2326697Y17484197D01*
X2265789Y17434211D01*
X2215803Y17373303D01*
X2178660Y17303814D01*
X2155788Y17228414D01*
X2148065Y17150000D01*
X2148065Y15650000D01*
X2155788Y15571586D01*
X2178660Y15496186D01*
X2215803Y15426697D01*
X2265789Y15365789D01*
X2326697Y15315803D01*
X2396186Y15278660D01*
X2471586Y15255788D01*
X2550000Y15248065D01*
X3150000Y15248065D01*
X3150001Y12575696D01*
X3145646Y12531480D01*
X3163023Y12355050D01*
X3214487Y12185399D01*
X3298057Y12029049D01*
X3382345Y11926343D01*
X3382348Y11926340D01*
X3410526Y11892005D01*
X3444861Y11863827D01*
X5268697Y10039991D01*
X2955793Y10039991D01*
X2823569Y10026968D01*
X2653919Y9975505D01*
X2497568Y9891934D01*
X2360525Y9779466D01*
X2248057Y9642423D01*
X2203767Y9559563D01*
X2165803Y9513303D01*
X2128660Y9443814D01*
X2105788Y9368414D01*
X2098065Y9290000D01*
X2098065Y9164551D01*
X2095646Y9139991D01*
X425000Y9139991D01*
X425000Y24575000D01*
X59075001Y24575000D01*
X59075000Y425000D01*
%TD*%
M02*
