  0
SECTION
  2
HEADER
  9
$ANGBASE
  50
0.0
  9
$ANGDIR
  70
1
  9
$MEASUREMENT
  70
1
  0
ENDSEC
  0
SECTION
  2
TABLES
  0
TABLE
  2
LTYPE
  70
4
  0
LTYPE
  5
40F
  2
CONTINUOUS
  70
0
  3
Solid line
  72
65
  73
0
  40
0.0
  0
LTYPE
  5
410
  2
DASHDOT
 70
0
  3
Dash Dot ____ _ ____ _
 72
65
 73
4
 40
2.0
 49
1.25
 49
-0.25
 49
0.25
 49
-0.25
  0
LTYPE
  5
411
  2
DASHED
 70
0
  3
Dashed __ __ __ __ __
 72
65
 73
2
 40
0.75
 49
0.5
 49
-0.25
  0
LTYPE
  5
43B
  2
DOTTED
 70
0
  3
Dotted .  .  .  .
 72
65
 73
2
 40
0.2
 49
0.0
 49
-0.2
  0
ENDTAB
  0
TABLE
  2
STYLE
  70
4
  0
STYLE
  2
KICAD
  70
0
  40
0
  41
1
  42
1
  50
0
  71
0
  3
isocp.shx
  0
STYLE
  2
KICADB
  70
0
  40
0
  41
1
  42
1
  50
0
  71
0
  3
isocp.shx
  0
STYLE
  2
KICADI
  70
0
  40
0
  41
1
  42
1
  50
15
  71
0
  3
isocp.shx
  0
STYLE
  2
KICADBI
  70
0
  40
0
  41
1
  42
1
  50
15
  71
0
  3
isocp.shx
  0
ENDTAB
  0
TABLE
  2
LAYER
  70
1
  0
LAYER
  2
BLACK
  70
0
  62
7
  6
CONTINUOUS
  0
ENDTAB
  0
ENDSEC
  0
SECTION
  2
ENTITIES
0
LINE
8
BLACK
6
CONTINUOUS
10
50.5
20
2.71
11
47.5
21
2.71
0
LINE
8
BLACK
6
CONTINUOUS
10
47.5
20
2.71
11
47.5
21
4.21
0
LINE
8
BLACK
6
CONTINUOUS
10
47.5
20
4.21
11
50.5
21
4.21
0
LINE
8
BLACK
6
CONTINUOUS
10
50.5
20
4.21
11
50.5
21
2.71
0
LINE
8
BLACK
6
CONTINUOUS
10
56.5
20
2.71
11
53.5
21
2.71
0
LINE
8
BLACK
6
CONTINUOUS
10
53.5
20
2.71
11
53.5
21
4.21
0
LINE
8
BLACK
6
CONTINUOUS
10
53.5
20
4.21
11
56.5
21
4.21
0
LINE
8
BLACK
6
CONTINUOUS
10
56.5
20
4.21
11
56.5
21
2.71
0
LINE
8
BLACK
6
CONTINUOUS
10
11.5
20
2.71
11
8.5
21
2.71
0
LINE
8
BLACK
6
CONTINUOUS
10
8.5
20
2.71
11
8.5
21
4.21
0
LINE
8
BLACK
6
CONTINUOUS
10
8.5
20
4.21
11
11.5
21
4.21
0
LINE
8
BLACK
6
CONTINUOUS
10
11.5
20
4.21
11
11.5
21
2.71
0
LINE
8
BLACK
6
CONTINUOUS
10
5.5
20
2.71
11
2.5
21
2.71
0
LINE
8
BLACK
6
CONTINUOUS
10
2.5
20
2.71
11
2.5
21
4.21
0
LINE
8
BLACK
6
CONTINUOUS
10
2.5
20
4.21
11
5.5
21
4.21
0
LINE
8
BLACK
6
CONTINUOUS
10
5.5
20
4.21
11
5.5
21
2.71
0
LINE
8
BLACK
6
CONTINUOUS
10
56.5
20
7.75
11
53.5
21
7.75
0
LINE
8
BLACK
6
CONTINUOUS
10
53.5
20
7.75
11
53.5
21
9.25
0
LINE
8
BLACK
6
CONTINUOUS
10
53.5
20
9.25
11
56.5
21
9.25
0
LINE
8
BLACK
6
CONTINUOUS
10
56.5
20
9.25
11
56.5
21
7.75
0
LINE
8
BLACK
6
CONTINUOUS
10
11.5
20
7.75
11
8.5
21
7.75
0
LINE
8
BLACK
6
CONTINUOUS
10
8.5
20
7.75
11
8.5
21
9.25
0
LINE
8
BLACK
6
CONTINUOUS
10
8.5
20
9.25
11
11.5
21
9.25
0
LINE
8
BLACK
6
CONTINUOUS
10
11.5
20
9.25
11
11.5
21
7.75
0
LINE
8
BLACK
6
CONTINUOUS
10
50.5
20
7.79
11
47.5
21
7.79
0
LINE
8
BLACK
6
CONTINUOUS
10
47.5
20
7.79
11
47.5
21
9.29
0
LINE
8
BLACK
6
CONTINUOUS
10
47.5
20
9.29
11
50.5
21
9.29
0
LINE
8
BLACK
6
CONTINUOUS
10
50.5
20
9.29
11
50.5
21
7.79
0
LINE
8
BLACK
6
CONTINUOUS
10
5.5
20
7.79
11
2.5
21
7.79
0
LINE
8
BLACK
6
CONTINUOUS
10
2.5
20
7.79
11
2.5
21
9.29
0
LINE
8
BLACK
6
CONTINUOUS
10
2.5
20
9.29
11
5.5
21
9.29
0
LINE
8
BLACK
6
CONTINUOUS
10
5.5
20
9.29
11
5.5
21
7.79
0
LINE
8
BLACK
6
CONTINUOUS
10
31.5843
20
13.6971
11
31.6124
21
13.6886
0
LINE
8
BLACK
6
CONTINUOUS
10
31.6124
20
13.6886
11
31.6383
21
13.6747
0
LINE
8
BLACK
6
CONTINUOUS
10
31.6383
20
13.6747
11
31.6611
21
13.6561
0
LINE
8
BLACK
6
CONTINUOUS
10
31.6611
20
13.6561
11
31.6797
21
13.6333
0
LINE
8
BLACK
6
CONTINUOUS
10
31.6797
20
13.6333
11
31.6936
21
13.6074
0
LINE
8
BLACK
6
CONTINUOUS
10
31.6936
20
13.6074
11
31.7021
21
13.5793
0
LINE
8
BLACK
6
CONTINUOUS
10
31.7021
20
13.5793
11
31.705
21
13.55
0
LINE
8
BLACK
6
CONTINUOUS
10
31.705
20
13.55
11
31.705
21
11.9
0
LINE
8
BLACK
6
CONTINUOUS
10
31.705
20
11.9
11
31.7021
21
11.8707
0
LINE
8
BLACK
6
CONTINUOUS
10
31.7021
20
11.8707
11
31.6936
21
11.8426
0
LINE
8
BLACK
6
CONTINUOUS
10
31.6936
20
11.8426
11
31.6797
21
11.8167
0
LINE
8
BLACK
6
CONTINUOUS
10
31.6797
20
11.8167
11
31.6611
21
11.7939
0
LINE
8
BLACK
6
CONTINUOUS
10
31.6611
20
11.7939
11
31.6383
21
11.7753
0
LINE
8
BLACK
6
CONTINUOUS
10
31.6383
20
11.7753
11
31.6124
21
11.7614
0
LINE
8
BLACK
6
CONTINUOUS
10
31.6124
20
11.7614
11
31.5843
21
11.7529
0
LINE
8
BLACK
6
CONTINUOUS
10
31.5843
20
11.7529
11
31.555
21
11.75
0
LINE
8
BLACK
6
CONTINUOUS
10
31.555
20
11.75
11
31.255
21
11.75
0
LINE
8
BLACK
6
CONTINUOUS
10
31.255
20
11.75
11
31.2257
21
11.7529
0
LINE
8
BLACK
6
CONTINUOUS
10
31.2257
20
11.7529
11
31.1976
21
11.7614
0
LINE
8
BLACK
6
CONTINUOUS
10
31.1976
20
11.7614
11
31.1717
21
11.7753
0
LINE
8
BLACK
6
CONTINUOUS
10
31.1717
20
11.7753
11
31.1489
21
11.7939
0
LINE
8
BLACK
6
CONTINUOUS
10
31.1489
20
11.7939
11
31.1303
21
11.8167
0
LINE
8
BLACK
6
CONTINUOUS
10
31.1303
20
11.8167
11
31.1164
21
11.8426
0
LINE
8
BLACK
6
CONTINUOUS
10
31.1164
20
11.8426
11
31.1079
21
11.8707
0
LINE
8
BLACK
6
CONTINUOUS
10
31.1079
20
11.8707
11
31.105
21
11.9
0
LINE
8
BLACK
6
CONTINUOUS
10
31.105
20
11.9
11
31.105
21
13.55
0
LINE
8
BLACK
6
CONTINUOUS
10
31.105
20
13.55
11
31.1079
21
13.5793
0
LINE
8
BLACK
6
CONTINUOUS
10
31.1079
20
13.5793
11
31.1164
21
13.6074
0
LINE
8
BLACK
6
CONTINUOUS
10
31.1164
20
13.6074
11
31.1303
21
13.6333
0
LINE
8
BLACK
6
CONTINUOUS
10
31.1303
20
13.6333
11
31.1489
21
13.6561
0
LINE
8
BLACK
6
CONTINUOUS
10
31.1489
20
13.6561
11
31.1717
21
13.6747
0
LINE
8
BLACK
6
CONTINUOUS
10
31.1717
20
13.6747
11
31.1976
21
13.6886
0
LINE
8
BLACK
6
CONTINUOUS
10
31.1976
20
13.6886
11
31.2257
21
13.6971
0
LINE
8
BLACK
6
CONTINUOUS
10
31.2257
20
13.6971
11
31.255
21
13.7
0
LINE
8
BLACK
6
CONTINUOUS
10
31.255
20
13.7
11
31.555
21
13.7
0
LINE
8
BLACK
6
CONTINUOUS
10
31.555
20
13.7
11
31.5843
21
13.6971
0
LINE
8
BLACK
6
CONTINUOUS
10
34.1243
20
13.6971
11
34.1524
21
13.6886
0
LINE
8
BLACK
6
CONTINUOUS
10
34.1524
20
13.6886
11
34.1783
21
13.6747
0
LINE
8
BLACK
6
CONTINUOUS
10
34.1783
20
13.6747
11
34.2011
21
13.6561
0
LINE
8
BLACK
6
CONTINUOUS
10
34.2011
20
13.6561
11
34.2197
21
13.6333
0
LINE
8
BLACK
6
CONTINUOUS
10
34.2197
20
13.6333
11
34.2336
21
13.6074
0
LINE
8
BLACK
6
CONTINUOUS
10
34.2336
20
13.6074
11
34.2421
21
13.5793
0
LINE
8
BLACK
6
CONTINUOUS
10
34.2421
20
13.5793
11
34.245
21
13.55
0
LINE
8
BLACK
6
CONTINUOUS
10
34.245
20
13.55
11
34.245
21
11.9
0
LINE
8
BLACK
6
CONTINUOUS
10
34.245
20
11.9
11
34.2421
21
11.8707
0
LINE
8
BLACK
6
CONTINUOUS
10
34.2421
20
11.8707
11
34.2336
21
11.8426
0
LINE
8
BLACK
6
CONTINUOUS
10
34.2336
20
11.8426
11
34.2197
21
11.8167
0
LINE
8
BLACK
6
CONTINUOUS
10
34.2197
20
11.8167
11
34.2011
21
11.7939
0
LINE
8
BLACK
6
CONTINUOUS
10
34.2011
20
11.7939
11
34.1783
21
11.7753
0
LINE
8
BLACK
6
CONTINUOUS
10
34.1783
20
11.7753
11
34.1524
21
11.7614
0
LINE
8
BLACK
6
CONTINUOUS
10
34.1524
20
11.7614
11
34.1243
21
11.7529
0
LINE
8
BLACK
6
CONTINUOUS
10
34.1243
20
11.7529
11
34.095
21
11.75
0
LINE
8
BLACK
6
CONTINUOUS
10
34.095
20
11.75
11
33.795
21
11.75
0
LINE
8
BLACK
6
CONTINUOUS
10
33.795
20
11.75
11
33.7657
21
11.7529
0
LINE
8
BLACK
6
CONTINUOUS
10
33.7657
20
11.7529
11
33.7376
21
11.7614
0
LINE
8
BLACK
6
CONTINUOUS
10
33.7376
20
11.7614
11
33.7117
21
11.7753
0
LINE
8
BLACK
6
CONTINUOUS
10
33.7117
20
11.7753
11
33.6889
21
11.7939
0
LINE
8
BLACK
6
CONTINUOUS
10
33.6889
20
11.7939
11
33.6703
21
11.8167
0
LINE
8
BLACK
6
CONTINUOUS
10
33.6703
20
11.8167
11
33.6564
21
11.8426
0
LINE
8
BLACK
6
CONTINUOUS
10
33.6564
20
11.8426
11
33.6479
21
11.8707
0
LINE
8
BLACK
6
CONTINUOUS
10
33.6479
20
11.8707
11
33.645
21
11.9
0
LINE
8
BLACK
6
CONTINUOUS
10
33.645
20
11.9
11
33.645
21
13.55
0
LINE
8
BLACK
6
CONTINUOUS
10
33.645
20
13.55
11
33.6479
21
13.5793
0
LINE
8
BLACK
6
CONTINUOUS
10
33.6479
20
13.5793
11
33.6564
21
13.6074
0
LINE
8
BLACK
6
CONTINUOUS
10
33.6564
20
13.6074
11
33.6703
21
13.6333
0
LINE
8
BLACK
6
CONTINUOUS
10
33.6703
20
13.6333
11
33.6889
21
13.6561
0
LINE
8
BLACK
6
CONTINUOUS
10
33.6889
20
13.6561
11
33.7117
21
13.6747
0
LINE
8
BLACK
6
CONTINUOUS
10
33.7117
20
13.6747
11
33.7376
21
13.6886
0
LINE
8
BLACK
6
CONTINUOUS
10
33.7376
20
13.6886
11
33.7657
21
13.6971
0
LINE
8
BLACK
6
CONTINUOUS
10
33.7657
20
13.6971
11
33.795
21
13.7
0
LINE
8
BLACK
6
CONTINUOUS
10
33.795
20
13.7
11
34.095
21
13.7
0
LINE
8
BLACK
6
CONTINUOUS
10
34.095
20
13.7
11
34.1243
21
13.6971
0
LINE
8
BLACK
6
CONTINUOUS
10
32.8543
20
13.6971
11
32.8824
21
13.6886
0
LINE
8
BLACK
6
CONTINUOUS
10
32.8824
20
13.6886
11
32.9083
21
13.6747
0
LINE
8
BLACK
6
CONTINUOUS
10
32.9083
20
13.6747
11
32.9311
21
13.6561
0
LINE
8
BLACK
6
CONTINUOUS
10
32.9311
20
13.6561
11
32.9497
21
13.6333
0
LINE
8
BLACK
6
CONTINUOUS
10
32.9497
20
13.6333
11
32.9636
21
13.6074
0
LINE
8
BLACK
6
CONTINUOUS
10
32.9636
20
13.6074
11
32.9721
21
13.5793
0
LINE
8
BLACK
6
CONTINUOUS
10
32.9721
20
13.5793
11
32.975
21
13.55
0
LINE
8
BLACK
6
CONTINUOUS
10
32.975
20
13.55
11
32.975
21
11.9
0
LINE
8
BLACK
6
CONTINUOUS
10
32.975
20
11.9
11
32.9721
21
11.8707
0
LINE
8
BLACK
6
CONTINUOUS
10
32.9721
20
11.8707
11
32.9636
21
11.8426
0
LINE
8
BLACK
6
CONTINUOUS
10
32.9636
20
11.8426
11
32.9497
21
11.8167
0
LINE
8
BLACK
6
CONTINUOUS
10
32.9497
20
11.8167
11
32.9311
21
11.7939
0
LINE
8
BLACK
6
CONTINUOUS
10
32.9311
20
11.7939
11
32.9083
21
11.7753
0
LINE
8
BLACK
6
CONTINUOUS
10
32.9083
20
11.7753
11
32.8824
21
11.7614
0
LINE
8
BLACK
6
CONTINUOUS
10
32.8824
20
11.7614
11
32.8543
21
11.7529
0
LINE
8
BLACK
6
CONTINUOUS
10
32.8543
20
11.7529
11
32.825
21
11.75
0
LINE
8
BLACK
6
CONTINUOUS
10
32.825
20
11.75
11
32.525
21
11.75
0
LINE
8
BLACK
6
CONTINUOUS
10
32.525
20
11.75
11
32.4957
21
11.7529
0
LINE
8
BLACK
6
CONTINUOUS
10
32.4957
20
11.7529
11
32.4676
21
11.7614
0
LINE
8
BLACK
6
CONTINUOUS
10
32.4676
20
11.7614
11
32.4417
21
11.7753
0
LINE
8
BLACK
6
CONTINUOUS
10
32.4417
20
11.7753
11
32.4189
21
11.7939
0
LINE
8
BLACK
6
CONTINUOUS
10
32.4189
20
11.7939
11
32.4003
21
11.8167
0
LINE
8
BLACK
6
CONTINUOUS
10
32.4003
20
11.8167
11
32.3864
21
11.8426
0
LINE
8
BLACK
6
CONTINUOUS
10
32.3864
20
11.8426
11
32.3779
21
11.8707
0
LINE
8
BLACK
6
CONTINUOUS
10
32.3779
20
11.8707
11
32.375
21
11.9
0
LINE
8
BLACK
6
CONTINUOUS
10
32.375
20
11.9
11
32.375
21
13.55
0
LINE
8
BLACK
6
CONTINUOUS
10
32.375
20
13.55
11
32.3779
21
13.5793
0
LINE
8
BLACK
6
CONTINUOUS
10
32.3779
20
13.5793
11
32.3864
21
13.6074
0
LINE
8
BLACK
6
CONTINUOUS
10
32.3864
20
13.6074
11
32.4003
21
13.6333
0
LINE
8
BLACK
6
CONTINUOUS
10
32.4003
20
13.6333
11
32.4189
21
13.6561
0
LINE
8
BLACK
6
CONTINUOUS
10
32.4189
20
13.6561
11
32.4417
21
13.6747
0
LINE
8
BLACK
6
CONTINUOUS
10
32.4417
20
13.6747
11
32.4676
21
13.6886
0
LINE
8
BLACK
6
CONTINUOUS
10
32.4676
20
13.6886
11
32.4957
21
13.6971
0
LINE
8
BLACK
6
CONTINUOUS
10
32.4957
20
13.6971
11
32.525
21
13.7
0
LINE
8
BLACK
6
CONTINUOUS
10
32.525
20
13.7
11
32.825
21
13.7
0
LINE
8
BLACK
6
CONTINUOUS
10
32.825
20
13.7
11
32.8543
21
13.6971
0
LINE
8
BLACK
6
CONTINUOUS
10
30.3143
20
13.6971
11
30.3424
21
13.6886
0
LINE
8
BLACK
6
CONTINUOUS
10
30.3424
20
13.6886
11
30.3683
21
13.6747
0
LINE
8
BLACK
6
CONTINUOUS
10
30.3683
20
13.6747
11
30.3911
21
13.6561
0
LINE
8
BLACK
6
CONTINUOUS
10
30.3911
20
13.6561
11
30.4097
21
13.6333
0
LINE
8
BLACK
6
CONTINUOUS
10
30.4097
20
13.6333
11
30.4236
21
13.6074
0
LINE
8
BLACK
6
CONTINUOUS
10
30.4236
20
13.6074
11
30.4321
21
13.5793
0
LINE
8
BLACK
6
CONTINUOUS
10
30.4321
20
13.5793
11
30.435
21
13.55
0
LINE
8
BLACK
6
CONTINUOUS
10
30.435
20
13.55
11
30.435
21
11.9
0
LINE
8
BLACK
6
CONTINUOUS
10
30.435
20
11.9
11
30.4321
21
11.8707
0
LINE
8
BLACK
6
CONTINUOUS
10
30.4321
20
11.8707
11
30.4236
21
11.8426
0
LINE
8
BLACK
6
CONTINUOUS
10
30.4236
20
11.8426
11
30.4097
21
11.8167
0
LINE
8
BLACK
6
CONTINUOUS
10
30.4097
20
11.8167
11
30.3911
21
11.7939
0
LINE
8
BLACK
6
CONTINUOUS
10
30.3911
20
11.7939
11
30.3683
21
11.7753
0
LINE
8
BLACK
6
CONTINUOUS
10
30.3683
20
11.7753
11
30.3424
21
11.7614
0
LINE
8
BLACK
6
CONTINUOUS
10
30.3424
20
11.7614
11
30.3143
21
11.7529
0
LINE
8
BLACK
6
CONTINUOUS
10
30.3143
20
11.7529
11
30.285
21
11.75
0
LINE
8
BLACK
6
CONTINUOUS
10
30.285
20
11.75
11
29.985
21
11.75
0
LINE
8
BLACK
6
CONTINUOUS
10
29.985
20
11.75
11
29.9557
21
11.7529
0
LINE
8
BLACK
6
CONTINUOUS
10
29.9557
20
11.7529
11
29.9276
21
11.7614
0
LINE
8
BLACK
6
CONTINUOUS
10
29.9276
20
11.7614
11
29.9017
21
11.7753
0
LINE
8
BLACK
6
CONTINUOUS
10
29.9017
20
11.7753
11
29.8789
21
11.7939
0
LINE
8
BLACK
6
CONTINUOUS
10
29.8789
20
11.7939
11
29.8603
21
11.8167
0
LINE
8
BLACK
6
CONTINUOUS
10
29.8603
20
11.8167
11
29.8464
21
11.8426
0
LINE
8
BLACK
6
CONTINUOUS
10
29.8464
20
11.8426
11
29.8379
21
11.8707
0
LINE
8
BLACK
6
CONTINUOUS
10
29.8379
20
11.8707
11
29.835
21
11.9
0
LINE
8
BLACK
6
CONTINUOUS
10
29.835
20
11.9
11
29.835
21
13.55
0
LINE
8
BLACK
6
CONTINUOUS
10
29.835
20
13.55
11
29.8379
21
13.5793
0
LINE
8
BLACK
6
CONTINUOUS
10
29.8379
20
13.5793
11
29.8464
21
13.6074
0
LINE
8
BLACK
6
CONTINUOUS
10
29.8464
20
13.6074
11
29.8603
21
13.6333
0
LINE
8
BLACK
6
CONTINUOUS
10
29.8603
20
13.6333
11
29.8789
21
13.6561
0
LINE
8
BLACK
6
CONTINUOUS
10
29.8789
20
13.6561
11
29.9017
21
13.6747
0
LINE
8
BLACK
6
CONTINUOUS
10
29.9017
20
13.6747
11
29.9276
21
13.6886
0
LINE
8
BLACK
6
CONTINUOUS
10
29.9276
20
13.6886
11
29.9557
21
13.6971
0
LINE
8
BLACK
6
CONTINUOUS
10
29.9557
20
13.6971
11
29.985
21
13.7
0
LINE
8
BLACK
6
CONTINUOUS
10
29.985
20
13.7
11
30.285
21
13.7
0
LINE
8
BLACK
6
CONTINUOUS
10
30.285
20
13.7
11
30.3143
21
13.6971
0
LINE
8
BLACK
6
CONTINUOUS
10
29.0443
20
13.6971
11
29.0724
21
13.6886
0
LINE
8
BLACK
6
CONTINUOUS
10
29.0724
20
13.6886
11
29.0983
21
13.6747
0
LINE
8
BLACK
6
CONTINUOUS
10
29.0983
20
13.6747
11
29.1211
21
13.6561
0
LINE
8
BLACK
6
CONTINUOUS
10
29.1211
20
13.6561
11
29.1397
21
13.6333
0
LINE
8
BLACK
6
CONTINUOUS
10
29.1397
20
13.6333
11
29.1536
21
13.6074
0
LINE
8
BLACK
6
CONTINUOUS
10
29.1536
20
13.6074
11
29.1621
21
13.5793
0
LINE
8
BLACK
6
CONTINUOUS
10
29.1621
20
13.5793
11
29.165
21
13.55
0
LINE
8
BLACK
6
CONTINUOUS
10
29.165
20
13.55
11
29.165
21
11.9
0
LINE
8
BLACK
6
CONTINUOUS
10
29.165
20
11.9
11
29.1621
21
11.8707
0
LINE
8
BLACK
6
CONTINUOUS
10
29.1621
20
11.8707
11
29.1536
21
11.8426
0
LINE
8
BLACK
6
CONTINUOUS
10
29.1536
20
11.8426
11
29.1397
21
11.8167
0
LINE
8
BLACK
6
CONTINUOUS
10
29.1397
20
11.8167
11
29.1211
21
11.7939
0
LINE
8
BLACK
6
CONTINUOUS
10
29.1211
20
11.7939
11
29.0983
21
11.7753
0
LINE
8
BLACK
6
CONTINUOUS
10
29.0983
20
11.7753
11
29.0724
21
11.7614
0
LINE
8
BLACK
6
CONTINUOUS
10
29.0724
20
11.7614
11
29.0443
21
11.7529
0
LINE
8
BLACK
6
CONTINUOUS
10
29.0443
20
11.7529
11
29.015
21
11.75
0
LINE
8
BLACK
6
CONTINUOUS
10
29.015
20
11.75
11
28.715
21
11.75
0
LINE
8
BLACK
6
CONTINUOUS
10
28.715
20
11.75
11
28.6857
21
11.7529
0
LINE
8
BLACK
6
CONTINUOUS
10
28.6857
20
11.7529
11
28.6576
21
11.7614
0
LINE
8
BLACK
6
CONTINUOUS
10
28.6576
20
11.7614
11
28.6317
21
11.7753
0
LINE
8
BLACK
6
CONTINUOUS
10
28.6317
20
11.7753
11
28.6089
21
11.7939
0
LINE
8
BLACK
6
CONTINUOUS
10
28.6089
20
11.7939
11
28.5903
21
11.8167
0
LINE
8
BLACK
6
CONTINUOUS
10
28.5903
20
11.8167
11
28.5764
21
11.8426
0
LINE
8
BLACK
6
CONTINUOUS
10
28.5764
20
11.8426
11
28.5679
21
11.8707
0
LINE
8
BLACK
6
CONTINUOUS
10
28.5679
20
11.8707
11
28.565
21
11.9
0
LINE
8
BLACK
6
CONTINUOUS
10
28.565
20
11.9
11
28.565
21
13.55
0
LINE
8
BLACK
6
CONTINUOUS
10
28.565
20
13.55
11
28.5679
21
13.5793
0
LINE
8
BLACK
6
CONTINUOUS
10
28.5679
20
13.5793
11
28.5764
21
13.6074
0
LINE
8
BLACK
6
CONTINUOUS
10
28.5764
20
13.6074
11
28.5903
21
13.6333
0
LINE
8
BLACK
6
CONTINUOUS
10
28.5903
20
13.6333
11
28.6089
21
13.6561
0
LINE
8
BLACK
6
CONTINUOUS
10
28.6089
20
13.6561
11
28.6317
21
13.6747
0
LINE
8
BLACK
6
CONTINUOUS
10
28.6317
20
13.6747
11
28.6576
21
13.6886
0
LINE
8
BLACK
6
CONTINUOUS
10
28.6576
20
13.6886
11
28.6857
21
13.6971
0
LINE
8
BLACK
6
CONTINUOUS
10
28.6857
20
13.6971
11
28.715
21
13.7
0
LINE
8
BLACK
6
CONTINUOUS
10
28.715
20
13.7
11
29.015
21
13.7
0
LINE
8
BLACK
6
CONTINUOUS
10
29.015
20
13.7
11
29.0443
21
13.6971
0
LINE
8
BLACK
6
CONTINUOUS
10
27.7743
20
13.6971
11
27.8024
21
13.6886
0
LINE
8
BLACK
6
CONTINUOUS
10
27.8024
20
13.6886
11
27.8283
21
13.6747
0
LINE
8
BLACK
6
CONTINUOUS
10
27.8283
20
13.6747
11
27.8511
21
13.6561
0
LINE
8
BLACK
6
CONTINUOUS
10
27.8511
20
13.6561
11
27.8697
21
13.6333
0
LINE
8
BLACK
6
CONTINUOUS
10
27.8697
20
13.6333
11
27.8836
21
13.6074
0
LINE
8
BLACK
6
CONTINUOUS
10
27.8836
20
13.6074
11
27.8921
21
13.5793
0
LINE
8
BLACK
6
CONTINUOUS
10
27.8921
20
13.5793
11
27.895
21
13.55
0
LINE
8
BLACK
6
CONTINUOUS
10
27.895
20
13.55
11
27.895
21
11.9
0
LINE
8
BLACK
6
CONTINUOUS
10
27.895
20
11.9
11
27.8921
21
11.8707
0
LINE
8
BLACK
6
CONTINUOUS
10
27.8921
20
11.8707
11
27.8836
21
11.8426
0
LINE
8
BLACK
6
CONTINUOUS
10
27.8836
20
11.8426
11
27.8697
21
11.8167
0
LINE
8
BLACK
6
CONTINUOUS
10
27.8697
20
11.8167
11
27.8511
21
11.7939
0
LINE
8
BLACK
6
CONTINUOUS
10
27.8511
20
11.7939
11
27.8283
21
11.7753
0
LINE
8
BLACK
6
CONTINUOUS
10
27.8283
20
11.7753
11
27.8024
21
11.7614
0
LINE
8
BLACK
6
CONTINUOUS
10
27.8024
20
11.7614
11
27.7743
21
11.7529
0
LINE
8
BLACK
6
CONTINUOUS
10
27.7743
20
11.7529
11
27.745
21
11.75
0
LINE
8
BLACK
6
CONTINUOUS
10
27.745
20
11.75
11
27.445
21
11.75
0
LINE
8
BLACK
6
CONTINUOUS
10
27.445
20
11.75
11
27.4157
21
11.7529
0
LINE
8
BLACK
6
CONTINUOUS
10
27.4157
20
11.7529
11
27.3876
21
11.7614
0
LINE
8
BLACK
6
CONTINUOUS
10
27.3876
20
11.7614
11
27.3617
21
11.7753
0
LINE
8
BLACK
6
CONTINUOUS
10
27.3617
20
11.7753
11
27.3389
21
11.7939
0
LINE
8
BLACK
6
CONTINUOUS
10
27.3389
20
11.7939
11
27.3203
21
11.8167
0
LINE
8
BLACK
6
CONTINUOUS
10
27.3203
20
11.8167
11
27.3064
21
11.8426
0
LINE
8
BLACK
6
CONTINUOUS
10
27.3064
20
11.8426
11
27.2979
21
11.8707
0
LINE
8
BLACK
6
CONTINUOUS
10
27.2979
20
11.8707
11
27.295
21
11.9
0
LINE
8
BLACK
6
CONTINUOUS
10
27.295
20
11.9
11
27.295
21
13.55
0
LINE
8
BLACK
6
CONTINUOUS
10
27.295
20
13.55
11
27.2979
21
13.5793
0
LINE
8
BLACK
6
CONTINUOUS
10
27.2979
20
13.5793
11
27.3064
21
13.6074
0
LINE
8
BLACK
6
CONTINUOUS
10
27.3064
20
13.6074
11
27.3203
21
13.6333
0
LINE
8
BLACK
6
CONTINUOUS
10
27.3203
20
13.6333
11
27.3389
21
13.6561
0
LINE
8
BLACK
6
CONTINUOUS
10
27.3389
20
13.6561
11
27.3617
21
13.6747
0
LINE
8
BLACK
6
CONTINUOUS
10
27.3617
20
13.6747
11
27.3876
21
13.6886
0
LINE
8
BLACK
6
CONTINUOUS
10
27.3876
20
13.6886
11
27.4157
21
13.6971
0
LINE
8
BLACK
6
CONTINUOUS
10
27.4157
20
13.6971
11
27.445
21
13.7
0
LINE
8
BLACK
6
CONTINUOUS
10
27.445
20
13.7
11
27.745
21
13.7
0
LINE
8
BLACK
6
CONTINUOUS
10
27.745
20
13.7
11
27.7743
21
13.6971
0
LINE
8
BLACK
6
CONTINUOUS
10
26.5043
20
13.6971
11
26.5324
21
13.6886
0
LINE
8
BLACK
6
CONTINUOUS
10
26.5324
20
13.6886
11
26.5583
21
13.6747
0
LINE
8
BLACK
6
CONTINUOUS
10
26.5583
20
13.6747
11
26.5811
21
13.6561
0
LINE
8
BLACK
6
CONTINUOUS
10
26.5811
20
13.6561
11
26.5997
21
13.6333
0
LINE
8
BLACK
6
CONTINUOUS
10
26.5997
20
13.6333
11
26.6136
21
13.6074
0
LINE
8
BLACK
6
CONTINUOUS
10
26.6136
20
13.6074
11
26.6221
21
13.5793
0
LINE
8
BLACK
6
CONTINUOUS
10
26.6221
20
13.5793
11
26.625
21
13.55
0
LINE
8
BLACK
6
CONTINUOUS
10
26.625
20
13.55
11
26.625
21
11.9
0
LINE
8
BLACK
6
CONTINUOUS
10
26.625
20
11.9
11
26.6221
21
11.8707
0
LINE
8
BLACK
6
CONTINUOUS
10
26.6221
20
11.8707
11
26.6136
21
11.8426
0
LINE
8
BLACK
6
CONTINUOUS
10
26.6136
20
11.8426
11
26.5997
21
11.8167
0
LINE
8
BLACK
6
CONTINUOUS
10
26.5997
20
11.8167
11
26.5811
21
11.7939
0
LINE
8
BLACK
6
CONTINUOUS
10
26.5811
20
11.7939
11
26.5583
21
11.7753
0
LINE
8
BLACK
6
CONTINUOUS
10
26.5583
20
11.7753
11
26.5324
21
11.7614
0
LINE
8
BLACK
6
CONTINUOUS
10
26.5324
20
11.7614
11
26.5043
21
11.7529
0
LINE
8
BLACK
6
CONTINUOUS
10
26.5043
20
11.7529
11
26.475
21
11.75
0
LINE
8
BLACK
6
CONTINUOUS
10
26.475
20
11.75
11
26.175
21
11.75
0
LINE
8
BLACK
6
CONTINUOUS
10
26.175
20
11.75
11
26.1457
21
11.7529
0
LINE
8
BLACK
6
CONTINUOUS
10
26.1457
20
11.7529
11
26.1176
21
11.7614
0
LINE
8
BLACK
6
CONTINUOUS
10
26.1176
20
11.7614
11
26.0917
21
11.7753
0
LINE
8
BLACK
6
CONTINUOUS
10
26.0917
20
11.7753
11
26.0689
21
11.7939
0
LINE
8
BLACK
6
CONTINUOUS
10
26.0689
20
11.7939
11
26.0503
21
11.8167
0
LINE
8
BLACK
6
CONTINUOUS
10
26.0503
20
11.8167
11
26.0364
21
11.8426
0
LINE
8
BLACK
6
CONTINUOUS
10
26.0364
20
11.8426
11
26.0279
21
11.8707
0
LINE
8
BLACK
6
CONTINUOUS
10
26.0279
20
11.8707
11
26.025
21
11.9
0
LINE
8
BLACK
6
CONTINUOUS
10
26.025
20
11.9
11
26.025
21
13.55
0
LINE
8
BLACK
6
CONTINUOUS
10
26.025
20
13.55
11
26.0279
21
13.5793
0
LINE
8
BLACK
6
CONTINUOUS
10
26.0279
20
13.5793
11
26.0364
21
13.6074
0
LINE
8
BLACK
6
CONTINUOUS
10
26.0364
20
13.6074
11
26.0503
21
13.6333
0
LINE
8
BLACK
6
CONTINUOUS
10
26.0503
20
13.6333
11
26.0689
21
13.6561
0
LINE
8
BLACK
6
CONTINUOUS
10
26.0689
20
13.6561
11
26.0917
21
13.6747
0
LINE
8
BLACK
6
CONTINUOUS
10
26.0917
20
13.6747
11
26.1176
21
13.6886
0
LINE
8
BLACK
6
CONTINUOUS
10
26.1176
20
13.6886
11
26.1457
21
13.6971
0
LINE
8
BLACK
6
CONTINUOUS
10
26.1457
20
13.6971
11
26.175
21
13.7
0
LINE
8
BLACK
6
CONTINUOUS
10
26.175
20
13.7
11
26.475
21
13.7
0
LINE
8
BLACK
6
CONTINUOUS
10
26.475
20
13.7
11
26.5043
21
13.6971
0
LINE
8
BLACK
6
CONTINUOUS
10
25.2343
20
13.6971
11
25.2624
21
13.6886
0
LINE
8
BLACK
6
CONTINUOUS
10
25.2624
20
13.6886
11
25.2883
21
13.6747
0
LINE
8
BLACK
6
CONTINUOUS
10
25.2883
20
13.6747
11
25.3111
21
13.6561
0
LINE
8
BLACK
6
CONTINUOUS
10
25.3111
20
13.6561
11
25.3297
21
13.6333
0
LINE
8
BLACK
6
CONTINUOUS
10
25.3297
20
13.6333
11
25.3436
21
13.6074
0
LINE
8
BLACK
6
CONTINUOUS
10
25.3436
20
13.6074
11
25.3521
21
13.5793
0
LINE
8
BLACK
6
CONTINUOUS
10
25.3521
20
13.5793
11
25.355
21
13.55
0
LINE
8
BLACK
6
CONTINUOUS
10
25.355
20
13.55
11
25.355
21
11.9
0
LINE
8
BLACK
6
CONTINUOUS
10
25.355
20
11.9
11
25.3521
21
11.8707
0
LINE
8
BLACK
6
CONTINUOUS
10
25.3521
20
11.8707
11
25.3436
21
11.8426
0
LINE
8
BLACK
6
CONTINUOUS
10
25.3436
20
11.8426
11
25.3297
21
11.8167
0
LINE
8
BLACK
6
CONTINUOUS
10
25.3297
20
11.8167
11
25.3111
21
11.7939
0
LINE
8
BLACK
6
CONTINUOUS
10
25.3111
20
11.7939
11
25.2883
21
11.7753
0
LINE
8
BLACK
6
CONTINUOUS
10
25.2883
20
11.7753
11
25.2624
21
11.7614
0
LINE
8
BLACK
6
CONTINUOUS
10
25.2624
20
11.7614
11
25.2343
21
11.7529
0
LINE
8
BLACK
6
CONTINUOUS
10
25.2343
20
11.7529
11
25.205
21
11.75
0
LINE
8
BLACK
6
CONTINUOUS
10
25.205
20
11.75
11
24.905
21
11.75
0
LINE
8
BLACK
6
CONTINUOUS
10
24.905
20
11.75
11
24.8757
21
11.7529
0
LINE
8
BLACK
6
CONTINUOUS
10
24.8757
20
11.7529
11
24.8476
21
11.7614
0
LINE
8
BLACK
6
CONTINUOUS
10
24.8476
20
11.7614
11
24.8217
21
11.7753
0
LINE
8
BLACK
6
CONTINUOUS
10
24.8217
20
11.7753
11
24.7989
21
11.7939
0
LINE
8
BLACK
6
CONTINUOUS
10
24.7989
20
11.7939
11
24.7803
21
11.8167
0
LINE
8
BLACK
6
CONTINUOUS
10
24.7803
20
11.8167
11
24.7664
21
11.8426
0
LINE
8
BLACK
6
CONTINUOUS
10
24.7664
20
11.8426
11
24.7579
21
11.8707
0
LINE
8
BLACK
6
CONTINUOUS
10
24.7579
20
11.8707
11
24.755
21
11.9
0
LINE
8
BLACK
6
CONTINUOUS
10
24.755
20
11.9
11
24.755
21
13.55
0
LINE
8
BLACK
6
CONTINUOUS
10
24.755
20
13.55
11
24.7579
21
13.5793
0
LINE
8
BLACK
6
CONTINUOUS
10
24.7579
20
13.5793
11
24.7664
21
13.6074
0
LINE
8
BLACK
6
CONTINUOUS
10
24.7664
20
13.6074
11
24.7803
21
13.6333
0
LINE
8
BLACK
6
CONTINUOUS
10
24.7803
20
13.6333
11
24.7989
21
13.6561
0
LINE
8
BLACK
6
CONTINUOUS
10
24.7989
20
13.6561
11
24.8217
21
13.6747
0
LINE
8
BLACK
6
CONTINUOUS
10
24.8217
20
13.6747
11
24.8476
21
13.6886
0
LINE
8
BLACK
6
CONTINUOUS
10
24.8476
20
13.6886
11
24.8757
21
13.6971
0
LINE
8
BLACK
6
CONTINUOUS
10
24.8757
20
13.6971
11
24.905
21
13.7
0
LINE
8
BLACK
6
CONTINUOUS
10
24.905
20
13.7
11
25.205
21
13.7
0
LINE
8
BLACK
6
CONTINUOUS
10
25.205
20
13.7
11
25.2343
21
13.6971
0
LINE
8
BLACK
6
CONTINUOUS
10
53.9988
20
14.3702
11
54.0457
21
14.356
0
LINE
8
BLACK
6
CONTINUOUS
10
54.0457
20
14.356
11
54.0889
21
14.3329
0
LINE
8
BLACK
6
CONTINUOUS
10
54.0889
20
14.3329
11
54.1268
21
14.3018
0
LINE
8
BLACK
6
CONTINUOUS
10
54.1268
20
14.3018
11
54.1579
21
14.2639
0
LINE
8
BLACK
6
CONTINUOUS
10
54.1579
20
14.2639
11
54.181
21
14.2207
0
LINE
8
BLACK
6
CONTINUOUS
10
54.181
20
14.2207
11
54.1952
21
14.1738
0
LINE
8
BLACK
6
CONTINUOUS
10
54.1952
20
14.1738
11
54.2
21
14.125
0
LINE
8
BLACK
6
CONTINUOUS
10
54.2
20
14.125
11
54.2
21
12.875
0
LINE
8
BLACK
6
CONTINUOUS
10
54.2
20
12.875
11
54.1952
21
12.8262
0
LINE
8
BLACK
6
CONTINUOUS
10
54.1952
20
12.8262
11
54.181
21
12.7793
0
LINE
8
BLACK
6
CONTINUOUS
10
54.181
20
12.7793
11
54.1579
21
12.7361
0
LINE
8
BLACK
6
CONTINUOUS
10
54.1579
20
12.7361
11
54.1268
21
12.6982
0
LINE
8
BLACK
6
CONTINUOUS
10
54.1268
20
12.6982
11
54.0889
21
12.6671
0
LINE
8
BLACK
6
CONTINUOUS
10
54.0889
20
12.6671
11
54.0457
21
12.644
0
LINE
8
BLACK
6
CONTINUOUS
10
54.0457
20
12.644
11
53.9988
21
12.6298
0
LINE
8
BLACK
6
CONTINUOUS
10
53.9988
20
12.6298
11
53.95
21
12.625
0
LINE
8
BLACK
6
CONTINUOUS
10
53.95
20
12.625
11
53.025
21
12.625
0
LINE
8
BLACK
6
CONTINUOUS
10
53.025
20
12.625
11
52.9762
21
12.6298
0
LINE
8
BLACK
6
CONTINUOUS
10
52.9762
20
12.6298
11
52.9293
21
12.644
0
LINE
8
BLACK
6
CONTINUOUS
10
52.9293
20
12.644
11
52.8861
21
12.6671
0
LINE
8
BLACK
6
CONTINUOUS
10
52.8861
20
12.6671
11
52.8482
21
12.6982
0
LINE
8
BLACK
6
CONTINUOUS
10
52.8482
20
12.6982
11
52.8171
21
12.7361
0
LINE
8
BLACK
6
CONTINUOUS
10
52.8171
20
12.7361
11
52.794
21
12.7793
0
LINE
8
BLACK
6
CONTINUOUS
10
52.794
20
12.7793
11
52.7798
21
12.8262
0
LINE
8
BLACK
6
CONTINUOUS
10
52.7798
20
12.8262
11
52.775
21
12.875
0
LINE
8
BLACK
6
CONTINUOUS
10
52.775
20
12.875
11
52.775
21
14.125
0
LINE
8
BLACK
6
CONTINUOUS
10
52.775
20
14.125
11
52.7798
21
14.1738
0
LINE
8
BLACK
6
CONTINUOUS
10
52.7798
20
14.1738
11
52.794
21
14.2207
0
LINE
8
BLACK
6
CONTINUOUS
10
52.794
20
14.2207
11
52.8171
21
14.2639
0
LINE
8
BLACK
6
CONTINUOUS
10
52.8171
20
14.2639
11
52.8482
21
14.3018
0
LINE
8
BLACK
6
CONTINUOUS
10
52.8482
20
14.3018
11
52.8861
21
14.3329
0
LINE
8
BLACK
6
CONTINUOUS
10
52.8861
20
14.3329
11
52.9293
21
14.356
0
LINE
8
BLACK
6
CONTINUOUS
10
52.9293
20
14.356
11
52.9762
21
14.3702
0
LINE
8
BLACK
6
CONTINUOUS
10
52.9762
20
14.3702
11
53.025
21
14.375
0
LINE
8
BLACK
6
CONTINUOUS
10
53.025
20
14.375
11
53.95
21
14.375
0
LINE
8
BLACK
6
CONTINUOUS
10
53.95
20
14.375
11
53.9988
21
14.3702
0
LINE
8
BLACK
6
CONTINUOUS
10
51.0238
20
14.3702
11
51.0707
21
14.356
0
LINE
8
BLACK
6
CONTINUOUS
10
51.0707
20
14.356
11
51.1139
21
14.3329
0
LINE
8
BLACK
6
CONTINUOUS
10
51.1139
20
14.3329
11
51.1518
21
14.3018
0
LINE
8
BLACK
6
CONTINUOUS
10
51.1518
20
14.3018
11
51.1829
21
14.2639
0
LINE
8
BLACK
6
CONTINUOUS
10
51.1829
20
14.2639
11
51.206
21
14.2207
0
LINE
8
BLACK
6
CONTINUOUS
10
51.206
20
14.2207
11
51.2202
21
14.1738
0
LINE
8
BLACK
6
CONTINUOUS
10
51.2202
20
14.1738
11
51.225
21
14.125
0
LINE
8
BLACK
6
CONTINUOUS
10
51.225
20
14.125
11
51.225
21
12.875
0
LINE
8
BLACK
6
CONTINUOUS
10
51.225
20
12.875
11
51.2202
21
12.8262
0
LINE
8
BLACK
6
CONTINUOUS
10
51.2202
20
12.8262
11
51.206
21
12.7793
0
LINE
8
BLACK
6
CONTINUOUS
10
51.206
20
12.7793
11
51.1829
21
12.7361
0
LINE
8
BLACK
6
CONTINUOUS
10
51.1829
20
12.7361
11
51.1518
21
12.6982
0
LINE
8
BLACK
6
CONTINUOUS
10
51.1518
20
12.6982
11
51.1139
21
12.6671
0
LINE
8
BLACK
6
CONTINUOUS
10
51.1139
20
12.6671
11
51.0707
21
12.644
0
LINE
8
BLACK
6
CONTINUOUS
10
51.0707
20
12.644
11
51.0238
21
12.6298
0
LINE
8
BLACK
6
CONTINUOUS
10
51.0238
20
12.6298
11
50.975
21
12.625
0
LINE
8
BLACK
6
CONTINUOUS
10
50.975
20
12.625
11
50.05
21
12.625
0
LINE
8
BLACK
6
CONTINUOUS
10
50.05
20
12.625
11
50.0012
21
12.6298
0
LINE
8
BLACK
6
CONTINUOUS
10
50.0012
20
12.6298
11
49.9543
21
12.644
0
LINE
8
BLACK
6
CONTINUOUS
10
49.9543
20
12.644
11
49.9111
21
12.6671
0
LINE
8
BLACK
6
CONTINUOUS
10
49.9111
20
12.6671
11
49.8732
21
12.6982
0
LINE
8
BLACK
6
CONTINUOUS
10
49.8732
20
12.6982
11
49.8421
21
12.7361
0
LINE
8
BLACK
6
CONTINUOUS
10
49.8421
20
12.7361
11
49.819
21
12.7793
0
LINE
8
BLACK
6
CONTINUOUS
10
49.819
20
12.7793
11
49.8048
21
12.8262
0
LINE
8
BLACK
6
CONTINUOUS
10
49.8048
20
12.8262
11
49.8
21
12.875
0
LINE
8
BLACK
6
CONTINUOUS
10
49.8
20
12.875
11
49.8
21
14.125
0
LINE
8
BLACK
6
CONTINUOUS
10
49.8
20
14.125
11
49.8048
21
14.1738
0
LINE
8
BLACK
6
CONTINUOUS
10
49.8048
20
14.1738
11
49.819
21
14.2207
0
LINE
8
BLACK
6
CONTINUOUS
10
49.819
20
14.2207
11
49.8421
21
14.2639
0
LINE
8
BLACK
6
CONTINUOUS
10
49.8421
20
14.2639
11
49.8732
21
14.3018
0
LINE
8
BLACK
6
CONTINUOUS
10
49.8732
20
14.3018
11
49.9111
21
14.3329
0
LINE
8
BLACK
6
CONTINUOUS
10
49.9111
20
14.3329
11
49.9543
21
14.356
0
LINE
8
BLACK
6
CONTINUOUS
10
49.9543
20
14.356
11
50.0012
21
14.3702
0
LINE
8
BLACK
6
CONTINUOUS
10
50.0012
20
14.3702
11
50.05
21
14.375
0
LINE
8
BLACK
6
CONTINUOUS
10
50.05
20
14.375
11
50.975
21
14.375
0
LINE
8
BLACK
6
CONTINUOUS
10
50.975
20
14.375
11
51.0238
21
14.3702
0
LINE
8
BLACK
6
CONTINUOUS
10
8.99877
20
14.3702
11
9.04567
21
14.356
0
LINE
8
BLACK
6
CONTINUOUS
10
9.04567
20
14.356
11
9.08889
21
14.3329
0
LINE
8
BLACK
6
CONTINUOUS
10
9.08889
20
14.3329
11
9.12678
21
14.3018
0
LINE
8
BLACK
6
CONTINUOUS
10
9.12678
20
14.3018
11
9.15787
21
14.2639
0
LINE
8
BLACK
6
CONTINUOUS
10
9.15787
20
14.2639
11
9.18097
21
14.2207
0
LINE
8
BLACK
6
CONTINUOUS
10
9.18097
20
14.2207
11
9.1952
21
14.1738
0
LINE
8
BLACK
6
CONTINUOUS
10
9.1952
20
14.1738
11
9.2
21
14.125
0
LINE
8
BLACK
6
CONTINUOUS
10
9.2
20
14.125
11
9.2
21
12.875
0
LINE
8
BLACK
6
CONTINUOUS
10
9.2
20
12.875
11
9.1952
21
12.8262
0
LINE
8
BLACK
6
CONTINUOUS
10
9.1952
20
12.8262
11
9.18097
21
12.7793
0
LINE
8
BLACK
6
CONTINUOUS
10
9.18097
20
12.7793
11
9.15787
21
12.7361
0
LINE
8
BLACK
6
CONTINUOUS
10
9.15787
20
12.7361
11
9.12678
21
12.6982
0
LINE
8
BLACK
6
CONTINUOUS
10
9.12678
20
12.6982
11
9.08889
21
12.6671
0
LINE
8
BLACK
6
CONTINUOUS
10
9.08889
20
12.6671
11
9.04567
21
12.644
0
LINE
8
BLACK
6
CONTINUOUS
10
9.04567
20
12.644
11
8.99877
21
12.6298
0
LINE
8
BLACK
6
CONTINUOUS
10
8.99877
20
12.6298
11
8.95
21
12.625
0
LINE
8
BLACK
6
CONTINUOUS
10
8.95
20
12.625
11
8.025
21
12.625
0
LINE
8
BLACK
6
CONTINUOUS
10
8.025
20
12.625
11
7.97623
21
12.6298
0
LINE
8
BLACK
6
CONTINUOUS
10
7.97623
20
12.6298
11
7.92933
21
12.644
0
LINE
8
BLACK
6
CONTINUOUS
10
7.92933
20
12.644
11
7.88611
21
12.6671
0
LINE
8
BLACK
6
CONTINUOUS
10
7.88611
20
12.6671
11
7.84822
21
12.6982
0
LINE
8
BLACK
6
CONTINUOUS
10
7.84822
20
12.6982
11
7.81713
21
12.7361
0
LINE
8
BLACK
6
CONTINUOUS
10
7.81713
20
12.7361
11
7.79403
21
12.7793
0
LINE
8
BLACK
6
CONTINUOUS
10
7.79403
20
12.7793
11
7.7798
21
12.8262
0
LINE
8
BLACK
6
CONTINUOUS
10
7.7798
20
12.8262
11
7.775
21
12.875
0
LINE
8
BLACK
6
CONTINUOUS
10
7.775
20
12.875
11
7.775
21
14.125
0
LINE
8
BLACK
6
CONTINUOUS
10
7.775
20
14.125
11
7.7798
21
14.1738
0
LINE
8
BLACK
6
CONTINUOUS
10
7.7798
20
14.1738
11
7.79403
21
14.2207
0
LINE
8
BLACK
6
CONTINUOUS
10
7.79403
20
14.2207
11
7.81713
21
14.2639
0
LINE
8
BLACK
6
CONTINUOUS
10
7.81713
20
14.2639
11
7.84822
21
14.3018
0
LINE
8
BLACK
6
CONTINUOUS
10
7.84822
20
14.3018
11
7.88611
21
14.3329
0
LINE
8
BLACK
6
CONTINUOUS
10
7.88611
20
14.3329
11
7.92933
21
14.356
0
LINE
8
BLACK
6
CONTINUOUS
10
7.92933
20
14.356
11
7.97623
21
14.3702
0
LINE
8
BLACK
6
CONTINUOUS
10
7.97623
20
14.3702
11
8.025
21
14.375
0
LINE
8
BLACK
6
CONTINUOUS
10
8.025
20
14.375
11
8.95
21
14.375
0
LINE
8
BLACK
6
CONTINUOUS
10
8.95
20
14.375
11
8.99877
21
14.3702
0
LINE
8
BLACK
6
CONTINUOUS
10
6.02377
20
14.3702
11
6.07067
21
14.356
0
LINE
8
BLACK
6
CONTINUOUS
10
6.07067
20
14.356
11
6.11389
21
14.3329
0
LINE
8
BLACK
6
CONTINUOUS
10
6.11389
20
14.3329
11
6.15178
21
14.3018
0
LINE
8
BLACK
6
CONTINUOUS
10
6.15178
20
14.3018
11
6.18287
21
14.2639
0
LINE
8
BLACK
6
CONTINUOUS
10
6.18287
20
14.2639
11
6.20597
21
14.2207
0
LINE
8
BLACK
6
CONTINUOUS
10
6.20597
20
14.2207
11
6.2202
21
14.1738
0
LINE
8
BLACK
6
CONTINUOUS
10
6.2202
20
14.1738
11
6.225
21
14.125
0
LINE
8
BLACK
6
CONTINUOUS
10
6.225
20
14.125
11
6.225
21
12.875
0
LINE
8
BLACK
6
CONTINUOUS
10
6.225
20
12.875
11
6.2202
21
12.8262
0
LINE
8
BLACK
6
CONTINUOUS
10
6.2202
20
12.8262
11
6.20597
21
12.7793
0
LINE
8
BLACK
6
CONTINUOUS
10
6.20597
20
12.7793
11
6.18287
21
12.7361
0
LINE
8
BLACK
6
CONTINUOUS
10
6.18287
20
12.7361
11
6.15178
21
12.6982
0
LINE
8
BLACK
6
CONTINUOUS
10
6.15178
20
12.6982
11
6.11389
21
12.6671
0
LINE
8
BLACK
6
CONTINUOUS
10
6.11389
20
12.6671
11
6.07067
21
12.644
0
LINE
8
BLACK
6
CONTINUOUS
10
6.07067
20
12.644
11
6.02377
21
12.6298
0
LINE
8
BLACK
6
CONTINUOUS
10
6.02377
20
12.6298
11
5.975
21
12.625
0
LINE
8
BLACK
6
CONTINUOUS
10
5.975
20
12.625
11
5.05
21
12.625
0
LINE
8
BLACK
6
CONTINUOUS
10
5.05
20
12.625
11
5.00123
21
12.6298
0
LINE
8
BLACK
6
CONTINUOUS
10
5.00123
20
12.6298
11
4.95433
21
12.644
0
LINE
8
BLACK
6
CONTINUOUS
10
4.95433
20
12.644
11
4.91111
21
12.6671
0
LINE
8
BLACK
6
CONTINUOUS
10
4.91111
20
12.6671
11
4.87322
21
12.6982
0
LINE
8
BLACK
6
CONTINUOUS
10
4.87322
20
12.6982
11
4.84213
21
12.7361
0
LINE
8
BLACK
6
CONTINUOUS
10
4.84213
20
12.7361
11
4.81903
21
12.7793
0
LINE
8
BLACK
6
CONTINUOUS
10
4.81903
20
12.7793
11
4.8048
21
12.8262
0
LINE
8
BLACK
6
CONTINUOUS
10
4.8048
20
12.8262
11
4.8
21
12.875
0
LINE
8
BLACK
6
CONTINUOUS
10
4.8
20
12.875
11
4.8
21
14.125
0
LINE
8
BLACK
6
CONTINUOUS
10
4.8
20
14.125
11
4.8048
21
14.1738
0
LINE
8
BLACK
6
CONTINUOUS
10
4.8048
20
14.1738
11
4.81903
21
14.2207
0
LINE
8
BLACK
6
CONTINUOUS
10
4.81903
20
14.2207
11
4.84213
21
14.2639
0
LINE
8
BLACK
6
CONTINUOUS
10
4.84213
20
14.2639
11
4.87322
21
14.3018
0
LINE
8
BLACK
6
CONTINUOUS
10
4.87322
20
14.3018
11
4.91111
21
14.3329
0
LINE
8
BLACK
6
CONTINUOUS
10
4.91111
20
14.3329
11
4.95433
21
14.356
0
LINE
8
BLACK
6
CONTINUOUS
10
4.95433
20
14.356
11
5.00123
21
14.3702
0
LINE
8
BLACK
6
CONTINUOUS
10
5.00123
20
14.3702
11
5.05
21
14.375
0
LINE
8
BLACK
6
CONTINUOUS
10
5.05
20
14.375
11
5.975
21
14.375
0
LINE
8
BLACK
6
CONTINUOUS
10
5.975
20
14.375
11
6.02377
21
14.3702
0
LINE
8
BLACK
6
CONTINUOUS
10
23.5738
20
14.5202
11
23.6207
21
14.506
0
LINE
8
BLACK
6
CONTINUOUS
10
23.6207
20
14.506
11
23.6639
21
14.4829
0
LINE
8
BLACK
6
CONTINUOUS
10
23.6639
20
14.4829
11
23.7018
21
14.4518
0
LINE
8
BLACK
6
CONTINUOUS
10
23.7018
20
14.4518
11
23.7329
21
14.4139
0
LINE
8
BLACK
6
CONTINUOUS
10
23.7329
20
14.4139
11
23.756
21
14.3707
0
LINE
8
BLACK
6
CONTINUOUS
10
23.756
20
14.3707
11
23.7702
21
14.3238
0
LINE
8
BLACK
6
CONTINUOUS
10
23.7702
20
14.3238
11
23.775
21
14.275
0
LINE
8
BLACK
6
CONTINUOUS
10
23.775
20
14.275
11
23.775
21
13.35
0
LINE
8
BLACK
6
CONTINUOUS
10
23.775
20
13.35
11
23.7702
21
13.3012
0
LINE
8
BLACK
6
CONTINUOUS
10
23.7702
20
13.3012
11
23.756
21
13.2543
0
LINE
8
BLACK
6
CONTINUOUS
10
23.756
20
13.2543
11
23.7329
21
13.2111
0
LINE
8
BLACK
6
CONTINUOUS
10
23.7329
20
13.2111
11
23.7018
21
13.1732
0
LINE
8
BLACK
6
CONTINUOUS
10
23.7018
20
13.1732
11
23.6639
21
13.1421
0
LINE
8
BLACK
6
CONTINUOUS
10
23.6639
20
13.1421
11
23.6207
21
13.119
0
LINE
8
BLACK
6
CONTINUOUS
10
23.6207
20
13.119
11
23.5738
21
13.1048
0
LINE
8
BLACK
6
CONTINUOUS
10
23.5738
20
13.1048
11
23.525
21
13.1
0
LINE
8
BLACK
6
CONTINUOUS
10
23.525
20
13.1
11
22.275
21
13.1
0
LINE
8
BLACK
6
CONTINUOUS
10
22.275
20
13.1
11
22.2262
21
13.1048
0
LINE
8
BLACK
6
CONTINUOUS
10
22.2262
20
13.1048
11
22.1793
21
13.119
0
LINE
8
BLACK
6
CONTINUOUS
10
22.1793
20
13.119
11
22.1361
21
13.1421
0
LINE
8
BLACK
6
CONTINUOUS
10
22.1361
20
13.1421
11
22.0982
21
13.1732
0
LINE
8
BLACK
6
CONTINUOUS
10
22.0982
20
13.1732
11
22.0671
21
13.2111
0
LINE
8
BLACK
6
CONTINUOUS
10
22.0671
20
13.2111
11
22.044
21
13.2543
0
LINE
8
BLACK
6
CONTINUOUS
10
22.044
20
13.2543
11
22.0298
21
13.3012
0
LINE
8
BLACK
6
CONTINUOUS
10
22.0298
20
13.3012
11
22.025
21
13.35
0
LINE
8
BLACK
6
CONTINUOUS
10
22.025
20
13.35
11
22.025
21
14.275
0
LINE
8
BLACK
6
CONTINUOUS
10
22.025
20
14.275
11
22.0298
21
14.3238
0
LINE
8
BLACK
6
CONTINUOUS
10
22.0298
20
14.3238
11
22.044
21
14.3707
0
LINE
8
BLACK
6
CONTINUOUS
10
22.044
20
14.3707
11
22.0671
21
14.4139
0
LINE
8
BLACK
6
CONTINUOUS
10
22.0671
20
14.4139
11
22.0982
21
14.4518
0
LINE
8
BLACK
6
CONTINUOUS
10
22.0982
20
14.4518
11
22.1361
21
14.4829
0
LINE
8
BLACK
6
CONTINUOUS
10
22.1361
20
14.4829
11
22.1793
21
14.506
0
LINE
8
BLACK
6
CONTINUOUS
10
22.1793
20
14.506
11
22.2262
21
14.5202
0
LINE
8
BLACK
6
CONTINUOUS
10
22.2262
20
14.5202
11
22.275
21
14.525
0
LINE
8
BLACK
6
CONTINUOUS
10
22.275
20
14.525
11
23.525
21
14.525
0
LINE
8
BLACK
6
CONTINUOUS
10
23.525
20
14.525
11
23.5738
21
14.5202
0
LINE
8
BLACK
6
CONTINUOUS
10
5.55
20
15.65
11
2.55
21
15.65
0
LINE
8
BLACK
6
CONTINUOUS
10
2.55
20
15.65
11
2.55
21
17.15
0
LINE
8
BLACK
6
CONTINUOUS
10
2.55
20
17.15
11
5.55
21
17.15
0
LINE
8
BLACK
6
CONTINUOUS
10
5.55
20
17.15
11
5.55
21
15.65
0
LINE
8
BLACK
6
CONTINUOUS
10
11.45
20
15.65
11
8.45
21
15.65
0
LINE
8
BLACK
6
CONTINUOUS
10
8.45
20
15.65
11
8.45
21
17.15
0
LINE
8
BLACK
6
CONTINUOUS
10
8.45
20
17.15
11
11.45
21
17.15
0
LINE
8
BLACK
6
CONTINUOUS
10
11.45
20
17.15
11
11.45
21
15.65
0
LINE
8
BLACK
6
CONTINUOUS
10
56.45
20
15.65
11
53.45
21
15.65
0
LINE
8
BLACK
6
CONTINUOUS
10
53.45
20
15.65
11
53.45
21
17.15
0
LINE
8
BLACK
6
CONTINUOUS
10
53.45
20
17.15
11
56.45
21
17.15
0
LINE
8
BLACK
6
CONTINUOUS
10
56.45
20
17.15
11
56.45
21
15.65
0
LINE
8
BLACK
6
CONTINUOUS
10
50.55
20
15.65
11
47.55
21
15.65
0
LINE
8
BLACK
6
CONTINUOUS
10
47.55
20
15.65
11
47.55
21
17.15
0
LINE
8
BLACK
6
CONTINUOUS
10
47.55
20
17.15
11
50.55
21
17.15
0
LINE
8
BLACK
6
CONTINUOUS
10
50.55
20
17.15
11
50.55
21
15.65
0
LINE
8
BLACK
6
CONTINUOUS
10
23.5738
20
17.4952
11
23.6207
21
17.481
0
LINE
8
BLACK
6
CONTINUOUS
10
23.6207
20
17.481
11
23.6639
21
17.4579
0
LINE
8
BLACK
6
CONTINUOUS
10
23.6639
20
17.4579
11
23.7018
21
17.4268
0
LINE
8
BLACK
6
CONTINUOUS
10
23.7018
20
17.4268
11
23.7329
21
17.3889
0
LINE
8
BLACK
6
CONTINUOUS
10
23.7329
20
17.3889
11
23.756
21
17.3457
0
LINE
8
BLACK
6
CONTINUOUS
10
23.756
20
17.3457
11
23.7702
21
17.2988
0
LINE
8
BLACK
6
CONTINUOUS
10
23.7702
20
17.2988
11
23.775
21
17.25
0
LINE
8
BLACK
6
CONTINUOUS
10
23.775
20
17.25
11
23.775
21
16.325
0
LINE
8
BLACK
6
CONTINUOUS
10
23.775
20
16.325
11
23.7702
21
16.2762
0
LINE
8
BLACK
6
CONTINUOUS
10
23.7702
20
16.2762
11
23.756
21
16.2293
0
LINE
8
BLACK
6
CONTINUOUS
10
23.756
20
16.2293
11
23.7329
21
16.1861
0
LINE
8
BLACK
6
CONTINUOUS
10
23.7329
20
16.1861
11
23.7018
21
16.1482
0
LINE
8
BLACK
6
CONTINUOUS
10
23.7018
20
16.1482
11
23.6639
21
16.1171
0
LINE
8
BLACK
6
CONTINUOUS
10
23.6639
20
16.1171
11
23.6207
21
16.094
0
LINE
8
BLACK
6
CONTINUOUS
10
23.6207
20
16.094
11
23.5738
21
16.0798
0
LINE
8
BLACK
6
CONTINUOUS
10
23.5738
20
16.0798
11
23.525
21
16.075
0
LINE
8
BLACK
6
CONTINUOUS
10
23.525
20
16.075
11
22.275
21
16.075
0
LINE
8
BLACK
6
CONTINUOUS
10
22.275
20
16.075
11
22.2262
21
16.0798
0
LINE
8
BLACK
6
CONTINUOUS
10
22.2262
20
16.0798
11
22.1793
21
16.094
0
LINE
8
BLACK
6
CONTINUOUS
10
22.1793
20
16.094
11
22.1361
21
16.1171
0
LINE
8
BLACK
6
CONTINUOUS
10
22.1361
20
16.1171
11
22.0982
21
16.1482
0
LINE
8
BLACK
6
CONTINUOUS
10
22.0982
20
16.1482
11
22.0671
21
16.1861
0
LINE
8
BLACK
6
CONTINUOUS
10
22.0671
20
16.1861
11
22.044
21
16.2293
0
LINE
8
BLACK
6
CONTINUOUS
10
22.044
20
16.2293
11
22.0298
21
16.2762
0
LINE
8
BLACK
6
CONTINUOUS
10
22.0298
20
16.2762
11
22.025
21
16.325
0
LINE
8
BLACK
6
CONTINUOUS
10
22.025
20
16.325
11
22.025
21
17.25
0
LINE
8
BLACK
6
CONTINUOUS
10
22.025
20
17.25
11
22.0298
21
17.2988
0
LINE
8
BLACK
6
CONTINUOUS
10
22.0298
20
17.2988
11
22.044
21
17.3457
0
LINE
8
BLACK
6
CONTINUOUS
10
22.044
20
17.3457
11
22.0671
21
17.3889
0
LINE
8
BLACK
6
CONTINUOUS
10
22.0671
20
17.3889
11
22.0982
21
17.4268
0
LINE
8
BLACK
6
CONTINUOUS
10
22.0982
20
17.4268
11
22.1361
21
17.4579
0
LINE
8
BLACK
6
CONTINUOUS
10
22.1361
20
17.4579
11
22.1793
21
17.481
0
LINE
8
BLACK
6
CONTINUOUS
10
22.1793
20
17.481
11
22.2262
21
17.4952
0
LINE
8
BLACK
6
CONTINUOUS
10
22.2262
20
17.4952
11
22.275
21
17.5
0
LINE
8
BLACK
6
CONTINUOUS
10
22.275
20
17.5
11
23.525
21
17.5
0
LINE
8
BLACK
6
CONTINUOUS
10
23.525
20
17.5
11
23.5738
21
17.4952
0
LINE
8
BLACK
6
CONTINUOUS
10
29.0443
20
18.6471
11
29.0724
21
18.6386
0
LINE
8
BLACK
6
CONTINUOUS
10
29.0724
20
18.6386
11
29.0983
21
18.6247
0
LINE
8
BLACK
6
CONTINUOUS
10
29.0983
20
18.6247
11
29.1211
21
18.6061
0
LINE
8
BLACK
6
CONTINUOUS
10
29.1211
20
18.6061
11
29.1397
21
18.5833
0
LINE
8
BLACK
6
CONTINUOUS
10
29.1397
20
18.5833
11
29.1536
21
18.5574
0
LINE
8
BLACK
6
CONTINUOUS
10
29.1536
20
18.5574
11
29.1621
21
18.5293
0
LINE
8
BLACK
6
CONTINUOUS
10
29.1621
20
18.5293
11
29.165
21
18.5
0
LINE
8
BLACK
6
CONTINUOUS
10
29.165
20
18.5
11
29.165
21
16.85
0
LINE
8
BLACK
6
CONTINUOUS
10
29.165
20
16.85
11
29.1621
21
16.8207
0
LINE
8
BLACK
6
CONTINUOUS
10
29.1621
20
16.8207
11
29.1536
21
16.7926
0
LINE
8
BLACK
6
CONTINUOUS
10
29.1536
20
16.7926
11
29.1397
21
16.7667
0
LINE
8
BLACK
6
CONTINUOUS
10
29.1397
20
16.7667
11
29.1211
21
16.7439
0
LINE
8
BLACK
6
CONTINUOUS
10
29.1211
20
16.7439
11
29.0983
21
16.7253
0
LINE
8
BLACK
6
CONTINUOUS
10
29.0983
20
16.7253
11
29.0724
21
16.7114
0
LINE
8
BLACK
6
CONTINUOUS
10
29.0724
20
16.7114
11
29.0443
21
16.7029
0
LINE
8
BLACK
6
CONTINUOUS
10
29.0443
20
16.7029
11
29.015
21
16.7
0
LINE
8
BLACK
6
CONTINUOUS
10
29.015
20
16.7
11
28.715
21
16.7
0
LINE
8
BLACK
6
CONTINUOUS
10
28.715
20
16.7
11
28.6857
21
16.7029
0
LINE
8
BLACK
6
CONTINUOUS
10
28.6857
20
16.7029
11
28.6576
21
16.7114
0
LINE
8
BLACK
6
CONTINUOUS
10
28.6576
20
16.7114
11
28.6317
21
16.7253
0
LINE
8
BLACK
6
CONTINUOUS
10
28.6317
20
16.7253
11
28.6089
21
16.7439
0
LINE
8
BLACK
6
CONTINUOUS
10
28.6089
20
16.7439
11
28.5903
21
16.7667
0
LINE
8
BLACK
6
CONTINUOUS
10
28.5903
20
16.7667
11
28.5764
21
16.7926
0
LINE
8
BLACK
6
CONTINUOUS
10
28.5764
20
16.7926
11
28.5679
21
16.8207
0
LINE
8
BLACK
6
CONTINUOUS
10
28.5679
20
16.8207
11
28.565
21
16.85
0
LINE
8
BLACK
6
CONTINUOUS
10
28.565
20
16.85
11
28.565
21
18.5
0
LINE
8
BLACK
6
CONTINUOUS
10
28.565
20
18.5
11
28.5679
21
18.5293
0
LINE
8
BLACK
6
CONTINUOUS
10
28.5679
20
18.5293
11
28.5764
21
18.5574
0
LINE
8
BLACK
6
CONTINUOUS
10
28.5764
20
18.5574
11
28.5903
21
18.5833
0
LINE
8
BLACK
6
CONTINUOUS
10
28.5903
20
18.5833
11
28.6089
21
18.6061
0
LINE
8
BLACK
6
CONTINUOUS
10
28.6089
20
18.6061
11
28.6317
21
18.6247
0
LINE
8
BLACK
6
CONTINUOUS
10
28.6317
20
18.6247
11
28.6576
21
18.6386
0
LINE
8
BLACK
6
CONTINUOUS
10
28.6576
20
18.6386
11
28.6857
21
18.6471
0
LINE
8
BLACK
6
CONTINUOUS
10
28.6857
20
18.6471
11
28.715
21
18.65
0
LINE
8
BLACK
6
CONTINUOUS
10
28.715
20
18.65
11
29.015
21
18.65
0
LINE
8
BLACK
6
CONTINUOUS
10
29.015
20
18.65
11
29.0443
21
18.6471
0
LINE
8
BLACK
6
CONTINUOUS
10
27.7743
20
18.6471
11
27.8024
21
18.6386
0
LINE
8
BLACK
6
CONTINUOUS
10
27.8024
20
18.6386
11
27.8283
21
18.6247
0
LINE
8
BLACK
6
CONTINUOUS
10
27.8283
20
18.6247
11
27.8511
21
18.6061
0
LINE
8
BLACK
6
CONTINUOUS
10
27.8511
20
18.6061
11
27.8697
21
18.5833
0
LINE
8
BLACK
6
CONTINUOUS
10
27.8697
20
18.5833
11
27.8836
21
18.5574
0
LINE
8
BLACK
6
CONTINUOUS
10
27.8836
20
18.5574
11
27.8921
21
18.5293
0
LINE
8
BLACK
6
CONTINUOUS
10
27.8921
20
18.5293
11
27.895
21
18.5
0
LINE
8
BLACK
6
CONTINUOUS
10
27.895
20
18.5
11
27.895
21
16.85
0
LINE
8
BLACK
6
CONTINUOUS
10
27.895
20
16.85
11
27.8921
21
16.8207
0
LINE
8
BLACK
6
CONTINUOUS
10
27.8921
20
16.8207
11
27.8836
21
16.7926
0
LINE
8
BLACK
6
CONTINUOUS
10
27.8836
20
16.7926
11
27.8697
21
16.7667
0
LINE
8
BLACK
6
CONTINUOUS
10
27.8697
20
16.7667
11
27.8511
21
16.7439
0
LINE
8
BLACK
6
CONTINUOUS
10
27.8511
20
16.7439
11
27.8283
21
16.7253
0
LINE
8
BLACK
6
CONTINUOUS
10
27.8283
20
16.7253
11
27.8024
21
16.7114
0
LINE
8
BLACK
6
CONTINUOUS
10
27.8024
20
16.7114
11
27.7743
21
16.7029
0
LINE
8
BLACK
6
CONTINUOUS
10
27.7743
20
16.7029
11
27.745
21
16.7
0
LINE
8
BLACK
6
CONTINUOUS
10
27.745
20
16.7
11
27.445
21
16.7
0
LINE
8
BLACK
6
CONTINUOUS
10
27.445
20
16.7
11
27.4157
21
16.7029
0
LINE
8
BLACK
6
CONTINUOUS
10
27.4157
20
16.7029
11
27.3876
21
16.7114
0
LINE
8
BLACK
6
CONTINUOUS
10
27.3876
20
16.7114
11
27.3617
21
16.7253
0
LINE
8
BLACK
6
CONTINUOUS
10
27.3617
20
16.7253
11
27.3389
21
16.7439
0
LINE
8
BLACK
6
CONTINUOUS
10
27.3389
20
16.7439
11
27.3203
21
16.7667
0
LINE
8
BLACK
6
CONTINUOUS
10
27.3203
20
16.7667
11
27.3064
21
16.7926
0
LINE
8
BLACK
6
CONTINUOUS
10
27.3064
20
16.7926
11
27.2979
21
16.8207
0
LINE
8
BLACK
6
CONTINUOUS
10
27.2979
20
16.8207
11
27.295
21
16.85
0
LINE
8
BLACK
6
CONTINUOUS
10
27.295
20
16.85
11
27.295
21
18.5
0
LINE
8
BLACK
6
CONTINUOUS
10
27.295
20
18.5
11
27.2979
21
18.5293
0
LINE
8
BLACK
6
CONTINUOUS
10
27.2979
20
18.5293
11
27.3064
21
18.5574
0
LINE
8
BLACK
6
CONTINUOUS
10
27.3064
20
18.5574
11
27.3203
21
18.5833
0
LINE
8
BLACK
6
CONTINUOUS
10
27.3203
20
18.5833
11
27.3389
21
18.6061
0
LINE
8
BLACK
6
CONTINUOUS
10
27.3389
20
18.6061
11
27.3617
21
18.6247
0
LINE
8
BLACK
6
CONTINUOUS
10
27.3617
20
18.6247
11
27.3876
21
18.6386
0
LINE
8
BLACK
6
CONTINUOUS
10
27.3876
20
18.6386
11
27.4157
21
18.6471
0
LINE
8
BLACK
6
CONTINUOUS
10
27.4157
20
18.6471
11
27.445
21
18.65
0
LINE
8
BLACK
6
CONTINUOUS
10
27.445
20
18.65
11
27.745
21
18.65
0
LINE
8
BLACK
6
CONTINUOUS
10
27.745
20
18.65
11
27.7743
21
18.6471
0
LINE
8
BLACK
6
CONTINUOUS
10
26.5043
20
18.6471
11
26.5324
21
18.6386
0
LINE
8
BLACK
6
CONTINUOUS
10
26.5324
20
18.6386
11
26.5583
21
18.6247
0
LINE
8
BLACK
6
CONTINUOUS
10
26.5583
20
18.6247
11
26.5811
21
18.6061
0
LINE
8
BLACK
6
CONTINUOUS
10
26.5811
20
18.6061
11
26.5997
21
18.5833
0
LINE
8
BLACK
6
CONTINUOUS
10
26.5997
20
18.5833
11
26.6136
21
18.5574
0
LINE
8
BLACK
6
CONTINUOUS
10
26.6136
20
18.5574
11
26.6221
21
18.5293
0
LINE
8
BLACK
6
CONTINUOUS
10
26.6221
20
18.5293
11
26.625
21
18.5
0
LINE
8
BLACK
6
CONTINUOUS
10
26.625
20
18.5
11
26.625
21
16.85
0
LINE
8
BLACK
6
CONTINUOUS
10
26.625
20
16.85
11
26.6221
21
16.8207
0
LINE
8
BLACK
6
CONTINUOUS
10
26.6221
20
16.8207
11
26.6136
21
16.7926
0
LINE
8
BLACK
6
CONTINUOUS
10
26.6136
20
16.7926
11
26.5997
21
16.7667
0
LINE
8
BLACK
6
CONTINUOUS
10
26.5997
20
16.7667
11
26.5811
21
16.7439
0
LINE
8
BLACK
6
CONTINUOUS
10
26.5811
20
16.7439
11
26.5583
21
16.7253
0
LINE
8
BLACK
6
CONTINUOUS
10
26.5583
20
16.7253
11
26.5324
21
16.7114
0
LINE
8
BLACK
6
CONTINUOUS
10
26.5324
20
16.7114
11
26.5043
21
16.7029
0
LINE
8
BLACK
6
CONTINUOUS
10
26.5043
20
16.7029
11
26.475
21
16.7
0
LINE
8
BLACK
6
CONTINUOUS
10
26.475
20
16.7
11
26.175
21
16.7
0
LINE
8
BLACK
6
CONTINUOUS
10
26.175
20
16.7
11
26.1457
21
16.7029
0
LINE
8
BLACK
6
CONTINUOUS
10
26.1457
20
16.7029
11
26.1176
21
16.7114
0
LINE
8
BLACK
6
CONTINUOUS
10
26.1176
20
16.7114
11
26.0917
21
16.7253
0
LINE
8
BLACK
6
CONTINUOUS
10
26.0917
20
16.7253
11
26.0689
21
16.7439
0
LINE
8
BLACK
6
CONTINUOUS
10
26.0689
20
16.7439
11
26.0503
21
16.7667
0
LINE
8
BLACK
6
CONTINUOUS
10
26.0503
20
16.7667
11
26.0364
21
16.7926
0
LINE
8
BLACK
6
CONTINUOUS
10
26.0364
20
16.7926
11
26.0279
21
16.8207
0
LINE
8
BLACK
6
CONTINUOUS
10
26.0279
20
16.8207
11
26.025
21
16.85
0
LINE
8
BLACK
6
CONTINUOUS
10
26.025
20
16.85
11
26.025
21
18.5
0
LINE
8
BLACK
6
CONTINUOUS
10
26.025
20
18.5
11
26.0279
21
18.5293
0
LINE
8
BLACK
6
CONTINUOUS
10
26.0279
20
18.5293
11
26.0364
21
18.5574
0
LINE
8
BLACK
6
CONTINUOUS
10
26.0364
20
18.5574
11
26.0503
21
18.5833
0
LINE
8
BLACK
6
CONTINUOUS
10
26.0503
20
18.5833
11
26.0689
21
18.6061
0
LINE
8
BLACK
6
CONTINUOUS
10
26.0689
20
18.6061
11
26.0917
21
18.6247
0
LINE
8
BLACK
6
CONTINUOUS
10
26.0917
20
18.6247
11
26.1176
21
18.6386
0
LINE
8
BLACK
6
CONTINUOUS
10
26.1176
20
18.6386
11
26.1457
21
18.6471
0
LINE
8
BLACK
6
CONTINUOUS
10
26.1457
20
18.6471
11
26.175
21
18.65
0
LINE
8
BLACK
6
CONTINUOUS
10
26.175
20
18.65
11
26.475
21
18.65
0
LINE
8
BLACK
6
CONTINUOUS
10
26.475
20
18.65
11
26.5043
21
18.6471
0
LINE
8
BLACK
6
CONTINUOUS
10
25.2343
20
18.6471
11
25.2624
21
18.6386
0
LINE
8
BLACK
6
CONTINUOUS
10
25.2624
20
18.6386
11
25.2883
21
18.6247
0
LINE
8
BLACK
6
CONTINUOUS
10
25.2883
20
18.6247
11
25.3111
21
18.6061
0
LINE
8
BLACK
6
CONTINUOUS
10
25.3111
20
18.6061
11
25.3297
21
18.5833
0
LINE
8
BLACK
6
CONTINUOUS
10
25.3297
20
18.5833
11
25.3436
21
18.5574
0
LINE
8
BLACK
6
CONTINUOUS
10
25.3436
20
18.5574
11
25.3521
21
18.5293
0
LINE
8
BLACK
6
CONTINUOUS
10
25.3521
20
18.5293
11
25.355
21
18.5
0
LINE
8
BLACK
6
CONTINUOUS
10
25.355
20
18.5
11
25.355
21
16.85
0
LINE
8
BLACK
6
CONTINUOUS
10
25.355
20
16.85
11
25.3521
21
16.8207
0
LINE
8
BLACK
6
CONTINUOUS
10
25.3521
20
16.8207
11
25.3436
21
16.7926
0
LINE
8
BLACK
6
CONTINUOUS
10
25.3436
20
16.7926
11
25.3297
21
16.7667
0
LINE
8
BLACK
6
CONTINUOUS
10
25.3297
20
16.7667
11
25.3111
21
16.7439
0
LINE
8
BLACK
6
CONTINUOUS
10
25.3111
20
16.7439
11
25.2883
21
16.7253
0
LINE
8
BLACK
6
CONTINUOUS
10
25.2883
20
16.7253
11
25.2624
21
16.7114
0
LINE
8
BLACK
6
CONTINUOUS
10
25.2624
20
16.7114
11
25.2343
21
16.7029
0
LINE
8
BLACK
6
CONTINUOUS
10
25.2343
20
16.7029
11
25.205
21
16.7
0
LINE
8
BLACK
6
CONTINUOUS
10
25.205
20
16.7
11
24.905
21
16.7
0
LINE
8
BLACK
6
CONTINUOUS
10
24.905
20
16.7
11
24.8757
21
16.7029
0
LINE
8
BLACK
6
CONTINUOUS
10
24.8757
20
16.7029
11
24.8476
21
16.7114
0
LINE
8
BLACK
6
CONTINUOUS
10
24.8476
20
16.7114
11
24.8217
21
16.7253
0
LINE
8
BLACK
6
CONTINUOUS
10
24.8217
20
16.7253
11
24.7989
21
16.7439
0
LINE
8
BLACK
6
CONTINUOUS
10
24.7989
20
16.7439
11
24.7803
21
16.7667
0
LINE
8
BLACK
6
CONTINUOUS
10
24.7803
20
16.7667
11
24.7664
21
16.7926
0
LINE
8
BLACK
6
CONTINUOUS
10
24.7664
20
16.7926
11
24.7579
21
16.8207
0
LINE
8
BLACK
6
CONTINUOUS
10
24.7579
20
16.8207
11
24.755
21
16.85
0
LINE
8
BLACK
6
CONTINUOUS
10
24.755
20
16.85
11
24.755
21
18.5
0
LINE
8
BLACK
6
CONTINUOUS
10
24.755
20
18.5
11
24.7579
21
18.5293
0
LINE
8
BLACK
6
CONTINUOUS
10
24.7579
20
18.5293
11
24.7664
21
18.5574
0
LINE
8
BLACK
6
CONTINUOUS
10
24.7664
20
18.5574
11
24.7803
21
18.5833
0
LINE
8
BLACK
6
CONTINUOUS
10
24.7803
20
18.5833
11
24.7989
21
18.6061
0
LINE
8
BLACK
6
CONTINUOUS
10
24.7989
20
18.6061
11
24.8217
21
18.6247
0
LINE
8
BLACK
6
CONTINUOUS
10
24.8217
20
18.6247
11
24.8476
21
18.6386
0
LINE
8
BLACK
6
CONTINUOUS
10
24.8476
20
18.6386
11
24.8757
21
18.6471
0
LINE
8
BLACK
6
CONTINUOUS
10
24.8757
20
18.6471
11
24.905
21
18.65
0
LINE
8
BLACK
6
CONTINUOUS
10
24.905
20
18.65
11
25.205
21
18.65
0
LINE
8
BLACK
6
CONTINUOUS
10
25.205
20
18.65
11
25.2343
21
18.6471
0
LINE
8
BLACK
6
CONTINUOUS
10
30.3143
20
18.6471
11
30.3424
21
18.6386
0
LINE
8
BLACK
6
CONTINUOUS
10
30.3424
20
18.6386
11
30.3683
21
18.6247
0
LINE
8
BLACK
6
CONTINUOUS
10
30.3683
20
18.6247
11
30.3911
21
18.6061
0
LINE
8
BLACK
6
CONTINUOUS
10
30.3911
20
18.6061
11
30.4097
21
18.5833
0
LINE
8
BLACK
6
CONTINUOUS
10
30.4097
20
18.5833
11
30.4236
21
18.5574
0
LINE
8
BLACK
6
CONTINUOUS
10
30.4236
20
18.5574
11
30.4321
21
18.5293
0
LINE
8
BLACK
6
CONTINUOUS
10
30.4321
20
18.5293
11
30.435
21
18.5
0
LINE
8
BLACK
6
CONTINUOUS
10
30.435
20
18.5
11
30.435
21
16.85
0
LINE
8
BLACK
6
CONTINUOUS
10
30.435
20
16.85
11
30.4321
21
16.8207
0
LINE
8
BLACK
6
CONTINUOUS
10
30.4321
20
16.8207
11
30.4236
21
16.7926
0
LINE
8
BLACK
6
CONTINUOUS
10
30.4236
20
16.7926
11
30.4097
21
16.7667
0
LINE
8
BLACK
6
CONTINUOUS
10
30.4097
20
16.7667
11
30.3911
21
16.7439
0
LINE
8
BLACK
6
CONTINUOUS
10
30.3911
20
16.7439
11
30.3683
21
16.7253
0
LINE
8
BLACK
6
CONTINUOUS
10
30.3683
20
16.7253
11
30.3424
21
16.7114
0
LINE
8
BLACK
6
CONTINUOUS
10
30.3424
20
16.7114
11
30.3143
21
16.7029
0
LINE
8
BLACK
6
CONTINUOUS
10
30.3143
20
16.7029
11
30.285
21
16.7
0
LINE
8
BLACK
6
CONTINUOUS
10
30.285
20
16.7
11
29.985
21
16.7
0
LINE
8
BLACK
6
CONTINUOUS
10
29.985
20
16.7
11
29.9557
21
16.7029
0
LINE
8
BLACK
6
CONTINUOUS
10
29.9557
20
16.7029
11
29.9276
21
16.7114
0
LINE
8
BLACK
6
CONTINUOUS
10
29.9276
20
16.7114
11
29.9017
21
16.7253
0
LINE
8
BLACK
6
CONTINUOUS
10
29.9017
20
16.7253
11
29.8789
21
16.7439
0
LINE
8
BLACK
6
CONTINUOUS
10
29.8789
20
16.7439
11
29.8603
21
16.7667
0
LINE
8
BLACK
6
CONTINUOUS
10
29.8603
20
16.7667
11
29.8464
21
16.7926
0
LINE
8
BLACK
6
CONTINUOUS
10
29.8464
20
16.7926
11
29.8379
21
16.8207
0
LINE
8
BLACK
6
CONTINUOUS
10
29.8379
20
16.8207
11
29.835
21
16.85
0
LINE
8
BLACK
6
CONTINUOUS
10
29.835
20
16.85
11
29.835
21
18.5
0
LINE
8
BLACK
6
CONTINUOUS
10
29.835
20
18.5
11
29.8379
21
18.5293
0
LINE
8
BLACK
6
CONTINUOUS
10
29.8379
20
18.5293
11
29.8464
21
18.5574
0
LINE
8
BLACK
6
CONTINUOUS
10
29.8464
20
18.5574
11
29.8603
21
18.5833
0
LINE
8
BLACK
6
CONTINUOUS
10
29.8603
20
18.5833
11
29.8789
21
18.6061
0
LINE
8
BLACK
6
CONTINUOUS
10
29.8789
20
18.6061
11
29.9017
21
18.6247
0
LINE
8
BLACK
6
CONTINUOUS
10
29.9017
20
18.6247
11
29.9276
21
18.6386
0
LINE
8
BLACK
6
CONTINUOUS
10
29.9276
20
18.6386
11
29.9557
21
18.6471
0
LINE
8
BLACK
6
CONTINUOUS
10
29.9557
20
18.6471
11
29.985
21
18.65
0
LINE
8
BLACK
6
CONTINUOUS
10
29.985
20
18.65
11
30.285
21
18.65
0
LINE
8
BLACK
6
CONTINUOUS
10
30.285
20
18.65
11
30.3143
21
18.6471
0
LINE
8
BLACK
6
CONTINUOUS
10
31.5843
20
18.6471
11
31.6124
21
18.6386
0
LINE
8
BLACK
6
CONTINUOUS
10
31.6124
20
18.6386
11
31.6383
21
18.6247
0
LINE
8
BLACK
6
CONTINUOUS
10
31.6383
20
18.6247
11
31.6611
21
18.6061
0
LINE
8
BLACK
6
CONTINUOUS
10
31.6611
20
18.6061
11
31.6797
21
18.5833
0
LINE
8
BLACK
6
CONTINUOUS
10
31.6797
20
18.5833
11
31.6936
21
18.5574
0
LINE
8
BLACK
6
CONTINUOUS
10
31.6936
20
18.5574
11
31.7021
21
18.5293
0
LINE
8
BLACK
6
CONTINUOUS
10
31.7021
20
18.5293
11
31.705
21
18.5
0
LINE
8
BLACK
6
CONTINUOUS
10
31.705
20
18.5
11
31.705
21
16.85
0
LINE
8
BLACK
6
CONTINUOUS
10
31.705
20
16.85
11
31.7021
21
16.8207
0
LINE
8
BLACK
6
CONTINUOUS
10
31.7021
20
16.8207
11
31.6936
21
16.7926
0
LINE
8
BLACK
6
CONTINUOUS
10
31.6936
20
16.7926
11
31.6797
21
16.7667
0
LINE
8
BLACK
6
CONTINUOUS
10
31.6797
20
16.7667
11
31.6611
21
16.7439
0
LINE
8
BLACK
6
CONTINUOUS
10
31.6611
20
16.7439
11
31.6383
21
16.7253
0
LINE
8
BLACK
6
CONTINUOUS
10
31.6383
20
16.7253
11
31.6124
21
16.7114
0
LINE
8
BLACK
6
CONTINUOUS
10
31.6124
20
16.7114
11
31.5843
21
16.7029
0
LINE
8
BLACK
6
CONTINUOUS
10
31.5843
20
16.7029
11
31.555
21
16.7
0
LINE
8
BLACK
6
CONTINUOUS
10
31.555
20
16.7
11
31.255
21
16.7
0
LINE
8
BLACK
6
CONTINUOUS
10
31.255
20
16.7
11
31.2257
21
16.7029
0
LINE
8
BLACK
6
CONTINUOUS
10
31.2257
20
16.7029
11
31.1976
21
16.7114
0
LINE
8
BLACK
6
CONTINUOUS
10
31.1976
20
16.7114
11
31.1717
21
16.7253
0
LINE
8
BLACK
6
CONTINUOUS
10
31.1717
20
16.7253
11
31.1489
21
16.7439
0
LINE
8
BLACK
6
CONTINUOUS
10
31.1489
20
16.7439
11
31.1303
21
16.7667
0
LINE
8
BLACK
6
CONTINUOUS
10
31.1303
20
16.7667
11
31.1164
21
16.7926
0
LINE
8
BLACK
6
CONTINUOUS
10
31.1164
20
16.7926
11
31.1079
21
16.8207
0
LINE
8
BLACK
6
CONTINUOUS
10
31.1079
20
16.8207
11
31.105
21
16.85
0
LINE
8
BLACK
6
CONTINUOUS
10
31.105
20
16.85
11
31.105
21
18.5
0
LINE
8
BLACK
6
CONTINUOUS
10
31.105
20
18.5
11
31.1079
21
18.5293
0
LINE
8
BLACK
6
CONTINUOUS
10
31.1079
20
18.5293
11
31.1164
21
18.5574
0
LINE
8
BLACK
6
CONTINUOUS
10
31.1164
20
18.5574
11
31.1303
21
18.5833
0
LINE
8
BLACK
6
CONTINUOUS
10
31.1303
20
18.5833
11
31.1489
21
18.6061
0
LINE
8
BLACK
6
CONTINUOUS
10
31.1489
20
18.6061
11
31.1717
21
18.6247
0
LINE
8
BLACK
6
CONTINUOUS
10
31.1717
20
18.6247
11
31.1976
21
18.6386
0
LINE
8
BLACK
6
CONTINUOUS
10
31.1976
20
18.6386
11
31.2257
21
18.6471
0
LINE
8
BLACK
6
CONTINUOUS
10
31.2257
20
18.6471
11
31.255
21
18.65
0
LINE
8
BLACK
6
CONTINUOUS
10
31.255
20
18.65
11
31.555
21
18.65
0
LINE
8
BLACK
6
CONTINUOUS
10
31.555
20
18.65
11
31.5843
21
18.6471
0
LINE
8
BLACK
6
CONTINUOUS
10
32.8543
20
18.6471
11
32.8824
21
18.6386
0
LINE
8
BLACK
6
CONTINUOUS
10
32.8824
20
18.6386
11
32.9083
21
18.6247
0
LINE
8
BLACK
6
CONTINUOUS
10
32.9083
20
18.6247
11
32.9311
21
18.6061
0
LINE
8
BLACK
6
CONTINUOUS
10
32.9311
20
18.6061
11
32.9497
21
18.5833
0
LINE
8
BLACK
6
CONTINUOUS
10
32.9497
20
18.5833
11
32.9636
21
18.5574
0
LINE
8
BLACK
6
CONTINUOUS
10
32.9636
20
18.5574
11
32.9721
21
18.5293
0
LINE
8
BLACK
6
CONTINUOUS
10
32.9721
20
18.5293
11
32.975
21
18.5
0
LINE
8
BLACK
6
CONTINUOUS
10
32.975
20
18.5
11
32.975
21
16.85
0
LINE
8
BLACK
6
CONTINUOUS
10
32.975
20
16.85
11
32.9721
21
16.8207
0
LINE
8
BLACK
6
CONTINUOUS
10
32.9721
20
16.8207
11
32.9636
21
16.7926
0
LINE
8
BLACK
6
CONTINUOUS
10
32.9636
20
16.7926
11
32.9497
21
16.7667
0
LINE
8
BLACK
6
CONTINUOUS
10
32.9497
20
16.7667
11
32.9311
21
16.7439
0
LINE
8
BLACK
6
CONTINUOUS
10
32.9311
20
16.7439
11
32.9083
21
16.7253
0
LINE
8
BLACK
6
CONTINUOUS
10
32.9083
20
16.7253
11
32.8824
21
16.7114
0
LINE
8
BLACK
6
CONTINUOUS
10
32.8824
20
16.7114
11
32.8543
21
16.7029
0
LINE
8
BLACK
6
CONTINUOUS
10
32.8543
20
16.7029
11
32.825
21
16.7
0
LINE
8
BLACK
6
CONTINUOUS
10
32.825
20
16.7
11
32.525
21
16.7
0
LINE
8
BLACK
6
CONTINUOUS
10
32.525
20
16.7
11
32.4957
21
16.7029
0
LINE
8
BLACK
6
CONTINUOUS
10
32.4957
20
16.7029
11
32.4676
21
16.7114
0
LINE
8
BLACK
6
CONTINUOUS
10
32.4676
20
16.7114
11
32.4417
21
16.7253
0
LINE
8
BLACK
6
CONTINUOUS
10
32.4417
20
16.7253
11
32.4189
21
16.7439
0
LINE
8
BLACK
6
CONTINUOUS
10
32.4189
20
16.7439
11
32.4003
21
16.7667
0
LINE
8
BLACK
6
CONTINUOUS
10
32.4003
20
16.7667
11
32.3864
21
16.7926
0
LINE
8
BLACK
6
CONTINUOUS
10
32.3864
20
16.7926
11
32.3779
21
16.8207
0
LINE
8
BLACK
6
CONTINUOUS
10
32.3779
20
16.8207
11
32.375
21
16.85
0
LINE
8
BLACK
6
CONTINUOUS
10
32.375
20
16.85
11
32.375
21
18.5
0
LINE
8
BLACK
6
CONTINUOUS
10
32.375
20
18.5
11
32.3779
21
18.5293
0
LINE
8
BLACK
6
CONTINUOUS
10
32.3779
20
18.5293
11
32.3864
21
18.5574
0
LINE
8
BLACK
6
CONTINUOUS
10
32.3864
20
18.5574
11
32.4003
21
18.5833
0
LINE
8
BLACK
6
CONTINUOUS
10
32.4003
20
18.5833
11
32.4189
21
18.6061
0
LINE
8
BLACK
6
CONTINUOUS
10
32.4189
20
18.6061
11
32.4417
21
18.6247
0
LINE
8
BLACK
6
CONTINUOUS
10
32.4417
20
18.6247
11
32.4676
21
18.6386
0
LINE
8
BLACK
6
CONTINUOUS
10
32.4676
20
18.6386
11
32.4957
21
18.6471
0
LINE
8
BLACK
6
CONTINUOUS
10
32.4957
20
18.6471
11
32.525
21
18.65
0
LINE
8
BLACK
6
CONTINUOUS
10
32.525
20
18.65
11
32.825
21
18.65
0
LINE
8
BLACK
6
CONTINUOUS
10
32.825
20
18.65
11
32.8543
21
18.6471
0
LINE
8
BLACK
6
CONTINUOUS
10
34.1243
20
18.6471
11
34.1524
21
18.6386
0
LINE
8
BLACK
6
CONTINUOUS
10
34.1524
20
18.6386
11
34.1783
21
18.6247
0
LINE
8
BLACK
6
CONTINUOUS
10
34.1783
20
18.6247
11
34.2011
21
18.6061
0
LINE
8
BLACK
6
CONTINUOUS
10
34.2011
20
18.6061
11
34.2197
21
18.5833
0
LINE
8
BLACK
6
CONTINUOUS
10
34.2197
20
18.5833
11
34.2336
21
18.5574
0
LINE
8
BLACK
6
CONTINUOUS
10
34.2336
20
18.5574
11
34.2421
21
18.5293
0
LINE
8
BLACK
6
CONTINUOUS
10
34.2421
20
18.5293
11
34.245
21
18.5
0
LINE
8
BLACK
6
CONTINUOUS
10
34.245
20
18.5
11
34.245
21
16.85
0
LINE
8
BLACK
6
CONTINUOUS
10
34.245
20
16.85
11
34.2421
21
16.8207
0
LINE
8
BLACK
6
CONTINUOUS
10
34.2421
20
16.8207
11
34.2336
21
16.7926
0
LINE
8
BLACK
6
CONTINUOUS
10
34.2336
20
16.7926
11
34.2197
21
16.7667
0
LINE
8
BLACK
6
CONTINUOUS
10
34.2197
20
16.7667
11
34.2011
21
16.7439
0
LINE
8
BLACK
6
CONTINUOUS
10
34.2011
20
16.7439
11
34.1783
21
16.7253
0
LINE
8
BLACK
6
CONTINUOUS
10
34.1783
20
16.7253
11
34.1524
21
16.7114
0
LINE
8
BLACK
6
CONTINUOUS
10
34.1524
20
16.7114
11
34.1243
21
16.7029
0
LINE
8
BLACK
6
CONTINUOUS
10
34.1243
20
16.7029
11
34.095
21
16.7
0
LINE
8
BLACK
6
CONTINUOUS
10
34.095
20
16.7
11
33.795
21
16.7
0
LINE
8
BLACK
6
CONTINUOUS
10
33.795
20
16.7
11
33.7657
21
16.7029
0
LINE
8
BLACK
6
CONTINUOUS
10
33.7657
20
16.7029
11
33.7376
21
16.7114
0
LINE
8
BLACK
6
CONTINUOUS
10
33.7376
20
16.7114
11
33.7117
21
16.7253
0
LINE
8
BLACK
6
CONTINUOUS
10
33.7117
20
16.7253
11
33.6889
21
16.7439
0
LINE
8
BLACK
6
CONTINUOUS
10
33.6889
20
16.7439
11
33.6703
21
16.7667
0
LINE
8
BLACK
6
CONTINUOUS
10
33.6703
20
16.7667
11
33.6564
21
16.7926
0
LINE
8
BLACK
6
CONTINUOUS
10
33.6564
20
16.7926
11
33.6479
21
16.8207
0
LINE
8
BLACK
6
CONTINUOUS
10
33.6479
20
16.8207
11
33.645
21
16.85
0
LINE
8
BLACK
6
CONTINUOUS
10
33.645
20
16.85
11
33.645
21
18.5
0
LINE
8
BLACK
6
CONTINUOUS
10
33.645
20
18.5
11
33.6479
21
18.5293
0
LINE
8
BLACK
6
CONTINUOUS
10
33.6479
20
18.5293
11
33.6564
21
18.5574
0
LINE
8
BLACK
6
CONTINUOUS
10
33.6564
20
18.5574
11
33.6703
21
18.5833
0
LINE
8
BLACK
6
CONTINUOUS
10
33.6703
20
18.5833
11
33.6889
21
18.6061
0
LINE
8
BLACK
6
CONTINUOUS
10
33.6889
20
18.6061
11
33.7117
21
18.6247
0
LINE
8
BLACK
6
CONTINUOUS
10
33.7117
20
18.6247
11
33.7376
21
18.6386
0
LINE
8
BLACK
6
CONTINUOUS
10
33.7376
20
18.6386
11
33.7657
21
18.6471
0
LINE
8
BLACK
6
CONTINUOUS
10
33.7657
20
18.6471
11
33.795
21
18.65
0
LINE
8
BLACK
6
CONTINUOUS
10
33.795
20
18.65
11
34.095
21
18.65
0
LINE
8
BLACK
6
CONTINUOUS
10
34.095
20
18.65
11
34.1243
21
18.6471
0
LINE
8
BLACK
6
CONTINUOUS
10
56.45
20
18.85
11
53.45
21
18.85
0
LINE
8
BLACK
6
CONTINUOUS
10
53.45
20
18.85
11
53.45
21
20.35
0
LINE
8
BLACK
6
CONTINUOUS
10
53.45
20
20.35
11
56.45
21
20.35
0
LINE
8
BLACK
6
CONTINUOUS
10
56.45
20
20.35
11
56.45
21
18.85
0
LINE
8
BLACK
6
CONTINUOUS
10
11.45
20
18.85
11
8.45
21
18.85
0
LINE
8
BLACK
6
CONTINUOUS
10
8.45
20
18.85
11
8.45
21
20.35
0
LINE
8
BLACK
6
CONTINUOUS
10
8.45
20
20.35
11
11.45
21
20.35
0
LINE
8
BLACK
6
CONTINUOUS
10
11.45
20
20.35
11
11.45
21
18.85
0
LINE
8
BLACK
6
CONTINUOUS
10
5.55
20
18.85
11
2.55
21
18.85
0
LINE
8
BLACK
6
CONTINUOUS
10
2.55
20
18.85
11
2.55
21
20.35
0
LINE
8
BLACK
6
CONTINUOUS
10
2.55
20
20.35
11
5.55
21
20.35
0
LINE
8
BLACK
6
CONTINUOUS
10
5.55
20
20.35
11
5.55
21
18.85
0
LINE
8
BLACK
6
CONTINUOUS
10
50.55
20
18.85
11
47.55
21
18.85
0
LINE
8
BLACK
6
CONTINUOUS
10
47.55
20
18.85
11
47.55
21
20.35
0
LINE
8
BLACK
6
CONTINUOUS
10
47.55
20
20.35
11
50.55
21
20.35
0
LINE
8
BLACK
6
CONTINUOUS
10
50.55
20
20.35
11
50.55
21
18.85
  0
ENDSEC
  0
EOF
