M48
; DRILL file {KiCad (5.1.6)-1} date 01/26/25 05:21:50
; FORMAT={-:-/ absolute / metric / decimal}
; #@! TF.CreationDate,2025-01-26T05:21:50-05:00
; #@! TF.GenerationSoftware,Kicad,Pcbnew,(5.1.6)-1
FMAT,2
METRIC
T1C0.800
%
G90
G05
T1
X14.8Y13.2
X14.8Y4.0
X16.8Y21.0
X16.8Y5.2
X18.56Y16.57
X18.56Y12.77
X18.8Y19.65
X20.8Y18.4
X20.8Y12.9
X38.9Y19.7
X38.9Y17.0
X38.9Y3.4
X41.2Y15.4
X41.2Y4.6
X43.5Y15.4
X43.5Y4.8
X45.7Y12.6
X45.7Y4.2
X23.25Y3.3
X25.79Y3.3
X28.33Y3.3
X30.87Y3.3
X33.41Y3.3
X35.95Y3.3
X23.15Y21.7
X25.69Y21.7
X28.23Y21.7
X30.77Y21.7
X33.31Y21.7
X35.85Y21.7
T0
M30
