%TF.GenerationSoftware,KiCad,Pcbnew,(5.1.6)-1*%
%TF.CreationDate,2025-02-26T14:56:05-05:00*%
%TF.ProjectId,rotary_board,726f7461-7279-45f6-926f-6172642e6b69,rev?*%
%TF.SameCoordinates,PX2dc6c00PY66ff300*%
%TF.FileFunction,Soldermask,Bot*%
%TF.FilePolarity,Negative*%
%FSLAX46Y46*%
G04 Gerber Fmt 4.6, Leading zero omitted, Abs format (unit mm)*
G04 Created by KiCad (PCBNEW (5.1.6)-1) date 2025-02-26 14:56:05*
%MOMM*%
%LPD*%
G01*
G04 APERTURE LIST*
%ADD10O,3.500000X2.200000*%
%ADD11C,2.200000*%
%ADD12C,2.000000*%
G04 APERTURE END LIST*
D10*
%TO.C,SW4*%
X72000000Y2300000D03*
X72000000Y2300000D03*
X72000000Y13600000D03*
D11*
X79000000Y5500000D03*
X79000000Y10500000D03*
D10*
X72000000Y13600000D03*
D11*
X64500000Y5500000D03*
X64500000Y8000000D03*
X64500000Y10500000D03*
%TD*%
D10*
%TO.C,SW3*%
X102000000Y2300000D03*
X102000000Y2300000D03*
X102000000Y13600000D03*
D11*
X109000000Y5500000D03*
X109000000Y10500000D03*
D10*
X102000000Y13600000D03*
D11*
X94500000Y5500000D03*
X94500000Y8000000D03*
X94500000Y10500000D03*
%TD*%
D10*
%TO.C,SW2*%
X42000000Y2300000D03*
X42000000Y2300000D03*
X42000000Y13600000D03*
D11*
X49000000Y5500000D03*
X49000000Y10500000D03*
D10*
X42000000Y13600000D03*
D11*
X34500000Y5500000D03*
X34500000Y8000000D03*
X34500000Y10500000D03*
%TD*%
D10*
%TO.C,SW1*%
X12000000Y2300000D03*
X12000000Y2300000D03*
X12000000Y13600000D03*
D11*
X19000000Y5500000D03*
X19000000Y10500000D03*
D10*
X12000000Y13600000D03*
D11*
X4500000Y5500000D03*
X4500000Y8000000D03*
X4500000Y10500000D03*
%TD*%
D12*
%TO.C,C1*%
X13500000Y26400000D03*
X11000000Y26400000D03*
%TD*%
D11*
%TO.C,J1*%
X4420000Y22000000D03*
X6960000Y22000000D03*
X9500000Y22000000D03*
X12040000Y22000000D03*
X14580000Y22000000D03*
%TD*%
%TO.C,R1*%
X19100000Y26600000D03*
X19100000Y18980000D03*
%TD*%
%TO.C,U1*%
X56000000Y26500000D03*
X22980000Y18880000D03*
X53460000Y26500000D03*
X25520000Y18880000D03*
X50920000Y26500000D03*
X28060000Y18880000D03*
X48380000Y26500000D03*
X30600000Y18880000D03*
X45840000Y26500000D03*
X33140000Y18880000D03*
X43300000Y26500000D03*
X35680000Y18880000D03*
X40760000Y26500000D03*
X38220000Y18880000D03*
X38220000Y26500000D03*
X40760000Y18880000D03*
X35680000Y26500000D03*
X43300000Y18880000D03*
X33140000Y26500000D03*
X45840000Y18880000D03*
X30600000Y26500000D03*
X48380000Y18880000D03*
X28060000Y26500000D03*
X50920000Y18880000D03*
X25520000Y26500000D03*
X53460000Y18880000D03*
X22980000Y26500000D03*
X56000000Y18880000D03*
%TD*%
D12*
X15400000Y17200000D03*
X28300000Y15500000D03*
M02*
