M48
; DRILL file {KiCad (5.1.6)-1} date 02/26/25 14:49:57
; FORMAT={-:-/ absolute / metric / decimal}
; #@! TF.CreationDate,2025-02-26T14:49:57-05:00
; #@! TF.GenerationSoftware,Kicad,Pcbnew,(5.1.6)-1
FMAT,2
METRIC
T1C0.800
T2C0.900
%
G90
G05
T1
X15.4Y17.2
X28.3Y15.5
X19.1Y26.6
X19.1Y18.98
X22.98Y26.5
X22.98Y18.88
X25.52Y26.5
X25.52Y18.88
X28.06Y26.5
X28.06Y18.88
X30.6Y26.5
X30.6Y18.88
X33.14Y26.5
X33.14Y18.88
X35.68Y26.5
X35.68Y18.88
X38.22Y26.5
X38.22Y18.88
X40.76Y26.5
X40.76Y18.88
X43.3Y26.5
X43.3Y18.88
X45.84Y26.5
X45.84Y18.88
X48.38Y26.5
X48.38Y18.88
X50.92Y26.5
X50.92Y18.88
X53.46Y26.5
X53.46Y18.88
X56.0Y26.5
X56.0Y18.88
X11.0Y26.4
X13.5Y26.4
T2
X4.42Y22.0
X6.96Y22.0
X9.5Y22.0
X12.04Y22.0
X14.58Y22.0
X34.5Y10.5
X34.5Y8.0
X34.5Y5.5
X41.4Y13.6
X41.4Y2.3
X42.6Y13.6
X42.6Y2.3
X49.0Y10.5
X49.0Y5.5
X4.5Y10.5
X4.5Y8.0
X4.5Y5.5
X11.4Y13.6
X11.4Y2.3
X12.6Y13.6
X12.6Y2.3
X19.0Y10.5
X19.0Y5.5
X64.5Y10.5
X64.5Y8.0
X64.5Y5.5
X71.4Y13.6
X71.4Y2.3
X72.6Y13.6
X72.6Y2.3
X79.0Y10.5
X79.0Y5.5
X94.5Y10.5
X94.5Y8.0
X94.5Y5.5
X101.4Y13.6
X101.4Y2.3
X102.6Y13.6
X102.6Y2.3
X109.0Y10.5
X109.0Y5.5
T0
M30
