<?xml version="1.0" encoding="UTF-8"?>
<svg xmlns="http://www.w3.org/2000/svg" width="144.2mm" height="24.85mm" viewBox="0 0 144.2 24.85">
<line x1="9.19999999999999" y1="23.35" x2="8.80000000000001" y2="23.35" />
<line x1="4" y1="19.05" x2="4" y2="18.65" />
<line x1="11.5" y1="16.15" x2="11.5" y2="16.55" />
<line x1="49" y1="15.5" x2="49" y2="17.2" />
<line x1="95" y1="15.5" x2="95" y2="17.2" />
<line x1="26" y1="15.5" x2="26" y2="17.2" />
<line x1="72" y1="15.5" x2="72" y2="17.2" />
<line x1="119" y1="15.5" x2="119" y2="17.2" />
<line x1="14" y1="15.15" x2="14" y2="15.55" />
<line x1="3.80000000000001" y1="11.85" x2="4.19999999999999" y2="11.85" />
<line x1="126.5" y1="8" x2="126.5" y2="9.7" />
<line x1="121.5" y1="8" x2="121.5" y2="9.7" />
<line x1="116.5" y1="8" x2="116.5" y2="9.7" />
<line x1="111.5" y1="8" x2="111.5" y2="9.7" />
<line x1="79.5" y1="8" x2="79.5" y2="9.7" />
<line x1="74.5" y1="8" x2="74.5" y2="9.7" />
<line x1="69.5" y1="8" x2="69.5" y2="9.7" />
<line x1="64.5" y1="8" x2="64.5" y2="9.7" />
<line x1="33.5" y1="8" x2="33.5" y2="9.7" />
<line x1="28.5" y1="8" x2="28.5" y2="9.7" />
<line x1="23.5" y1="8" x2="23.5" y2="9.7" />
<line x1="18.5" y1="8" x2="18.5" y2="9.7" />
<line x1="102.5" y1="8" x2="102.5" y2="9.7" />
<line x1="97.5" y1="8" x2="97.5" y2="9.7" />
<line x1="92.5" y1="8" x2="92.5" y2="9.7" />
<line x1="87.5" y1="8" x2="87.5" y2="9.7" />
<line x1="56.5" y1="8" x2="56.5" y2="9.7" />
<line x1="51.5" y1="8" x2="51.5" y2="9.7" />
<line x1="46.5" y1="8" x2="46.5" y2="9.7" />
<line x1="41.5" y1="8" x2="41.5" y2="9.7" />
<line x1="46.5" y1="0" x2="46.5" y2="1.7" />
<line x1="51.5" y1="0" x2="51.5" y2="1.7" />
<line x1="92.5" y1="0" x2="92.5" y2="1.7" />
<line x1="97.5" y1="0" x2="97.5" y2="1.7" />
<line x1="23.5" y1="0" x2="23.5" y2="1.7" />
<line x1="28.5" y1="0" x2="28.5" y2="1.7" />
<line x1="69.5" y1="0" x2="69.5" y2="1.7" />
<line x1="74.5" y1="0" x2="74.5" y2="1.7" />
<line x1="116.5" y1="0" x2="116.5" y2="1.7" />
<line x1="121.5" y1="0" x2="121.5" y2="1.7" />
</svg>
