M48
; DRILL file {KiCad (5.1.6)-1} date 02/22/25 17:20:28
; FORMAT={-:-/ absolute / metric / decimal}
; #@! TF.CreationDate,2025-02-22T17:20:28-05:00
; #@! TF.GenerationSoftware,Kicad,Pcbnew,(5.1.6)-1
FMAT,2
METRIC
T1C0.800
T2C0.900
T3C1.000
T4C3.200
%
G90
G05
T1
X11.9Y81.3
X19.0Y83.7
X28.9Y83.7
X29.5Y81.3
X39.4Y47.3
X39.41Y79.08
X42.8Y51.8
X42.85Y70.1
X47.2Y64.3
X47.2Y43.3
X49.43Y64.3
X49.43Y43.27
X49.5Y31.9
X51.7Y64.3
X51.7Y43.3
X54.0Y64.3
X54.0Y49.1
X54.0Y43.3
X54.25Y56.7
X56.3Y64.3
X56.3Y51.8
X58.2Y80.4
X61.5Y46.1
X61.52Y63.88
X64.04Y78.16
X68.38Y67.47
X69.06Y78.16
X71.6Y32.0
X75.4Y61.0
X75.43Y35.0
X78.87Y65.25
X78.87Y42.84
X80.49Y35.0
X81.24Y65.23
X81.29Y41.32
X81.8Y67.58
X90.2Y80.4
X93.3Y35.0
X105.85Y72.16
X105.92Y79.62
X107.0Y40.7
X112.9Y82.4
X117.2Y40.7
X119.6Y57.0
X119.6Y48.9
X124.1Y82.2
X127.1Y82.3
X135.7Y82.3
X110.5Y12.4
X110.5Y4.78
X122.3Y36.2
X129.92Y36.2
X130.38Y68.0
X138.0Y68.0
X41.0Y12.4
X41.0Y4.78
X4.5Y11.2
X5.5Y11.2
X8.0Y17.2
X8.0Y16.2
X10.5Y11.2
X11.5Y11.2
X87.5Y12.4
X87.5Y4.78
X132.48Y48.3
X140.1Y48.3
X84.18Y59.57
X84.18Y44.33
X86.72Y59.57
X86.72Y44.33
X89.26Y59.57
X89.26Y44.33
X91.8Y59.57
X91.8Y44.33
X94.34Y59.57
X94.34Y44.33
X96.88Y59.57
X96.88Y44.33
X99.42Y59.57
X99.42Y44.33
X101.96Y59.57
X101.96Y44.33
X104.5Y59.57
X104.5Y44.33
X107.04Y59.57
X107.04Y44.33
X109.58Y59.57
X109.58Y44.33
X112.12Y59.57
X112.12Y44.33
X114.66Y59.57
X114.66Y44.33
X117.2Y59.57
X117.2Y44.33
X119.74Y59.57
X119.74Y44.33
X122.28Y59.57
X122.28Y44.33
X124.82Y59.57
X124.82Y44.33
X127.36Y59.57
X127.36Y44.33
X129.9Y59.57
X129.9Y44.33
X132.44Y59.57
X132.44Y44.33
X134.98Y59.57
X134.98Y44.33
X137.52Y59.57
X137.52Y44.33
X140.06Y59.57
X140.06Y44.33
X142.6Y59.57
X142.6Y44.33
X130.38Y71.0
X138.0Y71.0
X103.5Y87.12
X103.5Y79.5
X43.04Y86.54
X43.04Y84.0
X45.58Y86.54
X45.58Y84.0
X48.12Y86.54
X48.12Y84.0
X50.66Y86.54
X50.66Y84.0
X53.2Y86.54
X53.2Y84.0
X55.74Y86.54
X55.74Y84.0
X58.28Y86.54
X58.28Y84.0
X60.82Y86.54
X60.82Y84.0
X63.36Y86.54
X63.36Y84.0
X65.9Y86.54
X65.9Y84.0
X68.44Y86.54
X68.44Y84.0
X70.98Y86.54
X70.98Y84.0
X73.52Y86.54
X73.52Y84.0
X76.06Y86.54
X76.06Y84.0
X78.6Y86.54
X78.6Y84.0
X81.14Y86.54
X81.14Y84.0
X83.68Y86.54
X83.68Y84.0
X86.22Y86.54
X86.22Y84.0
X88.76Y86.54
X88.76Y84.0
X91.3Y86.54
X91.3Y84.0
X3.98Y56.5
X3.98Y41.26
X6.52Y56.5
X6.52Y41.26
X9.06Y56.5
X9.06Y41.26
X11.6Y56.5
X11.6Y41.26
X14.14Y56.5
X14.14Y41.26
X15.41Y36.18
X16.68Y56.5
X16.68Y41.26
X17.95Y36.18
X19.22Y56.5
X19.22Y41.26
X20.49Y36.18
X21.76Y56.5
X21.76Y41.26
X23.03Y36.18
X24.3Y56.5
X24.3Y41.26
X25.57Y36.18
X26.84Y56.5
X26.84Y41.26
X29.38Y56.5
X29.38Y41.26
X31.92Y56.5
X31.92Y41.26
X34.46Y56.5
X34.46Y41.26
X37.0Y56.5
X37.0Y41.26
X45.08Y67.9
X52.7Y67.9
X64.5Y12.4
X64.5Y4.78
X17.5Y18.6
X17.5Y10.98
T2
X90.4Y68.1
X92.7Y68.1
X67.9Y60.9
X71.7Y60.9
X29.0Y75.45
X31.54Y75.45
X34.08Y75.45
T3
X6.0Y76.0
X8.54Y76.0
X99.42Y35.0
X101.96Y35.0
X104.5Y35.0
X107.04Y35.0
X109.58Y35.0
X112.12Y35.0
X114.66Y35.0
X117.2Y35.0
X90.3Y76.0
X92.84Y76.0
X111.4Y77.9
X113.94Y77.9
X116.48Y77.9
X119.02Y77.9
X121.56Y77.9
X124.1Y77.9
X19.0Y76.0
X21.54Y76.0
X130.6Y77.9
X133.14Y77.9
X135.68Y77.9
X138.22Y77.9
X140.76Y77.9
X48.92Y37.2
X51.46Y37.2
X54.0Y37.2
X56.54Y37.2
X59.08Y37.2
X61.62Y37.2
X64.16Y37.2
X66.7Y37.2
X58.22Y72.0
X60.76Y72.0
X63.3Y72.0
X65.84Y72.0
X68.38Y72.0
X70.92Y72.0
X73.46Y72.0
X76.0Y72.0
T4
X41.0Y30.5
X4.0Y89.0
X144.0Y27.5
X144.0Y89.0
X4.0Y27.5
T2
G00X134.0Y9.7
M15
G01X134.0Y9.3
M16
G05
G00X136.5Y8.7
M15
G01X136.5Y8.3
M16
G05
G00X138.8Y1.5
M15
G01X139.2Y1.5
M16
G05
G00X144.2Y13.0
M15
G01X143.8Y13.0
M16
G05
G00X144.0Y5.8
M15
G01X144.0Y6.2
M16
G05
G00X21.5Y16.85
M15
G01X21.5Y15.15
M16
G05
G00X26.5Y24.85
M15
G01X26.5Y23.15
M16
G05
G00X26.5Y16.85
M15
G01X26.5Y15.15
M16
G05
G00X29.0Y9.35
M15
G01X29.0Y7.65
M16
G05
G00X31.5Y24.85
M15
G01X31.5Y23.15
M16
G05
G00X31.5Y16.85
M15
G01X31.5Y15.15
M16
G05
G00X36.5Y16.85
M15
G01X36.5Y15.15
M16
G05
G00X68.5Y16.85
M15
G01X68.5Y15.15
M16
G05
G00X73.5Y24.85
M15
G01X73.5Y23.15
M16
G05
G00X73.5Y16.85
M15
G01X73.5Y15.15
M16
G05
G00X76.0Y9.35
M15
G01X76.0Y7.65
M16
G05
G00X78.5Y24.85
M15
G01X78.5Y23.15
M16
G05
G00X78.5Y16.85
M15
G01X78.5Y15.15
M16
G05
G00X83.5Y16.85
M15
G01X83.5Y15.15
M16
G05
G00X114.5Y16.85
M15
G01X114.5Y15.15
M16
G05
G00X119.5Y24.85
M15
G01X119.5Y23.15
M16
G05
G00X119.5Y16.85
M15
G01X119.5Y15.15
M16
G05
G00X122.0Y9.35
M15
G01X122.0Y7.65
M16
G05
G00X124.5Y24.85
M15
G01X124.5Y23.15
M16
G05
G00X124.5Y16.85
M15
G01X124.5Y15.15
M16
G05
G00X129.5Y16.85
M15
G01X129.5Y15.15
M16
G05
G00X45.5Y16.85
M15
G01X45.5Y15.15
M16
G05
G00X50.5Y24.85
M15
G01X50.5Y23.15
M16
G05
G00X50.5Y16.85
M15
G01X50.5Y15.15
M16
G05
G00X53.0Y9.35
M15
G01X53.0Y7.65
M16
G05
G00X55.5Y24.85
M15
G01X55.5Y23.15
M16
G05
G00X55.5Y16.85
M15
G01X55.5Y15.15
M16
G05
G00X60.5Y16.85
M15
G01X60.5Y15.15
M16
G05
G00X91.5Y16.85
M15
G01X91.5Y15.15
M16
G05
G00X96.5Y24.85
M15
G01X96.5Y23.15
M16
G05
G00X96.5Y16.85
M15
G01X96.5Y15.15
M16
G05
G00X99.0Y9.35
M15
G01X99.0Y7.65
M16
G05
G00X101.5Y24.85
M15
G01X101.5Y23.15
M16
G05
G00X101.5Y16.85
M15
G01X101.5Y15.15
M16
G05
G00X106.5Y16.85
M15
G01X106.5Y15.15
M16
G05
T0
M30
