M48
; DRILL file {KiCad (5.1.6)-1} date 01/27/25 19:56:58
; FORMAT={-:-/ absolute / metric / decimal}
; #@! TF.CreationDate,2025-01-27T19:56:58-05:00
; #@! TF.GenerationSoftware,Kicad,Pcbnew,(5.1.6)-1
FMAT,2
METRIC
T1C0.300
T2C0.800
%
G90
G05
T1
X57.5Y10.7
T2
X14.6Y20.3
X15.5Y6.2
X15.6Y9.7
X17.1Y18.4
X17.9Y6.2
X19.4Y18.4
X19.4Y11.6
X21.7Y18.4
X21.7Y11.6
X24.2Y6.3
X38.2Y12.3
X38.2Y8.2
X40.2Y15.0
X40.5Y8.2
X42.8Y14.5
X42.8Y8.2
X44.8Y20.2
X45.1Y8.2
X45.2Y14.5
X46.8Y6.1
X24.25Y3.3
X26.79Y3.3
X29.33Y3.3
X31.87Y3.3
X34.41Y3.3
X36.95Y3.3
X24.15Y21.7
X26.69Y21.7
X29.23Y21.7
X31.77Y21.7
X34.31Y21.7
X36.85Y21.7
X4.19Y8.54
X4.19Y3.46
X11.81Y8.54
X11.81Y3.46
X49.19Y8.54
X49.19Y3.46
X56.81Y8.54
X56.81Y3.46
T0
M30
