%TF.GenerationSoftware,KiCad,Pcbnew,(5.1.6)-1*%
%TF.CreationDate,2025-01-27T19:57:42-05:00*%
%TF.ProjectId,test,74657374-2e6b-4696-9361-645f70636258,rev?*%
%TF.SameCoordinates,PX876bf80PY5f5e100*%
%TF.FileFunction,Soldermask,Top*%
%TF.FilePolarity,Negative*%
%FSLAX46Y46*%
G04 Gerber Fmt 4.6, Leading zero omitted, Abs format (unit mm)*
G04 Created by KiCad (PCBNEW (5.1.6)-1) date 2025-01-27 19:57:42*
%MOMM*%
%LPD*%
G01*
G04 APERTURE LIST*
%ADD10R,3.100000X1.600000*%
%ADD11C,2.300000*%
%ADD12O,3.570000X2.300000*%
%ADD13C,2.100000*%
%ADD14C,0.700000*%
G04 APERTURE END LIST*
%TO.C,C6*%
G36*
G01*
X23442544Y14075000D02*
X24757456Y14075000D01*
G75*
G02*
X25025000Y13807456I0J-267544D01*
G01*
X25025000Y12817544D01*
G75*
G02*
X24757456Y12550000I-267544J0D01*
G01*
X23442544Y12550000D01*
G75*
G02*
X23175000Y12817544I0J267544D01*
G01*
X23175000Y13807456D01*
G75*
G02*
X23442544Y14075000I267544J0D01*
G01*
G37*
G36*
G01*
X23442544Y17050000D02*
X24757456Y17050000D01*
G75*
G02*
X25025000Y16782456I0J-267544D01*
G01*
X25025000Y15792544D01*
G75*
G02*
X24757456Y15525000I-267544J0D01*
G01*
X23442544Y15525000D01*
G75*
G02*
X23175000Y15792544I0J267544D01*
G01*
X23175000Y16782456D01*
G75*
G02*
X23442544Y17050000I267544J0D01*
G01*
G37*
%TD*%
D10*
%TO.C,D3*%
X5050000Y20100000D03*
X5050000Y16900000D03*
X10950000Y20100000D03*
X10950000Y16900000D03*
%TD*%
%TO.C,D4*%
X55950000Y16800000D03*
X55950000Y20000000D03*
X50050000Y16800000D03*
X50050000Y20000000D03*
%TD*%
D11*
%TO.C,J1*%
X24150000Y21700000D03*
X26690000Y21700000D03*
X29230000Y21700000D03*
X31770000Y21700000D03*
X34310000Y21700000D03*
X36850000Y21700000D03*
%TD*%
%TO.C,J2*%
X36950000Y3300000D03*
X34410000Y3300000D03*
X31870000Y3300000D03*
X29330000Y3300000D03*
X26790000Y3300000D03*
X24250000Y3300000D03*
%TD*%
%TO.C,C3*%
G36*
G01*
X7275000Y14657456D02*
X7275000Y13342544D01*
G75*
G02*
X7007456Y13075000I-267544J0D01*
G01*
X6017544Y13075000D01*
G75*
G02*
X5750000Y13342544I0J267544D01*
G01*
X5750000Y14657456D01*
G75*
G02*
X6017544Y14925000I267544J0D01*
G01*
X7007456Y14925000D01*
G75*
G02*
X7275000Y14657456I0J-267544D01*
G01*
G37*
G36*
G01*
X10250000Y14657456D02*
X10250000Y13342544D01*
G75*
G02*
X9982456Y13075000I-267544J0D01*
G01*
X8992544Y13075000D01*
G75*
G02*
X8725000Y13342544I0J267544D01*
G01*
X8725000Y14657456D01*
G75*
G02*
X8992544Y14925000I267544J0D01*
G01*
X9982456Y14925000D01*
G75*
G02*
X10250000Y14657456I0J-267544D01*
G01*
G37*
%TD*%
%TO.C,C4*%
G36*
G01*
X52275000Y14857456D02*
X52275000Y13542544D01*
G75*
G02*
X52007456Y13275000I-267544J0D01*
G01*
X51017544Y13275000D01*
G75*
G02*
X50750000Y13542544I0J267544D01*
G01*
X50750000Y14857456D01*
G75*
G02*
X51017544Y15125000I267544J0D01*
G01*
X52007456Y15125000D01*
G75*
G02*
X52275000Y14857456I0J-267544D01*
G01*
G37*
G36*
G01*
X55250000Y14857456D02*
X55250000Y13542544D01*
G75*
G02*
X54982456Y13275000I-267544J0D01*
G01*
X53992544Y13275000D01*
G75*
G02*
X53725000Y13542544I0J267544D01*
G01*
X53725000Y14857456D01*
G75*
G02*
X53992544Y15125000I267544J0D01*
G01*
X54982456Y15125000D01*
G75*
G02*
X55250000Y14857456I0J-267544D01*
G01*
G37*
%TD*%
D12*
%TO.C,SW3*%
X12460000Y3460000D03*
X12460000Y8540000D03*
X3540000Y3460000D03*
X3540000Y8540000D03*
%TD*%
%TO.C,SW4*%
X48540000Y8540000D03*
X48540000Y3460000D03*
X57460000Y8540000D03*
X57460000Y3460000D03*
%TD*%
%TO.C,U1*%
G36*
G01*
X26217500Y10200000D02*
X25892500Y10200000D01*
G75*
G02*
X25730000Y10362500I0J162500D01*
G01*
X25730000Y11737500D01*
G75*
G02*
X25892500Y11900000I162500J0D01*
G01*
X26217500Y11900000D01*
G75*
G02*
X26380000Y11737500I0J-162500D01*
G01*
X26380000Y10362500D01*
G75*
G02*
X26217500Y10200000I-162500J0D01*
G01*
G37*
G36*
G01*
X27487500Y10200000D02*
X27162500Y10200000D01*
G75*
G02*
X27000000Y10362500I0J162500D01*
G01*
X27000000Y11737500D01*
G75*
G02*
X27162500Y11900000I162500J0D01*
G01*
X27487500Y11900000D01*
G75*
G02*
X27650000Y11737500I0J-162500D01*
G01*
X27650000Y10362500D01*
G75*
G02*
X27487500Y10200000I-162500J0D01*
G01*
G37*
G36*
G01*
X28757500Y10200000D02*
X28432500Y10200000D01*
G75*
G02*
X28270000Y10362500I0J162500D01*
G01*
X28270000Y11737500D01*
G75*
G02*
X28432500Y11900000I162500J0D01*
G01*
X28757500Y11900000D01*
G75*
G02*
X28920000Y11737500I0J-162500D01*
G01*
X28920000Y10362500D01*
G75*
G02*
X28757500Y10200000I-162500J0D01*
G01*
G37*
G36*
G01*
X30027500Y10200000D02*
X29702500Y10200000D01*
G75*
G02*
X29540000Y10362500I0J162500D01*
G01*
X29540000Y11737500D01*
G75*
G02*
X29702500Y11900000I162500J0D01*
G01*
X30027500Y11900000D01*
G75*
G02*
X30190000Y11737500I0J-162500D01*
G01*
X30190000Y10362500D01*
G75*
G02*
X30027500Y10200000I-162500J0D01*
G01*
G37*
G36*
G01*
X31297500Y10200000D02*
X30972500Y10200000D01*
G75*
G02*
X30810000Y10362500I0J162500D01*
G01*
X30810000Y11737500D01*
G75*
G02*
X30972500Y11900000I162500J0D01*
G01*
X31297500Y11900000D01*
G75*
G02*
X31460000Y11737500I0J-162500D01*
G01*
X31460000Y10362500D01*
G75*
G02*
X31297500Y10200000I-162500J0D01*
G01*
G37*
G36*
G01*
X32567500Y10200000D02*
X32242500Y10200000D01*
G75*
G02*
X32080000Y10362500I0J162500D01*
G01*
X32080000Y11737500D01*
G75*
G02*
X32242500Y11900000I162500J0D01*
G01*
X32567500Y11900000D01*
G75*
G02*
X32730000Y11737500I0J-162500D01*
G01*
X32730000Y10362500D01*
G75*
G02*
X32567500Y10200000I-162500J0D01*
G01*
G37*
G36*
G01*
X33837500Y10200000D02*
X33512500Y10200000D01*
G75*
G02*
X33350000Y10362500I0J162500D01*
G01*
X33350000Y11737500D01*
G75*
G02*
X33512500Y11900000I162500J0D01*
G01*
X33837500Y11900000D01*
G75*
G02*
X34000000Y11737500I0J-162500D01*
G01*
X34000000Y10362500D01*
G75*
G02*
X33837500Y10200000I-162500J0D01*
G01*
G37*
G36*
G01*
X35107500Y10200000D02*
X34782500Y10200000D01*
G75*
G02*
X34620000Y10362500I0J162500D01*
G01*
X34620000Y11737500D01*
G75*
G02*
X34782500Y11900000I162500J0D01*
G01*
X35107500Y11900000D01*
G75*
G02*
X35270000Y11737500I0J-162500D01*
G01*
X35270000Y10362500D01*
G75*
G02*
X35107500Y10200000I-162500J0D01*
G01*
G37*
G36*
G01*
X35107500Y16700000D02*
X34782500Y16700000D01*
G75*
G02*
X34620000Y16862500I0J162500D01*
G01*
X34620000Y18237500D01*
G75*
G02*
X34782500Y18400000I162500J0D01*
G01*
X35107500Y18400000D01*
G75*
G02*
X35270000Y18237500I0J-162500D01*
G01*
X35270000Y16862500D01*
G75*
G02*
X35107500Y16700000I-162500J0D01*
G01*
G37*
G36*
G01*
X33837500Y16700000D02*
X33512500Y16700000D01*
G75*
G02*
X33350000Y16862500I0J162500D01*
G01*
X33350000Y18237500D01*
G75*
G02*
X33512500Y18400000I162500J0D01*
G01*
X33837500Y18400000D01*
G75*
G02*
X34000000Y18237500I0J-162500D01*
G01*
X34000000Y16862500D01*
G75*
G02*
X33837500Y16700000I-162500J0D01*
G01*
G37*
G36*
G01*
X32567500Y16700000D02*
X32242500Y16700000D01*
G75*
G02*
X32080000Y16862500I0J162500D01*
G01*
X32080000Y18237500D01*
G75*
G02*
X32242500Y18400000I162500J0D01*
G01*
X32567500Y18400000D01*
G75*
G02*
X32730000Y18237500I0J-162500D01*
G01*
X32730000Y16862500D01*
G75*
G02*
X32567500Y16700000I-162500J0D01*
G01*
G37*
G36*
G01*
X31297500Y16700000D02*
X30972500Y16700000D01*
G75*
G02*
X30810000Y16862500I0J162500D01*
G01*
X30810000Y18237500D01*
G75*
G02*
X30972500Y18400000I162500J0D01*
G01*
X31297500Y18400000D01*
G75*
G02*
X31460000Y18237500I0J-162500D01*
G01*
X31460000Y16862500D01*
G75*
G02*
X31297500Y16700000I-162500J0D01*
G01*
G37*
G36*
G01*
X30027500Y16700000D02*
X29702500Y16700000D01*
G75*
G02*
X29540000Y16862500I0J162500D01*
G01*
X29540000Y18237500D01*
G75*
G02*
X29702500Y18400000I162500J0D01*
G01*
X30027500Y18400000D01*
G75*
G02*
X30190000Y18237500I0J-162500D01*
G01*
X30190000Y16862500D01*
G75*
G02*
X30027500Y16700000I-162500J0D01*
G01*
G37*
G36*
G01*
X28757500Y16700000D02*
X28432500Y16700000D01*
G75*
G02*
X28270000Y16862500I0J162500D01*
G01*
X28270000Y18237500D01*
G75*
G02*
X28432500Y18400000I162500J0D01*
G01*
X28757500Y18400000D01*
G75*
G02*
X28920000Y18237500I0J-162500D01*
G01*
X28920000Y16862500D01*
G75*
G02*
X28757500Y16700000I-162500J0D01*
G01*
G37*
G36*
G01*
X27487500Y16700000D02*
X27162500Y16700000D01*
G75*
G02*
X27000000Y16862500I0J162500D01*
G01*
X27000000Y18237500D01*
G75*
G02*
X27162500Y18400000I162500J0D01*
G01*
X27487500Y18400000D01*
G75*
G02*
X27650000Y18237500I0J-162500D01*
G01*
X27650000Y16862500D01*
G75*
G02*
X27487500Y16700000I-162500J0D01*
G01*
G37*
G36*
G01*
X26217500Y16700000D02*
X25892500Y16700000D01*
G75*
G02*
X25730000Y16862500I0J162500D01*
G01*
X25730000Y18237500D01*
G75*
G02*
X25892500Y18400000I162500J0D01*
G01*
X26217500Y18400000D01*
G75*
G02*
X26380000Y18237500I0J-162500D01*
G01*
X26380000Y16862500D01*
G75*
G02*
X26217500Y16700000I-162500J0D01*
G01*
G37*
%TD*%
D13*
X45200000Y14500000D03*
X45100000Y8200000D03*
X21700000Y11600000D03*
X21700000Y18400000D03*
X38200000Y12300000D03*
X44800000Y20200000D03*
X14600000Y20300000D03*
X15600000Y9700000D03*
X15500000Y6200000D03*
D14*
X57500000Y10700000D03*
D13*
X19400000Y18400000D03*
X19400000Y11600000D03*
X38200000Y8200000D03*
X42800000Y8200000D03*
X42800000Y14500000D03*
X17900000Y6200000D03*
X46800000Y6100000D03*
X24200000Y6300000D03*
X17100000Y18400000D03*
X40500000Y8200000D03*
X40200000Y15000000D03*
M02*
