%TF.GenerationSoftware,KiCad,Pcbnew,(5.1.6)-1*%
%TF.CreationDate,2025-02-09T10:47:56-05:00*%
%TF.ProjectId,test_mother_board,74657374-5f6d-46f7-9468-65725f626f61,rev?*%
%TF.SameCoordinates,PX623a7c0PY510ff40*%
%TF.FileFunction,Copper,L2,Bot*%
%TF.FilePolarity,Positive*%
%FSLAX46Y46*%
G04 Gerber Fmt 4.6, Leading zero omitted, Abs format (unit mm)*
G04 Created by KiCad (PCBNEW (5.1.6)-1) date 2025-02-09 10:47:56*
%MOMM*%
%LPD*%
G01*
G04 APERTURE LIST*
%TA.AperFunction,ComponentPad*%
%ADD10C,2.200000*%
%TD*%
%TA.AperFunction,ComponentPad*%
%ADD11C,1.500000*%
%TD*%
%TA.AperFunction,ViaPad*%
%ADD12C,2.000000*%
%TD*%
%TA.AperFunction,Conductor*%
%ADD13C,1.500000*%
%TD*%
%TA.AperFunction,Conductor*%
%ADD14C,2.000000*%
%TD*%
%TA.AperFunction,Conductor*%
%ADD15C,2.200000*%
%TD*%
%TA.AperFunction,Conductor*%
%ADD16C,0.600000*%
%TD*%
%TA.AperFunction,Conductor*%
%ADD17C,1.000000*%
%TD*%
%TA.AperFunction,Conductor*%
%ADD18C,0.250000*%
%TD*%
G04 APERTURE END LIST*
D10*
%TO.P,REF\u002A\u002A,3*%
%TO.N,T41_TX1*%
X45220000Y5100000D03*
%TO.P,REF\u002A\u002A,2*%
%TO.N,T41_RX1*%
X47760000Y5100000D03*
%TO.P,REF\u002A\u002A,1*%
%TO.N,GND*%
X50300000Y5100000D03*
%TD*%
%TO.P,J7,1*%
%TO.N,Net-(J7-Pad1)*%
X52300000Y19540000D03*
%TO.P,J7,2*%
%TO.N,+5V*%
X52300000Y17000000D03*
%TO.P,J7,3*%
%TO.N,Net-(J7-Pad3)*%
X49760000Y19540000D03*
%TO.P,J7,4*%
%TO.N,+5V*%
X49760000Y17000000D03*
%TO.P,J7,5*%
%TO.N,Net-(J7-Pad5)*%
X47220000Y19540000D03*
%TO.P,J7,6*%
%TO.N,GND*%
X47220000Y17000000D03*
%TO.P,J7,7*%
%TO.N,RPI_LCD_DC*%
X44680000Y19540000D03*
D11*
%TO.P,J7,8*%
%TO.N,T41_RX1*%
X44680000Y17000000D03*
D10*
%TO.P,J7,9*%
%TO.N,GND*%
X42140000Y19540000D03*
D11*
%TO.P,J7,10*%
%TO.N,T41_TX1*%
X42140000Y17000000D03*
D10*
%TO.P,J7,11*%
%TO.N,Net-(J7-Pad11)*%
X39600000Y19540000D03*
%TO.P,J7,12*%
%TO.N,I2S_BCLK*%
X39600000Y17000000D03*
%TO.P,J7,13*%
%TO.N,Net-(J7-Pad13)*%
X37060000Y19540000D03*
%TO.P,J7,14*%
%TO.N,GND*%
X37060000Y17000000D03*
%TO.P,J7,15*%
%TO.N,Net-(J7-Pad15)*%
X34520000Y19540000D03*
%TO.P,J7,16*%
%TO.N,Net-(J7-Pad16)*%
X34520000Y17000000D03*
%TO.P,J7,17*%
%TO.N,Net-(J7-Pad17)*%
X31980000Y19540000D03*
%TO.P,J7,18*%
%TO.N,Net-(J7-Pad18)*%
X31980000Y17000000D03*
%TO.P,J7,19*%
%TO.N,RPI_MOSI*%
X29440000Y19540000D03*
D11*
%TO.P,J7,20*%
%TO.N,GND*%
X29440000Y17000000D03*
D10*
%TO.P,J7,21*%
%TO.N,RPI_MISO*%
X26900000Y19540000D03*
D11*
%TO.P,J7,22*%
%TO.N,Net-(J7-Pad22)*%
X26900000Y17000000D03*
D10*
%TO.P,J7,23*%
%TO.N,RPI_SCLK*%
X24360000Y19540000D03*
D11*
%TO.P,J7,24*%
%TO.N,RPI_LCD_CS*%
X24360000Y17000000D03*
D10*
%TO.P,J7,25*%
%TO.N,GND*%
X21820000Y19540000D03*
D11*
%TO.P,J7,26*%
%TO.N,RPI_T_CS*%
X21820000Y17000000D03*
D10*
%TO.P,J7,27*%
%TO.N,Net-(J7-Pad27)*%
X19280000Y19540000D03*
%TO.P,J7,28*%
%TO.N,Net-(J7-Pad28)*%
X19280000Y17000000D03*
%TO.P,J7,29*%
%TO.N,Net-(J7-Pad29)*%
X16740000Y19540000D03*
%TO.P,J7,30*%
%TO.N,GND*%
X16740000Y17000000D03*
%TO.P,J7,31*%
%TO.N,LED_RPI_BUSY*%
X14200000Y19540000D03*
D11*
%TO.P,J7,32*%
%TO.N,RPI_READY*%
X14200000Y17000000D03*
D10*
%TO.P,J7,33*%
%TO.N,LED_RPI_I2S_RX*%
X11660000Y19540000D03*
D11*
%TO.P,J7,34*%
%TO.N,GND*%
X11660000Y17000000D03*
D10*
%TO.P,J7,35*%
%TO.N,I2S_FCLK*%
X9120000Y19540000D03*
D11*
%TO.P,J7,36*%
%TO.N,LED_RPI_I2S_TX*%
X9120000Y17000000D03*
D10*
%TO.P,J7,37*%
%TO.N,Net-(J7-Pad37)*%
X6580000Y19540000D03*
D11*
%TO.P,J7,38*%
%TO.N,I2S_TXB*%
X6580000Y17000000D03*
D10*
%TO.P,J7,39*%
%TO.N,GND*%
X4040000Y19540000D03*
%TO.P,J7,40*%
%TO.N,I2S_RXB*%
X4040000Y17000000D03*
%TD*%
%TO.P,J4,8*%
%TO.N,+5V*%
X19220000Y5000000D03*
%TO.P,J4,7*%
%TO.N,RPI_T_CS*%
X21760000Y5000000D03*
%TO.P,J4,6*%
%TO.N,RPI_SCLK*%
X24300000Y5000000D03*
%TO.P,J4,5*%
%TO.N,RPI_MISO*%
X26840000Y5000000D03*
%TO.P,J4,4*%
%TO.N,RPI_LCD_DC*%
X29380000Y5000000D03*
%TO.P,J4,3*%
%TO.N,RPI_LCD_CS*%
X31920000Y5000000D03*
%TO.P,J4,2*%
%TO.N,RPI_MOSI*%
X34460000Y5000000D03*
%TO.P,J4,1*%
%TO.N,GND*%
X37000000Y5000000D03*
%TD*%
D12*
%TO.N,+5V*%
X51200000Y13400000D03*
X19200000Y13400000D03*
%TO.N,RPI_LCD_DC*%
X43600000Y10100000D03*
X29380000Y10020000D03*
%TO.N,RPI_LCD_CS*%
X25600000Y12000000D03*
X30100000Y12100000D03*
%TO.N,LED_RPI_BUSY*%
X12500000Y6000000D03*
%TO.N,RPI_READY*%
X15000000Y6000000D03*
%TO.N,LED_RPI_I2S_RX*%
X10000000Y6000000D03*
%TO.N,I2S_FCLK*%
X5000000Y6000000D03*
%TO.N,LED_RPI_I2S_TX*%
X7500000Y6000000D03*
%TO.N,I2S_TXB*%
X2500000Y6000000D03*
%TD*%
D13*
%TO.N,+5V*%
X19200000Y13400000D02*
X19200000Y13400000D01*
X19200000Y13400000D02*
X19200000Y13400000D01*
D14*
X51200000Y17000000D02*
X49800000Y17000000D01*
X52300000Y17000000D02*
X51200000Y17000000D01*
D15*
X51200000Y13400000D02*
X51200000Y17000000D01*
D13*
X19400000Y13400000D02*
X20099980Y12700020D01*
X19200000Y13400000D02*
X19400000Y13400000D01*
X20099980Y6373982D02*
X19200000Y5474002D01*
X20099980Y12700020D02*
X20099980Y6373982D01*
X19200000Y5474002D02*
X19200000Y4800000D01*
%TO.N,RPI_T_CS*%
X21820000Y4980000D02*
X21900000Y4900000D01*
X21799990Y16979990D02*
X21799990Y5000010D01*
X21820000Y17000000D02*
X21799990Y16979990D01*
D16*
%TO.N,RPI_SCLK*%
X24360000Y19540000D02*
X23109999Y18289999D01*
D13*
X24300000Y5600000D02*
X23520010Y6379990D01*
X24300000Y5000000D02*
X24300000Y5600000D01*
X23500000Y13500000D02*
X23500000Y14300000D01*
X23520010Y11979990D02*
X23520010Y13500000D01*
X23520010Y11979990D02*
X23520010Y12800000D01*
X23520010Y6379990D02*
X23520010Y11979990D01*
D16*
X23109999Y15390001D02*
X23109999Y14709999D01*
X23109999Y18289999D02*
X23109999Y15390001D01*
X23500000Y15014436D02*
X23500000Y14300000D01*
X23149979Y15364457D02*
X23500000Y15014436D01*
%TO.N,RPI_MISO*%
X26900000Y19540000D02*
X25649999Y18289999D01*
X25649999Y16399999D02*
X26900000Y15149998D01*
X25649999Y18289999D02*
X25649999Y16399999D01*
X26900000Y15149998D02*
X26900000Y14700000D01*
D13*
X26840000Y10353998D02*
X28100000Y11613998D01*
X26920030Y13479970D02*
X26920030Y14679970D01*
X28100000Y11613998D02*
X28100000Y12300000D01*
X26920030Y14679970D02*
X26900000Y14700000D01*
X28100000Y12300000D02*
X26920030Y13479970D01*
X27600000Y12340000D02*
X27600000Y11620000D01*
X26840000Y10353998D02*
X26840000Y5060000D01*
D16*
%TO.N,RPI_LCD_DC*%
X44680000Y19540000D02*
X43390001Y18250001D01*
X43390001Y18250001D02*
X43390001Y16090001D01*
D15*
X29380000Y5000000D02*
X29380000Y9799999D01*
D17*
X43100009Y10599991D02*
X43600000Y10100000D01*
X43393001Y16106999D02*
X43100009Y15814007D01*
X43100009Y15814007D02*
X43100009Y10599991D01*
D13*
%TO.N,RPI_LCD_CS*%
X25220020Y13504167D02*
X25220020Y13975804D01*
X25199991Y15082227D02*
X24399989Y15882228D01*
X25199991Y13995833D02*
X25199991Y15082227D01*
X24399989Y15882228D02*
X24399989Y17000000D01*
X25220020Y12379980D02*
X25600000Y12000000D01*
X25220020Y13975804D02*
X25220020Y12379980D01*
X25199991Y13995833D02*
X25220020Y13975804D01*
X31920000Y5000000D02*
X31920000Y10580000D01*
X31920000Y10580000D02*
X30500000Y12000000D01*
D16*
%TO.N,RPI_MOSI*%
X28189999Y18289999D02*
X28189999Y14910001D01*
X29440000Y19540000D02*
X28189999Y18289999D01*
D13*
X28950001Y14050001D02*
X28620040Y14379962D01*
X31036001Y14050001D02*
X28950001Y14050001D01*
X33620010Y11465992D02*
X31036001Y14050001D01*
X34100000Y5000000D02*
X33970001Y5129999D01*
X33970001Y5129999D02*
X33970001Y5929999D01*
X33970001Y5929999D02*
X33620010Y6279990D01*
X28620040Y14379962D02*
X28620040Y14910001D01*
X34460000Y5000000D02*
X34100000Y5000000D01*
X33620010Y6279990D02*
X33620010Y11465992D01*
%TO.N,I2S_BCLK*%
X39600000Y17000000D02*
X39600000Y16800000D01*
D16*
%TO.N,LED_RPI_BUSY*%
X12949999Y18289999D02*
X12949999Y15950001D01*
X14200000Y19540000D02*
X12949999Y18289999D01*
D17*
X11630040Y14630042D02*
X12949999Y15950001D01*
X11630040Y11130040D02*
X11630040Y14630042D01*
X11630040Y11130040D02*
X11630040Y9369960D01*
X11630040Y9369960D02*
X12500000Y8500000D01*
X12500000Y8500000D02*
X12500000Y6000000D01*
X12500000Y6000000D02*
X12500000Y6000000D01*
%TO.N,RPI_READY*%
X14150008Y16250008D02*
X14150008Y15452940D01*
X14200000Y17000000D02*
X14200000Y16300000D01*
X14200000Y16300000D02*
X14150008Y16250008D01*
X14150008Y15452940D02*
X12830050Y14132982D01*
X12830050Y14132982D02*
X12830050Y11000000D01*
X12830050Y11000000D02*
X12830050Y10969950D01*
X14500000Y6000000D02*
X14500000Y6000000D01*
X15000000Y8500000D02*
X15000000Y6000000D01*
X12830050Y11000000D02*
X12830050Y10669950D01*
X12830050Y10669950D02*
X15000000Y8500000D01*
D16*
%TO.N,LED_RPI_I2S_RX*%
X10409999Y18289999D02*
X10409999Y15909999D01*
X11660000Y19540000D02*
X10409999Y18289999D01*
D17*
X10430030Y10930030D02*
X10430030Y15909999D01*
X10430030Y10930030D02*
X10430030Y9500000D01*
X10430030Y9500000D02*
X10430030Y9430030D01*
X10430030Y8872900D02*
X10000000Y8442870D01*
X10430030Y9430030D02*
X10430030Y8872900D01*
X10000000Y8442870D02*
X10000000Y6000000D01*
X10000000Y6000000D02*
X10000000Y6000000D01*
D16*
%TO.N,I2S_FCLK*%
X7869999Y18289999D02*
X7869999Y15830001D01*
X9120000Y19540000D02*
X7869999Y18289999D01*
D17*
X8030010Y15338727D02*
X8030010Y15943988D01*
X8030010Y11030010D02*
X8030010Y15338727D01*
X8030010Y9867020D02*
X5000000Y6837010D01*
X8030010Y11030010D02*
X8030010Y9867020D01*
X5000000Y6837010D02*
X5000000Y6000000D01*
X5000000Y6000000D02*
X5000000Y6000000D01*
%TO.N,LED_RPI_I2S_TX*%
X9120000Y16551068D02*
X9120000Y17000000D01*
X9230020Y16441048D02*
X9120000Y16551068D01*
X7500000Y7639940D02*
X9230020Y9369960D01*
X9230020Y9369960D02*
X9230020Y16441048D01*
X7500000Y6000000D02*
X7500000Y6000000D01*
X7500000Y6000000D02*
X7500000Y7639940D01*
%TO.N,I2S_TXB*%
X6580000Y16920000D02*
X6869989Y16630011D01*
X6580000Y17000000D02*
X6580000Y16920000D01*
X6869989Y16481037D02*
X6830000Y16441048D01*
X6869989Y16630011D02*
X6869989Y16481037D01*
X6830000Y10364080D02*
X4465920Y8000000D01*
X6830000Y16441048D02*
X6830000Y10364080D01*
X3799991Y7334071D02*
X2834071Y7334071D01*
X4465920Y8000000D02*
X3799991Y7334071D01*
X2834071Y7334071D02*
X2500000Y7000000D01*
X2500000Y7000000D02*
X2500000Y6000000D01*
X2500000Y6000000D02*
X2500000Y6000000D01*
D13*
%TO.N,I2S_RXB*%
X4040000Y16840000D02*
X3900000Y16700000D01*
X4040000Y17000000D02*
X4040000Y16840000D01*
D17*
%TO.N,T41_RX1*%
X44680000Y16497072D02*
X44800010Y16377062D01*
X44680000Y17000000D02*
X44680000Y16497072D01*
X44680000Y17000000D02*
X44680000Y15696928D01*
X44300019Y15316947D02*
X44300019Y15250001D01*
X44680000Y15696928D02*
X44300019Y15316947D01*
X44300019Y15316947D02*
X44300019Y11800001D01*
X44416001Y11800001D02*
X47800000Y8416002D01*
X44300019Y11800001D02*
X44416001Y11800001D01*
X47800000Y8416002D02*
X47800000Y4900000D01*
%TO.N,T41_TX1*%
X41899999Y15250001D02*
X41899999Y16699999D01*
X41899999Y15250001D02*
X41899999Y15799999D01*
X41899999Y9283999D02*
X45200000Y5983998D01*
X41899999Y15250001D02*
X41899999Y9283999D01*
X45200000Y5983998D02*
X45200000Y5100000D01*
%TD*%
D18*
%TO.N,GND*%
G36*
X55550000Y450000D02*
G01*
X450000Y450000D01*
X450000Y6140350D01*
X1075000Y6140350D01*
X1075000Y5859650D01*
X1129762Y5584343D01*
X1237181Y5325009D01*
X1393130Y5091615D01*
X1591615Y4893130D01*
X1825009Y4737181D01*
X2084343Y4629762D01*
X2359650Y4575000D01*
X2640350Y4575000D01*
X2915657Y4629762D01*
X3174991Y4737181D01*
X3408385Y4893130D01*
X3606870Y5091615D01*
X3750000Y5305824D01*
X3893130Y5091615D01*
X4091615Y4893130D01*
X4325009Y4737181D01*
X4584343Y4629762D01*
X4859650Y4575000D01*
X5140350Y4575000D01*
X5415657Y4629762D01*
X5674991Y4737181D01*
X5908385Y4893130D01*
X6106870Y5091615D01*
X6250000Y5305824D01*
X6393130Y5091615D01*
X6591615Y4893130D01*
X6825009Y4737181D01*
X7084343Y4629762D01*
X7359650Y4575000D01*
X7640350Y4575000D01*
X7915657Y4629762D01*
X8174991Y4737181D01*
X8408385Y4893130D01*
X8606870Y5091615D01*
X8750000Y5305824D01*
X8893130Y5091615D01*
X9091615Y4893130D01*
X9325009Y4737181D01*
X9584343Y4629762D01*
X9859650Y4575000D01*
X10140350Y4575000D01*
X10415657Y4629762D01*
X10674991Y4737181D01*
X10908385Y4893130D01*
X11106870Y5091615D01*
X11250000Y5305824D01*
X11393130Y5091615D01*
X11591615Y4893130D01*
X11825009Y4737181D01*
X12084343Y4629762D01*
X12359650Y4575000D01*
X12640350Y4575000D01*
X12915657Y4629762D01*
X13174991Y4737181D01*
X13408385Y4893130D01*
X13606870Y5091615D01*
X13750000Y5305824D01*
X13893130Y5091615D01*
X14091615Y4893130D01*
X14325009Y4737181D01*
X14584343Y4629762D01*
X14859650Y4575000D01*
X15140350Y4575000D01*
X15415657Y4629762D01*
X15674991Y4737181D01*
X15908385Y4893130D01*
X16106870Y5091615D01*
X16262819Y5325009D01*
X16370238Y5584343D01*
X16425000Y5859650D01*
X16425000Y6140350D01*
X16370238Y6415657D01*
X16262819Y6674991D01*
X16106870Y6908385D01*
X15925000Y7090255D01*
X15925000Y8454566D01*
X15929475Y8500000D01*
X15911615Y8681331D01*
X15888607Y8757181D01*
X15858723Y8855695D01*
X15772830Y9016389D01*
X15708980Y9094190D01*
X15686201Y9121947D01*
X15686199Y9121949D01*
X15657238Y9157238D01*
X15621950Y9186198D01*
X13755050Y11053097D01*
X13755050Y13749835D01*
X14771957Y14766741D01*
X14807246Y14795702D01*
X14842128Y14838205D01*
X14897611Y14905812D01*
X14922838Y14936551D01*
X15008731Y15097245D01*
X15061623Y15271608D01*
X15075008Y15407505D01*
X15075008Y15407506D01*
X15079483Y15452940D01*
X15075008Y15498374D01*
X15075008Y15997990D01*
X15111615Y16118668D01*
X15125000Y16254565D01*
X15125000Y16254573D01*
X15126715Y16271983D01*
X15241271Y16443429D01*
X15329845Y16657265D01*
X15375000Y16884273D01*
X15375000Y17115727D01*
X15329845Y17342735D01*
X15241271Y17556571D01*
X15112682Y17749019D01*
X14949019Y17912682D01*
X14756571Y18041271D01*
X14661668Y18080581D01*
X14922358Y18188562D01*
X15172131Y18355455D01*
X15384545Y18567869D01*
X15470000Y18695761D01*
X15555455Y18567869D01*
X15767869Y18355455D01*
X16017642Y18188562D01*
X16295174Y18073605D01*
X16589801Y18015000D01*
X16890199Y18015000D01*
X17184826Y18073605D01*
X17462358Y18188562D01*
X17712131Y18355455D01*
X17924545Y18567869D01*
X18010000Y18695761D01*
X18095455Y18567869D01*
X18307869Y18355455D01*
X18435761Y18270000D01*
X18307869Y18184545D01*
X18095455Y17972131D01*
X17928562Y17722358D01*
X17813605Y17444826D01*
X17755000Y17150199D01*
X17755000Y16849801D01*
X17813605Y16555174D01*
X17928562Y16277642D01*
X18095455Y16027869D01*
X18307869Y15815455D01*
X18557642Y15648562D01*
X18835174Y15533605D01*
X19129801Y15475000D01*
X19430199Y15475000D01*
X19724826Y15533605D01*
X20002358Y15648562D01*
X20252131Y15815455D01*
X20464545Y16027869D01*
X20624990Y16267992D01*
X20624990Y13836710D01*
X20516636Y13945064D01*
X20462819Y14074991D01*
X20306870Y14308385D01*
X20108385Y14506870D01*
X19874991Y14662819D01*
X19615657Y14770238D01*
X19340350Y14825000D01*
X19059650Y14825000D01*
X18784343Y14770238D01*
X18525009Y14662819D01*
X18291615Y14506870D01*
X18093130Y14308385D01*
X17937181Y14074991D01*
X17829762Y13815657D01*
X17775000Y13540350D01*
X17775000Y13259650D01*
X17829762Y12984343D01*
X17937181Y12725009D01*
X18093130Y12491615D01*
X18291615Y12293130D01*
X18525009Y12137181D01*
X18784343Y12029762D01*
X18924980Y12001788D01*
X18924981Y6860684D01*
X18409966Y6345668D01*
X18365130Y6308872D01*
X18281587Y6207075D01*
X18247869Y6184545D01*
X18035455Y5972131D01*
X17868562Y5722358D01*
X17753605Y5444826D01*
X17695000Y5150199D01*
X17695000Y4849801D01*
X17753605Y4555174D01*
X17868562Y4277642D01*
X18035455Y4027869D01*
X18247869Y3815455D01*
X18497642Y3648562D01*
X18775174Y3533605D01*
X19069801Y3475000D01*
X19370199Y3475000D01*
X19664826Y3533605D01*
X19942358Y3648562D01*
X20192131Y3815455D01*
X20404545Y4027869D01*
X20490000Y4155761D01*
X20575455Y4027869D01*
X20787869Y3815455D01*
X21037642Y3648562D01*
X21315174Y3533605D01*
X21609801Y3475000D01*
X21910199Y3475000D01*
X22204826Y3533605D01*
X22482358Y3648562D01*
X22732131Y3815455D01*
X22944545Y4027869D01*
X23030000Y4155761D01*
X23115455Y4027869D01*
X23327869Y3815455D01*
X23577642Y3648562D01*
X23855174Y3533605D01*
X24149801Y3475000D01*
X24450199Y3475000D01*
X24744826Y3533605D01*
X25022358Y3648562D01*
X25272131Y3815455D01*
X25484545Y4027869D01*
X25570000Y4155761D01*
X25655455Y4027869D01*
X25867869Y3815455D01*
X26117642Y3648562D01*
X26395174Y3533605D01*
X26689801Y3475000D01*
X26990199Y3475000D01*
X27284826Y3533605D01*
X27562358Y3648562D01*
X27812131Y3815455D01*
X28024545Y4027869D01*
X28105598Y4149173D01*
X28105874Y4148657D01*
X28153625Y4090472D01*
X28195455Y4027869D01*
X28248694Y3974630D01*
X28296445Y3916445D01*
X28354632Y3868692D01*
X28407869Y3815455D01*
X28470468Y3773627D01*
X28528656Y3725874D01*
X28595042Y3690390D01*
X28657642Y3648562D01*
X28727198Y3619751D01*
X28793584Y3584267D01*
X28865619Y3562415D01*
X28935174Y3533605D01*
X29009013Y3518917D01*
X29081048Y3497066D01*
X29155960Y3489688D01*
X29229801Y3475000D01*
X29305089Y3475000D01*
X29380000Y3467622D01*
X29454910Y3475000D01*
X29530199Y3475000D01*
X29604040Y3489688D01*
X29678951Y3497066D01*
X29750984Y3518917D01*
X29824826Y3533605D01*
X29894384Y3562417D01*
X29966415Y3584267D01*
X30032798Y3619749D01*
X30102358Y3648562D01*
X30164962Y3690392D01*
X30231343Y3725874D01*
X30289528Y3773625D01*
X30352131Y3815455D01*
X30405370Y3868694D01*
X30463555Y3916445D01*
X30511308Y3974632D01*
X30564545Y4027869D01*
X30606373Y4090468D01*
X30654126Y4148656D01*
X30654402Y4149173D01*
X30735455Y4027869D01*
X30947869Y3815455D01*
X31197642Y3648562D01*
X31475174Y3533605D01*
X31769801Y3475000D01*
X32070199Y3475000D01*
X32364826Y3533605D01*
X32642358Y3648562D01*
X32892131Y3815455D01*
X33104545Y4027869D01*
X33190000Y4155761D01*
X33275455Y4027869D01*
X33487869Y3815455D01*
X33737642Y3648562D01*
X34015174Y3533605D01*
X34309801Y3475000D01*
X34610199Y3475000D01*
X34904826Y3533605D01*
X35182358Y3648562D01*
X35432131Y3815455D01*
X35644545Y4027869D01*
X35811438Y4277642D01*
X35926395Y4555174D01*
X35985000Y4849801D01*
X35985000Y5150199D01*
X35926395Y5444826D01*
X35811438Y5722358D01*
X35644545Y5972131D01*
X35432131Y6184545D01*
X35182358Y6351438D01*
X35047112Y6407458D01*
X34951705Y6585952D01*
X34804871Y6764869D01*
X34795010Y6772962D01*
X34795010Y11408280D01*
X34800694Y11465992D01*
X34795010Y11523704D01*
X34795010Y11523712D01*
X34778008Y11696332D01*
X34761835Y11749650D01*
X34710821Y11917821D01*
X34680258Y11975000D01*
X34601714Y12121945D01*
X34454880Y12300862D01*
X34410043Y12337659D01*
X31907665Y14840037D01*
X31870871Y14884871D01*
X31691954Y15031705D01*
X31487830Y15140812D01*
X31266341Y15207999D01*
X31093721Y15225001D01*
X31093713Y15225001D01*
X31036001Y15230685D01*
X30978289Y15225001D01*
X29752357Y15225001D01*
X29710851Y15361829D01*
X29601744Y15565954D01*
X29454910Y15744871D01*
X29275993Y15891705D01*
X29071869Y16000812D01*
X28914999Y16048397D01*
X28914999Y17989695D01*
X28998290Y18072985D01*
X29289801Y18015000D01*
X29590199Y18015000D01*
X29884826Y18073605D01*
X30162358Y18188562D01*
X30412131Y18355455D01*
X30624545Y18567869D01*
X30710000Y18695761D01*
X30795455Y18567869D01*
X31007869Y18355455D01*
X31135761Y18270000D01*
X31007869Y18184545D01*
X30795455Y17972131D01*
X30628562Y17722358D01*
X30513605Y17444826D01*
X30455000Y17150199D01*
X30455000Y16849801D01*
X30513605Y16555174D01*
X30628562Y16277642D01*
X30795455Y16027869D01*
X31007869Y15815455D01*
X31257642Y15648562D01*
X31535174Y15533605D01*
X31829801Y15475000D01*
X32130199Y15475000D01*
X32424826Y15533605D01*
X32702358Y15648562D01*
X32952131Y15815455D01*
X33164545Y16027869D01*
X33250000Y16155761D01*
X33335455Y16027869D01*
X33547869Y15815455D01*
X33797642Y15648562D01*
X34075174Y15533605D01*
X34369801Y15475000D01*
X34670199Y15475000D01*
X34964826Y15533605D01*
X35242358Y15648562D01*
X35492131Y15815455D01*
X35704545Y16027869D01*
X35871438Y16277642D01*
X35986395Y16555174D01*
X36045000Y16849801D01*
X36045000Y17150199D01*
X35986395Y17444826D01*
X35871438Y17722358D01*
X35704545Y17972131D01*
X35492131Y18184545D01*
X35364239Y18270000D01*
X35492131Y18355455D01*
X35704545Y18567869D01*
X35790000Y18695761D01*
X35875455Y18567869D01*
X36087869Y18355455D01*
X36337642Y18188562D01*
X36615174Y18073605D01*
X36909801Y18015000D01*
X37210199Y18015000D01*
X37504826Y18073605D01*
X37782358Y18188562D01*
X38032131Y18355455D01*
X38244545Y18567869D01*
X38330000Y18695761D01*
X38415455Y18567869D01*
X38627869Y18355455D01*
X38755761Y18270000D01*
X38627869Y18184545D01*
X38415455Y17972131D01*
X38248562Y17722358D01*
X38133605Y17444826D01*
X38075000Y17150199D01*
X38075000Y16849801D01*
X38133605Y16555174D01*
X38248562Y16277642D01*
X38415455Y16027869D01*
X38627869Y15815455D01*
X38877642Y15648562D01*
X39155174Y15533605D01*
X39449801Y15475000D01*
X39750199Y15475000D01*
X40044826Y15533605D01*
X40322358Y15648562D01*
X40572131Y15815455D01*
X40784545Y16027869D01*
X40951438Y16277642D01*
X40975000Y16334525D01*
X40974999Y15845438D01*
X40974999Y15295435D01*
X40975000Y9329436D01*
X40970525Y9283999D01*
X40988384Y9102668D01*
X41041276Y8928305D01*
X41127169Y8767611D01*
X41213798Y8662053D01*
X41213801Y8662050D01*
X41242762Y8626761D01*
X41278051Y8597800D01*
X43942635Y5933216D01*
X43868562Y5822358D01*
X43753605Y5544826D01*
X43695000Y5250199D01*
X43695000Y4949801D01*
X43753605Y4655174D01*
X43868562Y4377642D01*
X44035455Y4127869D01*
X44247869Y3915455D01*
X44497642Y3748562D01*
X44775174Y3633605D01*
X45069801Y3575000D01*
X45370199Y3575000D01*
X45664826Y3633605D01*
X45942358Y3748562D01*
X46192131Y3915455D01*
X46404545Y4127869D01*
X46490000Y4255761D01*
X46575455Y4127869D01*
X46787869Y3915455D01*
X47037642Y3748562D01*
X47315174Y3633605D01*
X47609801Y3575000D01*
X47910199Y3575000D01*
X48204826Y3633605D01*
X48482358Y3748562D01*
X48732131Y3915455D01*
X48944545Y4127869D01*
X49111438Y4377642D01*
X49226395Y4655174D01*
X49285000Y4949801D01*
X49285000Y5250199D01*
X49226395Y5544826D01*
X49111438Y5822358D01*
X48944545Y6072131D01*
X48732131Y6284545D01*
X48725000Y6289310D01*
X48725000Y8370576D01*
X48729474Y8416003D01*
X48725000Y8461430D01*
X48725000Y8461437D01*
X48711615Y8597334D01*
X48658723Y8771697D01*
X48572830Y8932391D01*
X48457238Y9073240D01*
X48421945Y9102204D01*
X45225019Y12299130D01*
X45225019Y14933801D01*
X45301939Y15010721D01*
X45337238Y15039690D01*
X45452830Y15180539D01*
X45538723Y15341233D01*
X45591615Y15515596D01*
X45605000Y15651493D01*
X45605000Y15651500D01*
X45609474Y15696927D01*
X45605000Y15742354D01*
X45605000Y15920841D01*
X45658733Y16021368D01*
X45711625Y16195731D01*
X45729485Y16377062D01*
X45722626Y16446700D01*
X45809845Y16657265D01*
X45855000Y16884273D01*
X45855000Y17115727D01*
X45809845Y17342735D01*
X45721271Y17556571D01*
X45592682Y17749019D01*
X45429019Y17912682D01*
X45236571Y18041271D01*
X45141668Y18080581D01*
X45402358Y18188562D01*
X45652131Y18355455D01*
X45864545Y18567869D01*
X45950000Y18695761D01*
X46035455Y18567869D01*
X46247869Y18355455D01*
X46497642Y18188562D01*
X46775174Y18073605D01*
X47069801Y18015000D01*
X47370199Y18015000D01*
X47664826Y18073605D01*
X47942358Y18188562D01*
X48192131Y18355455D01*
X48404545Y18567869D01*
X48490000Y18695761D01*
X48575455Y18567869D01*
X48787869Y18355455D01*
X48915761Y18270000D01*
X48787869Y18184545D01*
X48575455Y17972131D01*
X48408562Y17722358D01*
X48293605Y17444826D01*
X48235000Y17150199D01*
X48235000Y16849801D01*
X48293605Y16555174D01*
X48408562Y16277642D01*
X48575455Y16027869D01*
X48787869Y15815455D01*
X49037642Y15648562D01*
X49315174Y15533605D01*
X49609801Y15475000D01*
X49675001Y15475000D01*
X49675000Y13325090D01*
X49697066Y13101049D01*
X49784267Y12813585D01*
X49925874Y12548657D01*
X50116445Y12316445D01*
X50348656Y12125874D01*
X50613584Y11984267D01*
X50901048Y11897066D01*
X51200000Y11867622D01*
X51498951Y11897066D01*
X51786415Y11984267D01*
X52051343Y12125874D01*
X52283555Y12316445D01*
X52474126Y12548656D01*
X52615733Y12813584D01*
X52702934Y13101048D01*
X52725000Y13325089D01*
X52725000Y15529661D01*
X52744826Y15533605D01*
X53022358Y15648562D01*
X53272131Y15815455D01*
X53484545Y16027869D01*
X53651438Y16277642D01*
X53766395Y16555174D01*
X53825000Y16849801D01*
X53825000Y17150199D01*
X53766395Y17444826D01*
X53651438Y17722358D01*
X53484545Y17972131D01*
X53272131Y18184545D01*
X53144239Y18270000D01*
X53272131Y18355455D01*
X53484545Y18567869D01*
X53651438Y18817642D01*
X53766395Y19095174D01*
X53825000Y19389801D01*
X53825000Y19690199D01*
X53766395Y19984826D01*
X53651438Y20262358D01*
X53484545Y20512131D01*
X53272131Y20724545D01*
X53022358Y20891438D01*
X52744826Y21006395D01*
X52450199Y21065000D01*
X52149801Y21065000D01*
X51855174Y21006395D01*
X51577642Y20891438D01*
X51327869Y20724545D01*
X51115455Y20512131D01*
X51030000Y20384239D01*
X50944545Y20512131D01*
X50732131Y20724545D01*
X50482358Y20891438D01*
X50204826Y21006395D01*
X49910199Y21065000D01*
X49609801Y21065000D01*
X49315174Y21006395D01*
X49037642Y20891438D01*
X48787869Y20724545D01*
X48575455Y20512131D01*
X48490000Y20384239D01*
X48404545Y20512131D01*
X48192131Y20724545D01*
X47942358Y20891438D01*
X47664826Y21006395D01*
X47370199Y21065000D01*
X47069801Y21065000D01*
X46775174Y21006395D01*
X46497642Y20891438D01*
X46247869Y20724545D01*
X46035455Y20512131D01*
X45950000Y20384239D01*
X45864545Y20512131D01*
X45652131Y20724545D01*
X45402358Y20891438D01*
X45124826Y21006395D01*
X44830199Y21065000D01*
X44529801Y21065000D01*
X44235174Y21006395D01*
X43957642Y20891438D01*
X43707869Y20724545D01*
X43495455Y20512131D01*
X43328562Y20262358D01*
X43213605Y19984826D01*
X43155000Y19690199D01*
X43155000Y19389801D01*
X43212985Y19098290D01*
X42902525Y18787829D01*
X42874869Y18765132D01*
X42852173Y18737477D01*
X42852171Y18737475D01*
X42784271Y18654738D01*
X42784270Y18654737D01*
X42716948Y18528788D01*
X42675492Y18392125D01*
X42665001Y18285607D01*
X42665001Y18285598D01*
X42661495Y18250001D01*
X42665001Y18214404D01*
X42665001Y18054348D01*
X42482735Y18129845D01*
X42255727Y18175000D01*
X42024273Y18175000D01*
X41797265Y18129845D01*
X41583429Y18041271D01*
X41390981Y17912682D01*
X41227318Y17749019D01*
X41098729Y17556571D01*
X41059419Y17461668D01*
X40951438Y17722358D01*
X40784545Y17972131D01*
X40572131Y18184545D01*
X40444239Y18270000D01*
X40572131Y18355455D01*
X40784545Y18567869D01*
X40951438Y18817642D01*
X41066395Y19095174D01*
X41125000Y19389801D01*
X41125000Y19690199D01*
X41066395Y19984826D01*
X40951438Y20262358D01*
X40784545Y20512131D01*
X40572131Y20724545D01*
X40322358Y20891438D01*
X40044826Y21006395D01*
X39750199Y21065000D01*
X39449801Y21065000D01*
X39155174Y21006395D01*
X38877642Y20891438D01*
X38627869Y20724545D01*
X38415455Y20512131D01*
X38330000Y20384239D01*
X38244545Y20512131D01*
X38032131Y20724545D01*
X37782358Y20891438D01*
X37504826Y21006395D01*
X37210199Y21065000D01*
X36909801Y21065000D01*
X36615174Y21006395D01*
X36337642Y20891438D01*
X36087869Y20724545D01*
X35875455Y20512131D01*
X35790000Y20384239D01*
X35704545Y20512131D01*
X35492131Y20724545D01*
X35242358Y20891438D01*
X34964826Y21006395D01*
X34670199Y21065000D01*
X34369801Y21065000D01*
X34075174Y21006395D01*
X33797642Y20891438D01*
X33547869Y20724545D01*
X33335455Y20512131D01*
X33250000Y20384239D01*
X33164545Y20512131D01*
X32952131Y20724545D01*
X32702358Y20891438D01*
X32424826Y21006395D01*
X32130199Y21065000D01*
X31829801Y21065000D01*
X31535174Y21006395D01*
X31257642Y20891438D01*
X31007869Y20724545D01*
X30795455Y20512131D01*
X30710000Y20384239D01*
X30624545Y20512131D01*
X30412131Y20724545D01*
X30162358Y20891438D01*
X29884826Y21006395D01*
X29590199Y21065000D01*
X29289801Y21065000D01*
X28995174Y21006395D01*
X28717642Y20891438D01*
X28467869Y20724545D01*
X28255455Y20512131D01*
X28170000Y20384239D01*
X28084545Y20512131D01*
X27872131Y20724545D01*
X27622358Y20891438D01*
X27344826Y21006395D01*
X27050199Y21065000D01*
X26749801Y21065000D01*
X26455174Y21006395D01*
X26177642Y20891438D01*
X25927869Y20724545D01*
X25715455Y20512131D01*
X25630000Y20384239D01*
X25544545Y20512131D01*
X25332131Y20724545D01*
X25082358Y20891438D01*
X24804826Y21006395D01*
X24510199Y21065000D01*
X24209801Y21065000D01*
X23915174Y21006395D01*
X23637642Y20891438D01*
X23387869Y20724545D01*
X23175455Y20512131D01*
X23008562Y20262358D01*
X22893605Y19984826D01*
X22835000Y19690199D01*
X22835000Y19389801D01*
X22892985Y19098290D01*
X22622523Y18827827D01*
X22594867Y18805130D01*
X22504268Y18694735D01*
X22436946Y18568786D01*
X22395490Y18432123D01*
X22384999Y18325605D01*
X22384999Y18325596D01*
X22381493Y18289999D01*
X22384999Y18254402D01*
X22384999Y18035640D01*
X22376571Y18041271D01*
X22322973Y18063472D01*
X22271828Y18090810D01*
X22216330Y18107645D01*
X22162735Y18129845D01*
X22105840Y18141162D01*
X22050340Y18157998D01*
X21992624Y18163682D01*
X21935727Y18175000D01*
X21877711Y18175000D01*
X21819999Y18180684D01*
X21762287Y18175000D01*
X21704273Y18175000D01*
X21647377Y18163683D01*
X21589659Y18157998D01*
X21534158Y18141162D01*
X21477265Y18129845D01*
X21423671Y18107646D01*
X21368172Y18090810D01*
X21317026Y18063472D01*
X21263429Y18041271D01*
X21215189Y18009038D01*
X21164047Y17981702D01*
X21119222Y17944915D01*
X21070981Y17912682D01*
X21009951Y17851652D01*
X20965120Y17814860D01*
X20928329Y17770030D01*
X20907318Y17749019D01*
X20890810Y17724313D01*
X20818286Y17635942D01*
X20754383Y17516388D01*
X20733182Y17476725D01*
X20631438Y17722358D01*
X20464545Y17972131D01*
X20252131Y18184545D01*
X20124239Y18270000D01*
X20252131Y18355455D01*
X20464545Y18567869D01*
X20631438Y18817642D01*
X20746395Y19095174D01*
X20805000Y19389801D01*
X20805000Y19690199D01*
X20746395Y19984826D01*
X20631438Y20262358D01*
X20464545Y20512131D01*
X20252131Y20724545D01*
X20002358Y20891438D01*
X19724826Y21006395D01*
X19430199Y21065000D01*
X19129801Y21065000D01*
X18835174Y21006395D01*
X18557642Y20891438D01*
X18307869Y20724545D01*
X18095455Y20512131D01*
X18010000Y20384239D01*
X17924545Y20512131D01*
X17712131Y20724545D01*
X17462358Y20891438D01*
X17184826Y21006395D01*
X16890199Y21065000D01*
X16589801Y21065000D01*
X16295174Y21006395D01*
X16017642Y20891438D01*
X15767869Y20724545D01*
X15555455Y20512131D01*
X15470000Y20384239D01*
X15384545Y20512131D01*
X15172131Y20724545D01*
X14922358Y20891438D01*
X14644826Y21006395D01*
X14350199Y21065000D01*
X14049801Y21065000D01*
X13755174Y21006395D01*
X13477642Y20891438D01*
X13227869Y20724545D01*
X13015455Y20512131D01*
X12930000Y20384239D01*
X12844545Y20512131D01*
X12632131Y20724545D01*
X12382358Y20891438D01*
X12104826Y21006395D01*
X11810199Y21065000D01*
X11509801Y21065000D01*
X11215174Y21006395D01*
X10937642Y20891438D01*
X10687869Y20724545D01*
X10475455Y20512131D01*
X10390000Y20384239D01*
X10304545Y20512131D01*
X10092131Y20724545D01*
X9842358Y20891438D01*
X9564826Y21006395D01*
X9270199Y21065000D01*
X8969801Y21065000D01*
X8675174Y21006395D01*
X8397642Y20891438D01*
X8147869Y20724545D01*
X7935455Y20512131D01*
X7850000Y20384239D01*
X7764545Y20512131D01*
X7552131Y20724545D01*
X7302358Y20891438D01*
X7024826Y21006395D01*
X6730199Y21065000D01*
X6429801Y21065000D01*
X6135174Y21006395D01*
X5857642Y20891438D01*
X5607869Y20724545D01*
X5395455Y20512131D01*
X5228562Y20262358D01*
X5113605Y19984826D01*
X5055000Y19690199D01*
X5055000Y19389801D01*
X5113605Y19095174D01*
X5228562Y18817642D01*
X5395455Y18567869D01*
X5607869Y18355455D01*
X5857642Y18188562D01*
X6118332Y18080581D01*
X6023429Y18041271D01*
X5830981Y17912682D01*
X5667318Y17749019D01*
X5538729Y17556571D01*
X5499419Y17461668D01*
X5391438Y17722358D01*
X5224545Y17972131D01*
X5012131Y18184545D01*
X4762358Y18351438D01*
X4484826Y18466395D01*
X4190199Y18525000D01*
X3889801Y18525000D01*
X3595174Y18466395D01*
X3317642Y18351438D01*
X3067869Y18184545D01*
X2855455Y17972131D01*
X2688562Y17722358D01*
X2573605Y17444826D01*
X2515000Y17150199D01*
X2515000Y16849801D01*
X2573605Y16555174D01*
X2688562Y16277642D01*
X2855455Y16027869D01*
X3067869Y15815455D01*
X3317642Y15648562D01*
X3595174Y15533605D01*
X3889801Y15475000D01*
X4190199Y15475000D01*
X4484826Y15533605D01*
X4762358Y15648562D01*
X5012131Y15815455D01*
X5224545Y16027869D01*
X5391438Y16277642D01*
X5499419Y16538332D01*
X5538729Y16443429D01*
X5667318Y16250981D01*
X5830981Y16087318D01*
X5905000Y16037860D01*
X5905001Y10747229D01*
X3843978Y8686205D01*
X3843973Y8686201D01*
X3416844Y8259071D01*
X2879505Y8259071D01*
X2834071Y8263546D01*
X2788637Y8259071D01*
X2788636Y8259071D01*
X2652739Y8245686D01*
X2478376Y8192794D01*
X2317682Y8106901D01*
X2176833Y7991309D01*
X2147870Y7956017D01*
X1878057Y7686204D01*
X1842762Y7657238D01*
X1727170Y7516388D01*
X1641277Y7355694D01*
X1588385Y7181331D01*
X1579897Y7095152D01*
X1393130Y6908385D01*
X1237181Y6674991D01*
X1129762Y6415657D01*
X1075000Y6140350D01*
X450000Y6140350D01*
X450000Y22550000D01*
X55550001Y22550000D01*
X55550000Y450000D01*
G37*
X55550000Y450000D02*
X450000Y450000D01*
X450000Y6140350D01*
X1075000Y6140350D01*
X1075000Y5859650D01*
X1129762Y5584343D01*
X1237181Y5325009D01*
X1393130Y5091615D01*
X1591615Y4893130D01*
X1825009Y4737181D01*
X2084343Y4629762D01*
X2359650Y4575000D01*
X2640350Y4575000D01*
X2915657Y4629762D01*
X3174991Y4737181D01*
X3408385Y4893130D01*
X3606870Y5091615D01*
X3750000Y5305824D01*
X3893130Y5091615D01*
X4091615Y4893130D01*
X4325009Y4737181D01*
X4584343Y4629762D01*
X4859650Y4575000D01*
X5140350Y4575000D01*
X5415657Y4629762D01*
X5674991Y4737181D01*
X5908385Y4893130D01*
X6106870Y5091615D01*
X6250000Y5305824D01*
X6393130Y5091615D01*
X6591615Y4893130D01*
X6825009Y4737181D01*
X7084343Y4629762D01*
X7359650Y4575000D01*
X7640350Y4575000D01*
X7915657Y4629762D01*
X8174991Y4737181D01*
X8408385Y4893130D01*
X8606870Y5091615D01*
X8750000Y5305824D01*
X8893130Y5091615D01*
X9091615Y4893130D01*
X9325009Y4737181D01*
X9584343Y4629762D01*
X9859650Y4575000D01*
X10140350Y4575000D01*
X10415657Y4629762D01*
X10674991Y4737181D01*
X10908385Y4893130D01*
X11106870Y5091615D01*
X11250000Y5305824D01*
X11393130Y5091615D01*
X11591615Y4893130D01*
X11825009Y4737181D01*
X12084343Y4629762D01*
X12359650Y4575000D01*
X12640350Y4575000D01*
X12915657Y4629762D01*
X13174991Y4737181D01*
X13408385Y4893130D01*
X13606870Y5091615D01*
X13750000Y5305824D01*
X13893130Y5091615D01*
X14091615Y4893130D01*
X14325009Y4737181D01*
X14584343Y4629762D01*
X14859650Y4575000D01*
X15140350Y4575000D01*
X15415657Y4629762D01*
X15674991Y4737181D01*
X15908385Y4893130D01*
X16106870Y5091615D01*
X16262819Y5325009D01*
X16370238Y5584343D01*
X16425000Y5859650D01*
X16425000Y6140350D01*
X16370238Y6415657D01*
X16262819Y6674991D01*
X16106870Y6908385D01*
X15925000Y7090255D01*
X15925000Y8454566D01*
X15929475Y8500000D01*
X15911615Y8681331D01*
X15888607Y8757181D01*
X15858723Y8855695D01*
X15772830Y9016389D01*
X15708980Y9094190D01*
X15686201Y9121947D01*
X15686199Y9121949D01*
X15657238Y9157238D01*
X15621950Y9186198D01*
X13755050Y11053097D01*
X13755050Y13749835D01*
X14771957Y14766741D01*
X14807246Y14795702D01*
X14842128Y14838205D01*
X14897611Y14905812D01*
X14922838Y14936551D01*
X15008731Y15097245D01*
X15061623Y15271608D01*
X15075008Y15407505D01*
X15075008Y15407506D01*
X15079483Y15452940D01*
X15075008Y15498374D01*
X15075008Y15997990D01*
X15111615Y16118668D01*
X15125000Y16254565D01*
X15125000Y16254573D01*
X15126715Y16271983D01*
X15241271Y16443429D01*
X15329845Y16657265D01*
X15375000Y16884273D01*
X15375000Y17115727D01*
X15329845Y17342735D01*
X15241271Y17556571D01*
X15112682Y17749019D01*
X14949019Y17912682D01*
X14756571Y18041271D01*
X14661668Y18080581D01*
X14922358Y18188562D01*
X15172131Y18355455D01*
X15384545Y18567869D01*
X15470000Y18695761D01*
X15555455Y18567869D01*
X15767869Y18355455D01*
X16017642Y18188562D01*
X16295174Y18073605D01*
X16589801Y18015000D01*
X16890199Y18015000D01*
X17184826Y18073605D01*
X17462358Y18188562D01*
X17712131Y18355455D01*
X17924545Y18567869D01*
X18010000Y18695761D01*
X18095455Y18567869D01*
X18307869Y18355455D01*
X18435761Y18270000D01*
X18307869Y18184545D01*
X18095455Y17972131D01*
X17928562Y17722358D01*
X17813605Y17444826D01*
X17755000Y17150199D01*
X17755000Y16849801D01*
X17813605Y16555174D01*
X17928562Y16277642D01*
X18095455Y16027869D01*
X18307869Y15815455D01*
X18557642Y15648562D01*
X18835174Y15533605D01*
X19129801Y15475000D01*
X19430199Y15475000D01*
X19724826Y15533605D01*
X20002358Y15648562D01*
X20252131Y15815455D01*
X20464545Y16027869D01*
X20624990Y16267992D01*
X20624990Y13836710D01*
X20516636Y13945064D01*
X20462819Y14074991D01*
X20306870Y14308385D01*
X20108385Y14506870D01*
X19874991Y14662819D01*
X19615657Y14770238D01*
X19340350Y14825000D01*
X19059650Y14825000D01*
X18784343Y14770238D01*
X18525009Y14662819D01*
X18291615Y14506870D01*
X18093130Y14308385D01*
X17937181Y14074991D01*
X17829762Y13815657D01*
X17775000Y13540350D01*
X17775000Y13259650D01*
X17829762Y12984343D01*
X17937181Y12725009D01*
X18093130Y12491615D01*
X18291615Y12293130D01*
X18525009Y12137181D01*
X18784343Y12029762D01*
X18924980Y12001788D01*
X18924981Y6860684D01*
X18409966Y6345668D01*
X18365130Y6308872D01*
X18281587Y6207075D01*
X18247869Y6184545D01*
X18035455Y5972131D01*
X17868562Y5722358D01*
X17753605Y5444826D01*
X17695000Y5150199D01*
X17695000Y4849801D01*
X17753605Y4555174D01*
X17868562Y4277642D01*
X18035455Y4027869D01*
X18247869Y3815455D01*
X18497642Y3648562D01*
X18775174Y3533605D01*
X19069801Y3475000D01*
X19370199Y3475000D01*
X19664826Y3533605D01*
X19942358Y3648562D01*
X20192131Y3815455D01*
X20404545Y4027869D01*
X20490000Y4155761D01*
X20575455Y4027869D01*
X20787869Y3815455D01*
X21037642Y3648562D01*
X21315174Y3533605D01*
X21609801Y3475000D01*
X21910199Y3475000D01*
X22204826Y3533605D01*
X22482358Y3648562D01*
X22732131Y3815455D01*
X22944545Y4027869D01*
X23030000Y4155761D01*
X23115455Y4027869D01*
X23327869Y3815455D01*
X23577642Y3648562D01*
X23855174Y3533605D01*
X24149801Y3475000D01*
X24450199Y3475000D01*
X24744826Y3533605D01*
X25022358Y3648562D01*
X25272131Y3815455D01*
X25484545Y4027869D01*
X25570000Y4155761D01*
X25655455Y4027869D01*
X25867869Y3815455D01*
X26117642Y3648562D01*
X26395174Y3533605D01*
X26689801Y3475000D01*
X26990199Y3475000D01*
X27284826Y3533605D01*
X27562358Y3648562D01*
X27812131Y3815455D01*
X28024545Y4027869D01*
X28105598Y4149173D01*
X28105874Y4148657D01*
X28153625Y4090472D01*
X28195455Y4027869D01*
X28248694Y3974630D01*
X28296445Y3916445D01*
X28354632Y3868692D01*
X28407869Y3815455D01*
X28470468Y3773627D01*
X28528656Y3725874D01*
X28595042Y3690390D01*
X28657642Y3648562D01*
X28727198Y3619751D01*
X28793584Y3584267D01*
X28865619Y3562415D01*
X28935174Y3533605D01*
X29009013Y3518917D01*
X29081048Y3497066D01*
X29155960Y3489688D01*
X29229801Y3475000D01*
X29305089Y3475000D01*
X29380000Y3467622D01*
X29454910Y3475000D01*
X29530199Y3475000D01*
X29604040Y3489688D01*
X29678951Y3497066D01*
X29750984Y3518917D01*
X29824826Y3533605D01*
X29894384Y3562417D01*
X29966415Y3584267D01*
X30032798Y3619749D01*
X30102358Y3648562D01*
X30164962Y3690392D01*
X30231343Y3725874D01*
X30289528Y3773625D01*
X30352131Y3815455D01*
X30405370Y3868694D01*
X30463555Y3916445D01*
X30511308Y3974632D01*
X30564545Y4027869D01*
X30606373Y4090468D01*
X30654126Y4148656D01*
X30654402Y4149173D01*
X30735455Y4027869D01*
X30947869Y3815455D01*
X31197642Y3648562D01*
X31475174Y3533605D01*
X31769801Y3475000D01*
X32070199Y3475000D01*
X32364826Y3533605D01*
X32642358Y3648562D01*
X32892131Y3815455D01*
X33104545Y4027869D01*
X33190000Y4155761D01*
X33275455Y4027869D01*
X33487869Y3815455D01*
X33737642Y3648562D01*
X34015174Y3533605D01*
X34309801Y3475000D01*
X34610199Y3475000D01*
X34904826Y3533605D01*
X35182358Y3648562D01*
X35432131Y3815455D01*
X35644545Y4027869D01*
X35811438Y4277642D01*
X35926395Y4555174D01*
X35985000Y4849801D01*
X35985000Y5150199D01*
X35926395Y5444826D01*
X35811438Y5722358D01*
X35644545Y5972131D01*
X35432131Y6184545D01*
X35182358Y6351438D01*
X35047112Y6407458D01*
X34951705Y6585952D01*
X34804871Y6764869D01*
X34795010Y6772962D01*
X34795010Y11408280D01*
X34800694Y11465992D01*
X34795010Y11523704D01*
X34795010Y11523712D01*
X34778008Y11696332D01*
X34761835Y11749650D01*
X34710821Y11917821D01*
X34680258Y11975000D01*
X34601714Y12121945D01*
X34454880Y12300862D01*
X34410043Y12337659D01*
X31907665Y14840037D01*
X31870871Y14884871D01*
X31691954Y15031705D01*
X31487830Y15140812D01*
X31266341Y15207999D01*
X31093721Y15225001D01*
X31093713Y15225001D01*
X31036001Y15230685D01*
X30978289Y15225001D01*
X29752357Y15225001D01*
X29710851Y15361829D01*
X29601744Y15565954D01*
X29454910Y15744871D01*
X29275993Y15891705D01*
X29071869Y16000812D01*
X28914999Y16048397D01*
X28914999Y17989695D01*
X28998290Y18072985D01*
X29289801Y18015000D01*
X29590199Y18015000D01*
X29884826Y18073605D01*
X30162358Y18188562D01*
X30412131Y18355455D01*
X30624545Y18567869D01*
X30710000Y18695761D01*
X30795455Y18567869D01*
X31007869Y18355455D01*
X31135761Y18270000D01*
X31007869Y18184545D01*
X30795455Y17972131D01*
X30628562Y17722358D01*
X30513605Y17444826D01*
X30455000Y17150199D01*
X30455000Y16849801D01*
X30513605Y16555174D01*
X30628562Y16277642D01*
X30795455Y16027869D01*
X31007869Y15815455D01*
X31257642Y15648562D01*
X31535174Y15533605D01*
X31829801Y15475000D01*
X32130199Y15475000D01*
X32424826Y15533605D01*
X32702358Y15648562D01*
X32952131Y15815455D01*
X33164545Y16027869D01*
X33250000Y16155761D01*
X33335455Y16027869D01*
X33547869Y15815455D01*
X33797642Y15648562D01*
X34075174Y15533605D01*
X34369801Y15475000D01*
X34670199Y15475000D01*
X34964826Y15533605D01*
X35242358Y15648562D01*
X35492131Y15815455D01*
X35704545Y16027869D01*
X35871438Y16277642D01*
X35986395Y16555174D01*
X36045000Y16849801D01*
X36045000Y17150199D01*
X35986395Y17444826D01*
X35871438Y17722358D01*
X35704545Y17972131D01*
X35492131Y18184545D01*
X35364239Y18270000D01*
X35492131Y18355455D01*
X35704545Y18567869D01*
X35790000Y18695761D01*
X35875455Y18567869D01*
X36087869Y18355455D01*
X36337642Y18188562D01*
X36615174Y18073605D01*
X36909801Y18015000D01*
X37210199Y18015000D01*
X37504826Y18073605D01*
X37782358Y18188562D01*
X38032131Y18355455D01*
X38244545Y18567869D01*
X38330000Y18695761D01*
X38415455Y18567869D01*
X38627869Y18355455D01*
X38755761Y18270000D01*
X38627869Y18184545D01*
X38415455Y17972131D01*
X38248562Y17722358D01*
X38133605Y17444826D01*
X38075000Y17150199D01*
X38075000Y16849801D01*
X38133605Y16555174D01*
X38248562Y16277642D01*
X38415455Y16027869D01*
X38627869Y15815455D01*
X38877642Y15648562D01*
X39155174Y15533605D01*
X39449801Y15475000D01*
X39750199Y15475000D01*
X40044826Y15533605D01*
X40322358Y15648562D01*
X40572131Y15815455D01*
X40784545Y16027869D01*
X40951438Y16277642D01*
X40975000Y16334525D01*
X40974999Y15845438D01*
X40974999Y15295435D01*
X40975000Y9329436D01*
X40970525Y9283999D01*
X40988384Y9102668D01*
X41041276Y8928305D01*
X41127169Y8767611D01*
X41213798Y8662053D01*
X41213801Y8662050D01*
X41242762Y8626761D01*
X41278051Y8597800D01*
X43942635Y5933216D01*
X43868562Y5822358D01*
X43753605Y5544826D01*
X43695000Y5250199D01*
X43695000Y4949801D01*
X43753605Y4655174D01*
X43868562Y4377642D01*
X44035455Y4127869D01*
X44247869Y3915455D01*
X44497642Y3748562D01*
X44775174Y3633605D01*
X45069801Y3575000D01*
X45370199Y3575000D01*
X45664826Y3633605D01*
X45942358Y3748562D01*
X46192131Y3915455D01*
X46404545Y4127869D01*
X46490000Y4255761D01*
X46575455Y4127869D01*
X46787869Y3915455D01*
X47037642Y3748562D01*
X47315174Y3633605D01*
X47609801Y3575000D01*
X47910199Y3575000D01*
X48204826Y3633605D01*
X48482358Y3748562D01*
X48732131Y3915455D01*
X48944545Y4127869D01*
X49111438Y4377642D01*
X49226395Y4655174D01*
X49285000Y4949801D01*
X49285000Y5250199D01*
X49226395Y5544826D01*
X49111438Y5822358D01*
X48944545Y6072131D01*
X48732131Y6284545D01*
X48725000Y6289310D01*
X48725000Y8370576D01*
X48729474Y8416003D01*
X48725000Y8461430D01*
X48725000Y8461437D01*
X48711615Y8597334D01*
X48658723Y8771697D01*
X48572830Y8932391D01*
X48457238Y9073240D01*
X48421945Y9102204D01*
X45225019Y12299130D01*
X45225019Y14933801D01*
X45301939Y15010721D01*
X45337238Y15039690D01*
X45452830Y15180539D01*
X45538723Y15341233D01*
X45591615Y15515596D01*
X45605000Y15651493D01*
X45605000Y15651500D01*
X45609474Y15696927D01*
X45605000Y15742354D01*
X45605000Y15920841D01*
X45658733Y16021368D01*
X45711625Y16195731D01*
X45729485Y16377062D01*
X45722626Y16446700D01*
X45809845Y16657265D01*
X45855000Y16884273D01*
X45855000Y17115727D01*
X45809845Y17342735D01*
X45721271Y17556571D01*
X45592682Y17749019D01*
X45429019Y17912682D01*
X45236571Y18041271D01*
X45141668Y18080581D01*
X45402358Y18188562D01*
X45652131Y18355455D01*
X45864545Y18567869D01*
X45950000Y18695761D01*
X46035455Y18567869D01*
X46247869Y18355455D01*
X46497642Y18188562D01*
X46775174Y18073605D01*
X47069801Y18015000D01*
X47370199Y18015000D01*
X47664826Y18073605D01*
X47942358Y18188562D01*
X48192131Y18355455D01*
X48404545Y18567869D01*
X48490000Y18695761D01*
X48575455Y18567869D01*
X48787869Y18355455D01*
X48915761Y18270000D01*
X48787869Y18184545D01*
X48575455Y17972131D01*
X48408562Y17722358D01*
X48293605Y17444826D01*
X48235000Y17150199D01*
X48235000Y16849801D01*
X48293605Y16555174D01*
X48408562Y16277642D01*
X48575455Y16027869D01*
X48787869Y15815455D01*
X49037642Y15648562D01*
X49315174Y15533605D01*
X49609801Y15475000D01*
X49675001Y15475000D01*
X49675000Y13325090D01*
X49697066Y13101049D01*
X49784267Y12813585D01*
X49925874Y12548657D01*
X50116445Y12316445D01*
X50348656Y12125874D01*
X50613584Y11984267D01*
X50901048Y11897066D01*
X51200000Y11867622D01*
X51498951Y11897066D01*
X51786415Y11984267D01*
X52051343Y12125874D01*
X52283555Y12316445D01*
X52474126Y12548656D01*
X52615733Y12813584D01*
X52702934Y13101048D01*
X52725000Y13325089D01*
X52725000Y15529661D01*
X52744826Y15533605D01*
X53022358Y15648562D01*
X53272131Y15815455D01*
X53484545Y16027869D01*
X53651438Y16277642D01*
X53766395Y16555174D01*
X53825000Y16849801D01*
X53825000Y17150199D01*
X53766395Y17444826D01*
X53651438Y17722358D01*
X53484545Y17972131D01*
X53272131Y18184545D01*
X53144239Y18270000D01*
X53272131Y18355455D01*
X53484545Y18567869D01*
X53651438Y18817642D01*
X53766395Y19095174D01*
X53825000Y19389801D01*
X53825000Y19690199D01*
X53766395Y19984826D01*
X53651438Y20262358D01*
X53484545Y20512131D01*
X53272131Y20724545D01*
X53022358Y20891438D01*
X52744826Y21006395D01*
X52450199Y21065000D01*
X52149801Y21065000D01*
X51855174Y21006395D01*
X51577642Y20891438D01*
X51327869Y20724545D01*
X51115455Y20512131D01*
X51030000Y20384239D01*
X50944545Y20512131D01*
X50732131Y20724545D01*
X50482358Y20891438D01*
X50204826Y21006395D01*
X49910199Y21065000D01*
X49609801Y21065000D01*
X49315174Y21006395D01*
X49037642Y20891438D01*
X48787869Y20724545D01*
X48575455Y20512131D01*
X48490000Y20384239D01*
X48404545Y20512131D01*
X48192131Y20724545D01*
X47942358Y20891438D01*
X47664826Y21006395D01*
X47370199Y21065000D01*
X47069801Y21065000D01*
X46775174Y21006395D01*
X46497642Y20891438D01*
X46247869Y20724545D01*
X46035455Y20512131D01*
X45950000Y20384239D01*
X45864545Y20512131D01*
X45652131Y20724545D01*
X45402358Y20891438D01*
X45124826Y21006395D01*
X44830199Y21065000D01*
X44529801Y21065000D01*
X44235174Y21006395D01*
X43957642Y20891438D01*
X43707869Y20724545D01*
X43495455Y20512131D01*
X43328562Y20262358D01*
X43213605Y19984826D01*
X43155000Y19690199D01*
X43155000Y19389801D01*
X43212985Y19098290D01*
X42902525Y18787829D01*
X42874869Y18765132D01*
X42852173Y18737477D01*
X42852171Y18737475D01*
X42784271Y18654738D01*
X42784270Y18654737D01*
X42716948Y18528788D01*
X42675492Y18392125D01*
X42665001Y18285607D01*
X42665001Y18285598D01*
X42661495Y18250001D01*
X42665001Y18214404D01*
X42665001Y18054348D01*
X42482735Y18129845D01*
X42255727Y18175000D01*
X42024273Y18175000D01*
X41797265Y18129845D01*
X41583429Y18041271D01*
X41390981Y17912682D01*
X41227318Y17749019D01*
X41098729Y17556571D01*
X41059419Y17461668D01*
X40951438Y17722358D01*
X40784545Y17972131D01*
X40572131Y18184545D01*
X40444239Y18270000D01*
X40572131Y18355455D01*
X40784545Y18567869D01*
X40951438Y18817642D01*
X41066395Y19095174D01*
X41125000Y19389801D01*
X41125000Y19690199D01*
X41066395Y19984826D01*
X40951438Y20262358D01*
X40784545Y20512131D01*
X40572131Y20724545D01*
X40322358Y20891438D01*
X40044826Y21006395D01*
X39750199Y21065000D01*
X39449801Y21065000D01*
X39155174Y21006395D01*
X38877642Y20891438D01*
X38627869Y20724545D01*
X38415455Y20512131D01*
X38330000Y20384239D01*
X38244545Y20512131D01*
X38032131Y20724545D01*
X37782358Y20891438D01*
X37504826Y21006395D01*
X37210199Y21065000D01*
X36909801Y21065000D01*
X36615174Y21006395D01*
X36337642Y20891438D01*
X36087869Y20724545D01*
X35875455Y20512131D01*
X35790000Y20384239D01*
X35704545Y20512131D01*
X35492131Y20724545D01*
X35242358Y20891438D01*
X34964826Y21006395D01*
X34670199Y21065000D01*
X34369801Y21065000D01*
X34075174Y21006395D01*
X33797642Y20891438D01*
X33547869Y20724545D01*
X33335455Y20512131D01*
X33250000Y20384239D01*
X33164545Y20512131D01*
X32952131Y20724545D01*
X32702358Y20891438D01*
X32424826Y21006395D01*
X32130199Y21065000D01*
X31829801Y21065000D01*
X31535174Y21006395D01*
X31257642Y20891438D01*
X31007869Y20724545D01*
X30795455Y20512131D01*
X30710000Y20384239D01*
X30624545Y20512131D01*
X30412131Y20724545D01*
X30162358Y20891438D01*
X29884826Y21006395D01*
X29590199Y21065000D01*
X29289801Y21065000D01*
X28995174Y21006395D01*
X28717642Y20891438D01*
X28467869Y20724545D01*
X28255455Y20512131D01*
X28170000Y20384239D01*
X28084545Y20512131D01*
X27872131Y20724545D01*
X27622358Y20891438D01*
X27344826Y21006395D01*
X27050199Y21065000D01*
X26749801Y21065000D01*
X26455174Y21006395D01*
X26177642Y20891438D01*
X25927869Y20724545D01*
X25715455Y20512131D01*
X25630000Y20384239D01*
X25544545Y20512131D01*
X25332131Y20724545D01*
X25082358Y20891438D01*
X24804826Y21006395D01*
X24510199Y21065000D01*
X24209801Y21065000D01*
X23915174Y21006395D01*
X23637642Y20891438D01*
X23387869Y20724545D01*
X23175455Y20512131D01*
X23008562Y20262358D01*
X22893605Y19984826D01*
X22835000Y19690199D01*
X22835000Y19389801D01*
X22892985Y19098290D01*
X22622523Y18827827D01*
X22594867Y18805130D01*
X22504268Y18694735D01*
X22436946Y18568786D01*
X22395490Y18432123D01*
X22384999Y18325605D01*
X22384999Y18325596D01*
X22381493Y18289999D01*
X22384999Y18254402D01*
X22384999Y18035640D01*
X22376571Y18041271D01*
X22322973Y18063472D01*
X22271828Y18090810D01*
X22216330Y18107645D01*
X22162735Y18129845D01*
X22105840Y18141162D01*
X22050340Y18157998D01*
X21992624Y18163682D01*
X21935727Y18175000D01*
X21877711Y18175000D01*
X21819999Y18180684D01*
X21762287Y18175000D01*
X21704273Y18175000D01*
X21647377Y18163683D01*
X21589659Y18157998D01*
X21534158Y18141162D01*
X21477265Y18129845D01*
X21423671Y18107646D01*
X21368172Y18090810D01*
X21317026Y18063472D01*
X21263429Y18041271D01*
X21215189Y18009038D01*
X21164047Y17981702D01*
X21119222Y17944915D01*
X21070981Y17912682D01*
X21009951Y17851652D01*
X20965120Y17814860D01*
X20928329Y17770030D01*
X20907318Y17749019D01*
X20890810Y17724313D01*
X20818286Y17635942D01*
X20754383Y17516388D01*
X20733182Y17476725D01*
X20631438Y17722358D01*
X20464545Y17972131D01*
X20252131Y18184545D01*
X20124239Y18270000D01*
X20252131Y18355455D01*
X20464545Y18567869D01*
X20631438Y18817642D01*
X20746395Y19095174D01*
X20805000Y19389801D01*
X20805000Y19690199D01*
X20746395Y19984826D01*
X20631438Y20262358D01*
X20464545Y20512131D01*
X20252131Y20724545D01*
X20002358Y20891438D01*
X19724826Y21006395D01*
X19430199Y21065000D01*
X19129801Y21065000D01*
X18835174Y21006395D01*
X18557642Y20891438D01*
X18307869Y20724545D01*
X18095455Y20512131D01*
X18010000Y20384239D01*
X17924545Y20512131D01*
X17712131Y20724545D01*
X17462358Y20891438D01*
X17184826Y21006395D01*
X16890199Y21065000D01*
X16589801Y21065000D01*
X16295174Y21006395D01*
X16017642Y20891438D01*
X15767869Y20724545D01*
X15555455Y20512131D01*
X15470000Y20384239D01*
X15384545Y20512131D01*
X15172131Y20724545D01*
X14922358Y20891438D01*
X14644826Y21006395D01*
X14350199Y21065000D01*
X14049801Y21065000D01*
X13755174Y21006395D01*
X13477642Y20891438D01*
X13227869Y20724545D01*
X13015455Y20512131D01*
X12930000Y20384239D01*
X12844545Y20512131D01*
X12632131Y20724545D01*
X12382358Y20891438D01*
X12104826Y21006395D01*
X11810199Y21065000D01*
X11509801Y21065000D01*
X11215174Y21006395D01*
X10937642Y20891438D01*
X10687869Y20724545D01*
X10475455Y20512131D01*
X10390000Y20384239D01*
X10304545Y20512131D01*
X10092131Y20724545D01*
X9842358Y20891438D01*
X9564826Y21006395D01*
X9270199Y21065000D01*
X8969801Y21065000D01*
X8675174Y21006395D01*
X8397642Y20891438D01*
X8147869Y20724545D01*
X7935455Y20512131D01*
X7850000Y20384239D01*
X7764545Y20512131D01*
X7552131Y20724545D01*
X7302358Y20891438D01*
X7024826Y21006395D01*
X6730199Y21065000D01*
X6429801Y21065000D01*
X6135174Y21006395D01*
X5857642Y20891438D01*
X5607869Y20724545D01*
X5395455Y20512131D01*
X5228562Y20262358D01*
X5113605Y19984826D01*
X5055000Y19690199D01*
X5055000Y19389801D01*
X5113605Y19095174D01*
X5228562Y18817642D01*
X5395455Y18567869D01*
X5607869Y18355455D01*
X5857642Y18188562D01*
X6118332Y18080581D01*
X6023429Y18041271D01*
X5830981Y17912682D01*
X5667318Y17749019D01*
X5538729Y17556571D01*
X5499419Y17461668D01*
X5391438Y17722358D01*
X5224545Y17972131D01*
X5012131Y18184545D01*
X4762358Y18351438D01*
X4484826Y18466395D01*
X4190199Y18525000D01*
X3889801Y18525000D01*
X3595174Y18466395D01*
X3317642Y18351438D01*
X3067869Y18184545D01*
X2855455Y17972131D01*
X2688562Y17722358D01*
X2573605Y17444826D01*
X2515000Y17150199D01*
X2515000Y16849801D01*
X2573605Y16555174D01*
X2688562Y16277642D01*
X2855455Y16027869D01*
X3067869Y15815455D01*
X3317642Y15648562D01*
X3595174Y15533605D01*
X3889801Y15475000D01*
X4190199Y15475000D01*
X4484826Y15533605D01*
X4762358Y15648562D01*
X5012131Y15815455D01*
X5224545Y16027869D01*
X5391438Y16277642D01*
X5499419Y16538332D01*
X5538729Y16443429D01*
X5667318Y16250981D01*
X5830981Y16087318D01*
X5905000Y16037860D01*
X5905001Y10747229D01*
X3843978Y8686205D01*
X3843973Y8686201D01*
X3416844Y8259071D01*
X2879505Y8259071D01*
X2834071Y8263546D01*
X2788637Y8259071D01*
X2788636Y8259071D01*
X2652739Y8245686D01*
X2478376Y8192794D01*
X2317682Y8106901D01*
X2176833Y7991309D01*
X2147870Y7956017D01*
X1878057Y7686204D01*
X1842762Y7657238D01*
X1727170Y7516388D01*
X1641277Y7355694D01*
X1588385Y7181331D01*
X1579897Y7095152D01*
X1393130Y6908385D01*
X1237181Y6674991D01*
X1129762Y6415657D01*
X1075000Y6140350D01*
X450000Y6140350D01*
X450000Y22550000D01*
X55550001Y22550000D01*
X55550000Y450000D01*
G36*
X12225000Y16533150D02*
G01*
X11355030Y15663179D01*
X11355030Y15955434D01*
X11341645Y16091331D01*
X11288753Y16265694D01*
X11202860Y16426388D01*
X11134999Y16509077D01*
X11134999Y17989695D01*
X11218290Y18072985D01*
X11509801Y18015000D01*
X11810199Y18015000D01*
X12104826Y18073605D01*
X12224999Y18123382D01*
X12225000Y16533150D01*
G37*
X12225000Y16533150D02*
X11355030Y15663179D01*
X11355030Y15955434D01*
X11341645Y16091331D01*
X11288753Y16265694D01*
X11202860Y16426388D01*
X11134999Y16509077D01*
X11134999Y17989695D01*
X11218290Y18072985D01*
X11509801Y18015000D01*
X11810199Y18015000D01*
X12104826Y18073605D01*
X12224999Y18123382D01*
X12225000Y16533150D01*
%TD*%
M02*
